<svg width="2003" height="3790" fill="none" xmlns="http://www.w3.org/2000/svg"><path fill-rule="evenodd" clip-rule="evenodd" d="M804.164.957c-14.941 1.544-30.924 2.176-64.972 2.57-18.693.216-39.373.871-45.956 1.457-6.583.585-20.753.998-31.487.919-30.712-.229-45.624-.086-49.199.47-9.326 1.451-35.421 2.774-61.28 3.106-42.017.539-54.844 1.393-81.466 5.419-3.573.541-19.092 1.221-34.486 1.511-27.017.509-45.412 1.636-57.975 3.553-3.299.503-11.171 1.173-17.493 1.488-6.322.315-13.07.754-14.994.975-1.924.22-8.896.714-15.493 1.098-6.598.383-12.726.836-13.619 1.005-2.594.493-17.928 1.355-37.36 2.1-20.123.771-40.109.698-60.975-.222-12.353-.545-20.303-.075-35.168 2.078-1.749.254-6.472 1.189-10.496 2.078-11.805 2.609-21.486 4.105-34.802 5.379-24.908 2.383-35.632 4.706-38.313 8.298-4.226 5.663.33 8.5 15.962 9.939 13.699 1.26 40.32 1.165 48.34-.173 3.024-.505 7.315-1.17 9.536-1.478 2.221-.309 4.92-.718 5.998-.91 13.666-2.436 25.463-2.897 42.691-1.669 31.008 2.211 78.823 1.568 111.204-1.496 6.163-.583 9.786-.842 26.906-1.918 5.453-.342 10.239-.824 10.637-1.07.398-.246 6.057-.686 12.576-.978 6.521-.293 14.368-.935 17.441-1.427 3.072-.493 14.092-.948 24.49-1.012 27.838-.171 42.153-.728 48.892-1.901 3.298-.575 8.471-1.312 11.495-1.64 3.023-.327 7.072-.791 8.996-1.032 15.084-1.886 59.907-3.272 82.466-2.549 1.099.035 10.547-.629 20.996-1.476 11.778-.955 36.09-1.694 63.973-1.944 24.737-.222 47-.627 49.474-.9 2.474-.273 17.993-.727 34.486-1.008 16.493-.282 31.562-.759 33.486-1.06 4.068-.636 15.003-1.409 33.986-2.401 15.506-.811 29.4-.578 42.982.721 5.223.5 24.79.721 43.482.493 61.831-.757 143.795-.752 152.935.009 4.95.413 11.92.957 15.49 1.211 3.58.253 11.22.94 17 1.525 5.77.585 20.84 1.035 33.48 1 22.81-.064 43.83.899 64.98 2.976 16.51 1.621 17.26 1.665 41.48 2.44 24.11.772 23.67.748 46.98 2.548 8.52.659 31.69 1.272 51.48 1.364 19.79.092 36.88.466 37.98.831 2.22.736 3.84.953 27.49 3.677 12.08 1.391 23.99 1.926 44.48 1.998 15.4.055 32.26.333 37.49.619 5.22.286 30.41.715 55.97.952 25.57.238 50.98.925 56.48 1.527 13.91 1.524 41.88 2.037 48.48.889 6.02-1.048 12.71-1.593 29.64-2.417 10.13-.493 13.46-.136 36.49 3.913 24.67 4.34 44.5 6.421 63.81 6.7 5.23.076 15.12.718 22 1.427 6.87.708 18.79 1.359 26.48 1.445 7.7.087 14.9.236 16 .333 1.1.097 11.89-.183 23.99-.621 15.77-.572 26.09-.431 36.48.496 7.97.712 21.77 1.169 30.66 1.017 15.78-.271 16.18-.226 16.85 1.873.37 1.183.53 16.16.33 33.284-.47 42.33.89 152.103 2.15 173.634.56 9.625 1.22 43.15 1.48 74.5.25 31.35.73 65.1 1.06 75 .33 9.9.75 31.725.94 48.5.18 16.775.8 35.675 1.37 42 .58 6.325 1.04 25.225 1.03 42 0 16.775.52 44.9 1.16 62.5.64 17.6 1.29 57.65 1.43 89 .25 53.606.96 90.606 2.02 105.5.26 3.575.73 16.4 1.05 28.5.32 12.1 1 29.2 1.5 38 .51 8.8.93 23.2.94 32 .01 8.8.5 23.425 1.1 32.5.6 9.075 1.21 28.2 1.35 42.5.47 47.11 2.01 96.4 3.53 113.5.52 5.78.96 18.15.98 27.5.03 9.35.67 23.75 1.44 32 2.17 23.43 2.06 28.41-.81 38.32-1.39 4.77-2.99 11.6-3.56 15.18-1.04 6.51-.82 36.32.5 65.5.47 10.5.23 19.35-.8 29.5-.81 7.97-1.48 15.4-1.49 16.5-.01 1.1-.78 8.3-1.7 16-1.18 9.84-1.94 28.12-2.55 61.5-.49 26.78-1.39 50.99-2.07 55.5-1.2 8.03-1.62 54.82-.96 105.5.18 13.48-.03 39.8-.46 58.5-.64 27.95-.48 37.74.88 55 .91 11.55 2.1 26.62 2.63 33.5.53 6.88 1.21 21.95 1.51 33.5 1.5 57.68 2.79 84.17 5.5 113.5 1.65 17.8 2.89 45.49 3.05 68 .2 28.19 1.14 43.09 5.05 80.5.51 4.95 1.13 25.65 1.37 46 .56 46.6 1.32 75.68 2.52 96.05 1.11 18.86 1.91 53.46 2.45 106.45.21 21.17.88 44.2 1.47 51.16 2.36 27.68 2.91 41.96 3.54 91.84.26 21.17 1.18 48.89 2.02 61.6.89 13.33 1.73 43.78 1.98 72 .24 26.89.71 54.3 1.04 60.9 1.21 23.65 1.97 75.82 1.28 87.3-.39 6.43-.48 33.97-.2 61.2.27 27.22.39 56.25.25 64.5-.38 22.89-.3 77.96.16 117.5.22 19.52.33 53.27.22 75-.1 21.72-.17 51.87-.16 67 .04 46.24-1.06 169.23-2.49 277.5-.33 24.87-1.2 47.33-2.4 62-1.43 17.42-1.8 29.8-1.54 51 .19 15.4-.12 32.72-.68 38.5-4.73 48.47-4.98 52.71-5.49 91.41-.25 18.66-.88 37.56-1.41 42-2.55 21.53-3.3 75.87-1.21 89.09.58 3.73.59 6.22.01 6.59-.52.32-4.62.44-9.12.26-7.37-.3-8.8-.03-14.62 2.69l-6.46 3.02-9.56-1.47c-5.26-.81-13.62-1.98-18.57-2.6-4.94-.62-10.79-1.54-12.99-2.03-18.75-4.21-43.31-5.57-55.51-3.08-8.61 1.76-13.14 2.11-34.26 2.61-39.37.95-47.4 1.54-61.17 4.54-18.83 4.1-29.4 5.1-57.97 5.51-15.95.23-33.49.8-38.99 1.28-12.72 1.1-41.01.71-49.48-.68-3.57-.58-9.64-1.32-13.49-1.64-3.85-.33-9.47-.8-12.5-1.07-3.02-.26-13.37-.7-22.99-.96-20.39-.57-27.29-.94-46.98-2.52-19.3-1.54-132.43-1.63-147.93-.11-6.33.62-17.35 1.16-24.49 1.2-11.71.07-42.1 1.4-54.98 2.41-9 .7-27.93 2.58-30.99 3.08-7.39 1.21-24.3 2.23-49.48 2.98-7.97.24-16.07.63-17.99.88-1.92.24-8.22.71-13.99 1.05-5.78.34-13.2 1.04-16.5 1.56-3.3.52-15.44 1.41-26.99 1.96-31.05 1.5-38.65 2.01-52.97 3.52-30.76 3.25-43.99 4.2-70.475 5.04-8.522.27-17.518.71-19.992.99-13.853 1.53-66.482 5.16-86.963 6-31.566 1.28-39.16 1.64-45.981 2.17-4.124.32-9.071.69-10.996.83-1.924.13-13.844.54-26.489.9-12.644.37-36.709 1.1-53.477 1.63-16.768.53-42.632 1.25-57.476 1.6-14.844.35-28.788.74-30.987.88-9.588.58-167.439 1.93-223.907 1.91-78.738-.03-178.366-1.58-192.42-2.99-1.924-.2-21.715-.59-43.981-.88-51.609-.67-68.521-1.32-78.467-3.04-16.707-2.89-22.967-3.44-45.981-4-9.346-.23-20.367-.67-24.49-.99-7.29-.56-30.728-4.94-31.717-5.93-.685-.68 1.506-35.01 3.39-53.1 1.182-11.35 1.42-20.73.972-38.5-.526-20.94-2.597-51.18-4.185-61.12-.844-5.29-.764-44.74.115-56.38 1.065-14.08 1.322-77.71.37-91.5-1.806-26.2-2.174-55.71-.929-74.5.811-12.22 1.347-48.61 1.503-102 .133-45.65.74-95.83 1.35-111.5.695-17.88.783-33.72.236-42.5-.856-13.74-.509-96.8.474-113.5.275-4.68.647-42.48.826-84 .178-41.61.837-83.36 1.466-93.01.646-9.91.94-29.68.677-45.5-.411-24.8-.445-53.72-.148-126.99.095-23.48-.545-40.67-2.959-79.5-1.354-21.77-1.497-33.38-.81-65 .462-21.18.797-43 .745-48.5-.812-86.43-.765-100.93.36-111.5 3.23-30.36 3.646-39.85 3.438-78.5-.146-27.16.427-39.68 3.249-71 2.733-30.34 3.59-54.63 3.624-102.75.017-25.99.173-48.6.345-50.25.172-1.65.631-6.82 1.02-11.5.388-4.68.88-10.53 1.093-13 1.44-16.73 2.33-36.57 3.495-78 .564-20.08 1.493-43.7 2.065-52.5.57-8.8.926-19.61.788-24.02s.068-8.54.457-9.17c.39-.63.963-4.97 1.274-9.64.837-12.57.964-197.79.147-214.67-1.178-24.32-1.913-34-2.585-34-.353 0-.492-4.85-.309-10.79.387-12.54-1.7-49.33-3.338-58.84-.297-1.72.169-7.35 1.033-12.5.94-5.6 1.76-18.22 2.036-31.37.255-12.1.85-28.98 1.322-37.5.472-8.52.877-16.4.902-17.5.024-1.1.686-8.75 1.472-17 2.43-25.55 2.202-51.19-.805-90-.593-7.66-.648-58.38-.064-59.33.96-1.55 1.579-76.57.76-92.17-.555-10.58-.397-21.43.498-34.18.72-10.28 1.494-23.78 1.718-30 .224-6.23.959-19.87 1.632-30.32.834-12.92.949-24.08.36-34.87-.477-8.72-.557-21.55-.177-28.5 2.123-38.866 2.74-63.99 1.71-69.829-1.73-9.836-6.485-13.002-11.46-7.632-6.374 6.881-8.403 29.124-8.899 97.551-.202 27.89-.577 51.06-.832 51.5-.255.43-.78 8.66-1.165 18.28-.386 9.62-.863 19.08-1.06 21-2.048 19.94-2.318 38.83-1.016 71.06.582 14.44.46 24.96-.41 35.33-1.156 13.77-1.703 81.95-.733 91.11 1.199 11.3 2.005 30.19 2.092 49 .088 19.07-.242 29.29-2.258 70-.354 7.15-.528 19.07-.386 26.5.142 7.43.39 28.12.553 46 .162 17.88.708 53.88 1.213 80 1.057 54.77 1.073 70.63.17 168-.365 39.33-1.158 77.57-1.76 85-.604 7.43-1.28 18.41-1.502 24.42-.222 6.01-.608 12.31-.856 14-.66 4.49-2.519 51.4-3.095 78.08-.274 12.65-.934 28.62-1.468 35.5-.533 6.88-1.235 17.22-1.561 23-.326 5.78-.935 15.45-1.354 21.5-.418 6.05-.842 31.25-.942 56-.1 24.75-.638 52.2-1.197 61-1.648 25.91-3.971 53.72-4.57 54.69-.306.5-.728 19.22-.94 41.6-.352 37.49-1.006 60.29-1.942 67.74-2.447 19.53-3.801 48.04-3.488 73.47.439 35.58.555 95.28.262 134-.123 16.22-.034 31.52.199 34 .432 4.6 2.126 30.34 3.06 46.5.286 4.95.445 20.92.353 35.5-.21 33.44-.178 88.14.081 134 .11 19.52-.044 41.12-.34 48-1.955 45.09-1.895 39.91-3.263 282-.28 49.22-.624 120.32-.768 158-.144 37.67-.818 80.83-1.498 95.89-1.18 26.13-1.008 46.21.625 72.61 1.072 17.33.946 73.51-.22 98-1.208 25.38-1.033 55.74.391 68 2.648 22.77 3.154 29.28 3.733 48 .453 14.63.147 26.45-1.138 44-1.85 25.29-1.574 49.95.634 56.56 1.343 4.02 5.6 8.94 7.734 8.94.816 0 2.329-.77 3.361-1.7 1.62-1.47 2.318-1.53 5.077-.44 7.093 2.8 19.64 6.94 27.189 8.96 8.079 2.17 12.952 2.8 28.598 3.66 4.733.26 9.231.7 9.996.97.764.28 4.988.68 9.386.89 4.398.2 10.92 1.08 14.494 1.94 12.736 3.07 36.993 5.57 54.251 5.6 9.221.02 17.163.28 17.648.58.484.29 10.706.77 22.716 1.05 32.978.77 48.28 1.36 65.194 2.51 8.454.58 27.571 1.24 42.482 1.46 14.912.23 36.559.77 48.104 1.2 11.545.44 24.14.72 27.989.64 11.132-.23 51.702-.36 109.454-.34 88.493.02 181.557-1.58 182.517-3.13.291-.47 1.304-.44 2.253.07.948.51 5.982.75 11.184.53 5.203-.21 21.38-.6 35.949-.86 14.569-.26 32.786-.73 40.483-1.04 7.697-.31 22.091-.83 31.987-1.16 9.896-.33 19.567-.77 21.491-.98 1.924-.21 7.127-.41 11.561-.44 4.435-.04 10.957-.52 14.494-1.07 3.537-.55 9.58-.97 13.428-.94 15.196.14 78.63-3.18 94.461-4.93 8.829-.98 15.935-1.41 49.48-3.04 10.99-.54 23.81-1.42 28.49-1.97 4.67-.55 12.54-1.25 17.49-1.55 4.95-.3 10.35-.75 12-.99 1.64-.23 8.17-.69 14.49-1.02 6.32-.32 12.13-.8 12.92-1.06.78-.26 7.53-.48 14.99-.5 12.15-.02 25.87-1.03 52.06-3.84 12.55-1.35 32.12-2.54 58.47-3.58 8.25-.32 21.07-1.24 28.49-2.03 28.48-3.07 34.48-3.46 67.97-4.47 18.97-.58 37.86-1.37 41.98-1.76 13.2-1.27 128.94-.35 153.44 1.21 3.3.21 12.97.66 21.49 1 8.52.33 20.67.82 26.99 1.08 6.32.27 17.12 1.16 23.99 1.99 31.61 3.83 38.89 4.04 66.47 1.97 4.4-.33 21.27-.77 37.49-.98 16.21-.21 31.73-.86 34.48-1.45 2.75-.58 9.27-1.75 14.5-2.59 5.22-.85 11.07-1.94 12.99-2.43 7.22-1.83 23.23-3.02 46.48-3.43 15.36-.28 30.82-1.21 42.98-2.6 20.86-2.38 27.4-2.25 51.92 1.05 19.21 2.59 40.18 2.08 53.54-1.31 7.25-1.83 10.32-2.19 12.99-1.5 11.6 2.98 12.07 3.01 16.56 1.3 5.01-1.91 14.22-9.76 14.47-12.31.87-8.99.21-14.01-2.59-19.72l-2.95-6 .25-18.5c.22-16.08 1.66-43.3 2.78-52.5 1.43-11.84 2.58-39.38 2.37-57-.24-20.54.66-36.32 3.62-63.5 2.31-21.29 3.49-46.18 3.46-73.39-.02-21.23.62-36.07 2.61-60.11.18-2.2.55-28.3.81-58s.75-59.85 1.1-67c.34-7.15.87-49 1.18-93 .57-82.28.63-100.48.52-164-.03-20.35.29-43.98.7-52.5.44-8.9.31-25.3-.31-38.5-.58-12.65-.94-38.08-.79-56.5.16-18.43.16-51.5.01-73.5-.34-47.99-.34-63.08-.03-118.5.13-23.38-.23-50.83-.82-61-.58-10.18-1.25-42.8-1.48-72.5-.23-29.7-.88-60.42-1.45-68.26-1.75-24.16-2.97-59.35-3.14-90.74-.09-16.5-.53-33.6-.98-38-2.88-28.04-3.82-53.19-3.77-101 .02-25.3-.48-54.78-1.11-65.5-2.51-42.69-3.13-62.64-3.53-113.5-.24-31.06-.74-43.28-2.45-60-3.27-31.86-3.78-41.17-3.97-71.28-.09-15.25-.35-28.62-.57-29.72-.22-1.1-.67-8.07-1.01-15.5-.34-7.43-.81-14.4-1.04-15.5-.99-4.57-4.37-61.66-4.89-82.5-1.39-55.62-1.43-56.43-4.72-100.5-2.18-29.09-2.45-47.18-1.09-71 .79-13.88.67-57.85-.18-66.5-.62-6.26-.73-49.31-.15-56 .27-3.03 1.37-15.18 2.46-27 1.5-16.45 1.91-28.08 1.74-49.5-.13-15.4.09-32.95.49-39 .39-6.05 1-15.72 1.36-21.5.35-5.78 1.1-14.08 1.66-18.46.56-4.38 1.32-10.91 1.69-14.5.83-8.14.57-46.09-.52-76.54-.72-19.9-.58-24.82 1.01-36.5 1.64-12.04 1.78-18.24 1.26-57.44-.32-24.17-1-47.79-1.52-52.5-.95-8.61-2.11-68.52-2.08-107.56.01-11.55-.45-26.175-1.02-32.5-.58-6.325-1.48-27.475-2-47-.91-34.276-1.43-50.939-2.41-78.5-.26-7.15-.71-19.975-1.01-28.5-.3-8.525-.75-44.525-.99-80-.49-72.188-1.17-108.395-2.5-133.5-.49-9.35-.89-27.8-.89-41 .01-13.2-.45-30.3-1.02-38-.57-7.7-1.33-40.55-1.69-73-.36-32.45-.84-59.312-1.07-59.694-.23-.381-.47-17.706-.54-38.5-.06-20.793-.51-42.306-.99-47.806s-1.1-39.475-1.38-75.5c-.43-55.297-.82-68.528-2.48-84.94-1.14-11.254-1.98-26.835-1.98-37-.01-20.559-1.37-34.283-3.81-38.529-.95-1.667-3.4-3.851-5.44-4.853-3.54-1.746-3.99-1.749-10.84-.084-6.67 1.623-7.71 1.631-15.76.119-19.59-3.678-36.72-4.346-95.09-3.709-15.12.164-30.19-.045-33.49-.465a1501.6 1501.6 0 0 0-9.49-1.183c-1.93-.23-12.95-.842-24.49-1.361-23.93-1.074-32.26-2.009-44.98-5.046-4.95-1.182-10.35-2.274-12-2.426-1.65-.153-7.67-.837-13.37-1.521-9.49-1.136-30.07-.942-41.6.393-2.2.255-12.1.775-22 1.156-15.07.58-19.53.405-27.48-1.079-8.02-1.496-16.19-1.802-52.48-1.969-49.7-.229-124.42-1.374-132.45-2.029-9.91-.81-32.35-3.439-38.98-4.567-3.57-.608-20.42-1.246-37.43-1.419-31.18-.315-64.5-1.364-65.65-2.065-.34-.209-9.56-.642-20.49-.962-10.93-.321-22.12-.757-24.87-.97-2.75-.212-10.17-.665-16.49-1.007-10.31-.556-19.58-1.38-50.83-4.514-5.8-.582-10-.582-11.09 0-1.09.582-2.1.582-2.69-.002-.57-.572-8.73-.649-20.89-.198-15.89.59-23.22.395-35.95-.96-25.82-2.747-50.21-4.098-61.48-3.405-10.01.617-29.542.693-64.468.25-8.796-.112-22.966.161-31.487.606-17.487.914-47.608 1.087-48.912.281-1.517-.938-61.252-1.441-69.539-.585Z" fill="#025354"/></svg>