<svg width="2003" height="3790" fill="none" xmlns="http://www.w3.org/2000/svg"><path style="fill:red;stroke:#fa0" d="M1029.316-.244c-4.285-.072-7.939-.026-10.777.148-9.973.615-29.509.693-64.432.25-8.813-.112-22.978.162-31.517.608-8.73.456-20.63.728-30.502.785-4.936.028-9.367.002-12.639-.08a91.134 91.134 0 0 1-3.95-.166 17.294 17.294 0 0 1-1.153-.113c-.277-.04-.482-.135-.38-.07-.2-.125-.305-.121-.484-.153a9.372 9.372 0 0 0-.666-.09 48.196 48.196 0 0 0-2.168-.16 270.403 270.403 0 0 0-7.271-.28c-5.948-.165-13.818-.289-21.9-.357-8.082-.068-16.375-.082-23.168-.023-6.794.058-12.058.183-14.196.404-14.918 1.542-30.884 2.174-64.927 2.568-18.7.216-39.352.868-45.995 1.46-6.54.58-20.721.994-31.44.915-15.356-.114-26.763-.135-34.782-.058-8.02.077-12.61.242-14.494.535-9.232 1.436-35.365 2.768-61.211 3.1-42.023.539-54.899 1.397-81.534 5.425-1.71.26-6.512.57-12.757.844-6.246.273-13.972.515-21.664.66-27.027.51-45.435 1.637-58.041 3.56-3.247.496-11.136 1.167-17.444 1.481-6.327.315-13.044.753-15.025.98-1.873.215-8.872.71-15.465 1.094-3.301.192-6.485.402-8.957.584a204.7 204.7 0 0 0-3.102.248c-.807.073-1.339.126-1.625.18v.002c-1.172.223-5.716.577-12.298.947-6.583.37-15.273.773-24.987 1.145-20.109.77-40.082.697-60.935-.223-12.375-.546-20.382-.07-35.262 2.084-1.795.261-6.499 1.193-10.531 2.084-11.788 2.606-21.439 4.097-34.74 5.37-12.463 1.192-21.384 2.369-27.551 3.704-6.168 1.336-9.615 2.78-11.116 4.791-1.094 1.467-1.675 2.808-1.585 4.075.09 1.266.89 2.353 2.255 3.203 2.73 1.7 7.805 2.737 15.647 3.459l-5.373-5.506C81.27 570.674 32.01 898.02 31.021 1034.22a4264.91 4264.91 0 0 1-.396 36.04c-.075 4.666-.152 8.474-.227 11.14a167.799 167.799 0 0 1-.107 3.106c-.017.362-.035.642-.05.832a4.093 4.093 0 0 1-.028.238s-.01-.01.045-.102c-.09.155-.088.216-.11.319a5.795 5.795 0 0 0-.062.377c-.041.298-.085.698-.131 1.193-.092.99-.193 2.364-.299 4.023-.212 3.32-.44 7.785-.633 12.598-.385 9.617-.87 19.131-1.058 20.967-2.051 19.967-2.32 38.892-1.018 71.133.582 14.427.46 24.923-.408 35.27-.583 6.946-1.006 27.402-1.166 47.318-.08 9.957-.093 19.77-.025 27.67.067 7.899.209 13.853.459 16.212 1.195 11.266 2.003 30.154 2.09 48.952.087 19.063-.242 29.264-2.258 69.972-.355 7.17-.53 19.087-.387 26.535.142 7.424.392 28.116.555 45.995.162 17.884.707 53.884 1.212 80.005 1.057 54.768 1.073 70.618.17 167.987-.365 39.326-1.164 77.635-1.757 84.963-.605 7.44-1.282 18.416-1.504 24.441-.222 6.001-.619 12.36-.852 13.947-.178 1.213-.41 4.938-.685 10.387-.277 5.45-.59 12.57-.899 20.383-.619 15.626-1.227 34.026-1.515 47.37-.274 12.643-.935 28.62-1.467 35.472-.534 6.884-1.236 17.227-1.563 23.013-.326 5.777-.933 15.444-1.351 21.49-.423 6.122-.846 31.28-.946 56.034-.1 24.744-.639 52.218-1.195 60.972a1960.657 1960.657 0 0 1-2.678 36.688c-.43 5.154-.827 9.527-1.154 12.67-.163 1.571-.31 2.834-.434 3.728-.06.447-.116.803-.164 1.051-.023.124-.045.22-.062.283-.017.063-.046.104-.004.035-.097.159-.08.199-.094.27a3.335 3.335 0 0 0-.035.24c-.022.185-.043.426-.064.733a96.47 96.47 0 0 0-.127 2.566 574.16 574.16 0 0 0-.26 9.037c-.17 7.543-.33 17.822-.436 29.014-.352 37.486-1.013 60.328-1.937 67.681-2.452 19.567-3.806 48.087-3.492 73.54.439 35.573.554 95.275.261 133.99-.061 8.112-.069 15.994-.033 22.16.036 6.165.11 10.561.235 11.89.427 4.549 2.124 30.327 3.058 46.483.283 4.899.446 20.893.354 35.467-.21 33.443-.18 88.144.08 134.006.11 19.515-.046 41.134-.34 47.976-1.955 45.089-1.896 39.93-3.264 282.02-.28 49.22-.623 120.319-.767 158-.144 37.665-.82 80.837-1.498 95.869-1.181 26.143-1.01 46.25.625 72.664 1.067 17.26.943 73.49-.221 97.945-1.21 25.401-1.038 55.733.396 68.082 2.648 22.767 3.15 29.24 3.729 47.955.452 14.615.147 26.41-1.137 43.95-.926 12.658-1.321 25.158-1.207 35.328.114 10.17.704 17.951 1.865 21.427.703 2.103 2.13 4.368 3.668 6.145.769.888 1.563 1.653 2.326 2.209.764.555 1.49.928 2.215.928.565 0 1.177-.226 1.827-.555a8.793 8.793 0 0 0 1.869-1.274h.002c.786-.713 1.248-1.005 1.818-1.054.57-.05 1.375.168 2.738.707 7.124 2.812 19.664 6.948 27.244 8.976 8.105 2.177 13.046 2.82 28.7 3.68 2.36.13 4.662.303 6.464.479.902.088 1.68.174 2.272.255.593.082 1.035.175 1.121.206.294.107.687.17 1.268.251.583.082 1.326.165 2.181.247 1.712.162 3.874.316 6.08.421 4.354.198 10.884 1.078 14.399 1.924 12.816 3.09 37.062 5.587 54.367 5.617 4.606.01 8.894.081 12.086.186 1.596.052 2.917.114 3.863.18.473.033.854.068 1.12.101.132.017.237.035.302.05.065.013.108.05.016-.01h.006c.183.11.246.095.369.118.123.023.272.041.453.061.362.043.852.088 1.463.133 1.222.091 2.923.186 4.984.281 4.123.192 9.683.382 15.692.522 32.974.77 48.267 1.358 65.172 2.508 8.479.581 27.588 1.242 42.507 1.463 14.908.23 36.557.769 48.094 1.199 11.55.44 24.122.721 28.018.64 11.11-.23 51.694-.36 109.445-.34 44.25.01 89.64-.385 124.092-.976 17.225-.296 31.715-.64 41.963-1.008 5.124-.184 9.186-.373 12.006-.566 1.41-.096 2.508-.194 3.283-.293.387-.05.692-.1.93-.154.118-.028.218-.057.318-.098.1-.04.217-.057.35-.272.005-.01.128-.105.439-.096.31.01.74.12 1.152.342.385.207.878.291 1.586.385.708.094 1.6.164 2.623.213 2.046.097 4.616.103 7.23-.01 5.187-.21 21.373-.6 35.94-.86 14.572-.26 32.784-.728 40.492-1.039 7.695-.31 22.09-.83 31.985-1.16 4.95-.165 9.842-.357 13.74-.535 3.898-.178 6.775-.337 7.789-.447 1.861-.204 7.088-.408 11.51-.438 4.466-.04 10.98-.519 14.566-1.076 3.49-.543 9.54-.963 13.348-.934 15.281.141 78.612-3.177 94.52-4.935 8.815-.979 15.905-1.405 49.449-3.035 10.997-.54 23.8-1.42 28.523-1.975 4.654-.548 12.526-1.246 17.46-1.545 4.959-.3 10.328-.746 12.044-.996 1.55-.217 8.131-.686 14.445-1.016 3.165-.16 6.2-.361 8.549-.554a97.444 97.444 0 0 0 2.94-.28c.763-.088 1.235-.144 1.562-.252 0 0 .2-.043.46-.072.262-.03.613-.059 1.038-.088.85-.057 1.994-.11 3.35-.154 2.71-.09 6.26-.15 9.984-.16 12.177-.02 25.916-1.031 52.111-3.842 12.526-1.347 32.093-2.538 58.438-3.578 8.267-.32 21.084-1.241 28.523-2.033 28.477-3.07 34.444-3.457 67.932-4.467 18.973-.58 37.812-1.364 42.012-1.762 3.225-.31 12.966-.496 26.052-.564 13.087-.068 29.555-.024 46.377.11 33.644.265 68.724.886 80.93 1.663 3.317.211 12.98.662 21.502 1.002 8.52.33 20.669.82 26.988 1.08 6.298.27 17.101 1.159 23.951 1.987 31.617 3.83 38.98 4.043 66.569 1.972 4.338-.325 21.243-.768 37.459-.978 8.11-.105 16.047-.321 22.302-.584 3.128-.132 5.836-.274 7.938-.422 2.102-.148 3.574-.293 4.338-.457 2.727-.575 9.254-1.747 14.476-2.586 5.229-.852 11.05-1.933 13.034-2.44 7.099-1.799 23.13-3.004 46.367-3.414 15.374-.28 30.845-1.21 43.027-2.603 20.846-2.379 27.287-2.25 51.797 1.049 19.266 2.597 40.26 2.097 53.729-1.32 7.232-1.826 10.202-2.157 12.742-1.5 5.8 1.49 8.824 2.249 11.033 2.421 2.209.172 3.579-.283 5.83-1.14 2.623-1 6.177-3.456 9.166-6 1.495-1.273 2.84-2.565 3.842-3.717 1.001-1.152 1.694-2.1 1.783-3.01.874-9.032.197-14.204-2.64-19.99l-2.897-5.893.248-18.379c.22-16.058 1.663-43.312 2.775-52.445 1.437-11.9 2.586-39.419 2.375-57.066-.24-20.523.659-36.27 3.617-63.44 2.313-21.313 3.493-46.22 3.463-73.445-.02-21.22.618-36.037 2.608-60.069.05-.616.104-2.623.168-5.845.064-3.222.135-7.619.209-12.875.147-10.514.305-24.466.435-39.317.26-29.697.752-59.874 1.1-66.978.343-7.218.87-49.018 1.18-93.02.57-82.28.63-100.484.52-164.004-.03-20.343.292-43.985.7-52.474.442-8.936.31-25.332-.31-38.547-.58-12.629-.94-38.063-.79-56.473.16-18.435.162-51.504.013-73.508-.34-47.989-.342-63.075-.031-118.494.13-23.387-.226-50.82-.819-61.031-.578-10.141-1.25-42.78-1.48-72.475-.23-29.704-.878-60.386-1.453-68.293-1.749-24.141-2.967-59.326-3.137-90.705-.09-16.507-.522-33.55-.982-38.048-2.878-28.021-3.818-53.147-3.768-100.95.02-25.306-.479-54.771-1.111-65.529-2.51-42.686-3.13-62.618-3.53-113.475-.24-31.064-.74-43.312-2.45-60.046-3.27-31.856-3.78-41.128-3.97-71.233-.044-7.627-.132-14.782-.236-20.172a464.567 464.567 0 0 0-.164-6.6 90.477 90.477 0 0 0-.086-2.005c-.029-.507-.049-.814-.094-1.037-.042-.208-.117-.867-.195-1.786-.078-.918-.165-2.123-.256-3.525a554.196 554.196 0 0 1-.549-10.115c-.17-3.719-.374-7.322-.562-10.135a173.525 173.525 0 0 0-.268-3.545c-.082-.93-.146-1.553-.219-1.898-.107-.495-.275-1.91-.463-3.944a444.39 444.39 0 0 1-.634-7.875c-.464-6.316-.997-14.53-1.514-23.254-1.034-17.445-2.008-36.93-2.268-47.334-1.39-55.62-1.432-56.455-4.722-100.525-2.18-29.077-2.447-47.132-1.088-70.934.397-6.97.563-21.428.525-35.242-.037-13.813-.274-26.93-.707-31.336-.598-6.042-.714-49.403-.15-55.906.27-3.029 1.37-15.177 2.46-26.996 1.502-16.463 1.913-28.121 1.743-49.549-.13-15.392.09-32.964.486-38.963.39-6.05 1.003-15.72 1.363-21.5.35-5.765 1.1-14.07 1.657-18.427.56-4.386 1.32-10.914 1.691-14.512.424-4.153.56-15.641.463-29.957-.097-14.316-.435-31.42-.98-46.65-.72-19.895-.583-24.75 1.005-36.415 1.643-12.059 1.784-18.312 1.264-57.513a2236.55 2236.55 0 0 0-.685-33.557c-.275-9.518-.57-16.57-.838-18.992-.464-4.202-1-21.394-1.405-42.324-.405-20.931-.686-45.667-.671-65.182.01-11.564-.448-26.175-1.022-32.545-.575-6.27-1.478-27.45-1.998-46.969-.91-34.276-1.43-50.942-2.41-78.504-.26-7.149-.71-19.975-1.01-28.5-.299-8.493-.75-44.513-.99-79.986-.49-72.188-1.17-108.4-2.5-133.521v-.002c-.49-9.33-.89-27.784-.89-40.973.01-13.212-.45-30.303-1.022-38.037-.565-7.628-1.33-40.523-1.69-72.969-.18-16.226-.39-31.054-.584-41.875-.097-5.41-.188-9.818-.271-12.9-.042-1.541-.08-2.75-.116-3.59a33.64 33.64 0 0 0-.055-.98c-.01-.118-.014-.212-.024-.29 0-.038-.01-.074-.019-.113-.01-.039.01-.057-.074-.197.1.163.051.12.047.094 0-.026-.013-.08-.019-.15-.013-.141-.029-.352-.043-.624-.028-.543-.056-1.329-.084-2.328-.056-1.998-.109-4.848-.158-8.336-.098-6.975-.176-16.505-.21-26.9-.06-20.8-.506-42.263-.993-47.848-.234-2.68-.512-12.588-.762-26.27s-.475-31.18-.615-49.191c-.43-55.298-.82-68.555-2.482-84.986-1.138-11.233-1.979-26.812-1.979-36.95 0-10.29-.347-18.874-.996-25.431-.649-6.556-1.565-11.056-2.88-13.346v-.002c-1.041-1.825-3.498-3.994-5.653-5.053-1.777-.876-2.884-1.359-4.397-1.37-1.512-.012-3.353.416-6.78 1.25-6.66 1.62-7.508 1.623-15.55.113-19.63-3.686-36.813-4.354-95.187-3.717-7.556.082-15.1.07-21.164-.014-6.065-.084-10.692-.248-12.258-.447a1501.96 1501.96 0 0 0-9.492-1.184c-1.025-.122-4.231-.33-8.672-.576-4.441-.247-10.084-.53-15.856-.789-23.922-1.074-32.192-2-44.886-5.031-4.962-1.185-10.3-2.275-12.069-2.438-1.624-.15-7.66-.835-13.357-1.52-9.581-1.146-30.123-.949-41.715.393-2.107.245-12.068.772-21.963 1.153-15.062.58-19.445.408-27.369-1.07-8.068-1.506-16.278-1.81-52.57-1.977-24.848-.115-55.952-.459-81.846-.856-25.894-.396-46.651-.852-50.564-1.172-9.884-.807-32.365-3.444-38.938-4.562-1.885-.321-6.95-.622-13.74-.879s-15.258-.46-23.768-.547c-15.586-.157-31.71-.498-44.076-.887-6.183-.194-11.429-.402-15.195-.603-1.883-.1-3.398-.2-4.469-.295a23.737 23.737 0 0 1-1.26-.139 4.707 4.707 0 0 1-.343-.06c-.077-.018-.125-.052-.053-.008-.107-.065-.148-.066-.196-.078a1.887 1.887 0 0 0-.148-.03 6.935 6.935 0 0 0-.393-.05 37.7 37.7 0 0 0-1.297-.108c-1.09-.075-2.617-.158-4.476-.246a847.15 847.15 0 0 0-14.225-.523c-10.926-.321-22.147-.76-24.845-.969-2.765-.213-10.18-.666-16.502-1.008-10.3-.555-19.558-1.378-50.807-4.511-2.912-.293-5.425-.438-7.361-.438-.969 0-1.793.035-2.46.111-.666.076-1.166.175-1.556.383-.976.521-1.712.468-2.1.086v-.002c-.138-.138-.258-.175-.386-.219a3.122 3.122 0 0 0-.436-.109c-.331-.061-.757-.11-1.285-.15-1.056-.083-2.516-.131-4.338-.149-3.644-.035-8.73.058-14.814.283-15.88.59-23.164.397-35.88-.957-19.376-2.061-37.93-3.34-50.786-3.556zm-.029 1.004c12.793.217 31.36 1.49 50.713 3.549 12.745 1.356 20.12 1.55 36.02.96 6.074-.225 11.15-.317 14.77-.283 1.808.018 3.254.066 4.269.145.507.04.908.088 1.18.139.135.025.24.052.298.072.053.018.05.027 0-.018.793.785 2.074.73 3.278.088.154-.083.588-.202 1.197-.271.609-.07 1.403-.106 2.345-.106 1.886 0 4.372.144 7.26.434 31.251 3.134 40.533 3.959 50.854 4.515 6.317.342 13.743.793 16.478 1.004 2.802.217 13.96.652 24.893.973 5.462.16 10.497.349 14.207.523 1.855.088 3.379.17 4.455.245.538.037.965.072 1.26.103.147.016.262.031.334.043a.844.844 0 0 1 .068.014c.01.001-.015-.002-.07-.034.137.082.222.097.338.124.119.027.258.051.423.076.332.048.77.096 1.317.144 1.093.098 2.614.198 4.504.299 3.779.202 9.029.407 15.217.602 12.375.389 28.502.73 44.095.888 8.5.087 16.963.289 23.742.545 6.78.257 11.925.578 13.61.865 6.687 1.138 29.087 3.762 39.023 4.575 4.117.335 24.734.779 50.631 1.175 25.898.397 57.005.741 81.858.856 36.287.167 44.418.474 52.39 1.96 7.976 1.49 12.514 1.667 27.592 1.087 9.905-.381 19.744-.895 22.037-1.16 11.467-1.328 32.083-1.518 41.483-.393 5.702.684 11.707 1.368 13.382 1.523 1.532.142 6.992 1.235 11.93 2.415 12.745 3.042 21.137 3.984 45.072 5.058 5.769.26 11.408.543 15.844.79 4.436.246 7.703.46 8.61.568 3.163.384 6.327.779 9.488 1.183 1.734.22 6.294.371 12.369.455a892.18 892.18 0 0 0 21.19.014c58.364-.637 75.443.03 94.991 3.701 8.058 1.513 9.29 1.5 15.97-.125 3.422-.832 5.23-1.233 6.54-1.223 1.31.01 2.199.4 3.961 1.27 1.924.945 4.367 3.143 5.227 4.652v.002c1.124 1.956 2.108 6.441 2.752 12.948.644 6.506.987 15.063.992 25.332 0 10.192.84 25.775 1.982 37.05 1.658 16.393 2.049 29.598 2.479 84.893.14 18.014.365 35.515.615 49.201.25 13.687.52 23.518.766 26.338.472 5.414.928 26.979.988 47.766.035 10.398.113 19.929.21 26.91.05 3.49.103 6.342.159 8.35.028 1.003.057 1.795.086 2.353.015.28.029.498.045.664.01.083.015.152.025.215.01.063-.025.076.088.264-.077-.13-.052-.122-.053-.124 0 0 0 .015.01.04.01.048.014.13.022.238.015.216.033.538.051.953.036.83.074 2.034.115 3.572.083 3.076.177 7.484.274 12.893.193 10.817.402 25.645.582 41.869.36 32.454 1.118 65.26 1.693 73.031.567 7.666 1.028 24.775 1.018 37.963 0 13.21.4 31.655.89 41.025v.002c1.33 25.089 2.01 61.291 2.5 133.477.24 35.477.69 71.457.99 80.014.3 8.525.75 21.349 1.01 28.5.98 27.56 1.5 44.22 2.41 78.496.52 19.53 1.418 40.652 2.002 47.031.566 6.28 1.028 20.919 1.018 32.455-.015 19.525.267 44.264.672 65.201.405 20.937.925 38.006 1.412 42.414.253 2.288.557 9.401.832 18.912.275 9.512.524 21.457.684 33.54.52 39.197.381 45.344-1.256 57.365-1.592 11.694-1.734 16.68-1.014 36.586.545 15.219.883 32.315.98 46.62.098 14.307-.051 25.864-.458 29.85a729.415 729.415 0 0 1-1.688 14.489c-.563 4.403-1.313 12.7-1.664 18.494-.36 5.78-.97 15.45-1.36 21.498-.403 6.102-.62 23.628-.49 39.035.17 21.412-.24 33.014-1.738 49.451-1.09 11.82-2.19 23.968-2.46 27-.597 6.88-.492 49.614.15 56.092.417 4.245.665 17.438.703 31.242.037 13.804-.133 28.271-.526 35.18-1.36 23.838-1.089 41.964 1.092 71.066 3.29 44.07 3.329 44.855 4.719 100.475.26 10.435 1.235 29.917 2.27 47.369.516 8.726 1.049 16.943 1.513 23.268.232 3.162.448 5.85.637 7.894.188 2.044.342 3.415.482 4.063.043.204.124.864.205 1.783.081.918.172 2.123.266 3.525.188 2.804.389 6.402.558 10.113.17 3.718.369 7.32.551 10.133.091 1.407.18 2.616.258 3.545.079.93.144 1.554.213 1.897.01.05.044.404.072.898.028.494.058 1.163.086 1.984.057 1.643.112 3.893.164 6.584.104 5.384.191 12.538.236 20.16.19 30.115.703 39.462 3.973 71.327 1.708 16.705 2.207 28.897 2.447 59.953.4 50.863 1.02 70.831 3.53 113.525.627 10.682 1.13 40.178 1.11 65.471-.05 47.817.89 72.992 3.772 101.05.44 4.303.889 21.459.979 37.952.17 31.4 1.39 66.595 3.14 90.773.566 7.774 1.22 38.532 1.45 68.227.23 29.705.898 62.307 1.48 72.525.588 10.13.949 37.597.819 60.97-.31 55.42-.309 70.514.03 118.505.15 21.997.151 55.067-.01 73.492-.15 18.43.209 43.857.79 56.527.619 13.184.748 29.587.31 38.452-.411 8.551-.731 32.167-.701 52.523.11 63.52.05 81.717-.52 163.996-.31 43.998-.842 85.898-1.18 92.98-.351 7.198-.839 37.319-1.099 67.02-.13 14.85-.288 28.798-.435 39.309a2350.19 2350.19 0 0 1-.21 12.87c-.063 3.22-.124 5.3-.163 5.784-1.991 24.048-2.632 38.91-2.612 60.15.03 27.195-1.15 52.07-3.457 73.336-2.96 27.19-3.863 43.003-3.623 63.561.21 17.592-.944 45.153-2.367 56.934-1.128 9.266-2.563 36.45-2.783 52.552l-.252 18.62 3.002 6.107c2.762 5.634 3.409 10.503 2.543 19.451-.036.366-.589 1.355-1.541 2.451-.953 1.096-2.271 2.364-3.737 3.612-2.93 2.494-6.485 4.918-8.873 5.828-2.238.852-3.348 1.237-5.396 1.078-2.049-.16-5.063-.905-10.862-2.395-2.8-.724-5.97-.334-13.238 1.5-13.25 3.362-34.196 3.88-53.35 1.297-24.53-3.301-31.169-3.43-52.042-1.049-12.138 1.388-27.588 2.316-42.934 2.596-23.263.41-39.253 1.585-46.594 3.445-1.856.474-7.735 1.572-12.947 2.42-5.238.841-11.75 2.011-14.523 2.596-.612.131-2.11.289-4.198.435-2.087.147-4.788.291-7.91.422-6.243.263-14.17.477-22.271.582-16.225.21-33.06.648-37.522.983-27.57 2.069-34.77 1.86-66.373-1.969-6.89-.832-17.687-1.723-24.03-1.994-6.32-.26-18.47-.75-26.991-1.08-8.518-.34-18.196-.79-21.479-.998-12.293-.783-47.334-1.402-80.984-1.668-16.826-.133-33.298-.178-46.39-.11-13.094.068-22.77.244-26.145.569-4.042.382-22.982 1.178-41.948 1.758-33.491 1.01-39.523 1.4-68.006 4.47-7.4.788-20.224 1.71-28.457 2.03-26.355 1.04-45.93 2.23-58.503 3.582-26.185 2.81-39.883 3.818-52.006 3.838-3.735.01-7.291.07-10.016.16-1.362.045-2.516.098-3.385.156a23.52 23.52 0 0 0-1.082.092c-.286.032-.474.054-.664.117-.069.023-.616.124-1.361.21-.746.085-1.741.178-2.908.274-2.335.192-5.363.392-8.518.551-6.326.33-12.805.781-14.535 1.024-1.585.23-7.017.685-11.959.984-4.965.301-12.832 1.001-17.518 1.553-4.636.545-17.474 1.427-28.457 1.967-33.543 1.63-40.667 2.061-49.51 3.043-15.754 1.741-79.292 5.067-94.402 4.927-3.888-.03-9.923.388-13.508.946-3.488.542-10.018 1.024-14.421 1.064-4.447.03-9.625.227-11.612.443-.91.1-3.831.264-7.724.442-3.893.177-8.785.37-13.73.535-9.898.33-24.29.85-31.99 1.16-7.685.31-25.906.78-40.472 1.04-14.571.26-30.739.648-35.959.859h-.002c-2.586.11-5.134.104-7.142.01a31.948 31.948 0 0 1-2.54-.205c-.664-.088-1.155-.226-1.244-.274-.536-.288-1.087-.445-1.593-.46-.507-.017-1.038.108-1.323.568.103-.166.145-.135.125-.127-.02.01-.081.028-.17.049-.176.04-.459.09-.828.136-.737.095-1.825.192-3.224.287-2.8.192-6.855.381-11.973.565-10.236.367-24.723.712-41.945 1.008-34.444.591-79.831.986-124.074.976-57.753-.02-98.312.11-109.465.34-3.802.08-16.42-.2-27.96-.64-11.552-.43-33.2-.97-48.116-1.2-14.903-.22-34.025-.88-42.454-1.459h-.002c-16.922-1.15-32.236-1.741-65.216-2.511a716.374 716.374 0 0 1-15.668-.52 189.94 189.94 0 0 1-4.957-.281 35.376 35.376 0 0 1-1.42-.127c-.168-.02-.301-.041-.387-.057-.077-.014-.11-.04-.033.01-.152-.094-.228-.096-.336-.12a5.349 5.349 0 0 0-.383-.06c-.298-.038-.69-.074-1.174-.108-.968-.068-2.297-.129-3.9-.181-3.206-.106-7.5-.176-12.115-.186h-.002c-17.21-.03-41.48-2.537-54.135-5.588-3.633-.874-10.144-1.75-14.586-1.953a134.71 134.71 0 0 1-6.033-.416 49.702 49.702 0 0 1-2.137-.242c-.56-.08-.981-.17-1.068-.201h-.006c-.296-.105-.703-.17-1.317-.254-.613-.085-1.4-.174-2.31-.262a162.13 162.13 0 0 0-6.508-.482c-15.638-.86-20.442-1.48-28.496-3.643-7.518-2.012-20.073-6.155-27.135-8.943-1.396-.552-2.318-.85-3.191-.774-.874.076-1.57.552-2.405 1.309a7.921 7.921 0 0 1-1.652 1.123c-.57.288-1.122.447-1.373.447-.341 0-.948-.244-1.625-.736-.677-.493-1.43-1.209-2.16-2.053-1.46-1.688-2.834-3.89-3.475-5.808-1.047-3.134-1.7-10.988-1.814-21.124-.114-10.134.279-22.61 1.203-35.242 1.286-17.56 1.594-29.407 1.14-44.052-.579-18.726-1.087-25.27-3.736-48.043-1.413-12.171-1.595-42.56-.388-67.918 1.167-24.525 1.296-80.656.22-98.055-1.633-26.386-1.806-46.439-.627-72.555.682-15.088 1.354-58.238 1.498-95.912.144-37.68.488-108.78.768-158 1.368-242.089 1.309-236.89 3.264-281.98.297-6.918.45-28.499.34-48.024-.26-45.858-.29-100.558-.08-133.994.091-14.586-.065-30.532-.354-35.533-.934-16.164-2.626-41.866-3.063-46.518-.108-1.15-.194-5.643-.23-11.802-.036-6.16-.028-14.04.033-22.147.293-38.725.177-98.424-.262-134.01-.312-25.407 1.042-53.909 3.485-73.402.948-7.546 1.593-30.305 1.945-67.799.106-11.188.265-21.461.436-28.998.085-3.768.174-6.852.26-9.021a96.24 96.24 0 0 1 .124-2.537c.02-.298.04-.53.059-.686.01-.078.02-.135.025-.166.006-.029.027-.041-.035.062.076-.124.09-.198.117-.297.028-.1.052-.216.078-.355.054-.279.112-.647.174-1.104.126-.914.272-2.184.436-3.762.328-3.154.725-7.533 1.156-12.691.862-10.317 1.854-23.749 2.678-36.707.562-8.845 1.099-36.274 1.2-61.03.099-24.745.527-49.988.94-55.966.42-6.054 1.03-15.724 1.356-21.508.326-5.773 1.026-16.113 1.559-22.988.536-6.908 1.196-22.87 1.47-35.528.288-13.334.897-31.732 1.516-47.353.31-7.81.62-14.928.896-20.371.276-5.443.524-9.263.676-10.295.263-1.793.641-8.036.863-14.055.222-5.995.897-16.976 1.5-24.396.61-7.533 1.397-45.704 1.762-85.037.903-97.37.887-113.243-.17-168.014-.505-26.118-1.05-62.118-1.213-79.994-.163-17.881-.412-38.57-.554-46.006-.142-7.412.033-19.334.386-26.465 2.016-40.711 2.346-50.95 2.258-70.027-.087-18.823-.89-37.716-2.094-49.051-.235-2.22-.388-8.224-.455-16.115-.067-7.891-.054-17.701.026-27.655.16-19.906.589-40.423 1.162-47.246.872-10.394.994-20.938.412-35.39-1.302-32.22-1.032-51.078 1.014-70.99.205-2.005.676-11.408 1.062-21.032.192-4.806.42-9.266.631-12.574.106-1.654.206-3.02.297-3.994.045-.487.09-.875.127-1.147.019-.135.036-.244.05-.312.015-.068.055-.122-.01-.016h.003c.062-.107.06-.139.068-.178.009-.039.014-.072.02-.11.01-.073.018-.159.027-.265.018-.212.035-.5.053-.869.035-.737.072-1.788.11-3.125.073-2.673.15-6.482.226-11.15.15-9.336.295-22.103.396-36.05l1.108 35.458c-.118 5.375-.122 10.757-.43 16.125-.474 2.713-.493 5.491-.703 8.236-.59 10.412-.805 20.844-1.557 31.246-1.8 17.147-2.03 34.418-1.611 51.64.186 10.31.785 20.619.943 30.956.135 8.44-.146 16.884-.863 25.295-.467 8.264-.6 16.456-.772 24.738-.3 18.24-.467 36.485-.21 54.727.084 3.967.108 7.894.585 11.879 1.21 13.667 1.63 27.392 1.829 41.107.173 13.276.017 26.555-.543 39.82-.507 13.21-1.227 26.411-1.809 39.618a480.015 480.015 0 0 0-.195 25.802c.399 25.388.518 50.78.933 76.168.357 25.577.905 51.152 1.307 76.729.613 39.704.147 79.414-.178 119.119-.273 31.2-.57 62.403-1.465 93.592-.14 5.041-.374 10.078-.808 15.103-.608 8.331-1.046 16.594-1.383 24.928-.17 3.612-.407 7.22-.807 10.814-.7 10.352-1.062 20.788-1.494 31.194-.653 16.78-1.18 33.521-1.558 50.314-.362 12.008-.788 24.02-1.766 35.996-.908 12.318-1.523 24.74-2.375 37.094-.428 6.247-.48 12.417-.627 18.674-.372 18.126-.376 36.256-.545 54.385-.178 14.59-.36 29.186-.978 43.765-1.015 16.258-2.195 32.508-3.684 48.73-.32 2.741-.45 5.522-1.045 8.22-.262 3.148-.277 6.297-.379 9.421-.573 23.45-.518 46.908-1.088 70.358-.248 9.106-.422 18.224-1.164 27.306-.655 5.818-1.325 11.636-1.771 17.475-.77 9.513-1.27 19.035-1.59 28.527-.404 11.862-.427 23.732-.252 35.598.344 34.616.408 69.234.312 103.852-.008 18.218-.357 36.439-.039 54.656.08 3.843.545 7.667.754 11.504.885 13.102 1.766 26.204 2.48 39.316.345 10.358.326 20.725.313 31.088-.267 48.327-.14 96.656.098 144.982-.002 12.949.02 25.9-.326 38.844-.4 10.148-.892 20.356-1.188 30.469-.69 24.46-.818 48.931-1.033 73.398-.441 60.473-.745 120.946-1.098 181.418-.305 54.4-.557 108.8-.795 163.2-.159 26.31-.444 52.623-1.119 78.925-.208 8.2-.678 16.39-.873 24.555a592.923 592.923 0 0 0 .223 39.531c.26 7.07.696 14.074 1.08 21.121.578 14.685.584 29.385.58 44.079-.074 18.796-.263 37.6-1.17 56.376-.546 14.466-.74 29.04-.428 43.557.157 6.182.353 12.448.99 18.652 1.453 12.604 2.922 25.22 3.401 37.907.508 11.924.827 23.868.334 35.799-.274 7.908-.88 15.91-1.414 23.732-.336 5.568-.61 11.168-.748 16.69-.205 7.985-.243 15.982.207 23.96.194 2.885.413 5.949.996 8.852.625 3.195 2.567 6.01 4.9 8.215.546.393 1.191 1.24 1.907.713 1.545-.71 2.57-2.36 4.35-2.596 2.26-.34 4.309.964 6.384 1.637 8.33 3.07 16.77 5.866 25.338 8.203 3.844 1.044 7.939 1.85 11.978 2.29 2.09.244 4.483.448 6.618.606 6.294.514 12.632.556 18.89 1.455 2.52.62 5.142.661 7.719.87 6.332.28 12.655 1.062 18.816 2.57 9.743 2.03 19.65 3.16 29.557 4.023a292.074 292.074 0 0 0 25.947 1.07c4.541.083 9.094.064 13.62.471 2.15.464 4.382.419 6.574.576 12.5.582 25.047.71 37.586 1.1 15.04.425 30.082 1 45.095 2.033 12.522.728 25.013 1.068 37.54 1.33 19.753.322 39.507.792 59.25 1.518 8.547.25 17.162.533 25.74.314 29.222-.259 58.448-.243 87.671-.26 36.145.023 72.291-.096 108.434-.525 21.922-.258 43.907-.594 65.783-1.191 7.643-.275 15.3-.393 22.922-1.05.617 0 1.167-.168 1.682-.491 1.25-.492 2.583-.044 3.75.441 4.96.681 9.98.217 14.963.117 21.322-.6 42.652-.823 63.972-1.48 12.584-.414 25.25-.947 37.867-1.358 7.71-.296 15.428-.493 23.125-1.04 5.051-.437 10.126-.35 15.188-.544 1.18-.06 2.612-.14 3.887-.234 3.454-.197 6.868-.772 10.304-1.14 4.498-.477 9.022-.56 13.541-.543 14.598-.281 29.209-1.02 43.819-1.758 13.076-.696 26.204-1.447 39.242-2.442 3.931-.298 7.72-.691 11.629-1.101 10.82-.988 21.683-1.428 32.531-2.002 12.429-.613 24.867-1.165 37.197-2.19 4.036-.33 7.989-.859 12.047-1.195 7.767-.77 15.58-.983 23.33-1.922 5.872-.516 11.856-.779 17.68-1.137 2.999-.222 6.02-.363 8.98-.896 7.159-.538 14.346-.286 21.516-.525 12.205-.41 24.619-1.633 36.875-2.874 8.296-.898 16.6-1.74 24.928-2.279 15.086-1.044 30.197-1.668 45.305-2.312 10.413-.544 20.777-1.364 31.156-2.541 12.616-1.375 25.266-2.488 37.95-2.977 16.466-.675 32.945-1.019 49.41-1.732 5.104-.223 10.246-.428 15.247-.762.982-.077 2.223-.189 3.313-.23 10.212-.415 20.436-.384 30.656-.438 29.547-.04 59.093.229 88.635.781 11.863.26 23.73.479 35.576 1.215 14.645.73 29.42 1.231 44.117 1.85 10.227.46 20.426 1.436 30.582 2.709 9.575 1.108 19.249 2.211 28.922 2.51 3.375.096 6.906.095 10.34 0 1.953-.064 4.11-.135 6.14-.245 5.9-.27 11.716-.786 17.602-1.125 15.043-.634 30.103-.712 45.154-1.035 6.327-.158 12.59-.357 18.926-.738 2.516-.134 5.03-.375 7.486-.957 8.382-1.639 16.87-2.706 25.207-4.576 6.055-1.384 12.27-1.85 18.45-2.325 11.315-.802 22.66-.99 33.998-1.246 4.08-.126 8.312-.29 12.447-.5 8.077-.42 16.254-1.014 24.293-1.918 9.859-1.128 19.795-2.12 29.727-1.472 9.14.52 18.195 1.932 27.279 3.014 3.597.396 7.195.677 10.756.859 9.84.479 19.876.299 29.703-1.086 3.855-.516 7.63-1.455 11.406-2.365 3.676-.811 7.58-1.661 11.283-.52 3.387.802 6.738 1.881 10.217 2.19 2.06.112 4.009-.776 5.834-1.627 3.711-2.04 7.074-4.704 10.031-7.727.655-.765 1.486-1.493 1.805-2.467.515-5.421.678-11.102-1.434-16.234-1.23-2.95-2.768-5.762-4.138-8.649.182-12.23.223-24.466.783-36.687.506-11.16 1.02-22.328 2.094-33.451 1.193-10.227 1.657-20.436 2.076-30.733.399-10.462.566-20.98.42-31.478-.103-14.55.655-29.093 2.021-43.574.982-10.943 2.376-21.849 3.155-32.81.346-4.671.664-9.54.904-14.224.766-14.546 1.054-29.1 1.033-43.689a610.63 610.63 0 0 1 1.611-45.986c.314-4.54.704-9.077 1.036-13.616.014-.369.04-1.084.047-1.556.414-19.687.552-39.377.757-59.067.208-20.012.412-40.028.936-60.035.156-4.113.298-8.119.36-12.246.502-27.79.725-55.586.945-83.38.3-44.923.637-89.847.564-134.77-.01-22.323-.161-44.647.242-66.967.098-6.474.287-12.947.56-19.416.203-8.192.118-16.541-.09-24.791-.155-6.16-.51-12.32-.663-18.522-.528-18.933-.602-37.875-.428-56.814.135-27.975.035-55.951-.176-83.926-.222-31.129-.12-62.26.064-93.389.119-19.789.064-39.583-.48-59.367-.15-5.359-.531-10.811-.66-16.21-.785-25.282-1.009-50.577-1.243-75.868-.187-15.418-.433-30.9-.898-46.273-.136-5.54-.517-11.067-.893-16.594-1.415-22.816-2.145-45.67-2.517-68.525-.218-14.426-.166-28.855-.647-43.276-.14-4.354-.292-8.843-.806-13.224-2.176-21.661-3.004-43.433-3.287-65.194-.297-20.393-.06-40.788-.346-61.181-.168-11.673-.327-23.366-.832-35.002-.94-16.453-1.879-32.99-2.455-49.493-.973-26.758-1.026-53.537-1.332-80.308-.181-12.655-.476-25.251-1.563-37.87-.901-10.15-2.085-20.399-2.912-30.607-1.15-12.998-1.596-26.046-1.715-39.092-.148-12.713-.094-25.435-.564-38.142-.697-6.476-.887-12.995-1.246-19.496-.2-3.75-.392-7.514-.73-11.197-.754-5.152-1.033-10.359-1.432-15.547a2246.908 2246.908 0 0 1-3.233-57.409c-.54-12.886-.71-25.784-1.107-38.675-.376-14.558-.89-29.09-1.895-43.612-1.453-22.533-3.737-45.098-3.988-67.718-.175-11.457.246-22.91.88-34.348.408-10.288.433-20.675.44-31.022-.01-8.436-.082-16.979-.304-25.347-.077-3.35-.28-6.692-.522-10.031-.385-10.008-.38-20.026-.404-30.04.025-7.922-.024-15.85.34-23.765 1.003-11.745 2.201-23.475 3.144-35.225.968-12.277 1.184-24.521 1.114-36.869-.074-14.035-.157-28.078.37-42.105.55-9.104 1.117-18.21 1.735-27.309.478-6.683 1.205-13.344 2.057-19.988.543-4.84 1.257-9.72 1.316-14.627.339-13.327.16-26.662-.033-39.99-.198-12.565-.575-25.085-1.02-37.627-.259-8.49-.395-17.024.692-25.467.336-2.89.785-5.921 1.107-8.715 1.145-10.05.964-20.185.946-30.283-.154-18.709-.404-37.419-.928-56.121-.168-5.388-.332-10.913-.63-16.28-.066-1.12-.184-2.445-.296-3.636-.604-9.444-.776-18.908-1.033-28.366a3648.928 3648.928 0 0 1-.975-82.73c-.094-8.351-.28-16.607-.773-24.937-.301-3.895-.606-7.91-.791-11.881-1.308-25.625-1.704-51.282-2.526-76.924-.694-23.299-1.59-46.642-2.376-69.957-.415-18.054-.561-36.113-.749-54.17-.376-41.334-.482-82.674-1.466-124-.288-11.773-.693-23.518-1.305-35.291-.662-15.188-.808-30.393-.846-45.594-.075-8.144-.26-16.3-.586-24.394-.16-4.314-.53-8.517-.683-12.84-.694-18.894-.99-37.8-1.276-56.703-.281-21.863-.477-43.728-.99-65.586-.043-1.222-.078-2.756-.137-3.92-.33-3.446-.286-6.925-.37-10.387-.337-21.054-.135-42.113-.69-63.164-.13-5.183-.269-10.293-.656-15.47-.483-11.595-.618-23.201-.827-34.803-.445-27.466-.475-54.936-.92-82.4-.172-9.686-.382-19.41-.974-29.018-.488-8.252-1.545-16.456-2.037-24.707-.656-9.622-1.027-19.265-.996-28.91-.111-8.183-.324-16.38-1.36-24.547-.442-2.971-.807-6.035-2.09-8.784-1.081-1.774-2.77-3.137-4.566-4.146-1.382-.718-2.903-1.444-4.504-1.078-4.94.764-9.756 2.83-14.836 2.304-4.495-.46-8.892-1.564-13.365-2.187a185.303 185.303 0 0 0-6.313-.863c-2.296-.264-4.778-.52-7.154-.71a269.83 269.83 0 0 0-10.365-.648c-15.164-.643-30.41-.57-45.615-.5-16.474.076-32.956.507-49.424-.094-3.856-.173-7.665-.855-11.498-1.273-3.773-.44-7.602-.55-11.352-.785-13.66-.79-27.363-1.04-40.976-2.506-6.875-.737-13.662-2.107-20.373-3.744-2.63-.599-5.33-1.18-7.899-1.64-1.247-.24-2.803-.381-4.181-.526-6.512-.678-12.998-1.712-19.555-1.863-6.701-.235-13.454-.173-20.096.078-4.167.177-8.207.416-12.369.873-6.57.567-13.167.78-19.754 1.08-7.407.259-14.836.707-22.24.164-3.923-.274-7.742-1.126-11.604-1.701-6.215-.83-12.502-.94-18.72-1.104-19.078-.345-38.161-.267-57.24-.492-29.52-.276-59.039-.646-88.553-1.277-5.806-.17-11.62-.215-17.416-.606-10.982-.99-21.938-2.265-32.87-3.701-3.375-.41-6.716-1.115-10.122-1.244a390.635 390.635 0 0 0-9.579-.463c-14.553-.554-29.22-.522-43.828-.838-13.086-.276-26.175-.55-39.248-1.213-2.219-.15-4.47-.193-6.646-.65-8.222-.582-16.428-.724-24.65-1.014-8.235-.279-16.473-.517-24.69-1.133-9.382-.59-18.776-.996-28.137-1.879-12.335-1.071-24.649-2.389-36.976-3.544-2.489-.14-5.02-.414-7.493.01-1.402.751-3.264.973-4.609-.02-3.68-.385-7.395-.23-11.09-.211-9.965.189-20.02.841-30.04.428-8.678-.306-17.277-1.483-25.891-2.24-12.013-1.108-24.262-2.008-36.293-2.378a247.61 247.61 0 0 0-9.143-.095v.002c-2.389.031-4.595.145-6.967.28-11.848.502-23.714.419-35.57.386-10.78-.024-21.56-.243-32.34-.27-10.162.023-20.248.318-30.38.83-12.498.478-25.009.706-37.514.528-2.435-.096-4.9-.02-7.305-.454-1.812-.42-3.714-.31-5.567-.453-12.48-.436-25.067-.52-37.603-.564-6.87-.007-13.865.014-20.654.174-4.737.053-9.43.75-14.15 1.054-16.075 1.186-32.199 1.425-48.31 1.672-14.831.183-29.667.41-44.462 1.033-4.229.144-8.448.467-12.666.77-12.222.71-24.47.75-36.71.623-11.276-.048-22.556-.122-33.831.123-2.594.082-5.365.142-7.994.58-8.597 1.06-17.257 1.48-25.903 1.922-14.476.7-28.966.96-43.457 1.14-16.62.293-33.234.605-49.797 2.342-6.19.654-12.402 1.478-18.613 2.397a79.81 79.81 0 0 1-9.648 1.037c-13.372.797-26.77.939-40.157 1.293-7.925.222-15.907.539-23.808 1.037-4.93.31-9.903.713-14.754 1.234-4.896.52-9.748 1.4-14.662 1.754-7.77.708-15.572.911-23.35 1.512-1.896.152-3.982.39-5.957.518-8.374.672-16.78.944-25.142 1.752-4.6.61-9.25.758-13.877 1.056-17.793.924-35.6 1.69-53.42 1.608-11.273-.021-22.543-.345-33.805-.838-3.969-.138-8.112-.166-12.145.012-1.47.072-3.187.165-4.752.294-3.955.306-8.072.798-12.087 1.344-7.941.968-15.635 3.108-23.495 4.508-9.758 1.852-19.639 2.93-29.521 3.863-8.132.87-16.293 1.729-24.287 3.502-2.73.698-5.59 1.334-7.926 2.989-.853.774-1.616 1.84-1.703 3.019.292 1.086 1.548 1.493 2.463 1.93 4.052 1.493 8.399 1.9 12.664 2.361l.358 1.56c-7.79-.718-12.808-1.819-15.207-3.313-1.2-.747-1.723-1.52-1.787-2.424-.064-.903.37-2.041 1.388-3.406 1.18-1.582 4.437-3.093 10.528-4.412 6.091-1.32 14.986-2.495 27.431-3.686 13.33-1.275 23.04-2.776 34.862-5.389 4.015-.887 8.758-1.825 10.46-2.072 14.85-2.15 22.744-2.616 35.075-2.072 20.879.92 40.88.994 61.017.223 9.719-.373 18.411-.776 25.002-1.147 6.591-.37 11.01-.695 12.432-.965v.002c.16-.03.729-.096 1.527-.168.8-.071 1.854-.157 3.086-.248 2.465-.182 5.645-.389 8.942-.58 6.601-.384 13.544-.876 15.52-1.101 1.866-.215 8.646-.658 14.962-.973 6.337-.316 14.194-.981 17.545-1.492 12.52-1.91 30.901-3.04 57.908-3.55a906.168 906.168 0 0 0 21.688-.661c6.256-.274 11.001-.572 12.863-.854 26.609-4.024 39.385-4.875 81.397-5.414 25.871-.332 51.93-1.645 61.351-3.111 1.69-.263 6.344-.447 14.352-.524 8.008-.076 19.41-.055 34.765.059 10.75.08 24.912-.331 31.537-.92 6.524-.58 27.231-1.24 45.916-1.455 34.053-.394 50.055-1.026 65.018-2.572 2.006-.207 7.317-.342 14.102-.4 6.785-.06 15.075-.045 23.152.023 8.077.068 15.943.192 21.88.357 2.97.083 5.457.176 7.243.278.893.05 1.61.102 2.12.156.253.027.455.055.593.08.137.025.241.085.135.02.266.164.447.163.763.208.317.046.725.086 1.223.121.996.072 2.353.127 3.998.168 3.29.084 7.727.109 12.67.08 9.886-.056 21.79-.327 30.547-.785 8.503-.444 22.676-.719 31.455-.607 34.929.443 54.459.37 64.506-.25 2.796-.172 6.419-.217 10.683-.145z"/></svg>