<svg width="1412" height="868" viewBox="0 0 1412 868" fill="none" xmlns="http://www.w3.org/2000/svg">
<path fill-rule="evenodd" clip-rule="evenodd" d="M537.724 0.61001C537.234 1.10001 502.83 1.97406 480.785 2.05606C477.642 2.06806 474.798 2.51708 474.466 3.05508C474.134 3.59308 473.33 3.69797 472.681 3.28897C470.696 2.03897 459.09 1.92206 447.5 3.03506C441.45 3.61606 430.538 4.04198 423.25 3.98098C412.92 3.89498 409.997 4.16108 409.985 5.18508C409.973 6.22408 409.786 6.211 409.096 5.121C408.27 3.817 395.264 3.976 378.5 5.496C376.3 5.696 365.837 5.92002 355.25 5.99502C344.663 6.07002 336.001 6.43897 336.002 6.81497C336.003 7.19197 331.724 7.35706 326.493 7.18106C319.549 6.94806 316.178 7.264 314 8.35C312.36 9.168 310.78 9.45198 310.489 8.98098C309.761 7.80398 297.059 7.89805 294.817 9.09805C293.576 9.76205 293 9.72398 293 8.97598C293 8.37398 292.658 8.09308 292.239 8.35208C291.011 9.11108 279.314 10.1421 268 10.4881C255.785 10.8621 254.156 11.141 252.935 13.07C252.438 13.857 252.024 14.013 252.015 13.417C252.007 12.821 251.212 12.2691 250.25 12.1911C246.221 11.8621 233.676 12.082 233.01 12.494C232.613 12.739 229.749 13.023 226.644 13.124C221.301 13.299 219.74 14.103 222.016 15.51C223.511 16.434 222.185 18.008 220.468 17.349C219.661 17.04 219 16.024 219 15.093C219 12.994 178.73 13.3621 167.779 15.5611C166.525 15.8131 158.075 16.2861 149 16.6131C133.978 17.1551 126.526 17.52 123.323 17.871C122.676 17.942 121.941 18.787 121.689 19.75C121.295 21.258 121.216 21.2721 121.116 19.8531C120.908 16.8981 86.023 18.364 85.985 21.329C85.974 22.169 85.747 22.15 85.184 21.263C84.606 20.354 83.5031 20.282 81.0271 20.992C78.7051 21.658 77.242 21.6161 76.328 20.8571C75.598 20.2511 75 20.1481 75 20.6281C75 21.1071 72.2251 21.5 68.8331 21.5C65.4421 21.5 62.5111 21.967 62.3201 22.539C62.1241 23.128 59.604 23.475 56.487 23.341C53.469 23.211 51 23.419 51 23.802C51 24.186 49.762 24.5341 48.25 24.5761C41.375 24.7671 29 27.484 29 28.802C29 29.201 27.2401 30.616 25.0891 31.945C22.4451 33.579 20.989 35.303 20.597 37.265C20.278 38.862 19.1731 41.368 18.1431 42.834C16.4581 45.231 15.385 49.646 14.334 58.5C13.774 63.222 13.967 78.0211 14.623 80.6331C14.95 81.9351 14.8101 83 14.3131 83C13.8161 83 13.2981 84.649 13.1621 86.664C13.0261 88.679 12.6921 90.69 12.4191 91.131C11.3301 92.893 10.933 112.841 11.974 113.484C12.556 113.844 12.7341 114.621 12.3691 115.212C12.0041 115.803 11.587 121.509 11.442 127.893C11.158 140.433 10.349 151.937 9.45604 156.123C9.05304 158.015 9.36805 158.927 10.5851 159.394C12.0861 159.97 12.109 160.232 10.789 161.771C9.24505 163.57 8.53105 173.592 9.88605 174.43C10.297 174.684 10.399 180.879 10.111 188.196C9.44904 205.061 9.76605 257.813 10.5371 259.061C10.8571 259.577 10.5291 260.014 9.80905 260.032C8.94005 260.053 9.08805 260.51 10.25 261.392C12.087 262.786 12.722 264.564 11.004 263.503C10.457 263.164 9.44905 264.114 8.76605 265.614C7.77905 267.781 7.77804 268.426 8.76204 268.754C10.149 269.216 10.478 272 9.14404 272C8.32904 272 8.48804 281.331 9.46704 291C10.147 297.719 10.075 307.169 9.32105 310C8.95505 311.375 8.59305 323.3 8.51605 336.5C8.44005 349.7 8.07105 361.405 7.69705 362.512C6.41105 366.314 5.95605 371.535 5.47505 388C5.21005 397.075 4.59505 407.875 4.11005 412C3.62405 416.125 3.20105 420.175 3.16805 421C3.13605 421.825 2.81905 426.723 2.46305 431.884C1.95905 439.194 2.11305 441.456 3.15805 442.119C4.08705 442.708 4.13005 442.974 3.29605 442.985C2.41805 442.996 2.11005 446.448 2.15805 455.75C2.19505 462.763 1.85304 470.525 1.39804 473C0.608043 477.303 0.29105 501.405 0.77405 520.5C0.89905 525.45 0.867051 531.3 0.703051 533.5C0.539051 535.7 0.75205 538.513 1.17705 539.75C1.65205 541.131 1.55105 542 0.916048 542C0.347048 542 0.18405 542.488 0.55205 543.085C0.92105 543.682 1.39404 548.294 1.60304 553.335C1.81204 558.376 2.33705 565.901 2.77005 570.058C3.20405 574.216 3.21905 579.166 2.80405 581.058C0.700048 590.655 2.49404 625.11 5.28604 628.75C5.90504 629.557 5.87005 630.451 5.18805 631.274C4.08705 632.6 4.20505 638.904 5.36505 640.782C5.73205 641.376 5.57505 642.144 5.01605 642.49C3.53205 643.407 3.73705 649.997 5.25005 650.015C6.17005 650.027 6.14105 650.258 5.14305 650.89C4.29205 651.43 4.03705 652.542 4.46005 653.875C4.87605 655.183 4.70204 656 4.00804 656C3.38904 656 3.13304 656.406 3.43904 656.901C4.69604 658.935 6.09805 677.657 6.30605 695.18C6.42805 705.454 6.84304 714.176 7.22804 714.562C7.61404 714.947 7.48004 716.104 6.93004 717.131C6.38004 718.159 6.28304 719 6.71504 719.001C7.14704 719.001 7.55604 721.814 7.62404 725.251C7.69204 728.688 8.32605 735.775 9.03305 741C9.74105 746.225 10.287 751.4 10.248 752.5C10.112 756.298 11.0331 759.097 12.1841 758.386C12.9331 757.924 13.027 758.148 12.465 759.057C11.21 761.087 11.923 797.974 13.43 809C13.843 812.025 14.223 815.713 14.273 817.197C14.323 818.68 14.78 819.636 15.289 819.322C15.824 818.99 15.953 819.96 15.594 821.625C14.875 824.953 16.383 830.984 18.232 832.18C19.216 832.816 19.229 833.176 18.289 833.785C16.809 834.744 19.643 839.333 22 839.792C22.825 839.953 24.245 840.963 25.155 842.036C26.42 843.527 27.552 843.84 29.948 843.36C32.332 842.884 33.4081 843.176 34.4341 844.579C35.5791 846.145 36.027 846.222 37.392 845.09C38.488 844.18 39 844.119 39 844.899C39 845.675 41.494 845.986 46.75 845.864C51.013 845.765 56.75 845.965 59.5 846.309C62.25 846.653 68.1 847.197 72.5 847.52C76.9 847.842 81.963 848.234 83.75 848.392C85.538 848.549 87.0021 848.413 87.0051 848.089C87.0101 847.475 99.102 846.991 112 847.089C116.125 847.12 121.3 847.063 123.5 846.962C125.7 846.861 127.95 846.823 128.5 846.877C135.165 847.538 147.654 848.056 161.749 848.256C171.236 848.39 178.998 848.762 178.999 849.083C179 849.586 181.745 849.942 186.25 850.022C198.407 850.239 206.501 849.36 206.513 847.821C206.533 845.109 207.711 844.711 208.336 847.203C208.899 849.447 228.537 850.543 233.571 848.611C234.321 848.323 235.14 848.418 235.39 848.821C235.639 849.225 242.291 849.669 250.172 849.809C265.724 850.083 274.952 850.628 281.991 851.688C287.547 852.525 288.035 852.523 301 851.625C310.67 850.954 316.009 850.865 331 851.122C339.887 851.274 341 851.093 341 849.5C341 848.675 341.45 848 342 848C342.55 848 343 848.647 343 849.438C343 850.229 343.788 850.854 344.75 850.827C345.712 850.8 347.989 851.115 349.808 851.526C352.67 852.172 353.191 851.985 353.675 850.137C354.358 847.523 355.601 847.367 356.242 849.816C356.619 851.258 357.465 851.544 360.358 851.206C362.361 850.973 364 851.205 364 851.724C364 853.371 462.455 854.424 464.628 852.8C465.255 852.332 466.974 852.42 468.496 852.999C471.694 854.214 483.379 853.726 485.23 852.299C486.407 851.393 576.551 851.479 584.766 852.394C586.562 852.594 588.216 852.459 588.442 852.094C588.668 851.729 592.029 851.526 595.912 851.643C599.794 851.76 603.234 851.431 603.555 850.912C603.876 850.392 604.46 850.166 604.853 850.409C605.246 850.652 611.853 851.143 619.534 851.5C627.215 851.857 634.356 852.393 635.401 852.69C636.845 853.101 637.153 852.842 636.683 851.615C636.342 850.727 636.499 850 637.031 850C637.564 850 638 850.664 638 851.475C638 852.636 638.534 852.748 640.5 852C642.144 851.375 643 851.395 643 852.06C643 852.737 643.617 852.74 644.869 852.07C645.896 851.52 647.021 851.355 647.369 851.702C647.716 852.049 648 851.753 648 851.044C648 850.026 648.347 850.043 649.653 851.128C651.775 852.89 673.123 853.318 674.235 851.621C674.738 850.853 674.974 850.928 674.985 851.858C674.995 852.797 675.753 853.028 677.439 852.605C678.78 852.268 680.087 852.332 680.343 852.746C680.896 853.642 707.352 853.519 708.817 852.613C709.374 852.269 709.98 852.416 710.165 852.94C710.58 854.12 728.49 856.019 744.5 856.581C751.1 856.813 762.8 857.278 770.5 857.614C778.2 857.951 790.35 858.388 797.5 858.587C811.834 858.986 825.059 859.919 826.178 860.61C827.556 861.462 884.846 862.665 897.863 862.116C900.263 862.014 907.238 862.27 913.363 862.684C919.489 863.097 928.213 863.397 932.75 863.351C937.287 863.304 941 863.552 941 863.903C941 864.254 947.862 864.593 956.25 864.656C976.391 864.807 998.59 865.566 1014 866.629C1051.98 869.248 1175.96 866.603 1177.99 863.13C1178.61 862.069 1178.95 861.953 1178.97 862.797C1179 864.098 1179.4 864.095 1209.5 862.56C1212.8 862.392 1215.5 862.168 1215.5 862.062C1215.5 861.957 1221.23 861.709 1228.22 861.511C1235.22 861.314 1241.45 860.841 1242.06 860.461C1242.68 860.081 1245.73 859.664 1248.84 859.535C1259.93 859.075 1274.61 857.875 1281.5 856.864C1293.73 855.071 1294.43 854.913 1295.1 853.839C1295.55 853.115 1295.97 853.137 1296.44 853.91C1296.83 854.527 1297.61 854.739 1298.19 854.379C1299.73 853.433 1309.57 853.053 1334.5 852.981C1346.6 852.946 1359.3 852.405 1362.72 851.78C1368.13 850.792 1369.18 850.858 1370.76 852.284C1372.67 854.013 1377.47 853.576 1376.36 851.775C1376.02 851.226 1376.28 850.444 1376.94 850.038C1377.97 849.402 1378.63 847.641 1378.92 844.75C1378.97 844.338 1379.86 844 1380.92 844C1383.26 844 1384.12 840.094 1385.55 823C1385.81 819.975 1386.3 815.925 1386.66 814C1387.02 812.075 1387.4 802.85 1387.51 793.5C1387.63 784.15 1388.2 770.425 1388.79 763C1389.37 755.575 1389.91 745.675 1389.98 741C1390.06 736.325 1390.33 729.575 1390.6 726C1390.87 722.425 1391.26 717.025 1391.46 714C1391.67 710.975 1391.88 708.394 1391.92 708.265C1391.96 708.136 1392.25 702.736 1392.55 696.265C1392.86 689.794 1393.35 682.475 1393.66 680C1393.96 677.525 1394.36 670.325 1394.54 664C1394.72 657.675 1395.17 648.563 1395.55 643.75C1396.07 636.889 1395.94 635 1394.92 635C1394.15 635 1394.41 634.417 1395.56 633.581C1397.12 632.44 1397.48 631.024 1397.4 626.331C1396.92 599.218 1397.05 562.784 1397.64 555C1398.64 541.872 1398.36 531.841 1396.98 530.987C1396.16 530.483 1396.24 530.123 1397.23 529.741C1398.23 529.358 1398.68 527.118 1398.8 521.926C1398.9 517.923 1399.43 512.14 1399.98 509.074C1400.53 506.008 1401.04 494.275 1401.12 483C1401.31 454.92 1401.18 451.561 1399.96 451.153C1399.33 450.943 1399.51 450.33 1400.42 449.649C1401.7 448.676 1402.02 443.298 1402.5 414.5C1402.82 395.8 1403.32 378.7 1403.62 376.5C1403.91 374.3 1404.08 371.15 1403.98 369.5C1403.89 367.85 1403.84 365.825 1403.89 365C1403.94 364.175 1404.18 357.425 1404.42 350C1404.67 342.575 1404.97 336.275 1405.1 336C1405.68 334.728 1405.93 322.181 1405.83 299C1405.8 293.225 1405.87 286.925 1405.97 285C1406.08 283.075 1405.88 278.35 1405.52 274.5C1405.16 270.65 1404.91 267.05 1404.96 266.5C1405.79 257.538 1406.57 235.606 1406.27 229.925C1405.47 214.972 1406.13 192.432 1407.46 188.959C1408.12 187.243 1407.71 183.38 1406.77 182.441C1406.44 182.105 1406.61 180.543 1407.16 178.97C1407.71 177.397 1407.97 174.173 1407.75 171.805C1407.53 169.437 1407.75 166.375 1408.25 165C1409.58 161.334 1410.92 104.847 1410.06 88.5C1409.85 84.65 1410.26 78.8 1410.97 75.5C1412.26 69.484 1411.68 41.91 1410.22 39.542C1409.22 37.934 1409.39 34.58 1410.5 33.786C1411.88 32.804 1411.36 23.133 1409.83 21.293C1409.15 20.471 1408.49 19.127 1408.37 18.307C1407.73 13.958 1398.56 14.886 1397.7 19.387C1397.37 21.137 1397.17 20.966 1396.56 18.396C1395.87 15.535 1395.56 15.343 1392.65 15.947C1390.92 16.307 1387.44 16.281 1384.92 15.888C1382.4 15.495 1376.32 15.12 1371.42 15.054C1366.51 14.988 1357.61 14.6631 1351.64 14.3311C1342.98 13.8501 1340.61 14.009 1339.91 15.114C1339.39 15.933 1339.02 16.034 1339.02 15.359C1339.01 14.618 1336.37 14.179 1331.5 14.106C1325.44 14.015 1324 14.283 1324 15.497C1324 16.324 1323.52 17 1322.93 17C1322.32 17 1322.14 16.147 1322.5 15C1323.16 12.928 1321.61 12.203 1320.47 14.049C1320.03 14.765 1319.37 14.725 1318.41 13.922C1317.52 13.187 1315.49 12.985 1312.99 13.385C1310.7 13.752 1309 13.621 1309 13.078C1309 12.529 1302.82 12.115 1294.25 12.091C1280.31 12.052 1271.31 11.612 1264.5 10.637C1262.85 10.401 1261.05 10.4861 1260.5 10.8261C1258.85 11.8431 1257.04 11.881 1256.44 10.911C1255.66 9.63504 1249 9.76698 1249 11.059C1249 11.641 1248.5 11.8091 1247.89 11.4301C1245.78 10.1291 1227 10.025 1226.98 11.314C1226.98 12.02 1226.58 11.892 1226 11C1225.47 10.175 1225.02 9.89297 1225.02 10.372C1225.01 10.852 1224.44 10.812 1223.75 10.283C1223.06 9.75498 1219.95 9.30007 1216.84 9.27407C1213.72 9.24807 1210.57 8.853 1209.84 8.397C1209.1 7.941 1203.1 7.45907 1196.5 7.32607C1189.9 7.19307 1183.48 6.82897 1182.23 6.51797C1180.98 6.20597 1179.04 6.44407 1177.92 7.04507C1176.41 7.85207 1175.5 7.82605 1174.44 6.94705C1173.32 6.02005 1173 6.03102 1173 7.00002C1173 7.98802 1172.69 7.99101 1171.51 7.01101C1170.69 6.33201 1169.31 6.05003 1168.44 6.38503C1167.57 6.71903 1165.99 6.52908 1164.93 5.96108C1163.59 5.24708 1162.38 5.25902 1161 6.00002C1159.9 6.58902 1159 6.71706 1159 6.28506C1159 5.85306 1150.11 5.50002 1139.25 5.50002C1128.39 5.50002 1119.27 5.19206 1118.98 4.81606C1117.81 3.27106 1055.15 4.17507 1052.56 5.77407C1051.5 6.43007 1039.07 7.04001 1028.44 6.95901C1024.56 6.92901 1020.17 7.365 1018.69 7.928C1016.87 8.621 1016 8.62203 1016 7.93203C1016 7.25503 1009.55 7.11905 996.75 7.52505C964.611 8.54605 908.784 9.47498 900.5 9.12698C897.75 9.01098 891.253 8.94004 886.062 8.96804C880.872 8.99704 875.062 8.72704 873.152 8.36904C870.44 7.86004 869.387 8.11807 868.34 9.55007C867.137 11.1951 867 11.2091 867 9.69106C867 7.71506 859.043 7.27297 854.508 8.99697C853.066 9.54497 852.105 9.638 852.374 9.204C852.643 8.769 844.906 8.39106 835.181 8.36306C825.457 8.33406 813.787 8.12903 809.249 7.90603C804.673 7.68103 800.861 7.91303 800.69 8.42703C800.505 8.98403 799.806 8.99405 798.941 8.45205C796.692 7.04505 793 6.80902 793 8.07302C793 8.76102 792.305 8.93503 791.25 8.51003C788.413 7.37003 786.881 7.28997 782.645 8.06497C780.441 8.46797 775.7 8.38205 772.111 7.87405C767.971 7.28705 764.563 7.305 762.792 7.923C761.256 8.458 760 8.58202 760 8.19802C759.999 7.81402 755.612 7.45801 750.25 7.40701C736.697 7.27701 717.334 6.31903 716.333 5.72903C714.351 4.56003 699.811 5.687 698.93 7.079C698.299 8.076 698.026 8.12702 698.015 7.25002C698.007 6.56302 697.1 6.00002 696 6.00002C694.9 6.00002 694 5.58207 694 5.07107C694 4.54507 688.47 4.17208 681.227 4.21108C674.202 4.24808 667.512 3.98004 666.359 3.61404C665.207 3.24804 663.096 3.39306 661.667 3.93606C659.93 4.59706 658.862 4.58598 658.44 3.90298C658.086 3.32998 656.519 3.16605 654.864 3.53005C653.099 3.91705 651.333 3.69097 650.459 2.96597C649.617 2.26697 649 2.18001 649 2.76101C649 4.39801 644.941 5.01006 644.347 3.46206C643.959 2.45206 642.025 2.12598 637.156 2.25198C633.493 2.34698 629.98 2.10499 629.348 1.71499C628.717 1.32499 627.143 1.00104 625.85 0.994043C624.558 0.988043 608.455 0.774997 590.066 0.521997C569.736 0.240997 556.184 0.432058 555.489 1.00906C554.761 1.61306 553.223 1.53299 551.249 0.787989C548.897 -0.100011 547.243 -0.102927 544.385 0.774073C541.97 1.51507 540.207 1.58705 539.468 0.973047C538.834 0.448047 538.049 0.28401 537.724 0.61001ZM557 20.652C563.542 20.935 575.496 21.142 576.5 20.989C579.121 20.589 585.674 20.881 587.121 21.463C588.034 21.83 589.419 21.4381 590.291 20.5661C591.142 19.7151 591.988 19.434 592.17 19.943C592.351 20.451 599.475 21.12 608 21.429C616.525 21.738 625.075 22.184 627 22.421C630.625 22.867 653.98 24.204 664.5 24.568C667.8 24.682 670.725 24.8391 671 24.9151C673.498 25.6121 693.14 25.583 693.573 24.882C693.884 24.379 694.558 24.227 695.071 24.544C695.583 24.861 699.49 25.3271 703.751 25.5811C720.049 26.5491 725.599 26.9821 728.5 27.5091C734.248 28.5541 786.325 28.897 788.184 27.902C789.424 27.238 790 27.2761 790 28.0241C790 28.6261 790.513 28.801 791.14 28.414C792.42 27.622 808.643 27.661 809.933 28.459C811.634 29.51 823.342 29.9611 824.478 29.0191C825.192 28.4261 826.832 28.378 828.645 28.898C830.289 29.37 835.204 29.534 839.567 29.263C843.93 28.992 851.438 28.736 856.25 28.694C863.319 28.632 865 28.33 865 27.12C865 25.985 865.463 26.12 866.915 27.679C869.567 30.525 880.991 30.992 881.015 28.255C881.028 26.76 881.171 26.722 881.978 28C883.418 30.281 912.859 30.978 945 29.492C962.81 28.669 961.781 28.677 971.5 29.268C975.9 29.536 980.336 29.3181 981.357 28.7851C982.602 28.1351 983.575 28.175 984.307 28.907C986.209 30.809 990.134 30.2021 990.732 27.9151C991.115 26.4531 991.506 26.201 992.044 27.072C992.977 28.58 1006.51 28.426 1012.5 26.838C1018.55 25.235 1021.43 25.0931 1022.21 26.3571C1023.21 27.9561 1035.59 27.781 1086.5 25.449C1092.55 25.172 1097.95 24.898 1098.5 24.84C1099.05 24.782 1105.57 25.076 1113 25.494C1120.43 25.912 1137.75 26.3871 1151.5 26.5501C1165.25 26.7131 1176.5 26.9381 1176.5 27.0501C1176.5 27.3081 1181.34 27.648 1196.5 28.455C1212.62 29.312 1216.32 29.648 1219.01 30.502C1220.26 30.9 1233.03 31.3971 1247.39 31.6071C1261.75 31.8181 1275.97 32.173 1279 32.397C1289.98 33.211 1313.02 32.724 1314.77 31.641C1315.37 31.271 1316.15 31.432 1316.5 32C1316.85 32.568 1317.56 32.7741 1318.07 32.4571C1318.58 32.1411 1319 32.3661 1319 32.9571C1319 33.5481 1320.24 34.0261 1321.75 34.0191C1324.45 34.0071 1333.63 34.4181 1354.84 35.5041C1360.7 35.8041 1371.69 36.142 1379.26 36.255C1393.06 36.462 1396.23 44.943 1391.31 68.5C1390.97 70.15 1390.54 79.375 1390.37 89C1390.19 98.625 1389.82 115.05 1389.54 125.5C1388.82 152.381 1388.8 153.386 1389.03 154.5C1389.14 155.05 1389.12 155.725 1388.98 156C1388.84 156.275 1388.56 158.975 1388.35 162C1388.15 165.025 1387.73 170.65 1387.41 174.5C1387.1 178.35 1386.76 185.438 1386.67 190.25C1386.58 195.063 1386.26 199 1385.96 199C1385.11 199 1384.73 204.661 1384.81 216.5C1384.88 228.818 1384.8 242.626 1384.57 254.319C1384.48 258.619 1384.67 262.295 1384.98 262.488C1385.29 262.681 1385.39 269.737 1385.19 278.169C1384.99 286.601 1384.96 298 1385.12 303.5C1385.43 313.845 1385.39 316.945 1384.61 345.5C1384.04 366.045 1383.33 377.662 1382.55 378.924C1382.23 379.44 1382.43 380.149 1383 380.5C1383.57 380.851 1383.7 381.67 1383.29 382.319C1381.39 385.372 1380.27 422.404 1381.13 454.346C1381.33 461.961 1381.24 468.349 1380.93 468.543C1380.4 468.871 1379.61 477.673 1379.82 481C1380.4 490.501 1380.06 504.895 1379.11 510.5C1378.46 514.35 1378.19 519.75 1378.51 522.5C1379.54 531.3 1379.67 536 1378.89 536C1378.47 536 1378.13 536.787 1378.13 537.75C1378.13 538.713 1377.89 540.85 1377.59 542.5C1375.7 552.897 1375.13 622.194 1376.88 628.532C1377.47 630.665 1377.63 632.656 1377.23 632.956C1376.83 633.255 1376.38 634.4 1376.24 635.5C1375.14 643.929 1375.07 647 1375.98 647C1376.54 647 1377 647.675 1377 648.5C1377 649.325 1376.32 650 1375.5 650C1374.3 650 1373.98 651.635 1373.88 658.25C1373.69 672.082 1373.2 681.134 1372.62 681.713C1372.32 682.015 1372.5 683.067 1373.03 684.051C1373.69 685.295 1373.61 686.015 1372.74 686.419C1371.77 686.875 1371.78 687.129 1372.79 687.597C1373.85 688.085 1373.85 688.479 1372.79 689.751C1371.47 691.342 1370.8 707 1372.05 707C1372.41 707 1372.63 709.025 1372.54 711.5C1372.43 714.845 1372.77 716 1373.85 716C1374.83 716 1374.53 716.671 1372.94 718.054C1370.24 720.392 1370.08 721.311 1369.59 736.8C1369.39 743.015 1368.99 748.348 1368.68 748.653C1368.38 748.957 1368.54 750.284 1369.04 751.603C1369.54 752.921 1369.58 754 1369.12 754C1367.83 754 1366.67 768.882 1366.49 788C1366.33 804.271 1365.96 811.269 1364.37 828C1363.62 835.873 1356 844.723 1356 837.72C1356 837.206 1355.31 837.052 1354.46 837.376C1353.59 837.712 1352.68 837.327 1352.35 836.483C1352.04 835.667 1350.96 835 1349.95 835C1348.94 835 1347.91 834.658 1347.65 834.24C1346.47 832.338 1316.98 831.942 1314.74 833.799C1313.57 834.77 1313 834.804 1312.46 833.933C1311.97 833.15 1310.23 832.994 1307.12 833.454C1301.35 834.31 1296.64 834.794 1291.5 835.063C1289.3 835.178 1286.74 835.93 1285.81 836.734C1284.88 837.538 1283.65 837.9 1283.06 837.539C1282.48 837.178 1281.99 837.471 1281.98 838.191C1281.97 839.222 1281.8 839.234 1281.17 838.248C1280.19 836.692 1259.09 837.577 1257.42 839.244C1257.08 839.584 1256.17 839.62 1255.4 839.324C1254.63 839.028 1253.21 839.128 1252.25 839.546C1251.29 839.964 1246.29 840.446 1241.15 840.616C1236 840.786 1231.24 841.388 1230.56 841.954C1229.87 842.52 1229.06 842.729 1228.75 842.418C1228.44 842.108 1226.57 842.301 1224.59 842.846C1222.62 843.392 1221 843.538 1221 843.169C1220.99 842.801 1218.97 842.488 1216.5 842.474C1214.02 842.459 1212 842.684 1212 842.974C1211.99 843.263 1205.29 843.521 1197.09 843.548C1186.7 843.581 1181.74 843.973 1180.69 844.846C1179.86 845.534 1178.95 845.723 1178.66 845.266C1178.38 844.809 1176.43 844.524 1174.32 844.633C1172.22 844.743 1165.1 845.127 1158.5 845.486C1151.9 845.846 1138.1 846.223 1127.83 846.325C1117.56 846.426 1108.84 846.828 1108.45 847.219C1108.06 847.61 1107.01 847.553 1106.12 847.093C1104.32 846.161 1074.28 846.389 1073.32 847.342C1072.99 847.674 1072.31 847.688 1071.8 847.374C1069.57 845.996 1045.8 846.344 1044.37 847.775C1043.21 848.931 1042.66 848.96 1041.42 847.934C1040.42 847.101 1035.56 846.566 1027.2 846.367C1020.21 846.201 1013.38 845.81 1012 845.497C1009.64 844.961 987.832 844.187 965.406 843.844C959.854 843.759 954.823 843.992 954.225 844.361C953.627 844.73 952.844 844.557 952.484 843.975C951.687 842.685 937.024 842.916 935.294 844.245C934.63 844.755 933.618 844.882 933.044 844.527C932.47 844.172 932 844.281 932 844.768C932 845.255 930.65 845.455 929 845.213C927.35 844.971 926 844.177 926 843.449C926 842.72 925.213 842.097 924.25 842.063C923.287 842.03 909.225 841.782 893 841.514C856.026 840.901 837.928 840.306 836 839.64C833.878 838.907 811.013 837.795 794.752 837.635C787.19 837.561 781.001 837.275 780.998 837C780.995 836.725 777.209 836.41 772.583 836.299C767.958 836.189 761.882 835.886 759.082 835.625C755.504 835.293 753.57 835.573 752.576 836.567C751.797 837.345 751.012 837.553 750.83 837.029C750.368 835.694 732.672 834.059 731.869 835.276C731.476 835.873 729.841 835.772 727.534 835.011C723.343 833.628 722.284 833.508 705 832.449C691.49 831.621 690.309 831.604 672.842 831.98C666.43 832.119 660.699 831.932 660.107 831.566C658.635 830.656 649.017 831.164 648.386 832.184C648.107 832.636 646.973 832.521 645.865 831.928C644.172 831.022 643.762 831.194 643.287 833.01C642.913 834.44 642.475 834.768 641.988 833.981C641.433 833.083 640.736 833.071 639.127 833.932C637.471 834.818 636.997 834.786 636.985 833.785C636.973 832.776 636.788 832.787 636.123 833.835C635.471 834.863 635.162 834.728 634.774 833.242C634.352 831.629 633.229 831.274 627.885 831.065C617.519 830.658 592.692 830.592 575.342 830.923C566.455 831.093 558.8 830.994 558.33 830.704C557.628 830.27 540.834 830.022 511 830.005C503.526 830 501.982 830.077 489 831.099C479.221 831.869 446.997 832.909 425 833.166C423.625 833.182 420.506 832.919 418.069 832.582C415.011 832.159 413.388 832.362 412.834 833.235C412.197 834.237 412.027 834.224 412.015 833.172C412.003 832.116 409.795 831.957 401.25 832.397C385.056 833.232 364.007 832.964 364.002 831.924C364.001 831.607 360.513 831.281 356.25 831.199C334.648 830.785 316.715 830.048 316.22 829.554C315.203 828.536 313.159 828.984 311.571 830.571C310.606 831.537 310 831.693 310 830.977C310 830.115 306.347 829.966 296.036 830.407C287.449 830.773 279.267 830.565 274.786 829.866C265.084 828.352 206.453 827.313 197.5 828.496C191.268 829.32 183.146 829.163 177.58 828.111C171.057 826.879 173.434 827 144.5 826.433C130.75 826.164 117.047 825.844 114.048 825.722C111.05 825.6 107.522 826.057 106.209 826.737C104.484 827.631 103.274 827.682 101.852 826.921C100.747 826.329 98.4821 826.177 96.6911 826.574C92.4361 827.516 80.147 827.709 78.766 826.855C78.161 826.482 76.6171 826.575 75.3331 827.063C73.7671 827.659 73 827.59 73 826.853C73 826.121 72.5 826.17 71.5 827C70.329 827.972 69.682 827.981 68.55 827.042C67.753 826.38 65.6091 825.967 63.7861 826.124C61.9631 826.281 59.8581 826.031 59.1091 825.568C56.6341 824.038 40.9741 824.434 39.9101 826.054C37.0321 830.432 34.098 820.294 33.528 804C33.18 794.058 33.1411 793.795 32.1171 794.427C31.1251 795.041 31.3471 789.32 32.3541 788.313C33.4191 787.248 33.084 784.195 31.857 783.786C31.008 783.503 31.0221 782.827 31.9121 781.164C32.5801 779.916 32.796 777.946 32.4 776.712C32.008 775.496 31.727 772.475 31.774 770C31.821 767.525 31.478 764.037 31.011 762.25C30.543 760.463 30.462 759 30.831 759C31.199 759 31.4061 757.313 31.2921 755.25C30.7311 745.158 29.88 734.695 28.995 727C28.457 722.325 28.084 717.825 28.166 717C28.719 711.44 27.96 707.789 26.502 708.999C25.171 710.103 25.17 709.77 26.493 706.021C27.62 702.825 27.8661 698.848 27.5051 689.65C26.9291 674.971 26.815 674 25.679 674C25.188 674 25.12 673.213 25.528 672.25C26.509 669.938 26.244 665.999 25.008 664.509C24.463 663.853 24.241 663.092 24.515 662.819C24.788 662.545 24.999 658.762 24.984 654.411C24.968 650.06 24.975 644.025 24.999 641C25.055 633.863 25.0501 633.642 24.6581 626C24.4751 622.425 24.252 617.786 24.163 615.691C24.073 613.596 23.6361 612.107 23.1901 612.383C22.7451 612.658 22.524 607.705 22.7 601.376C22.911 593.805 22.675 590.083 22.01 590.494C21.455 590.837 21 590.69 21 590.166C21 589.642 21.675 588.955 22.5 588.638C24.197 587.987 24.529 584.445 22.984 583.49C22.425 583.144 22.225 582.444 22.541 581.934C23.557 580.289 24.2871 568 23.3691 568C22.8801 568 22.441 564.287 22.394 559.75C22.231 544.136 22.088 517.496 22.153 515C22.297 509.485 20.972 486.763 20.458 485.931C20.155 485.442 20.3991 484.122 21.0011 482.999C22.4371 480.315 23.046 461.872 21.752 460.25C21.088 459.417 21.091 459 21.761 459C22.314 459 23.002 458.1 23.29 457C23.577 455.9 23.4821 455 23.0781 455C22.6751 455 22.4841 451.287 22.6561 446.75C22.8271 442.213 23.0171 438.5 23.0781 438.5C23.1391 438.5 23.333 435.972 23.511 432.882C24.176 421.287 24.954 413.884 25.62 412.805C26.07 412.078 25.849 411.976 24.985 412.51C24.017 413.108 23.836 412.869 24.314 411.625C24.673 410.688 24.446 409.086 23.808 408.065C22.882 406.581 22.9851 405.872 24.3241 404.533C26.2421 402.615 26.442 401.391 24.984 400.49C24.425 400.144 24.279 399.358 24.659 398.743C25.738 396.996 25.9511 385 24.9491 382.366C24.4491 381.052 24.436 380 24.918 380C26.338 380 26.802 377.805 28.121 364.844C29.303 353.233 29.501 347.9 28.97 342C28.846 340.625 29.038 331.278 29.396 321.229C29.831 309.057 29.695 302.298 28.989 300.979C28.139 299.392 28.245 299 29.524 299C30.401 299 30.885 298.622 30.599 298.161C30.314 297.699 29.999 294.099 29.9 290.161C29.8 286.222 29.38 283 28.967 283C28.553 283 27.946 282.302 27.618 281.448C27.291 280.594 27.4191 280.141 27.9041 280.441C28.3921 280.743 28.652 277.427 28.487 272.993C28.324 268.597 28.597 264.749 29.095 264.441C30.393 263.639 30.2141 260 28.8781 260C28.0561 260 28.0611 259.632 28.8951 258.626C30.6561 256.504 31.04 243.23 29.359 242.584C28.612 242.297 28 241.572 28 240.972C28 240.373 28.4021 240.13 28.8931 240.434C30.1631 241.219 30.876 237.197 30.301 232.5C30.031 230.3 29.7431 227.334 29.6601 225.908C29.5401 223.856 29.091 223.413 27.504 223.783C25.501 224.25 25.501 224.25 27.5 222.657C28.6 221.781 29.05 221.042 28.5 221.016C27.95 220.991 28.175 220.518 29 219.966C30.299 219.098 30.2491 218.816 28.6301 217.865C27.2741 217.068 27.0951 216.559 27.9771 216.014C29.4051 215.132 30.2751 199 28.8951 199C28.4031 199 28 198.55 28 198C28 197.45 28.7261 197 29.6131 197C31.0581 197 31.1461 195.468 30.4601 182.25C30.0401 174.138 29.7341 166.743 29.7811 165.817C29.8271 164.891 29.233 163.608 28.459 162.966C27.269 161.978 27.26 161.391 28.402 159.149C31.074 153.901 31.925 137.801 30.657 116.5C30.362 111.55 30.057 107.5 29.98 107.5C29.902 107.5 29.698 105.362 29.526 102.75C29.354 100.138 29.642 98 30.166 98C30.689 98 30.858 97.579 30.54 97.064C30.221 96.549 30.399 94.187 30.935 91.814C31.557 89.061 31.562 87.3791 30.948 87.1651C30.42 86.9801 30.286 86.3451 30.652 85.7541C31.017 85.1631 31.4771 76.989 31.6731 67.59C32.1231 46.076 32.049 47.887 32.583 45.25C32.871 43.827 33.766 43 35.019 43C36.109 43 37.007 42.438 37.015 41.75C37.025 40.937 37.287 40.864 37.765 41.543C38.169 42.117 40.525 42.435 43 42.25C45.475 42.064 48.512 41.885 49.75 41.851C51.112 41.813 52.031 41.1391 52.079 40.1441C52.129 39.1071 52.3441 38.961 52.6621 39.75C53.2191 41.13 57.5911 41.47 58.3801 40.194C58.9181 39.323 65.8771 39.25 67.5051 40.098C68.6141 40.675 78.092 40.461 88 39.636C95.589 39.004 118.37 38.213 135.494 37.986C143.366 37.882 147.743 37.428 148.229 36.664C148.772 35.81 148.973 35.8381 148.985 36.7691C148.994 37.5661 149.837 37.85 151.25 37.533C152.488 37.255 158.45 36.791 164.5 36.502C170.55 36.212 176.919 35.77 178.654 35.518C182.887 34.905 214.322 33.89 225.25 34.013C230.063 34.068 234.002 33.7491 234.004 33.3061C234.007 32.8631 239.519 32.359 246.254 32.188C264.237 31.729 275.904 31.094 293.5 29.617C301.448 28.95 313.01 28.183 324.5 27.562C327.8 27.384 330.5 27.1351 330.5 27.0091C330.5 26.8831 337.475 26.616 346 26.417C354.525 26.217 362.4 26.028 363.5 25.997C364.6 25.966 368.187 25.9271 371.47 25.9101C374.754 25.8931 377.904 25.51 378.47 25.058C379.037 24.607 380.71 24.375 382.19 24.544C383.669 24.713 385.416 24.204 386.072 23.413C386.977 22.323 387.596 22.25 388.633 23.11C389.647 23.952 390 23.953 390 23.114C390 22.315 390.595 22.352 392.031 23.242C393.679 24.263 394.217 24.249 394.891 23.166C395.572 22.072 395.821 22.0911 396.273 23.2691C396.805 24.6551 399.705 24.852 426.5 25.324C433.928 25.455 458.301 23.9301 459.343 23.2691C459.979 22.8651 465.675 22.4341 472 22.3101C478.325 22.1861 484.625 22.022 486 21.947C488.391 21.816 493.226 21.873 497.5 22.084C515.908 22.993 551.199 20.8291 551.908 18.7481C552.187 17.9301 552.504 18.018 552.908 19.026C553.252 19.883 554.964 20.563 557 20.652Z" fill="#025354"/>
</svg>
