<svg width="996" height="1015" viewBox="0 0 996 1015" fill="none" xmlns="http://www.w3.org/2000/svg">
<path fill-rule="evenodd" clip-rule="evenodd" d="M448.783 0.428867C446.583 0.869867 438.708 1.53688 431.283 1.91088C423.858 2.28588 415.083 2.98987 411.783 3.47487C408.483 3.96087 403.308 4.60687 400.283 4.90987C397.258 5.21287 391.858 5.91787 388.283 6.47687C380.692 7.66387 375.312 8.16487 362.283 8.89887C357.058 9.19387 351.433 9.66888 349.783 9.95588C333.262 12.8229 286.516 14.1759 246.783 12.9359C237.983 12.6619 228.407 12.8219 225.503 13.2919C222.599 13.7619 220.007 13.7989 219.745 13.3739C219.29 12.6389 212.9 12.7049 177.283 13.8129C168.758 14.0779 156.123 14.4489 149.205 14.6379C139.704 14.8969 136.017 15.3789 134.138 16.6109C132.005 18.0089 131.516 18.0379 130.716 16.8139C129.381 14.7729 88.9555 13.4859 55.2825 14.4119C49.5075 14.5709 39.6075 14.4039 33.2825 14.0419C26.0375 13.6269 19.9325 13.7939 16.7825 14.4939C14.0325 15.1049 10.2046 15.8289 8.27655 16.1019C4.62555 16.6199 3.98458 34.2859 7.30158 42.9749C7.92358 44.6029 8.62253 50.6609 8.85553 56.4359C9.37953 69.4679 11.2156 88.1019 12.3026 91.4359C13.8166 96.0769 13.3855 169.843 11.8295 172.36C11.5635 172.79 11.4606 175.941 11.5996 179.363C11.7396 182.784 11.5355 185.779 11.1485 186.019C10.7605 186.259 10.3575 190.388 10.2525 195.195C9.95351 208.834 9.6615 218.423 8.9195 238.936C8.5415 249.386 8.04449 272.604 7.81549 290.532C7.58549 308.46 7.09658 324.328 6.72858 325.795C6.33458 327.366 6.54948 329.053 7.25348 329.901C7.91048 330.692 8.20551 332.149 7.90851 333.138C7.45851 334.642 6.91056 359.371 7.18256 365.936C7.34656 369.901 6.35054 393.032 5.83454 397.238C5.50154 399.95 5.67255 401.313 6.29755 400.927C6.92555 400.539 7.07549 401.892 6.70649 404.625C5.23549 415.529 4.83554 465.772 6.18354 470.254C6.73254 472.078 6.82153 474.553 6.38153 475.754C5.94053 476.954 5.67654 492.786 5.79254 510.936C6.05854 552.147 5.93454 549.783 7.78254 549.074C8.60754 548.758 9.28254 548.887 9.28254 549.36C9.28254 549.834 8.58959 550.488 7.74359 550.813C6.58359 551.258 6.23255 552.826 6.31855 557.17C6.38155 560.341 6.21648 567.661 5.95148 573.436C4.44048 606.408 4.07648 645.436 5.27948 645.436C6.21748 645.436 6.24758 645.773 5.40058 646.794C4.76358 647.562 4.24458 652.017 4.20758 657.044C4.17158 661.935 4.10155 667.511 4.05255 669.436C4.00355 671.361 4.06857 674.511 4.19757 676.436C4.32657 678.361 3.96452 682.369 3.39252 685.343C2.74852 688.694 2.67648 693.068 3.20148 696.843C3.66848 700.194 3.76557 703.386 3.41657 703.936C2.82957 704.862 2.35659 712.811 2.16559 724.936C2.12259 727.686 2.33657 732.186 2.64057 734.936C2.94457 737.686 3.21359 740.484 3.23859 741.155C3.26259 741.825 3.96252 742.112 4.79352 741.793C5.86452 741.382 6.12948 741.672 5.70148 742.787C5.36948 743.652 4.29659 744.614 3.31659 744.925C0.986593 745.665 0.40954 753.991 0.16254 790.436C-0.13746 834.773 -0.0914981 839.014 0.898502 858.436C1.4175 868.611 1.52053 878.482 1.12653 880.371C0.704529 882.395 0.863567 884.654 1.51557 885.871C2.21757 887.182 2.62348 895.327 2.62848 908.186C2.63548 924.309 2.90654 928.436 3.95954 928.436C5.91154 928.436 5.56757 929.998 3.27057 931.564C0.712572 933.308 -0.267457 946.809 1.74054 952.638C2.69354 955.404 2.7895 958.797 2.1225 966.054C0.790501 980.543 1.82558 986.757 6.09858 989.928C9.01858 992.096 34.9956 993.572 50.2646 992.437C54.1086 992.152 58.4816 992.247 59.9836 992.648C61.4846 993.05 75.1035 993.853 90.2475 994.434C105.391 995.015 124.758 995.936 133.283 996.481C141.808 997.025 164.734 998.143 184.23 998.965C203.725 999.787 223.525 1000.9 228.23 1001.44C239.087 1002.68 252.283 1002.72 252.283 1001.5C252.283 1000.51 256.189 1000.64 257.896 1001.7C258.461 1002.05 261.141 1002.1 263.852 1001.82C273.918 1000.79 289.96 1000.93 291.376 1002.07C292.35 1002.85 297.555 1003.04 308.283 1002.69C316.808 1002.41 324.683 1002.21 325.783 1002.24C333.587 1002.48 352.37 1003.43 360.283 1003.98C374.897 1005 379.592 1005.06 381.966 1004.27C383.167 1003.86 384.293 1003.97 384.469 1004.49C384.644 1005.02 391.087 1005.72 398.786 1006.05C417.635 1006.86 420.53 1007.07 422.283 1007.74C423.108 1008.05 428.733 1008.61 434.783 1008.97C440.833 1009.33 448.258 1009.79 451.283 1009.99C457.105 1010.38 470.989 1011.06 490.783 1011.94C497.383 1012.23 507.733 1012.72 513.783 1013.02C552.635 1014.96 649.708 1014.79 655.283 1012.76C656.108 1012.46 665.558 1012.05 676.283 1011.85C687.008 1011.65 702.533 1011.24 710.783 1010.93C719.033 1010.63 732.297 1010.2 740.26 1009.98C748.222 1009.76 759.022 1009.32 764.26 1009C769.497 1008.69 781.619 1008.18 791.197 1007.89C800.775 1007.59 808.961 1007.13 809.389 1006.87C809.818 1006.6 818.632 1006.19 828.976 1005.95C848.571 1005.49 868.168 1004.69 879.283 1003.9C890.658 1003.09 909.341 1002.34 923.702 1002.13C932.578 1001.99 937.753 1001.53 937.982 1000.84C938.217 1000.13 939.971 1000.01 943.062 1000.48C948.327 1001.28 960.966 1000.62 963.283 999.425C964.108 998.999 966.911 998.831 969.513 999.051C979.391 999.888 981.077 990.694 980.072 941.436C980.055 940.611 980.36 938.136 980.749 935.936C981.138 933.736 981.575 931.261 981.72 930.436C982.336 926.942 983.651 909.852 983.375 908.936C983.21 908.386 983.222 899.836 983.403 889.936C983.927 861.325 983.747 852.965 982.242 835.936C980.112 811.834 980.362 802.776 983.727 782.013C984.522 777.105 985.224 767.205 985.287 760.013C985.403 746.736 985.703 740.498 986.822 727.936C988.029 714.385 988.106 707.929 987.077 706.689C986.348 705.81 986.412 704.986 987.29 703.928C988.071 702.986 988.354 700.76 988.043 697.997C987.769 695.565 987.966 693.153 988.481 692.638C989.756 691.363 991.063 658.456 990.355 645.436C990.012 639.119 990.883 627.892 991.836 626.35C992.096 625.93 991.819 624.511 991.22 623.197C990.394 621.384 990.514 619.328 991.722 614.667C992.611 611.236 993.278 604.863 993.231 600.23C993.184 595.668 993.41 573.811 993.734 551.658C994.138 523.972 993.99 510.756 993.257 509.387C992.67 508.291 992.512 506.874 992.906 506.237C993.598 505.117 993.539 489.255 992.711 453.936C992.492 444.586 992.349 435.586 992.395 433.936C992.44 432.286 992.433 430.036 992.38 428.936C992.091 422.938 992.314 407.195 992.696 406.577C992.941 406.181 992.774 402.892 992.324 399.268C991.875 395.644 991.843 390.837 992.255 388.585C992.667 386.333 992.756 384.242 992.451 383.938C992.147 383.634 991.944 377.967 992.001 371.344C992.084 361.521 991.827 359.199 990.608 358.731C989.462 358.291 989.406 357.978 990.366 357.385C991.056 356.958 991.727 354.218 991.863 351.274C991.998 348.338 992.37 340.086 992.692 332.936C993.013 325.786 993.494 301.486 993.758 278.936C994.022 256.386 994.53 234.452 994.888 230.193C995.307 225.209 995.158 221.99 994.468 221.159C993.794 220.347 993.693 218.551 994.196 216.322C994.636 214.372 995.135 202.687 995.307 190.356C995.726 160.339 995.738 161.789 994.964 146.318C994.589 138.829 994.283 131.939 994.283 131.009C994.283 130.079 993.833 129.596 993.283 129.936C991.858 130.817 992.043 129.076 993.533 127.586C994.403 126.716 994.821 122.015 994.909 112.136C994.979 104.326 995.334 96.4069 995.7 94.5379C996.065 92.6699 995.887 88.8449 995.305 86.0379C994.158 80.5129 993.801 54.7689 994.658 39.3739C995.683 20.9509 996.266 21.1979 949.783 20.4289C934.589 20.1779 864.568 20.2169 822.783 20.5009C819.483 20.5229 810.708 20.2899 803.283 19.9819C795.858 19.6739 787.003 19.3079 783.606 19.1689C780.209 19.0299 777.096 18.5829 776.689 18.1759C775.611 17.0979 769.459 17.2709 767.273 18.4409C766.101 19.0679 764.531 19.1039 763.089 18.5349C760.946 17.6899 743.291 16.0739 723.283 14.8909C718.608 14.6149 711.633 13.9549 707.783 13.4259C700.734 12.4559 694.855 11.9329 679.352 10.8949C674.715 10.5839 670.581 10.1199 670.166 9.86386C669.751 9.60686 664.769 9.16287 659.096 8.87787C653.423 8.59187 646.983 8.15087 644.783 7.89687C642.583 7.64387 637.408 7.21987 633.283 6.95587C629.158 6.69187 624.433 6.24787 622.783 5.97087C618.704 5.28387 607.83 4.46687 595.783 3.94187C590.283 3.70187 582.858 3.23787 579.283 2.90987C575.708 2.58287 566.033 2.11487 557.783 1.87087C549.533 1.62687 541.433 1.20887 539.783 0.942875C534.36 0.0688745 452.876 -0.392133 448.783 0.428867ZM539.283 20.8359C557.969 21.5469 593.489 23.5359 613.783 25.0089C631.275 26.2779 634.11 26.4689 642.783 26.9609C647.733 27.2409 653.133 27.6979 654.783 27.9759C661.171 29.0529 673.172 30.3139 681.783 30.8149C686.733 31.1029 693.258 31.7799 696.283 32.3199C699.308 32.8589 707.408 33.5429 714.283 33.8389C721.158 34.1359 731.508 34.8329 737.283 35.3879C743.058 35.9439 755.658 36.6359 765.283 36.9259C774.908 37.2159 783.991 37.7039 785.468 38.0099C786.944 38.3159 789.753 38.1239 791.71 37.5839C793.666 37.0439 795.503 36.9829 795.791 37.4499C796.08 37.9159 805.371 38.3409 816.438 38.3939C827.506 38.4459 836.835 38.6439 837.171 38.8339C837.507 39.0229 840.708 38.7659 844.283 38.2619C847.858 37.7589 851.458 37.3569 852.283 37.3699C861.375 37.5059 873.797 37.3209 894.283 36.7449C949.519 35.1919 974.523 35.6479 977.306 38.2599C978.673 39.5419 979.131 40.4379 978.327 40.2599C977.527 40.0819 976.847 40.3859 976.813 40.9359C976.78 41.4859 976.49 42.3859 976.169 42.9359C975.706 43.7309 975.738 59.4549 976.238 76.1859C976.275 77.4239 976.805 78.4359 977.417 78.4359C978.187 78.4359 978.156 78.8829 977.318 79.8919C976.654 80.6929 976.398 81.8129 976.749 82.3809C977.1 82.9489 977.4 86.1189 977.416 89.4249C977.44 94.3479 977.747 95.4419 979.114 95.4679C980.555 95.4949 980.517 95.7009 978.842 96.9679C977.45 98.0209 977.309 98.4399 978.342 98.4509C979.198 98.4599 979.377 98.7649 978.783 99.2009C978.233 99.6049 977.679 101.061 977.551 102.436C976.812 110.411 976.947 111.718 978.65 112.963C980.313 114.179 980.29 114.299 978.258 114.944C976.033 115.65 975.765 121.957 977.759 126.686C978.205 127.743 978.058 128.436 977.389 128.436C975.783 128.436 976.032 131.634 977.839 134.213C979.245 136.221 979.246 136.436 977.844 136.436C976.478 136.436 976.306 139.424 976.416 161.186C976.484 174.799 976.313 194.711 976.036 205.436C975.759 216.161 975.745 225.302 976.005 225.749C976.57 226.72 976.436 252.7 975.845 256.815C975.617 258.399 975.819 260.715 976.293 261.962C976.767 263.21 976.875 264.511 976.532 264.854C975.343 266.043 975.157 270.115 974.731 304.436C974.495 323.411 974.12 340.736 973.898 342.936C973.676 345.136 973.961 347.509 974.531 348.21C975.102 348.911 975.316 349.736 975.009 350.043C974.701 350.351 975.35 351.503 976.45 352.603C977.55 353.703 978.163 354.89 977.812 355.24C977.461 355.591 976.773 355.229 976.283 354.436C975.793 353.643 975.07 353.316 974.677 353.709C974.284 354.102 974.778 355.326 975.776 356.43C977.407 358.232 977.425 358.436 975.938 358.436C973.999 358.436 973.721 360.041 975.533 360.777C976.493 361.166 976.458 361.511 975.378 362.265C974.605 362.804 974.055 364.526 974.156 366.091C974.257 367.656 974.462 370.972 974.613 373.461C974.946 378.952 975.801 380.523 978.065 379.799C979.186 379.441 978.95 379.93 977.384 381.21C975.533 382.721 975.305 383.315 976.384 383.803C977.457 384.288 977.492 384.572 976.533 385.019C975.846 385.34 975.283 386.203 975.283 386.936C975.283 387.669 975.846 388.496 976.533 388.774C977.28 389.075 977.078 389.31 976.033 389.357C974.259 389.437 974.206 389.781 973.826 403.936C973.782 405.586 974.021 408.296 974.357 409.958C974.693 411.62 974.655 413.87 974.271 414.958C973.888 416.046 973.925 418.167 974.355 419.673C974.804 421.247 974.729 422.66 974.178 423.001C973.632 423.339 973.454 426.458 973.763 430.264C974.062 433.934 974.288 446.464 974.266 458.11C974.24 472.308 974.586 479.505 975.314 479.955C975.911 480.324 976.141 481.821 975.826 483.281C974.931 487.429 975.153 503.016 976.48 529.436C976.55 530.811 976.236 541.161 975.786 552.436C975.335 563.711 975.012 575.636 975.068 578.936C975.267 590.758 975.144 598.023 974.653 603.436C973.327 618.037 972.64 644.025 973.549 645.186C974.198 646.015 974.143 646.899 973.388 647.808C972.653 648.693 972.263 654.102 972.284 663.058C972.303 670.691 972.054 678.511 971.732 680.436C970.768 686.192 970.714 699.436 971.654 699.436C972.135 699.436 971.986 700.088 971.325 700.886C970.663 701.683 970.234 703.821 970.372 705.636C970.509 707.451 970.319 710.286 969.948 711.936C969.578 713.586 968.833 720.786 968.295 727.936C967.756 735.086 967.118 742.286 966.875 743.936C966.631 745.586 965.92 752.111 965.293 758.436C964.666 764.761 963.539 774.886 962.789 780.936C962.038 786.986 961.557 793.858 961.721 796.208C961.885 798.558 961.694 800.682 961.294 800.929C960.894 801.176 960.528 804.108 960.481 807.443C960.434 810.779 960.126 814.354 959.797 815.388C959.469 816.422 959.717 817.587 960.348 817.977C961.181 818.492 961.129 818.913 960.155 819.515C958.547 820.509 957.908 835.107 959.175 841.89C959.707 844.734 959.629 846.69 958.957 847.362C956.552 849.767 958.065 918.436 960.523 918.436C960.979 918.436 960.968 919.223 960.497 920.186C959.324 922.584 958.618 950.016 959.188 971.047C959.301 975.233 959.185 978.867 958.93 979.122C957.828 980.224 946.463 981.956 943.753 981.434C942.119 981.12 934.258 981.226 926.283 981.67C918.308 982.113 906.833 982.638 900.783 982.835C889.982 983.187 868.536 984.043 846.783 984.99C826.074 985.891 817.815 986.58 816.707 987.499C816.098 988.005 815.321 988.14 814.98 987.8C814.64 987.459 811.306 987.255 807.572 987.345C803.838 987.436 800.221 987.482 799.533 987.449C789.368 986.956 760.518 987.613 753.283 988.501C745.098 989.507 725.756 990.395 712.177 990.388C707.444 990.386 699.344 990.875 694.177 991.475C689.01 992.075 680.733 992.53 675.783 992.487C663.627 992.38 658.314 993.228 658.167 995.3C658.072 996.641 657.967 996.611 657.583 995.133C657.2 993.654 656.846 993.553 655.617 994.573C654.42 995.566 653.694 995.549 651.995 994.488C650.342 993.456 644.521 993.232 625.826 993.48C606.594 993.736 578.931 993.618 552.283 993.166C550.908 993.143 545.058 993.213 539.283 993.321C533.508 993.43 525.408 993.255 521.283 992.931C506.342 991.76 500.573 991.415 488.783 990.987C446.696 989.458 436.286 988.911 431.461 987.974C429.101 987.516 416.862 986.705 398.783 985.809C393.283 985.536 385.256 985.065 380.946 984.761C375.816 984.399 372.726 984.593 371.997 985.322C370.41 986.909 364.212 986.702 362.893 985.019C361.711 983.509 336.294 981.721 303.783 980.86C294.983 980.627 283.508 980.212 278.283 979.938C273.058 979.663 262.258 979.214 254.283 978.94C246.308 978.665 236.408 978.225 232.283 977.961C228.158 977.697 216.008 977.216 205.283 976.892C173.507 975.932 161.489 975.396 148.283 974.35C141.408 973.806 128.265 973.146 119.076 972.884C109.888 972.621 101.788 972.2 101.076 971.947C100.034 971.577 34.7095 971.914 29.2825 972.318C18.9935 973.083 18.2515 972.549 18.3255 964.436C18.4015 956.017 18.1235 952.147 17.2825 949.936C16.7535 948.545 16.7505 946.291 17.2745 944.463C18.4025 940.531 18.9435 925.764 17.9955 924.815C17.6035 924.423 17.2825 923.315 17.2825 922.353C17.2825 921.39 16.7205 920.376 16.0325 920.098C15.2855 919.797 15.4875 919.562 16.5325 919.515C17.4955 919.472 18.2115 919.098 18.1235 918.686C18.0365 918.274 18.3175 917.129 18.7475 916.143C19.1775 915.157 19.2775 914.098 18.9695 913.79C18.6625 913.482 18.8315 912.121 19.3475 910.766C20.5315 907.651 19.4135 897.71 17.6835 895.98C16.9655 895.262 16.6716 894.38 17.0316 894.02C18.3126 892.739 18.4916 883.436 17.2346 883.436C16.3226 883.436 16.3136 883.103 17.1986 882.038C17.8366 881.268 18.3385 879.131 18.3135 877.288C18.2885 875.444 18.2466 871.011 18.2186 867.436C18.1906 863.8 17.5155 859.621 16.6855 857.952C15.3535 855.272 15.3675 854.847 16.8245 853.782C18.9295 852.242 17.8405 841.591 15.3865 839.721C13.9245 838.608 13.9326 838.497 15.4736 838.468C16.9076 838.441 17.1755 837.255 17.2375 830.686C17.2785 826.423 17.5235 819.561 17.7835 815.436C18.0425 811.311 18.1955 800.511 18.1225 791.436C18.0485 782.361 18.0245 773.811 18.0685 772.436C18.1125 771.061 18.3665 762.415 18.6335 753.224C18.8995 744.032 19.3875 736.075 19.7165 735.543C20.0455 735.01 19.8566 734.291 19.2966 733.944C18.6066 733.518 18.6156 732.683 19.3226 731.36C20.1266 729.86 20.0255 729.275 18.8885 728.838C18.0745 728.526 17.6525 727.635 17.9505 726.859C18.2485 726.083 18.8456 725.666 19.2766 725.932C19.7086 726.199 20.1266 723.609 20.2076 720.177C20.2876 716.744 20.6956 703.361 21.1146 690.436C21.5326 677.511 21.5326 666.208 21.1136 665.317C20.6956 664.427 20.6635 663.389 21.0425 663.009C21.4225 662.63 21.8205 658.633 21.9295 654.128C22.0375 649.622 22.3915 643.011 22.7155 639.436C23.7045 628.526 23.9675 585.359 23.0485 584.791C22.5685 584.495 22.5656 583.742 23.0416 583.097C23.5126 582.458 23.7955 581.036 23.6695 579.936C23.0795 574.776 23.0885 572.181 23.7315 561.788C24.1965 554.264 24.0745 550.426 23.3555 549.981C22.6255 549.53 22.7305 548.47 23.6905 546.614C25.2235 543.649 24.8505 520.425 23.2195 517.339C22.7295 516.412 22.7945 515.324 23.3725 514.746C23.9205 514.198 24.3016 509.966 24.2186 505.343C24.1356 500.719 24.1795 492.661 24.3145 487.436C24.6025 476.385 24.5965 478.917 24.4125 442.751C24.2905 418.641 24.0435 414.34 22.7045 413.001C21.2845 411.581 21.2885 411.436 22.7405 411.436C24.6015 411.436 24.7476 393.063 22.9066 390.61C22.2326 389.712 22.2755 389.059 23.0375 388.587C24.1255 387.915 24.3675 381.591 24.4405 351.936C24.4555 345.886 24.4055 339.811 24.3305 338.436C24.2555 337.061 24.5306 327.386 24.9426 316.936C25.6346 299.343 25.8686 276.022 25.4226 268.936C25.1776 265.028 26.1316 216.94 26.8116 198.936C27.1026 191.236 27.5405 165.811 27.7845 142.436C28.0275 119.061 28.4605 98.4359 28.7455 96.6019C29.0305 94.7679 28.8015 92.4059 28.2375 91.3519C27.5155 90.0019 27.5385 89.4359 28.3145 89.4359C28.9805 89.4359 29.1526 88.6019 28.7496 87.3329C28.3826 86.1769 28.1425 83.5889 28.2165 81.5829C28.2905 79.5769 28.4476 68.0359 28.5666 55.9359C28.7826 33.9359 28.7825 33.9359 38.7825 34.1319C76.1455 34.8639 120.77 35.2529 121.419 34.8519C121.844 34.5889 132.224 34.1669 144.487 33.9149C175.968 33.2659 197.614 32.6679 198.783 32.4149C199.333 32.2969 200.008 32.2809 200.283 32.3799C202.147 33.0539 265.007 32.9659 265.885 32.2879C266.503 31.8109 268.322 31.9019 270.027 32.4969C275.001 34.2299 355.86 30.9579 361.283 28.8039C362.574 28.2909 368.705 27.7489 393.283 25.9749C395.758 25.7969 401.158 25.1729 405.283 24.5879C409.408 24.0039 417.958 23.2939 424.283 23.0099C438.079 22.3909 448.207 21.3669 448.719 20.5399C449.205 19.7549 516.631 19.9749 539.283 20.8359Z" fill="#025354"/>
<path d="M539.283 20.8359C557.969 21.5469 593.489 23.5359 613.783 25.0089C631.275 26.2779 634.11 26.4689 642.783 26.9609C647.733 27.2409 653.133 27.6979 654.783 27.9759C661.171 29.0529 673.172 30.3139 681.783 30.8149C686.733 31.1029 693.258 31.7799 696.283 32.3199C699.308 32.8589 707.408 33.5429 714.283 33.8389C721.158 34.1359 731.508 34.8329 737.283 35.3879C743.058 35.9439 755.658 36.6359 765.283 36.9259C774.908 37.2159 783.991 37.7039 785.468 38.0099C786.944 38.3159 789.753 38.1239 791.71 37.5839C793.666 37.0439 795.503 36.9829 795.791 37.4499C796.08 37.9159 805.371 38.3409 816.438 38.3939C827.506 38.4459 836.835 38.6439 837.171 38.8339C837.507 39.0229 840.708 38.7659 844.283 38.2619C847.858 37.7589 851.458 37.3569 852.283 37.3699C861.375 37.5059 873.797 37.3209 894.283 36.7449C949.519 35.1919 974.523 35.6479 977.306 38.2599C978.673 39.5419 979.131 40.4379 978.327 40.2599C977.527 40.0819 976.847 40.3859 976.813 40.9359C976.78 41.4859 976.49 42.3859 976.169 42.9359C975.706 43.7309 975.738 59.4549 976.238 76.1859C976.275 77.4239 976.805 78.4359 977.417 78.4359C978.187 78.4359 978.156 78.8829 977.318 79.8919C976.654 80.6929 976.398 81.8129 976.749 82.3809C977.1 82.9489 977.4 86.1189 977.416 89.4249C977.44 94.3479 977.747 95.4419 979.114 95.4679C980.555 95.4949 980.517 95.7009 978.842 96.9679C977.45 98.0209 977.309 98.4399 978.342 98.4509C979.198 98.4599 979.377 98.7649 978.783 99.2009C978.233 99.6049 977.679 101.061 977.551 102.436C976.812 110.411 976.947 111.718 978.65 112.963C980.313 114.179 980.29 114.299 978.258 114.944C976.033 115.65 975.765 121.957 977.759 126.686C978.205 127.743 978.058 128.436 977.389 128.436C975.783 128.436 976.032 131.634 977.839 134.213C979.245 136.221 979.246 136.436 977.844 136.436C976.478 136.436 976.306 139.424 976.416 161.186C976.484 174.799 976.313 194.711 976.036 205.436C975.759 216.161 975.745 225.302 976.005 225.749C976.57 226.72 976.436 252.7 975.845 256.815C975.617 258.399 975.819 260.715 976.293 261.962C976.767 263.21 976.875 264.511 976.532 264.854C975.343 266.043 975.157 270.115 974.731 304.436C974.495 323.411 974.12 340.736 973.898 342.936C973.676 345.136 973.961 347.509 974.531 348.21C975.102 348.911 975.316 349.736 975.009 350.043C974.701 350.351 975.35 351.503 976.45 352.603C977.55 353.703 978.163 354.89 977.812 355.24C977.461 355.591 976.773 355.229 976.283 354.436C975.793 353.643 975.07 353.316 974.677 353.709C974.284 354.102 974.778 355.326 975.776 356.43C977.407 358.232 977.425 358.436 975.938 358.436C973.999 358.436 973.721 360.041 975.533 360.777C976.493 361.166 976.458 361.511 975.378 362.265C974.605 362.804 974.055 364.526 974.156 366.091C974.257 367.656 974.462 370.972 974.613 373.461C974.946 378.952 975.801 380.523 978.065 379.799C979.186 379.441 978.95 379.93 977.384 381.21C975.533 382.721 975.305 383.315 976.384 383.803C977.457 384.288 977.492 384.572 976.533 385.019C975.846 385.34 975.283 386.203 975.283 386.936C975.283 387.669 975.846 388.496 976.533 388.774C977.28 389.075 977.078 389.31 976.033 389.357C974.259 389.437 974.206 389.781 973.826 403.936C973.782 405.586 974.021 408.296 974.357 409.958C974.693 411.62 974.655 413.87 974.271 414.958C973.888 416.046 973.925 418.167 974.355 419.673C974.804 421.247 974.729 422.66 974.178 423.001C973.632 423.339 973.454 426.458 973.763 430.264C974.062 433.934 974.288 446.464 974.266 458.11C974.24 472.308 974.586 479.505 975.314 479.955C975.911 480.324 976.141 481.821 975.826 483.281C974.931 487.429 975.153 503.016 976.48 529.436C976.55 530.811 976.236 541.161 975.786 552.436C975.335 563.711 975.012 575.636 975.068 578.936C975.267 590.758 975.144 598.023 974.653 603.436C973.327 618.037 972.64 644.025 973.549 645.186C974.198 646.015 974.143 646.899 973.388 647.808C972.653 648.693 972.263 654.102 972.284 663.058C972.303 670.691 972.054 678.511 971.732 680.436C970.768 686.192 970.714 699.436 971.654 699.436C972.135 699.436 971.986 700.088 971.325 700.886C970.663 701.683 970.234 703.821 970.372 705.636C970.509 707.451 970.319 710.286 969.948 711.936C969.578 713.586 968.833 720.786 968.295 727.936C967.756 735.086 967.118 742.286 966.875 743.936C966.631 745.586 965.92 752.111 965.293 758.436C964.666 764.761 963.539 774.886 962.789 780.936C962.038 786.986 961.557 793.858 961.721 796.208C961.885 798.558 961.694 800.682 961.294 800.929C960.894 801.176 960.528 804.108 960.481 807.443C960.434 810.779 960.126 814.354 959.797 815.388C959.469 816.422 959.717 817.587 960.348 817.977C961.181 818.492 961.129 818.913 960.155 819.515C958.547 820.509 957.908 835.107 959.175 841.89C959.707 844.734 959.629 846.69 958.957 847.362C956.552 849.767 958.065 918.436 960.523 918.436C960.979 918.436 960.968 919.223 960.497 920.186C959.324 922.584 958.618 950.016 959.188 971.047C959.301 975.233 959.185 978.867 958.93 979.122C957.828 980.224 946.463 981.956 943.753 981.434C942.119 981.12 934.258 981.226 926.283 981.67C918.308 982.113 906.833 982.638 900.783 982.835C889.982 983.187 868.536 984.043 846.783 984.99C826.074 985.891 817.815 986.58 816.707 987.499C816.098 988.005 815.321 988.14 814.98 987.8C814.64 987.459 811.306 987.255 807.572 987.345C803.838 987.436 800.221 987.482 799.533 987.449C789.368 986.956 760.518 987.613 753.283 988.501C745.098 989.507 725.756 990.395 712.177 990.388C707.444 990.386 699.344 990.875 694.177 991.475C689.01 992.075 680.733 992.53 675.783 992.487C663.627 992.38 658.314 993.228 658.167 995.3C658.072 996.641 657.967 996.611 657.583 995.133C657.2 993.654 656.846 993.553 655.617 994.573C654.42 995.566 653.694 995.549 651.995 994.488C650.342 993.456 644.521 993.232 625.826 993.48C606.594 993.736 578.931 993.618 552.283 993.166C550.908 993.143 545.058 993.213 539.283 993.321C533.508 993.43 525.408 993.255 521.283 992.931C506.342 991.76 500.573 991.415 488.783 990.987C446.696 989.458 436.286 988.911 431.461 987.974C429.101 987.516 416.862 986.705 398.783 985.809C393.283 985.536 385.256 985.065 380.946 984.761C375.816 984.399 372.726 984.593 371.997 985.322C370.41 986.909 364.212 986.702 362.893 985.019C361.711 983.509 336.294 981.721 303.783 980.86C294.983 980.627 283.508 980.212 278.283 979.938C273.058 979.663 262.258 979.214 254.283 978.94C246.308 978.665 236.408 978.225 232.283 977.961C228.158 977.697 216.008 977.216 205.283 976.892C173.507 975.932 161.489 975.396 148.283 974.35C141.408 973.806 128.265 973.146 119.076 972.884C109.888 972.621 101.788 972.2 101.076 971.947C100.034 971.577 34.7095 971.914 29.2825 972.318C18.9935 973.083 18.2515 972.549 18.3255 964.436C18.4015 956.017 18.1235 952.147 17.2825 949.936C16.7535 948.545 16.7505 946.291 17.2745 944.463C18.4025 940.531 18.9435 925.764 17.9955 924.815C17.6035 924.423 17.2825 923.315 17.2825 922.353C17.2825 921.39 16.7205 920.376 16.0325 920.098C15.2855 919.797 15.4875 919.562 16.5325 919.515C17.4955 919.472 18.2115 919.098 18.1235 918.686C18.0365 918.274 18.3175 917.129 18.7475 916.143C19.1775 915.157 19.2775 914.098 18.9695 913.79C18.6625 913.482 18.8315 912.121 19.3475 910.766C20.5315 907.651 19.4135 897.71 17.6835 895.98C16.9655 895.262 16.6716 894.38 17.0316 894.02C18.3126 892.739 18.4916 883.436 17.2346 883.436C16.3226 883.436 16.3136 883.103 17.1986 882.038C17.8366 881.268 18.3385 879.131 18.3135 877.288C18.2885 875.444 18.2466 871.011 18.2186 867.436C18.1906 863.8 17.5155 859.621 16.6855 857.952C15.3535 855.272 15.3675 854.847 16.8245 853.782C18.9295 852.242 17.8405 841.591 15.3865 839.721C13.9245 838.608 13.9326 838.497 15.4736 838.468C16.9076 838.441 17.1755 837.255 17.2375 830.686C17.2785 826.423 17.5235 819.561 17.7835 815.436C18.0425 811.311 18.1955 800.511 18.1225 791.436C18.0485 782.361 18.0245 773.811 18.0685 772.436C18.1125 771.061 18.3665 762.415 18.6335 753.224C18.8995 744.032 19.3875 736.075 19.7165 735.543C20.0455 735.01 19.8566 734.291 19.2966 733.944C18.6066 733.518 18.6156 732.683 19.3226 731.36C20.1266 729.86 20.0255 729.275 18.8885 728.838C18.0745 728.526 17.6525 727.635 17.9505 726.859C18.2485 726.083 18.8456 725.666 19.2766 725.932C19.7086 726.199 20.1266 723.609 20.2076 720.177C20.2876 716.744 20.6956 703.361 21.1146 690.436C21.5326 677.511 21.5326 666.208 21.1136 665.317C20.6956 664.427 20.6635 663.389 21.0425 663.009C21.4225 662.63 21.8205 658.633 21.9295 654.128C22.0375 649.622 22.3915 643.011 22.7155 639.436C23.7045 628.526 23.9675 585.359 23.0485 584.791C22.5685 584.495 22.5656 583.742 23.0416 583.097C23.5126 582.458 23.7955 581.036 23.6695 579.936C23.0795 574.776 23.0885 572.181 23.7315 561.788C24.1965 554.264 24.0745 550.426 23.3555 549.981C22.6255 549.53 22.7305 548.47 23.6905 546.614C25.2235 543.649 24.8505 520.425 23.2195 517.339C22.7295 516.412 22.7945 515.324 23.3725 514.746C23.9205 514.198 24.3016 509.966 24.2186 505.343C24.1356 500.719 24.1795 492.661 24.3145 487.436C24.6025 476.385 24.5965 478.917 24.4125 442.751C24.2905 418.641 24.0435 414.34 22.7045 413.001C21.2845 411.581 21.2885 411.436 22.7405 411.436C24.6015 411.436 24.7476 393.063 22.9066 390.61C22.2326 389.712 22.2755 389.059 23.0375 388.587C24.1255 387.915 24.3675 381.591 24.4405 351.936C24.4555 345.886 24.4055 339.811 24.3305 338.436C24.2555 337.061 24.5306 327.386 24.9426 316.936C25.6346 299.343 25.8686 276.022 25.4226 268.936C25.1776 265.028 26.1316 216.94 26.8116 198.936C27.1026 191.236 27.5405 165.811 27.7845 142.436C28.0275 119.061 28.4605 98.4359 28.7455 96.6019C29.0305 94.7679 28.8015 92.4059 28.2375 91.3519C27.5155 90.0019 27.5385 89.4359 28.3145 89.4359C28.9805 89.4359 29.1526 88.6019 28.7496 87.3329C28.3826 86.1769 28.1425 83.5889 28.2165 81.5829C28.2905 79.5769 28.4476 68.0359 28.5666 55.9359C28.7826 33.9359 28.7825 33.9359 38.7825 34.1319C76.1455 34.8639 120.77 35.2529 121.419 34.8519C121.844 34.5889 132.224 34.1669 144.487 33.9149C175.968 33.2659 197.614 32.6679 198.783 32.4149C199.333 32.2969 200.008 32.2809 200.283 32.3799C202.147 33.0539 265.007 32.9659 265.885 32.2879C266.503 31.8109 268.322 31.9019 270.027 32.4969C275.001 34.2299 355.86 30.9579 361.283 28.8039C362.574 28.2909 368.705 27.7489 393.283 25.9749C395.758 25.7969 401.158 25.1729 405.283 24.5879C409.408 24.0039 417.958 23.2939 424.283 23.0099C438.079 22.3909 448.207 21.3669 448.719 20.5399C449.205 19.7549 516.631 19.9749 539.283 20.8359Z" fill="#025354"/>
</svg>
