<svg width="997" height="1023" viewBox="0 0 997 1023" fill="none" xmlns="http://www.w3.org/2000/svg">
    <path fill-rule="evenodd" clip-rule="evenodd"
        d="M355.839 0.493988C355.572 0.761988 348.636 1.12817 340.426 1.30917C329.988 1.53817 324.848 2.04915 323.331 3.00815C321.818 3.96515 320.76 4.07098 319.831 3.35898C318.609 2.42298 304.167 2.42014 286 3.35214C263.046 4.53014 248.596 5.11809 235 5.42709C204.834 6.11209 163.727 8.1152 162 8.9852C161.725 9.1242 161.05 9.14104 160.5 9.02304C158.837 8.66804 140.846 9.06214 135.5 9.57114C132.75 9.83314 125.775 10.2362 120 10.4662C94.107 11.4962 79.2 12.1881 75.5 12.5311C73.3 12.7341 65.693 12.9402 58.595 12.9872C51.498 13.0342 45.209 13.3712 44.62 13.7352C43.095 14.6782 36 14.8091 35.441 13.9051C35.184 13.4881 33.65 13.5271 32.034 13.9901C30.417 14.4541 27.066 14.8331 24.587 14.8331C22.107 14.8331 19.498 15.1972 18.789 15.6412C18.08 16.0852 15.448 16.346 12.94 16.222C4.30204 15.793 0.478033 40.3701 3.95003 74.0001C4.13403 75.7881 3.13803 85.5571 2.44303 88.7711C2.17303 90.0191 2.42804 91.9321 3.01104 93.0211C3.71304 94.3331 3.72804 95.0001 3.05404 95.0001C1.34204 95.0001 0.555042 100.104 2.11504 101.092C3.02204 101.667 3.08903 101.975 2.30803 101.985C1.11403 102 1.28403 110.169 2.56203 114.195C2.87703 115.188 2.68004 116 2.12504 116C1.56904 116 1.33604 117.012 1.60604 118.25C1.87604 119.488 2.25803 130.85 2.45603 143.5C2.77003 163.571 3.88303 177.843 6.78603 199C7.20203 202.025 7.43804 206.525 7.31104 209C7.03004 214.495 6.09803 226.5 5.95203 226.5C4.85903 226.5 3.91404 244.472 3.63604 270.539C3.49404 283.76 3.09303 295.04 2.74303 295.606C1.76403 297.191 2.12604 309.35 3.19204 310.686C3.79504 311.442 3.73904 312.619 3.03704 313.93C2.43204 315.062 1.96104 318.128 1.99204 320.744C2.02304 323.36 1.85304 334.5 1.61504 345.5C1.33604 358.4 1.54904 365.944 2.21404 366.75C2.93104 367.619 2.90504 368 2.12804 368C1.06604 368 1.49303 374.351 2.68503 376.294C2.95303 376.73 2.66203 377.703 2.03803 378.455C1.21903 379.441 1.20804 380.011 2.00004 380.5C2.71304 380.941 2.76103 381.584 2.13503 382.339C1.32003 383.321 1.28304 386.405 1.94504 398C2.06004 400.016 1.58804 402.27 0.781042 403.56C0.0400418 404.742 0.746034 499.779 1.50403 501.006C1.99303 501.797 2.95603 523.976 3.13303 538.5C3.18603 542.9 3.58904 546.95 4.02804 547.5C4.46704 548.05 4.44303 550.525 3.97603 553C3.50903 555.475 3.50204 560.425 3.96004 564C4.41804 567.575 4.84604 572.975 4.91204 576C4.98904 579.584 5.54804 581.887 6.51504 582.61C8.14504 583.829 8.59004 585.483 7.02904 584.518C5.64704 583.664 4.64504 588.487 5.52604 591.75C5.93504 593.262 6.22804 600.496 6.17904 607.826C6.12904 615.155 6.45604 623.115 6.90404 625.516C7.40604 628.203 7.33804 630.262 6.72704 630.873C6.18104 631.419 6.07204 632.683 6.48504 633.683C6.89804 634.682 7.22603 638.875 7.21303 643C7.20103 647.125 7.61903 651.022 8.14403 651.661C8.75503 652.406 8.72103 653.054 8.04903 653.47C6.49603 654.43 6.77704 657.634 8.57104 659.429C9.43604 660.293 9.71203 661 9.18503 661C7.61703 661 7.23404 666.889 8.66904 668.938C9.50904 670.138 9.61803 670.961 8.96503 671.178C8.29903 671.4 7.90204 679.676 7.84504 694.511C7.71304 729.163 8.22204 796.414 8.62304 797.134C8.81604 797.483 9.17304 813.908 9.41604 833.634C9.65904 853.36 10.077 870.625 10.345 872C10.614 873.375 10.878 877.875 10.932 882C10.998 887.045 11.335 889.019 11.961 888.029C12.473 887.22 13.253 886.919 13.694 887.361C14.136 887.802 13.767 888.697 12.876 889.349C11.197 890.577 10.196 934 11.847 934C12.222 934 12.652 939.287 12.803 945.75C12.954 952.213 13.513 957.651 14.045 957.835C14.577 958.02 14.676 958.695 14.265 959.335C10.253 965.586 13.982 991.315 19.313 994.168C22.307 995.77 70.459 997.567 73.483 996.19C74.888 995.55 76.11 995.51 76.687 996.087C77.208 996.608 93.482 997.261 113.56 997.567C168.502 998.403 175.322 998.408 177.75 997.607C179.088 997.166 180 997.275 180 997.875C180 998.431 181.012 998.631 182.25 998.32C183.488 998.009 185.4 997.772 186.5 997.794C191.164 997.887 203.601 999.056 205.15 999.548C206.075 999.841 207.135 999.591 207.505 998.992C207.99 998.207 208.548 998.21 209.5 999C210.459 999.796 211.008 999.796 211.5 999C211.962 998.252 212.567 998.226 213.401 998.918C214.073 999.476 217.521 1000.02 221.062 1000.13C224.603 1000.25 227.912 1000.56 228.414 1000.83C230.14 1001.76 235.4 1001.8 237.765 1000.9C239.15 1000.37 240.829 1000.37 241.815 1000.89C242.742 1001.38 247.325 1002.08 252 1002.44C256.675 1002.81 261.85 1003.31 263.5 1003.56C265.15 1003.81 270.55 1004.27 275.5 1004.57C288.483 1005.38 291.068 1005.63 305.5 1007.44C312.65 1008.34 321.425 1009.28 325 1009.53C328.575 1009.78 334.2 1010.44 337.5 1010.99C340.8 1011.54 346.2 1012.02 349.5 1012.05C352.8 1012.08 358.65 1012.66 362.5 1013.34C366.35 1014.02 371.171 1014.29 373.213 1013.95C375.256 1013.61 377.309 1013.71 377.776 1014.18C378.914 1015.31 400.543 1017.31 405.158 1016.7C407.169 1016.43 409.194 1016.57 409.658 1017C410.423 1017.71 422.097 1018.66 442 1019.65C446.125 1019.85 451.75 1020.2 454.5 1020.43C461.03 1020.97 477.653 1021.99 486.498 1022.4C490.347 1022.57 494.728 1022.37 496.234 1021.93C497.741 1021.5 499.211 1021.53 499.502 1022C500.484 1023.59 564.775 1022.41 587 1020.4C597.899 1019.41 599.319 1019.24 607.548 1017.97C611.922 1017.29 618.014 1016.64 621.086 1016.53C624.159 1016.41 627.084 1016.1 627.586 1015.83C628.089 1015.57 632.1 1015.42 636.5 1015.51C640.9 1015.6 646.075 1015.3 648 1014.85C649.925 1014.39 656.225 1013.78 662 1013.47C680.676 1012.49 684.967 1012.14 685.993 1011.5C686.547 1011.16 687 1011.41 687 1012.05C687 1012.8 687.903 1012.99 689.501 1012.59C690.876 1012.24 696.276 1011.94 701.501 1011.91C707.446 1011.88 711 1011.47 711 1010.81C711 1010.13 711.514 1010.18 712.428 1010.94C713.355 1011.71 718.362 1012.15 726.678 1012.2C733.73 1012.24 749.175 1012.43 761 1012.64C772.825 1012.84 787 1013 792.5 1013C826.304 1012.95 838.709 1012.64 840.314 1011.81C841.313 1011.29 842.661 1011.24 843.314 1011.7C844.458 1012.51 850.596 1012.47 861.891 1011.59C864.856 1011.35 867.668 1010.56 868.141 1009.83C868.845 1008.74 869.17 1008.76 869.942 1009.97C870.612 1011.01 873.28 1011.53 879.192 1011.77C883.761 1011.95 889.075 1012.32 891 1012.59C892.925 1012.85 909.8 1013.26 928.5 1013.49C947.2 1013.72 964.662 1014.15 967.304 1014.44C970.359 1014.79 971.885 1014.62 971.495 1013.99C971.158 1013.45 971.359 1013 971.941 1013C972.523 1013 973 1013.45 973 1014C973 1015.43 980.654 1015.24 986.731 1013.66C989.573 1012.92 993.108 1012.45 994.588 1012.61C997.48 1012.92 997.61 1000.98 994.845 989C994.274 986.525 993.582 982.363 993.307 979.75C993.032 977.137 992.345 975 991.781 975C991.164 975 991.238 974.418 991.966 973.541C992.636 972.734 992.928 970.834 992.621 969.291C992.315 967.756 991.979 964.025 991.874 961C991.769 957.975 991.465 955.102 991.2 954.616C990.934 954.131 990.601 952.331 990.46 950.616C989.997 945.004 988.89 937.631 988.387 936.817C987.179 934.863 986.358 868.2 987.479 863.097C987.839 861.458 987.657 859.227 987.075 858.139C986.442 856.957 986.393 856.028 986.953 855.831C987.468 855.649 987.914 853.25 987.945 850.5C988.009 844.729 988.018 844.486 988.467 836.5C988.652 833.2 988.839 826.45 988.881 821.5C988.924 816.55 988.997 811.6 989.044 810.5C989.091 809.4 989.306 788.475 989.523 764C989.74 739.525 990.02 714.446 990.145 708.27C990.27 702.093 990.114 696.781 989.798 696.464C989.262 695.928 989.411 690.273 990.437 672.22C990.719 667.254 990.41 664.092 989.466 662.273C988.47 660.352 988.382 659.244 989.154 658.315C989.743 657.605 990.162 653.981 990.086 650.262C989.696 631.325 989.739 628.232 990.405 627.154C990.813 626.493 990.437 625.721 989.538 625.376C988.37 624.928 988.232 624.426 989.016 623.48C989.781 622.558 989.748 622.083 988.898 621.799C988.01 621.503 988.05 620.791 989.06 618.952C991.313 614.849 991.003 559.637 988.701 555.068C987.746 553.173 987.38 551.381 987.883 551.068C988.679 550.572 989.495 546.4 989.07 545C988.986 544.725 988.754 532.8 988.553 518.5C988.038 481.777 987.887 478.59 986.624 477.765C985.827 477.244 985.863 477.026 986.75 477.015C987.438 477.007 988 476.502 988 475.893C988 475.284 987.325 475.045 986.5 475.362C985.675 475.678 985 475.694 985 475.397C985 475.1 985.675 474.182 986.5 473.357C988.264 471.593 988.509 466.336 986.852 465.784C985.999 465.5 985.983 464.13 986.788 460.451C987.385 457.728 987.945 444.025 988.034 430C988.349 380.02 988.3 377.805 986.851 376.887C985.82 376.234 985.802 376.027 986.773 376.015C988.353 375.996 988.091 360.009 986.51 359.985C985.954 359.976 986.087 359.597 986.804 359.142C988.559 358.029 988.757 346.086 987.038 345.023C986.063 344.421 986.129 343.731 987.339 341.876C988.191 340.569 988.751 338.262 988.582 336.75C988.413 335.238 988.611 334 989.022 334C990.184 334 988.852 320.595 987.606 319.75C986.808 319.208 986.827 318.788 987.677 318.236C988.414 317.758 988.887 314.302 988.944 308.986C988.993 304.319 989.074 297.856 989.122 294.624C989.174 291.221 988.733 288.453 988.074 288.046C987.329 287.585 987.234 286.541 987.8 285.013C989.216 281.183 988.159 277.844 985.911 279.048C984.418 279.847 984.162 279.742 984.629 278.523C984.951 277.685 985.953 276.993 986.857 276.985C988.139 276.973 988.207 276.784 987.165 276.123C986.13 275.467 986.247 275.169 987.69 274.791C989.893 274.215 990.952 256.648 989.003 253.006C988.413 251.903 988.32 251 988.798 251C989.856 251 989.847 251.112 989.847 237.5C989.848 209.062 989.178 171.201 988.627 168.5C988.291 166.85 987.947 158.075 987.864 149C987.781 139.925 987.462 132.06 987.156 131.522C986.85 130.983 986.499 128.146 986.376 125.216C986.254 122.287 985.673 119.311 985.085 118.603C984.498 117.895 984.351 116.982 984.759 116.575C986.261 115.073 985.914 88.0001 984.392 88.0001C982.382 88.0001 982.681 86.241 984.893 85.057C987.361 83.736 987.798 69.3451 985.566 62.8661C984.764 60.5391 984.312 58.305 984.561 57.901C986.032 55.522 986.029 37.172 984.557 35.7C982.654 33.797 982.536 32.6081 984.319 33.2921C985.377 33.6981 985.427 33.123 984.575 30.399C983.989 28.53 982.936 27.0001 982.234 27.0001C981.532 27.0001 980.467 25.924 979.867 24.608C978.591 21.806 971.54 18.682 969.125 19.848C967.182 20.786 965.929 20.7421 964.25 19.6761C963.563 19.2391 962.649 19.0991 962.22 19.3641C961.791 19.6291 958.303 19.9571 954.47 20.0921C950.636 20.2271 945.925 20.7151 944 21.1761C934.58 23.4331 927.356 23.6032 924.214 21.6412C923.507 21.1992 920.132 20.6671 916.714 20.4601C913.296 20.2521 908.925 19.8821 907 19.6371C896.585 18.3131 882.001 17.039 878.5 17.148C874.477 17.274 870.487 16.7972 859.603 14.8912C854.93 14.0732 853.532 14.133 852.868 15.179C852.407 15.906 852.024 16.0121 852.015 15.4171C852.007 14.8211 850.763 14.3281 849.25 14.3211C847.737 14.3131 842.9 13.937 838.5 13.483C829.597 12.566 826.799 12.7271 825.876 14.2091C825.491 14.8271 824.209 14.5281 822.528 13.4261C820.326 11.9841 819.439 11.8692 817.902 12.8292C816.856 13.4822 816 13.622 816 13.14C816 11.328 807.58 10.975 806.25 12.732C805.54 13.669 805 13.868 805 13.191C805 11.728 799.793 11.6072 798.363 13.0372C797.647 13.7532 796.476 13.7511 794.579 13.0301C793.068 12.4561 791.451 12.2211 790.985 12.5091C790.519 12.7971 789.839 12.5491 789.474 11.9571C788.558 10.4761 783.768 11.1711 782.282 13.0001C781.216 14.3121 781.06 14.2801 781.032 12.7501C781.014 11.7871 780.212 10.9612 779.25 10.9142C778.288 10.8672 775.925 10.668 774 10.472C756.103 8.65002 731 10.1912 731 13.1112C731 14.1502 730.55 15.0001 730 15.0001C729.45 15.0001 729 14.5641 729 14.0311C729 13.4991 728.325 13.322 727.5 13.638C726.67 13.957 726 13.6671 726 12.9901C726 12.2591 725.195 11.9771 724 12.2901C722.9 12.5771 722 12.35 722 11.784C722 11.175 721.388 11.2631 720.5 12.0001C719.464 12.8601 719 12.8982 719 12.1222C719 11.5052 718.55 11.0001 718 11.0001C717.45 11.0001 717 11.6751 717 12.5001C717 13.3251 716.523 14.0001 715.941 14.0001C715.359 14.0001 715.16 13.5501 715.5 13.0001C716.641 11.1531 715.028 10.0392 712.567 10.9742C711.268 11.4682 709.923 11.5902 709.579 11.2452C708.15 9.81721 698.656 10.0691 695.382 11.6231C693.106 12.7031 691.577 12.9131 690.743 12.2611C690.06 11.7261 687.475 11.4861 685 11.7281C681.242 12.0961 673.525 12.1781 669.5 11.8941C668.95 11.8551 666.025 12.134 663 12.514C659.975 12.894 657.05 13.1371 656.5 13.0531C655.95 12.9691 652.35 12.7241 648.5 12.5101C644.65 12.2961 635.65 11.772 628.5 11.346C621.35 10.92 611.675 10.5671 607 10.5631C602.325 10.5591 598.258 10.2211 597.962 9.81113C597.665 9.40213 590.915 8.96799 582.962 8.84799C575.008 8.72799 568.252 8.26897 567.949 7.82797C567.646 7.38597 565.964 7.43706 564.212 7.93906C562.459 8.44206 560.789 8.46819 560.498 7.99619C559.873 6.98619 553.119 6.15703 540 5.48203C534.775 5.21203 528.7 4.787 526.5 4.535C521.146 3.923 494.16 2.80905 475 2.40805C466.475 2.23005 457.925 1.83605 456 1.53305C451.532 0.829051 356.49 -0.157012 355.839 0.493988ZM326.569 20.3631C328.192 19.2991 329 19.1602 329 19.9442C329 20.5902 329.412 20.8641 329.915 20.5531C330.418 20.2421 331.008 20.525 331.227 21.181C331.51 22.031 334.487 22.2751 341.562 22.0291C357.793 21.4641 453.906 21.824 454.924 22.453C455.44 22.772 456.149 22.5681 456.5 22.0001C456.851 21.4321 457.601 21.2531 458.167 21.6031C459.13 22.1981 468.926 23.0741 490.705 24.5111C496.236 24.8761 500.665 24.714 501.802 24.106C503.099 23.412 504.03 23.4301 504.766 24.1661C505.416 24.8161 512.394 25.3581 522.51 25.5431C531.679 25.7111 539.425 26.092 539.722 26.389C540.02 26.686 541.076 26.494 542.071 25.962C543.081 25.421 544.117 25.38 544.419 25.868C545.26 27.229 550.651 28.1121 561 28.5831C566.225 28.8211 574.1 29.2652 578.5 29.5702C582.9 29.8752 587.4 30.0581 588.5 29.9771C589.6 29.8951 591.175 29.8861 592 29.9571C601.325 30.7561 611 30.8411 611 30.1241C611 28.2931 617.107 28.296 619.435 30.128C621.848 32.025 639.138 33.3621 676 34.5011C684.525 34.7641 694.425 35.2122 698 35.4962C701.575 35.7812 713.5 36.305 724.5 36.661C735.5 37.018 746.525 37.4501 749 37.6231C751.475 37.7951 763.4 38.2181 775.5 38.5631C806.265 39.4381 816.51 39.8411 824 40.4691C827.575 40.7681 833.875 41.2262 838 41.4862C842.125 41.7472 848.875 42.2202 853 42.5392C873.475 44.1202 947.061 44.7842 961.25 43.5162C967.777 42.9332 968.003 42.9891 968.1 45.2071C968.335 50.6101 968.827 56.8701 969.42 62.0001C970.276 69.4161 970.277 69.9961 969.44 81.7501C968.916 89.0961 969.027 92.0001 969.832 92.0001C971.326 92.0001 970.869 99.8231 969.339 100.417C968.54 100.728 968.293 103.615 968.547 109.684C969.037 121.411 969.322 122.57 971.614 122.172C973.374 121.867 973.385 121.933 971.778 123.172C969.541 124.897 969.973 162.753 972.214 161.368C972.646 161.1 973 161.809 973 162.941C973 164.146 972.348 165 971.428 165C969.351 165 970.47 175.625 972.83 178.311C973.858 179.482 974.055 180.366 973.387 180.811C971.868 181.824 970.95 184.851 971.97 185.481C972.456 185.782 972.489 187.294 972.044 188.848C971.592 190.421 971.644 192.399 972.16 193.321C972.736 194.351 972.71 195.674 972.088 196.835C971.473 197.985 971.25 207.639 971.506 222.098C971.734 234.969 971.935 246.625 971.954 248C971.973 249.375 971.832 259.95 971.641 271.5C971.4 286.046 971.632 292.736 972.397 293.268C973.14 293.786 972.911 294.383 971.695 295.099C970.329 295.903 970.158 296.486 970.993 297.492C971.6 298.223 971.699 299.068 971.213 299.369C970.154 300.023 970.269 303.008 971.425 304.879C971.909 305.662 971.805 306.502 971.177 306.891C970.277 307.447 969.762 325.694 969.82 355C969.821 355.825 970.029 359.088 970.281 362.25C970.533 365.412 970.414 368 970.016 368C969.619 368 969.244 383.975 969.182 403.5C969.097 430.737 969.353 439.004 970.285 439.015C971.079 439.025 971.14 439.285 970.461 439.765C969.816 440.222 969.371 447.504 969.287 459C969.211 469.175 969.119 480.425 969.082 484C968.921 499.383 970.05 508.716 972.242 510.125C972.848 510.515 972.797 511.007 972.107 511.434C971.498 511.81 971 511.615 971 511C971 510.385 970.639 510.105 970.197 510.378C969.756 510.651 969.527 513.265 969.689 516.187C969.851 519.109 970.246 539.474 970.567 561.442C971.319 613.008 971.267 611.925 973.029 613.039C974.026 613.669 974.097 613.974 973.25 613.985C972.331 613.996 972 616.758 972 624.417C972 631.859 972.357 634.953 973.25 635.254C974.219 635.58 974.186 636.056 973.1 637.371C971.926 638.792 971.183 657.46 972.092 662.672C972.172 663.127 972.151 663.95 972.047 664.5C971.942 665.05 971.918 670 971.993 675.5C972.068 681 972.051 695.625 971.956 708C971.861 720.375 971.801 732.975 971.823 736C971.967 756.017 972.113 862.88 972.004 868.5C971.918 872.914 971.926 881.586 972.037 904.5C972.101 917.7 971.883 929.747 971.553 931.272C971.223 932.796 971.46 934.991 972.08 936.149C972.954 937.782 972.903 938.45 971.853 939.127C970.993 939.682 970.865 940.273 971.5 940.75C984.423 950.442 970.59 994.169 954.77 993.634C909.101 992.089 879.255 991.779 878.597 992.843C878.186 993.508 877.078 993.613 875.715 993.117C874.497 992.674 864.5 992.486 853.5 992.7C827.446 993.207 779.692 993.209 754.715 992.704C743.833 992.484 734.693 992.687 734.404 993.155C734.115 993.623 733.083 993.579 732.11 993.059C727.685 990.691 643.991 993.206 636.633 995.927C635.46 996.362 632.025 996.574 629 996.399C625.975 996.224 619.9 996.498 615.5 997.006C600.157 998.78 584.412 1000.05 572 1000.52C565.125 1000.78 558.15 1001.27 556.5 1001.61C552.829 1002.36 485.171 1002.45 479.256 1001.71C476.847 1001.4 474.738 1001.61 474.381 1002.19C473.961 1002.87 473.524 1002.85 473.073 1002.12C472.651 1001.44 466.582 1000.85 456.948 1000.56C448.452 1000.3 439.25 999.84 436.5 999.528C433.75 999.216 428.125 998.751 424 998.495C419.875 998.239 414.925 997.847 413 997.623C411.075 997.399 404.55 996.92 398.5 996.559C383.2 995.645 377.859 995.15 375.25 994.407C373.782 993.99 373 994.198 373 995.006C373 995.933 372.66 995.963 371.649 995.124C370.906 994.507 367.869 993.987 364.899 993.969C357.737 993.923 347.966 992.807 345 991.695C344.175 991.385 340.125 990.865 336 990.539C322.14 989.441 317.537 988.989 310 987.983C305.875 987.433 296.875 986.546 290 986.012C283.125 985.477 272.55 984.532 266.5 983.912C260.45 983.291 250.775 982.594 245 982.363C239.225 982.132 231.125 981.735 227 981.48C219.084 980.992 211.815 980.817 210.367 981.08C209.89 981.166 209.275 981.116 209 980.969C207.883 980.37 159.736 979.71 157 980.257C156.175 980.421 154.938 980.908 154.25 981.337C153.563 981.767 153 981.701 153 981.192C153 980.637 141.5 980.427 124.25 980.667C34.216 981.922 34.915 981.939 30.518 978.433C28.131 976.529 27.967 976.178 29.672 976.624C31.623 977.135 31.794 976.763 31.878 971.839C32.216 952.078 31.604 943.492 29.778 942.363C29.175 941.99 29.318 941.378 30.143 940.799C31.073 940.147 31.147 939.702 30.377 939.383C29.673 939.091 29.442 937.26 29.757 934.467C30.033 932.019 29.806 929.45 29.253 928.758C28.7 928.066 28.579 926.6 28.985 925.5C29.996 922.762 29.174 921.021 27.167 921.645C25.856 922.053 25.914 921.826 27.441 920.582C28.88 919.409 29.009 918.98 27.941 918.921C26.912 918.865 26.859 918.697 27.756 918.336C28.447 918.057 28.762 917.424 28.456 916.928C28.149 916.432 28.369 914.333 28.944 912.263C29.844 909.02 29.702 908.11 27.911 905.678C25.834 902.856 25.834 902.856 27.97 902.298C30.41 901.66 30.603 894.666 28.25 892.179C26.76 890.604 26.575 888.619 28 889.5C29.589 890.482 29.163 885.678 27.443 883.223C26.023 881.194 26.031 881 27.539 881C29.026 881 29.127 879.628 28.548 867.25C28.194 859.688 27.814 839.646 27.702 822.713C27.54 798.037 27.231 791.76 26.143 791.088C25.235 790.527 25.14 790.032 25.857 789.589C26.56 789.154 26.758 785.258 26.434 778.214C26.163 772.321 26.001 766.6 26.074 765.5C26.148 764.4 26.184 761.925 26.156 760C26.128 758.075 26.164 755.15 26.235 753.5C26.971 736.574 25.851 671.026 24.816 670.386C24.286 670.059 24.352 669.281 24.973 668.533C25.772 667.57 25.57 667.121 24.173 666.755C23.144 666.486 22.041 665.265 21.721 664.041C21.161 661.898 21.211 661.881 23.076 663.568C25.779 666.015 26.432 664.841 23.888 662.11C22.071 660.16 22.026 659.907 23.545 660.183C24.506 660.357 25.489 659.938 25.73 659.25C25.97 658.563 25.454 658 24.583 658C22.561 658 22.564 657.039 24.591 655.557C25.943 654.569 26.011 653.756 25.047 650.173C24.422 647.853 24.15 645.566 24.443 645.092C25.753 642.972 22.868 638 20.93 639.038C19.46 639.824 19.163 639.739 19.581 638.65C19.876 637.882 21.103 636.777 22.308 636.194C24.086 635.336 24.169 635.123 22.75 635.068C21.787 635.03 21 634.564 21 634.031C21 633.499 21.675 633.322 22.5 633.638C23.56 634.045 24.027 633.522 24.094 631.857C24.333 625.839 24.169 609.136 23.737 595.5C23.476 587.25 23.014 571.512 22.712 560.527C22.409 549.542 21.78 540.427 21.313 540.271C20.345 539.948 20.543 525.354 21.551 522.728C22.028 521.484 21.694 520.978 20.357 520.921C19.336 520.878 18.995 520.638 19.6 520.388C20.297 520.1 20.532 517.842 20.241 514.217C19.65 506.853 19.592 504.728 19.947 503.5C20.952 500.031 19.897 491.102 18.544 491.622C17.351 492.079 17.251 491.613 17.988 489.041C18.483 487.314 18.9 479.736 18.913 472.201C18.948 452.955 18.775 425.875 18.562 417C18.463 412.875 18.583 409.105 18.829 408.623C19.812 406.691 19.639 395.408 18.605 394.058C17.83 393.046 17.825 392.81 18.589 393.268C19.346 393.72 19.69 390.744 19.715 383.519C19.745 374.891 19.479 373.014 18.154 372.506C16.79 371.982 16.767 371.762 17.998 371.001C19.182 370.27 19.47 365.763 19.61 345.805C19.704 332.437 19.942 320.825 20.14 320C20.338 319.175 19.938 318.612 19.25 318.75C18.563 318.887 18 318.55 18 318C18 317.45 18.601 317 19.335 317C20.331 317 20.698 314.907 20.781 308.75C20.888 300.808 22.576 274.227 23.432 267C23.66 265.075 24.122 257.65 24.458 250.5C24.793 243.35 25.307 236.717 25.598 235.761C25.89 234.804 26.339 228.279 26.597 221.261C26.855 214.242 27.18 206.7 27.319 204.5C27.458 202.3 27.135 199.903 26.6 199.174C25.937 198.269 26.056 197.583 26.975 197.015C28.482 196.084 29.346 179.25 27.976 177.5C26.791 175.984 26.592 171.746 27.601 169.5C29.217 165.903 28.437 129.682 26.416 114.5C26.123 112.3 25.742 107.963 25.569 104.861C25.397 101.76 24.952 98.7322 24.582 98.1322C24.211 97.5322 24.399 96.1231 25 95.0001C25.601 93.8771 25.759 92.4201 25.352 91.7611C24.945 91.1021 24.744 84.4741 24.906 77.0311C25.408 53.9341 25.157 47.681 23.625 45.203C23.263 44.617 23.364 43.8931 23.849 43.5941C24.333 43.2941 24.56 41.5131 24.354 39.6361C24.072 37.0771 24.418 36.0501 25.739 35.5321C27.585 34.8081 34.431 33.809 37 33.889C43.987 34.106 56.929 33.876 63.505 33.419C67.902 33.113 76.225 32.72 82 32.545C130.277 31.082 165 29.0901 165 27.7831C165 27.2781 165.788 27.1091 166.75 27.4071C168.259 27.8741 170.914 27.9702 182.5 27.9762C204.739 27.9882 233.107 27.0532 234.357 26.2672C234.986 25.8732 241.555 25.4151 248.956 25.2511C257.216 25.0671 262.67 24.534 263.081 23.869C263.556 23.101 263.953 23.1151 264.449 23.9171C265.174 25.0911 281.884 24.7791 293 23.3841C296.025 23.0041 302.775 22.621 308 22.534C322.431 22.291 322.986 22.2071 323.116 20.2501C323.225 18.6111 323.261 18.6101 323.685 20.2281C324.104 21.8251 324.322 21.8351 326.569 20.3631Z"
        fill="#025354" />
</svg>