<svg width="1005" height="1001" viewBox="0 0 1005 1001" fill="none" xmlns="http://www.w3.org/2000/svg">
<path fill-rule="evenodd" clip-rule="evenodd" d="M358.869 0.463997C358.618 0.715997 352.582 0.985995 345.456 1.065C336.035 1.169 331.429 1.65099 328.577 2.83399C325.905 3.94099 324.536 4.10899 324.286 3.35799C323.837 2.01199 287.427 2.50699 283.739 3.90899C282.273 4.46699 280.78 4.46 279.917 3.893C279.137 3.381 276.475 3.19499 274 3.47999C269.866 3.95499 260.017 4.789 250.75 5.449C248.688 5.596 247 5.43399 247 5.08799C247 4.41799 235.474 4.613 225.527 5.453C222.212 5.733 209.613 6.244 197.53 6.589C185.446 6.935 174.646 7.55999 173.53 7.97999C172.413 8.39899 170.091 8.53199 168.368 8.27499C166.646 8.01799 164.943 8.28399 164.583 8.86599C164.177 9.52299 163.091 9.60599 161.715 9.08399C160.497 8.62299 157.7 8.40799 155.5 8.60699C153.3 8.80499 144.525 9.19499 136 9.47199C127.475 9.74899 118.25 10.146 115.5 10.355C112.75 10.564 102.175 11.071 92 11.481C81.825 11.892 72.801 12.595 71.946 13.044C71.091 13.493 69.789 13.487 69.051 13.031C67.572 12.118 45.8 12.885 45 13.879C44.203 14.868 36 14.768 36 13.769C36 13.272 35.133 13.14 34.073 13.477C32.077 14.11 21.933 15.06 13.878 15.366C3.01402 15.78 2.74001 17.146 3.10701 69C3.14001 73.675 2.84601 81.55 2.45401 86.5C1.19101 102.434 1.11802 110.352 2.21502 112.402C2.99502 113.86 2.97401 114.509 2.13701 114.788C1.50501 114.998 1.25202 115.598 1.57502 116.121C1.89802 116.644 2.29302 128.418 2.45302 142.286C2.70202 163.927 4.60603 189.267 6.48803 196C7.52403 199.701 7.06602 213.555 5.53002 225C4.47302 232.877 3.72202 246.745 3.49802 262.5C3.30202 276.25 2.88002 291.947 2.55902 297.383C2.17902 303.835 2.35203 307.719 3.05703 308.569C3.83603 309.508 3.80801 310.491 2.95401 312.086C2.25101 313.399 2.00902 316.051 2.36002 318.606C2.68602 320.991 2.51802 323.18 1.98302 323.51C0.738021 324.28 0.992026 372.058 2.25103 373.706C2.75803 374.37 2.82702 375.471 2.40502 376.153C1.98302 376.836 1.51202 379.86 1.35802 382.875C1.20402 385.889 0.85502 388.936 0.58202 389.646C0.31002 390.355 0.533022 391.212 1.07802 391.548C2.23702 392.264 1.88403 400.998 0.697025 400.999C-0.151975 401 0.612019 497.563 1.47202 498.954C1.74802 499.401 2.23202 508.031 2.54802 518.133C2.86402 528.235 3.29903 538.525 3.51403 541C3.73003 543.475 3.84701 547.075 3.77501 549C3.20801 564.162 4.79702 578.208 7.32102 580.343C8.96902 581.737 9.07601 582.05 7.76001 581.628C5.62001 580.942 4.43602 584.678 5.50402 588.75C5.90102 590.263 6.37401 598.475 6.55501 607C6.73601 615.525 6.94602 623.625 7.02202 625C7.09802 626.375 6.84702 628.512 6.46402 629.75C6.08002 630.987 6.15701 632 6.63301 631.999C7.11001 631.999 7.44102 635.824 7.36902 640.499C7.29002 645.606 7.63902 649 8.24202 649C8.90302 649 8.90902 649.425 8.25902 650.25C6.95502 651.903 7.37803 656.293 8.88903 656.796C9.63303 657.044 9.74502 657.629 9.18602 658.347C7.46002 660.564 7.23303 663.888 8.66703 665.935C9.58303 667.243 9.70702 668 9.00502 668C8.31602 668 7.92002 670.172 7.95902 673.75C7.99302 676.913 8.04202 681.941 8.06902 684.925C8.09502 687.909 8.14402 690.609 8.17702 690.925C8.21002 691.241 8.15401 691.725 8.05301 692C7.64301 693.115 8.51403 793.648 8.94503 795C9.03303 795.275 9.09402 807.875 9.08002 823C9.06602 838.125 9.47801 855.225 9.99501 861C10.512 866.775 11.018 874.784 11.12 878.798C11.264 884.454 11.609 885.98 12.653 885.58C13.394 885.295 14 885.451 14 885.924C14 886.398 13.375 887.026 12.611 887.319C11.144 887.882 11.027 909.358 12.466 913.893C12.861 915.137 12.698 916 12.067 916C10.695 916 10.724 924.13 12.117 930C13.884 937.438 14.981 979.604 13.472 982.046C8.19302 990.587 62.539 1000.2 75.845 993.083C77.161 992.379 78.094 992.342 78.488 992.98C79.017 993.837 157.906 993.618 188 992.677C192.675 992.53 197.319 992.801 198.321 993.279C199.365 993.776 201.284 993.756 202.821 993.232C204.294 992.729 206.69 992.645 208.144 993.044C209.598 993.444 212.635 993.432 214.894 993.019C217.152 992.606 219 992.641 219 993.095C219 993.55 222.191 993.824 226.091 993.703C229.991 993.583 233.392 993.825 233.65 994.242C234.351 995.378 241.842 995.155 244.13 993.931C245.435 993.232 246.539 993.199 247.314 993.835C247.966 994.371 253.44 995.131 259.478 995.523C265.516 995.916 274.066 996.566 278.478 996.967C283.324 997.407 286.995 997.312 287.75 996.726C288.576 996.084 289 996.118 289 996.825C289 997.469 291.376 997.884 294.965 997.867C298.246 997.851 301.384 998.119 301.938 998.462C303.98 999.724 347.836 1000.8 362.5 999.945C380.633 998.891 553.539 998.407 613.5 999.243C638.219 999.588 658.838 999.451 662 998.921C665.025 998.415 671.325 997.751 676 997.446C680.675 997.141 685.175 996.703 686 996.474C689.493 995.501 722.808 994.721 753.051 994.905C773.11 995.026 786.623 994.713 788.265 994.089C790.063 993.406 791.133 993.406 791.555 994.089C791.956 994.738 796.912 994.895 805.34 994.527C812.578 994.211 824.35 993.768 831.5 993.542C848.538 993.005 848.043 993.047 850.099 991.947C851.214 991.35 852.097 991.347 852.463 991.939C852.793 992.474 856.183 992.652 860.273 992.348C864.248 992.053 869.117 991.742 871.094 991.656C873.07 991.57 875.467 990.854 876.42 990.064C877.872 988.861 878.288 988.849 878.994 989.99C879.617 990.999 883.156 991.423 892.668 991.627C919.555 992.204 943.941 992.25 955.5 991.747C962.1 991.459 970.134 991.54 973.353 991.926C977.831 992.463 979.327 992.313 979.721 991.285C980.125 990.231 980.499 990.3 981.453 991.605C982.537 993.087 983.423 993.138 989.585 992.071C993.388 991.413 998.466 990.628 1000.87 990.327C1005.89 989.698 1006 986.763 1001.85 964.5C1000.73 958.45 999.659 949.675 999.481 945C999.191 937.408 997.156 921.734 995.586 915C994.04 908.373 993.302 846.418 994.489 823C995.648 800.149 995.666 793.527 994.575 791.719C993.778 790.399 993.83 789.733 994.778 789.143C996.105 788.317 996.235 680.124 994.911 679C994.587 678.725 994.632 671.558 995.01 663.074C995.539 651.22 995.395 647.063 994.39 645.126C993.474 643.36 993.394 642.23 994.122 641.353C994.694 640.663 995.094 637.49 995.01 634.3C994.926 631.11 994.777 624.113 994.679 618.75C994.58 613.388 994.107 609 993.628 609C993.148 609 993.279 608.369 993.919 607.597C994.813 606.52 994.784 606.074 993.792 605.673C992.901 605.314 992.832 604.896 993.57 604.326C995.383 602.926 995.416 552.868 993.61 544.204C992.644 539.572 992.419 536.026 992.969 534.108C993.436 532.481 993.61 530.944 993.357 530.691C993.105 530.438 992.694 518.816 992.445 504.865C992.197 490.914 991.823 476.8 991.616 473.5C991.408 470.2 991.185 466.214 991.119 464.643C991.031 462.54 990.604 461.938 989.5 462.362C987.417 463.161 987.627 462.138 989.951 460.16C991.755 458.626 991.796 458.201 990.498 454.545C989.551 451.876 989.419 450.2 990.093 449.388C991.289 447.947 991.722 439.978 990.695 438.315C990.295 437.668 990.432 436.851 991 436.5C991.568 436.149 991.786 435.463 991.485 434.975C991.183 434.488 990.997 424.956 991.071 413.794C991.348 372.002 990.887 352.244 989.585 350.138C989.245 349.588 989.335 348.911 989.784 348.633C991.016 347.872 991.161 340.956 990.028 337.054C989.287 334.503 989.363 333.074 990.32 331.554C991.913 329.024 991.558 311.963 989.892 310.933C989.093 310.44 989.106 310.052 989.938 309.538C991.21 308.752 991.012 299.001 989.724 299C989.298 299 989.577 297.763 990.345 296.25C991.697 293.587 991.756 289.589 990.607 278.5C990.322 275.75 990.069 272.657 990.044 271.628C990.008 270.078 989.742 269.97 988.5 271C987.675 271.685 987.007 271.852 987.015 271.372C987.04 269.969 988.378 268.399 990.084 267.772C991.975 267.077 992.688 249.155 990.953 245.913C990.27 244.636 990.265 244 990.939 244C991.596 244 991.792 237.983 991.501 226.75C991.255 217.262 990.9 199.6 990.713 187.5C990.526 175.4 990.059 164.375 989.676 163C989.293 161.625 988.908 153.188 988.821 144.25C988.735 135.313 988.337 128 987.938 128C987.539 128 987.188 126.087 987.158 123.75C987.014 112.684 986.699 108.932 985.868 108.419C985.373 108.112 985.285 107.348 985.673 106.72C986.691 105.072 986.013 86.563 984.919 86.167C983.403 85.617 983.883 83 985.5 83C986.325 83 987.044 82.212 987.098 81.25C987.691 70.711 987.5 64.913 986.459 61.928C985.699 59.748 985.378 55.269 985.634 50.428C986.232 39.133 986.039 34.549 984.95 34.167C984.427 33.983 984 33.394 984 32.858C984 32.321 984.408 32.134 984.907 32.442C985.406 32.751 985.33 31.427 984.739 29.501C984.148 27.576 983.21 26 982.655 26C982.1 26 980.455 24.574 979.001 22.832C975.709 18.889 959.932 17.747 945.558 20.412C933.712 22.608 930.85 22.826 927.512 21.783C924.792 20.934 909.193 19.031 892 17.451C888.425 17.123 884.905 16.663 884.178 16.431C883.45 16.198 881.959 16.487 880.864 17.073C879.424 17.843 878.483 17.816 877.47 16.975C876.698 16.335 875.49 16.018 874.784 16.27C874.078 16.523 872.727 16.332 871.781 15.846C870.836 15.361 864.986 14.758 858.781 14.507C852.577 14.256 845.925 13.81 844 13.515C835.056 12.149 832.299 12.08 829.658 13.159C827.424 14.071 826.645 14.043 826.018 13.03C825.532 12.242 824.011 11.918 822.111 12.197C820.4 12.448 819 12.353 819 11.985C819 11.618 816.75 11.238 814 11.14C810.818 11.028 809 11.378 809 12.104C809 12.957 808.652 12.956 807.622 12.101C806.657 11.3 805.459 11.255 803.631 11.95C800.865 13.002 793.22 12.363 791.447 10.932C790.845 10.446 789.222 10.691 787.652 11.505C785.316 12.718 784.831 12.722 784.375 11.536C783.805 10.048 783.133 9.99799 760 9.68699C739.758 9.41399 733.453 10.131 734.399 12.597C734.681 13.333 734.482 14.202 733.956 14.527C733.43 14.852 733 14.656 733 14.09C733 13.525 732.383 13.3 731.629 13.589C730.875 13.878 729.97 13.363 729.617 12.445C729.097 11.089 728.696 11.007 727.488 12.01C726.374 12.935 726 12.948 726 12.063C726 11.414 725.53 11.172 724.956 11.527C724.382 11.882 723.257 11.628 722.456 10.964C721.287 9.993 721 10.063 721 11.319C721 12.178 720.52 13.179 719.933 13.541C719.303 13.931 718.996 13.498 719.183 12.483C719.667 9.863 704.396 9.24399 699.271 11.676C697.234 12.643 695.492 12.977 695.312 12.436C695.122 11.866 690.375 11.596 683.745 11.776C663.914 12.317 633.212 11.787 631.452 10.874C630.928 10.603 624.313 10.407 616.752 10.44C609.19 10.473 602.89 10.166 602.752 9.757C602.613 9.349 596.084 8.85699 588.241 8.66499C580.399 8.47299 573.681 8.01499 573.313 7.64599C572.944 7.27799 571.143 7.258 569.311 7.602C567.447 7.951 565.412 7.757 564.693 7.16C563.986 6.574 557.804 5.83199 550.954 5.51099C544.104 5.18999 536.25 4.71999 533.5 4.46499C527.645 3.92299 500.673 2.72399 483.5 2.24299C476.9 2.05799 468.575 1.69999 465 1.44799C455.846 0.800991 359.426 -0.0920025 358.869 0.463997ZM330.873 20.068C332.386 19.258 333 19.245 333 20.024C333 20.626 333.419 20.859 333.931 20.543C334.443 20.226 335.148 20.43 335.498 20.996C335.925 21.687 345.71 21.812 365.317 21.377C381.368 21.021 395.175 20.758 396 20.792C417.577 21.689 454 21.802 454 20.972C454 20.308 454.635 20.252 455.75 20.817C456.712 21.305 459.298 21.608 461.495 21.492C463.693 21.376 466.843 21.669 468.495 22.144C470.148 22.619 480.275 23.283 491 23.62C501.725 23.956 512.525 24.372 515 24.545C524.524 25.208 537.974 25.36 538.523 24.81C538.84 24.494 540.872 24.633 543.04 25.12C545.208 25.607 547.324 25.951 547.741 25.885C548.158 25.818 548.725 25.874 549 26.011C550.047 26.529 554.858 26.968 565 27.47C570.775 27.757 575.5 28.047 575.5 28.114C575.5 28.182 578.698 28.343 582.608 28.472C586.517 28.6 590.233 29.026 590.866 29.417C591.5 29.809 592.801 29.908 593.759 29.637C594.717 29.367 599.921 29.457 605.324 29.836C612.533 30.343 615.416 30.203 616.156 29.312C617.367 27.853 623.881 28.19 624.853 29.762C625.251 30.407 630.156 31.12 636.52 31.458C642.559 31.778 649.975 32.252 653 32.51C656.025 32.767 667.5 33.225 678.5 33.527C689.5 33.829 699.625 34.281 701 34.532C702.375 34.783 713.175 35.256 725 35.582C736.825 35.909 749.2 36.361 752.5 36.587C755.8 36.813 767.95 37.256 779.5 37.572C820.448 38.692 825.656 38.944 850.5 41.012C872.936 42.879 941.594 43.987 943.968 42.52C944.46 42.216 945.145 42.426 945.492 42.986C945.887 43.626 946.754 43.667 947.821 43.096C948.756 42.595 950.757 42.422 952.266 42.711C953.776 42.999 955.586 42.758 956.289 42.175C957.016 41.572 958.147 41.473 958.911 41.945C959.65 42.402 961.99 42.543 964.112 42.258C968.481 41.672 970.322 44.171 969.071 48.991C968.338 51.816 968.785 56 969.82 55.999C970.194 55.999 970.44 57.911 970.367 60.249C970.294 62.587 970.606 64.965 971.06 65.534C971.515 66.103 971.473 68.353 970.967 70.534C969.568 76.57 969.752 88.748 971.25 89.26C972.228 89.595 972.247 90.374 971.337 92.844C970.453 95.243 970.453 96.007 971.337 96.03C971.977 96.047 971.76 96.493 970.856 97.021C969.512 97.805 969.261 99.402 969.486 105.741C969.795 114.479 970.781 119.254 972.107 118.434C972.598 118.13 973 118.332 973 118.882C973 119.432 972.55 120.16 972 120.5C970.689 121.31 970.703 129.698 972.016 130.51C972.575 130.856 972.705 131.668 972.304 132.316C971.321 133.907 971.249 152 972.226 152C972.652 152 972.904 152.337 972.788 152.75C972.671 153.163 973.12 154.481 973.786 155.681C974.777 157.466 974.711 158.146 973.426 159.431C971.705 161.152 972.335 171.898 974.227 173.116C974.807 173.489 974.659 174.574 973.852 175.866C972.778 177.586 972.761 178.388 973.768 180C974.455 181.1 974.602 182 974.096 182C973.547 182 973.332 193.415 973.564 210.25C974.035 244.453 974.128 254.5 973.971 254.5C973.375 254.5 973.697 279.313 974.299 279.685C974.738 279.956 974.53 280.862 973.836 281.697C972.809 282.935 972.862 283.428 974.126 284.358C975.606 285.449 975.597 288.487 974.116 287.572C973.179 286.993 973.322 295.158 974.276 296.665C974.681 297.305 974.447 298.018 973.756 298.249C972.582 298.641 972.474 305.21 973.084 339.252C973.111 340.765 972.848 342.903 972.499 344.002C972.122 345.192 972.321 346 972.992 346C973.611 346 973.84 346.45 973.5 347C973.16 347.55 973.414 348 974.063 348C974.948 348 974.934 348.375 974.009 349.489C973.235 350.422 973.014 352.26 973.417 354.411C973.772 356.299 973.682 358.079 973.218 358.365C972.5 358.809 972.41 390.056 972.982 440C973.061 446.875 973.022 454.251 972.895 456.391C972.744 458.948 973.191 460.667 974.199 461.404C975.537 462.382 975.548 462.699 974.285 463.879C973.095 464.991 972.948 467.665 973.461 478.866C974.437 500.141 975.015 519.211 974.785 522.5C974.42 527.718 974.544 538.856 975.209 560.5C975.564 572.05 975.887 584.73 975.927 588.679C975.977 593.627 976.463 596.32 977.491 597.348C978.489 598.346 978.61 598.963 977.855 599.215C976.33 599.723 976.687 618.188 978.241 619.149C979.078 619.666 979.07 620.211 978.209 621.248C976.635 623.145 976.788 659.897 978.378 661.942C979.263 663.079 979.204 663.205 978.098 662.539C976.94 661.841 976.823 662.461 977.425 666.097C977.827 668.519 978.131 671.175 978.102 672C977.507 688.893 977.782 697.427 978.934 697.811C979.901 698.134 979.929 698.426 979.047 698.971C977.586 699.874 977.485 707.948 978.163 769.588C978.448 795.486 978.985 817.167 979.357 817.769C979.729 818.37 979.61 819.123 979.094 819.442C978.544 819.782 978.363 825.695 978.658 833.761C978.934 841.317 979.112 848.175 979.055 849C978.571 855.972 979.67 932.213 980.572 954.226C981.298 971.951 981.298 971.951 936.399 971.838C911.705 971.775 888.35 972.013 884.5 972.367C880.65 972.721 869.85 973.074 860.5 973.153C851.15 973.231 843.135 973.497 842.689 973.744C841.265 974.533 814.542 975.048 779.344 974.967C756.304 974.913 744.974 975.232 744.533 975.947C744.073 976.691 743.289 976.69 741.89 975.941C738.954 974.37 675.215 976.76 659.5 979.031C655.1 979.666 643.625 980.14 634 980.084C623.311 980.021 612.821 980.54 607.047 981.417C600.301 982.442 597.034 982.553 595.64 981.807C593.512 980.668 557.227 980.349 553 981.432C551.625 981.785 546.45 982.042 541.5 982.005C526.66 981.892 485.407 980.999 471.5 980.488C464.35 980.226 450.079 979.876 439.788 979.71C429.496 979.544 420.811 979.144 420.488 978.821C420.164 978.498 418.37 978.578 416.5 979C414.63 979.422 412.853 979.519 412.55 979.217C412.248 978.914 412 979.17 412 979.786C412 980.422 410.812 980.76 409.25 980.568C407.737 980.383 403.575 979.877 400 979.444C396.425 979.01 386.525 978.548 378 978.417C369.475 978.285 350.8 977.73 336.5 977.183C319.007 976.514 309.125 976.52 306.297 977.201C303.396 977.9 295.342 977.838 280.297 977.002C249.888 975.312 244.009 975.177 243.405 976.153C243.116 976.622 242.014 976.543 240.958 975.978C239.902 975.412 235.317 974.958 230.769 974.968C226.221 974.977 221.6 974.969 220.5 974.948C219.4 974.928 217.515 975.158 216.311 975.459C215.107 975.761 213.913 975.668 213.657 975.254C213.216 974.54 164.178 974.509 161 975.22C160.175 975.405 158.938 975.908 158.25 976.337C157.562 976.767 157 976.697 157 976.183C157 975.644 153.083 975.403 147.75 975.614C142.663 975.816 130.625 976.182 121 976.427C104.645 976.845 86.078 977.728 78 978.474C59.452 980.186 34.692 978.823 30.938 975.883C29.58 974.82 29.249 974.238 30.189 974.57C33.291 975.666 34.159 944.303 31.128 940.653C30.236 939.579 30.148 939 30.878 939C31.495 939 32 938.298 32 937.441C32 936.584 31.646 936.101 31.213 936.369C30.78 936.636 30.51 934.75 30.614 932.178C30.717 929.605 30.53 927.056 30.197 926.514C29.863 925.972 29.723 923.996 29.884 922.123C30.122 919.358 29.879 918.833 28.589 919.328C27.715 919.663 27 919.501 27 918.969C27 918.436 27.787 917.993 28.75 917.985C30.246 917.972 30.282 917.828 29 917C28.175 916.467 27.99 916.024 28.589 916.015C29.188 916.007 29.662 914.537 29.642 912.75C29.622 910.963 29.922 908.575 30.308 907.445C30.793 906.028 30.356 904.686 28.905 903.128C26.843 900.915 27.006 899.523 29.333 899.477C30.857 899.447 30.356 891.137 28.71 889.141C27.76 887.991 27.769 887.584 28.75 887.254C30.461 886.678 30.319 883.901 28.443 881.223C27.015 879.183 27.237 878.557 29.273 878.889C29.964 879.002 29.766 870.417 28.411 841.5C28.179 836.55 28.021 832.05 28.06 831.5C28.099 830.95 28.366 827.176 28.653 823.113C29.044 817.582 28.839 815.513 27.837 814.878C26.736 814.18 26.747 814.028 27.895 814.015C29.05 814.003 29.158 812.07 28.523 802.75C28.101 796.563 27.613 785.434 27.438 778.02C27.234 769.353 26.728 764.409 26.019 764.173C25.24 763.913 25.269 763.381 26.119 762.357C27.599 760.573 27.463 754.263 25.904 752.384C25.035 751.337 25.045 751 25.945 751C26.68 751 26.892 750.235 26.5 749C26.151 747.9 26.233 747 26.683 747C28.173 746.999 28.31 729.814 26.827 728.857C25.731 728.149 25.729 727.852 26.816 727.15C27.847 726.484 27.981 723.831 27.432 714.9C27.048 708.63 26.629 699.675 26.503 695C26.376 690.325 26.13 684.594 25.955 682.265C25.78 679.936 25.943 677.723 26.318 677.348C27.434 676.233 27.094 668 25.933 668C25.344 668 25.132 667.159 25.461 666.124C25.875 664.819 25.485 664.098 24.18 663.757C23.147 663.487 22.052 662.306 21.745 661.132C21.413 659.864 21.586 659.244 22.17 659.605C22.711 659.939 24.017 659.286 25.072 658.153C26.881 656.212 26.891 656.035 25.245 655.065C23.854 654.245 23.769 653.859 24.825 653.163C25.837 652.496 25.984 650.545 25.447 644.895C24.667 636.688 23.555 634.294 21.367 636.11C20.412 636.903 20 636.917 20 636.158C20 634.81 23.506 632.839 24.369 633.702C24.716 634.049 25 633.808 25 633.167C25 632.525 24.352 632 23.559 632C22.766 632 21.793 631.474 21.395 630.83C20.918 630.059 21.204 629.864 22.233 630.259C24.558 631.151 25.301 624.156 24.836 605.75C24.798 604.237 24.365 603 23.875 603C23.384 603 23.504 602.166 24.14 601.147C24.996 599.777 25.011 598.472 24.201 596.147C23.473 594.057 23.447 593 24.124 593C24.784 593 24.914 590.44 24.491 585.75C23.65 576.419 23.343 568.931 23.058 550.745C22.93 542.629 22.445 536.225 21.979 536.513C21.514 536.801 21.324 532.753 21.558 527.518C21.792 522.283 21.649 518 21.24 518C20.831 518 20.55 515.413 20.616 512.25C20.682 509.087 20.259 505.901 19.678 505.169C18.948 504.25 18.94 503.32 19.651 502.169C20.976 500.022 20.148 487.791 18.736 488.663C18.07 489.075 17.95 488.281 18.395 486.399C18.772 484.804 19.073 481.925 19.063 480C19.022 471.757 19.147 448.134 19.254 444C19.53 433.296 18.961 424.906 18 425.5C17.45 425.84 17 425.641 17 425.059C17 424.477 17.429 424 17.953 424C18.502 424 18.799 420.371 18.655 415.434C18.517 410.723 18.717 406.675 19.1 406.438C20.101 405.82 19.848 371.024 18.838 370.4C18.374 370.113 18.401 369.118 18.897 368.189C19.394 367.26 19.806 358.4 19.814 348.5C19.821 338.6 19.979 327.232 20.164 323.238C20.43 317.499 20.22 316.084 19.166 316.489C18.389 316.788 18.024 316.479 18.291 315.751C18.544 315.063 19.232 314.604 19.82 314.732C20.489 314.877 20.833 312.999 20.737 309.732C20.558 303.653 21.553 287.217 23.052 271.5C24.85 252.647 26.678 224.706 26.422 220C26.288 217.525 26.638 214.943 27.201 214.263C27.763 213.582 27.877 212.232 27.453 211.263C27.029 210.293 26.818 209.05 26.984 208.5C27.826 205.7 27.793 198.455 26.932 197.418C26.255 196.602 26.444 196.044 27.539 195.624C28.901 195.101 29.083 193.169 28.814 182.104C28.641 175.004 28.197 169.381 27.828 169.608C27.458 169.836 27.612 168.368 28.17 166.347C28.728 164.326 28.933 161.414 28.625 159.875C28.317 158.336 28.481 156.821 28.989 156.507C29.497 156.193 29.707 155.388 29.456 154.718C29.205 154.048 28.802 147.65 28.561 140.5C28.319 133.35 27.882 125.25 27.588 122.5C27.295 119.75 26.736 114.575 26.346 111C25.956 107.425 25.714 102.949 25.81 101.054C25.905 99.158 25.495 97.306 24.899 96.938C24.136 96.466 24.186 95.675 25.066 94.266C25.802 93.088 25.997 91.491 25.541 90.382C25.114 89.347 24.879 82.875 25.017 76C25.475 53.156 25.208 46.112 23.815 44.339C23.259 43.632 23.284 42.943 23.877 42.576C24.413 42.245 24.679 40.611 24.468 38.946C23.831 33.912 24.278 33.854 69.75 33.115C71.538 33.086 73 32.572 73 31.972C73 31.373 73.54 31.216 74.2 31.624C75.552 32.459 81.993 32.447 103 31.569C110.975 31.235 123.125 30.746 130 30.481C147.047 29.826 165.736 28.626 167 28.107C167.275 27.994 182.778 27.664 201.45 27.373C228.843 26.946 235.959 26.556 238.29 25.35C239.88 24.528 241.927 24.154 242.84 24.519C245.324 25.513 265.246 25.041 266.552 23.957C267.174 23.44 268.001 23.335 268.39 23.723C269.241 24.574 292.63 24.252 295.473 23.35C296.578 22.999 303.336 22.559 310.491 22.372C317.646 22.184 324.288 21.996 325.25 21.953C326.212 21.911 327.007 21.116 327.015 20.188C327.027 18.863 327.215 18.791 327.888 19.853C328.557 20.909 329.214 20.956 330.873 20.068Z" fill="currentColor"/>
</svg>
