<svg  preserveAspectRatio="none"  width="2469" height="3497" viewBox="0 0 2469 3497" fill="none" xmlns="http://www.w3.org/2000/svg">
<path fill-rule="evenodd" clip-rule="evenodd" d="M2129.41 0.0660759C2129.22 0.249076 2127.46 0.608076 2125.51 0.865076C2121.05 1.45308 2114.98 4.33208 2106.17 10.0361C2102.38 12.4891 2094.51 16.3931 2088.67 18.7111C2082.83 21.0291 2077.61 23.2541 2077.06 23.6561C2076.51 24.0571 2071.11 26.9281 2065.06 30.0361C2046.73 39.4481 2041.93 49.4031 2049.51 62.2511C2050.62 64.1391 2051.05 65.8021 2050.51 66.1381C2049.98 66.4611 2049.56 68.6141 2049.56 70.9241C2049.56 75.1221 2049.56 75.1221 1414.81 74.8841C912.435 74.6961 466.915 74.6901 450.058 74.8711C448.958 74.8831 427.583 74.8041 402.558 74.6961C377.533 74.5881 336.808 74.5421 312.058 74.5931C262.637 74.6951 263.323 74.8151 261.059 65.7391C259.764 60.5481 253.938 54.2751 246.363 49.9141C235.882 43.8791 230.914 39.0011 231.36 35.1811C231.919 30.3861 230.161 28.4021 225.696 28.7871C222.476 29.0641 222.11 28.8171 221.341 25.8481C220.391 22.1841 216.712 21.4191 213.117 24.1391C212.049 24.9461 209.219 25.6071 206.827 25.6071C199.608 25.6071 188.11 32.5601 179.191 42.3181C176.47 45.2961 171.052 50.1421 167.151 53.0881C163.25 56.0331 156.063 62.1931 151.179 66.7751C141.083 76.2491 140.96 76.2981 126.058 76.5761C120.008 76.6891 111.008 77.1471 106.058 77.5951C91.5148 78.9101 80.6448 79.6241 71.3638 79.8731C59.0958 80.2031 52.3088 86.9231 56.8388 94.2531C57.2038 94.8431 57.2158 109.427 56.8658 126.66C56.1738 160.707 57.2378 157.277 42.0888 174.263C34.6398 182.615 29.1688 187.221 23.0868 190.26C14.8078 194.398 11.8728 196.898 11.0848 200.485C10.7668 201.93 8.26882 206.004 5.53282 209.54C2.79682 213.075 0.526817 216.449 0.488817 217.037C0.450817 217.626 0.245817 219.447 0.032817 221.085C-0.326183 223.844 2.31882 230.902 5.09982 234.607C5.71882 235.432 7.70982 239.932 9.52482 244.607C11.3388 249.282 13.2038 253.591 13.6688 254.183C15.6148 256.661 24.1748 273.742 27.4918 281.769C29.4788 286.578 32.7008 292.245 34.7348 294.511C36.7488 296.755 38.9528 300.274 39.6318 302.33C41.2818 307.33 45.4468 311.308 49.9078 312.145C53.4798 312.815 54.7268 326.194 53.8658 354.607C53.8248 355.982 53.4838 444.407 53.1088 551.107C52.7338 657.807 52.2098 777.732 51.9448 817.607C51.0778 948.067 50.6348 1946.99 51.4418 1951.81C51.8738 1954.4 51.8958 1956.32 51.4908 1956.07C51.0848 1955.82 50.8218 1989.15 50.9058 2030.15C51.0298 2091.07 51.3018 2104.83 52.3918 2105.5C53.4868 2106.18 53.4688 2106.43 52.2958 2106.88C50.9848 2107.38 50.7318 2166.55 51.5608 2278.61C51.5868 2282.18 51.5398 2311.43 51.4568 2343.61C51.3728 2375.78 51.3518 2411.56 51.4108 2423.11C51.5788 2456.26 51.6638 2574.76 51.5468 2611.61C51.4358 2646.47 51.3858 2716.16 51.4518 2742.11C51.4738 2750.36 51.3588 2778.37 51.1978 2804.36C50.9918 2837.6 51.2238 2851.61 51.9808 2851.62C52.7398 2851.63 52.7428 2851.86 51.9928 2852.37C50.4298 2853.45 50.1098 3070.36 51.6688 3072.24C52.3468 3073.06 52.4018 3073.61 51.8048 3073.61C50.4188 3073.61 50.5318 3084.94 51.9268 3085.84C52.7558 3086.38 52.7448 3086.58 51.8838 3086.59C51.0158 3086.6 50.7328 3093.09 50.7948 3111.57C50.8798 3136.53 50.8798 3136.53 48.1988 3140.32C41.5068 3149.77 34.6278 3160.57 32.0828 3165.61C22.3328 3184.91 21.2638 3186.71 17.0578 3190.98C14.8578 3193.22 13.1998 3195.49 13.3728 3196.02C13.5458 3196.56 13.2688 3197.92 12.7558 3199.05C8.28382 3208.92 9.09582 3219.61 14.3188 3219.61C14.9258 3219.61 15.7238 3220.62 16.0908 3221.86C16.9408 3224.72 20.4518 3230.05 28.0378 3240C31.3488 3244.34 35.8578 3250.27 38.0578 3253.18C40.2578 3256.09 44.6138 3261.56 47.7378 3265.32C53.4178 3272.16 53.4178 3272.16 54.0168 3298.13C54.8268 3333.25 56.5138 3363.34 58.5868 3379.64C59.3228 3385.43 59.3478 3389.03 58.6648 3390.83C58.0618 3392.41 57.9998 3394.66 58.5098 3396.44C59.0328 3398.26 58.9748 3399.79 58.3588 3400.41C57.6908 3401.07 58.0558 3402.11 59.4578 3403.51C60.6128 3404.66 61.5578 3406.05 61.5578 3406.59C61.5578 3411.28 84.1608 3413.32 145.558 3414.15C203.194 3414.93 199.521 3414.62 204.915 3419.04C208.767 3422.2 224.659 3439.36 234.125 3450.59C237.981 3455.16 251.248 3468.49 255.068 3471.63C264.759 3479.6 268.792 3483.02 271.706 3485.75C286.355 3499.43 300.144 3500.22 307.572 3487.81C308.657 3486 311.235 3483.73 313.301 3482.77C315.368 3481.81 318.528 3480.1 320.325 3478.97C322.122 3477.84 329.772 3473.8 337.325 3470.01C344.878 3466.21 351.208 3462.77 351.391 3462.36C351.575 3461.94 352.555 3461.61 353.57 3461.61C354.585 3461.61 356.01 3461.05 356.737 3460.36C357.463 3459.67 360.128 3458.13 362.659 3456.94C368.506 3454.19 378.175 3445.26 385.138 3436.17C403.447 3412.29 353.746 3415.05 774.343 3414.52C869.65 3414.4 947.865 3413.92 948.154 3413.45C948.443 3412.98 949.44 3412.99 950.369 3413.46C952.27 3414.42 1012.8 3414.2 1014.37 3413.22C1014.93 3412.88 1015.61 3413.16 1015.89 3413.85C1016.2 3414.61 1016.43 3414.67 1016.48 3413.99C1016.53 3413.26 1017.84 3413.1 1020.31 3413.53C1022.37 3413.89 1051.73 3414.08 1085.56 3413.95C1119.38 3413.82 1147.73 3413.72 1148.56 3413.72C1184.4 3413.85 1323.37 3414.02 1326.56 3413.95C1332.21 3413.81 1799.81 3414.52 1812.06 3414.69C1817.01 3414.75 1859.08 3414.76 1905.56 3414.71C2035.86 3414.56 2110.91 3414.5 2112.56 3414.53C2113.38 3414.55 2122.5 3414.67 2132.81 3414.79C2150.01 3415.01 2155.54 3415.93 2150.68 3417.77C2142.06 3421.05 2139.53 3443.55 2147.92 3442.4C2149.54 3442.18 2150.01 3442.59 2149.86 3444.11C2148.92 3453.64 2159.04 3460.71 2168.31 3457.01C2171.46 3455.75 2171.56 3455.78 2171.56 3458.26C2171.56 3466.03 2179.15 3472.35 2187.16 3471.25C2191.24 3470.69 2191.44 3470.79 2192.06 3473.64C2192.42 3475.27 2193.13 3476.61 2193.64 3476.61C2194.14 3476.61 2194.56 3477.12 2194.56 3477.74C2194.56 3480.86 2203.69 3484.88 2206.65 3483.05C2207.43 3482.57 2207.61 3482.72 2207.15 3483.45C2206.76 3484.09 2206.63 3484.61 2206.87 3484.61C2207.86 3484.61 2216.2 3480.5 2217.94 3479.15C2219.59 3477.87 2220.17 3477.87 2222.64 3479.15C2229.59 3482.74 2232.94 3481.21 2242.6 3470.05C2244 3468.43 2248.18 3463.6 2251.89 3459.32C2255.67 3454.95 2258.33 3451.04 2257.94 3450.42C2257.52 3449.74 2257.7 3449.58 2258.4 3450.01C2259.04 3450.41 2259.61 3450.14 2259.67 3449.42C2259.74 3448.7 2259.85 3447.64 2259.92 3447.07C2261.76 3433 2294.41 3413.85 2317.66 3413.22C2353.72 3412.23 2380.29 3410.92 2396.56 3409.32C2404.27 3408.56 2410.21 3403 2409.88 3396.86C2409.7 3393.65 2409.4 3392.93 2407.14 3390.3C2405.2 3388.05 2404.89 3386.94 2405.54 3384.67C2405.99 3383.11 2406.67 3378.07 2407.06 3373.47C2407.45 3368.87 2407.9 3364.88 2408.06 3364.61C2408.21 3364.33 2408.62 3359.83 2408.97 3354.61C2409.56 3345.78 2409.97 3337.44 2411.13 3310.61C2412.66 3275.49 2412.34 3276.93 2420.05 3270.2C2434.76 3257.35 2447.46 3243.99 2449.51 3239.22C2450.61 3236.64 2454.62 3230.17 2458.41 3224.82C2466.62 3213.24 2467.37 3211.88 2468.14 3207.03C2468.7 3203.48 2468.25 3201.83 2464.94 3195.45C2464.18 3193.99 2463.56 3192.05 2463.56 3191.13C2463.56 3190.21 2462.24 3188.14 2460.63 3186.53C2459.03 3184.92 2458.01 3183.6 2458.38 3183.59C2458.75 3183.57 2457.93 3182.68 2456.56 3181.59C2454.72 3180.14 2454.39 3179.41 2455.31 3178.81C2456.81 3177.83 2452.38 3168.14 2450.01 3167.23C2449.2 3166.92 2448.56 3165.39 2448.56 3163.79C2448.56 3157.7 2446.17 3153.42 2440.56 3149.44C2439.53 3148.71 2438.48 3146.76 2438.23 3145.11C2437.48 3140.14 2435.42 3136.73 2431.92 3134.66C2428.6 3132.7 2428.6 3132.7 2431.08 3127.76C2434.52 3120.91 2433.01 3108.48 2429.21 3112.29C2428.85 3112.65 2428.56 3112.2 2428.56 3111.29C2428.56 3109.03 2424.58 3108.23 2419.12 3109.39C2414.56 3110.36 2414.56 3110.36 2415.16 2978.74C2416.59 2662.85 2417.92 1851.52 2417.87 1325.61C2417.81 792.033 2417.31 698.434 2414.07 613.607C2413.8 606.732 2413.32 586.932 2412.98 569.607C2412.65 552.282 2412.37 537.882 2412.35 537.607C2411.18 517.901 2412.86 459.607 2414.59 459.607C2426.3 459.607 2460.56 425.519 2460.56 413.872C2460.56 413.161 2460.99 411.798 2461.51 410.843C2469.61 396.103 2468.32 367.204 2459.15 358.005C2452.03 350.857 2450.48 348.249 2452.81 347.324C2456.31 345.93 2458 339.752 2456.23 334.812C2454.07 328.774 2454.05 328.877 2457.42 328.137C2462.05 327.121 2464.95 318.041 2462.28 312.927C2457.76 304.248 2457.37 299.971 2460.88 297.487C2465.27 294.384 2456.98 282.57 2431.31 255.343C2429.25 253.156 2427.56 251.131 2427.56 250.844C2427.56 250.557 2426.21 248.924 2424.56 247.215C2418.03 240.438 2413.56 234.378 2413.54 232.296C2413.53 231.092 2413.52 198.43 2413.52 159.713C2413.52 85.6471 2413.11 79.2921 2408.51 82.1361C2408.11 82.3831 2407.57 81.7811 2407.32 80.7981C2406.18 76.4601 2408.09 76.5501 2289.99 75.2891C2276.18 75.1421 2272.64 74.8161 2271.49 73.5881C2269.11 71.0601 2262.35 63.3721 2257.06 57.1671C2234.17 30.3521 2211.23 10.9161 2202.06 10.5661C2195.2 10.3041 2194.63 10.5011 2190.05 14.7201C2186.77 17.7431 2185.12 18.6311 2183.82 18.0691C2182.85 17.6491 2181.54 17.1951 2180.91 17.0601C2180.28 16.9251 2178.88 15.9331 2177.81 14.8551C2172.93 9.97907 2164.55 7.10908 2155.06 7.06508C2148.09 7.03208 2145.44 6.61308 2143.32 5.21008C2141.82 4.21308 2139.45 3.33208 2138.06 3.25208C2136.4 3.15708 2135.71 2.64908 2136.05 1.77308C2136.34 1.00208 2136.03 0.625076 2135.31 0.880076C2134.62 1.12208 2133.09 0.963076 2131.91 0.527076C2130.73 0.0910759 2129.6 -0.115924 2129.41 0.0660759ZM101.558 102.149C102.933 102.309 105.662 102.478 107.623 102.524C111.188 102.607 111.188 102.607 95.6228 118.519C87.0618 127.271 79.9748 134.35 79.8728 134.25C79.7708 134.151 79.4958 126.502 79.2628 117.252C78.8068 99.2081 78.4388 99.4571 101.558 102.149ZM1685.56 104.862C1873.93 104.728 2028.73 104.6 2029.56 104.579C2062.98 103.718 2070.22 104.488 2074.12 109.321C2076.25 111.953 2078.24 114.332 2078.55 114.607C2078.86 114.882 2082.55 119.157 2086.74 124.107C2090.93 129.057 2095.87 134.739 2097.71 136.733C2102.66 142.096 2110.12 150.637 2121.62 164.107C2127.25 170.707 2134.67 179.032 2138.1 182.607C2149.34 194.307 2161.15 207.548 2171.07 219.569C2173.1 222.022 2180.3 230.122 2187.07 237.569C2193.85 245.015 2202.5 254.932 2206.3 259.607C2210.11 264.282 2214.31 269.426 2215.64 271.038C2216.97 272.651 2224.87 280.976 2233.2 289.538C2241.53 298.101 2251.66 308.94 2255.7 313.625C2265.01 324.404 2269.68 329.126 2281.76 339.973C2287.1 344.765 2296.69 354.738 2303.06 362.134C2313.59 374.342 2319.47 380.056 2335.48 393.607C2340.32 397.701 2346.72 404.7 2355.23 415.196C2356.97 417.347 2360.05 421.132 2362.06 423.607C2366.13 428.597 2371.16 433.356 2379.83 440.41C2385.6 445.107 2385.6 445.107 2385.55 462.607C2385.52 472.232 2385.48 495.182 2385.46 513.607C2385.42 556.294 2384.89 595.104 2384.12 613.607C2383.78 621.582 2383.28 639.582 2382.99 653.607C2382.71 667.632 2382.21 689.907 2381.88 703.107C2381.29 726.998 2379.97 1114.64 2380.32 1163.11C2380.37 1170.26 2380.42 1208.06 2380.42 1247.11C2380.43 1286.16 2380.44 1319.91 2380.46 1322.11C2380.48 1324.31 2380.47 1327.01 2380.45 1328.11C2380.42 1329.21 2380.4 1332.81 2380.4 1336.11C2380.41 1339.41 2380.41 1422.21 2380.41 1520.11C2380.42 1618.01 2380.46 1701.26 2380.52 1705.11C2380.57 1708.96 2380.59 1737.73 2380.56 1769.04C2380.53 1814.02 2380.78 1826.13 2381.79 1826.77C2382.81 1827.42 2382.81 1827.58 2381.78 1827.59C2380.73 1827.6 2380.5 2148.97 2381.54 2159.61C2381.62 2160.43 2381.65 2175.28 2381.6 2192.61C2381.56 2209.93 2381.54 2224.33 2381.56 2224.61C2381.57 2224.88 2381.59 2311.17 2381.59 2416.36C2381.6 2537.17 2381.95 2607.61 2382.55 2607.61C2383.14 2607.61 2383.12 2608.62 2382.49 2610.27C2381.82 2612.05 2381.65 2649.94 2382 2723.52C2384.22 3193.58 2386.34 3134.86 2366.44 3153.86C2363.7 3156.47 2360.87 3158.61 2360.15 3158.61C2359.43 3158.61 2355.93 3161.65 2352.38 3165.36C2348.82 3169.07 2340.77 3177.08 2334.49 3183.16C2328.2 3189.24 2320.81 3197.24 2318.06 3200.95C2309.21 3212.88 2294.15 3231.14 2289.48 3235.61C2288.04 3236.98 2284.7 3240.58 2282.06 3243.61C2279.42 3246.63 2274.51 3252.25 2271.16 3256.09C2267.8 3259.93 2260.11 3268.43 2254.06 3274.98C2248.01 3281.54 2240.78 3289.42 2238 3292.5C2232.09 3299.06 2218.77 3315.78 2216.01 3320.11C2214.96 3321.76 2213.83 3323.33 2213.5 3323.61C2212.85 3324.14 2199.25 3339.8 2186.24 3354.98C2178.6 3363.9 2171.59 3374.21 2171.15 3377.15C2170.65 3380.6 2169.35 3380.64 2069.19 3380.62C2001.77 3380.6 1968.83 3380.93 1967.51 3381.63C1966.44 3382.21 1965.56 3382.27 1965.56 3381.78C1965.56 3381.26 1941.14 3380.81 1907.97 3380.71C1861.18 3380.56 1850.54 3380.77 1851.17 3381.82C1851.79 3382.85 1851.64 3382.86 1850.41 3381.86C1849.15 3380.85 1342.85 3380.58 1318.56 3381.59C1316.63 3381.66 1247.78 3381.66 1165.56 3381.58C1083.33 3381.49 1005.03 3381.48 991.558 3381.55C978.083 3381.62 901.358 3381.43 821.058 3381.13C740.758 3380.82 635.458 3380.61 587.058 3380.66C538.658 3380.7 498.383 3380.73 497.558 3380.72C496.733 3380.72 471.758 3380.48 442.058 3380.2C412.358 3379.93 386.437 3379.68 384.456 3379.65C381.575 3379.62 379.767 3378.62 375.43 3374.68C372.447 3371.98 365.518 3366.52 360.032 3362.55C343.354 3350.49 327.455 3337.31 319.642 3329.09C310.462 3319.42 298.822 3309.05 282.597 3296.07C270.025 3286.02 260.998 3277.31 239.058 3254.05C224.107 3238.21 217.958 3231.96 208.777 3223.26C204.801 3219.49 200.684 3215.31 199.628 3213.97C197.308 3211.02 180.157 3192.35 176.308 3188.58C174.795 3187.1 173.558 3185.49 173.558 3184.99C173.558 3184.5 171.195 3181.38 168.308 3178.07C165.421 3174.76 162.383 3171.21 161.558 3170.18C158.105 3165.86 137.092 3144.61 136.271 3144.61C135.78 3144.61 134.631 3143.78 133.718 3142.76C125.588 3133.74 99.7168 3112.92 91.6098 3108.88C88.5568 3107.35 85.9038 3106.03 85.7148 3105.93C85.5258 3105.83 85.4128 3094.13 85.4638 3079.93C85.5148 3065.73 85.5338 3005.51 85.5058 2946.11C85.4788 2886.71 85.5228 2567.43 85.6038 2236.61C85.8318 1308.14 85.5768 959.771 84.6548 942.107C84.5968 941.007 84.5528 930.882 84.5548 919.607C84.5788 822.358 82.8228 344.387 82.4328 341.837C82.3708 341.435 82.4288 340.657 82.5608 340.107C82.6928 339.557 82.7348 327.914 82.6548 314.234C82.4748 283.729 82.2708 284.108 110.112 263.119C116.192 258.535 124.742 250.861 129.112 246.064C136.101 238.393 145.049 230.636 160.558 218.803C163.033 216.915 168.883 211.455 173.558 206.67C183.186 196.816 190.727 190.307 204.858 179.652C210.249 175.588 218.799 168.134 223.858 163.088C228.918 158.041 238.226 149.231 244.543 143.51C257.958 131.36 262.058 127.315 273.558 114.883C282.058 105.695 282.058 105.695 794.058 105.437C1075.66 105.295 1307.55 104.938 1309.37 104.643C1311.2 104.348 1319.52 104.332 1327.87 104.607C1336.23 104.882 1497.18 104.997 1685.56 104.862ZM2384.57 141.857C2384.58 162.894 2384.71 184.756 2384.85 190.438C2385.19 204.03 2385.18 204.03 2372.3 188.505C2367.89 183.188 2352.54 166.568 2346.06 160.106C2344.41 158.456 2341.88 155.531 2340.44 153.606C2339.01 151.682 2336.35 148.532 2334.54 146.607C2332.73 144.682 2328.98 140.182 2326.22 136.607C2313.82 120.592 2309.85 115.755 2304.89 110.607C2299.58 105.107 2299.58 105.107 2335.32 104.588C2354.98 104.303 2374.09 103.965 2377.81 103.838C2384.56 103.607 2384.56 103.607 2384.57 141.857ZM101.453 3323.11C104.757 3326.91 130.121 3352.08 146.937 3368.23C154.02 3375.04 159.42 3380.64 158.937 3380.67C158.453 3380.71 149.283 3380.91 138.558 3381.13C113.525 3381.62 89.4818 3382.54 82.8478 3383.26C77.6368 3383.83 77.6368 3383.83 78.0628 3379.47C79.1728 3368.08 79.5448 3362.66 80.5258 3343.6C81.1048 3332.33 81.7758 3320.63 82.0158 3317.61C82.2558 3314.58 82.4758 3310.32 82.5048 3308.13C82.5588 3304.11 90.2148 3310.16 101.453 3323.11ZM2387.55 3323.61C2388.15 3333.23 2388.87 3346.73 2389.15 3353.61C2389.43 3360.48 2390.29 3370.36 2391.07 3375.57C2391.84 3380.77 2392.38 3385.07 2392.26 3385.13C2392.15 3385.18 2386.66 3384.91 2380.06 3384.51C2373.46 3384.12 2357.71 3383.48 2345.06 3383.09C2318.87 3382.29 2320.25 3382.6 2324.18 3378.34C2325.82 3376.56 2328.93 3372.86 2331.09 3370.11C2333.25 3367.36 2340.43 3359.44 2347.04 3352.52C2361.35 3337.53 2360.71 3338.29 2374.8 3319.33C2380.94 3311.07 2386.07 3304.71 2386.21 3305.21C2386.34 3305.7 2386.95 3313.98 2387.55 3323.61Z" fill="#025354"/>
</svg>
