<svg width="2469" preserveAspectRatio="none"   height="3497" viewBox="0 0 2469 3497" fill="none" xmlns="http://www.w3.org/2000/svg">
<path fill-rule="evenodd" clip-rule="evenodd" d="M2125.51 0.865076C2127.46 0.608076 2129.22 0.249076 2129.41 0.0660759C2129.6 -0.115924 2130.73 0.0910759 2131.91 0.527076C2133.09 0.963076 2134.62 1.12208 2135.31 0.880076C2136.03 0.625076 2136.34 1.00208 2136.05 1.77308C2135.71 2.64908 2136.4 3.15708 2138.06 3.25208C2139.45 3.33208 2141.82 4.21308 2143.32 5.21008C2145.44 6.61308 2148.09 7.03208 2155.06 7.06508C2164.55 7.10908 2172.93 9.97907 2177.81 14.8551C2178.88 15.9331 2180.28 16.9251 2180.91 17.0601C2181.54 17.1951 2182.85 17.6491 2183.82 18.0691C2185.12 18.6311 2186.77 17.7431 2190.05 14.7201C2194.63 10.5011 2195.2 10.3041 2202.06 10.5661C2211.23 10.9161 2234.17 30.3521 2257.06 57.1671C2262.35 63.3721 2269.11 71.0601 2271.49 73.5881C2272.64 74.8161 2276.18 75.1421 2289.99 75.2891L2295.51 75.348C2397.36 76.4344 2405.52 76.5215 2406.98 79.6937C2407.11 79.9701 2407.18 80.2698 2407.27 80.5956L2407.32 80.7981C2407.57 81.7811 2408.11 82.3831 2408.51 82.1361C2413.11 79.2921 2413.52 85.6471 2413.52 159.713C2413.52 198.43 2413.53 231.092 2413.54 232.296C2413.56 234.378 2418.03 240.438 2424.56 247.215C2426.21 248.924 2427.56 250.557 2427.56 250.844C2427.56 251.131 2429.25 253.156 2431.31 255.343C2456.98 282.57 2465.27 294.384 2460.88 297.487C2457.37 299.971 2457.76 304.248 2462.28 312.927C2464.95 318.041 2462.05 327.121 2457.42 328.137L2457.27 328.17C2456 328.449 2455.23 328.616 2454.91 329.086C2454.43 329.783 2454.92 331.148 2456.14 334.542L2456.14 334.547L2456.23 334.812C2458 339.752 2456.31 345.93 2452.81 347.324C2450.48 348.249 2452.03 350.857 2459.15 358.005C2468.32 367.204 2469.61 396.103 2461.51 410.843C2460.99 411.798 2460.56 413.161 2460.56 413.872C2460.56 425.519 2426.3 459.607 2414.59 459.607C2412.86 459.607 2411.18 517.901 2412.35 537.607C2412.37 537.882 2412.65 552.282 2412.98 569.607C2413.32 586.932 2413.8 606.732 2414.07 613.607C2417.31 698.434 2417.81 792.033 2417.87 1325.61C2417.92 1851.52 2416.59 2662.85 2415.16 2978.74C2414.63 3095.43 2414.57 3108.67 2417.74 3109.49C2418.14 3109.6 2418.6 3109.5 2419.12 3109.39C2424.58 3108.23 2428.56 3109.03 2428.56 3111.29C2428.56 3112.2 2428.85 3112.65 2429.21 3112.29C2433.01 3108.48 2434.52 3120.91 2431.08 3127.76C2428.6 3132.7 2428.6 3132.7 2431.92 3134.66C2435.43 3136.73 2437.48 3140.14 2438.23 3145.11C2438.48 3146.76 2439.53 3148.71 2440.56 3149.44C2446.17 3153.42 2448.56 3157.7 2448.56 3163.79C2448.56 3165.39 2449.2 3166.92 2450.01 3167.23C2452.38 3168.14 2456.81 3177.83 2455.31 3178.81C2454.39 3179.41 2454.72 3180.14 2456.56 3181.59C2457.93 3182.68 2458.75 3183.57 2458.38 3183.59C2458.01 3183.6 2459.03 3184.92 2460.63 3186.53C2462.24 3188.14 2463.56 3190.21 2463.56 3191.13C2463.56 3192.05 2464.18 3193.99 2464.94 3195.45C2468.25 3201.83 2468.7 3203.48 2468.14 3207.03C2467.37 3211.88 2466.62 3213.24 2458.41 3224.82C2454.62 3230.17 2450.61 3236.64 2449.51 3239.22C2447.46 3243.99 2434.76 3257.35 2420.05 3270.2L2419.76 3270.45L2419.3 3270.85C2417.6 3272.33 2416.33 3273.43 2415.36 3274.75C2412.51 3278.64 2412.26 3284.43 2411.28 3307.21L2411.13 3310.61C2409.97 3337.44 2409.56 3345.78 2408.97 3354.61C2408.62 3359.83 2408.21 3364.33 2408.06 3364.61C2407.9 3364.88 2407.45 3368.87 2407.06 3373.47C2406.67 3378.07 2405.99 3383.11 2405.54 3384.67C2404.89 3386.94 2405.2 3388.05 2407.14 3390.3C2409.4 3392.93 2409.7 3393.65 2409.88 3396.86C2410.21 3403 2404.27 3408.56 2396.56 3409.32C2380.29 3410.92 2353.72 3412.23 2317.66 3413.22C2294.41 3413.85 2261.76 3433 2259.92 3447.07C2259.85 3447.64 2259.74 3448.7 2259.67 3449.42C2259.61 3450.14 2259.04 3450.41 2258.4 3450.01C2257.7 3449.58 2257.52 3449.74 2257.94 3450.42C2258.33 3451.04 2255.67 3454.95 2251.89 3459.32L2242.6 3470.05C2232.94 3481.21 2229.59 3482.74 2222.64 3479.15C2220.17 3477.87 2219.59 3477.87 2217.94 3479.15C2216.2 3480.5 2207.86 3484.61 2206.87 3484.61C2206.63 3484.61 2206.76 3484.09 2207.15 3483.45C2207.61 3482.72 2207.43 3482.57 2206.65 3483.05C2203.69 3484.88 2194.56 3480.86 2194.56 3477.74C2194.56 3477.12 2194.14 3476.61 2193.64 3476.61C2193.13 3476.61 2192.42 3475.27 2192.06 3473.64C2191.44 3470.79 2191.24 3470.69 2187.16 3471.25C2179.15 3472.35 2171.56 3466.03 2171.56 3458.26C2171.56 3455.78 2171.46 3455.75 2168.31 3457.01C2159.04 3460.71 2148.92 3453.64 2149.86 3444.11C2150.01 3442.59 2149.54 3442.18 2147.92 3442.4C2139.53 3443.55 2142.06 3421.05 2150.68 3417.77C2155.54 3415.93 2150.01 3415.01 2132.81 3414.79C2122.5 3414.67 2113.38 3414.55 2112.56 3414.53C2110.91 3414.5 2035.86 3414.56 1905.56 3414.71C1859.08 3414.76 1817.01 3414.75 1812.06 3414.69C1799.81 3414.52 1332.21 3413.81 1326.56 3413.95C1323.37 3414.02 1184.4 3413.85 1148.56 3413.72C1147.73 3413.72 1119.38 3413.82 1085.56 3413.95C1051.73 3414.08 1022.37 3413.89 1020.31 3413.53C1017.84 3413.1 1016.53 3413.26 1016.48 3413.99C1016.43 3414.67 1016.2 3414.61 1015.89 3413.85C1015.61 3413.16 1014.93 3412.88 1014.37 3413.22C1012.8 3414.2 952.27 3414.42 950.369 3413.46C949.44 3412.99 948.443 3412.98 948.154 3413.45C947.865 3413.92 869.65 3414.4 774.343 3414.52C731.059 3414.57 692.756 3414.59 658.847 3414.61H658.845C422.532 3414.73 399.626 3414.74 391.55 3425.69C390.683 3426.87 389.987 3428.17 389.217 3429.61C388.186 3431.54 387.022 3433.71 385.138 3436.17C378.175 3445.26 368.506 3454.19 362.659 3456.94C360.128 3458.13 357.463 3459.67 356.737 3460.36C356.01 3461.05 354.585 3461.61 353.57 3461.61C352.555 3461.61 351.575 3461.94 351.391 3462.36C351.208 3462.77 344.878 3466.21 337.325 3470.01C329.772 3473.8 322.122 3477.84 320.325 3478.97C318.528 3480.1 315.368 3481.81 313.301 3482.77C311.235 3483.73 308.657 3486 307.572 3487.81C300.144 3500.22 286.355 3499.43 271.706 3485.75C268.792 3483.02 264.759 3479.6 255.068 3471.63C251.248 3468.49 237.981 3455.16 234.125 3450.59C224.659 3439.36 208.767 3422.2 204.915 3419.04C204.617 3418.8 204.346 3418.57 204.092 3418.35C203.581 3417.92 203.135 3417.54 202.656 3417.21C199.289 3414.86 194.334 3414.79 154.551 3414.27C151.732 3414.23 148.738 3414.19 145.558 3414.15C84.1608 3413.32 61.5578 3411.28 61.5578 3406.59C61.5578 3406.05 60.6128 3404.66 59.4578 3403.51C58.0558 3402.1 57.6908 3401.07 58.3588 3400.41C58.9748 3399.79 59.0328 3398.26 58.5098 3396.44C57.9998 3394.66 58.0618 3392.41 58.6648 3390.83C59.3478 3389.03 59.3228 3385.43 58.5868 3379.64C56.5138 3363.34 54.8268 3333.25 54.0168 3298.13C53.4178 3272.16 53.4178 3272.16 47.7378 3265.32C44.6138 3261.56 40.2578 3256.09 38.0578 3253.18C35.8578 3250.27 31.3488 3244.34 28.0378 3240C20.4518 3230.05 16.9408 3224.72 16.0908 3221.86C15.7238 3220.62 14.9258 3219.61 14.3188 3219.61C9.09582 3219.61 8.28382 3208.92 12.7558 3199.05C13.2688 3197.92 13.5458 3196.56 13.3728 3196.02C13.1998 3195.49 14.8578 3193.22 17.0578 3190.98C21.2638 3186.71 22.3328 3184.91 32.0828 3165.61C34.6278 3160.57 41.5068 3149.77 48.1988 3140.32L48.2 3140.32C48.6664 3139.66 49.0515 3139.11 49.3692 3138.53C50.8772 3135.77 50.865 3132.18 50.7948 3111.57C50.7328 3093.09 51.0158 3086.6 51.8838 3086.59C52.7448 3086.58 52.7558 3086.38 51.9268 3085.84C50.5318 3084.94 50.4188 3073.61 51.8048 3073.61C52.4018 3073.61 52.3468 3073.06 51.6688 3072.24C50.1098 3070.36 50.4298 2853.45 51.9928 2852.37C52.7428 2851.85 52.7398 2851.63 51.9808 2851.62C51.2238 2851.61 50.9918 2837.6 51.1978 2804.36C51.3588 2778.37 51.4738 2750.36 51.4518 2742.11C51.3858 2716.16 51.4358 2646.47 51.5468 2611.61C51.6638 2574.76 51.5788 2456.26 51.4108 2423.11C51.3518 2411.56 51.3728 2375.78 51.4568 2343.61C51.5398 2311.43 51.5868 2282.18 51.5608 2278.61C50.7318 2166.55 50.9848 2107.38 52.2958 2106.88C53.4688 2106.43 53.4868 2106.18 52.3918 2105.5C51.3018 2104.83 51.0298 2091.07 50.9058 2030.15C50.8218 1989.15 51.0848 1955.82 51.4908 1956.07C51.8958 1956.32 51.8738 1954.4 51.4418 1951.81C50.6348 1946.99 51.0778 948.067 51.9448 817.607C52.2098 777.732 52.7338 657.807 53.1088 551.107C53.4838 444.407 53.8248 355.982 53.8658 354.607C54.7268 326.194 53.4798 312.815 49.9078 312.145C45.4468 311.308 41.2818 307.33 39.6318 302.33C38.9528 300.274 36.7488 296.755 34.7348 294.511C32.7008 292.245 29.4788 286.578 27.4918 281.769C24.1748 273.742 15.6148 256.661 13.6688 254.183C13.2038 253.591 11.3388 249.282 9.52482 244.607C7.70982 239.932 5.71882 235.432 5.09982 234.607C2.31882 230.902 -0.326183 223.844 0.032817 221.085C0.245817 219.447 0.450817 217.626 0.488817 217.037C0.526817 216.449 2.79682 213.075 5.53282 209.54C8.26882 206.004 10.7668 201.93 11.0848 200.485C11.8728 196.898 14.8078 194.398 23.0868 190.26C29.1688 187.221 34.6398 182.615 42.0888 174.263C43.0472 173.188 43.9408 172.195 44.774 171.27C49.496 166.022 52.2798 162.929 53.9536 159.321C56.3576 154.138 56.4721 147.894 56.7511 132.681C56.7854 130.814 56.8221 128.812 56.8658 126.66C57.2158 109.427 57.2038 94.8431 56.8388 94.2531C52.3088 86.9231 59.0958 80.2031 71.3638 79.8731C80.6448 79.6241 91.5148 78.9101 106.058 77.5951C111.008 77.1471 120.008 76.6891 126.058 76.5761C140.96 76.2981 141.083 76.2491 151.179 66.7751C156.063 62.1931 163.25 56.0331 167.151 53.0881C171.052 50.1421 176.47 45.2961 179.191 42.3181C188.11 32.5601 199.608 25.6071 206.827 25.6071C209.219 25.6071 212.049 24.9461 213.117 24.1391C216.712 21.4191 220.391 22.1841 221.341 25.8481C222.11 28.8171 222.476 29.0641 225.696 28.7871C230.161 28.4021 231.919 30.3861 231.36 35.1811C230.914 39.0011 235.882 43.8791 246.363 49.9141C253.938 54.2751 259.764 60.5481 261.059 65.7391L261.146 66.0911C261.637 68.0645 262.015 69.5853 262.871 70.7561C265.749 74.6902 274.028 74.6728 310.127 74.5971L312.058 74.5931C336.808 74.5421 377.533 74.5881 402.558 74.6961C427.583 74.8041 448.958 74.8831 450.058 74.8711C466.915 74.6901 912.435 74.6961 1414.81 74.8841C2027.94 75.114 2048.82 75.1218 2049.53 71.3385C2049.56 71.2051 2049.56 71.067 2049.56 70.9241C2049.56 68.6141 2049.98 66.4611 2050.51 66.1381C2051.05 65.8021 2050.62 64.1391 2049.51 62.2511C2041.93 49.4031 2046.73 39.4481 2065.06 30.0361C2071.11 26.9281 2076.51 24.0571 2077.06 23.6561C2077.61 23.2541 2082.83 21.0291 2088.67 18.7111C2094.51 16.3931 2102.38 12.4891 2106.17 10.0361C2114.98 4.33208 2121.05 1.45308 2125.51 0.865076ZM107.623 102.524C105.662 102.478 102.933 102.309 101.558 102.149L100.468 102.022C88.7635 100.657 83.3838 100.029 80.9796 102.408C78.9346 104.432 79.0421 108.631 79.2411 116.401L79.2628 117.252C79.4958 126.502 79.7708 134.151 79.8728 134.25C79.9748 134.35 87.0618 127.271 95.6228 118.519C106.973 106.916 110.047 103.774 109.496 102.891C109.292 102.563 108.588 102.547 107.623 102.524ZM2384.85 190.438C2384.71 184.756 2384.58 162.894 2384.57 141.857C2384.56 112.859 2384.56 105.845 2381.62 104.249C2380.68 103.74 2379.44 103.782 2377.81 103.838C2374.09 103.965 2354.98 104.303 2335.32 104.588C2299.58 105.107 2299.58 105.107 2304.89 110.607C2309.85 115.755 2313.82 120.592 2326.22 136.607C2328.98 140.182 2332.73 144.682 2334.54 146.607C2336.35 148.532 2339.01 151.682 2340.44 153.606C2341.88 155.531 2344.41 158.456 2346.06 160.106C2352.54 166.568 2367.89 183.188 2372.3 188.505C2385.19 204.03 2385.19 204.03 2384.85 190.438ZM146.937 3368.23C130.121 3352.08 104.757 3326.91 101.453 3323.11C90.2148 3310.16 82.5588 3304.11 82.5048 3308.13C82.4758 3310.32 82.2558 3314.58 82.0158 3317.61C81.7758 3320.63 81.1048 3332.33 80.5258 3343.6C79.5448 3362.66 79.1728 3368.08 78.0628 3379.47C77.8617 3381.53 77.7555 3382.62 78.2478 3383.13C78.7982 3383.7 80.0969 3383.56 82.8478 3383.26C89.4818 3382.54 113.525 3381.62 138.558 3381.13C149.283 3380.91 158.453 3380.71 158.937 3380.67C159.42 3380.64 154.02 3375.04 146.937 3368.23ZM2389.15 3353.61C2388.87 3346.73 2388.15 3333.23 2387.55 3323.61C2386.95 3313.98 2386.34 3305.7 2386.21 3305.21C2386.07 3304.71 2380.94 3311.07 2374.8 3319.33L2373.9 3320.54L2373.89 3320.55C2367.04 3329.77 2363.84 3334.08 2360.36 3338.17C2357.32 3341.75 2354.07 3345.15 2347.97 3351.54L2347.04 3352.52C2340.43 3359.44 2333.25 3367.36 2331.09 3370.11C2328.93 3372.86 2325.82 3376.56 2324.18 3378.34C2323.95 3378.59 2323.73 3378.82 2323.52 3379.04C2322.56 3380.06 2321.89 3380.76 2322.02 3381.27C2322.31 3382.41 2326.63 3382.54 2340.74 3382.96H2340.74C2342.09 3383 2343.53 3383.05 2345.06 3383.09C2357.71 3383.48 2373.46 3384.12 2380.06 3384.51C2386.66 3384.91 2392.15 3385.18 2392.26 3385.13C2392.38 3385.07 2391.84 3380.77 2391.07 3375.57C2390.29 3370.36 2389.43 3360.48 2389.15 3353.61Z" fill="black"/>
</svg>
