<svg width="641" height="830" viewBox="0 0 641 830" fill="none" xmlns="http://www.w3.org/2000/svg">
<path fill-rule="evenodd" clip-rule="evenodd" d="M233.187 0.842855C230.437 1.30885 221.212 1.94993 212.687 2.26693C204.162 2.58293 194.487 3.32285 191.187 3.91085C185.472 4.92985 139.708 4.44391 123.687 3.19491C107.733 1.95191 92.367 1.85991 82.483 2.94991C73.884 3.89791 69.458 3.86088 59.983 2.76388C32.209 -0.451125 29.009 1.49394 29.53 21.2769C29.719 28.4369 29.9309 36.5449 30.0009 39.2949C30.0709 42.0449 29.59 49.6949 28.932 56.2949C27.798 67.6629 26.703 92.7069 26.175 119.324C25.938 131.283 25.1439 142.767 24.2569 147.053C24.0019 148.286 23.541 156.659 23.233 165.659C22.924 174.659 22.0259 188.159 21.2359 195.659C20.4469 203.159 19.499 214.02 19.128 219.795C18.758 225.57 18.221 231.195 17.935 232.295C17.022 235.806 16.168 278.612 15.192 369.795C14.912 395.92 14.347 420.445 13.935 424.295C13.524 428.145 13.44 435.795 13.75 441.295C14.06 446.795 13.97 456.02 13.551 461.795C13.132 467.57 12.761 479.495 12.727 488.295C12.693 497.095 11.9959 510.595 11.1779 518.295C10.3599 525.995 9.686 535.445 9.681 539.295C9.676 543.145 9.24501 548.995 8.72201 552.295C7.00701 563.131 6.67696 567.642 6.06796 588.587C5.35196 613.182 4.79103 627.64 4.31503 633.795C4.12403 636.27 3.59095 643.02 3.13095 648.795C2.67195 654.57 2.39699 659.671 2.51999 660.13C2.64299 660.59 2.27204 663.569 1.69504 666.75C0.407037 673.852 -0.501076 689.682 0.303924 690.985C1.20492 692.443 1.71402 712.578 1.55002 740.295C1.00302 832.809 -1.03904 826.259 26.896 821.607C31.947 820.766 37.753 820.798 50.396 821.739C59.631 822.427 69.662 823.169 72.687 823.39C75.712 823.61 82.687 824.238 88.187 824.786C108.513 826.811 152.679 828.478 202.974 829.119C214.015 829.26 216.937 829.009 217.647 827.859C218.289 826.821 218.902 826.715 219.861 827.475C220.74 828.172 236.197 828.557 265.687 828.616C290.162 828.665 321.887 828.942 336.187 829.233C358.143 829.678 401.752 829.92 412.187 829.655C413.837 829.613 425.087 829.608 437.187 829.644C469.947 829.742 508.209 828.397 521.187 826.69C525.587 826.111 535.487 825.537 543.187 825.414C551.496 825.281 558.047 824.718 559.302 824.03C560.549 823.345 566.497 822.825 573.802 822.76C594.417 822.579 616.821 819.821 623.298 816.667C629.216 813.784 634.993 808.073 634.376 805.713C634.101 804.663 634.338 796.265 634.901 787.05C636.617 758.958 636.674 757.125 636.637 730.769C636.607 709.382 636.866 704.611 638.231 701.343C639.347 698.673 639.661 696.106 639.226 693.207C638.833 690.583 639.001 688.719 639.67 688.305C640.264 687.938 640.767 684.861 640.787 681.467C640.808 678.072 640.885 673.27 640.96 670.795C641.15 664.481 639.532 632.464 638.975 631.501C638.722 631.065 638.975 630.153 639.538 629.475C640.101 628.797 640.428 625.104 640.265 621.269C639.552 604.456 638.578 590.18 638.048 588.795C637.732 587.97 637.339 548.338 637.173 500.724C637.007 453.11 636.591 405.185 636.248 394.224C634.066 324.518 633.797 308.039 633.257 211.295C632.987 162.895 632.511 117.895 632.199 111.295C631.507 96.6349 630.663 56.4929 630.634 36.7949C630.601 14.7269 627.781 10.5049 612.301 9.34285C589.621 7.63885 560.246 7.10387 514.187 7.55587C500.437 7.68987 486.262 7.56885 482.687 7.28585C479.112 7.00285 468.312 6.60386 458.687 6.39986C449.062 6.19486 436.806 5.49591 431.452 4.84591C426.097 4.19591 420.922 3.76986 419.952 3.89986C418.981 4.02986 414.812 3.81092 410.687 3.41292C406.562 3.01492 399.137 2.53784 394.187 2.35384C389.237 2.16984 375.962 1.46184 364.687 0.780843C350.795 -0.0571569 335.162 -0.217105 316.187 0.283895C284.168 1.12989 271.907 1.16789 252.187 0.481893C244.487 0.213893 235.937 0.375855 233.187 0.842855ZM329.439 19.8169C341.95 19.7629 352.862 19.7038 353.687 19.6868C374.546 19.2388 438.395 23.0359 476.687 27.0009C489.738 28.3519 565.996 28.6388 578.688 27.3848C608.584 24.4298 615.537 25.5119 613.63 32.8219C610.749 43.8679 608.863 86.3149 610.721 98.2949C610.993 100.046 609.676 113.475 608.245 123.545C607.723 127.219 607.838 128.795 608.628 128.795C609.387 128.795 609.456 129.369 608.839 130.545C608.289 131.593 608.276 134.852 608.807 138.671C609.295 142.178 609.412 152.078 609.068 160.671C608.23 181.615 608.231 182.665 609.127 202.795C610.164 226.079 609.851 252.769 608.472 258.635C608.387 258.998 608.672 263.004 609.105 267.537C610.081 277.736 610.116 291.809 609.199 304.631C608.753 310.858 608.902 315.879 609.61 318.509C610.403 321.455 610.414 323.299 609.649 324.979C608.868 326.693 608.957 329.889 609.978 336.811C611.401 346.463 611.408 353.39 610.008 366.795C608.851 377.869 609.374 394.201 611.176 403.295C612.048 407.695 613.03 416.92 613.359 423.795C613.688 430.67 614.393 437.14 614.925 438.172C615.537 439.358 615.543 440.279 614.941 440.672C613.697 441.486 613.586 452.926 614.761 459.295C616.535 468.914 616.871 473.379 616.643 484.295C616.141 508.253 616.288 518.127 617.447 538.295C620.218 586.49 620.811 672.644 618.577 702.29C618.038 709.437 617.675 720.237 617.769 726.29C618.295 760.088 618.162 767.342 616.989 768.823C616.323 769.664 615.587 773.939 615.352 778.323C614.75 789.588 613.703 791.795 608.962 791.794C606.886 791.793 601.587 792.228 597.187 792.76C585.614 794.159 567.709 795.738 556.187 796.376C550.687 796.68 542.137 797.554 537.187 798.317C532.237 799.081 520.987 800.003 512.187 800.367C503.387 800.73 493.937 801.449 491.187 801.965C485.865 802.961 483.315 803.229 463.687 804.853C456.812 805.422 446.012 806.364 439.687 806.947C425.688 808.236 301.967 808.278 269.187 807.005C256.537 806.514 244.387 806.119 242.187 806.128C239.987 806.136 231.662 805.847 223.687 805.485C206.219 804.692 177.31 803.912 142.187 803.285C127.887 803.03 107.187 802.301 96.187 801.665C84.208 800.972 65.876 800.754 50.477 801.121C23.94 801.753 23.5659 801.708 23.0999 797.813C21.7219 786.286 21.032 770.084 21.545 761.295C22.324 747.944 22.2199 714.092 21.3449 696.194C20.7179 683.372 20.992 679.641 24.057 659.295C24.885 653.795 25.837 641.195 26.171 631.295C26.505 621.395 27.0009 612.139 27.2719 610.727C27.5439 609.314 27.934 597.614 28.138 584.727C28.369 570.205 29.096 557.683 30.051 551.795C30.898 546.57 31.4359 540.27 31.2459 537.795C31.0559 535.32 31.5529 526.545 32.3499 518.295C33.1469 510.045 33.948 494.07 34.13 482.795C34.313 471.52 34.876 460.045 35.381 457.295C35.903 454.459 35.9549 448.184 35.5019 442.795C34.2589 427.993 34.259 424.85 35.499 416.471C36.622 408.879 36.507 397.773 35.133 381.295C34.286 371.13 34.276 371.661 35.499 362.795C36.114 358.333 36.224 351.318 35.77 345.477C35.35 340.077 35.3419 333.542 35.7509 330.954C36.1599 328.366 36.477 314.784 36.456 300.772C36.434 286.76 36.815 272.595 37.302 269.295C37.789 265.995 37.9589 257.895 37.6789 251.295C37.3999 244.695 37.558 238.744 38.03 238.071C38.914 236.811 40.0259 225.06 41.6519 199.795C42.1659 191.82 42.821 182.82 43.108 179.795C43.396 176.77 43.904 168.445 44.239 161.295C44.573 154.145 45.086 146.045 45.378 143.295C45.671 140.545 46.076 133.57 46.279 127.795C46.481 122.02 46.867 114.595 47.135 111.295C48.069 99.8029 48.468 78.2819 47.781 76.4439C47.401 75.4249 47.489 71.1499 47.977 66.9439C48.465 62.7369 49.612 52.1369 50.526 43.3879C52.187 27.4809 52.187 27.4809 84.187 27.2639C101.787 27.1449 121.137 26.7279 127.187 26.3379C133.237 25.9479 158.212 25.4849 182.687 25.3099C207.162 25.1349 228.762 24.7628 230.687 24.4838C251.849 21.4178 256.148 21.0678 282.183 20.2918C294.281 19.9308 304.356 19.4589 304.573 19.2429C304.789 19.0259 305.354 19.0889 305.828 19.3819C306.302 19.6749 316.927 19.8709 329.439 19.8169Z" fill="#025354"/>
</svg>
