<svg width="1005" height="999" viewBox="0 0 1005 999" fill="none" xmlns="http://www.w3.org/2000/svg" preserveAspectRatio="none" >
<path fill-rule="evenodd" clip-rule="evenodd" d="M473.84 0.357668C472.972 0.662668 469.614 0.808596 466.378 0.683596C462.804 0.545596 460.495 0.866688 460.495 1.50269C460.495 2.21669 460.084 2.20761 459.201 1.47461C457.46 0.0296115 423.685 0.900746 421.833 2.43775C420.851 3.25375 420.495 3.24978 420.495 2.42578C420.495 1.27878 409.364 0.767725 408.266 1.86572C407.537 2.59472 385.122 3.65562 382.627 3.07862C382.28 2.99862 378.845 3.24877 374.995 3.63477C371.145 4.02177 361.47 4.59963 353.495 4.92163C345.52 5.24263 337.195 5.63783 334.995 5.79883C332.795 5.96083 325.787 6.37568 319.422 6.72168C313.057 7.06768 306.757 7.61783 305.422 7.94483C304.087 8.27183 300.781 8.47072 298.076 8.38672C295.01 8.29172 292.849 8.7178 292.341 9.5188C291.74 10.4668 291.522 10.4846 291.51 9.5896C291.499 8.7106 289.364 8.48382 283.745 8.76782C259.273 10.0028 251.873 10.6118 250.809 11.4778C250.041 12.1028 248.918 12.0658 247.625 11.3728C245.065 10.0028 236.495 9.97662 236.495 11.3386C236.495 11.9956 235.855 12.0508 234.745 11.4888C233.782 11.0018 230.52 10.7718 227.495 10.9768C224.47 11.1818 220.42 11.3328 218.495 11.3118C216.57 11.2908 213.87 11.3316 212.495 11.4006C209.645 11.5456 207.85 11.5318 204.995 11.3428C200.256 11.0298 195.495 11.5737 195.495 12.4297C195.495 12.9387 194.244 12.7077 192.714 11.9167C190.997 11.0287 189.352 10.8046 188.413 11.3296C187.566 11.8036 185.076 11.7728 182.788 11.2578C180.53 10.7508 174.703 10.3326 169.839 10.3286C164.975 10.3246 151.32 10.0236 139.495 9.66065C100.357 8.45765 80.5686 8.37465 79.9286 9.41065C79.5446 10.0316 78.7326 9.91679 77.7516 9.10279C75.6546 7.36279 22.0357 7.25464 18.9777 8.98364C15.9787 10.6796 12.7376 17.3408 13.4656 20.3108C13.8016 21.6818 13.9986 26.0657 13.9026 30.0537C13.8066 34.0417 14.1416 37.3037 14.6466 37.3037C15.1516 37.3037 15.0676 38.2327 14.4606 39.3677C13.6516 40.8777 13.6557 41.7928 14.4737 42.7788C15.2447 43.7068 15.2656 44.3267 14.5436 44.7737C13.0356 45.7057 13.2117 52.3006 14.7447 52.3186C15.6057 52.3296 15.6537 52.5626 14.8987 53.0686C13.2767 54.1556 12.2027 59.3037 13.5977 59.3037C14.3627 59.3037 14.2856 59.8626 13.3666 60.9956C12.2436 62.3806 12.2396 62.5408 13.3446 61.8748C14.4286 61.2218 14.4787 61.4646 13.5977 63.1106C12.9947 64.2366 12.7736 65.8667 13.1056 66.7317C13.4366 67.5957 13.2697 68.3037 12.7327 68.3037C12.1957 68.3037 11.6517 70.6667 11.5247 73.5537C11.2637 79.4507 11.2616 79.2817 11.7406 88.5537C11.9326 92.2667 11.7946 95.3037 11.4336 95.3037C11.0736 95.3037 10.9517 97.2157 11.1647 99.5537C11.3767 101.892 11.5207 105.647 11.4847 107.9C11.4437 110.421 12.0057 112.483 12.9457 113.263C13.7857 113.96 14.1967 114.978 13.8587 115.524C13.4857 116.128 12.9077 115.985 12.3847 115.161C11.7887 114.219 11.4957 114.722 11.4267 116.804C11.2697 121.606 10.6036 132.195 9.94962 140.304C9.61762 144.429 9.36271 152.529 9.38371 158.304C9.40471 164.079 9.37965 171.954 9.32865 175.804C8.95365 203.978 8.94671 203.815 10.4667 203.48C11.6757 203.214 11.6476 203.482 10.3096 204.98C8.66661 206.819 7.11168 226.663 8.68668 225.687C9.06668 225.451 9.2307 226.506 9.0507 228.031C8.8707 229.556 8.63866 230.804 8.53666 230.804C8.29766 230.804 8.12369 252.553 8.32169 257.804C8.40469 260.004 8.25566 275.417 7.98966 292.054C7.65866 312.865 7.83671 322.304 8.56071 322.304C9.15271 322.304 9.27073 322.85 8.83073 323.554C7.26573 326.055 7.4597 332.304 9.1027 332.304C10.4737 332.304 10.4717 332.47 9.08073 333.861C8.22473 334.717 7.70971 336.404 7.93571 337.611C8.16171 338.817 8.37969 340.393 8.42069 341.113C8.46169 341.833 8.94467 342.144 9.49467 341.804C10.0447 341.464 10.4947 341.663 10.4947 342.245C10.4947 342.827 9.81967 343.304 8.99467 343.304C8.16967 343.304 7.44268 343.867 7.37968 344.554C7.31568 345.242 7.20368 346.479 7.12968 347.304C7.05568 348.129 7.66967 349.352 8.49467 350.022C9.63867 350.952 9.67962 351.248 8.66862 351.272C7.75662 351.294 7.42666 352.485 7.61466 355.082C7.76466 357.16 7.51666 359.46 7.06266 360.194C6.56866 360.993 6.73367 361.834 7.47367 362.291C8.38667 362.855 8.40971 363.239 7.56071 363.763C6.92971 364.153 6.68665 365.334 7.02165 366.388C7.35565 367.442 7.19168 368.304 6.65568 368.304C5.42968 368.304 6.44466 372.551 7.90666 373.539C8.65666 374.045 8.61567 374.278 7.77567 374.289C7.10567 374.297 6.81661 374.979 7.13261 375.804C7.44961 376.629 7.37163 378.091 6.95963 379.054C5.82263 381.71 5.46668 398.439 6.56168 397.763C7.07468 397.445 7.49467 397.663 7.49467 398.245C7.49467 398.827 7.04467 399.304 6.49467 399.304C5.03067 399.304 5.25763 407.058 6.73563 407.551C7.61563 407.844 7.44372 408.497 6.14372 409.798C4.83172 411.11 4.47863 412.473 4.90263 414.593C5.22763 416.221 5.49467 417.996 5.49467 418.536C5.49467 419.076 6.28167 419.239 7.24467 418.898C8.40967 418.485 8.22662 418.881 6.69462 420.083C4.62562 421.707 4.43266 422.555 4.76566 428.544C4.98766 432.515 4.7597 434.968 4.2017 434.623C3.6367 434.274 3.3977 438.152 3.5977 444.424C3.7797 450.133 3.58066 455.8 3.15666 457.016C2.73166 458.233 2.83762 460.077 3.39262 461.113C3.96262 462.178 4.02468 463.391 3.53568 463.901C2.38968 465.097 1.59566 490.248 2.68266 490.92C3.14666 491.207 3.20969 491.956 2.82169 492.584C0.576694 496.217 -1.18835 599.002 1.00065 598.635C1.55865 598.542 2.0147 600.624 2.0247 603.304C2.0337 605.965 1.69565 607.928 1.27165 607.666C0.338645 607.09 0.855634 618.462 1.83463 620.045C2.21563 620.661 2.04272 621.465 1.45072 621.831C0.757722 622.26 1.01861 622.988 2.18461 623.881C3.46161 624.858 3.65567 625.492 2.84367 626.035C0.917667 627.321 0.447689 633.178 2.19169 634.154C3.54069 634.909 3.5337 635.075 2.1237 635.616C0.464696 636.253 0.289618 655.545 1.91862 658.181C2.30062 658.798 2.2027 659.304 1.7017 659.304C0.382699 659.304 1.36666 676.607 2.73466 677.452C3.56166 677.963 3.56861 678.509 2.76261 679.481C1.36461 681.165 1.75671 687.558 3.28971 688.069C4.13671 688.351 4.09972 689.03 3.14872 690.629C2.15472 692.301 1.51265 705.804 2.42765 705.804C2.51265 705.804 2.80673 712.779 3.08073 721.304C3.35473 729.829 3.79263 737.424 4.05363 738.181C4.31563 738.938 3.9877 740.21 3.3267 741.007C2.3827 742.144 2.40668 742.631 3.43668 743.268C4.15968 743.715 4.44472 744.576 4.07072 745.181C2.88172 747.104 3.46462 762.435 5.04362 770.804C5.35562 772.454 5.76169 775.829 5.94669 778.304C6.13269 780.779 6.53567 785.758 6.84367 789.369C7.15167 792.992 6.78269 800.163 6.01969 805.369C5.25869 810.558 4.37771 818.113 4.06071 822.158C3.74371 826.202 3.21172 829.953 2.87772 830.493C2.54472 831.033 2.14464 842.426 1.99064 855.811C1.83664 869.195 1.38072 880.68 0.976723 881.332C0.456724 882.174 0.934668 882.34 2.61967 881.906C4.99467 881.293 4.99467 881.293 2.74467 882.452C1.50767 883.088 0.494668 884.017 0.494668 884.516C0.494668 885.014 1.01066 885.103 1.64066 884.714C2.45866 884.208 2.57663 884.835 2.05363 886.905C0.679628 892.338 0.550679 898.303 1.80668 898.319C2.57968 898.329 2.51066 898.641 1.60966 899.212C0.0496581 900.2 0.836623 905.304 2.54862 905.304C3.22262 905.304 3.20765 905.971 2.50565 907.283C1.92265 908.372 1.68164 910.285 1.96964 911.533C2.25664 912.782 2.69171 916.215 2.93571 919.162C3.17871 922.109 3.60072 924.743 3.87272 925.015C4.14472 925.287 3.96267 926.572 3.46867 927.871C2.91567 929.328 2.94068 930.462 3.53568 930.829C4.15468 931.212 4.15361 932.072 3.53361 933.232C-2.20839 943.961 5.34066 988.826 11.9637 983.33C12.6317 982.775 13.4777 982.621 13.8437 982.987C14.6117 983.755 16.3876 984.014 25.9286 984.751C29.7426 985.045 33.6796 985.545 34.6786 985.862C35.6776 986.179 36.4947 985.987 36.4947 985.434C36.4947 984.839 37.9626 984.668 40.0946 985.014C42.6026 985.421 43.9636 985.174 44.5796 984.201C45.2846 983.087 45.4667 983.165 45.4797 984.585C45.4907 985.943 46.2677 986.347 48.7447 986.282C50.5317 986.236 55.8637 986.403 60.5927 986.654C65.3217 986.905 69.7966 986.735 70.5386 986.277C71.2806 985.819 72.6367 985.845 73.5527 986.335C74.4687 986.825 82.3687 987.494 91.1067 987.821C108.725 988.481 120.579 989.106 127.725 989.751C130.326 989.986 132.729 989.735 133.064 989.193C133.454 988.561 134.09 988.552 134.834 989.167C136.316 990.392 164.42 991.235 165.136 990.076C165.431 989.598 166.285 989.715 167.034 990.336C167.782 990.957 169.654 991.351 171.195 991.21C172.735 991.07 175.345 991.255 176.995 991.621C178.645 991.987 189.144 992.506 200.327 992.773C211.509 993.041 224.334 993.54 228.827 993.881C241.514 994.845 250.495 995.018 250.495 994.299C250.495 993.939 252.183 993.783 254.245 993.953C256.308 994.123 259.795 994.389 261.995 994.544C264.195 994.699 266.445 995.046 266.995 995.315C267.807 995.712 275.496 995.768 284.495 995.443C285.32 995.413 289.145 995.626 292.995 995.916C305.601 996.865 326.971 996.999 328.106 996.135C328.738 995.654 330.677 995.875 332.606 996.648C339.341 999.348 467.972 999.663 478.224 997.005C479.45 996.687 480.697 996.822 480.995 997.304C481.293 997.786 482.54 997.953 483.766 997.673C484.992 997.394 487.345 997.221 488.995 997.288C493.406 997.469 493.21 997.474 503.495 996.861C508.72 996.549 517.72 996.052 523.495 995.756C529.27 995.461 536.245 995.071 538.995 994.891C541.745 994.711 549.597 994.274 556.444 993.921C563.302 993.567 569.183 992.809 569.539 992.233C569.905 991.64 571.332 991.476 572.838 991.854C574.297 992.22 576.279 992.198 577.243 991.806C578.206 991.413 585.223 991.069 592.836 991.042C603.164 991.005 606.803 990.666 607.171 989.706C607.501 988.845 608.383 988.677 609.83 989.2C611.021 989.629 614.245 989.885 616.995 989.767C631.061 989.165 636.495 988.757 636.495 988.304C636.495 988.029 642.232 987.749 649.245 987.681C656.257 987.613 663.345 987.456 664.995 987.332C672.863 986.74 691.495 987.576 691.495 988.52C691.495 989.129 692.108 989.04 692.995 988.304C694.193 987.31 694.803 987.315 696.026 988.33C697.292 989.38 697.794 989.278 698.918 987.74C700.109 986.112 700.492 986.057 701.988 987.298C704.688 989.539 709.382 989.983 718.37 988.845C720.089 988.628 721.495 988.893 721.495 989.436C721.495 989.978 721.963 990.133 722.536 989.779C723.108 989.425 723.285 988.217 722.929 987.095C722.497 985.734 722.65 985.282 723.388 985.738C723.997 986.114 724.495 987.07 724.495 987.863C724.495 988.656 724.993 989.304 725.602 989.304C726.231 989.304 726.429 988.573 726.059 987.61C725.489 986.125 725.661 986.145 727.452 987.765C729.383 989.513 729.495 989.516 729.495 987.837C729.495 986.376 729.761 986.279 730.983 987.294C732.174 988.282 732.576 988.257 732.996 987.167C733.29 986.405 735.17 985.724 737.258 985.623C739.313 985.524 740.433 985.674 739.745 985.957C736.591 987.254 738.623 989.309 743.245 989.497C757.578 990.079 775.47 989.978 778.745 989.297C780.808 988.868 782.495 988.856 782.495 989.272C782.495 989.687 783.62 989.812 784.995 989.549C786.37 989.286 787.495 988.469 787.495 987.734C787.495 986.696 788.148 986.772 790.418 988.075C793.035 989.576 793.534 989.594 795.168 988.242C797.023 986.709 802.47 986.541 807.745 987.853C809.512 988.292 810.495 988.138 810.495 987.421C810.495 986.806 810.972 986.304 811.554 986.304C812.136 986.304 812.335 986.754 811.995 987.304C811.614 987.92 813.318 988.304 816.436 988.304C819.51 988.304 821.495 987.864 821.495 987.182C821.495 986.393 821.931 986.421 822.958 987.273C824.118 988.236 825.088 988.155 827.64 986.881C830.022 985.693 831.047 985.579 831.581 986.443C832.444 987.839 845.03 986.935 846.952 985.34C847.627 984.78 848.487 984.629 848.863 985.005C850.129 986.272 853.495 986.303 853.51 985.048C853.52 984.224 853.858 984.311 854.51 985.304C855.386 986.637 855.604 986.637 856.48 985.304C857.205 984.2 857.468 984.152 857.48 985.121C857.489 985.905 858.204 986.228 859.245 985.918C860.208 985.631 863.695 985.117 866.995 984.775C870.295 984.434 874.12 983.937 875.495 983.671C876.87 983.405 882.495 983.007 887.995 982.785C893.495 982.564 899.57 982.14 901.495 981.842C908.088 980.824 913.999 980.226 920.33 979.936C923.815 979.777 926.965 979.232 927.33 978.725C928.491 977.116 931.516 977.111 941.886 978.701C953.094 980.42 965.495 981.243 965.495 980.269C965.495 979.485 968.395 979.771 970.8 980.793C973.049 981.749 979.002 978.699 981.086 975.522C981.909 974.267 982.914 973.445 983.318 973.695C983.723 973.945 984.544 972.584 985.143 970.67C986.035 967.822 985.984 967.286 984.863 967.716C983.062 968.408 983.127 967.529 985.018 965.638C986.582 964.074 986.643 946.971 985.094 944.464C984.727 943.871 984.865 942.58 985.401 941.595C988.948 935.07 988.842 918.916 985.245 917.904C983.165 917.319 983.125 917.171 984.711 915.952C986.111 914.876 986.407 913.066 986.321 906.099C986.263 901.405 986.511 897.087 986.872 896.503C987.233 895.92 987.063 895.155 986.495 894.804C985.927 894.453 985.774 893.662 986.154 893.047C987.73 890.497 987.29 882.452 985.603 882.959C984.599 883.261 984.747 882.946 985.995 882.123C988.173 880.687 989.177 876.304 987.328 876.304C986.657 876.304 986.869 875.549 987.84 874.475C989.964 872.129 989.936 870.386 987.745 868.59C986.782 867.801 986.526 867.421 987.176 867.746C988.682 868.499 989.886 866.664 988.463 865.784C987.81 865.38 987.748 864.677 988.303 863.965C988.801 863.326 989.16 857.742 989.102 851.554C989.043 845.367 989.22 840.304 989.495 840.304C990.353 840.304 990.554 836.513 991.005 811.804C991.246 798.604 991.612 781.617 991.819 774.054C992.131 762.659 991.952 760.304 990.774 760.304C989.583 760.304 989.597 760.059 990.86 758.797C993.54 756.116 992.51 737.902 989.654 737.483C988.45 737.306 987.704 736.774 987.996 736.302C988.289 735.829 988.07 735.16 987.511 734.814C985.484 733.561 986.497 732.235 988.616 733.369C989.908 734.06 990.488 734.101 990.099 733.473C989.749 732.906 989.903 732.17 990.44 731.838C991.072 731.447 991.078 730.338 990.457 728.703C989.204 725.409 989.242 724.993 990.745 725.569C991.668 725.922 991.967 724.445 991.886 719.926C991.715 710.305 991.591 709.543 989.924 707.875C988.747 706.699 988.684 706.304 989.674 706.303C991.507 706.302 992.06 697.284 990.296 696.144C989.427 695.583 989.341 695.055 990.037 694.554C991.558 693.46 991.719 688.307 990.234 688.289C989.309 688.277 989.292 688.084 990.166 687.529C991.624 686.601 993.035 681.304 991.823 681.304C991.334 681.304 990.977 679.304 991.028 676.861C991.079 674.417 990.802 672.614 990.413 672.855C990.023 673.096 989.458 672.649 989.156 671.863C988.854 671.077 989.09 670.272 989.68 670.076C991.561 669.449 991.516 658.421 989.628 657.319C988.73 656.794 988.527 656.351 989.178 656.334C989.829 656.318 990.325 655.019 990.28 653.448C990.235 651.877 990.489 650.122 990.844 649.548C992.037 647.618 991.276 562.512 990.019 557.399C989.407 554.905 989.492 554.184 990.339 554.708C991.132 555.198 991.495 554.294 991.495 551.832C991.495 549.563 990.943 548.029 989.995 547.666C989.17 547.349 988.495 546.702 988.495 546.228C988.495 545.755 989.117 545.606 989.878 545.898C991.472 546.509 992.434 541.224 991.457 537.233C991.129 535.897 991.215 533.229 991.646 531.304C993.098 524.827 993.72 493.28 992.427 491.722C991.579 490.7 991.565 490.304 992.376 490.304C993.749 490.304 993.422 484.118 991.995 483.069C991.341 482.588 991.359 482.329 992.049 482.319C993.436 482.299 993.87 474.654 992.531 473.826C991.961 473.474 991.495 472.736 991.495 472.186C991.495 471.636 991.94 471.461 992.484 471.797C993.052 472.148 993.217 471.743 992.872 470.843C992.541 469.983 992.798 468.643 993.443 467.867C994.506 466.586 995.472 432.045 994.745 421.304C994.615 419.379 994.635 416.454 994.791 414.804C994.946 413.154 994.487 410.341 993.771 408.554C992.606 405.649 992.649 405.304 994.173 405.304C995.679 405.304 995.652 405.12 993.936 403.722C992.477 402.534 992.399 402.266 993.622 402.644C995.054 403.087 995.19 402.231 994.761 395.475C994.158 385.995 994.16 385.771 994.938 380.552C995.286 378.213 995.077 374.467 994.474 372.226C993.716 369.409 993.697 367.766 994.413 366.903C995.621 365.447 995.491 337.188 994.279 337.937C993.848 338.204 993.495 337.522 993.495 336.422C993.495 335.322 993.893 334.176 994.38 333.875C994.867 333.574 995.312 325.785 995.37 316.566C995.738 257.361 995.704 230.148 995.254 225.554C994.965 222.595 995.149 220.304 995.677 220.304C996.192 220.304 996.316 219.823 995.952 219.235C995.416 218.367 994.973 210.169 994.499 192.304C993.583 157.837 994.379 104.918 995.85 102.538C996.361 101.712 997.564 94.3407 998.011 89.3037C998.133 87.9287 998.503 85.2287 998.833 83.3037C999.888 77.1537 1000.16 68.2176 999.316 67.6926C998.864 67.4136 998.495 66.7358 998.495 66.1858C998.495 65.6358 998.9 65.4357 999.395 65.7417C999.89 66.0477 1000.29 64.7018 1000.29 62.7498C1000.29 60.7978 1000.77 57.9867 1001.36 56.5027C1002.63 53.2687 1004.49 39.8407 1004.49 33.9297C1004.49 29.7747 1004.43 29.6986 1000.97 29.5996C999.025 29.5446 996.887 29.0497 996.216 28.5007C994.345 26.9687 981.495 25.8227 981.495 27.1877C981.495 27.8017 981.018 28.3037 980.436 28.3037C979.854 28.3037 979.627 27.8998 979.932 27.4058C980.237 26.9118 978.015 26.5626 974.991 26.6296C971.968 26.6966 969.495 27.0178 969.495 27.3428C969.495 27.6678 967.583 27.8327 965.245 27.7087C952.831 27.0507 945.451 26.3948 944.608 25.8738C944.088 25.5518 942.5 25.7317 941.079 26.2717C939.399 26.9107 938.495 26.9116 938.495 26.2766C938.495 25.6566 931.092 25.4727 918.245 25.7747C907.108 26.0367 897.545 26.2386 896.995 26.2246C896.445 26.2096 892.902 26.0838 889.123 25.9448C884.672 25.7808 881.813 26.1286 881.008 26.9326C880.065 27.8756 879.487 27.8957 878.605 27.0137C877.967 26.3757 875.768 25.7206 873.72 25.5586C871.671 25.3976 866.845 24.8937 862.995 24.4387C859.145 23.9837 855.6 23.9598 855.118 24.3848C854.636 24.8098 853.135 24.7376 851.784 24.2236C850.433 23.7096 848.895 23.5568 848.367 23.8828C847.839 24.2088 846.865 24.0296 846.201 23.4846C845.538 22.9396 840.945 22.4856 835.995 22.4746C831.045 22.4646 825.983 22.2228 824.745 21.9368C823.507 21.6518 822.495 21.8697 822.495 22.4197C822.495 22.9707 822.03 23.1347 821.462 22.7827C818.902 21.2007 794.746 20.0498 794.267 21.4868C794.071 22.0748 793.013 22.0708 791.452 21.4778C789.484 20.7298 773.288 20.2027 751.495 20.1787C750.67 20.1777 744.483 19.9437 737.745 19.6597C727.959 19.2457 725.492 19.4097 725.48 20.4727C725.469 21.3847 725.233 21.4527 724.73 20.6907C724.326 20.0777 719.945 19.2677 714.995 18.8887C710.045 18.5097 704.934 17.9367 703.638 17.6167C702.174 17.2537 700.948 17.5577 700.403 18.4187C699.809 19.3557 699.521 19.4128 699.51 18.5928C699.5 17.8118 697.81 17.3957 694.745 17.4207C692.133 17.4427 688.42 17.2317 686.495 16.9517C684.57 16.6717 680.656 16.2008 677.797 15.9038C674.939 15.6068 669.764 14.8777 666.297 14.2837C659.787 13.1687 650.936 12.1587 648.745 12.2817C643.583 12.5707 636.634 11.8316 625.995 9.8606C605.556 6.0736 574.885 2.55675 571.992 3.66675C571.169 3.98275 570.495 3.86264 570.495 3.40064C570.495 2.93964 568.133 2.24469 565.245 1.85669C556.317 0.659692 476.702 -0.646332 473.84 0.357668ZM506.626 20.0986C516.257 20.0246 524.668 20.2928 525.318 20.6948C525.968 21.0958 532.011 21.4136 538.747 21.4006C556.827 21.3646 566.931 21.7248 567.495 22.4238C567.77 22.7638 570.245 23.2886 572.995 23.5886C575.745 23.8886 578.67 24.3828 579.495 24.6858C580.32 24.9888 586.17 25.4616 592.495 25.7356C598.82 26.0096 611.195 27.3337 619.995 28.6787C628.795 30.0227 638.072 31.0898 640.61 31.0488C643.149 31.0068 647.874 31.4777 651.11 32.0947C663.277 34.4147 680.415 36.3067 692.65 36.6807C699.61 36.8937 705.748 37.3418 706.29 37.6768C708.146 38.8238 743.389 39.4308 745.408 38.3508C746.783 37.6148 747.444 37.6498 747.719 38.4758C747.994 39.2998 755.713 39.7368 774.55 39.9968C804.57 40.4108 826.485 41.1797 827.581 41.8567C827.99 42.1097 828.553 41.7508 828.833 41.0598C829.173 40.2218 829.618 40.1467 830.169 40.8337C830.623 41.3997 834.011 41.9226 837.697 41.9946C841.383 42.0666 844.765 42.3527 845.212 42.6287C845.66 42.9057 848.944 43.1668 852.511 43.2078C862.578 43.3268 880.855 44.3058 882.254 44.8018C882.946 45.0468 884.709 44.7928 886.171 44.2368C888.143 43.4868 889.032 43.5548 889.616 44.4998C890.405 45.7768 896.546 45.9576 960.495 46.5986C980.995 46.8036 980.995 46.8037 980.85 52.3037C980.033 83.2777 980.061 92.3056 980.976 92.3186C981.537 92.3276 981.384 92.7216 980.638 93.1936C979.787 93.7336 979.532 94.8457 979.955 96.1787C980.401 97.5827 980.2 98.3037 979.362 98.3037C978.44 98.3037 978.395 98.6038 979.196 99.4048C979.891 100.1 979.998 101.549 979.488 103.33C979.042 104.883 978.954 106.43 979.292 106.767C979.63 107.105 979.779 116.252 979.623 127.093C978.678 193.079 978.686 195.805 979.837 196.552C980.662 197.087 980.682 197.52 979.907 198.054C979.161 198.568 978.729 211.258 978.535 238.304C978.38 260.029 978.158 285.812 978.043 295.599C977.863 310.874 978.057 313.54 979.414 314.424C980.692 315.257 980.707 315.369 979.493 315.006C977.888 314.526 977.15 337.508 978.694 339.876C979.078 340.465 978.847 342.04 978.18 343.376C976.697 346.347 977.134 350.636 978.816 349.627C979.713 349.089 979.719 349.265 978.839 350.362C978.17 351.196 977.654 355.596 977.614 360.804C977.577 365.754 977.42 374.003 977.267 379.136C977.07 385.691 977.36 388.777 978.241 389.508C979.85 390.844 979.852 392.304 978.245 392.306C977.335 392.307 976.967 395.03 976.891 402.306C976.803 410.702 977.034 412.304 978.332 412.304C979.59 412.304 979.539 412.551 978.061 413.632C976.113 415.057 975.052 439.698 975.028 484.054C975.023 494.091 974.788 502.304 974.507 502.305C974.225 502.305 974.06 504.218 974.14 506.555C974.347 512.632 974.429 512.956 975.385 511.447C975.985 510.501 976.452 510.426 976.929 511.197C977.305 511.806 977.185 512.304 976.662 512.304C975.335 512.304 974.429 516.477 973.846 525.277C972.961 538.636 972.833 544.213 973.42 543.86C973.736 543.669 974.549 544.114 975.227 544.847C976.216 545.918 976.095 546.296 974.617 546.765C973.195 547.217 972.861 548.123 973.15 550.746C973.916 557.701 974.078 571.928 973.432 575.554C973.064 577.617 973.153 579.304 973.629 579.304C974.105 579.304 974.495 578.779 974.495 578.137C974.495 577.496 974.792 577.268 975.156 577.631C975.519 577.994 975.128 579.082 974.286 580.048C972.419 582.191 971.865 644.304 973.713 644.304C974.296 644.304 974.175 644.985 973.432 645.88C972.353 647.179 972.356 647.6 973.445 648.273C974.494 648.921 974.529 649.769 973.612 652.397C972.642 655.18 972.711 655.845 974.047 656.593C975.47 657.389 975.448 657.618 973.833 658.799C972.268 659.943 972.174 660.65 973.116 664.178C973.712 666.412 973.929 668.072 973.597 667.867C973.266 667.663 972.995 676.243 972.995 686.936C972.995 702.318 973.281 706.553 974.365 707.223C975.478 707.912 975.407 708.254 973.987 709.049C972.939 709.635 972.651 710.282 973.268 710.663C973.834 711.013 974.126 713.438 973.917 716.052C973.677 719.055 973.833 720.095 974.341 718.877C975.032 717.221 975.231 717.174 975.757 718.544C976.099 719.437 975.783 720.363 975.038 720.649C973.671 721.174 973.793 737.36 975.182 739.606C975.524 740.16 975.37 740.345 974.839 740.017C973.702 739.314 973.645 748.211 974.775 749.985C975.189 750.634 975.133 751.41 974.65 751.708C973.883 752.182 973.953 756.036 974.853 762.804C974.999 763.904 974.906 765.216 974.646 765.719C974.385 766.223 974.011 771.173 973.814 776.719C973.617 782.266 973.333 789.423 973.184 792.624C973.035 795.825 973.27 798.665 973.706 798.935C974.143 799.205 974.033 800.298 973.463 801.365C972.845 802.518 972.774 804.014 973.287 805.054C973.761 806.017 974.004 810.066 973.828 814.054C973.621 818.718 973.887 821.304 974.572 821.304C975.158 821.304 974.95 821.992 974.109 822.833C972.296 824.646 973.027 827.291 975.352 827.336C976.874 827.365 976.874 827.46 975.356 828.615C974.455 829.3 973.473 831.424 973.174 833.333C972.875 835.242 972.397 837.839 972.111 839.104C971.779 840.569 972.117 841.606 973.043 841.961C974.696 842.595 975.014 846.865 973.479 847.814C972.92 848.16 972.721 848.861 973.038 849.373C973.354 849.885 973.223 850.304 972.746 850.304C971.682 850.304 971.695 868.342 972.761 869.985C973.183 870.634 973.07 871.448 972.511 871.794C970.718 872.903 971.29 881.079 973.245 882.279C974.872 883.278 974.862 883.334 973.109 883.079C970.849 882.75 970.56 883.888 970.054 895.121C969.753 901.814 969.971 903.549 971.171 904.01C972.082 904.359 972.261 904.83 971.632 905.22C970.976 905.625 970.94 906.393 971.532 907.33C972.162 908.327 972.469 908.399 972.48 907.554C972.488 906.867 973.015 906.304 973.65 906.304C974.34 906.304 974.139 907.04 973.148 908.135C972.236 909.142 971.781 910.257 972.136 910.612C972.491 910.967 972.154 911.497 971.388 911.791C969.921 912.353 970.338 928.851 971.911 932.453C972.31 933.365 972.133 934.41 971.515 934.792C970.712 935.288 970.763 935.932 971.696 937.085C972.491 938.066 972.543 938.417 971.83 937.99C970.26 937.048 969.59 939.285 970.614 942.054C971.09 943.343 971.059 944.304 970.54 944.304C969.313 944.304 968.767 948.234 969.566 951.313C971.162 957.464 963.612 960.735 956.232 957.09C955.198 956.58 953.761 956.616 952.758 957.177C951.643 957.801 950.357 957.765 949.069 957.076C947.644 956.313 946.985 956.335 946.712 957.153C946.468 957.884 945.739 957.975 944.664 957.409C942.26 956.144 888.142 956.864 887.707 958.167C887.493 958.81 886.528 958.887 885.168 958.37C882.911 957.512 875.147 957.65 855.995 958.89C849.945 959.282 842.52 959.72 839.495 959.864C831.372 960.25 825.24 960.933 822.724 961.731C821.498 962.12 820.495 962.056 820.495 961.587C820.495 960.438 809.831 960.841 805.007 962.173C802.281 962.926 800.749 962.93 799.855 962.188C799.025 961.499 794.306 961.336 786.289 961.72C779.527 962.043 768.145 962.568 760.995 962.887C744.515 963.622 740.974 963.898 739.879 964.533C739.393 964.815 738.095 964.858 736.995 964.63C734.416 964.096 724.269 964.226 713.495 964.932C708.82 965.238 701.77 965.56 697.828 965.646C693.886 965.733 690.327 966.138 689.92 966.545C689.512 966.953 688.655 966.852 688.014 966.32C687.264 965.697 681.356 965.705 671.422 966.342C662.937 966.886 651.495 967.545 645.995 967.806C630.397 968.546 630.229 968.57 628.464 970.335C626.732 972.067 620.495 971.946 620.495 970.18C620.495 969.683 616.6 969.5 611.745 969.769C606.933 970.036 601.232 970.249 599.077 970.243C596.921 970.236 594.791 970.81 594.342 971.517C593.696 972.536 593.522 972.54 593.51 971.54C593.499 970.603 591.879 970.409 587.245 970.787C583.808 971.068 576.134 971.488 570.193 971.722C564.252 971.955 558.81 972.628 558.101 973.216C557.391 973.805 556.526 974.001 556.177 973.653C555.829 973.304 554.857 973.588 554.019 974.284C553.066 975.075 552.495 975.15 552.495 974.484C552.495 973.887 551.506 973.655 550.245 973.955C549.008 974.25 547.208 974.478 546.245 974.46C545.282 974.443 544.495 974.905 544.495 975.489C544.495 976.214 544.075 976.2 543.165 975.445C541.27 973.872 518.761 974.199 515.254 975.851C513.372 976.737 512.308 976.811 511.86 976.085C511.258 975.112 498.217 975.413 479.495 976.832C476.47 977.061 470.952 977.463 467.234 977.724C463.515 977.986 460.028 978.475 459.484 978.811C458.94 979.147 458.495 979.053 458.495 978.603C458.495 977.871 443.271 977.789 402.995 978.304C395.845 978.395 378.839 978.219 365.204 977.912C343.339 977.42 340.342 977.538 339.815 978.913C339.332 980.172 339.054 980.215 338.371 979.138C337.707 978.09 337.522 978.079 337.51 979.089C337.499 980.049 337.006 980.113 335.561 979.339C332.925 977.928 332.506 978.024 332.425 980.054C332.363 981.593 332.264 981.573 331.603 979.888C330.729 977.658 329.499 977.457 312.495 976.773C305.62 976.496 293.92 975.94 286.495 975.537C277.795 975.064 272.728 975.16 272.245 975.804C271.761 976.449 271.216 976.373 270.707 975.588C270.143 974.718 266.086 974.419 256.457 974.538C248.396 974.638 242.193 974.272 240.995 973.625C238.506 972.282 189.707 971.153 188.923 972.42C188.613 972.922 187.501 972.843 186.372 972.238C185.259 971.642 181.273 971.345 177.389 971.569C173.549 971.79 170.187 971.615 169.918 971.18C169.65 970.745 168.207 970.427 166.712 970.473C165.218 970.519 159.045 970.249 152.995 969.873C130.518 968.475 127.496 968.448 127.48 969.648C127.468 970.509 127.277 970.513 126.73 969.663C126.306 969.006 122.818 968.444 118.495 968.338C114.37 968.236 106.27 967.967 100.495 967.739C82.7347 967.039 76.7296 967.041 75.5896 967.745C74.9876 968.117 74.4947 967.909 74.4947 967.281C74.4947 966.554 73.2236 966.312 70.9866 966.614C69.0566 966.874 67.2526 966.721 66.9756 966.274C66.2116 965.037 60.4506 965.757 59.5586 967.2C58.9556 968.175 58.6287 968.097 58.1557 966.862C57.6247 965.479 55.5996 965.276 43.7666 965.419C27.6796 965.613 24.4626 964.79 24.9386 960.603C25.1146 959.063 24.7777 957.207 24.1907 956.478C23.5417 955.671 23.4896 954.888 24.0586 954.478C25.6076 953.363 25.9867 945.323 25.5047 923.804C25.3447 916.654 25.5367 910.052 25.9317 909.132C26.3257 908.213 26.1177 906.468 25.4687 905.255C24.7497 903.912 24.6577 902.806 25.2337 902.427C25.7537 902.084 26.0737 900.408 25.9467 898.701C25.8187 896.994 26.0937 893.394 26.5577 890.701C27.0207 888.008 27.6127 882.879 27.8727 879.304C28.1327 875.729 28.4397 872.804 28.5567 872.804C28.7247 872.804 29.5736 848.741 29.5436 844.804C29.4936 838.296 28.5557 832.076 27.4117 830.671C26.1627 829.136 26.1917 829.003 27.6557 829.551C29.0727 830.082 29.1947 829.743 28.4797 827.252C28.0187 825.645 27.9637 824.132 28.3567 823.89C29.8807 822.947 29.4867 804.304 27.9417 804.304C26.0267 804.304 26.0827 802.399 28.0207 801.656C29.1967 801.204 29.2826 800.754 28.3976 799.687C27.7666 798.926 27.5456 798.304 27.9076 798.304C28.2686 798.304 28.0547 797.35 27.4297 796.183C26.6327 794.693 26.6217 794.265 27.3947 794.742C28.7817 795.599 28.8156 793.772 27.4596 791.238C26.8896 790.174 26.7946 789.304 27.2466 789.304C27.6986 789.304 28.1366 788.404 28.2196 787.304C28.3026 786.204 28.0157 785.304 27.5827 785.304C27.1497 785.304 26.8287 782.492 26.8697 779.054C26.9377 773.329 26.5047 765.881 24.9097 745.286C24.5897 741.15 24.1777 736.2 23.9937 734.286C23.8097 732.371 23.3827 726.529 23.0447 721.304C22.7067 716.079 22.1626 709.329 21.8356 706.304C21.5096 703.279 21.1406 699.297 21.0166 697.454C20.8926 695.612 20.1616 693.707 19.3926 693.22C18.2746 692.512 18.3487 692.332 19.7607 692.319C22.0097 692.3 21.8386 686.433 19.5336 684.54C18.1976 683.442 18.1927 683.31 19.4947 683.54C20.3957 683.698 20.8467 683.205 20.6237 682.304C20.4207 681.479 20.3457 679.004 20.4587 676.804C20.5717 674.604 20.6057 672.129 20.5347 671.304C20.4627 670.479 20.3126 661.35 20.1996 651.018C20.0326 635.715 19.7216 632.063 18.5226 631.321C17.2346 630.525 17.2406 630.339 18.5696 629.829C19.7866 629.362 20.1026 627.171 20.1636 618.795C20.2136 611.881 19.8917 608.558 19.2127 608.978C18.5467 609.39 18.5036 609.119 19.0896 608.209C20.1626 606.543 20.5737 595.242 19.6137 593.804C19.2467 593.254 18.9576 589.092 18.9706 584.554C18.9836 580.017 18.6567 576.304 18.2447 576.304C17.8327 576.304 17.4947 575.827 17.4947 575.245C17.4947 574.663 17.8927 574.432 18.3787 574.732C19.3297 575.32 19.4077 573.915 19.4117 556.304C19.4147 535.838 19.4487 525.898 19.5317 521.274C19.5757 518.783 19.1277 515.469 18.5347 513.91C17.6267 511.52 17.6937 511.167 18.9677 511.655C20.1607 512.113 20.4476 511.455 20.3356 508.519C20.2576 506.476 20.5237 503.77 20.9267 502.506C21.3647 501.135 21.1786 499.628 20.4656 498.769C19.7716 497.933 19.5937 496.59 20.0397 495.567C21.2197 492.862 21.2207 483.896 20.0417 483.069C19.4247 482.636 19.7137 482.328 20.7447 482.319C21.8227 482.31 22.4947 481.536 22.4947 480.304C22.4947 479.204 21.9547 478.304 21.2947 478.304C20.3617 478.304 20.3617 478.037 21.2947 477.104C22.9757 475.423 22.7917 471.632 20.9947 470.942C20.1697 470.626 19.5017 469.79 19.5097 469.085C19.5207 468.175 19.7947 468.23 20.4557 469.275C21.9367 471.617 22.5466 469.971 21.5216 466.398C20.7726 463.787 20.8567 463.229 21.9357 463.643C23.0297 464.063 23.3186 461.446 23.4436 449.983C23.6136 434.538 24.0177 425.277 24.9537 415.445C25.3507 411.266 25.1627 408.609 24.4037 407.695C23.7697 406.93 23.6427 406.303 24.1227 406.302C25.4277 406.299 25.6076 400.145 24.3456 398.625C23.6606 397.799 23.6267 397.304 24.2557 397.304C24.8087 397.304 25.2927 396.066 25.3317 394.554C25.5537 385.98 25.4436 379.919 25.0596 379.535C24.8186 379.295 25.0326 378.02 25.5336 376.701C26.1096 375.187 26.0856 374.304 25.4696 374.304C24.9336 374.304 24.4947 373.193 24.4947 371.835C24.4947 369.944 24.1057 369.516 22.8307 370.005C21.7117 370.435 21.4037 370.261 21.8897 369.474C22.2877 368.83 23.2606 368.304 24.0536 368.304C24.8466 368.304 25.4947 367.868 25.4947 367.335C25.4947 366.803 24.8777 366.604 24.1237 366.893C23.3697 367.182 21.9977 366.665 21.0757 365.742C19.2137 363.88 19.6237 362.643 21.6777 363.926C24.0817 365.427 25.2106 365.109 25.1676 362.945C25.1436 361.767 25.4837 357.937 25.9217 354.432C26.5417 349.479 26.4166 347.874 25.3616 347.222C24.2776 346.552 24.4067 346.079 25.9997 344.875C27.9747 343.383 27.2036 342.794 23.8196 343.212C21.9306 343.445 21.4036 341.674 22.5016 338.786C23.1976 336.954 24.0156 336.29 25.0736 336.696C26.2446 337.145 26.4767 336.822 26.0197 335.382C25.6857 334.332 25.8977 333.173 26.4897 332.807C27.7647 332.019 27.5307 324.08 26.2057 323.181C25.6587 322.809 25.7047 321.78 26.3217 320.627C26.9227 319.504 26.9947 318.114 26.4947 317.304C26.0057 316.512 26.0356 315.162 26.5646 314.174C28.0376 311.421 27.7667 301.032 26.2447 301.892C25.2557 302.45 25.2506 302.321 26.2206 301.274C27.1186 300.306 27.1527 299.597 26.3487 298.628C25.5427 297.657 25.5626 297.304 26.4236 297.304C27.1776 297.304 27.5847 295.427 27.5607 292.054C27.5407 289.167 27.6837 283.879 27.8777 280.304C28.0997 276.244 27.8127 273.522 27.1137 273.054C26.2937 272.504 26.3037 272.103 27.1507 271.553C28.5807 270.624 28.6466 253.304 27.2196 253.304C26.6786 253.304 26.7576 252.693 27.3976 251.921C28.2916 250.844 28.1586 250.389 26.7986 249.867C25.4176 249.337 25.3316 249.023 26.3876 248.37C27.5736 247.637 27.9107 244.37 27.3467 239.054C27.2447 238.091 26.6737 237.297 26.0777 237.289C25.4817 237.28 25.6046 236.887 26.3496 236.415C28.3906 235.122 28.4907 214.546 26.4627 213.263C25.2417 212.491 25.2967 212.332 26.7907 212.319C28.2377 212.307 28.5827 211.479 28.5657 208.054C28.5547 205.716 28.7996 200.3 29.1116 196.017C29.5276 190.293 29.3227 187.791 28.3367 186.575C27.3867 185.403 27.3597 185.139 28.2447 185.671C29.2007 186.245 29.4947 184.656 29.4947 178.922C29.4947 174.682 29.0307 171.135 28.4267 170.762C27.8387 170.399 27.6736 169.36 28.0596 168.453C28.4446 167.546 28.8957 162.529 29.0617 157.304C29.2267 152.079 29.5986 142.517 29.8866 136.054C30.2796 127.252 30.1077 124.3 29.2027 124.289C28.4527 124.279 28.5637 123.906 29.4947 123.304C30.7667 122.482 30.7207 122.332 29.1877 122.319C27.5207 122.305 27.5017 122.132 28.9377 120.081C30.6577 117.626 31.0837 112.822 29.4947 113.804C28.1257 114.65 28.2286 112.97 29.6316 111.567C31.5486 109.65 31.9017 100.934 30.0347 101.65C29.1877 101.975 28.4947 101.779 28.4947 101.214C28.4947 100.648 27.9327 100.471 27.2447 100.819C26.5577 101.167 26.6697 100.847 27.4947 100.108C30.3397 97.5577 31.6047 94.3766 30.5527 92.4116C30.0097 91.3966 29.8497 90.2828 30.1967 89.9348C30.5437 89.5878 30.2876 89.3037 29.6256 89.3037C28.7346 89.3037 28.7007 88.7877 29.4947 87.3037C30.3747 85.6587 30.2487 85.2827 28.7797 85.1877C27.1047 85.0787 27.1077 85.0428 28.8167 84.6008C30.5787 84.1448 30.5787 84.0808 28.8167 82.6348C27.2477 81.3478 27.2287 81.2138 28.6797 81.6658C30.7457 82.3098 31.4837 80.5506 30.3897 77.5886C29.9367 76.3656 29.9697 75.1287 30.4617 74.8237C30.9517 74.5207 31.2506 72.0597 31.1266 69.3547C31.0026 66.6497 31.2597 64.6587 31.6977 64.9297C32.1357 65.1997 32.4947 64.7198 32.4947 63.8628C32.4947 63.0058 31.9897 62.3037 31.3727 62.3037C30.6427 62.3037 30.7307 61.7246 31.6227 60.6506C32.5287 59.5596 33.0387 56.0258 33.1247 50.2498C33.1967 45.4378 33.5547 41.0156 33.9207 40.4226C34.2877 39.8296 34.1966 38.5487 33.7206 37.5747C33.2436 36.6007 32.9716 33.6207 33.1166 30.9517C33.3536 26.5787 33.1877 26.1506 31.4357 26.6086C30.3667 26.8886 29.7437 26.7087 30.0527 26.2107C30.3607 25.7117 31.2606 25.3037 32.0536 25.3037C32.8466 25.3037 33.4947 24.9508 33.4947 24.5188C33.4947 23.5198 44.4787 21.4678 45.0317 22.3638C45.2587 22.7308 52.0577 23.1167 60.1407 23.2207C68.2237 23.3257 76.8977 23.5837 79.4157 23.7937C81.9337 24.0027 88.2697 24.4646 93.4947 24.8176C98.7197 25.1716 106.145 25.6757 109.995 25.9387C113.845 26.2017 122.395 26.5997 128.995 26.8237C135.595 27.0487 145.157 27.4577 150.245 27.7327C157.108 28.1047 159.499 27.9208 159.51 27.0188C159.522 26.1008 159.721 26.1117 160.325 27.0637C161.657 29.1617 217.495 31.2848 217.495 29.2368C217.495 28.8008 218.75 28.8037 220.284 29.2427C223.968 30.2997 241.392 30.2808 244.21 29.2168C245.428 28.7568 246.622 28.7008 246.864 29.0928C247.37 29.9108 265.867 29.8197 281.995 28.9197C288.045 28.5827 299.07 28.0888 306.495 27.8228C313.92 27.5568 321.12 27.1008 322.495 26.8098C325.171 26.2428 347.521 24.9976 353.745 25.0686C355.808 25.0916 357.495 24.7667 357.495 24.3467C357.495 23.9257 358.549 23.7828 359.837 24.0288C361.201 24.2898 362.872 23.7836 363.837 22.8186C364.749 21.9066 365.495 21.6427 365.495 22.2327C365.495 22.8377 367.479 23.3037 370.054 23.3037C372.839 23.3037 374.373 22.9147 373.995 22.3037C373.655 21.7537 373.854 21.3037 374.436 21.3037C375.018 21.3037 375.495 21.6806 375.495 22.1416C375.495 23.4036 382.653 23.4167 384.171 22.1577C384.998 21.4717 385.495 21.4367 385.495 22.0647C385.495 22.6897 388.437 22.9138 393.245 22.6548C397.508 22.4258 407.52 22.0138 415.495 21.7388C423.47 21.4648 435.395 21.0406 441.995 20.7966C448.595 20.5526 459.17 20.3887 465.495 20.4307C482.16 20.5427 485.953 20.3207 486.342 19.2107C486.57 18.5617 487.108 18.5678 487.903 19.2278C488.63 19.8308 496.132 20.1796 506.626 20.0986Z" fill="#025354"/>
</svg>
