<svg width="1758" height="1236" fill="none" xmlns="http://www.w3.org/2000/svg">
    <path fill-rule="evenodd" clip-rule="evenodd" d="M625.397 1.6c-11.684 1.294-29.695 1.867-111 3.53-25.025.513-47.3 1.166-49.5 1.452-4.788.622-145.697 1.662-177 1.306-45.849-.521-175.441.424-185.5 1.353-5.775.534-27.15 1.208-47.5 1.499-38.423.549-46.135 1.232-48.945 4.337-2.39 2.64-2.47 6.236-2.992 133.561-.255 62.15-.702 123.125-.993 135.5-.952 40.391-1.374 220.789-.586 250 2.478 91.829 4.215 136.698 8.572 221.5 2.696 52.475 7.072 151.405 8.404 190 .551 15.95 1.226 32.825 1.501 37.5.274 4.675.745 20.202 1.047 34.502.302 14.3.75 28.7.996 32 .246 3.3.71 21.75 1.03 41 .813 48.95 3.51 98.41 5.838 107.1 1.25 4.66 1.208 5.3-.48 7.5-5.06 6.58.384 15.58 11.608 19.18 10.682 3.44 39.752 4.27 92.859 2.65 22.229-.68 41.194-.93 42.145-.57.951.37 15.543.69 32.427.73 33.114.06 32.349-.04 34.866 4.99 2.678 5.36 8.203 4.33 8.203-1.54 0-1.55.742-2.51 2.25-2.92 5.253-1.43 123.74 1.59 126.243 3.21.554.36 51.857.82 114.007 1.03 62.15.2 117.275.42 122.5.5 5.225.08 35.825-.22 68-.66 32.175-.44 62.1-.66 66.5-.5 14.314.53 39.039.09 93-1.68 42.384-1.38 55.71-1.5 66.531-.59 7.906.67 19.13.86 27 .47 10.693-.54 15.633-.31 23.969 1.1 8.912 1.51 13.601 1.67 31 1.05 11.273-.4 20.953-.72 21.503-.7 13.04.33 120.74 1.61 127.5 1.51 5.22-.08 60.35-.3 122.5-.5 62.15-.21 113.46-.67 114.02-1.04.57-.37 14.29-1.18 30.5-1.8 43.95-1.7 49.08-1.73 48.54-.32-.36.93.16.95 2.23.09 1.84-.76 21.84-1.3 62.21-1.68 76.52-.73 82.62-.73 125 .03 63.79 1.13 77.28-.78 82.46-11.7 2.02-4.26 1.91-7.4-.35-10.34-1.69-2.2-1.73-2.84-.48-7.5 2.32-8.69 5.02-58.15 5.83-107.1.32-19.25.79-37.7 1.03-41 .25-3.3.7-17.7 1-32 .3-14.3.77-29.827 1.05-34.502.27-4.675.95-21.55 1.5-37.5 1.33-38.595 5.7-137.525 8.4-190 4.43-86.132 6.5-140.007 8.51-221.5.38-15.675.77-62.744.85-104.598.08-41.853.45-76.953.82-78 .38-1.046.82-2.159.98-2.474.16-.314-.32-1.752-1.07-3.194-1.7-3.279-2.59-62.333-3.12-207.734-.42-113.975-.58-120.42-2.98-123.08-2.8-3.084-10.56-3.77-48.93-4.318-20.35-.291-41.73-.965-47.5-1.5-10.06-.928-139.65-1.873-185.5-1.352-31.31.356-172.21-.684-177-1.306-2.2-.286-24.48-.94-49.5-1.451-82.43-1.687-99.37-2.228-111.5-3.563-11.44-1.258-83.4-1.196-104.5.09-4.13.252-14.47.937-22.98 1.523-8.511.585-20.436.81-26.499.5-6.063-.31-15.749-.812-21.524-1.115-11.966-.628-37.871 1.036-49 3.148-10.184 1.933-44.816 1.933-55 0-11.129-2.112-37.034-3.776-49-3.148-5.775.303-15.461.805-21.524 1.115-6.063.31-17.988.085-26.5-.5a4015.888 4015.888 0 0 0-22.976-1.523c-20.18-1.233-94.018-1.273-105-.057Z" fill="#000"/>
</svg>
