<svg width="2124" height="3128" viewBox="0 0 2124 3128" fill="none" xmlns="http://www.w3.org/2000/svg">
<path fill-rule="evenodd" clip-rule="evenodd" d="M853.809 1.1424C833.438 2.6124 816.929 3.2034 794.309 3.2704C781.934 3.3074 761.909 3.76339 749.809 4.28439C737.709 4.80439 712.059 5.2324 692.809 5.2354L657.809 5.24039L635.809 7.1994L534.809 9.0994L518.809 10.6974C489.791 13.5944 480.062 14.1374 456.309 14.1844L432.809 14.2304L420.309 15.2144C389.515 17.6374 361.506 19.3314 305.421 22.1594L288.809 22.9974L260.309 22.5554C244.634 22.3114 226.325 22.1234 219.621 22.1364L207.434 22.1614L193.621 24.1484C186.025 25.2404 175.309 26.8044 169.809 27.6224C164.309 28.4414 151.484 29.7964 141.309 30.6334C131.134 31.4714 119.209 32.8514 114.809 33.7004L106.809 35.2454L103.059 38.9914V44.3794L107.054 48.3744L144.809 51.2894L158.309 50.7124C165.734 50.3954 180.134 49.1984 190.309 48.0514L208.809 45.9664L229.809 46.5794C241.359 46.9164 257.32 47.4814 265.279 47.8364L279.748 48.4814L308.279 47.3194C353.173 45.4924 352.923 45.5064 411.309 41.7404C423.684 40.9424 447.309 40.0554 463.809 39.7694L493.809 39.2484L508.309 37.7284C516.284 36.8914 528.771 35.7634 536.058 35.2204L549.308 34.2334L582.058 34.0404C600.071 33.9334 620.434 33.4894 627.309 33.0534C634.184 32.6174 665.234 31.8114 696.309 31.2624C727.384 30.7134 772.159 29.8194 795.809 29.2744L838.809 28.2854L864.809 25.9374L891.809 26.8024C920.688 27.7284 930.674 27.7624 1038.81 27.3024L1108.81 27.0044L1122.81 28.0644C1130.51 28.6474 1143.78 29.5794 1152.31 30.1374L1167.81 31.1494L1226.81 30.8384L1245.81 32.4694C1256.26 33.3654 1271.56 34.3434 1279.81 34.6414C1284.01 34.7933 1291.1 35.049 1299.08 35.337C1306.76 35.614 1315.26 35.9208 1322.81 36.1934C1338.21 36.7484 1353.28 37.4834 1356.31 37.8264C1359.33 38.1694 1376.89 38.3864 1395.32 38.3104L1428.83 38.1704L1444.82 39.7174C1453.61 40.5674 1468.01 41.8874 1476.81 42.6494L1492.81 44.0364L1664.81 45.3104L1674.31 46.1904C1679.53 46.6734 1691.23 47.3644 1700.31 47.7254L1716.81 48.3814L1736.16 46.7834C1746.81 45.9044 1759.86 45.1934 1765.16 45.2034L1774.81 45.2214L1792.31 47.6784C1801.93 49.0304 1812.73 50.5854 1816.31 51.1354C1819.88 51.6844 1832.93 52.6044 1845.31 53.1794C1857.68 53.7544 1875.23 54.6794 1884.31 55.2354L1900.81 56.2454L1927.31 56.2584C1941.88 56.2654 1958.53 55.9764 1964.31 55.6144L1974.81 54.9584L2014.81 57.6854L2047.56 57.1034L2047.33 81.3944C2047.2 94.7544 2047.4 119.41 2047.78 136.185C2048.15 152.96 2048.43 178.385 2048.41 192.685L2048.35 218.685L2051.32 244.13L2051.15 269.408C2051.05 283.31 2051.24 305.71 2051.56 319.185C2051.89 332.66 2052.42 358.085 2052.75 375.685C2053.08 393.285 2053.78 413.76 2054.31 421.185C2054.83 428.61 2055.53 450.435 2055.87 469.685C2056.2 488.935 2056.66 506.485 2056.89 508.685C2057.12 510.885 2057.54 530.46 2057.83 552.185C2058.78 624.017 2061.3 708.827 2062.8 719.405C2063.09 721.45 2063.58 734.275 2063.89 747.905C2064.2 761.534 2064.69 773.36 2064.99 774.185C2065.28 775.01 2065.92 791.21 2066.4 810.185C2067.86 867.471 2069.18 901.302 2070.24 908.685L2071.24 915.685L2071.35 943.685L2072.8 957.685C2073.6 965.385 2074.26 973.994 2074.28 976.816L2074.31 981.947L2069.53 994.685L2067.01 1010.36L2067.88 1029.02C2068.37 1039.29 2068.71 1053.99 2068.65 1061.69L2068.54 1075.69L2063.02 1116.69L2061.51 1192.69L2057.94 1216.69L2058.19 1244.44C2058.32 1259.7 2058.52 1282.42 2058.62 1294.94C2058.73 1307.45 2058.42 1327.59 2057.95 1339.69L2057.09 1361.69L2058.78 1377.19C2062.13 1407.79 2063.42 1427.89 2064.76 1470.19C2065.48 1493.06 2065.96 1499.97 2068.35 1522.69C2071.1 1548.7 2072.22 1566.25 2072.44 1586.69C2072.67 1608.26 2073.66 1622.3 2076.43 1643.69L2078.51 1659.69L2080.18 1751.69L2083.34 1792.69L2084.31 1882.69L2085.88 1900.19C2086.74 1909.81 2087.81 1921.29 2088.25 1925.69C2088.7 1930.09 2089.13 1946.96 2089.22 1963.19C2089.38 1992.01 2090.25 2011.21 2092.34 2031.97L2093.39 2042.26L2094.15 2129.69L2096.32 2159.81L2096.33 2223.25C2096.33 2258.14 2096.41 2292.99 2096.5 2300.69C2096.58 2308.39 2096.29 2326.84 2095.84 2341.69L2095.02 2368.69L2096.16 2383.69C2096.79 2391.94 2097.27 2404.76 2097.23 2412.19C2096.54 2526.17 2096.33 2558.3 2095.95 2601.19C2095.7 2628.96 2095.21 2677.56 2094.84 2709.19L2094.19 2766.69L2093.24 2780.69C2092.73 2788.39 2091.83 2799.64 2091.26 2805.69L2090.21 2816.69L2089.51 2877.69L2084.2 2918.69L2083.22 2968.69L2079.09 3021.44L2079.54 3042.56C2079.79 3054.18 2080.3 3064.38 2080.68 3065.24L2081.37 3066.79L2062.81 3066.69L2052.21 3071.47L2040.01 3070.27C2033.3 3069.6 2019.48 3067.87 2009.31 3066.42L1990.81 3063.78L1952.81 3063.69L1923.81 3066.13L1867.81 3067.12L1849.81 3069.64C1839.91 3071.03 1827.98 3072.66 1823.31 3073.27L1814.81 3074.38L1792.31 3074.32C1779.93 3074.29 1761.71 3074.72 1751.81 3075.28C1733.1 3076.33 1706.1 3076.56 1698.31 3075.73C1695.83 3075.46 1689.31 3074.76 1683.81 3074.17C1678.31 3073.58 1659.99 3072.68 1643.1 3072.18C1626.21 3071.68 1603.71 3070.81 1593.1 3070.24L1573.81 3069.22L1476.81 3068.34L1452.81 3069.26C1439.61 3069.76 1423.86 3070.38 1417.81 3070.62C1411.76 3070.87 1398.71 3071.14 1388.81 3071.22L1370.81 3071.37L1344.31 3073.22C1329.73 3074.25 1312.41 3075.53 1305.81 3076.07C1299.21 3076.62 1284.13 3077.32 1272.31 3077.65C1260.48 3077.97 1248.11 3078.45 1244.81 3078.71C1224.24 3080.37 1189.26 3082.43 1160.31 3083.7C1141.88 3084.5 1118.26 3085.81 1107.81 3086.6C1097.36 3087.39 1080.93 3088.31 1071.31 3088.65C1046.59 3089.52 1016.13 3091.05 1000.31 3092.21C992.884 3092.76 968.134 3093.87 945.309 3094.68C922.484 3095.49 893.459 3096.59 880.809 3097.12C868.159 3097.66 837.334 3098.57 812.309 3099.14C787.284 3099.72 758.484 3100.41 748.309 3100.68C738.134 3100.94 710.459 3101.5 686.809 3101.92L643.809 3102.69L318.809 3102.45L284.309 3101.25C265.334 3100.59 224.834 3099.64 194.309 3099.13L138.809 3098.21L131.809 3097.2C119.75 3095.47 100.479 3094.25 82.309 3094.06C61.507 3093.85 44.529 3092.38 29.961 3089.54L27.112 3088.98L27.675 3084.83C27.984 3082.55 28.511 3077.09 28.846 3072.69C29.182 3068.29 30.11 3059.29 30.91 3052.69L32.364 3040.69L32.341 3004.69L30.833 2989.02C30.003 2980.4 28.88 2970.28 28.336 2966.52L27.349 2959.69L27.345 2944.69C27.342 2936.44 27.793 2924.29 28.346 2917.69C28.899 2911.09 29.543 2897.59 29.776 2887.69L30.201 2869.69L26.205 2809.69L29.592 2742.69L28.312 2663.53L29.388 2642.61C30.582 2619.38 30.902 2591.46 30.622 2534.69C30.519 2513.79 30.655 2493.99 30.925 2490.69C31.195 2487.39 31.552 2457.24 31.719 2423.69L32.021 2362.69L34.44 2321.69L34.128 2294.19C33.956 2279.06 33.949 2244.07 34.111 2216.44L34.406 2166.19L29.074 2097.69L31.549 2033.03L28.972 1966.69L30.691 1948.69C31.637 1938.79 32.579 1929.34 32.784 1927.69C32.989 1926.04 33.705 1918.62 34.375 1911.2L35.593 1897.72L34.561 1861.69L35.373 1848.69C35.82 1841.54 37.392 1824.89 38.868 1811.69L41.551 1787.69L42.339 1693.69L44.334 1671.69C45.432 1659.59 46.776 1639.56 47.321 1627.19C49.973 1566.96 50.498 1557.54 52.05 1542.19L53.719 1525.69L53.809 1353.69L53.022 1341.19C52.589 1334.31 52.043 1327.56 51.808 1326.19C51.574 1324.81 50.902 1314.24 50.315 1302.69C49.728 1291.14 48.562 1276.74 47.724 1270.69L46.2 1259.69L49.418 1247.69L50.331 1223.69C51.183 1201.31 51.878 1191.01 54.245 1165.69C54.759 1160.19 55.456 1151.41 55.793 1146.19L56.406 1136.69L55.406 1121.69C54.855 1113.44 53.878 1098.81 53.233 1089.19L52.061 1071.69L53.435 1039.19C54.191 1021.31 54.751 1001.96 54.68 996.185C54.609 990.41 54.384 975.56 54.18 963.185L53.809 940.685L55.031 931.185C55.704 925.96 56.466 917.41 56.724 912.185C56.983 906.96 57.708 896.579 58.335 889.115L59.476 875.546L58.451 861.674C57.888 854.045 57.575 847.551 57.756 847.244C59.005 845.125 60.963 785.15 59.954 779.964L59.229 776.244L54.131 770.185H46.487L43.976 773.169C42.594 774.811 40.571 778.542 39.479 781.461L37.493 786.768L36.42 796.227C34.819 810.347 33.942 833.373 33.812 864.685L33.697 892.685L32.548 908.685C31.916 917.485 30.656 932.11 29.749 941.185L28.1 957.685L30.576 994.638L29.878 1009.9C29.494 1018.3 28.95 1026.41 28.67 1027.93C28.389 1029.44 28.089 1043.06 28.004 1058.19L27.849 1085.69L30.723 1114.69L30.773 1160.69L28.197 1187.69L28.172 1205.69C28.139 1228.81 28.802 1270.77 29.871 1313.19C30.857 1352.35 30.87 1377.88 29.944 1456.19L29.264 1513.69L28.253 1524.69C26.185 1547.2 23.41 1588.08 23.263 1598.21C22.992 1616.99 21.297 1645.28 19.219 1665.69L17.183 1685.69L16.743 1713.19C16.5 1728.31 16.104 1751.49 15.862 1764.69L15.422 1788.69L13.364 1806.19C12.233 1815.81 10.822 1828.41 10.23 1834.19L9.15401 1844.69L8.63 1909.69L3.08101 1960.69L3.94101 1988.69C4.80501 2016.81 4.823 2023.88 4.192 2084.69L3.849 2117.69L7.57401 2151.69L8.173 2321.69L5.29401 2375.69L6.12001 2462.69L5.255 2477.69C4.081 2498.03 3.62501 2539.15 4.29001 2564.69L4.83701 2585.69L2.98801 2640.69L2.80901 2757.69L0 2806.94L3.67201 2856.69L3.49101 2899.69L0.457001 2945.06L0.935013 2953.87C1.19801 2958.72 2.32301 2969.89 3.43501 2978.69L5.457 2994.69L6.836 3025.74L6.13701 3035.71C5.75301 3041.2 4.978 3052.21 4.414 3060.19L3.39 3074.69L4.425 3093.69L8.80901 3102.69L15.891 3106.48L23.197 3103.01L32.003 3105.52C36.846 3106.9 44.859 3108.99 49.809 3110.16L58.809 3112.28L84.309 3114.22C98.334 3115.29 119.034 3117.3 130.309 3118.68L150.809 3121.2L205.309 3122.68C235.284 3123.49 271.059 3124.61 284.809 3125.18C341.803 3127.53 582.811 3128.5 681.309 3126.77C744.405 3125.67 768.824 3125.18 785.309 3124.69C794.384 3124.42 815.534 3123.95 832.309 3123.64C860.526 3123.13 894.003 3121.87 910.809 3120.67C914.659 3120.4 932.884 3119.71 951.309 3119.15C969.734 3118.59 995.834 3117.49 1009.31 3116.72C1037.79 3115.08 1051.86 3114.41 1073.31 3113.66C1087 3113.18 1117.65 3111.19 1134.81 3109.66C1138.11 3109.37 1153.91 3108.7 1169.92 3108.18C1185.93 3107.66 1210.68 3106.35 1224.92 3105.27C1239.16 3104.19 1259.81 3103.05 1270.81 3102.73C1299.7 3101.9 1322.23 3100.56 1338.81 3098.67C1341.01 3098.42 1356.98 3097.77 1374.31 3097.22C1391.63 3096.67 1411.43 3096 1418.31 3095.74C1425.18 3095.47 1456.68 3094.97 1488.31 3094.63L1545.81 3094L1575.81 3095.11C1592.31 3095.72 1619.76 3096.68 1636.81 3097.24L1667.81 3098.26L1702.81 3101.93L1722.31 3101.6C1733.03 3101.42 1760.48 3100.83 1783.31 3100.3L1824.81 3099.33L1838.31 3097.24C1845.73 3096.09 1854.73 3094.68 1858.31 3094.1L1864.81 3093.04L1932.81 3091.41L1970.73 3087.84L2027.51 3092.48L2052.81 3091.22L2069.72 3087.31L2082.81 3090.38L2093.02 3089.36L2098.92 3086.37C2102.16 3084.73 2105.89 3082.23 2107.2 3080.82L2109.6 3078.25L2110.55 3068.31L2102.1 3052.69L2103.23 3032.69C2103.84 3021.69 2105.24 3004.14 2106.33 2993.69L2108.31 2974.7L2108.31 2958.19C2108.32 2938.56 2109.66 2919.41 2112.45 2899.36L2114.48 2884.69L2116.13 2813.69L2119.56 2782.69L2119.8 2744.19C2119.93 2723.01 2120.37 2694.21 2120.77 2680.19C2121.47 2656.01 2121.68 2636.16 2122.84 2483.69C2123.46 2401.26 2123.47 2401.7 2122.15 2381.69L2121.03 2364.69L2121.91 2340.69C2122.39 2327.49 2122.72 2310.61 2122.64 2303.19C2122.56 2295.76 2122.45 2259.54 2122.39 2222.69L2122.27 2155.69L2120.13 2129.69L2119.39 2041.26L2117.81 2022.97C2116.31 2005.48 2115.87 1993.9 2114.87 1944.69L2114.42 1922.69L2113.44 1915.19C2112.9 1911.06 2111.97 1900.71 2111.38 1892.19L2110.3 1876.69L2109.44 1788.69L2106.22 1752.69L2104.49 1658.69L2102.46 1643.19C2099.68 1621.9 2098.49 1604.87 2097.82 1576.69C2097.51 1563.49 2096.83 1548.41 2096.32 1543.19C2095.8 1537.96 2094.47 1524.69 2093.36 1513.69L2091.35 1493.69L2088.27 1414.17L2083.31 1363.01L2083.3 1351.35C2083.3 1344.93 2083.82 1328.52 2084.47 1314.88L2085.65 1290.07L2082.85 1258.69L2083.03 1225.69L2088.18 1180.69L2088.09 1124.69L2089.67 1112.69C2092.16 1093.71 2094.16 1076.36 2094.85 1067.69L2095.48 1059.69L2094.4 1047.5C2093.81 1040.81 2093.03 1026.86 2092.68 1016.5L2092.04 997.685L2095.55 980.685L2095.25 910.685L2094.32 902.185C2093.31 893.002 2092.41 862.705 2091.78 816.685L2091.38 787.685L2089.25 771.274L2088.83 748.979C2088.6 736.717 2087.94 719.71 2087.37 711.185C2085.42 682.086 2084.21 641.723 2083.78 590.685C2083.53 562.635 2082.86 528.435 2082.29 514.685C2081.71 500.935 2080.85 472.964 2080.39 452.527C2079.92 432.091 2079.31 414.991 2079.02 414.527C2078.74 414.064 2078.2 397.26 2077.82 377.185C2077.45 357.11 2077 338.885 2076.82 336.685C2076.65 334.485 2076.22 311.085 2075.88 284.685L2075.25 236.685L2073.29 224.304L2072.74 169.546C2072.43 139.429 2072.02 114.531 2071.83 114.217C2071.64 113.903 2071.18 110.055 2070.83 105.666C2070.47 101.276 2069.76 96.1104 2069.25 94.1854L2068.32 90.6854L2068.31 75.6854C2068.3 67.4354 2067.88 57.0544 2067.37 52.6164L2066.44 44.5484L2063.11 36.2234L2056.13 31.9144L2048.97 32.7444C2038.68 33.9364 2033.82 33.7904 2015.31 31.7314L1998.81 29.8964L1898.97 30.2574L1887.39 29.2814C1881.02 28.7434 1867.93 28.0434 1858.31 27.7244C1833.62 26.9064 1826.76 26.3264 1810.31 23.6664C1802.33 22.3764 1790.67 20.7744 1784.39 20.1054L1772.98 18.8894L1754.39 19.5944C1744.17 19.9824 1731.31 20.6124 1725.81 20.9944L1715.81 21.6894L1698.31 21.0444C1688.68 20.6894 1678.56 20.1324 1675.81 19.8064C1673.06 19.4814 1639.76 18.9604 1601.81 18.6494C1563.86 18.3384 1522.68 17.8994 1510.31 17.6744L1487.81 17.2664L1432.02 12.1854L1368.81 12.1844L1350.81 11.2144C1340.91 10.6814 1317.96 9.76439 1299.81 9.17839L1266.81 8.1124L1228.81 4.85739L1187.81 4.67639C1165.26 4.57639 1145.23 4.19739 1143.31 3.83339C1141.38 3.46939 1133.06 2.71239 1124.81 2.15039L1109.81 1.12939L1077.31 1.1044C1059.43 1.0914 1016.68 1.21639 982.309 1.38339C947.934 1.54939 907.434 1.38439 892.309 1.01639L864.809 0.348389L853.809 1.1424Z" fill="currentColor"/>
<path d="M158.309 50.7124L144.809 51.2894L107.054 48.3744L46.487 770.185H54.131L59.229 776.244L59.954 779.964C60.963 785.15 59.005 845.125 57.756 847.244C57.575 847.551 57.888 854.045 58.451 861.674L59.476 875.546L58.335 889.115C57.708 896.579 56.983 906.96 56.724 912.185C56.466 917.41 55.704 925.96 55.031 931.185L53.809 940.685L54.18 963.185C54.384 975.56 54.609 990.41 54.68 996.185C54.751 1001.96 54.191 1021.31 53.435 1039.19L52.061 1071.69L53.233 1089.19C53.878 1098.81 54.855 1113.44 55.406 1121.69L56.406 1136.69L55.793 1146.19C55.456 1151.41 54.759 1160.19 54.245 1165.69C51.878 1191.01 51.183 1201.31 50.331 1223.69L49.418 1247.69L46.2 1259.69L47.724 1270.69C48.562 1276.74 49.728 1291.14 50.315 1302.69C50.902 1314.24 51.574 1324.81 51.808 1326.19C52.043 1327.56 52.589 1334.31 53.022 1341.19L53.809 1353.69L53.719 1525.69L52.05 1542.19C50.498 1557.54 49.973 1566.96 47.321 1627.19C46.776 1639.56 45.432 1659.59 44.334 1671.69L42.339 1693.69L41.551 1787.69L38.868 1811.69C37.392 1824.89 35.82 1841.54 35.373 1848.69L34.561 1861.69L35.593 1897.72L34.375 1911.2C33.705 1918.62 32.989 1926.04 32.784 1927.69C32.579 1929.34 31.637 1938.79 30.691 1948.69L28.972 1966.69L31.549 2033.03L29.074 2097.69L34.406 2166.19L34.111 2216.44C33.949 2244.07 33.956 2279.06 34.128 2294.19L34.44 2321.69L32.021 2362.69L31.719 2423.69C31.552 2457.24 31.195 2487.39 30.925 2490.69C30.655 2493.99 30.519 2513.79 30.622 2534.69C30.902 2591.46 30.582 2619.38 29.388 2642.61L28.312 2663.53L29.592 2742.69L26.205 2809.69L30.201 2869.69L29.776 2887.69C29.543 2897.59 28.899 2911.09 28.346 2917.69C27.793 2924.29 27.342 2936.44 27.345 2944.69L27.349 2959.69L28.336 2966.52C28.88 2970.28 30.003 2980.4 30.833 2989.02L32.341 3004.69L32.364 3040.69L30.91 3052.69C30.11 3059.29 29.182 3068.29 28.846 3072.69C28.511 3077.09 27.984 3082.55 27.675 3084.83L27.112 3088.98L29.961 3089.54C44.529 3092.38 61.507 3093.85 82.309 3094.06C100.479 3094.25 119.75 3095.47 131.809 3097.2L138.809 3098.21L194.309 3099.13C224.834 3099.64 265.334 3100.59 284.309 3101.25L318.809 3102.45L643.809 3102.69L686.809 3101.92C710.459 3101.5 738.134 3100.94 748.309 3100.68C758.484 3100.41 787.284 3099.72 812.309 3099.14C837.334 3098.57 868.159 3097.66 880.809 3097.12C893.459 3096.59 922.484 3095.49 945.309 3094.68C968.134 3093.87 992.884 3092.76 1000.31 3092.21C1016.13 3091.05 1046.59 3089.52 1071.31 3088.65C1080.93 3088.31 1097.36 3087.39 1107.81 3086.6C1118.26 3085.81 1141.88 3084.5 1160.31 3083.7C1189.26 3082.43 1224.24 3080.37 1244.81 3078.71C1248.11 3078.45 1260.48 3077.97 1272.31 3077.65C1284.13 3077.32 1299.21 3076.62 1305.81 3076.07C1312.41 3075.53 1329.73 3074.25 1344.31 3073.22L1370.81 3071.37L1388.81 3071.22C1398.71 3071.14 1411.76 3070.87 1417.81 3070.62C1423.86 3070.38 1439.61 3069.76 1452.81 3069.26L1476.81 3068.34L1573.81 3069.22L1593.1 3070.24C1603.71 3070.81 1626.21 3071.68 1643.1 3072.18C1659.99 3072.68 1678.31 3073.58 1683.81 3074.17C1689.31 3074.76 1695.83 3075.46 1698.31 3075.73C1706.1 3076.56 1733.1 3076.33 1751.81 3075.28C1761.71 3074.72 1779.93 3074.29 1792.31 3074.32L1814.81 3074.38L1823.31 3073.27C1827.98 3072.66 1839.91 3071.03 1849.81 3069.64L1867.81 3067.12L1923.81 3066.13L1952.81 3063.69L1990.81 3063.78L2009.31 3066.42C2019.48 3067.87 2033.3 3069.6 2040.01 3070.27L2052.21 3071.47L2062.81 3066.69L2081.37 3066.79L2080.68 3065.24C2080.3 3064.38 2079.79 3054.18 2079.54 3042.56L2079.09 3021.44L2083.22 2968.69L2084.2 2918.69L2089.51 2877.69L2090.21 2816.69L2091.26 2805.69C2091.83 2799.64 2092.73 2788.39 2093.24 2780.69L2094.19 2766.69L2094.84 2709.19C2095.21 2677.56 2095.7 2628.96 2095.95 2601.19C2096.33 2558.3 2096.54 2526.17 2097.23 2412.19C2097.27 2404.76 2096.79 2391.94 2096.16 2383.69L2095.02 2368.69L2095.84 2341.69C2096.29 2326.84 2096.58 2308.39 2096.5 2300.69C2096.41 2292.99 2096.33 2258.14 2096.33 2223.25L2096.32 2159.81L2094.15 2129.69L2093.39 2042.26L2092.34 2031.97C2090.25 2011.21 2089.38 1992.01 2089.22 1963.19C2089.13 1946.96 2088.7 1930.09 2088.25 1925.69C2087.81 1921.29 2086.74 1909.81 2085.88 1900.19L2084.31 1882.69L2083.34 1792.69L2080.18 1751.69L2078.51 1659.69L2076.43 1643.69C2073.66 1622.3 2072.67 1608.26 2072.44 1586.69C2072.22 1566.25 2071.1 1548.7 2068.35 1522.69C2065.96 1499.97 2065.48 1493.06 2064.76 1470.19C2063.42 1427.89 2062.13 1407.79 2058.78 1377.19L2057.09 1361.69L2057.95 1339.69C2058.42 1327.59 2058.73 1307.45 2058.62 1294.94C2058.52 1282.42 2058.32 1259.7 2058.19 1244.44L2057.94 1216.69L2061.51 1192.69L2063.02 1116.69L2068.54 1075.69L2068.65 1061.69C2068.71 1053.99 2068.37 1039.29 2067.88 1029.02L2067.01 1010.36L2069.53 994.685L2074.31 981.947L2074.28 976.816C2074.26 973.994 2073.6 965.385 2072.8 957.685L2071.35 943.685L2071.24 915.685L2070.24 908.685C2069.18 901.302 2067.86 867.471 2066.4 810.185C2065.92 791.21 2065.28 775.01 2064.99 774.185C2064.69 773.36 2064.2 761.534 2063.89 747.905C2063.58 734.275 2063.09 721.45 2062.8 719.405C2061.3 708.827 2058.78 624.017 2057.83 552.185C2057.54 530.46 2057.12 510.885 2056.89 508.685C2056.66 506.485 2056.2 488.935 2055.87 469.685C2055.53 450.435 2054.83 428.61 2054.31 421.185C2053.78 413.76 2053.08 393.285 2052.75 375.685C2052.42 358.085 2051.89 332.66 2051.56 319.185C2051.24 305.71 2051.05 283.31 2051.15 269.408L2051.32 244.13L2048.35 218.685L2048.41 192.685C2048.43 178.385 2048.15 152.96 2047.78 136.185C2047.4 119.41 2047.2 94.7544 2047.33 81.3944L2047.56 57.1034L2014.81 57.6854L1974.81 54.9584L1964.31 55.6144C1958.53 55.9764 1941.88 56.2654 1927.31 56.2584L1900.81 56.2454L1884.31 55.2354C1875.23 54.6794 1857.68 53.7544 1845.31 53.1794C1832.93 52.6044 1819.88 51.6844 1816.31 51.1354C1812.73 50.5854 1801.93 49.0304 1792.31 47.6784L1774.81 45.2214L1765.16 45.2034C1759.86 45.1934 1746.81 45.9044 1736.16 46.7834L1716.81 48.3814L1700.31 47.7254C1691.23 47.3644 1679.53 46.6734 1674.31 46.1904L1664.81 45.3104L1492.81 44.0364L1476.81 42.6494C1468.01 41.8874 1453.61 40.5674 1444.82 39.7174L1428.83 38.1704L1395.32 38.3104C1376.89 38.3864 1359.33 38.1694 1356.31 37.8264C1353.28 37.4834 1338.21 36.7484 1322.81 36.1934L1299.08 35.337L1279.81 34.6414C1271.56 34.3434 1256.26 33.3654 1245.81 32.4694L1226.81 30.8384L1167.81 31.1494L1152.31 30.1374C1143.78 29.5794 1130.51 28.6474 1122.81 28.0644L1108.81 27.0044L1038.81 27.3024C930.674 27.7624 920.688 27.7284 891.809 26.8024L864.809 25.9374L838.809 28.2854L795.809 29.2744C772.159 29.8194 727.384 30.7134 696.309 31.2624C665.234 31.8114 634.184 32.6174 627.309 33.0534C620.434 33.4894 600.071 33.9334 582.058 34.0404L549.308 34.2334L536.058 35.2204C528.771 35.7634 516.284 36.8914 508.309 37.7284L493.809 39.2484L463.809 39.7694C447.309 40.0554 423.684 40.9424 411.309 41.7404C352.923 45.5064 353.173 45.4924 308.279 47.3194L279.748 48.4814L265.279 47.8364C257.32 47.4814 241.359 46.9164 229.809 46.5794L208.809 45.9664L190.309 48.0514C180.134 49.1984 165.734 50.3954 158.309 50.7124Z" fill="currentColor"/>
</svg>
