<svg width="1175" height="530" viewBox="0 0 1175 530" fill="none" xmlns="http://www.w3.org/2000/svg">
<path fill-rule="evenodd" clip-rule="evenodd" d="M332.889 1.56198L330.672 2.67999L329.613 5.88397L328.556 9.08899L329.831 12.9L331.107 16.712L333.771 18.688L336.433 20.664L338.893 20.046C340.247 19.706 342.425 18.562 343.732 17.504L346.107 15.58V10.519V5.45898L344.047 3.39899L341.987 1.33899L338.547 0.890991L335.107 0.442993L332.889 1.56198ZM144.41 23.802L139.713 25.067L135.659 27.75L131.605 30.433L128.11 35.168L124.616 39.903L122.575 46.375L120.535 52.848L119.961 63.375L119.387 73.903L120.988 80.674C124.535 95.683 132.224 103.713 146.104 106.904L151.1 108.053L155.57 107.218L160.039 106.383L163.717 103.949L167.395 101.515L170.501 95.299L173.607 89.084V83.148V77.212L171.916 74.35L170.226 71.488L167.345 70.294L164.464 69.101L161.076 70.716L157.688 72.332L154.701 77.618C153.058 80.525 151.333 83.531 150.867 84.299L150.021 85.695L146.208 84.436L142.395 83.178L140.494 78.881L138.594 74.585L138.535 62.582L138.476 50.58L140.601 46.416L142.725 42.252L146.166 40.814L149.607 39.376L152.939 40.768L156.271 42.161L158.431 44.906L160.591 47.652L159.999 51.355L159.406 55.058L161.829 57.875L164.252 60.692L167.912 60.006L171.572 59.319L174.21 54.818L176.848 50.317L176.411 45.058L175.975 39.799L172.871 35.286L169.766 30.774L165.832 28.17C158.397 23.25 151.605 21.865 144.41 23.802ZM197.107 24.851L193.107 26.32L189.93 29.767L186.753 33.214L185.686 37.059C185.099 39.173 184.627 42.478 184.636 44.403L184.652 47.903L186.537 52.056L188.423 56.21L190.477 56.862L192.532 57.514L194.496 56.462L196.46 55.411L198.535 49.87C199.675 46.822 200.607 43.925 200.607 43.433C200.607 42.941 201.49 42.258 202.569 41.915L204.532 41.292L206.493 42.341C207.571 42.918 209.387 44.579 210.529 46.032L212.607 48.673L212.54 53.288L212.472 57.903L204.29 61.833C199.79 63.994 194.591 66.871 192.738 68.224L189.369 70.686L187.483 74.951L185.597 79.217L185.029 85.06L184.462 90.903L186.785 95.403L189.107 99.903L193.569 102.153L198.032 104.403L200.569 104.397C201.965 104.394 204.769 103.93 206.8 103.366L210.493 102.341L214.645 98.871L218.798 95.402L221.606 97.403L224.416 99.403H227.446C229.113 99.403 231.619 98.969 233.014 98.438L235.551 97.474L236.16 95.046L236.77 92.618L235.188 89.56L233.607 86.502L233.6 73.703C233.596 66.663 233.155 57.102 232.621 52.457L231.65 44.011L229.025 38.646L226.402 33.282L219.437 28.651L212.475 24.021L206.79 23.702L201.107 23.383L197.107 24.851ZM78.6075 25.466C74.8615 27.042 70.8295 31.278 67.4405 37.198L64.4095 42.492L63.8975 48.198L63.3855 53.903L64.4945 58.002C65.8225 62.912 69.1355 67.999 72.7435 70.671L75.3795 72.623L81.7435 74.365L88.1075 76.107V80.468V84.828L84.1435 85.766L80.1785 86.703L75.8785 85.553C73.5135 84.921 70.0815 84.403 68.2515 84.403H64.9245L63.7365 88.366L62.5495 92.329L63.9905 95.778L65.4325 99.228L69.4545 103.25L73.4775 107.273L77.2925 108.332C82.2195 109.701 88.5905 109.688 94.1065 108.299L98.4905 107.195L102.692 103.598L106.895 100.001L109.156 94.889L111.416 89.777L112.108 84.241L112.8 78.704L111.231 72.582L109.663 66.461L107.385 62.867L105.107 59.273L100.361 56.823L95.6155 54.373L89.5945 53.744L83.5735 53.115L82.9775 50.739L82.3805 48.364L83.6245 45.362C84.3085 43.711 85.2635 42.116 85.7475 41.817L86.6265 41.273L93.3665 43.943C97.0745 45.411 101.073 47.5 102.253 48.584L104.399 50.556L107.253 50.229L110.107 49.903L110.423 45.485L110.738 41.066L104.305 34.911L97.8725 28.756L94.2395 27.033L90.6065 25.309L85.8565 24.862L81.1075 24.415L78.6075 25.466ZM440.896 27.653L435.776 30.903L431.17 36.855L426.564 42.807L425.168 47.508C424.401 50.094 423.456 56.266 423.068 61.224L422.362 70.239L423.603 80.571L424.845 90.903L426.264 94.366C427.045 96.271 428.411 98.634 429.3 99.616L430.917 101.403H433.227H435.537L436.545 99.519L437.555 97.634L438.451 79.269L439.347 60.903L442.456 52.903C445.938 43.941 448.086 40.403 450.049 40.403H451.378L452.974 42.839C456.888 48.812 458.772 53.002 460.125 58.74L461.577 64.903L461.61 70.903C461.628 74.203 462.285 81.114 463.068 86.261L464.492 95.618L466.204 97.511L467.917 99.403H471.24H474.561L476.029 97.153L477.497 94.903L478.641 86.903C479.271 82.503 480.146 75.303 480.587 70.903C481.693 59.868 482.386 57.599 486.295 52.206L489.701 47.509L493.021 45.456C497.282 42.823 497.249 42.816 499.255 46.653L500.956 49.903L501.566 70.403L502.177 90.903L504.642 95.903L507.107 100.903H509.022H510.938L513.896 96.09L516.853 91.277L517.837 82.59L518.82 73.903L518.339 58.903L517.857 43.903L516.18 39.903C513.998 34.701 510.089 30.605 505.107 28.299L501.107 26.447L495.607 26.43L490.107 26.413L486.359 28.682L482.612 30.951L478.51 36.427C476.254 39.439 474.247 42.071 474.05 42.277C473.853 42.483 472.614 40.233 471.297 37.277L468.899 31.903L466.13 29.166L463.36 26.429L459.734 25.421C457.739 24.867 453.836 24.412 451.061 24.409L446.014 24.403L440.896 27.653ZM378.107 27.786L373.107 30.15L370.411 33.027C368.928 34.609 366.7 38.153 365.461 40.903L363.208 45.903L363.159 52.095L363.107 58.287L366.581 61.873L370.053 65.459L377.581 69.027L385.107 72.595L387.816 75.749C389.307 77.484 390.544 79.404 390.566 80.017L390.607 81.131L386.324 82.767L382.04 84.403H375.324H368.607V83.058C368.607 78.872 363.703 77.534 359.568 80.591L356.607 82.779V86.013V89.248L359.878 93.575L363.147 97.903L366.85 99.722L370.553 101.542L376.047 102.109L381.542 102.676L387.792 101.447L394.04 100.217L398.819 97.796L403.599 95.374L406.241 91.38L408.883 87.387L408.352 81.532L407.821 75.676L405.865 71.29C404.789 68.877 401.864 64.403 399.362 61.347L394.814 55.792L388.461 52.448C384.967 50.609 381.933 48.959 381.719 48.781C381.504 48.603 382.539 46.87 384.018 44.93L386.709 41.403H390.68H394.651L398.604 44.019L402.557 46.636L404.024 46.073C404.831 45.764 406.219 44.399 407.11 43.039L408.729 40.568L407.685 36.688L406.639 32.808L403.873 30.241C402.352 28.83 399.577 27.164 397.708 26.539L394.31 25.403L388.708 25.413L383.107 25.423L378.107 27.786ZM21.4925 27.74C19.5045 28.474 16.4795 30.07 14.7705 31.287L11.6635 33.499L8.60648 39.905C6.92448 43.428 4.66248 49.779 3.57848 54.017L1.60748 61.723V67.958V74.192L3.61748 80.699L5.62749 87.206L8.86748 92.036L12.1075 96.865L18.1075 99.871L24.1075 102.876L31.6725 102.89L39.2365 102.903L45.1525 99.88L51.0695 96.858L53.3215 92.88L55.5745 88.903L55.5915 85.076L55.6075 81.249L52.6845 78.326L49.7615 75.403H48.2215C47.3745 75.403 44.3985 76.303 41.6075 77.403L36.5335 79.403H32.0965H27.6585L26.2535 76.653C25.4805 75.141 24.5465 72.5 24.1775 70.784L23.5065 67.666L31.3065 67.201L39.1075 66.737L47.9285 63.371L56.7505 60.005L57.8015 58.041L58.8525 56.076L58.3635 49.236L57.8745 42.396L55.4475 37.68L53.0205 32.964L49.7635 31.062L46.5075 29.16L39.3075 28.202C35.3475 27.675 30.5325 27.055 28.6075 26.825L25.1075 26.406L21.4925 27.74ZM255.14 29.712C254.309 30.981 253.174 34.418 252.618 37.348L251.607 42.676L251.601 53.289C251.594 64.917 253.188 93.964 254.574 107.458L255.454 116.012L257.169 119.61L258.885 123.208L261.41 124.359L263.935 125.51L266.641 124.389L269.348 123.268L270.477 120.788L271.607 118.309L271.621 109.106C271.628 104.044 271.895 98.931 272.214 97.743L272.793 95.583L276.168 96.993C280.41 98.765 284.751 98.788 288.889 97.058L292.107 95.714L297.222 90.808L302.336 85.903L304.651 79.903L306.964 73.903L307.383 61.87L307.801 49.836L306.678 45.665L305.555 41.494L302.872 38.306L300.189 35.117L295.148 32.77L290.107 30.423L286.6 30.413C284.672 30.407 281.549 30.846 279.662 31.387L276.229 32.372L272.536 35.34L268.842 38.308L267.138 33.844L265.433 29.38L263.586 28.392C262.57 27.848 260.594 27.403 259.196 27.403H256.653L255.14 29.712ZM333.891 30.178L331.675 30.533L329.24 33.428L326.803 36.324L325.576 43.189L324.349 50.055L325.159 66.979C325.604 76.287 325.851 84.346 325.709 84.888C325.567 85.43 325.723 87.691 326.056 89.913L326.662 93.952L329.384 97.045L332.107 100.138L335.357 100.746L338.608 101.353L341.057 100.422L343.506 99.491L344.732 95.197L345.956 90.903L346.029 75.903L346.099 60.903L344.967 48.903L343.834 36.903L342.583 34.203L341.331 31.503L338.719 30.663C337.282 30.201 335.11 29.983 333.891 30.178ZM44.2105 45.875C46.2625 48.682 46.0995 48.883 40.2695 50.72L34.9315 52.403H30.1625H25.3935L26.0005 50.821C26.3345 49.951 26.6075 48.633 26.6075 47.893C26.6075 47.152 27.2025 45.951 27.9295 45.224L29.2515 43.903L36.0325 43.934L42.8135 43.965L44.2105 45.875ZM291.107 46.495L293.107 48.461L292.956 58.182L292.803 67.903L291.422 72.366L290.04 76.83L286.85 78.693L283.66 80.556L278.243 79.431L272.825 78.307L272.233 73.105C271.906 70.244 271.561 64.328 271.464 59.958L271.288 52.014L275.507 48.27L279.725 44.527L281.917 44.083C285.317 43.394 288.913 44.338 291.107 46.495ZM573.107 48.121C572.007 48.388 569.639 49.713 567.846 51.064C566.052 52.416 563.602 53.711 562.401 53.943C561.201 54.174 559.554 55.029 558.74 55.843L557.259 57.323L556.506 62.613C556.092 65.522 555.72 72.659 555.68 78.471L555.607 89.04L557.135 94.184L558.662 99.328L560.857 100.866L563.052 102.403H565.875H568.698L571.274 99.827L573.85 97.251L573.224 89.077C572.879 84.581 572.355 77.753 572.06 73.903L571.523 66.903L572.565 65.403L573.607 63.903L574.451 65.208C574.915 65.926 575.817 71.326 576.457 77.208C577.097 83.09 578.086 89.577 578.654 91.622L579.685 95.341L582.234 98.372L584.785 101.403H587.008H589.23L591.381 99.399L593.532 97.395L594.683 93.149L595.836 88.903L595.13 76.403L594.425 63.903L592.964 60.403C590.991 55.679 586.94 51.536 582.107 49.299C578.054 47.423 576.707 47.246 573.107 48.121ZM671.469 54.313L669.107 56.222L668.607 69.563L668.107 82.903L664.857 83.216L661.607 83.53L660.734 81.216C660.255 79.944 659.318 74.191 658.652 68.433C657.986 62.674 657.014 57.162 656.49 56.183L655.537 54.403H652.597H649.659L647.883 57.653L646.107 60.903V73.403V85.903L648.176 89.846L650.245 93.79L653.004 95.846L655.766 97.903H663.436H671.107L673.812 100.653C676.795 103.685 677.773 103.92 680.758 102.323L682.776 101.242L684.25 97.716L685.724 94.19L685.523 85.119L685.324 76.048L683.612 68.475C681.396 58.675 680.238 55.958 677.448 54.004C674.566 51.986 674.331 51.998 671.469 54.313ZM710.107 53.784C708.457 54.559 706.231 55.862 705.159 56.68L703.208 58.168L700.522 56.182L697.836 54.196L695.814 54.837L693.792 55.479L693.133 57.191C692.77 58.133 692.215 63.416 691.901 68.932L691.331 78.962L692.049 86.622L692.766 94.283L695.139 96.843L697.513 99.403H700.487H703.462L705.631 96.653L707.8 93.903L707.12 84.767L706.438 75.631L708.034 72.547L709.628 69.462L711.703 68.352C714.346 66.937 713.972 66.254 716.922 77.903C720.381 91.564 722.293 98.582 723.107 100.615L723.792 102.327L725.818 102.97L727.842 103.612L729.975 101.48L732.107 99.347L732.078 90.625L732.049 81.903L730.227 74.403C729.225 70.278 727.761 64.83 726.974 62.297L725.542 57.69L723.173 55.465L720.805 53.239L716.956 52.808L713.107 52.377L710.107 53.784ZM612.591 58.215L609.107 60.027L606.107 65.965L603.107 71.903L603.146 78.403L603.183 84.903L605.996 91.073L608.81 97.244L611.175 99.467L613.542 101.69L618.478 102.165L623.415 102.639L627.497 100.345L631.581 98.05L634.06 94.47C635.425 92.502 637.06 89.402 637.694 87.582L638.849 84.274L638.161 79.089C636.901 69.566 631.884 61.198 625.407 57.814L622.706 56.403H619.391H616.076L612.591 58.215ZM622.612 77.357C624.013 82.402 623.858 83.866 621.722 85.799L619.839 87.504L618.722 84.304C617.482 80.746 617.254 74.488 618.268 71.844L618.93 70.122L620.277 71.967C621.019 72.981 622.07 75.406 622.612 77.357ZM213.618 74.653C213.624 75.891 213.908 78.591 214.249 80.653L214.869 84.403H207.671H200.475L200.791 81.682L201.107 78.961L206.607 75.775C213.324 71.883 213.604 71.838 213.618 74.653ZM421.607 153.399C407.032 153.832 379.163 154.485 359.677 154.85L324.246 155.513L316.177 157.025C311.738 157.856 304.476 159.658 300.039 161.03L291.971 163.525L284.274 169.527L276.577 175.529L274.217 180.216L271.856 184.903L270.232 192.1C269.338 196.059 268.607 200.928 268.607 202.92V206.542L271.622 213.784L274.637 221.026L278.372 224.565C280.426 226.512 284.313 229.75 287.01 231.761L291.914 235.417L298.284 237.385C301.788 238.467 308.357 239.79 312.881 240.324L321.107 241.296L351.107 240.814C367.607 240.549 393.707 240.177 409.107 239.986C424.507 239.796 452.182 239.13 470.607 238.506C489.032 237.882 517.382 237.137 533.607 236.849C549.832 236.562 563.627 236.149 564.263 235.932C564.899 235.715 574.124 236.145 584.763 236.887L604.107 238.236L608.107 237.488C612.378 236.69 616.777 234.637 622.915 230.578L626.724 228.06L629.091 223.981C630.393 221.738 632.168 217.138 633.034 213.759L634.607 207.614V199.046V190.478L632.497 184.691L630.388 178.903L623.214 171.903L616.037 164.903L611.073 162.23L606.107 159.556L597.107 157.865L588.107 156.173L553.107 156.368C533.857 156.476 516.982 156.571 515.607 156.579C509.312 156.618 486.008 155.416 475.607 154.516C455.035 152.734 448.492 152.599 421.607 153.399ZM472.607 159.417C485.039 160.484 511.471 161.747 519.107 161.639C521.307 161.608 537.732 161.538 555.607 161.485L588.107 161.387L597.376 163.321L606.646 165.255L612.876 169.71C619.305 174.307 624.063 179.515 626.965 185.128L628.633 188.353L629.247 194.235L629.862 200.117L628.676 207.01L627.491 213.903L625.147 219.059L622.803 224.216L617.141 227.839L611.477 231.461L607.792 232.234L604.107 233.007L599.107 232.274C586.322 230.398 543.263 230.745 467.107 233.337C420.26 234.931 367.08 235.879 338.607 235.626L313.107 235.4L305.206 233.724L297.303 232.048L291.589 228.232C288.446 226.132 284.074 222.463 281.875 220.078L277.877 215.741L275.677 209.861L273.477 203.981L274.161 198.942C274.538 196.171 275.676 191.199 276.692 187.895L278.538 181.887L282.823 177.796C285.18 175.545 288.728 172.509 290.709 171.048L294.31 168.392L300.709 166.274C304.228 165.109 309.961 163.551 313.448 162.813L319.79 161.469L359.948 160.4C382.036 159.812 402.132 159.234 404.607 159.117C407.082 158.999 420.582 158.777 434.607 158.623L460.107 158.343L472.607 159.417ZM365.605 175.906L364.302 177.475L363.905 184.689C363.687 188.657 363.868 196.853 364.308 202.903L365.107 213.903H366.998H368.889L369.694 212.403C370.137 211.578 370.775 209.187 371.112 207.089L371.722 203.275L372.914 203.661C373.57 203.873 375.937 206.714 378.174 209.975L382.24 215.903H383.674H385.107L385.407 213.805L385.706 211.707L381.229 205.031L376.753 198.354L381.68 193.426L386.607 188.498V187.058V185.617L385.026 185.01C384.156 184.676 383.265 184.403 383.047 184.403C382.829 184.403 380.133 186.92 377.056 189.997L371.462 195.591L370.857 194.986C370.524 194.652 369.994 190.033 369.68 184.721L369.107 175.062L368.008 174.699L366.907 174.336L365.605 175.906ZM156.408 177.94L155.252 180.477L156.818 182.043L158.384 183.609L160.444 182.955L162.505 182.301L163.138 180.304L163.772 178.307L162.567 176.855L161.362 175.403H159.463H157.564L156.408 177.94ZM471.126 178.026L469.508 179.646L469.807 181.167C469.972 182.004 470.857 183.161 471.773 183.738L473.439 184.787L475.023 183.473L476.607 182.158V180.316V178.473L474.676 177.44L472.746 176.407L471.126 178.026ZM306.274 179.07C305.907 179.436 305.607 180.326 305.607 181.047V182.357L308.167 184.034L310.727 185.712L312.35 184.088L313.974 182.465L312.135 180.434L310.297 178.403H308.62C307.697 178.403 306.64 178.703 306.274 179.07ZM331.607 183.434V188.466L333.208 189.08L334.81 189.694L335.693 188.299C336.717 186.681 336.88 182.277 336 179.985L335.393 178.403H333.5H331.607V183.434ZM401.357 178.986C401.036 179.307 398.715 179.57 396.198 179.57H391.622L390.954 180.65L390.287 181.731L392.964 184.033L395.641 186.335L393.123 187.984L390.607 189.633V191.049V192.466L392.144 193.056L393.681 193.646L395.474 192.024C398.705 189.1 399.916 189.779 401.07 195.159L401.769 198.415L399.056 197.383L396.344 196.352L394.501 196.937C393.488 197.258 391.747 198.68 390.633 200.097L388.607 202.673L388.639 205.288C388.676 208.312 390.2 210.593 393.276 212.231L395.443 213.386L398.547 212.765C400.253 212.424 401.891 211.753 402.188 211.274C402.484 210.795 403.149 210.403 403.667 210.403H404.607V212.973V215.542L406.857 215.223L409.107 214.903L409.074 209.824L409.04 204.745L407.701 200.324C406.964 197.892 405.715 193.794 404.925 191.217L403.49 186.53L402.298 186.117L401.107 185.703L404.273 184.992L407.44 184.281L408.078 182.618L408.716 180.956L406.97 179.679C405.139 178.34 402.348 177.996 401.357 178.986ZM9.10748 186.245C5.15248 188.663 3.92549 190.25 2.17249 195.219L0.71048 199.363L2.07149 204.61L3.43248 209.857L6.53548 212.63L9.63948 215.403H13.1895C17.6455 215.403 19.8975 214.209 22.6015 210.412L24.7335 207.417L24.1135 206.413L23.4935 205.41L20.6005 206.907C19.0085 207.73 16.7845 208.403 15.6575 208.403H13.6075L11.6075 206.403C10.5075 205.303 9.60748 203.953 9.60748 203.403V202.403H15.1075H20.6075L22.6075 200.403L24.6075 198.403V195.538V192.673L22.4395 189.917L20.2715 187.161L16.9715 185.782C12.7985 184.038 12.7075 184.043 9.10748 186.245ZM32.2575 187.247L29.5325 190.091L28.5025 193.82L27.4735 197.549L29.0135 199.9C30.6205 202.353 31.6505 202.814 37.8575 203.861L41.6075 204.494V205.425C41.6075 205.938 40.4825 207.094 39.1075 207.995L36.6075 209.633L34.0265 207.942L31.4455 206.251L30.0265 206.796L28.6075 207.34V209.417V211.494L31.0625 213.948L33.5165 216.403H37.4275H41.3375L43.9925 214.315C45.4525 213.166 47.3425 210.883 48.1905 209.242L49.7345 206.257L49.1145 203.434C48.2735 199.607 46.0025 197.778 40.3185 196.35L35.5305 195.146L37.2875 193.204L39.0445 191.262L42.1875 191.852L45.3305 192.442L46.4865 191.049L47.6425 189.656L47.0695 188.165C46.2935 186.143 42.2145 184.403 38.2475 184.403H34.9815L32.2575 187.247ZM95.0265 185.488C93.3315 185.975 91.1545 187.246 90.1885 188.313L88.4325 190.254L88.7945 192.079L89.1575 193.903L92.1325 193.827C93.7685 193.785 95.7715 193.56 96.5835 193.327L98.0605 192.903L98.3685 194.903L98.6765 196.903L95.5935 197.012L92.5115 197.121L89.5595 199.949L86.6075 202.777V206.567V210.357L88.8575 211.762L91.1075 213.168L98.2885 213.721L105.468 214.275L106.585 212.929L107.702 211.584L107.723 204.711L107.745 197.838L106.573 193.182L105.401 188.526L103.754 187.083C102.848 186.289 101.207 185.407 100.107 185.122L98.1075 184.604L95.0265 185.488ZM191.693 186.242L190.709 188.08L191.408 199.886L192.107 211.692L193.916 212.798L195.725 213.903L197.166 211.962L198.607 210.021V202.867V195.713L200.446 194.05L202.282 192.387L203.946 194.224L205.607 196.06V204.66V213.26L207.178 214.832C209.158 216.812 210.027 216.807 211.687 214.807L213.012 213.211L213.239 204.159L213.467 195.108L214.787 194.271C216.675 193.073 219.016 193.212 220.407 194.603L221.607 195.803V202.669V209.534L222.642 211.469L223.678 213.403H225.607H227.537L228.572 211.469L229.607 209.534V202.437V195.339L228.192 191.951L226.777 188.564L224.657 187.429C223.49 186.805 220.785 186.224 218.647 186.139L214.758 185.984L212.217 187.344L209.675 188.704L208.238 187.512C207.448 186.856 205.446 185.931 203.791 185.456L200.782 184.593L198.796 185.983L196.811 187.374L196.24 185.889L195.67 184.403H194.174H192.678L191.693 186.242ZM69.3505 187.766C67.9485 189.065 66.0095 191.653 65.0425 193.516L63.2845 196.903L63.2795 200.987L63.2745 205.07L65.6905 209.413L68.1075 213.756L71.0485 214.727L73.9895 215.697L78.1705 213.479L82.3515 211.261L83.4415 208.868L84.5325 206.474L83.6155 205.908C82.7835 205.394 80.1435 205.764 75.3375 207.07L73.5675 207.551L72.0975 204.033L70.6275 200.515L71.2695 198.709C71.6225 197.716 72.5295 196.18 73.2845 195.296L74.6575 193.69L77.0445 194.146L79.4305 194.602L80.5905 192.436L81.7495 190.269L80.1555 187.836L78.5615 185.403H75.2305H71.8995L69.3505 187.766ZM115.807 186.603L114.607 187.803V191.86C114.607 194.091 114.166 197.454 113.627 199.333L112.647 202.749L113.284 213.162L113.921 223.575L115.336 224.989C117.149 226.802 118.096 226.771 120.036 224.832L121.607 223.26V217.832V212.403H124.572H127.537L131.011 209.353L134.485 206.303L135.645 202.788L136.805 199.273L136.191 195.998L135.576 192.723L133.109 190.405L130.641 188.086L125.452 187.979L120.263 187.871L119.852 186.637C119.329 185.068 117.359 185.051 115.807 186.603ZM156.29 186.153C156.051 186.566 155.544 191.855 155.163 197.908L154.47 208.913L155.514 211.658L156.557 214.403H159.023C162.484 214.403 162.63 213.884 162.686 201.398L162.736 190.249L161.149 187.826L159.561 185.403H158.143C157.363 185.403 156.529 185.74 156.29 186.153ZM173.922 186.41C171.104 187.545 169.607 190.409 169.607 194.663V198.054L171.921 200.229L174.236 202.403H177.491H180.746L180.428 204.653L180.107 206.903L178.107 206.817C177.007 206.77 174.254 206.403 171.989 206.002L167.871 205.272L167.215 206.982L166.559 208.692L168.246 210.556L169.933 212.42L173.52 213.494L177.107 214.568L180.575 214.236L184.043 213.903L186.407 210.403L188.77 206.903L188.222 203.403L187.675 199.903L185.085 197.653L182.495 195.403H179.968H177.44L177.851 194.153L178.262 192.903L182.676 192.403L187.089 191.903L187.457 189.969L187.824 188.035L186.025 186.719L184.225 185.403L180.166 185.466C177.933 185.501 175.124 185.926 173.922 186.41ZM346.837 187.404L343.566 189.398L342.426 191.901L341.286 194.403L342.316 196.663L343.346 198.924L341.977 200.203L340.607 201.482V205.019V208.557L343.53 211.48L346.453 214.403H348.581C351.703 214.403 356.007 211.904 358.988 208.362L361.607 205.25V202.361V199.473L359.673 198.438C358.609 197.869 356.329 197.403 354.607 197.403C352.885 197.403 350.606 196.937 349.542 196.368L347.607 195.333V193.903V192.473L349.535 191.442L351.462 190.41L353.047 191.018L354.633 191.627L356.099 190.41L357.565 189.193L356.551 187.298L355.537 185.403L352.823 185.407L350.107 185.41L346.837 187.404ZM442.87 186.241L441.677 186.978L441.453 204.264L441.228 221.551L442.668 222.461C443.459 222.961 444.557 223.23 445.107 223.058L446.107 222.745L446.402 217.225L446.698 211.705L451.636 212.18L456.574 212.654L459.07 211.019C462.146 209.004 464.346 204.893 465.198 199.567L465.844 195.522L463.629 191.938L461.414 188.355L458.56 186.879C455.052 185.065 452.852 185.06 449.607 186.861L447.107 188.249L445.584 186.877L444.061 185.504L442.87 186.241ZM546.299 186.763C546.012 187.511 546.109 193.146 546.514 199.285L547.25 210.446L548.323 211.519L549.396 212.591L551.251 212.233L553.107 211.876L553.221 205.828L553.334 199.78L555.086 196.092L556.836 192.403H558.521C559.448 192.403 560.747 192.943 561.407 193.603L562.607 194.803L562.622 203.353L562.638 211.903L563.594 213.403L564.55 214.903L566.329 213.799L568.107 212.696L568.607 203.458L569.107 194.219L571.469 192.311C574.379 189.959 574.885 189.948 576.91 192.185L578.523 193.967L578.815 202.935L579.107 211.903H581.107H583.107L583.392 202.228L583.678 192.553L580.539 188.978L577.401 185.403H574.138H570.878L568.253 187.467L565.628 189.531L563.396 187.967L561.162 186.403H558.384H555.607L553.694 188.316L551.78 190.23L551.175 187.816L550.569 185.403H548.695H546.821L546.299 186.763ZM468.954 187.942C468.629 188.788 468.556 194.895 468.792 201.514L469.221 213.547L470.61 214.405L472 215.263L473.86 214.268L475.72 213.272L475.034 201.088L474.349 188.903L473.355 187.653C472.809 186.966 471.728 186.403 470.953 186.403H469.544L468.954 187.942ZM496.93 188.007L496.282 189.692L498.195 191.117L500.107 192.543L503.949 191.946L507.792 191.35L507.449 192.126C505.785 195.904 499.197 206.464 497.608 207.902L495.607 209.713V211.941V214.17L497.357 214.604C498.319 214.843 500.232 214.716 501.607 214.321C502.982 213.926 506.668 213.558 509.798 213.503L515.49 213.403L516.134 212.359L516.779 211.315L515.612 209.909L514.444 208.502L509.465 208.202L504.487 207.903L509.587 199.427L514.688 190.951L514.397 188.927L514.107 186.903L505.841 186.612L497.576 186.322L496.93 188.007ZM525.608 187.48C524.233 188.054 522.095 189.475 520.858 190.637L518.607 192.752V194.609V196.466L520.128 197.05L521.649 197.633L524.266 195.018L526.88 192.403H530.208H533.537L534.573 194.337C535.142 195.401 535.607 196.751 535.607 197.337V198.403H527.729H519.852L518.618 199.89L517.384 201.377L517.995 203.813C520.035 211.942 529.899 217.372 536.462 213.978L539.219 212.553L540.412 209.931L541.607 207.309V201.421V195.533L540.652 193.02L539.696 190.508L537.258 188.91C535.917 188.031 533.309 187.115 531.464 186.874L528.107 186.437L525.608 187.48ZM307.251 190.601C306.452 193.582 306.424 210.762 307.214 212.821L307.821 214.403H309.18H310.537L311.607 212.405L312.675 210.408L312.391 199.655L312.107 188.903L309.987 188.601L307.868 188.298L307.251 190.601ZM16.4865 193.031L18.8115 194.659L17.4595 195.516C15.8605 196.529 9.60748 196.701 9.60748 195.732C9.60748 192.52 13.5485 190.973 16.4865 193.031ZM458.212 193.922L459.862 196.442L459.277 200.046L458.693 203.651L456.995 205.527L455.297 207.403H453.107H450.917L449.128 205.425L447.339 203.448L447.888 199.348L448.438 195.248L450.177 193.325L451.917 191.403H454.24H456.561L458.212 193.922ZM52.8075 193.603L51.6075 194.803V197.481V200.158L53.1915 201.473L54.7755 202.787L56.4415 201.743L58.1075 200.699L58.4205 198.602L58.7335 196.506L57.6355 194.455C56.3975 192.143 54.5875 191.823 52.8075 193.603ZM143.76 194.153L142.843 195.903L143.641 198.014C145.124 201.934 149.941 202.078 151.159 198.239L151.787 196.26L150.042 194.331L148.297 192.403H146.487H144.677L143.76 194.153ZM128.43 197.702L128.773 199.501L127.167 201.952L125.561 204.403H123.584H121.607V201.103V197.803L122.845 196.565L124.084 195.326L126.085 195.615L128.087 195.903L128.43 197.702ZM321.107 196.313C318.907 196.676 316.564 197.309 315.901 197.72L314.694 198.467L315.3 200.044L315.905 201.622L321.672 201.205L327.439 200.788L328.964 199.522L330.488 198.257L329.941 196.83L329.393 195.403L327.25 195.528C326.071 195.597 323.307 195.95 321.107 196.313ZM481.068 197.466L480.411 198.529L482.164 200.466L483.917 202.403H487.641H491.362L492.607 200.903L493.852 199.403L492.607 197.903L491.362 196.403H486.544H481.725L481.068 197.466ZM415.232 198.887L413.357 200.307L413.951 201.855L414.544 203.403H419.54H424.537L425.573 201.469C426.142 200.405 426.607 199.055 426.607 198.469V197.403L421.857 197.435L417.107 197.467L415.232 198.887ZM353.107 202.375L357.107 202.981L353.751 206.192C349.789 209.983 348.266 210.182 346.164 207.18L344.607 204.958V202.613V200.268L346.857 201.018C348.094 201.431 350.907 202.041 353.107 202.375ZM400.755 203.482L402.772 204.562L400.94 205.951C397.319 208.694 392.9 207.409 394.211 203.993L394.821 202.403H396.78C397.857 202.403 399.646 202.889 400.755 203.482ZM535.905 204.034L536.537 204.666L535.422 206.784C534.306 208.905 532.698 210.359 531.435 210.388C530.345 210.412 524.607 205.309 524.607 204.314V203.403H529.94C532.874 203.403 535.558 203.687 535.905 204.034ZM430.005 215.808C429.709 216.58 429.61 218.718 429.787 220.558L430.107 223.903H432.107H434.107L434.425 220.588L434.743 217.272L433.553 215.838C432.043 214.019 430.696 214.008 430.005 215.808ZM688.839 251.239C687.193 252.283 685.607 257.882 685.607 262.646V266.403H682.03H678.453L675.691 269.165L672.93 271.928L670.789 277.646L668.649 283.365L669.25 286.37L669.852 289.375L672.172 291.878L674.491 294.381L683.577 294.172L692.664 293.963L693.485 290.933L694.306 287.903L693.961 270.51L693.615 253.117L692.488 251.76C691.196 250.202 690.604 250.118 688.839 251.239ZM202.251 252.903L200.607 254.546L200.663 270.724L200.72 286.903L201.913 290.403L203.107 293.903H205.107H207.107L206.968 274.05L206.829 254.197L205.361 252.729L203.894 251.26L202.251 252.903ZM31.4795 254.059L30.1075 255.715L30.1795 275.745L30.2505 295.775L31.9105 296.822L33.5695 297.869L35.0375 296.386L36.5045 294.903L37.5865 286.133C38.1815 281.309 39.1775 276.247 39.7985 274.883L40.9285 272.403H42.2485H43.5695L44.0515 274.653C44.3165 275.89 44.9755 279.978 45.5165 283.736L46.5005 290.57L47.6765 291.986C48.3235 292.766 49.4815 293.403 50.2515 293.403H51.6505L52.8195 290.837L53.9885 288.27L52.7405 279.587L51.4915 270.903L50.1265 268.806L48.7625 266.71L45.7375 265.457L42.7125 264.204L39.6975 265.708L36.6815 267.213L36.0635 265.266L35.4455 263.319L36.1205 259.326L36.7945 255.334L35.5785 253.868C34.0135 251.982 33.1685 252.021 31.4795 254.059ZM88.0495 253.821L86.1565 255.206L85.7685 262.89C85.5545 267.116 85.7015 275.292 86.0945 281.058L86.8095 291.542L88.9585 292.376L91.1075 293.209L93.2305 291.866L95.3525 290.524L97.3285 291.04L99.3035 291.557L102.991 290.016L106.679 288.475L108.143 284.971C110.001 280.525 109.99 278.044 108.096 274.382L106.585 271.46L102.864 268.932L99.1435 266.403H96.5005H93.8575L93.2325 263.278C92.8885 261.559 92.6075 258.914 92.6075 257.4V254.648L91.2755 253.542L89.9435 252.437L88.0495 253.821ZM241.675 254.277L240.607 256.272V260.318V264.365L236.357 263.798L232.107 263.231L229.868 265.346C226.734 268.306 224.67 272.638 224.012 277.636L223.45 281.903L225.783 286.259L228.116 290.615L231.816 292.759L235.516 294.903L239.24 292.903L242.963 290.903H246.035H249.107L248.842 275.65C248.695 267.261 248.226 258.711 247.8 256.65L247.027 252.903L244.884 252.592L242.743 252.282L241.675 254.277ZM475.805 253.962L473.5 255.591L470.664 261.446L467.828 267.3L468.638 278.102C469.497 289.573 470.574 293.793 472.871 294.674L474.289 295.218L475.553 294.437L476.818 293.655L476.094 283.043L475.37 272.431L477.24 271.765C479.925 270.808 482.607 268.31 482.607 266.767V265.441L480.107 264.814C477.379 264.129 477.163 263.653 478.573 261.424L479.508 259.945L483.058 260.25L486.607 260.556V258.635V256.713L484.857 255.136C483.895 254.269 481.982 253.283 480.607 252.946L478.107 252.334L475.805 253.962ZM874.759 254.119C873.244 256.95 871.605 270.585 871.622 280.225L871.637 288.903L872.901 291.403L874.166 293.903H876.107H878.049L879.326 291.403L880.602 288.903L880.354 270.903L880.107 252.903L877.925 252.592L875.742 252.282L874.759 254.119ZM358.966 256.91L358.334 258.558L359.793 260.017L361.253 261.476L362.982 260.812L364.714 260.148L364.41 258.026L364.107 255.903L361.853 255.583L359.599 255.263L358.966 256.91ZM1117 256.833C1116.66 257.696 1116.65 259.078 1116.97 259.903L1117.54 261.403H1120.14H1122.74L1122.42 258.653L1122.11 255.903L1119.85 255.583L1117.6 255.263L1117 256.833ZM116.095 257.788L114.39 259.035L114.76 260.958L115.13 262.88L116.999 263.24L118.867 263.6L119.722 262.251C120.192 261.51 120.583 260.164 120.592 259.26L120.607 257.617L119.204 257.079L117.801 256.54L116.095 257.788ZM629.211 258.558L627.702 260.712L628.69 262.558L629.677 264.403H632.107H634.537L635.454 262.653L636.371 260.903L635.521 258.653L634.672 256.403H632.696H630.72L629.211 258.558ZM920.942 257.972L920.289 259.675L921.307 261.289L922.326 262.903H924.716H927.107V259.903V256.903L924.352 256.586L921.596 256.269L920.942 257.972ZM1031.03 258.851L1030.38 261.429L1031.62 262.916L1032.85 264.403L1031.65 265.848L1030.45 267.293L1029.48 277.767L1028.51 288.241L1030.01 291.822L1031.51 295.403H1032.86C1033.6 295.403 1034.75 294.863 1035.41 294.203L1036.61 293.003V280.242V267.482L1035.29 266.255L1033.98 265.029L1035.77 263.239L1037.56 261.45L1036.73 259.177L1035.89 256.903L1033.78 256.588L1031.68 256.273L1031.03 258.851ZM254.014 258.785L253.43 260.307L254.077 261.355L254.725 262.403H257.236H259.746L259.427 260.153L259.107 257.903L256.853 257.583L254.598 257.263L254.014 258.785ZM516.951 258.596L516.107 259.903L515.761 273.061L515.415 286.22L513.297 286.774L511.18 287.328L510.396 286.115C509.189 284.244 507.619 278.184 507.62 275.403L507.62 272.903L510.613 271.2C512.26 270.263 513.607 268.986 513.607 268.363V267.229L510.695 266.13L507.784 265.031L507.206 262.146L506.629 259.261L504.379 259.582L502.128 259.903L499.829 264.754L497.53 269.606L498.431 270.754C498.927 271.386 499.613 274.721 499.956 278.165L500.579 284.428L502.521 288.232C503.588 290.325 505.17 292.625 506.037 293.345L507.613 294.653H510.321H513.029L514.414 292.568L515.798 290.482L518.09 291.984L520.383 293.485L521.995 291.873L523.607 290.26V283.879V277.497L524.768 274.95C525.406 273.549 526.265 272.403 526.677 272.403H527.425L528.605 279.653C530.041 288.474 531.081 291.264 533.243 292.094L534.896 292.728L536.253 290.874L537.607 289.021V283.893V278.766L536.01 273.335C534.179 267.111 532.482 264.84 529.013 263.969L526.566 263.355L524.647 264.382L522.728 265.409L522.418 261.656L522.107 257.903L519.951 257.596L517.797 257.289L516.951 258.596ZM127.274 259.07C126.907 259.436 126.607 260.985 126.607 262.511V265.285L125.607 265.903L124.607 266.521V268.912V271.304L125.958 272.103L127.309 272.903L127.906 279.504L128.504 286.105L130.176 290.283L131.848 294.461L133.662 295.432C134.659 295.966 136.389 296.403 137.506 296.403H139.537L140.572 294.469C141.141 293.405 141.607 291.882 141.607 291.085V289.636L139.685 289.134L137.764 288.631L137.141 283.767C136.799 281.092 136.297 277.461 136.026 275.698L135.533 272.493L138.632 270.89L141.731 269.287L141.411 267.595L141.09 265.903L138.298 265.582L135.507 265.26L133.872 261.832L132.237 258.403H130.088C128.907 258.403 127.64 258.703 127.274 259.07ZM712.305 259.153C712.074 259.566 711.573 261.2 711.193 262.785L710.503 265.667L708.305 267.535L706.107 269.403L708.357 271.313L710.607 273.224V277.688V282.152L712.133 286.478C712.973 288.857 714.394 291.614 715.289 292.603L716.917 294.403H719.74H722.561L724.167 291.952L725.773 289.501L725.435 287.746L725.096 285.991L722.612 285.404L720.128 284.818L719.425 280.86C719.038 278.684 718.696 275.945 718.665 274.774L718.607 272.646L721.66 271.381L724.712 270.117L724.41 267.51L724.107 264.903L721.471 264.598L718.836 264.292L718.246 261.348L717.657 258.403H715.191C713.835 258.403 712.537 258.74 712.305 259.153ZM1099.72 264.042L1096.76 268.811L1097.68 270.541L1098.61 272.272V278.188V284.105L1099.75 287.504C1100.37 289.373 1101.8 291.916 1102.92 293.153L1104.96 295.403H1107.56H1110.16L1112.27 293.924L1114.39 292.445L1114.9 294.419L1115.42 296.393L1117.16 297.06L1118.9 297.728L1120.25 295.874L1121.61 294.021V280.834V267.648L1120.11 266.403L1118.61 265.158L1117.21 266.319L1115.81 267.481L1115.08 275.692C1114.69 280.208 1113.98 284.916 1113.51 286.153L1112.66 288.403H1110.68H1108.7L1107.66 284.653C1107.09 282.591 1106.62 278.772 1106.61 276.166L1106.61 271.43L1110.23 269.916L1113.85 268.403L1112.69 267.001C1112.05 266.23 1110.45 265.329 1109.14 264.999L1106.75 264.4L1106.43 262.162L1106.11 259.923L1104.4 259.598L1102.69 259.273L1099.72 264.042ZM982.921 263.353C981.168 264.422 979.231 266.237 978.615 267.387L977.496 269.479L978.119 271.441L978.742 273.403H980.519H982.297L984.107 271.403C987.189 267.998 988.788 268.639 990.018 273.774L990.706 276.644L987.412 276.161L984.118 275.678L981.341 276.645L978.565 277.613L977.586 279.442C976.168 282.091 976.383 286.069 978.125 289.438L979.643 292.374L982.231 293.023L984.818 293.673L988.149 292.084L991.48 290.496L991.794 292.699L992.107 294.903H994.597H997.087L997.729 291.903C998.082 290.253 998.424 286.125 998.489 282.729L998.607 276.556L997.423 271.427L996.239 266.298L993.971 263.851L991.702 261.403L988.905 261.407L986.107 261.41L982.921 263.353ZM1144.87 264.755C1142.17 267.832 1137.99 275.555 1136.13 280.903L1135.43 282.903L1132.96 276.403C1131.6 272.828 1130.14 268.778 1129.72 267.403L1128.96 264.903L1127.29 264.58L1125.61 264.257L1124.65 266.781L1123.69 269.304L1126.78 280.379L1129.86 291.454L1131.73 293.835L1133.61 296.216L1135.65 295.681L1137.7 295.146L1139.52 291.525C1140.52 289.533 1141.91 286.103 1142.61 283.903C1143.31 281.703 1145.42 276.825 1147.3 273.063L1150.72 266.223L1150.42 264.142C1150.25 262.997 1149.61 261.895 1148.99 261.694L1147.88 261.327L1144.87 264.755ZM64.9115 264.359C63.1545 265.431 60.9795 267.432 60.0795 268.806L58.4415 271.305L58.7865 273.092L59.1305 274.88L60.8455 275.21L62.5605 275.541L65.9035 272.991L69.2455 270.441L70.4265 271.622C71.0765 272.272 71.6075 273.163 71.6075 273.603V274.403H68.9755H66.3435L62.9755 277.974L59.6075 281.545V284.892C59.6075 292.768 65.9045 296.583 72.8885 292.94L75.6695 291.49L77.0095 292.004L78.3495 292.518L80.1005 290.767L81.8515 289.016L81.1575 280.46L80.4635 271.903L78.9585 268.73L77.4525 265.558L74.1295 263.98C69.8575 261.953 68.7855 261.997 64.9115 264.359ZM957.418 265.011L953.753 267.619L951.457 266.011C948.544 263.97 945.673 263.968 942.765 266.005L940.477 267.607L939.187 265.843L937.896 264.078L936.384 264.658L934.872 265.239L934.345 267.998C932.797 276.096 935.652 292.403 938.617 292.403H940.508L941.44 290.737L942.372 289.071L941.878 285.384L941.383 281.697L943.44 277.05C946.981 269.045 948.607 271.189 948.607 283.862V292.158L949.98 293.298L951.354 294.438L952.903 293.843C955.066 293.013 955.613 291.134 956.305 282.16L956.909 274.326L959.831 271.868L962.752 269.41L964.781 270.496L966.81 271.582L966.115 281.292L965.42 291.003L967.013 292.325L968.607 293.648L970.09 292.417C970.905 291.74 972.028 289.548 972.584 287.545L973.596 283.903L973.601 276.587L973.607 269.272L972.577 267.348C971.314 264.987 966.515 262.403 963.395 262.403H961.083L957.418 265.011ZM1012.61 264.483L1008.11 266.519L1005.89 269.211L1003.68 271.903L1003.64 275.249L1003.61 278.594L1005.35 281.547L1007.1 284.5L1005 288.202C1003.84 290.237 1002.6 293.137 1002.24 294.645L1001.57 297.386L1002.98 300.764L1004.4 304.142L1006.72 305.772L1009.05 307.403H1012.76C1017.82 307.403 1021.5 305.868 1025.36 302.145L1028.61 299.011V295.279V291.548L1025.97 289.476L1023.34 287.403H1017.97H1012.61V286.514V285.626L1015.99 284.992L1019.37 284.357L1021.99 280.576L1024.61 276.795V273.158V269.521L1025.61 268.903C1030.9 265.633 1019 261.589 1012.61 264.483ZM160.642 265.337C160.073 266.401 159.583 268.764 159.553 270.587C159.523 272.411 158.722 275.928 157.774 278.403L156.05 282.903H154.116H152.182L151.458 279.903C151.059 278.253 150.368 274.925 149.92 272.507L149.107 268.111L147.441 267.065L145.775 266.019L144.191 267.333L142.607 268.648L142.613 273.775C142.616 276.596 143.108 280.668 143.707 282.824L144.796 286.745L147.624 289.574L150.453 292.403H153.395H156.337L158.812 290.456L161.287 288.509L162.931 291.956L164.575 295.403H166.984H169.393L170.02 293.77L170.647 292.136L169.691 286.52C169.166 283.43 168.435 277.625 168.067 273.62L167.397 266.336L165.931 264.87C165.124 264.063 163.837 263.403 163.071 263.403H161.677L160.642 265.337ZM342.618 264.391L340.129 264.988L337.868 268.343L335.607 271.699V275.396V279.093L337.357 280.67C338.319 281.537 340.349 282.557 341.866 282.936C343.384 283.315 344.875 284.028 345.18 284.521L345.734 285.417L344.003 286.082L342.271 286.746L339.276 285.028L336.284 283.31L335.461 284.606C335.009 285.32 334.631 286.612 334.622 287.479L334.607 289.054L336.905 291.213L339.203 293.372L342.267 293.985L345.331 294.598L348.328 293.047L351.326 291.497L352.579 288.47L353.834 285.442L353.208 282.95C352.394 279.705 349.068 276.663 345.472 275.873C342.251 275.166 342.025 274.582 343.952 271.946L345.297 270.107L348.495 271.995L351.693 273.884L352.634 272.394C353.936 270.334 353.874 270.013 351.63 267.159L349.652 264.645L347.38 264.219C346.13 263.986 343.987 264.063 342.618 264.391ZM609.607 264.112C608.782 264.416 607.331 265.34 606.383 266.165L604.659 267.667L602.023 265.94L599.389 264.214L595.248 264.837C592.97 265.18 589.875 265.466 588.37 265.473L585.633 265.486L584.612 267.394L583.59 269.303L584.243 279.603C584.603 285.268 585.27 290.916 585.727 292.153L586.557 294.403H588.047H589.537L590.573 292.469L591.607 290.534V281.947V273.36L594.134 272.209L596.661 271.057L597.745 272.14L598.826 273.222L599.558 282.906L600.292 292.589L601.699 293.481C603.642 294.711 604.174 294.631 605.62 292.888L606.876 291.374L607.315 284.138C607.557 280.159 608.226 275.666 608.802 274.153L609.85 271.403H612.121H614.393L615 272.985C615.334 273.855 615.652 277.117 615.707 280.235C615.762 283.352 616.12 287.028 616.503 288.403L617.198 290.903H619.123H621.048L622.313 288.403L623.578 285.903L623.592 278.188L623.607 270.473L620.503 266.938L617.401 263.403L614.253 263.482C612.523 263.525 610.432 263.809 609.607 264.112ZM649.28 264.905L645.527 266.195L643.417 265.643L641.308 265.092L639.957 266.938L638.607 268.785V280.559V292.333L640.79 293.501L642.974 294.669L644.79 292.425L646.607 290.181V283.427V276.673L648.68 274.038L650.753 271.403H652.123H653.495L655.05 273.626L656.607 275.848V285.003V294.158L658.063 295.367L659.519 296.575L660.665 295.867C661.295 295.478 662.44 293.653 663.209 291.813L664.607 288.467V281.385V274.304L663.209 271.601C661.465 268.228 658.853 265.827 655.568 264.578L653.034 263.614L649.28 264.905ZM1078.61 264.112C1077.78 264.416 1076.32 265.35 1075.36 266.188L1073.61 267.713V270.058V272.403H1075.06C1075.86 272.403 1077.69 271.866 1079.13 271.21L1081.75 270.017L1082.66 271.46C1083.17 272.254 1083.58 273.408 1083.59 274.025L1083.61 275.147L1079.68 275.775L1075.75 276.403L1073.68 279.038L1071.61 281.673V284.522V287.371L1074.48 290.589L1077.36 293.806L1080.76 293.71C1082.64 293.657 1085.81 292.928 1087.81 292.09L1091.46 290.567L1092.16 285.889L1092.86 281.211L1092.31 276.51C1092 273.925 1091.18 270.559 1090.48 269.031L1089.22 266.253L1086.46 264.828C1083.63 263.364 1081.24 263.146 1078.61 264.112ZM176.952 265.854L173.798 267.226L173.138 269.306L172.478 271.385L173.103 272.396L173.727 273.406L179.266 272.755L184.804 272.104L185.691 273.504C186.179 274.273 186.583 275.212 186.592 275.59L186.607 276.277L183.357 275.752L180.107 275.227L178.014 277.065C175.088 279.634 173.607 282.75 173.607 286.337V289.403L175.607 291.403L177.607 293.403L179.357 293.439C180.319 293.458 183.718 293.613 186.907 293.781L192.705 294.088L193.657 292.311L194.607 290.534V281.919V273.304L193.113 270.414C192.291 268.825 190.616 266.822 189.39 265.964L187.162 264.403L183.634 264.442C181.694 264.464 178.687 265.099 176.952 265.854ZM263.112 266.041L261.462 267.691L262.113 270.297C263.219 274.726 269.769 289.339 271.813 291.938L273.752 294.403H275.644H277.537L278.44 292.653C278.937 291.691 280.555 286.263 282.036 280.592L284.728 270.281L284.418 267.592L284.107 264.903H281.607H279.107L276.651 272.369L274.195 279.834L271.041 272.987L267.888 266.139L266.325 265.265L264.762 264.391L263.112 266.041ZM293.32 266.414L290.764 268.425L289.053 272.905L287.342 277.385L288.602 281.884L289.862 286.383L294.212 290.393L298.562 294.403H302.185H305.807L309.357 290.853L312.907 287.303L311.782 286.178L310.656 285.052L306.943 286.192L303.228 287.332L299.668 285.118L296.107 282.903L302.107 282.276C305.407 281.932 308.854 281.337 309.766 280.955L311.424 280.259L312.583 277.461L313.742 274.662L312.298 271.205L310.853 267.748L307.329 266.075L303.805 264.403H299.841H295.878L293.32 266.414ZM323.324 265.019C322.986 265.358 321.24 265.935 319.445 266.302L316.181 266.97L315.495 269.436C315.117 270.793 314.764 274.603 314.712 277.903L314.618 283.903L315.644 287.595L316.669 291.288L318.686 291.928L320.703 292.568L322.151 291.367L323.599 290.165L322.964 283.322L322.327 276.479L323.99 273.941L325.654 271.403H327.548C328.591 271.403 330.156 271.13 331.026 270.796L332.607 270.189V268.496C332.607 267.565 332.067 266.263 331.407 265.603L330.207 264.403H327.074C325.35 264.403 323.663 264.68 323.324 265.019ZM378.676 266.155L375.245 267.903L373.331 271.646C372.279 273.704 371.214 277.079 370.961 279.146L370.503 282.903L372.305 286.332C373.296 288.218 375.354 290.676 376.879 291.794L379.651 293.826L383.84 292.365L388.029 290.903L390.977 286.696L393.925 282.49L393.858 278.075L393.792 273.661L392.206 270.593C389.069 264.526 384.69 263.09 378.676 266.155ZM400.579 265.937L399.306 267.47L399.899 280.015L400.492 292.559L401.672 293.981C402.321 294.763 403.674 295.403 404.68 295.403H406.508L407.401 293.807L408.294 292.21L407.821 284.83L407.347 277.449L409 274.926C411.035 271.82 412.185 271.747 413.727 274.626L414.917 276.85L415.646 284.305L416.376 291.761L418.242 293.128L420.107 294.495L421.857 292.338L423.607 290.181L423.602 285.042C423.595 278.382 421.999 272.684 419.048 268.771L416.686 265.64L414.074 264.984L411.462 264.329L408.436 265.838L405.409 267.348L403.938 265.876C402.122 264.06 402.137 264.06 400.579 265.937ZM549.868 266.836L546.741 269.468L545.558 273.052L544.375 276.636L544.831 281.367L545.284 286.099L547.196 288.667C552.641 295.981 560.544 296.023 565.944 288.766L567.78 286.297L567.255 284.929L566.732 283.562L562.07 284.964L557.409 286.367L555.258 285.142L553.107 283.917L556.107 283.62C557.757 283.456 560.33 282.842 561.824 282.255L564.54 281.188L565.174 279.191L565.808 277.194L564.592 272.848L563.375 268.503L561.615 266.91L559.855 265.318L556.426 264.761L552.996 264.204L549.868 266.836ZM768.767 266.307C768.404 267.185 768.107 274.653 768.107 282.903V297.903L769.478 301.153L770.85 304.403H772.529C773.453 304.403 774.747 303.863 775.407 303.203L776.607 302.003V297.203V292.403H780.146H783.685L787.623 288.653L791.562 284.903L792.715 280.403L793.867 275.903L792.297 272.175L790.727 268.447L787.426 266.439L784.125 264.431L776.776 264.571L769.426 264.71L768.767 266.307ZM813.643 266.337L812.607 268.272V273.933V279.594L810.498 282.555L808.39 285.517L806.498 283.805L804.607 282.093V275.33C804.607 271.61 804.334 267.855 804 266.985L803.393 265.403H801.476H799.557L798.582 267.968L797.607 270.533V277.564V284.594L799.314 287.483L801.019 290.371L804.34 291.946L807.659 293.521L809.544 292.923C810.58 292.595 812.002 291.633 812.705 290.786L813.982 289.247L815.666 291.481L817.352 293.715L819.123 293.035L820.896 292.355L820.345 280.129C820.041 273.405 819.477 267.115 819.092 266.153L818.393 264.403H816.535H814.677L813.643 266.337ZM851.195 268.73C849.245 271.11 846.972 274.682 846.142 276.668L844.633 280.279L845.224 283.24L845.817 286.202L848.754 289.765L851.691 293.328L855.106 293.969L858.52 294.609L862.309 292.756L866.097 290.903L867.047 288.148L867.997 285.393L866.982 284.378L865.968 283.364L861.582 284.912L857.196 286.459L855.967 285.988C855.291 285.728 854.302 284.703 853.768 283.709L852.799 281.903L858.618 282.238L864.439 282.572L866.523 280.488L868.607 278.403V276.371C868.607 275.253 867.98 272.837 867.213 271.002L865.819 267.664L863.491 266.034L861.163 264.403H857.951H854.742L851.195 268.73ZM883.684 266.262L882.689 268.121L884.598 276.118C885.648 280.516 887.24 285.943 888.134 288.178L889.759 292.241L888.134 294.721L886.51 297.201L883.633 298.393L880.754 299.585L878.681 298.926L876.607 298.268V300.181V302.093L878.567 303.866L880.526 305.64L884.687 305.582L888.848 305.525L891.315 303.214C892.671 301.943 895.282 298.203 897.117 294.903L900.453 288.903L903.03 279.946C904.447 275.02 905.607 269.943 905.607 268.665V266.34L904.07 265.75L902.534 265.16L900.566 266.94L898.599 268.721L896.435 274.655L894.271 280.589L892.046 274.442C888.81 265.505 885.711 262.473 883.684 266.262ZM1051.05 265.844L1049.11 267.285L1046.94 266.756L1044.77 266.227L1043.69 268.249L1042.61 270.272V280.715V291.158L1044.19 292.473L1045.78 293.787L1047.44 292.742L1049.11 291.697L1049.61 284.3L1050.11 276.903L1051.97 274.153C1054.19 270.881 1054.75 270.794 1057.06 273.355L1058.83 275.308L1059.5 283.846L1060.16 292.383L1061.94 294.143L1063.73 295.903L1065.11 294.041L1066.49 292.179L1067.16 286.797L1067.84 281.415L1067.13 276.699L1066.42 271.982L1062.63 268.193L1058.84 264.403H1055.92H1052.99L1051.05 265.844ZM1157.51 266.654L1154.11 268.906L1151.75 273.666L1149.38 278.426L1151.9 283.749L1154.42 289.071L1157.59 291.737L1160.76 294.403H1163.73H1166.71L1169.63 292.893C1171.23 292.062 1173.05 290.452 1173.65 289.315L1174.76 287.247L1174.22 285.836L1173.68 284.425L1171.08 285.414C1169.65 285.958 1167.44 286.403 1166.16 286.403H1163.85L1162.7 285.019L1161.56 283.635L1165.33 282.935L1169.11 282.234L1170.86 280.663L1172.61 279.093V275.698V272.304L1171.06 269.31L1169.51 266.317L1166.99 265.36C1163.2 263.915 1161.24 264.183 1157.51 266.654ZM4.64249 267.337C4.07349 268.401 3.60748 270.41 3.60748 271.802V274.333L5.73349 275.471L7.86049 276.609L10.2065 275.54L12.5525 274.471L13.1985 271.897L13.8445 269.322L12.0715 267.363L10.2975 265.403H7.98749H5.67749L4.64249 267.337ZM358.609 266.9L357.367 268.397L356.846 279.378L356.326 290.359L357.589 291.881L358.852 293.403H360.694H362.537L363.573 291.469L364.607 289.534V279.124V268.713L362.779 267.058C360.536 265.028 360.175 265.014 358.609 266.9ZM628.66 266.839L627.469 268.275L627.289 279.677L627.107 291.078L628.479 292.741L629.852 294.403H631.662H633.472L634.108 292.401C634.457 291.3 634.815 285.787 634.901 280.151L635.058 269.903L634.266 267.653L633.472 265.403H631.662C630.666 265.403 629.316 266.049 628.66 266.839ZM734.622 267.149L731.138 268.903L728.889 272.903L726.641 276.903L726.623 280.619L726.607 284.335L728.272 287.826L729.938 291.318L733.814 292.869L737.69 294.42L740.399 293.783C741.888 293.433 744.522 292.297 746.251 291.259L749.394 289.371L751.001 285.986L752.607 282.601V278.952V275.304L751.135 272.457L749.664 269.61L745.385 268.112C743.032 267.289 740.432 266.34 739.607 266.005L738.107 265.395L734.622 267.149ZM829.753 266.292L828.399 267.15L827.34 275.174L826.28 283.199L827.194 287.447L828.107 291.695L829.721 292.708L831.336 293.721L832.971 293.094L834.607 292.466V285.902V279.339L836.056 275.871L837.505 272.403L840.306 272.388C841.847 272.379 843.71 271.991 844.445 271.525L845.783 270.677L845.445 268.29L845.107 265.903L840.784 265.592L836.46 265.281L835.122 266.39L833.785 267.5L833.138 266.452C832.358 265.19 831.552 265.152 829.753 266.292ZM114.857 267.065L113.607 267.57V278.018V288.467L115.056 291.935L116.505 295.403H118.997C122.561 295.403 122.66 294.909 121.695 281.979L120.824 270.3L119.06 268.351C117.226 266.324 116.923 266.232 114.857 267.065ZM254.545 268.52L253.411 270.637L253.415 279.77L253.418 288.903L254.767 292.903L256.116 296.903H258.611H261.107L261.415 285.403L261.723 273.903L260.625 270.153L259.527 266.403H257.602H255.678L254.545 268.52ZM445.638 269.37L442.633 272.588L441.49 276.399L440.349 280.21L441.004 283.705L441.66 287.2L443.722 289.822C444.856 291.263 447.072 293.109 448.646 293.923L451.508 295.403H454.422H457.337L459.901 293.387L462.462 291.372L463.647 287.781L464.832 284.191L464.404 278.253L463.974 272.314L461.379 269.72L458.785 267.127L453.714 266.639L448.644 266.152L445.638 269.37ZM921.622 267.887L920.319 269.456L921.213 281.179L922.107 292.903L924.771 293.211L927.435 293.519L928.13 291.331C928.512 290.128 928.793 285.362 928.754 280.74L928.685 272.337L927.388 269.632L926.092 266.927L924.508 266.622L922.924 266.317L921.622 267.887ZM386.448 274.372L387.441 277.226L385.774 280.564L384.107 283.903H381.607H379.107L378.836 279.903L378.562 275.903L380.625 272.564L382.686 269.224L384.069 270.372C384.83 271.003 385.9 272.803 386.448 274.372ZM1017.11 272.445V274.821L1013.84 275.489L1010.57 276.157L1010.04 275.289L1009.5 274.42L1012.08 271.838L1014.66 269.255L1015.89 269.662L1017.11 270.07V272.445ZM859.134 274.228C855.748 274.635 854.95 273.9 856.608 271.902L857.894 270.353L859.869 272.128L861.845 273.903L859.134 274.228ZM239.152 273.858L241.607 276.312V277.953C241.607 282.87 236.482 286.505 233.436 283.748L231.607 282.093V279.295C231.607 277.756 232.13 275.351 232.769 273.95L233.928 271.403H235.313C236.075 271.403 237.802 272.508 239.152 273.858ZM305.107 272.903V273.903L300.183 274.215L295.259 274.527L296.599 272.914L297.936 271.302L301.521 271.602L305.107 271.903V272.903ZM781.667 272.403C782.159 272.403 783.276 273.494 784.149 274.827L785.737 277.251L784.154 280.312L782.571 283.374L780.146 283.983L777.721 284.591L776.664 283.938L775.607 283.285V277.927V272.57L776.857 272.066C777.545 271.788 778.706 271.751 779.439 271.982C780.171 272.214 781.174 272.403 781.667 272.403ZM1165.11 273.486V274.903L1162.36 275.219L1159.61 275.536V274.519C1159.61 273.27 1162.74 271.356 1164.11 271.769C1164.66 271.934 1165.11 272.707 1165.11 273.486ZM557.607 273.903V275.403H555.607C553.615 275.403 553.006 274.337 554.274 273.07C554.64 272.703 555.54 272.403 556.274 272.403H557.607V273.903ZM684.879 278.153L685.399 283.903L683.812 285.153L682.225 286.403H679.417H676.607V284.371C676.607 280.04 680.755 272.403 683.107 272.403H684.359L684.879 278.153ZM455.776 275.265C456.521 275.977 456.988 280.447 456.758 284.684L456.607 287.466L454.951 288.101L453.295 288.737L450.451 285.554L447.607 282.371V280.11C447.607 278.866 448.321 276.83 449.193 275.585L450.777 273.322L452.943 273.975C454.134 274.334 455.408 274.915 455.776 275.265ZM743.026 274.01L744.607 274.617V278.181V281.746L742.952 283.574L741.297 285.403H738.427H735.557L734.576 282.819L733.594 280.235L735.214 276.819L736.836 273.403H739.139C740.407 273.403 742.156 273.676 743.026 274.01ZM99.0405 276.329L100.782 278.254L100.434 280.079L100.087 281.903L97.8475 282.223L95.6075 282.542V278.473V274.403H96.4525C96.9175 274.403 98.0815 275.27 99.0405 276.329ZM6.24248 284.476L3.60748 286.548V289.276V292.003L4.80748 293.203L6.00748 294.403H8.78448H11.5615L13.1375 291.998L14.7135 289.592L13.2115 285.998L11.7095 282.403H10.2935C9.51449 282.403 7.69148 283.336 6.24248 284.476ZM71.6075 282.821C71.6075 283.051 71.8805 283.951 72.2145 284.821L72.8215 286.403H70.7735C69.6475 286.403 68.4475 285.953 68.1075 285.403L67.4895 284.403L68.1075 283.403C68.7005 282.443 71.6075 281.96 71.6075 282.821ZM991.057 284.535L992.007 285.403H987.866H983.725L983.193 284.542C982.901 284.069 982.927 283.416 983.252 283.091L983.843 282.5L986.975 283.084C988.698 283.405 990.535 284.058 991.057 284.535ZM1083.61 282.821C1083.61 283.051 1083.88 283.951 1084.21 284.821L1084.82 286.403H1082.84H1080.85L1079.74 285.061L1078.62 283.719L1079.28 283.061C1080 282.343 1083.61 282.143 1083.61 282.821ZM186.363 285.153L186.774 286.403H184.249C181.631 286.403 180.158 285.185 181.343 284C181.718 283.625 182.908 283.45 183.988 283.611L185.95 283.903L186.363 285.153ZM1021.61 295.377C1021.61 295.913 1020.23 297.065 1018.54 297.936L1015.48 299.52L1012.29 299.212L1009.11 298.903V297.448V295.993L1011.61 295.298C1012.98 294.915 1015.8 294.558 1017.86 294.503L1021.61 294.403V295.377ZM869.518 313.338L866.583 316.273L865.966 319.359C865.626 321.056 864.957 322.687 864.478 322.983C863.999 323.279 863.607 324.394 863.607 325.462V327.403H864.482H865.356L865.833 338.653L866.31 349.903L867.64 352.699L868.971 355.495L871.039 355.199L873.107 354.903L873.738 342.605C874.085 335.842 874.535 330.193 874.738 330.053C874.941 329.912 876.344 329.024 877.857 328.077L880.607 326.357L880.705 332.13C880.758 335.305 880.723 339.595 880.628 341.663C880.532 343.731 880.744 346.748 881.099 348.368L881.747 351.312L883.789 351.96L885.831 352.609L887.326 351.114L888.82 349.619L889.245 342.272L889.671 334.924L891.389 331.414L893.107 327.903L896.857 327.593L900.607 327.282V325.828V324.374L897.357 322.353L894.107 320.332L891.607 320.928C890.232 321.256 887.757 321.77 886.107 322.07L883.107 322.615L881.857 324.2L880.607 325.785V324.705V323.626L877.107 322.969C873.242 322.244 873.156 322.116 874.643 319.337L875.677 317.403H878.092H880.508L881.473 315.679L882.437 313.955L881.487 312.179L880.538 310.403H876.495H872.453L869.518 313.338ZM71.6955 313.797L70.4535 315.293L70.7805 317.489L71.1075 319.685L73.3285 320.501L75.5505 321.317L77.1335 319.734L78.7165 318.152L78.4115 315.527L78.1075 312.903L75.5215 312.602L72.9365 312.302L71.6955 313.797ZM109.018 315.901C108.673 317.275 108.651 319.075 108.968 319.901L109.544 321.403H111.597H113.65L114.76 318.967L115.87 316.531L115.27 314.967L114.67 313.403H112.157H109.645L109.018 315.901ZM398.836 314.574C398.16 315.25 397.607 316.565 397.607 317.496V319.189L399.234 319.813L400.86 320.438L402.282 319.258L403.704 318.078L403.405 316.001L403.107 313.923L401.586 313.634L400.065 313.345L398.836 314.574ZM55.9175 318.591L54.1125 321.903L54.2035 332.403L54.2945 342.903L55.9135 346.032C59.1365 352.257 67.6075 352.019 67.6075 345.703V343.403H65.7145H63.8215L63.2145 341.821C62.8805 340.951 62.6075 337.908 62.6075 335.058V329.877L64.8575 328.89L67.1075 327.903V326.403V324.903L64.9045 323.936L62.7025 322.97L62.4045 319.436L62.1075 315.903L59.9155 315.591L57.7225 315.279L55.9175 318.591ZM121.262 317.232C120.352 318.238 119.593 319.7 119.575 320.482C119.558 321.263 118.885 322.773 118.081 323.837L116.618 325.771L117.97 327.837L119.323 329.903L120.064 336.903L120.806 343.903L122.245 347.368C123.934 351.434 125.15 352.367 128.784 352.388L131.462 352.403L133.534 349.768L135.607 347.133V345.237V343.34L134.094 342.76L132.582 342.179L131.07 343.434C128.892 345.241 128.546 344.464 127.731 335.929L126.999 328.266L130.303 326.886L133.607 325.505V324.061V322.617L132.025 322.01C131.155 321.676 129.58 321.403 128.525 321.403H126.607V319.01V316.617L125.025 316.01C122.943 315.211 123.152 315.143 121.262 317.232ZM354.292 316.103C354.015 316.552 353.473 318.602 353.086 320.661C352.7 322.719 352.033 324.403 351.603 324.403C351.173 324.403 350.537 325.143 350.19 326.048L349.56 327.692L350.952 329.298L352.346 330.903L352.891 338.536L353.435 346.17L355.069 349.33L356.703 352.49L359.174 353.615L361.646 354.741L364.626 351.885L367.607 349.029V346.609V344.189L365.857 344.892C364.895 345.279 363.577 345.812 362.93 346.078L361.753 346.561L361.148 341.732C360.816 339.076 360.338 335.282 360.087 333.3L359.63 329.697L363.62 328.131L367.607 326.564V325.519C367.607 324.162 364.294 322.403 361.737 322.403H359.734L359.42 319.153L359.107 315.903L356.951 315.596L354.797 315.289L354.292 316.103ZM540.134 316.653C539.909 317.341 539.581 318.803 539.405 319.903L539.087 321.903L536.919 322.213C535.727 322.384 534.235 323.146 533.603 323.907L532.454 325.292L534.531 327.07L536.607 328.847L536.651 335.375L536.695 341.903L538.056 345.719C538.804 347.818 540.204 350.406 541.167 351.469L542.917 353.403H545.607H548.297L549.952 351.574C550.862 350.568 551.607 348.993 551.607 348.074V346.403H549.642H547.677L546.76 344.653C546.256 343.691 545.521 341.399 545.126 339.561L544.409 336.219L545.035 332.036L545.662 327.854L547.82 326.878C549.007 326.342 550.138 325.398 550.333 324.78L550.689 323.658L548.648 323.124L546.607 322.59V320.568V318.546L545.036 316.974C543.149 315.088 540.7 314.927 540.134 316.653ZM291.807 317.603C291.147 318.263 290.607 319.561 290.607 320.488V322.173L288.107 323.811L285.607 325.449V327.426V329.403H286.969H288.331L288.842 338.385L289.354 347.368L290.993 349.87L292.633 352.371L295.128 352.997L297.622 353.623L300.079 352.013C301.431 351.128 303.044 349.455 303.664 348.296L304.792 346.188L303.727 345.123L302.661 344.057L300.219 345.17L297.776 346.284L297.191 344.761C296.87 343.924 296.607 340.207 296.607 336.502V329.764L299.857 328.333L303.107 326.903V325.403V323.903L299.607 322.772C297.682 322.15 296.269 321.349 296.466 320.993C296.664 320.637 296.593 319.459 296.31 318.374L295.794 316.403H294.401C293.634 316.403 292.467 316.943 291.807 317.603ZM572.505 320.685L569.107 322.967L568.794 326.185L568.48 329.403H569.987C570.816 329.403 573.034 328.494 574.917 327.383L578.34 325.363L579.974 325.99C580.873 326.335 581.613 327.131 581.621 327.76C581.628 328.389 581.905 329.915 582.237 331.151L582.839 333.399L579.776 332.787L576.712 332.174L572.313 334.303L567.915 336.433L566.761 338.965C566.126 340.358 565.607 342.601 565.607 343.95V346.403L567.607 348.403L569.607 350.403H574.048H578.49L579.107 349.403C579.447 348.853 580.187 348.403 580.75 348.403H581.774L581.326 349.653C581.08 350.341 581.282 351.691 581.777 352.653L582.677 354.403H584.193H585.709L587.308 350.653L588.907 346.903L589.008 335.728L589.107 324.553L586.17 321.478L583.233 318.403H579.568H575.904L572.505 320.685ZM796.763 320.286L795.419 321.138L795.288 340.02L795.156 358.903L796.385 361.726L797.613 364.549L799.316 364.221L801.019 363.892L801.713 361.398C802.095 360.026 802.453 356.765 802.508 354.153L802.607 349.403L803.857 349.397C804.545 349.394 806.76 348.933 808.779 348.372L812.451 347.352L815.529 344.477L818.607 341.601L818.586 338.252L818.564 334.903L816.664 330.719L814.764 326.536L811.736 324.969L808.706 323.403H805.398H802.088L800.84 321.403C799.466 319.203 798.771 319.013 796.763 320.286ZM12.2125 321.971C10.0705 322.756 7.70748 323.905 6.96248 324.523L5.60748 325.648V328.025V330.403H8.54248C10.1565 330.403 12.7065 329.936 14.2095 329.364L16.9415 328.325L17.7595 329.614C18.2085 330.323 18.5835 331.24 18.5925 331.653L18.6075 332.403H13.0305H7.45348L4.53049 335.326L1.60748 338.249V341.604V344.958L3.16849 347.186C4.02649 348.412 6.02948 350.087 7.61848 350.909L10.5085 352.403H14.5715H18.6345L20.6245 353.646L22.6145 354.888L24.3605 353.79L26.1075 352.692L26.9565 345.797L27.8065 338.903L26.7465 332.403L25.6865 325.903L22.6315 323.153L19.5755 320.403L17.8415 320.473C16.8875 320.512 14.3545 321.186 12.2125 321.971ZM100.61 323.4L97.8105 326.397L96.0115 331.4C93.7145 337.787 93.7345 337.795 89.7355 328.902L86.3645 321.403H83.9545H81.5445L80.9095 323.057L80.2755 324.711L81.3925 328.89C82.0075 331.188 83.4955 335.703 84.7005 338.923L86.8915 344.778L89.2045 347.09C91.9725 349.859 93.6755 349.99 96.5035 347.653L98.6205 345.903L103.109 335.903L107.597 325.903L107.602 337.582L107.607 349.26L109.178 350.832C110.043 351.696 111.377 352.403 112.143 352.403H113.537L114.572 350.469L115.607 348.534V336.669V324.803L114.407 323.603C113.747 322.943 112.21 322.403 110.99 322.403H108.774L108.269 323.653L107.765 324.903L107.686 323.26L107.607 321.617L106.025 321.01C103.704 320.119 103.654 320.141 100.61 323.4ZM269.752 321.78L267.397 323.086L264.896 322.607L262.394 322.129L261.516 323.516L260.638 324.903L260.622 337.031L260.607 349.158L262.059 350.363L263.511 351.568L265.246 351.234L266.981 350.9L267.898 347.401L268.815 343.903L268.277 338.595L267.739 333.286L270.537 330.156L273.334 327.025L274.449 329.107L275.563 331.19L275.969 339.395L276.374 347.599L277.913 349.138L279.452 350.676L280.88 350.129L282.307 349.581L282.948 344.242C283.301 341.305 283.595 336.743 283.599 334.103L283.607 329.304L282.113 326.414C279.259 320.895 274.539 319.125 269.752 321.78ZM416.763 322.577L413.42 324.718L412.644 323.462L411.867 322.206L409.987 322.572L408.107 322.938V335.137V347.337L409.807 349.034L411.508 350.731L413.057 349.445L414.607 348.158V340.295V332.431L418.549 329.822L422.492 327.214L423.549 327.867L424.607 328.521V339.34V350.158L426.094 351.392L427.582 352.627L428.995 352.085L430.409 351.542L431.175 347.223C431.597 344.847 431.897 339.677 431.842 335.733L431.741 328.563L430.164 325.513C428.385 322.074 425.834 320.395 422.423 320.42L420.107 320.437L416.763 322.577ZM491.107 321.565C490.007 322.171 487.675 324.015 485.926 325.664L482.745 328.662L481.562 333.591L480.38 338.519L482.086 342.988L483.793 347.457L487.432 349.93L491.071 352.403H494.905C497.013 352.403 499.609 351.937 500.673 351.368L502.607 350.333V347.998V345.663L498.066 345.151L493.526 344.64L491.566 342.866C490.489 341.891 489.607 340.543 489.607 339.872V338.651L495.258 338.182L500.907 337.714L502.336 335.808L503.764 333.903L503.284 329.436L502.805 324.969L500.151 322.686L497.495 320.403L495.301 320.433C494.094 320.45 492.207 320.959 491.107 321.565ZM519.607 321.116C518.782 321.422 517.474 322.174 516.698 322.787C515.923 323.401 514.146 323.903 512.75 323.903H510.214L509.51 326.403C509.123 327.778 508.762 333.036 508.707 338.088L508.607 347.273L509.582 349.838L510.557 352.403H512.975H515.393L516 350.821C516.334 349.951 516.607 345.53 516.607 340.996V332.752L519.056 330.451L521.505 328.15L523.056 328.745L524.607 329.34L524.673 332.622C524.778 337.918 525.637 347.799 526.109 349.153L526.544 350.403H528.453H530.362L531.735 348.748L533.107 347.092L533.082 337.498L533.057 327.903L531.751 325.568L530.446 323.234L527.06 321.818C523.506 320.334 522.083 320.2 519.607 321.116ZM750.49 324.285L746.607 328.168V335.72V343.273L747.597 345.876C748.141 347.308 749.782 349.587 751.243 350.941L753.899 353.403L757.503 353.399L761.107 353.396L764.357 351.414L767.607 349.432V348.043V346.653L764.482 346.028C762.763 345.684 760.319 345.403 759.049 345.403H756.742L756.256 343.653C755.989 342.691 755.484 339.368 755.133 336.271L754.492 330.638L757.266 328.456L760.04 326.275L761.35 328.067L762.661 329.859L764.384 328.774C765.332 328.177 766.259 326.916 766.445 325.971L766.782 324.254L765.04 322.329L763.297 320.403H758.834H754.372L750.49 324.285ZM774.946 322.338L771.786 324.265L771.115 326.382L770.443 328.499L771.647 329.951C773.207 331.83 775.037 331.795 776.647 329.855L777.932 328.306L779.941 328.605L781.951 328.903L782.362 330.153L782.774 331.403H780.641C779.468 331.403 777.223 332.067 775.654 332.879L772.8 334.355L770.704 337.747L768.607 341.139V343.549V345.958L770.11 348.104L771.613 350.25L775.045 351.383L778.477 352.515L782.565 351.414C784.813 350.809 787.026 350.544 787.483 350.826C787.939 351.108 789.117 350.751 790.1 350.032L791.888 348.725L792.37 341.201L792.852 333.677L791.652 330.039L790.451 326.401L787.452 323.402L784.453 320.403L781.28 320.407L778.107 320.41L774.946 322.338ZM151.61 328.153C150.422 331.865 149.217 335.578 148.932 336.403L148.414 337.903L145.547 332.05C143.97 328.83 142.159 325.568 141.521 324.8L140.362 323.403H137.985H135.607V325.581C135.607 328.076 141.331 344.235 142.921 346.23L143.979 347.556L142.262 350.73L140.544 353.903L137.012 356.204L133.48 358.505L133.802 360.204L134.124 361.903L136.986 362.231C138.561 362.412 140.89 362.298 142.163 361.978L144.478 361.397L148.107 356.969L151.735 352.54L154.148 345.89C155.474 342.232 157.243 335.932 158.078 331.889L159.596 324.539L158.995 322.971L158.393 321.403H156.082H153.77L151.61 328.153ZM202.582 323.968L201.607 326.533V337.897V349.26L203.178 350.832C205.249 352.902 206.317 352.814 207.572 350.469L208.607 348.534V341.124V333.713L210.436 332.058C211.442 331.148 213.129 330.396 214.186 330.388C215.242 330.379 216.756 329.961 217.55 329.459L218.993 328.546L217.834 326.002L216.675 323.458L214.235 322.846L211.793 322.233L209.8 323.3L207.808 324.366L207.238 322.885L206.67 321.403H205.114H203.558L202.582 323.968ZM240.607 323.62L236.107 325.903L234.303 329.403L232.496 332.903L232.923 337.838L233.35 342.772L237.439 346.588L241.53 350.403H245.42H249.311L252.709 348.119L256.107 345.834L256.446 343.467L256.786 341.099L250.825 341.722L244.865 342.345L243.08 340.373L241.295 338.401L247.201 338.989L253.107 339.577L255.014 338.139L256.92 336.701L256.836 333.802C256.789 332.208 256.29 329.689 255.725 328.205L254.696 325.508L252.402 324.023C251.14 323.207 248.982 322.268 247.607 321.937L245.107 321.336L240.607 323.62ZM374.879 322.614L372.651 323.689L372.039 325.621L371.424 327.554L372.107 328.228C372.482 328.599 374.841 328.903 377.352 328.903H381.917L382.345 330.153L382.774 331.403H380.141C376.841 331.403 372.801 333.47 369.781 336.704L367.454 339.195L367.781 342.017L368.107 344.838L371.596 347.182L375.086 349.526L379.596 349.339C382.077 349.237 384.895 349.482 385.857 349.885L387.607 350.617L389.107 350.041L390.607 349.466L390.706 345.684C390.761 343.605 390.984 339.918 391.201 337.491L391.597 333.079L390.578 329.294L389.56 325.51L386.948 323.457L384.337 321.403L380.722 321.471C378.734 321.508 376.104 322.022 374.879 322.614ZM438.008 323.915L436.362 326.427L436.845 338.165C437.424 352.216 438.908 356.19 442.698 353.847L443.607 353.285V344.244V335.203L447.344 331.553L451.081 327.903L451.87 334.403C452.304 337.978 452.985 343.334 453.383 346.306L454.107 351.709L455.885 352.806L457.664 353.903L458.62 352.403L459.576 350.903L459.592 342.242L459.607 333.581L462.719 330.962L465.831 328.344L467.083 329.383L468.336 330.423L468.831 339.872L469.324 349.322L470.99 351.863C473.088 355.065 474.133 355.057 476.25 351.826L477.938 349.249L476.951 338.353L475.965 327.456L474.136 325.435L472.307 323.414L468.717 322.423L465.128 321.432L461.417 323.267L457.706 325.103L457.237 323.882C456.979 323.21 455.556 322.356 454.073 321.984L451.378 321.307L447.616 323.168L443.855 325.029L442.722 323.216C441.185 320.755 439.96 320.936 438.008 323.915ZM599.995 322.383C598.834 322.852 596.921 324.46 595.745 325.955L593.607 328.673V331.383V334.093L595.357 335.655C596.319 336.514 599.001 337.721 601.315 338.337C603.629 338.953 605.771 339.859 606.074 340.35L606.625 341.242L604.939 342.928L603.253 344.614L598.43 343.974L593.607 343.334V345.297V347.26L595.099 348.751C595.919 349.571 598.151 350.757 600.06 351.387L603.531 352.533L606.941 350.915L610.352 349.296L612.082 345.458L613.813 341.619L613.131 338.512L612.449 335.405L610.279 333.879C609.085 333.04 606.319 331.87 604.133 331.279L600.157 330.205L602.133 328.759L604.107 327.314L607.857 327.946L611.607 328.579V326.026V323.473L609.673 322.438C607.385 321.214 602.952 321.188 599.995 322.383ZM634.591 323.264L631.107 325.125L630.792 327.764L630.474 330.403L632.792 330.371C634.066 330.354 635.981 329.679 637.048 328.871C638.116 328.064 639.755 327.403 640.691 327.403H642.393L643 328.985C643.334 329.855 643.607 330.731 643.607 330.933C643.607 331.135 640.909 332.056 637.612 332.981L631.618 334.663L629.112 336.985L626.607 339.308V342.181V345.054L629.188 347.479L631.769 349.903L637.438 350.001C640.556 350.055 643.965 350.468 645.013 350.918L646.919 351.737L648.642 349.609L650.365 347.481L651.06 340.071L651.753 332.661L650.652 328.568L649.55 324.476L647.357 322.94L645.162 321.403H641.62H638.076L634.591 323.264ZM655.164 323.626L653.607 325.848L653.654 332.376C653.679 335.966 654.244 341.822 654.909 345.39L656.118 351.878L657.777 352.197L659.436 352.517L660.057 350.562C660.398 349.487 660.729 345.533 660.793 341.777L660.91 334.946L663.682 332.175L666.453 329.403H668.03H669.607L669.811 332.153C669.924 333.666 670.036 338.728 670.061 343.403L670.107 351.903L672.311 352.216L674.514 352.53L676.181 346.796L677.849 341.061L677.176 334.482L676.504 327.903L675.043 325.669L673.582 323.435L671.237 322.846L668.891 322.257L665.128 323.83C660.515 325.757 660.944 325.796 660.318 323.403L659.794 321.403H658.258H656.72L655.164 323.626ZM706.607 322.125C705.782 322.435 703.859 323.562 702.334 324.63L699.562 326.571L697.492 330.629L695.422 334.686L695.357 339.013L695.292 343.34L698.169 347.492C699.752 349.776 702.061 352.31 703.301 353.122L705.556 354.6L709.078 354.699L712.599 354.799L715.353 352.743L718.107 350.687V349.295V347.903L714.022 348.223L709.938 348.543L706.772 344.938C705.031 342.955 703.607 340.899 703.607 340.368V339.403H712.036H720.464L722.036 337.832C722.9 336.967 723.607 335.773 723.607 335.177V334.093L725.707 335.998C726.862 337.046 729.652 338.803 731.906 339.903C734.16 341.003 736.178 342.466 736.389 343.153L736.774 344.403H730.19H723.607V345.321C723.607 347.602 725.079 349.595 727.802 351.004L730.754 352.53L734.878 352.587L739.003 352.644L741.805 349.508L744.607 346.371V343.838C744.607 342.444 743.962 340.054 743.172 338.526L741.734 335.748L737.172 333.327C731.761 330.457 735.202 325.776 741.068 328.026L742.349 328.518L742.909 327.058L743.47 325.597L742.139 323.778L740.81 321.959L736.346 322.153C731.263 322.375 726.912 323.817 724.359 326.128L722.607 327.713L722.563 329.808L722.519 331.903L720.548 328.171L718.578 324.439L715.642 322.921C712.674 321.386 709.351 321.093 706.607 322.125ZM832.377 322.965L829.645 324.447L827.035 329.963L824.426 335.479L825.387 336.691C825.915 337.358 826.643 339.55 827.005 341.562L827.664 345.221L831.638 348.812L835.613 352.403H838.414H841.215L846.161 349.933L851.107 347.463L852.44 345.315L853.771 343.167L852.936 342.332L852.102 341.498L845.399 342.646L838.696 343.794L836.653 341.943C833.656 339.232 834.066 338.709 839.617 338.176L844.628 337.695L846.617 335.894L848.607 334.093V331.116V328.139L845.036 324.771L841.466 321.403L838.286 321.443L835.107 321.483L832.377 322.965ZM952.575 324.433L949.331 327.463L947.719 326.062C946.832 325.291 945.078 324.127 943.82 323.476L941.531 322.292L936.965 322.977L932.398 323.662L931.003 327L929.607 330.339V338.806V347.273L930.582 349.838L931.557 352.403H934.034H936.508L937.415 350.781L938.323 349.16L937.87 342.531L937.418 335.903L938.487 333.153C939.861 329.623 941.178 329.673 943.067 333.326L944.58 336.249L945.237 343.322L945.894 350.396L947.202 351.482L948.511 352.568L950.309 352.223L952.107 351.878L952.836 344.583L953.565 337.287L955.53 332.845L957.495 328.403L959.301 328.418C963.415 328.453 965.603 332.544 965.613 340.218C965.616 342.795 966.081 346.57 966.647 348.608L967.676 352.314L969.081 351.775L970.485 351.236L972.076 344.239L973.667 337.242L973.004 333.573C972.638 331.554 971.717 328.673 970.956 327.17L969.573 324.437L966.64 322.92L963.706 321.403H959.762H955.819L952.575 324.433ZM37.7275 326.048L33.8225 329.952L32.5855 334.081L31.3485 338.21L32.0095 341.73L32.6695 345.25L36.1735 348.327L39.6775 351.403H42.6915H45.7065L48.5355 349.94C51.3345 348.493 52.6075 346.578 52.6075 343.815V342.392L47.7635 342.982L42.9185 343.572L41.2635 341.916L39.6075 340.26V338.282C39.6075 333.123 44.0875 328.403 48.9825 328.403H51.4895L52.1665 327.307L52.8445 326.211L51.3635 324.73L49.8825 323.25L45.7575 322.696L41.6325 322.143L37.7275 326.048ZM181.631 323.402L178.155 324.243L176.394 326.418C175.426 327.614 174.164 330.333 173.592 332.46L172.55 336.328L173.22 339.116C173.589 340.649 174.701 343.522 175.691 345.5L177.492 349.097L180.014 350.75L182.537 352.403H185.968H189.4L192.398 348.989L195.395 345.575L196.618 341.872L197.839 338.17L197.363 333.212L196.886 328.254L194.897 325.579L192.907 322.903L189.007 322.732C186.862 322.639 183.543 322.94 181.631 323.402ZM313.878 323.838L310.646 325.29L308.725 328.45L306.803 331.61L306.139 336.04L305.474 340.471L306.613 343.92L307.751 347.369L310.583 349.386L313.417 351.403H317.561H321.706L324.462 349.978L327.219 348.553L328.406 345.944L329.595 343.336L328.268 342.827C327.539 342.547 325.099 342.732 322.846 343.238L318.75 344.158L316.438 343.006L314.125 341.853L313.772 340.019L313.418 338.185L319.539 338.895L325.659 339.605L327.133 338.382L328.607 337.158V332.836V328.515L326.357 325.925L324.107 323.335L320.607 322.861L317.107 322.386L313.878 323.838ZM333.857 324.153C332.913 326.553 332.928 346.262 333.876 349.653L334.646 352.403H337.068H339.49L340.24 351.189L340.99 349.975L340.732 341.747L340.474 333.52L341.602 331.413L342.729 329.307L345.168 328.38L347.607 327.453V325.536V323.62L345.086 322.987L342.566 322.355L340.647 323.382L338.728 324.408L338.109 323.406C337.768 322.854 336.826 322.403 336.017 322.403H334.544L333.857 324.153ZM397.178 323.974L395.607 325.546L395.618 332.724C395.624 336.673 395.905 341.564 396.24 343.595L396.85 347.286L398.815 349.396L400.78 351.505L402.193 350.331L403.607 349.158V338.003V326.848L402.05 324.626C400.205 321.991 399.285 321.868 397.178 323.974ZM908.107 323.611C905.081 325.346 903.773 327.397 902.06 333.095L900.499 338.287L901.572 342.272L902.645 346.257L905.703 348.83L908.76 351.403H913.107H917.455L920.512 348.83L923.57 346.257L924.645 342.26L925.722 338.264L924.099 333.38L922.477 328.496L919.008 325.45L915.538 322.403L912.822 322.433C911.329 322.45 909.207 322.98 908.107 323.611ZM71.4795 326.066L70.1075 327.73L70.3285 335.816C70.4495 340.264 70.8065 345.36 71.1215 347.141L71.6935 350.379L73.7145 351.46L75.7355 352.542L77.1715 351.35L78.6075 350.158V339.846V329.533L77.6325 326.968L76.6575 324.403H74.7545H72.8525L71.4795 326.066ZM495.069 331.228C493.614 331.407 492.129 331.258 491.767 330.896L491.11 330.239L493.097 328.787L495.083 327.334L496.399 329.119L497.714 330.903L495.069 331.228ZM189.713 331.153L190.769 333.903L190.22 337.343L189.671 340.783L187.694 342.761L185.717 344.738L184.213 343.491C183.386 342.804 182.205 340.711 181.587 338.839L180.462 335.434L181.157 333.169C181.539 331.923 182.302 330.341 182.852 329.653L183.852 328.403H186.254H188.657L189.713 331.153ZM248.357 330.153L248.774 331.403H246.191H243.607V330.57C243.607 328.171 247.582 327.823 248.357 330.153ZM321.357 330.153L321.774 331.403L317.94 331.371L314.107 331.339L316.089 329.842C318.329 328.149 320.738 328.291 321.357 330.153ZM712.607 330.903V332.403L708.857 332.371L705.107 332.339L707.048 330.871C708.116 330.064 709.803 329.403 710.798 329.403H712.607V330.903ZM807.862 331.653C808.762 332.341 809.772 334.045 810.108 335.441L810.718 337.98L807.128 339.691C802.369 341.961 802.607 342.16 802.607 335.903V330.403H804.416C805.411 330.403 806.962 330.966 807.862 331.653ZM915.685 334.592L916.927 337.59L915.993 340.247L915.06 342.903H913.096H911.134L909.903 340.332L908.669 337.761L909.659 334.181L910.646 330.601L912.545 331.097L914.444 331.593L915.685 334.592ZM382.599 338.893L383.836 340.383L381.508 341.244C377.089 342.879 373.69 340.619 377.357 338.483C379.803 337.058 381.164 337.165 382.599 338.893ZM642.607 340.403L641.537 342.403L637.323 342.361L633.107 342.319L636.607 340.403C638.532 339.349 640.91 338.468 641.892 338.445L643.677 338.403L642.607 340.403ZM784.427 341.153L784.746 343.403H780.677C776.164 343.403 775.817 342.933 778.302 340.188L779.997 338.315L782.052 338.609L784.107 338.903L784.427 341.153ZM16.3575 340.033L18.6075 340.636V341.911V343.186L16.0865 343.819L13.5665 344.451L11.5865 343.392C8.42649 341.701 9.07648 340.46 13.6075 339.533C13.8825 339.476 15.1195 339.702 16.3575 340.033ZM581.607 341.303V343.203H578.104H574.602L574.04 342.295L573.479 341.386L575.793 340.458C577.066 339.947 578.895 339.501 579.857 339.466L581.607 339.403V341.303ZM74.0065 369.917L72.3585 372.432L72.8165 389.671L73.2735 406.911L74.4755 409.157L75.6775 411.403H77.6675H79.6575L80.7415 408.653L81.8255 405.903L81.1655 387.944L80.5055 369.985L79.4345 368.694C78.8445 367.984 77.7535 367.403 77.0085 367.403H75.6535L74.0065 369.917ZM84.6535 370.847L83.3835 372.378L83.9725 373.913C84.2975 374.757 85.2825 375.725 86.1625 376.062L87.7625 376.676L89.4185 375.021L91.0735 373.365L89.9835 371.634C89.3835 370.682 88.2245 369.771 87.4085 369.61L85.9235 369.317L84.6535 370.847ZM306.178 370.974C304.265 372.888 304.233 373.51 305.933 375.834L307.259 377.648L309.326 376.992L311.391 376.337L311.91 374.352L312.43 372.368L310.948 370.885C309.065 369.002 308.133 369.02 306.178 370.974ZM97.5825 373.968C97.0465 375.379 96.6075 377.41 96.6075 378.482C96.6075 379.553 96.0565 381.313 95.3825 382.392L94.1575 384.353L95.3825 385.578L96.6075 386.803V393.635V400.467L98.1455 404.149C98.9915 406.173 100.411 408.634 101.3 409.616L102.917 411.403H106.191H109.464L111.08 409.787L112.696 408.171L112.323 407.037C112.118 406.413 111.017 405.765 109.876 405.596L107.803 405.29L106.779 402.596C106.216 401.115 105.482 396.753 105.146 392.903L104.537 385.903L106.757 384.903C107.978 384.353 109.157 383.341 109.376 382.653L109.774 381.403H107.19H104.607V377.603V373.803L103.407 372.603C102.747 371.943 101.386 371.403 100.382 371.403H98.5575L97.5825 373.968ZM180.345 372.095L178.583 372.554L179.154 373.479C179.468 373.987 180.823 374.403 182.166 374.403H184.607V372.903V371.403L183.357 371.519C182.67 371.583 181.314 371.842 180.345 372.095ZM289.367 376.085C288.674 377.635 287.26 379.608 286.224 380.47L284.341 382.037L285.509 384.22C286.152 385.421 287.164 386.403 287.76 386.403H288.842L288.193 393.653L287.543 400.903L289.56 404.153L291.578 407.403H295.159C298.977 407.403 302.607 405.937 302.607 404.396V403.46L299.357 402.621L296.107 401.782L295.816 394.716L295.524 387.649L299.066 385.56C303.071 383.197 303.47 381.934 300.68 380.442L298.753 379.41L297.25 379.987L295.746 380.564L295.426 377.233L295.107 373.903L292.867 373.585L290.626 373.266L289.367 376.085ZM2.46448 379.653L1.25049 381.903L0.813477 392.403L0.375488 402.903L2.42848 405.403L4.48248 407.903L6.29448 406.8L8.10748 405.697L8.60748 398.63C8.88248 394.743 9.33248 391.379 9.60748 391.155C9.88248 390.93 11.8175 389.474 13.9065 387.919L17.7055 385.091L17.4065 382.997L17.1075 380.903H12.7875H8.46748L7.48848 379.153L6.50848 377.403H5.09248H3.67749L2.46448 379.653ZM211.808 378.603L210.607 379.803V392.169V404.534L211.642 406.469L212.678 408.403H214.584C217.367 408.403 217.69 407.352 217.963 397.442L218.212 388.466L218.981 387.684C219.404 387.255 221.181 386.413 222.929 385.814L226.107 384.726L226.415 383.15L226.722 381.574L224.415 380.817C223.146 380.401 220.927 380.14 219.485 380.238L216.863 380.415L215.613 378.909C214.103 377.089 213.38 377.031 211.808 378.603ZM27.1075 379.122C24.0715 379.862 21.8055 382.272 20.5405 386.107L19.3975 389.569L20.0955 395.156L20.7935 400.743L23.6235 403.573L26.4535 406.403L31.7805 406.399L37.1075 406.396L40.3575 404.414C42.1455 403.324 43.6075 402.056 43.6075 401.597V400.761L37.0075 400.579C30.3515 400.396 28.6075 399.959 28.6075 398.474V397.663L33.0935 397.158L37.5785 396.652L40.0935 395.004L42.6075 393.357L42.6035 390.63L42.6005 387.903L40.5815 384.593L38.5635 381.283L35.1175 379.843C31.5855 378.367 30.5795 378.276 27.1075 379.122ZM50.2935 379.462C49.2965 380.073 48.1115 381.548 47.6615 382.738L46.8435 384.903L47.7605 386.653L48.6775 388.403H50.5925H52.5085L53.3705 386.862L54.2325 385.322L55.9475 385.98C56.8915 386.342 58.1245 387.5 58.6875 388.553L59.7125 390.467L57.1595 389.827L54.6075 389.186L52.0425 389.83L49.4785 390.474L47.5645 394.688C46.5125 397.006 45.6415 399.725 45.6295 400.73L45.6075 402.557L48.5305 405.48L51.4535 408.403L53.7805 408.397C55.0605 408.393 57.3585 407.738 58.8885 406.94L61.6695 405.49L63.1515 406.058L64.6325 406.627L66.1205 405.392L67.6075 404.158L67.6015 397.531C67.5985 393.885 67.1495 389.295 66.6035 387.329L65.6105 383.754L63.1715 381.463L60.7325 379.171L56.4195 378.76L52.1075 378.349L50.2935 379.462ZM130.169 380.618C129.316 381.836 127.416 385.977 125.948 389.82L123.277 396.808L121.991 393.855C121.283 392.232 119.793 388.733 118.68 386.08L116.655 381.258L114.381 381.58L112.107 381.903L111.803 384.524L111.499 387.146L113.607 393.524C114.766 397.033 116.572 401.098 117.621 402.558L119.527 405.214L116.617 409.231C115.016 411.44 112.963 413.664 112.054 414.173L110.402 415.097L110.762 417L111.123 418.903L114.235 419.207L117.346 419.51L120.408 416.448L123.469 413.387L126.068 407.894C129.621 400.384 134.607 384.862 134.607 381.313V378.403H133.164H131.72L130.169 380.618ZM180.214 379.985C179.88 380.855 179.615 386.367 179.623 392.235L179.636 402.903L180.897 405.394L182.157 407.885L183.93 408.227L185.704 408.568L187.123 407.39L188.543 406.212L188.042 402.057L187.542 397.903L188.887 392.903L190.231 387.903L193.658 387.403L197.084 386.903L197.407 385.216L197.73 383.529L195.067 381.785L192.405 380.041L189.335 381.2L186.264 382.359L184.879 380.381C184.117 379.293 182.892 378.403 182.157 378.403H180.821L180.214 379.985ZM235.907 380.363L232.704 382.315L231.157 385.309L229.607 388.304V393.449V398.594L231.243 401.363C232.142 402.886 234.124 404.868 235.647 405.767L238.416 407.403H242.144H245.871L249.069 405.427L252.267 403.45L254.088 400.069L255.91 396.688L255.36 392.592L254.811 388.497L252.692 385.522L250.574 382.547L246.84 381.354C244.787 380.698 242.679 379.766 242.157 379.282C240.746 377.976 239.454 378.2 235.907 380.363ZM277.32 379.024C276.928 379.416 276.607 382.376 276.607 385.602V391.467L275.198 394.839L273.79 398.21L271.573 398.914L269.357 399.617L268.486 398.26C266.89 395.776 265.618 389.959 265.613 385.122L265.607 380.34L263.951 379.705L262.295 379.069L260.451 381.347L258.607 383.625V388.648C258.607 391.411 259.132 395.425 259.775 397.568L260.942 401.466L263.411 403.934L265.88 406.403L268.993 406.371L272.107 406.339L274.027 404.887L275.947 403.434L277.803 406.485L279.658 409.535L281.883 409.219L284.107 408.903L284.259 397.903C284.343 391.853 284.108 385.103 283.737 382.903L283.062 378.903L280.547 378.607C279.164 378.444 277.711 378.632 277.32 379.024ZM85.4775 382.153L84.3965 384.903V393.903V402.903L85.4775 405.653L86.5575 408.403H89.0355H91.5135L92.4025 405.153L93.2915 401.903L92.9005 392.903C92.6855 387.953 92.2975 382.89 92.0395 381.653L91.5695 379.403H89.0635H86.5575L85.4775 382.153ZM326.107 380.348L324.107 381.258L320.943 380.735L317.779 380.213L316.693 382.242L315.607 384.272V395.266V406.26L317.178 407.832C319.142 409.795 321.037 409.83 322.928 407.939L324.392 406.475L325.071 398.189C325.445 393.632 325.973 389.115 326.246 388.153L326.742 386.403H329.603H332.464L334.036 387.974L335.607 389.546V396.427V403.309L336.79 405.905L337.972 408.501L340.54 408.202L343.107 407.903L343.392 397.676L343.676 387.449L340.357 383.828L337.039 380.206L332.573 379.822L328.107 379.437L326.107 380.348ZM353.436 381.316L350.764 383.425L349.066 387.871L347.368 392.317L348.026 395.818L348.682 399.319L352.295 402.297L355.909 405.276L360.674 406.419L365.44 407.563L367.446 406.489C370.016 405.114 372.607 402.525 372.607 401.332V400.403H368.128H363.647L359.628 398.794C357.417 397.91 355.607 396.843 355.607 396.424V395.661L361.583 394.985L367.56 394.309L369.083 392.134L370.607 389.958V387.249V384.539L367.516 382.338L364.424 380.137L360.266 379.672L356.107 379.208L353.436 381.316ZM156.35 381.487C155.384 382.05 153.647 384.365 152.49 386.633L150.387 390.755L150.873 395.073L151.36 399.39L154.082 402.959L156.804 406.527L159.373 407.504L161.943 408.481L164.982 407.422C168.995 406.023 172.454 402.684 174.194 398.531L175.607 395.159V391.181V387.203L172.207 383.803L168.807 380.403L163.457 380.433L158.107 380.464L156.35 381.487ZM305.952 383.653L305.18 384.903L305.444 395.903C305.59 401.953 305.941 407.691 306.225 408.653L306.742 410.403H309.655H312.569L313.339 407.653C313.762 406.14 314.051 401.078 313.983 396.403L313.858 387.903L312.758 385.153L311.657 382.403H309.191H306.725L305.952 383.653ZM33.4765 387.745L34.5905 389.087L33.9325 389.745C32.9135 390.763 28.7985 390.522 28.1075 389.403L27.4895 388.403L28.1075 387.403C28.9945 385.968 32.1695 386.17 33.4765 387.745ZM165.142 388.018L167.607 389.633V392.114V394.594L165.539 397.499C162.94 401.149 162.04 401.141 160.133 397.453C156.718 390.85 160.008 384.654 165.142 388.018ZM245.607 388.403L247.607 390.403V393.846V397.29L245.384 398.846C242.578 400.812 241.156 400.809 239.178 398.832L237.607 397.26V393.032V388.803L238.808 387.603C239.468 386.943 240.818 386.403 241.808 386.403H243.607L245.607 388.403ZM363.107 387.403L363.725 388.403H360.107H356.49L357.107 387.403L357.725 386.403H360.107H362.49L363.107 387.403ZM58.1665 397.828L60.1075 399.254L57.2925 400.328C55.7445 400.919 54.0565 401.403 53.5425 401.403H52.6075V399.57C52.6075 396.158 54.9095 395.437 58.1665 397.828ZM377.642 400.337C376.223 402.989 376.27 403.136 379.112 404.998L381.617 406.64L383.112 405.399L384.607 404.158V401.888V399.617L383.026 399.01C382.156 398.676 380.821 398.403 380.06 398.403H378.677L377.642 400.337ZM162.66 467.839L161.384 469.377L161.987 471.78L162.59 474.182L164.239 474.815L165.889 475.448L168.308 473.863L170.728 472.278L170.417 469.59L170.107 466.903L167.022 466.602L163.937 466.301L162.66 467.839ZM208.946 469.01L207.236 471.618L207.428 480.587L207.619 489.557L208.556 491.307C209.071 492.269 209.787 495.497 210.147 498.48C211.094 506.332 212.57 511.654 214.355 513.653L215.917 515.403H218.394H220.871L224.239 511.832L227.607 508.261V506.752V505.244L224.751 505.872L221.892 506.499L221.29 502.201C220.958 499.837 220.407 496.543 220.067 494.882L219.449 491.86L223.998 490.644L228.545 489.427L230.225 486.864L231.904 484.3L230.753 483.149L229.601 481.997L223.105 481.584L216.607 481.17V475.787V470.403L214.607 468.403C211.977 465.773 210.998 465.879 208.946 469.01ZM12.6075 478.656L8.10748 481.052L5.85548 484.379C4.61648 486.208 3.10448 489.55 2.49548 491.804L1.38748 495.903L1.92448 501.146L2.46149 506.389L4.69249 509.522L6.92348 512.655L11.0885 514.497L15.2525 516.34L18.9285 515.325L22.6045 514.31L24.1785 511.266L25.7525 508.222L25.2115 506.813L24.6705 505.403H20.5935H16.5165L14.0625 502.948C12.7125 501.598 11.6075 500.003 11.6075 499.403V498.312L14.8575 498.92L18.1075 499.528L23.0915 498.409L28.0755 497.29L29.8415 495.691L31.6075 494.093V491.875C31.6075 488.852 28.1085 481.167 25.7675 479.048L23.8555 477.318L20.4815 476.788L17.1075 476.259L12.6075 478.656ZM96.7505 479.936L93.7415 482.468L92.6445 485.792L91.5475 489.115L92.5085 491.644L93.4705 494.173L91.4775 498.202L89.4835 502.23L90.5695 506.263L91.6555 510.296L94.2665 512.349L96.8775 514.403L100.492 514.388C102.48 514.379 104.754 513.963 105.545 513.463L106.983 512.553L109.017 513.978C110.136 514.762 111.842 515.403 112.806 515.403H114.561L116.211 512.884L117.862 510.365L117.157 502.134C116.769 497.607 115.993 491.737 115.433 489.09L114.414 484.277L110.977 480.84L107.54 477.403H103.65H99.7605L96.7505 479.936ZM125.88 480.117L124.107 482.831L124.146 502.867L124.186 522.903L125.656 525.903L127.126 528.903L129.421 529.23L131.717 529.557L133.162 528.357L134.607 527.158V519.781V512.403H136.411C137.403 512.403 140.565 511.231 143.439 509.8L148.663 507.196L151.004 504.05C152.291 502.319 153.648 499.62 154.02 498.052L154.696 495.202L153.525 491.552C152.128 487.199 150.088 484.703 146.344 482.767L143.577 481.336L138.342 481.12L133.107 480.903L131.8 479.153C131.082 478.191 129.854 477.403 129.073 477.403H127.653L125.88 480.117ZM37.7475 482.042L34.5585 485.903L33.5385 489.674L32.5185 493.446L33.8155 496.174L35.1115 498.903L39.6095 500.442C42.0835 501.289 44.7825 502.228 45.6075 502.53L47.1075 503.078L45.7355 504.74C43.7415 507.155 41.8255 506.802 37.8155 503.281L34.2595 500.159L32.9335 501.972C30.2775 505.604 32.2505 512.639 36.8245 515.842L39.0525 517.403H42.4435H45.8355L49.4715 515.335C51.4715 514.198 53.9565 512.12 54.9935 510.717L56.8795 508.166L57.3505 503.988L57.8215 499.811L55.1405 496.625L52.4605 493.439L48.2835 492.241C43.1345 490.763 43.4425 490.997 44.1635 489.118L44.7655 487.548L48.4365 488.841L52.1075 490.135L54.4245 489.276L56.7415 488.418L56.4245 485.759L56.1075 483.101L53.4315 481.112L50.7565 479.124L45.8465 478.652L40.9365 478.18L37.7475 482.042ZM184.637 479.682C183.279 480.37 181.141 482.455 179.887 484.315L177.607 487.699V490.596V493.494L179.905 495.792L182.204 498.09L187.964 499.902L193.725 501.714L192.178 503.26L190.632 504.807L185.662 503.02L180.692 501.233L179.649 501.877L178.607 502.521V505.062V507.603L181.949 510.944L185.29 514.285L187.949 514.952L190.607 515.62L193.29 514.947L195.972 514.273L199.79 510.456L203.607 506.638V502.421V498.203L200.298 494.893L196.986 491.582L192.798 490.454C187.601 489.055 187.414 488.195 192.357 488.423C194.42 488.519 196.895 488.553 197.857 488.5L199.607 488.403L199.575 486.153C199.491 480.166 190.973 476.476 184.637 479.682ZM68.8555 480.624L66.6045 481.71L63.9075 487.222L61.2115 492.733L60.7845 498.629L60.3585 504.524L62.1145 508.419L63.8705 512.314L67.8315 515.058L71.7925 517.803H75.0145H78.2375L81.5355 515.454L84.8335 513.106L86.2895 509.623L87.7445 506.14L86.9255 505.324L86.1075 504.509L81.3735 506.069L76.6395 507.629L75.1815 507.07C74.3805 506.762 72.9505 505.33 72.0055 503.887L70.2865 501.264L71.9875 495.867C72.9225 492.899 74.1065 490.212 74.6185 489.896L75.5485 489.321L78.6455 490.923L81.7425 492.524L83.9255 492.214L86.1075 491.903L86.4345 489.595L86.7615 487.287L85.1065 484.762L83.4515 482.236L80.0615 480.819C76.1055 479.166 72.0265 479.095 68.8555 480.624ZM283.951 480.951C283.625 481.802 283.593 484.259 283.881 486.411L284.406 490.324L280.958 492.359L277.509 494.393L276.058 497.866C275.26 499.776 274.607 502.193 274.607 503.236V505.133L276.751 507.859L278.896 510.586L282.755 510.218L286.615 509.849L287.196 511.685L287.779 513.52L289.943 513.211L292.107 512.903L291.862 510.403C289.917 490.618 289.376 485.406 288.982 482.653L288.516 479.403H286.53H284.544L283.951 480.951ZM160.479 482.055L159.107 483.707L158.992 489.805C158.861 496.732 160.366 509.789 161.683 513.153L162.564 515.403H165.014H167.464L169.036 513.832L170.607 512.26L170.604 507.582C170.603 505.008 170.115 498.853 169.522 493.903L168.442 484.903L167.001 482.653L165.561 480.403H163.706H161.852L160.479 482.055ZM365.996 482.988L365.349 485.572L366.901 487.124L368.452 488.676L370.029 488.071L371.607 487.466V485.134V482.803L370.407 481.603C369.747 480.943 368.631 480.403 367.926 480.403H366.646L365.996 482.988ZM298.917 485.039L298.289 486.675L299.307 488.289L300.326 489.903H302.107H303.889L304.94 488.237L305.991 486.571L304.677 484.987L303.362 483.403H301.453H299.544L298.917 485.039ZM352.023 485.079C351.705 486.082 351.044 487.907 350.555 489.135L349.667 491.366L350.68 497.135C351.237 500.307 352.148 505.226 352.702 508.066L353.712 513.229L355.401 513.877L357.089 514.525L358.849 512.353C360.989 509.711 361.088 508.403 359.152 508.403H357.698L357.206 505.153C356.934 503.365 356.467 500.042 356.167 497.768L355.62 493.633L357.615 493.112C360.191 492.438 360.172 490.717 357.581 489.895L355.555 489.252L355.831 486.613L356.107 483.974L354.354 483.615L352.602 483.255L352.023 485.079ZM105.607 491.594V492.403H103.107H100.607V491.103C100.607 490.388 101.163 489.247 101.844 488.566L103.08 487.33L104.344 489.057C105.038 490.008 105.607 491.149 105.607 491.594ZM258.072 488.355C255.246 489.5 253.726 491.558 252.991 495.233L252.363 498.372L253.908 498.965L255.452 499.558L253.53 501.48C251.024 503.986 251.103 505.741 253.857 508.749L256.107 511.206L261.857 511.813L267.607 512.42V502.366V492.312L265.152 489.858C262.562 487.268 261.376 487.016 258.072 488.355ZM312.717 490.799C311.403 491.527 309.731 493.199 309.003 494.513L307.678 496.903L307.642 500.315L307.607 503.727L310.138 508.047C312.936 512.821 315.164 514.403 319.087 514.403H321.698L324.206 511.895L326.715 509.386L326.1 508.392L325.487 507.399L321.701 508.004L317.915 508.609L315.761 505.871C314.576 504.365 313.607 502.819 313.607 502.436V501.738L318.896 502.177L324.186 502.616L325.518 501.01L326.85 499.405L325.594 496.37C324.903 494.701 323.212 492.45 321.837 491.369L319.337 489.403L317.222 489.438C316.059 489.458 314.032 490.07 312.717 490.799ZM334.266 491.457L331.655 493.51L330.536 497.246L329.417 500.982L330.536 505.139L331.655 509.296L334.266 511.349L336.878 513.403H339.019C342.07 513.403 345.125 510.984 346.615 507.387L347.896 504.292L346.875 503.27L345.852 502.248L343.276 504.826C341.859 506.243 340.018 507.403 339.188 507.403H337.677L336.642 505.469C336.073 504.405 335.607 502.48 335.607 501.191V498.848L337.198 496.578L338.787 494.308L340.198 495.478C340.974 496.121 341.607 497.268 341.607 498.025V499.403H343.607H345.607V496.626V493.848L344.05 491.626L342.495 489.403H339.685H336.878L334.266 491.457ZM400 490.406L397.892 491.233L396.25 495.338C393.549 502.088 394.394 507.952 398.521 511.121L400.107 512.339L402.902 512.371L405.698 512.403L408.276 509.826L410.852 507.248L409.831 506.226L408.808 505.204L406.458 506C402.006 507.506 399.651 505.972 399.622 501.546L399.607 499.189L401.274 499.829C402.191 500.181 405.497 500.736 408.62 501.062L414.297 501.655L414.974 499.888L415.652 498.121L414.12 495.783C412.486 493.289 408.689 491.033 404.607 490.131L402.107 489.579L400 490.406ZM479.274 490.07L478.607 490.736V500.947V511.158L480.107 512.403L481.607 513.648L483.107 512.403L484.607 511.158V506.682V502.205L486.24 498.765L487.872 495.325L488.99 495.692L490.107 496.06L490.607 502.972L491.107 509.885L492.987 510.242L494.867 510.6L495.722 509.251L496.576 507.903L496.592 501.73L496.607 495.556L494.018 492.48L491.43 489.403H489.241C488.037 489.403 486.098 490.072 484.931 490.889L482.81 492.374L482.24 490.889C481.635 489.313 480.377 488.966 479.274 490.07ZM507.172 490.981C504.986 493.167 503.428 496.264 502.545 500.179L501.795 503.501L502.766 507.017L503.737 510.533L505.672 512.468L507.607 514.403H510.879H514.151L517.879 511.33L521.607 508.257V503.781V499.304L520.122 496.432C519.305 494.853 517.324 492.625 515.719 491.482L512.798 489.403H510.774H508.75L507.172 490.981ZM526.508 491.024L525.107 492.712L525.162 499.435L525.216 506.158L526.878 508.694L528.539 511.229L531.514 511.883L534.49 512.536L536.396 511.516L538.301 510.497L539.349 511.544L540.396 512.591L542.245 512.234L544.096 511.878L543.772 504.871C543.594 501.018 543.13 496.298 542.741 494.384L542.034 490.903L539.82 490.583L537.607 490.264V495.268C537.607 498.021 537.164 501.439 536.622 502.864L535.638 505.454L534.079 506.052L532.521 506.65L531.862 505.991C531.5 505.628 530.956 501.896 530.654 497.696L530.107 490.061L529.008 489.699L527.907 489.336L526.508 491.024ZM557.44 490.436C556.524 490.971 554.757 491.295 553.513 491.156L551.251 490.903L550.529 493.403C549.622 496.541 549.402 508.706 550.214 510.821L550.821 512.403H552.68H554.537L555.573 510.469L556.607 508.534V503.469V498.403L558.607 496.403C559.707 495.303 561.234 494.403 562 494.403H563.393L564 495.985C564.334 496.855 564.607 500.653 564.607 504.426V511.285L565.526 511.853L566.446 512.421L568.026 510.841L569.607 509.26V501.966V494.673L567.534 492.038L565.462 489.403L562.284 489.433C560.537 489.45 558.357 489.901 557.44 490.436ZM139.747 491.801L142.386 492.386L143.014 494.021L143.642 495.656L142.447 497.096C141.79 497.887 139.969 499.199 138.4 500.01L135.548 501.485L134.578 500.885L133.607 500.285V495.277V490.268L135.357 490.743C136.319 491.004 138.295 491.48 139.747 491.801ZM365.214 491.985C364.88 492.855 364.614 497.017 364.622 501.235L364.638 508.903L365.492 510.251L366.347 511.6L368.227 511.24L370.107 510.881L370.397 502.651L370.688 494.422L369.612 492.413L368.537 490.403H367.18H365.821L365.214 491.985ZM375.932 491.998L375.32 493.594L377.214 501.196L379.107 508.797L380.701 510.767L382.295 512.737L383.901 512.121L385.504 511.505L389.604 503.29L393.703 495.074L393.405 492.999L393.107 490.923L391.38 490.594L389.654 490.265L386.922 495.834C383.642 502.521 383.01 502.678 381.596 497.153C380.998 494.816 380.32 492.341 380.089 491.653L379.67 490.403H378.107H376.544L375.932 491.998ZM432.901 491.653C432.377 492.341 431.147 494.65 430.168 496.785L428.388 500.667L428.93 504.007C429.228 505.845 430.29 508.467 431.29 509.834L433.107 512.32L435.758 513.275L438.409 514.23L440.381 512.849L442.353 511.467L443.449 507.115L444.545 502.763L443.561 499.199C443.02 497.238 441.651 494.457 440.519 493.019L438.462 490.403H436.157H433.852L432.901 491.653ZM452.232 491.202C451.959 491.644 451.484 494.646 451.178 497.874L450.621 503.742L451.669 507.635L452.719 511.528L454.912 511.215L457.107 510.903L456.94 507.403C456.848 505.478 456.973 502.48 457.219 500.741L457.665 497.579L460.636 496.543L463.607 495.507V493.924V492.34L462.357 491.955C461.67 491.743 459.222 491.306 456.917 490.984L452.728 490.399L452.232 491.202ZM299.274 493.07L298.607 493.736L298.592 504.32L298.576 514.903L297.633 516.395L296.69 517.886L295.449 516.645C293.782 514.978 292.945 515.081 292.191 517.044L291.562 518.685L293.107 521.044L294.654 523.403H296.696C297.819 523.403 299.572 522.958 300.589 522.413L302.438 521.424L303.522 516.364L304.607 511.305L304.594 504.104C304.587 500.143 304.308 495.89 303.977 494.653L303.375 492.403H301.657C300.713 492.403 299.64 492.703 299.274 493.07ZM262.284 495.004L262.898 496.605L261.503 497.489C260.735 497.975 259.545 498.379 258.857 498.388L257.607 498.403V497.103C257.607 494.019 261.275 492.373 262.284 495.004ZM513.8 497.159L515.495 498.61L516.146 501.574L516.795 504.537L515.047 506.47L513.297 508.403H511.06H508.821L508.214 506.821C507.253 504.317 507.505 499.721 508.753 496.981L509.899 494.466L511.003 495.086C511.61 495.428 512.869 496.36 513.8 497.159ZM283.747 503.663L282.741 504.669L281.174 504.067L279.607 503.466V501.934C279.607 501.092 280.62 499.39 281.857 498.153L284.107 495.903L284.43 499.28L284.753 502.657L283.747 503.663ZM437.633 498.449L438.727 500.495L438.417 503.699L438.107 506.903H436.631H435.155L434.237 504.293L433.32 501.684L433.982 499.043C434.776 495.881 436.139 495.659 437.633 498.449ZM105.607 502.903V504.403H103.166C100.657 504.403 99.1675 503.176 100.301 502.042C100.653 501.691 101.99 501.403 103.274 501.403H105.607V502.903Z" fill="#025354"/>
</svg>
