<svg width="1265" height="1434" viewBox="0 0 1265 1434" fill="none" xmlns="http://www.w3.org/2000/svg">
<path fill-rule="evenodd" clip-rule="evenodd" d="M660.247 4.65894L661.548 11.5898L657.242 21.5969L650.585 28.0498L639.309 25.5269L632.591 26.7249C628.897 27.3849 622.253 29.059 617.824 30.447L609.772 32.969L604.043 37.5378V44.0999L608.477 47.4448L586.867 68.3599L575.567 74.3599C569.352 77.6599 562.829 81.2748 561.071 82.3918L557.876 84.4248L557.231 89.981L559.621 92.8599H562.498C566.198 92.8599 566.176 92.965 561.043 99.686C558.659 102.807 554.431 108.96 551.647 113.36L546.585 121.36L545.362 127.36L548.397 133.13L547.22 134.548C546.573 135.328 542.975 137.758 539.226 139.947L532.41 143.929L530.175 148.104L531.381 154.136L529.629 155.481C528.665 156.22 524.276 158.574 519.876 160.71C515.476 162.847 509.176 166.623 505.876 169.102C502.576 171.581 497.414 174.848 494.406 176.363L488.935 179.117L476.776 190.793L474.134 196.577C467.24 211.671 458.235 234.984 456.789 241.478C456.652 242.093 453.691 244.2 450.208 246.161C439.39 252.251 433.659 257.691 416.539 278.118L410.876 284.875L406.376 284.331C403.901 284.032 398.636 283.521 394.676 283.195L387.476 282.603L380.282 286.848L370.579 285.446C365.242 284.674 358.176 283.745 354.876 283.381C351.576 283.016 346.401 282.104 343.376 281.354C340.351 280.604 334.164 279.459 329.626 278.81L321.376 277.63V272.866L314.379 265.121L309.627 263.856C303.865 262.323 286.928 255.11 279.376 250.973L273.876 247.96L263.594 236.242L259.619 235.051C257.433 234.396 253.671 233.823 251.26 233.779L246.876 233.697L237.876 223.004L232.93 220.432C230.209 219.017 227.172 217.86 226.18 217.86H224.376V216.466C224.376 210.019 211.888 187.94 202.399 177.61L196.199 170.86L193.037 170.875C191.299 170.884 189.281 171.268 188.554 171.729L187.231 172.567L186.328 176.464C184.962 182.349 185.223 189.037 187.376 203.36C188.451 210.51 189.34 217.147 189.353 218.11L189.376 219.86H188.367C186.836 219.86 167.135 211.307 157.25 206.35C146.408 200.914 143.045 198.801 127.415 187.601C120.561 182.69 111.91 177.139 108.19 175.266L101.426 171.86H93.6756L85.2216 177.984L82.1666 185.296L82.9916 196.703L88.6446 208.278C91.7526 214.644 96.0726 222.469 98.2436 225.666L102.192 231.479L118.531 246.85L129.094 253.913C142.189 262.669 150.122 266.698 163.299 271.285L173.57 274.86H180.59L179.371 278.038L183.386 283.143L182.513 284.251C182.032 284.861 181.609 286.872 181.571 288.72L181.503 292.08L185.059 295.897L190.209 291.846L202.183 298.979L204.31 311.054L211.381 321.707L214.629 322.712C216.415 323.265 219.451 324.028 221.376 324.408C224.967 325.117 242.294 332.186 245.876 334.402C253.62 339.196 275.371 346.556 289.486 349.16L295.095 350.194L297.47 356.761L300.556 359.358C302.254 360.787 305.423 362.864 307.598 363.973L311.554 365.991L317.715 367.026C321.103 367.594 327.476 369.096 331.876 370.363C350.258 375.654 358.071 377.786 361.376 378.413C363.301 378.778 366.901 379.904 369.376 380.913C371.851 381.923 376.801 383.225 380.376 383.808C383.951 384.39 389.576 385.378 392.876 386.002L398.876 387.138L430.876 387.36L442.876 381.963L457.876 379.865L480.757 371.412L487.376 364.793V361.165L494.119 353.263C497.828 348.916 504.922 339.35 509.885 332.004L518.907 318.648L528.732 314.918L536.549 307.36L541.876 295.649L549.693 314.133L548.785 315.32C548.285 315.972 546.395 318.723 544.586 321.433L541.296 326.36L538.161 337.112L541.104 349.16L534.062 355.343L530.42 363.36L530.398 367.867C530.386 370.345 530.809 373.883 531.338 375.729C531.868 377.575 532.776 382.501 533.357 386.678L534.413 394.27L538.517 398.639L523.13 429.028L522.662 434.983L519.068 438.671C517.092 440.7 513.765 444.702 511.675 447.565C509.586 450.428 505.691 455.727 503.02 459.341L498.163 465.912L499.031 473.346L495.253 480.353C493.175 484.207 489.849 491.41 487.862 496.36C485.875 501.31 482.284 509.661 479.883 514.918L475.516 524.477L473.435 532.629C472.29 537.113 471.06 543.611 470.702 547.07L470.05 553.36L463.279 565.703L459.464 579.054C457.365 586.397 454.279 595.545 452.606 599.383C450.933 603.22 448.896 608.61 448.079 611.36C447.261 614.11 444.353 620.86 441.616 626.36C438.879 631.86 436.297 637.485 435.88 638.86C434.623 642.994 428.325 657.984 425.376 663.86L422.616 669.36L420.907 676.86C419.967 680.985 418.297 687.491 417.196 691.317L415.193 698.273L412.034 700.583L411.42 716.36L406.376 726.199V733.587L404.015 735.974C402.716 737.286 400.804 739.935 399.765 741.86L397.876 745.36L397.824 783.36L394.134 800.36C392.104 809.71 389.508 820.06 388.365 823.36C387.222 826.66 385.185 834.76 383.838 841.36C382.491 847.96 380.903 855.725 380.309 858.616C379.716 861.506 376.838 871.866 373.915 881.638C370.992 891.411 367.848 903.221 366.928 907.883C364.666 919.347 362.817 925.742 358.752 936.163C356.863 941.005 354.003 950.205 352.397 956.609L349.476 968.252L346.426 974.071C344.749 977.271 343.376 980.73 343.376 981.758V983.627L341.126 984.23C339.889 984.561 336.626 984.841 333.876 984.85L328.876 984.867L322.499 988.756L321.443 992.558C320.862 994.649 320.364 997.26 320.336 998.36L320.285 1000.36L309.876 1005.36L305.102 1014.08L304.628 1019.72C304.368 1022.82 304.092 1027.92 304.015 1031.04L303.876 1036.73L309.314 1042.4L307.346 1045.38C306.264 1047.02 303.996 1051.73 302.307 1055.86C300.617 1059.98 297.724 1066.51 295.878 1070.36C294.032 1074.21 290.749 1081.23 288.583 1085.96C286.416 1090.69 281.932 1099.27 278.618 1105.02C268.673 1122.28 263.177 1133.97 248.825 1168.36C242.959 1182.42 236.4 1194.66 231.83 1200.1L229.376 1203.01V1207.56L223.126 1211.39C219.689 1213.5 212.83 1217.21 207.885 1219.64C202.94 1222.07 195.29 1226.41 190.885 1229.29C186.48 1232.17 181.526 1235.21 179.876 1236.05C178.226 1236.88 173.726 1239.37 169.876 1241.58L162.876 1245.6L157.639 1246.72C154.759 1247.33 149.584 1248.99 146.139 1250.41C142.694 1251.83 136.726 1253.58 132.876 1254.3C129.026 1255.03 119.801 1257.17 112.376 1259.06C104.951 1260.96 96.4846 1263.09 93.5626 1263.8L88.2486 1265.08L72.4196 1262.51L60.6476 1264.16C47.6716 1265.99 35.1506 1269 28.6556 1271.86L24.4366 1273.72L15.8276 1282.58L6.04559 1302.36L3.44562 1314.36L3.3736 1334.36L0.245605 1349.35L0.892639 1352.86C1.24864 1354.78 2.83564 1358.63 4.41864 1361.41L7.29761 1366.47L28.8756 1388.69L50.3206 1402.98L88.8756 1422.5L98.3756 1424.72C103.601 1425.94 117.101 1428.34 128.376 1430.05L148.876 1433.17L178.876 1432.94L193.376 1430.45C207.328 1428.06 226.344 1423.67 246.376 1418.21L255.876 1415.63L261.376 1412.81C264.401 1411.26 271.778 1407.61 277.769 1404.71C283.761 1401.81 292.366 1397.11 296.892 1394.27C301.417 1391.42 306.865 1388.53 308.998 1387.84C311.131 1387.15 314.676 1385.67 316.876 1384.54C323.288 1381.27 356.315 1368.8 362.876 1367.18C366.176 1366.37 371.351 1364.8 374.376 1363.7C377.401 1362.6 384.151 1360.34 389.376 1358.68L398.876 1355.66L419.876 1343.36L429.876 1333.31L436.339 1322.32L438.358 1314.43C439.468 1310.09 440.374 1304.92 440.371 1302.95C440.368 1300.98 441.033 1297.33 441.849 1294.86C447.3 1278.31 448.771 1270.12 449.963 1249.66C450.89 1233.75 453.889 1223.39 466.559 1192.32L471.876 1179.28L477.561 1169.32C480.688 1163.84 484.645 1155.76 486.355 1151.36C488.064 1146.96 494.731 1132.48 501.17 1119.19L512.876 1095.02L518.506 1093.88L524.376 1088.01V1081.62L530.209 1074.98L532.612 1063.4L531.636 1049.77L525.418 1042.03L535.148 1021.36L537.252 1013.36C538.409 1008.96 540.454 1002.34 541.796 998.656C544.693 990.697 548.533 971.931 551.373 951.86C552.501 943.885 554.508 930.385 555.831 921.86C557.155 913.335 558.746 901.41 559.366 895.36C562.03 869.387 564.024 858.019 569.806 835.86C570.595 832.835 572.17 825.86 573.305 820.36C574.44 814.86 576.72 805.86 578.371 800.36C580.022 794.86 582.698 785.635 584.318 779.86C588.894 763.54 598.022 736.487 600.746 731.167C603.009 726.748 607.498 720.325 620.876 702.363C627.136 693.958 633.634 684.345 643.876 668.338C648.276 661.461 654.521 652.353 657.753 648.098L663.63 640.36L666.476 634.077C668.042 630.621 671.316 624.712 673.752 620.945L678.182 614.098L682.687 601.742L694.52 590.467C701.028 584.265 707.677 577.364 709.294 575.131L712.236 571.071L718.6 568.064C722.101 566.41 727.087 563.437 729.679 561.458C735.389 557.1 735.544 557.08 734.226 560.86L733.18 563.86H727.529L721.414 569.006L719.227 577.129L720.478 582.116L726.221 587.86H730.688L729.338 626.36L726.143 648.36L727.179 659.774L731.376 665.669L731.385 668.514C731.39 670.079 732.698 677.801 734.294 685.673L737.195 699.986L730.57 711.708L729.39 716.534C728.741 719.188 727.981 722.754 727.701 724.457L727.193 727.553L729.871 740.957C731.343 748.329 735.033 764.258 738.07 776.355L743.594 798.351L742.971 803.355C742.628 806.108 741.436 811.06 740.32 814.36C739.205 817.66 736.285 827.879 733.831 837.068L729.367 853.776L730.021 879.36L734.577 894.36L743.663 912.023L756.617 924.852L761.747 927.735C770.987 932.93 781.323 935.367 798.213 936.335L808.551 936.928L826.393 933.649L829.635 931.349C831.417 930.083 835.281 927.827 838.22 926.335L843.564 923.621L848.011 917.894C851.642 913.218 861.376 897.415 861.376 896.196C861.376 896.018 863.429 891.305 865.938 885.721L870.501 875.57L875.768 856.36L875.841 822.36L872.688 806.86C869.64 791.883 868.63 785.374 867.877 775.86C867.682 773.385 866.852 765.743 866.033 758.878C865.215 752.013 864.734 746.089 864.966 745.715C865.197 745.34 864.75 738.065 863.971 729.549L862.556 714.064L860.091 709.459L861.211 678.36L868.296 647.36L871.279 620.36L876.376 603.463V596.86L880.876 596.793L882.979 595.035C884.136 594.068 885.598 592.313 886.229 591.134L887.376 588.991V580.706L884.453 577.783C882.845 576.175 880.889 574.86 880.105 574.86H878.68L875.461 564.893L874.372 554.127C872.957 540.125 871.951 532.309 869.453 515.892L867.404 502.424L869.14 501.496C872.039 499.946 896.405 475.55 897.94 472.66L899.376 469.959V465.771C899.376 463.467 900.25 456.357 901.319 449.971C902.388 443.585 904.014 431.61 904.932 423.36L906.603 408.36L905.676 393.849L902.529 390.36L900.919 383.36C899.041 375.193 897.133 369.891 891.381 356.86L887.187 347.36L885.303 338.86C884.267 334.185 883.41 329.787 883.398 329.087L883.376 327.814L885.626 329.267C886.863 330.067 892.151 331.909 897.376 333.361L906.876 336.001L933.161 349.154L952.876 350.039L970.876 347.955C990.528 345.68 995.322 344.557 998.731 341.426C999.968 340.29 1002.65 338.093 1004.7 336.544L1008.42 333.728L1016.98 334.62L1028.88 332.776L1042.3 326.801C1049.69 323.514 1057.14 319.75 1058.87 318.435L1062 316.045L1066.67 307.236L1085.39 297.692L1089.63 293.47C1096.36 286.775 1106.69 279.064 1112.52 276.383L1117.88 273.916L1123.24 267.137L1126.56 266.482C1128.38 266.121 1132.85 264.694 1136.48 263.311L1143.08 260.797L1145.38 255.766V244.86L1155.88 244.813L1161.59 242.464C1167.82 239.902 1168.62 240.024 1167.78 243.399L1167.21 245.642L1169.55 247.086L1171.86 244.773L1168.31 238.588L1169.83 236.908C1170.67 235.984 1171.64 233.78 1172 232.009L1172.64 228.789L1174.52 227.781C1177.94 225.95 1186.58 217.881 1212.28 192.497C1244.82 160.354 1249.95 154.136 1260.53 134.062L1264.38 126.765V118.662L1261.12 111.792L1252.7 106.86H1243.34L1231.26 111.767L1224.57 116.506C1213.78 124.146 1198.66 136.546 1187.35 147.022C1178.37 155.349 1166.36 164.86 1164.83 164.86C1164.58 164.86 1164.38 163.263 1164.38 161.31V157.761L1162.87 154.84C1162.03 153.234 1160.49 151.456 1159.43 150.89L1157.51 149.86L1149.88 149.924L1148.15 151.238C1147.19 151.961 1144.99 155.591 1143.25 159.305L1140.09 166.058L1139.14 179.424L1136.56 180.642C1135.14 181.312 1133.25 181.86 1132.37 181.86C1131.49 181.86 1128.7 183.174 1126.16 184.779L1121.56 187.698L1120.29 191.707L1109.61 190.605L1098.01 195.917L1084.88 209.644L1075.22 212.656C1069.91 214.313 1062.26 217.263 1058.22 219.212C1054.18 221.161 1048.71 223.525 1046.07 224.464L1041.27 226.172L1039.07 229.098C1035.23 234.218 1031.07 237.819 1023.67 242.446L1016.46 246.95L1002.23 249.918L970.103 248.806L947.876 234.044L934.41 221.157L928.207 217.851C924.795 216.032 919.558 213.819 916.57 212.932L911.138 211.319L909.414 205.839C908.465 202.826 905.633 195.992 903.121 190.653L898.552 180.945L887.558 166.36L862.448 142.93L852.169 137.721L841.221 135.94L833.048 131.08C828.554 128.407 822.426 125.188 819.431 123.928L813.986 121.637L784.376 118.388V114.266L776.278 106.36L778.577 105.71C779.841 105.352 782.269 105.015 783.971 104.96L787.065 104.86L790.556 101.003L789.928 99.0239C789.583 97.9349 788.567 96.7639 787.671 96.4199C781.014 93.8649 768.471 83.8599 771.926 83.8599C772.778 83.8599 774.796 83.177 776.411 82.342L779.346 80.824L780.613 75.7788L777.245 72.0579L769.944 70.688L757.402 60.709L750.031 49.5339C745.976 43.3879 741.687 37.495 740.499 36.438L738.338 34.5159L742 31.4968C744.014 29.8368 746.946 26.4509 748.518 23.9739L751.376 19.468V15.1699L749.547 13.5149C747.322 11.5009 746.031 11.4738 740.876 13.3308L736.876 14.772L721.244 14.8599L701.051 9.64502L690.963 10.178C685.415 10.471 679.698 11.011 678.257 11.377L675.638 12.043L674.36 6.94995L671.117 4.521C669.334 3.185 666.939 1.80891 665.794 1.46191L663.712 0.832031L660.247 4.65894ZM708.376 24.1428C711.951 24.9688 717.576 25.996 720.876 26.426L726.876 27.207L718.213 29.178L715.21 33.762L716.414 37.5559L718.942 38.708C720.333 39.342 722.314 39.8599 723.346 39.8599H725.223L728.185 42.353C729.814 43.724 733.974 48.9719 737.428 54.0149C744.19 63.8879 749.996 70.095 754.784 72.571L757.789 74.125L751.068 76.3599L749.081 79.5498L750.364 84.6599L753.456 85.738C755.157 86.331 759.939 88.9629 764.083 91.5879L771.619 96.3599L768.049 96.9438C766.086 97.2648 763.782 98.1079 762.928 98.8169L761.376 100.105V103.905L769.631 112.86H766.202L764.054 118.552L748.298 121.111L734.616 119.763L732.973 121.406C732.069 122.31 730.673 124.319 729.87 125.871L728.412 128.692L739.087 138.449L752.876 145.802L743.739 145.86L733.349 148.946L722.227 158.005L720.419 156.682C719.425 155.955 715.905 153.055 712.596 150.238C709.287 147.422 705.562 144.403 704.317 143.531L702.053 141.945L704.162 137.653C705.322 135.292 706.506 132.573 706.792 131.61L707.313 129.86H713.258L714.494 127.86H711.609L710.436 123.372L713.279 120.529L704.508 113.695L701.51 104.896L702.296 104.41C702.728 104.142 706.207 103.439 710.027 102.846L716.971 101.769L732.715 102.36L733.453 104.86C733.858 106.235 734.78 109.498 735.501 112.11L736.813 116.86H740.198L745.376 110.707L745.37 106.533C745.367 104.238 744.894 100.664 744.318 98.5908L743.272 94.822L736.12 87.6709L729.57 88.436L729.475 74.3599L728.026 69.6199C727.23 67.0129 725.413 62.895 723.992 60.469L721.408 56.0579L711.876 47.5798L701.101 42.5869H693.414L681.306 29.7839L676.393 27.916L674.85 28.5078C674.001 28.8338 671.983 30.959 670.365 33.23C668.748 35.502 666.606 38.3068 665.607 39.4648L663.789 41.571L659.044 42.282C652.9 43.204 645.408 45.806 637.716 49.689L631.564 52.7939L628.137 57.0769C623.156 63.3039 620.817 67.5489 618.398 74.7629L616.252 81.165L615.668 109.36L608.692 122.843L608.034 122.185C607.672 121.823 607.376 120.394 607.376 119.009V116.491L611.532 107.907L610.86 104.36L604.637 103.753L601.35 107.04C599.542 108.848 597.235 111.685 596.223 113.344L594.383 116.36L594.376 124.991L595.501 127.176C596.12 128.377 597.479 130.299 598.521 131.446L600.416 133.532L593.146 134.806C587.471 135.801 564.357 142.262 554.376 145.644C553.551 145.923 554.774 144.489 557.094 142.456C562.569 137.657 565.426 133.572 566.435 129.099L567.249 125.491L564.648 119.268L570.112 109.814C573.117 104.614 577.186 98.1659 579.154 95.4839L582.732 90.6069L583.887 83.499L598.358 74.7249L604.249 67.5149C611.689 58.4099 616.871 53.727 623.881 49.77L629.422 46.6428L631.487 42.7839L630.298 39.0378L638.087 38.2219C642.371 37.7729 646.945 37.5339 648.252 37.6899L650.629 37.9749L661.21 30.95L664.518 25.3489L673.876 25.147L683.876 21.9038L701.876 22.6409L708.376 24.1428ZM687.076 49.2478C688.837 50.1348 691.344 50.8599 692.648 50.8599C693.953 50.8599 697.068 51.5579 699.572 52.4109L704.125 53.9629L708.682 58.3289C711.189 60.7309 713.967 64.1948 714.856 66.0278L716.473 69.3599L714.905 67.3599C714.042 66.2599 711.728 63.689 709.763 61.647L706.188 57.9329L694.876 53.562L674.876 53.5959L663.143 56.731L657.849 60.2468C652.325 63.9138 644.19 71.0739 631.223 83.6799L623.57 91.1189L626.023 78.3599L628.596 73.3599C630.011 70.6099 632.801 66.684 634.796 64.635L638.424 60.9099L647.15 58.321C651.949 56.897 657.083 55.3448 658.558 54.8718L661.24 54.012L665.411 55.1018L673.336 49.8579L677.537 41.624L680.707 44.6299C682.45 46.2829 685.316 48.3608 687.076 49.2478ZM700.125 72.7659L705.534 79.063C708.509 82.526 711.504 86.0968 712.189 86.9978L713.435 88.636L701.228 90.7859L685.875 97.4238L660.876 95.752L648.747 96.979L639.062 100.224C633.735 102.008 629.376 103.307 629.376 103.111C629.376 102.914 631.964 99.5469 635.126 95.6279L640.876 88.5039L648.299 82.1638C652.382 78.6768 658.198 74.1808 661.223 72.1738L666.721 68.5239L678.876 67.0349L690.714 67.9978L700.125 72.7659ZM659.376 114.796V122.616L660.839 126.117C662.724 130.629 666.616 135.228 670.668 137.73L673.876 139.711L687.856 141.583L693.371 140.001L692.242 142.181C691.621 143.379 689.531 146.593 687.595 149.321C682.971 155.839 672.911 177.242 669.721 187.351C668.33 191.756 665.205 201.533 662.775 209.079L658.356 222.798L657.728 230.579C657.005 239.551 656.565 240.615 651.136 246.504L647.121 250.86H640.672L633.876 246.253L634.533 230.36L632.729 225.581L646.686 199.471C654.362 185.11 661.428 171.088 662.386 168.312C663.345 165.535 665.14 161.282 666.376 158.86C667.612 156.438 669.472 151.987 670.51 148.969L672.398 143.482L670.859 141.943L669.745 142.652C667.851 143.856 660.85 155.328 658.299 161.41C656.966 164.588 650.363 178.248 643.626 191.766C636.889 205.283 631.376 216.883 631.376 217.543C631.376 218.202 630.898 219.038 630.313 219.399L629.25 220.056L627.563 218.557C626.635 217.732 623.956 216.49 621.61 215.796L617.345 214.534L613.661 215.665C608.751 217.172 608.745 217.289 613.995 208.791C625.627 189.961 640.197 157.069 643.812 141.479L645.4 134.634L641.213 127.86H637.668C635.719 127.86 629.878 128.584 624.69 129.468C612.526 131.541 612.424 131.298 620.43 119.435L623.486 114.907L627.181 113.888C629.213 113.327 634.701 111.772 639.376 110.433L647.876 107.998L662.273 107.86L659.376 114.796ZM680.876 110.367L689.876 111.839L691.122 113.599C691.808 114.568 693.353 116.408 694.554 117.689L696.738 120.018L694.172 121.604L696.497 123.232C697.775 124.127 699.609 124.86 700.573 124.86H702.325L705.427 130.86H702.382L698.508 134.36C693.897 138.526 693.408 138.588 690.407 135.393L688.089 132.925L678.876 129.82L669.673 118.185L668.622 108.86L670.249 108.877C671.144 108.887 675.926 109.557 680.876 110.367ZM1251.97 118.189L1254.68 120.517L1254.01 123.172C1253.08 126.894 1236.44 151.541 1230.5 158C1218.33 171.233 1189.82 199.234 1179.43 208.151L1168.02 217.941L1166.37 212.651C1164.09 205.337 1162.09 201.665 1155.13 192.015L1149.12 183.669L1149.79 177.164C1150.15 173.586 1151.03 169.242 1151.74 167.509L1153.04 164.36L1154.39 174.432L1157.65 179.087L1165.01 178.099L1183.88 166.536L1197.9 152.448C1220.87 129.378 1231.92 120.736 1242.88 117.262C1248.42 115.504 1248.91 115.554 1251.97 118.189ZM691.159 128.827L693.832 129.843C695.303 130.403 697.376 130.86 698.44 130.86H700.376V129.982C700.376 129.5 699.69 128.536 698.852 127.84L697.328 126.575L696.06 127.843L693.641 125.835L691.159 128.827ZM802.376 131.763L810.876 132.563L819.376 137.583C824.051 140.344 831.101 144.011 835.044 145.731L842.211 148.86H846.983L857.448 154.075L867.662 165.602C873.28 171.942 879.747 179.445 882.034 182.276L886.192 187.424L891.673 198.392C898.596 212.247 898.954 213.483 900.828 230.064L902.376 243.769L907.98 259.228L910.137 259.947L910.735 253.154C911.064 249.417 911.63 241.298 911.994 235.11C912.357 228.923 912.791 223.86 912.958 223.86C915.294 223.86 927.124 232.743 935.358 240.679L940.876 245.998L953.473 252.435L941.378 264.276C934.725 270.788 928.108 277.654 926.674 279.534L924.068 282.952L925.957 284.841L936.385 281.029L942.89 276.387C946.467 273.835 952.494 269.071 956.282 265.803L963.169 259.86H976.822L970.272 266.61C966.669 270.323 962.973 274.574 962.06 276.058L960.398 278.756L962.497 280.053L965.686 278.794C967.441 278.102 972.645 274.876 977.251 271.626C988.95 263.37 999.486 258.751 1010.88 256.883C1013.63 256.432 1017.15 255.734 1018.7 255.333L1021.53 254.603L1018.37 260.879C1015.01 267.522 1011.82 276.637 1010.95 282.082L1010.42 285.36L1012.88 292.36H1015.56L1020.41 281.088C1025.24 269.867 1028.13 264.588 1037.82 249.36C1040.62 244.96 1043.53 240.136 1044.3 238.639L1045.68 235.919L1050.78 234.278C1053.58 233.375 1057.45 231.732 1059.38 230.625C1061.3 229.519 1069.39 226.39 1077.35 223.672L1091.83 218.729L1109.05 200.86L1112.46 200.936C1114.34 200.978 1117.41 201.566 1119.28 202.244L1122.69 203.475L1129.16 222.803L1138.58 240.214L1137.23 254.541L1123.88 258.714L1113.1 259.279C1092.26 260.372 1085.96 265.755 1105.38 265.877L1109.88 265.905L1103.88 269.151C1100.58 270.936 1095.39 274.053 1092.35 276.077L1086.83 279.756L1080.17 288.641L1070.02 293.892C1058.99 299.603 1055.95 301.886 1053.74 306.141L1052.29 308.922L1046.64 311.42C1043.54 312.794 1038.52 315.562 1035.49 317.572C1032.46 319.581 1026.59 322.561 1022.43 324.194L1014.88 327.163L998.28 328.543L989.263 334.898L985.07 335.834C981.355 336.664 968.671 338.707 953.876 340.858L948.876 341.585L942.876 340.823C935.472 339.883 933.983 339.305 922.356 332.849L913.038 327.675L902.97 324.17C897.432 322.243 891.755 320.073 890.354 319.349C888.953 318.624 886.217 317.733 884.275 317.369L880.742 316.706L877.612 303.033C875.89 295.513 873.755 284.635 872.866 278.86C871.978 273.085 869.295 260.935 866.904 251.86C861.89 232.834 861.543 231.027 860.477 218.392L859.686 209.014L854.031 197.36L841.74 185.36L818.801 172.902L796.031 167.572L784.454 169.204C778.086 170.101 767.926 171.016 761.876 171.237L750.876 171.639L744.376 174.112C740.801 175.472 734.158 178.454 729.613 180.74L721.35 184.896L698.276 207.36L693.114 214.36C690.275 218.21 685.954 223.61 683.512 226.36L679.07 231.36L673.439 243.36L672.475 251.86C671.944 256.535 671.056 262.385 670.501 264.86C669.946 267.335 669.193 272.735 668.826 276.86L668.16 284.36L671.505 295.816L677.471 300.065L676.075 302.212C675.306 303.394 674.378 305.969 674.013 307.936L673.351 311.512L674.31 324.94C674.838 332.326 675.569 341.291 675.935 344.864L676.601 351.36L667.738 351.368C662.864 351.372 654.151 351.905 648.376 352.552L637.876 353.727L628.876 356.212C623.926 357.578 613.351 360.363 605.376 362.401L590.876 366.105L580.376 370.122C568.193 374.783 553.299 382.005 548.626 385.518L545.376 387.962L545.264 385.661C545.023 380.691 544.333 376.23 543.377 373.461C542.826 371.866 542.376 369.108 542.376 367.332V364.103L553.449 354.643L557.339 348.915C559.478 345.764 562.359 342.446 563.739 341.541C565.12 340.637 569.479 337.192 573.425 333.887L580.599 327.878L593.876 323.912L601.318 317.353C605.412 313.746 610.467 308.523 612.554 305.746L616.346 300.698L619.241 290.953L617.286 283.873L614.906 285.433C613.597 286.29 606.61 292.798 599.379 299.894L586.233 312.796L582.555 313.395C580.531 313.724 577.132 314.732 575.001 315.635L571.127 317.276L562.059 325.543C550.484 336.095 549.97 334.888 560.455 321.773L562.522 319.187L563.624 310.975L556.376 293.661L554.466 281.51C553.415 274.828 552.12 266.66 551.588 263.36L550.62 257.36L539.414 230.402L536.449 227.631C534.819 226.107 533.045 224.86 532.508 224.86H531.531L529.125 232.149L530.229 244.36L537.51 262.36L538.43 271.86C538.936 277.085 539.612 282.578 539.933 284.067L540.516 286.775L537.196 288.177C533.038 289.934 528.495 294.415 526.794 298.44C525.174 302.269 523.515 303.699 517.022 306.86L511.886 309.36L506.112 316.86C502.937 320.985 496.989 329.31 492.894 335.36C488.799 341.41 483.192 349.285 480.433 352.86L475.418 359.36L470.147 360.947C467.248 361.819 463.076 363.455 460.876 364.581C458.676 365.708 453.951 367.539 450.376 368.651C446.801 369.763 441.373 371.589 438.315 372.709L432.754 374.745L420.815 375.792C414.248 376.368 405.716 376.844 401.853 376.85L394.83 376.86L385.353 374.38C380.141 373.016 373.176 371 369.876 369.899C366.576 368.799 360.051 366.801 355.376 365.459C350.701 364.117 342.151 361.653 336.376 359.983C330.601 358.313 323.739 356.651 321.126 356.29L316.376 355.633L307.626 349.837L303.848 343.376C301.769 339.822 297.852 334.427 295.142 331.387L290.216 325.86H286.313L285.104 329.01L286.305 332.685C286.966 334.706 287.712 336.839 287.963 337.425L288.42 338.491L280.648 336.067C271.922 333.345 261.811 329.179 252.876 324.624C249.576 322.942 242.64 319.832 237.463 317.714L228.049 313.862L215.726 311.716L213.376 305.218V291.616L225.126 275.666C235.732 261.269 241.899 252.439 244.96 247.269L246.045 245.438L248.756 248.149C250.247 249.64 251.939 250.86 252.517 250.86C253.095 250.86 254.762 251.7 256.222 252.726C257.682 253.752 263.826 256.96 269.876 259.854L280.876 265.116L308.876 274.727L310.693 279.522C311.693 282.159 312.926 284.818 313.435 285.431C313.944 286.044 316.19 291.454 318.426 297.453C325.879 317.44 332.775 332.252 337.991 339.472L341.876 344.849L345.535 344.86L345.023 342.11C344.741 340.597 344.222 337.604 343.869 335.457C343.517 333.31 339.436 322.159 334.802 310.677C330.168 299.194 326.376 289.68 326.376 289.534C326.376 289.388 331.213 290.483 337.126 291.968L347.876 294.667L382.024 297.169L384.693 302.268C387.63 307.877 393.713 314.632 397.794 316.816L400.416 318.22L402.58 316.056L399.786 310.708C398.25 307.767 395.688 302.739 394.092 299.536L391.191 293.711L392.435 292.468L400.707 293.664C405.257 294.322 410.306 294.863 411.928 294.867L414.876 294.873L422.247 308.36L430.911 316.82L444.411 323.612L445.586 321.712L443.59 319.536C440.617 316.295 429.376 298.826 429.376 297.447C429.376 296.79 428.243 293.98 426.859 291.202L424.342 286.151L447.876 262.141L459.876 254.132L463.376 253.613C466.733 253.114 472.844 251.938 484.126 249.62L489.376 248.541V247.605C489.376 247.09 488.482 245.413 487.389 243.878L485.402 241.087L481.369 239.474C479.15 238.586 476.22 237.86 474.856 237.86H472.376V237.017C472.376 234.923 476.695 224.293 482.334 212.51L488.484 199.659L497.836 189.66L502.778 187.156C505.496 185.779 510.005 183.141 512.798 181.294C515.591 179.448 521.026 176.759 524.876 175.32C528.726 173.881 534.126 171.421 536.876 169.852C539.626 168.284 545.271 165.893 549.421 164.539C558.335 161.63 582.757 151.714 589.814 148.138L594.77 145.627L605.323 144.276C611.127 143.533 619.589 142.312 624.126 141.564L632.376 140.203V140.939C632.376 141.344 630.351 146.009 627.876 151.306C625.401 156.603 623.376 161.15 623.376 161.41C623.376 166.265 596.084 215.524 582.403 235.36C580.886 237.56 579.322 240.395 578.927 241.659L578.21 243.958L581.422 248.86H587.738L594.807 243.493C598.695 240.541 604.432 236.449 607.556 234.398L613.235 230.67L619.876 230.36L620.93 250.36L622.166 252.569C624.03 255.9 629.247 259.404 635.244 261.354L640.613 263.099L645.012 262.496C647.431 262.165 650.663 261.246 652.194 260.454L654.978 259.015L659.046 253.187C664.58 245.259 667.007 240.198 667.832 234.86C668.215 232.385 670.273 224.51 672.406 217.36C674.539 210.21 677.409 199.764 678.784 194.146L681.284 183.933L685.33 175.337C687.555 170.61 689.376 166.509 689.376 166.225C689.376 165.772 697.176 151.957 697.98 150.987C698.149 150.782 701.121 153.091 704.582 156.118C708.044 159.145 713.102 163.025 715.822 164.741L720.768 167.86H725.557L730.716 163.488C733.553 161.084 737.451 158.314 739.376 157.332L742.876 155.547L757.624 152.984L766.876 154.076L770.64 149.911L769.086 147.54C767.539 145.18 764.434 143.055 750.626 134.908C746.639 132.555 743.376 130.388 743.376 130.091C743.376 129.376 791.511 130.741 802.376 131.763ZM809.511 183.652L816.146 185.528L823.011 189.984C826.787 192.435 832.531 195.997 835.776 197.9L841.677 201.36L850.061 212.652L850.734 222.506C851.105 227.926 851.638 233.71 851.919 235.36L852.43 238.36L850.4 232.36C849.283 229.06 846.907 223.435 845.122 219.86L841.876 213.36L836.511 212.74L834.33 216.814L835.918 220.587C836.791 222.662 839.007 230.435 840.841 237.86C842.675 245.285 845.31 255.41 846.695 260.36C848.08 265.31 849.491 271.023 849.83 273.056L850.445 276.752L846.203 279.023L832.876 279.282L822.25 276.45L820.563 277.512C819.635 278.096 818.722 279.358 818.534 280.316L818.19 282.058L821.034 285.05C822.597 286.696 825.676 288.977 827.876 290.117L831.876 292.191L847.376 293.117L847.502 295.738C847.571 297.18 847.733 304.21 847.861 311.36L848.094 324.36L850.338 333.86C851.573 339.085 853.065 346.203 853.655 349.677L854.727 355.994L851.128 369.87L851.736 372.912C852.071 374.585 853.695 379.031 855.346 382.792C858.937 390.973 860.78 399.116 862.832 415.86L864.364 428.36L863.408 432.36C862.882 434.56 861.715 442.415 860.813 449.815L859.174 463.27L853.121 479.36L852.97 491.36L854.613 497.86C855.516 501.435 856.772 508.86 857.403 514.36C858.033 519.86 859.186 528.377 859.963 533.286L861.376 542.212V557.86H860.626C860.214 557.86 858.49 556.209 856.796 554.192L853.716 550.523L846.143 550.808L843.304 553.165L840.59 550.577C839.097 549.153 835.701 547.06 833.043 545.924L828.21 543.86H822.126L810.02 549.293L809.632 548.127C808.776 545.561 805.247 542.026 802.002 540.487L798.574 538.86H788.245L786.06 539.996C784.859 540.621 781.528 543.119 778.658 545.547L773.439 549.961L763.909 546.725L760.439 547.376C758.53 547.734 755.217 548.921 753.076 550.013C750.934 551.106 749.079 551.856 748.952 551.68C748.826 551.504 747.803 546.86 746.678 541.36C743.732 526.953 735.975 498.45 730.893 483.36C713.141 430.642 703.831 388.715 702.53 355.637L701.772 336.36L695.263 323.58L698.346 315.934C700.041 311.729 703.697 304.513 706.471 299.9C709.244 295.286 712.429 289.677 713.549 287.436C714.669 285.194 717.495 280.885 719.829 277.86C722.163 274.835 724.629 271.306 725.309 270.017L726.546 267.674L725.398 263.099L721.07 261.967L718.369 263.364C716.883 264.132 713.366 267.279 710.553 270.357L705.438 275.953L692.135 301.03L687.506 293.267L682.376 290.522L682.424 272.36L683.382 268.36C683.91 266.16 685.042 260.091 685.898 254.874L687.455 245.388L689.08 242.874C689.973 241.491 692.561 238.11 694.83 235.36C697.1 232.61 700.692 227.66 702.813 224.36C704.934 221.06 708.966 215.466 711.772 211.929C714.579 208.392 717.826 203.94 718.988 202.036L721.1 198.573L732.988 194.166C739.526 191.743 747.126 188.947 749.876 187.953L754.876 186.145L776.876 184.721L794.53 180.147L798.703 180.961C800.998 181.409 805.862 182.62 809.511 183.652ZM104.884 184.49C109.2 186.763 117.345 192.159 136.376 205.352C154.166 217.684 183.18 231.725 191.283 231.923L193.876 231.987L189.376 233.796V238.721L184.876 239.36L185.504 245.86L184.69 245.892C184.242 245.909 183.053 246.547 182.047 247.31L180.218 248.696L182.603 253.153L179.416 254.937L180.12 266.86H178.271C169.702 266.86 144.531 252.518 126.876 237.575L117.876 229.958L105.634 215.36L93.3756 191.875V184.26L94.5756 183.06C96.4316 181.204 99.4376 181.621 104.884 184.49ZM209.958 206.255C212.523 212.363 214.822 217.878 215.067 218.51L215.514 219.661L206.876 221.078L203.525 224.035L199.95 223.347L197.721 207.853C196.495 199.332 195.486 190.56 195.479 188.36L195.467 184.36L205.294 195.149L209.958 206.255ZM1143.51 200.408C1147.56 205.659 1152.31 212.297 1154.07 215.158C1155.82 218.019 1158.58 222.465 1160.19 225.039L1163.13 229.718L1158.5 231.668C1155.96 232.74 1152.14 234.172 1150.02 234.85L1146.17 236.083L1144.83 234.721C1142.88 232.729 1130.46 197.932 1130.39 194.263C1130.38 193.302 1133.73 191.117 1135.51 190.928C1135.86 190.89 1139.46 195.157 1143.51 200.408ZM813.376 222.498L820.25 236.36L817.563 236.698C816.085 236.885 814.314 237.502 813.626 238.071L812.376 239.105V243.831L823.876 249.661L835.492 259.86H841.306L842.341 257.926C842.91 256.862 843.376 254.904 843.376 253.575V251.158L837.684 243.259C834.554 238.915 829.261 231.085 825.924 225.86C818.609 214.409 815.273 209.86 814.188 209.86H813.376V222.498ZM237.389 239.186C236.908 240.382 236.276 242.485 235.984 243.86C235.693 245.235 234.148 247.921 232.551 249.828L229.649 253.296V244.86H232.217L232.924 241.643C233.312 239.873 234.117 237.646 234.712 236.694L235.794 234.962L238.264 237.012L237.389 239.186ZM1169.63 253.853C1169.9 259.405 1170.01 259.507 1173.15 257.303L1175.38 255.747V251.973L1173.15 250.417C1171.93 249.561 1170.58 248.86 1170.16 248.86H1169.39L1169.63 253.853ZM863.799 291.36C864.182 294.66 865.615 301.635 866.983 306.86C868.351 312.085 870.803 323.11 872.432 331.36C876.079 349.829 877.986 355.709 885.89 372.86L892.112 386.36L895.376 400.755V408.006C895.376 411.993 894.937 418.88 894.401 423.308C893.865 427.737 892.951 435.41 892.372 440.36C891.792 445.31 890.733 453.19 890.018 457.871L888.718 466.383L881.034 474.168C876.807 478.449 871.578 484.193 869.413 486.932L865.476 491.912L864.162 484.904L870.407 466.723L871.176 443.36L874.626 428.467L872.289 398.846L870.327 391.17C869.248 386.948 866.953 380.433 865.229 376.691L862.093 369.889L865.815 360.36L865.621 344.36L863.984 338.806C863.084 335.751 861.507 328.809 860.479 323.379L858.61 313.508L860.554 298.955L857.593 288.854L859.485 286.449C860.525 285.127 861.405 283.441 861.439 282.702L861.503 281.36L862.303 283.36C862.743 284.46 863.416 288.06 863.799 291.36ZM176.905 298.646C176.614 299.404 176.376 301.831 176.376 304.041V308.058L179.604 314.86H180.931C181.661 314.86 182.507 314.457 182.811 313.965L183.364 313.07L187.62 314.072C189.961 314.624 192.522 315.139 193.311 315.217L194.746 315.36L196.145 308.755L194.01 307.375C192.837 306.616 190.526 305.678 188.876 305.29C187.226 304.902 185.376 304.193 184.766 303.716L183.656 302.847L184.563 298.101L177.433 297.268L176.905 298.646ZM684.805 312.264L686.376 317.668V328.694L690.605 338.36L691.412 354.36C692.677 379.437 693.36 385.115 697.487 404.86C703.151 431.954 714.557 473.597 720.359 488.36C721.703 491.781 735.437 542.157 735.098 542.424C734.232 543.106 719.589 551.878 713.876 555.138C703.919 560.82 701.559 562.623 698.419 566.958C689.184 579.706 687.493 580.118 690.939 568.779L693.497 560.36L694.663 545.882L693.402 536.655C692.709 531.58 691.069 523.846 689.759 519.468L687.376 511.508V507.766C687.376 501.323 685.324 498.569 683.907 503.11C683.521 504.348 682.857 517.285 682.431 531.86L681.658 558.36L677.133 572.86C674.645 580.835 672.086 590.06 671.447 593.36C669.843 601.646 667.589 607.594 664.121 612.687C662.5 615.066 659.434 620.727 657.307 625.265L653.44 633.517L647.158 642.144C643.703 646.888 639.19 653.378 637.129 656.565C629.668 668.104 619.759 681.73 614.283 687.978C611.208 691.488 606.738 697.285 604.351 700.86C601.965 704.435 598.794 708.935 597.304 710.86C591.839 717.926 578.473 749.554 573.851 766.36C572.943 769.66 569.079 781.81 565.264 793.36L558.327 814.36L555.331 829.86C553.683 838.385 551.22 849.953 549.858 855.567L547.382 865.773L545.433 881.567C544.36 890.253 543.197 900.06 542.847 903.36C542.224 909.244 539.316 927.519 533.301 963.36C531.639 973.26 528.779 987.435 526.945 994.86C525.111 1002.28 522.413 1013.98 520.948 1020.86C519.484 1027.73 518.102 1033.9 517.877 1034.57L517.468 1035.78L505.051 1022.85L494.437 1017.83L485.525 1016.61L481.372 1011.5C474.234 1002.73 461.788 995.379 448.876 992.314L442.876 990.89L424.821 990.86L422.849 989.509C419.638 987.31 416.055 986.822 402.884 986.789L390.398 986.757L381.876 983.055L359.241 981.633L361.198 979.496C363.538 976.942 367.546 969.088 369.689 962.86C370.54 960.385 372.889 954.085 374.909 948.86C376.929 943.635 379.613 936.657 380.874 933.353C382.135 930.049 384.372 921.949 385.845 915.353C387.318 908.757 390.274 897.285 392.414 889.86C396.299 876.382 398.064 867.232 400.422 848.36C401.109 842.86 402.302 836.56 403.074 834.36C405.192 828.322 409.19 811.077 409.914 804.86C410.266 801.835 411.671 795.131 413.036 789.963L415.519 780.565L414.935 778.24C414.614 776.962 413.397 775.026 412.231 773.939L410.11 771.964L409.47 750.36L411.876 744.984L422.15 735.93C438.111 721.864 461.654 714.153 498.68 710.864C504.838 710.317 512.126 709.665 514.876 709.415C517.626 709.166 524.151 708.688 529.376 708.354C534.601 708.02 544.225 707.102 550.764 706.314L562.651 704.88L570.376 706.116V703.206L558.81 700.975C552.449 699.748 543.112 698.268 538.06 697.686L528.876 696.627L481.876 697.894L472.639 699.843C467.559 700.914 455.803 704.29 446.514 707.343L429.627 712.896L421.149 719.037L421.646 715.198C421.919 713.087 423.743 707.5 425.698 702.782C427.654 698.064 430.429 689.569 431.865 683.905L434.475 673.607L437.3 667.983C438.854 664.891 442.021 657.185 444.339 650.86C446.656 644.535 450.717 634.635 453.362 628.86C456.008 623.085 458.737 616.56 459.428 614.36C460.118 612.16 461.668 608.785 462.871 606.86C465.541 602.591 469.404 593.013 473.443 580.654L476.473 571.384L485.149 556.805L485.852 550.082C486.94 539.684 489.019 531.534 494.326 516.86C498.987 503.972 506.749 480.435 508.876 472.743L509.876 469.125L538.703 438.36L544.289 436.36C547.362 435.26 552.801 432.701 556.376 430.673C564.375 426.135 566.54 425.282 577.872 422.208L586.867 419.767L596.662 415.278C602.048 412.808 609.612 409.649 613.471 408.257C617.33 406.865 621.925 404.884 623.682 403.854C633.18 398.287 652.62 393.31 669.289 392.177L678.703 391.537L677.789 409.948C677.286 420.075 676.876 434.948 676.876 442.999V457.638L675.309 459.499C673.336 461.842 657.748 488.666 656.794 491.36C656.404 492.46 652.509 501.01 648.138 510.36C631.361 546.247 628.452 552.751 623.53 565.36C620.74 572.51 618.024 580.328 617.495 582.733L616.533 587.106L617.628 589.958L620.341 589.36L625.384 579.86C631.95 567.492 664.011 502.836 666.789 496.36C667.969 493.61 670.496 488.435 672.405 484.86L675.875 478.36L676.166 482.36C676.327 484.56 677.15 488.497 677.997 491.11L679.537 495.86H680.431C680.922 495.86 682.038 494.481 682.909 492.796L684.494 489.731L685.976 480.546C686.791 475.494 688.094 468.885 688.872 465.86L690.289 460.36L691.621 403.36L689.367 377.643L686.539 371.36L685.436 349.86C684.83 338.035 684.128 324.26 683.877 319.249C683.626 314.239 683.137 309.401 682.791 308.499C682.445 307.598 682.403 306.86 682.698 306.86C682.993 306.86 683.941 309.292 684.805 312.264ZM679.012 364.61C679.411 366.673 679.769 370.368 679.807 372.823L679.876 377.287L656.876 377.58L646.632 379.772C634.438 382.381 627.976 384.519 619.777 388.657C616.428 390.348 609.455 393.396 604.282 395.431C599.109 397.465 591.849 400.645 588.15 402.496L581.423 405.861L564.876 410.129L550.826 416.783L546.851 420.179C544.665 422.047 541.863 423.894 540.626 424.285L538.376 424.995V423.962C538.376 423.394 539.66 420.905 541.229 418.431C542.798 415.957 545.319 410.539 546.832 406.391L549.583 398.849L552.229 397.012C559.44 392.009 587.09 382.101 608.376 376.893C615.251 375.211 625.151 372.696 630.376 371.305C635.601 369.914 644.601 368.117 650.376 367.312C663.196 365.524 672.3 363.575 674.914 362.059C677.882 360.338 678.226 360.552 679.012 364.61ZM796.831 549.481C798.374 550.073 801.376 554.793 801.376 556.627V557.493L784.626 560.753C754.395 566.637 752.158 567.245 744.376 571.692C740.519 573.896 738.301 574.857 737.14 574.828L735.876 574.796L737.817 573.328C738.885 572.521 740.468 571.86 741.335 571.86H742.913L747.843 567.786C750.555 565.545 754.683 562.592 757.018 561.223L761.265 558.735L765.07 559.792C767.163 560.373 770.777 560.851 773.099 560.854L777.323 560.86L789.876 548.93L792.544 548.895C794.012 548.876 795.941 549.14 796.831 549.481ZM831.105 556.437C832.331 557.23 834.051 559.265 834.928 560.96L836.521 564.041L834.198 563.307C832.921 562.903 829.025 561.062 825.541 559.215L819.207 555.858L823.876 553.944L826.376 554.47C827.751 554.759 829.879 555.644 831.105 556.437ZM849.376 563.86C849.376 566.06 849.205 567.86 848.997 567.86C848.789 567.86 846.933 567.155 844.872 566.294L841.125 564.728L844.5 562.343C846.357 561.031 848.214 559.936 848.626 559.909L849.376 559.86V563.86ZM863.376 572.16C863.376 573.425 863.909 574.992 864.559 575.643L865.742 576.827L865.089 577.481L864.435 578.134L858.567 571.853L860.221 570.887C862.756 569.407 863.376 569.658 863.376 572.16ZM819.448 576.897C821.644 578.017 827.741 580.051 832.996 581.416C845.144 584.573 847.694 585.922 854.126 592.594L859.376 598.04V608.605L854.419 623.786L853.227 635.073C852.571 641.281 851.971 648.835 851.893 651.86C851.815 654.885 851.014 661.41 850.112 666.36C849.211 671.31 848.164 680.211 847.786 686.14L847.099 696.919L845.409 695.39C844.479 694.548 843.364 693.86 842.931 693.86H842.143L842.668 696.11C842.957 697.348 844.448 701.285 845.981 704.86L848.768 711.36L848.876 740.36L850.664 752.36C851.648 758.96 853.111 766.941 853.914 770.095L855.376 775.83V789.586L858.335 805.473C859.963 814.211 861.804 826.208 862.426 832.133L863.558 842.906L862.439 851.315C861.823 855.939 860.82 861.158 860.208 862.912L859.096 866.101L857.892 863.23C857.23 861.652 856.388 858.757 856.022 856.798L855.356 853.237L845.132 841.766L839.017 838.679C830.272 834.264 821.664 831.199 815.78 830.404L810.684 829.715L800.78 831.401C795.333 832.329 786.376 834.417 780.876 836.041L770.876 838.995L752.376 848.93V847.572C752.376 844.013 757.695 820.08 759.815 814.102C761.13 810.394 762.807 804.66 763.541 801.36L764.876 795.36L764.57 745.253L762.385 726.36L759.935 718.36C756.912 708.49 754.369 697.231 754.372 693.732L754.376 691.105L751.401 688.636L748.231 689.853L744.659 687.941L744.01 676.15C743.653 669.666 743.079 658.485 742.734 651.304L742.107 638.248L744.437 592.36L750.154 587.087L761.558 582.82L775.216 580.836C782.729 579.745 793.151 577.992 798.376 576.94C803.601 575.889 809.581 574.991 811.666 574.944L815.456 574.86L819.448 576.897ZM750.216 744.36L748.815 737.893C748.044 734.336 746.505 728.736 745.395 725.449C743.312 719.283 742.873 715.696 744.055 714.514L744.735 713.834L750.376 727.058L750.216 744.36ZM495.691 728.814C492.817 730.042 491.376 732.896 491.376 737.36V740.991L498.106 755.558L511.479 770.13L516.474 779.988L519.876 779.342L520.498 769.568L519.243 766.538C518.553 764.872 515.784 760.775 513.09 757.434C502.099 743.805 501.297 738.909 511.092 745.245C514.911 747.716 522.375 751.764 527.679 754.243L537.322 758.749L544.099 759.758C547.826 760.314 551.889 761.066 553.126 761.431L555.376 762.093V759.023L551.626 756.734C549.564 755.475 545.73 752.763 543.107 750.708C529.786 740.272 509.471 729.171 502.217 728.364L497.876 727.881L495.691 728.814ZM431.278 744.497C430.399 745.522 429.385 746.882 429.025 747.52L428.37 748.68L429.592 751.864L442.982 758.901L450.008 764.63C462.749 775.021 484.733 795.145 493.376 804.328C511.853 823.961 523.376 834.712 523.376 832.319C523.376 831.462 519.366 818.766 517.704 814.36C516.011 809.874 505.008 792.703 499.486 785.933C489.7 773.932 465.521 754.482 451.562 747.38L444.248 743.659L432.876 742.635L431.278 744.497ZM826.725 851.429C839.539 855.571 840.194 855.886 846.855 861.121L851.876 865.067L856.391 873.814L847.334 893.966L841.56 901.289C838.384 905.317 834.696 910.665 833.365 913.174L830.945 917.735L825.932 920.019L802.876 919.848L792.876 916.54L791.561 914.95C790.838 914.076 788.079 908.86 785.428 903.36L780.61 893.36L774.376 868.823V859.86H771.453L770.463 863.61C769.919 865.673 769.176 869.665 768.813 872.482L768.152 877.605L769.334 884.982C770.754 893.847 772.833 900.725 776.013 907.077C778.871 912.784 778.873 912.803 776.391 912.154L774.405 911.634L761.408 897.856L758.98 893.065C757.645 890.43 755.818 885.749 754.921 882.663L753.289 877.052L752.876 862.566L776.876 852.83L786.376 850.912C799.988 848.165 800.133 848.146 808.281 847.996L815.686 847.86L826.725 851.429ZM819.376 856.771C819.376 857.822 818.502 861.49 817.434 864.922C816.366 868.354 814.06 879.615 812.309 889.947L809.127 908.731L810.436 913.946L811.908 914.511C812.718 914.821 814.466 914.803 815.794 914.47L818.209 913.864L819.78 909.612C821.706 904.401 823.102 895.465 823.992 882.647L824.666 872.935L821.988 854.86H819.376V856.771ZM837.108 883.11C835.743 886.548 833.825 892.792 832.846 896.988L831.068 904.615L832.525 908.36L836.388 903.622L837.919 898.358C838.76 895.463 840.031 889.441 840.741 884.977L842.033 876.86H839.589L837.108 883.11ZM386.51 1000.14L404.522 998.777L416.553 1000.14L422.495 1005.14L435.685 1003.91L449.876 1007.08L465.428 1015.11L477.514 1028.3L478.626 1033.86H479.97C480.71 1033.86 483.135 1032.91 485.36 1031.75L489.405 1029.64L496.876 1031.04L502.376 1036.81C505.401 1039.98 508.923 1043.99 510.202 1045.72L512.528 1048.86H513.806C514.509 1048.86 516.275 1049.96 517.73 1051.31L520.376 1053.76L520.362 1060.06C520.347 1067.04 519.602 1070.86 518.259 1070.86H517.376V1067.47C517.376 1065.61 516.779 1062.67 516.049 1060.93L514.723 1057.78L507.799 1052.72C487.582 1037.93 440.59 1020.32 406.849 1014.87C403.014 1014.25 395.601 1012.92 390.376 1011.9C379.836 1009.86 361.624 1007.86 353.521 1007.86H348.258L349.494 1005.86H351.876C353.186 1005.86 354.492 1005.48 354.778 1005.02L355.297 1004.18L349.398 999.816L346.637 1000.5C345.118 1000.87 341.993 1001.98 339.691 1002.95L335.507 1004.73L334.846 1001.72C334.028 997.999 333.14 998.478 344.376 996.574L353.876 994.964L378.876 995.509L386.51 1000.14ZM326.87 1011.86L329.494 1012.85L324.185 1019.82C321.265 1023.64 318.07 1027.81 317.084 1029.07L315.292 1031.36L317.54 1026.69L316.204 1016.98L317.552 1012.73L319.714 1011.86C322.626 1010.68 323.784 1010.68 326.87 1011.86ZM372.405 1023.77C379.814 1024.83 389.251 1026.4 393.376 1027.28C397.501 1028.16 404.251 1029.59 408.376 1030.46C412.501 1031.33 417.555 1032.52 419.608 1033.1L423.34 1034.17L420.051 1036.57L421.313 1039.86H425.59L424.502 1037.03L425.788 1036.53C426.495 1036.26 428.829 1036.25 430.975 1036.5C434.816 1036.96 437.092 1037.54 452.782 1042.06L460.688 1044.34L461.648 1048.01L466.376 1046.82V1049.07L469.44 1047.9L493.876 1057.66L507.984 1066.37L493.478 1092.36L490.772 1099.86C489.284 1103.98 485.024 1113.43 481.306 1120.86C477.588 1128.28 472.706 1138.99 470.457 1144.64C468.208 1150.29 464.603 1158.43 462.445 1162.72C460.288 1167.01 457.083 1174.99 455.324 1180.44C453.564 1185.9 450.283 1194.76 448.031 1200.15L443.937 1209.94L438.448 1204.32C431.858 1197.57 429.704 1196.37 421.472 1194.88L415.153 1193.73L412.123 1194.89L409.75 1192.93L405.813 1194.86C403.648 1195.92 399.028 1197.52 395.548 1198.41L389.219 1200.02L369.876 1209.87L348.876 1230.5L346.182 1235.93C333.595 1261.3 328.206 1277.74 326.725 1295.26L326.105 1302.59L330.167 1306.65L326.521 1308.23C324.516 1309.1 319.726 1310.97 315.876 1312.38C312.026 1313.8 307.405 1315.83 305.607 1316.89C303.809 1317.95 299.759 1319.55 296.607 1320.45C293.455 1321.35 287.276 1323.56 282.876 1325.37C272.486 1329.64 248.92 1336.92 234.459 1340.33L223.041 1343.02L197.254 1344.17L152.376 1341.54V1340.82C152.376 1340.43 153.051 1338.49 153.876 1336.51L155.376 1332.92L155.342 1324.36L142.584 1286.69L139.73 1283.66C138.16 1281.99 133.956 1278.66 130.387 1276.25C126.818 1273.83 124.152 1271.86 124.463 1271.86C124.773 1271.86 129.745 1271.2 135.51 1270.39L145.993 1268.92L154.909 1264.97L168.876 1262.84L175.876 1259.25C187.524 1253.27 195.554 1248.32 202.092 1243.09L208.308 1238.12L224.74 1229.57L240.506 1213.53L242.451 1209.94C244.896 1205.44 245.673 1204.18 252.08 1194.36L257.297 1186.36L264.724 1169.36C268.809 1160.01 274.244 1147.41 276.803 1141.36C279.362 1135.31 285.447 1122.93 290.326 1113.86C295.205 1104.78 300.89 1093.08 302.96 1087.86C305.029 1082.63 312.049 1067.82 318.559 1054.94C325.07 1042.06 330.899 1029.85 331.513 1027.8L332.629 1024.07L340.253 1023.11C344.445 1022.58 350.364 1022.08 353.405 1022L358.934 1021.86L372.405 1023.77ZM499.376 1065.8C499.376 1066.87 499.779 1067.99 500.271 1068.29L501.166 1068.85L501.771 1067.27C502.729 1064.78 502.489 1063.86 500.876 1063.86H499.376V1065.8ZM296.043 1156.53C295.676 1156.89 295.376 1158.15 295.376 1159.33C295.376 1160.5 294.866 1161.97 294.243 1162.59L293.11 1163.73L294.442 1167.19L295.292 1166.28C296.165 1165.34 297.813 1155.86 297.104 1155.86C296.887 1155.86 296.409 1156.16 296.043 1156.53ZM421.42 1208.28L424.964 1208.87L429.555 1213.62C435.179 1219.43 436.078 1221.13 436.936 1227.6L437.611 1232.69L435.073 1246.36L434.897 1255.86C434.683 1267.4 433.307 1282.05 432.479 1281.59C432.148 1281.41 430.096 1280.45 427.921 1279.46L423.967 1277.66L416.921 1278.14C413.046 1278.41 404.814 1279.75 398.626 1281.13C392.439 1282.52 387.376 1283.45 387.376 1283.2C387.376 1282.96 389.677 1278.94 392.49 1274.27C401.304 1259.62 411.99 1233.02 414.402 1219.71L415.53 1213.49L414.253 1206.69L416.064 1207.19C417.061 1207.46 419.471 1207.95 421.42 1208.28ZM406.18 1219.05L402.909 1228.7C396.051 1248.95 384.026 1275.4 377.796 1283.94L374.456 1288.52L370.166 1289.78C367.806 1290.47 363.176 1292.41 359.876 1294.09C356.576 1295.76 349.264 1298.82 343.626 1300.88L333.376 1304.63V1303.7C333.376 1303.2 334.304 1300.96 335.438 1298.74L337.501 1294.69L339.427 1285.87C341.993 1274.11 345.421 1264.81 352.522 1250.36L358.416 1238.36L376.876 1220.69L384.876 1216.63C392.503 1212.77 403.741 1208.85 405.876 1209.32L406.876 1209.54L406.18 1219.05ZM95.8756 1275.33L99.8756 1277.8L95.0326 1277.83C92.3686 1277.85 85.7286 1278.77 80.2766 1279.88L70.3636 1281.9L61.0406 1285.27C45.4086 1290.93 32.3606 1299.3 25.5176 1308.06L22.1596 1312.36L22.8886 1309.86C24.0686 1305.82 30.5726 1294.57 33.3306 1291.81L35.8756 1289.26L59.8756 1279.95L72.8756 1276.95C88.0586 1273.46 89.5416 1273.13 90.8756 1272.98C91.4256 1272.92 93.6756 1273.98 95.8756 1275.33ZM120.876 1291.48L121.375 1298.86H118.511L117.241 1294.86H110.621L108.281 1297.68L112.821 1300.86H108.376L108.535 1300.11C108.622 1299.7 108.349 1298.57 107.928 1297.61L107.162 1295.86H104.066L105.721 1297.69C107.889 1300.08 107.809 1300.86 105.395 1300.86H103.414L102.159 1295.86H101.175C100.634 1295.86 99.1846 1296.65 97.9536 1297.62L95.7156 1299.38L96.4626 1301.62L92.6696 1302.29C90.5826 1302.66 88.1436 1303.18 87.2496 1303.44L85.6236 1303.92L84.5106 1299.66L83.5156 1300.27C82.9686 1300.61 79.5086 1301.06 75.8266 1301.26L69.1326 1301.63L68.2696 1303C67.7946 1303.75 67.3546 1305.03 67.2916 1305.86L67.1766 1307.36L65.5746 1302.36L65.4756 1305.94C65.4206 1307.91 65.0386 1309.86 64.6256 1310.28C64.2126 1310.69 63.8756 1311.42 63.8756 1311.9C63.8756 1312.38 61.0606 1315.05 57.6206 1317.82L51.3656 1322.86L44.6206 1322.92C40.9106 1322.95 35.7376 1323.33 33.1256 1323.76L28.3756 1324.54V1323.78C28.3756 1323.37 30.0636 1322.2 32.1256 1321.19L35.8756 1319.36L36.5206 1313.74L34.2416 1310.99L45.8756 1301.73L58.8756 1295.34C76.7316 1286.56 90.3106 1282.47 103.376 1281.96L105.876 1281.86L120.876 1291.48ZM177.349 1287.36C175.989 1288.11 174.06 1288.97 173.063 1289.28L171.249 1289.85L171.872 1290.85C172.905 1292.53 175.708 1291.98 178.792 1289.52L181.708 1287.18L179.823 1286.02L177.349 1287.36ZM46.6556 1310.85L49.3516 1313.08L50.5536 1309.95L47.6256 1305.77L46.6556 1310.85ZM133.961 1314.61C135.905 1318.87 138.401 1325.73 139.507 1329.86L141.519 1337.36L144.699 1340.87L141.288 1340.26C132.602 1338.68 103.966 1332.78 95.8756 1330.91C90.9256 1329.76 81.7006 1327.92 75.3756 1326.82C69.0506 1325.72 63.4466 1324.69 62.9226 1324.53C60.0106 1323.6 83.1696 1313.13 94.3756 1310.3L100.876 1308.66L113.876 1307.91C121.026 1307.5 127.675 1307.09 128.651 1307.01L130.426 1306.86L133.961 1314.61ZM34.1466 1317.3C33.9976 1317.39 32.6416 1317.98 31.1326 1318.63L28.3896 1319.81L32.8726 1312.97L33.6456 1315.06C34.0706 1316.21 34.2966 1317.22 34.1466 1317.3Z" fill="#025354"/>
</svg>
