<svg width="807" height="750" viewBox="0 0 807 750" fill="none" xmlns="http://www.w3.org/2000/svg">
<path fill-rule="evenodd" clip-rule="evenodd" d="M751.982 0.929596C748.682 1.3946 741.032 1.51761 734.982 1.20461C727.205 0.801605 721.108 1.10461 714.173 2.23961C707.727 3.29461 698.642 3.81561 687.673 3.76061C678.493 3.71361 664.232 4.2016 655.982 4.8446C647.732 5.4876 631.757 6.17161 620.482 6.36461C609.207 6.55861 587.382 7.19161 571.982 7.77161C556.582 8.35261 519.753 9.0496 490.141 9.3226C460.528 9.5946 430.153 10.2656 422.641 10.8146C405.085 12.0946 343.273 12.5456 319.982 11.5626C310.082 11.1456 294.332 10.5866 284.982 10.3226C195.704 7.7956 174.244 6.9066 153.982 4.9006C117.55 1.2926 49.7333 3.9716 18.8953 10.2366C2.86928 13.4926 -0.24372 16.0866 4.55428 22.1876L6.62628 24.8216L4.44829 30.5716C1.73329 37.7406 0.757282 50.8416 1.63528 68.3226C1.99428 75.4726 2.60428 89.1976 2.99028 98.8226C3.37628 108.448 3.81628 118.573 3.96828 121.323C4.12028 124.073 4.57328 143.648 4.97628 164.823C5.56328 195.714 5.37728 208.956 4.03428 231.823C2.98628 249.663 2.21928 280.521 1.98428 314.323C1.77828 344.023 1.24329 389.473 0.795285 415.323C-0.928715 514.983 0.223279 604.27 3.54328 628.323C4.43828 634.808 6.00428 652.013 8.50228 682.823C9.90828 700.162 11.2993 710.376 13.1313 716.823C13.9913 719.848 14.8933 723.406 15.1363 724.73C16.2483 730.789 22.0403 743.558 25.0443 746.573C28.8893 750.432 30.4723 750.596 34.0613 747.509C36.4773 745.43 37.3243 745.273 42.3673 745.969C45.4553 746.395 86.9073 746.766 134.482 746.794C182.057 746.822 225.257 747.102 230.482 747.417C246.096 748.355 415.661 748.674 461.982 747.852C549.402 746.301 577.126 745.715 582.982 745.295C596.298 744.342 662.788 742.792 707.719 742.387C733.974 742.151 755.923 741.669 756.493 741.316C757.064 740.963 764.608 740.556 773.257 740.411C790.161 740.127 794.123 739.137 796.67 734.563C797.576 732.935 797.959 724.265 798.073 702.823C798.159 686.598 798.718 668.598 799.316 662.823C800.649 649.945 800.731 641.252 799.91 599.823C799.33 570.519 799.476 565.511 801.392 548.896C803.075 534.309 803.506 524.829 803.463 503.396C803.411 477.467 804.494 454.737 806.444 440.823C806.945 437.248 807.116 419.698 806.824 401.823C806.532 383.948 806.146 346.598 805.965 318.823C805.784 291.048 805.41 266.298 805.133 263.823C802.239 237.993 802.05 220.263 804.105 167.323C804.583 155.021 804.325 148.203 802.991 137.823C802.036 130.398 800.89 115.773 800.443 105.323C799.357 79.8726 797.745 56.9246 796.42 48.0326C795.001 38.5126 795.964 21.0526 798.034 18.7646C800.052 16.5356 800.861 5.7236 799.183 3.4286C798.493 2.4846 796.14 1.2986 793.955 0.791596C789.112 -0.331404 760.265 -0.236404 751.982 0.929596ZM778.5 28.5726C778.51 31.1856 779.178 47.0476 779.984 63.8226C780.791 80.5976 781.703 100.173 782.012 107.323C782.32 114.473 783.279 128.648 784.143 138.823C785.613 156.134 785.456 181.787 783.818 192.085C782.882 197.97 783.355 248.074 784.477 261.823C785.082 269.248 785.508 282.523 785.423 291.323C785.338 300.123 785.113 338.598 784.923 376.823C784.733 415.048 784.218 453.456 783.78 462.174C783.341 470.892 783.375 488.892 783.855 502.174C784.449 518.6 784.362 532.08 783.586 544.323C781.652 574.793 781.475 603.766 783.126 619.323C784.275 630.138 784.431 638.1 783.813 654.323C783.372 665.873 783.097 685.946 783.2 698.93L783.388 722.537L775.685 723.274C764.808 724.315 752.493 724.022 725.482 722.082C706.7 720.733 689.417 720.426 639.393 720.553C604.968 720.64 573.14 720.941 568.663 721.221C564.186 721.501 534.751 721.984 503.252 722.294C471.754 722.604 439.748 723.076 432.129 723.342C415.206 723.934 301.905 723.94 291.482 723.349C282.873 722.861 241.586 722.086 177.482 721.209C127.2 720.521 78.7203 721.904 53.3843 724.749C43.0593 725.909 36.7563 726.234 36.3733 725.627C35.2393 723.829 33.8273 700.931 32.9943 670.823C32.5383 654.329 31.0513 630.571 29.9593 622.323C28.6983 612.802 27.9823 579.676 27.9823 530.823C27.9823 478.011 29.2153 398.065 30.0503 396.713C30.2653 396.365 30.5163 367.335 30.6083 332.202C30.7363 283.597 31.2203 260.791 32.6343 236.823C34.1263 211.545 34.3713 198.212 33.8763 169.323C33.5373 149.523 33.1273 132.198 32.9653 130.823C32.8023 129.448 32.3793 120.673 32.0233 111.323C30.8803 81.2416 27.6133 40.7186 26.0053 36.6806C25.4203 35.2116 27.0093 34.9916 41.1673 34.5826C71.5433 33.7056 142.059 33.8566 151.482 34.8186C167.078 36.4096 187.751 37.6746 208.982 38.3346C219.982 38.6776 231.907 39.1586 235.482 39.4056C247.016 40.2006 339.179 42.0706 365.982 42.0536C393.375 42.0366 423.227 41.0986 424.665 40.2096C425.134 39.9196 455.162 39.2656 491.393 38.7566C527.624 38.2466 564.629 37.3576 573.625 36.7796C582.621 36.2016 600.332 35.5166 612.982 35.2566C625.632 34.9966 644.757 34.0706 655.482 33.1996C666.207 32.3286 681.369 31.6716 689.175 31.7416C699.516 31.8336 706.415 31.3186 714.6 29.8456C720.777 28.7326 730.141 27.8196 735.407 27.8146C740.673 27.8106 747.907 27.3066 751.482 26.6936C755.057 26.0806 762.032 25.2516 766.982 24.8516C771.932 24.4516 776.545 24.0566 777.232 23.9736C778.076 23.8716 778.488 25.3666 778.5 28.5726Z" fill="#025354"/>
</svg>
