<svg width="807" height="750" viewBox="0 0 807 750" fill="none" xmlns="http://www.w3.org/2000/svg">
<path fill-rule="evenodd" clip-rule="evenodd" d="M751.982 0.929596C748.682 1.3946 741.032 1.51761 734.982 1.20461C727.205 0.801605 721.108 1.10461 714.173 2.23961C707.727 3.29461 698.642 3.81561 687.673 3.76061C678.493 3.71361 664.232 4.2016 655.982 4.8446C647.732 5.4876 631.757 6.17161 620.482 6.36461C609.207 6.55861 587.382 7.19161 571.982 7.77161C556.582 8.35261 519.753 9.0496 490.141 9.3226C460.528 9.5946 430.153 10.2656 422.641 10.8146C405.085 12.0946 343.273 12.5456 319.982 11.5626C310.082 11.1456 294.332 10.5866 284.982 10.3226C195.704 7.7956 174.244 6.9066 153.982 4.9006C117.55 1.2926 49.7333 3.9716 18.8953 10.2366C2.86928 13.4926 -0.24372 16.0866 4.55428 22.1876L6.62628 24.8216L4.44829 30.5716C1.73329 37.7406 0.757282 50.8416 1.63528 68.3226C1.99428 75.4726 2.60428 89.1976 2.99028 98.8226C3.37628 108.448 3.81628 118.573 3.96828 121.323C4.12028 124.073 4.57328 143.648 4.97628 164.823C5.56328 195.714 5.37728 208.956 4.03428 231.823C2.98628 249.663 2.21928 280.521 1.98428 314.323C1.77828 344.023 1.24329 389.473 0.795285 415.323C-0.928715 514.983 0.223279 604.27 3.54328 628.323C4.43828 634.808 6.00428 652.013 8.50228 682.823C9.90828 700.162 11.2993 710.376 13.1313 716.823C13.9913 719.848 14.8933 723.406 15.1363 724.73C16.2483 730.789 22.0403 743.558 25.0443 746.573C28.8893 750.432 30.4723 750.596 34.0613 747.509C36.4773 745.43 37.3243 745.273 42.3673 745.969C45.4553 746.395 86.9073 746.766 134.482 746.794C182.057 746.822 225.257 747.102 230.482 747.417C246.096 748.355 415.661 748.674 461.982 747.852C549.402 746.301 577.126 745.715 582.982 745.295C596.298 744.342 662.788 742.792 707.719 742.387C733.974 742.151 755.923 741.669 756.493 741.316C757.064 740.963 764.608 740.556 773.257 740.411C790.161 740.127 794.123 739.137 796.67 734.563C797.576 732.935 797.959 724.265 798.073 702.823C798.159 686.598 798.718 668.598 799.316 662.823C800.649 649.945 800.731 641.252 799.91 599.823C799.33 570.519 799.476 565.511 801.392 548.896C803.075 534.309 803.506 524.829 803.463 503.396C803.411 477.467 804.494 454.737 806.444 440.823C806.945 437.248 807.116 419.698 806.824 401.823C806.532 383.948 806.146 346.598 805.965 318.823C805.784 291.048 805.41 266.298 805.133 263.823C802.239 237.993 802.05 220.263 804.105 167.323C804.583 155.021 804.325 148.203 802.991 137.823C802.036 130.398 800.89 115.773 800.443 105.323C799.357 79.8726 797.745 56.9246 796.42 48.0326C795.001 38.5126 795.964 21.0526 798.034 18.7646C800.052 16.5356 800.861 5.7236 799.183 3.4286C798.493 2.4846 796.14 1.2986 793.955 0.791596C789.112 -0.331404 760.265 -0.236404 751.982 0.929596Z" fill="black"/>
</svg>
