<svg width="2228" height="1581" viewBox="0 0 2228 1581" fill="none" xmlns="http://www.w3.org/2000/svg">
<path fill-rule="evenodd" clip-rule="evenodd" d="M71.1151 0.125447C70.8401 0.380447 60.0401 0.882451 47.1151 1.24245C3.61509 2.45345 2.01609 3.25444 0.548089 24.5814C-0.206911 35.5544 -0.169909 1508.18 0.585091 1526.86C2.15509 1565.66 2.5381 1568.07 7.9781 1573.25C10.8441 1575.98 11.7361 1576.2 24.8101 1577.35C32.4031 1578.02 39.2901 1578.59 40.1151 1578.62C40.9401 1578.65 51.7401 1579.05 64.1151 1579.52C88.8441 1580.45 137.582 1580.44 636.115 1579.43C1045 1578.6 1578.48 1578.1 1905.62 1578.23C2252.69 1578.37 2214.86 1578.63 2219.85 1576.04C2222.18 1574.83 2224.82 1572.72 2225.72 1571.35C2227.62 1568.45 2227.78 1561.97 2226.02 1558.7C2225.08 1556.93 2225.01 1542.95 2225.71 1495.89C2226.63 1434.1 2226.62 1361.96 2225.55 777.864C2225.21 594.439 2224.92 430.639 2224.91 413.864C2224.9 397.089 2225.19 310.239 2225.57 220.864C2226.06 106.164 2225.94 53.4994 2225.16 41.8244C2224.21 27.6164 2224.27 24.6785 2225.57 20.9775C2228.06 13.9315 2226.32 9.27644 2219.41 4.44144C2215.31 1.58044 2212.98 0.605438 2210.71 0.807438C2203.51 1.44944 826.958 1.16445 465.615 0.446446C248.915 0.0154459 71.3901 -0.128553 71.1151 0.125447Z" fill="black"/>
</svg>
