<svg width="2229" height="1581" viewBox="0 0 2229 1581" fill="none" xmlns="http://www.w3.org/2000/svg">
<path fill-rule="evenodd" clip-rule="evenodd" d="M72 0.261189C71.725 0.516189 60.925 1.01819 48 1.37819C4.49998 2.58919 2.90098 3.39018 1.43298 24.7172C0.677976 35.6902 0.714979 1508.32 1.46998 1527C3.03998 1565.8 3.42298 1568.2 8.86298 1573.38C11.729 1576.12 12.621 1576.33 25.695 1577.49C33.288 1578.16 40.175 1578.73 41 1578.76C41.825 1578.79 52.625 1579.19 65 1579.65C89.729 1580.58 138.467 1580.58 637 1579.57C1045.89 1578.74 1579.36 1578.23 1906.5 1578.36C2253.57 1578.5 2215.74 1578.77 2220.73 1576.17C2223.06 1574.96 2225.7 1572.85 2226.6 1571.48C2228.5 1568.58 2228.66 1562.1 2226.91 1558.83C2225.96 1557.07 2225.89 1543.08 2226.6 1496.03C2227.52 1434.23 2227.5 1362.1 2226.43 778C2226.1 594.575 2225.81 430.775 2225.79 414C2225.78 397.225 2226.08 310.375 2226.46 221C2226.94 106.3 2226.82 53.6352 2226.04 41.9602C2225.1 27.7522 2225.15 24.8142 2226.46 21.1132C2228.95 14.0672 2227.21 9.41218 2220.29 4.57718C2216.2 1.71618 2213.86 0.74118 2211.6 0.943181C2204.4 1.58518 827.843 1.30019 466.5 0.582188C249.8 0.151188 72.275 0.00718893 72 0.261189ZM2197.52 134.858C2197.54 191.861 2197.69 291.375 2197.87 356C2198.05 420.625 2197.9 628.975 2197.55 819C2196.48 1394.84 2196.47 1430.4 2197.39 1490.71L2198.29 1548.91L2168.89 1549.32C2146.16 1549.64 1815.76 1549.46 1395.5 1548.89C1386.7 1548.88 1209.4 1548.86 1001.5 1548.84C793.6 1548.83 597.85 1548.64 566.5 1548.42C450.087 1547.61 76.742 1547.53 55.633 1548.31L33.765 1549.13L34.369 1532.31C34.701 1523.07 35.091 1181.73 35.236 773.791L35.5 32.0822L49 32.7722C56.425 33.1522 131.8 33.4002 216.5 33.3242C301.2 33.2482 756.15 32.8622 1227.5 32.4672C1698.85 32.0732 2084.58 31.6932 2084.67 31.6252C2084.76 31.5562 2110.19 31.4362 2141.17 31.3582L2197.5 31.2152L2197.52 134.858Z" fill="#025354"/>
</svg>
