<svg width="1006" height="1002" viewBox="0 0 1006 1002" fill="none" xmlns="http://www.w3.org/2000/svg" preserveAspectRatio="none" >
<path fill-rule="evenodd" clip-rule="evenodd" d="M504.865 0.468974C504.637 0.696974 495.011 1.14094 483.475 1.45494C454.005 2.25894 443.165 2.889 430.199 4.551C423.983 5.348 417.008 6.00093 414.699 6.00193C412.389 6.00293 402.85 7.14692 393.5 8.54392C377.809 10.8889 368.232 12.1119 354 13.5909C350.975 13.9049 345.575 14.583 342 15.098C328.113 17.095 319.077 18.037 308.5 18.588C302.45 18.903 294.125 19.521 290 19.961C285.875 20.401 273.275 20.815 262 20.881C235.199 21.038 200.442 21.906 191 22.655C186.875 22.982 179 23.3589 173.5 23.4919C161.733 23.7789 144.544 24.824 134 25.894C129.875 26.313 111.661 26.7689 93.5251 26.9079C75.3891 27.0469 60.2353 27.355 59.8493 27.593C59.4643 27.832 52.9274 27.983 45.3244 27.931C23.2014 27.778 15.7642 28.048 11.5002 29.16C9.30022 29.734 5.78612 30.432 3.69212 30.712C-0.115883 31.221 -0.115894 31.2209 0.505106 36.8609C1.36211 44.6539 1.8842 48.46 3.1262 56C3.7152 59.575 4.34938 65.2 4.53538 68.5C5.04738 77.605 5.92316 85.087 8.10716 99C10.7282 115.7 11.7972 158.736 10.2942 187C9.41017 203.602 9.30012 366.427 10.1711 368.189C10.6311 369.122 10.6093 370.123 10.1223 370.425C8.89929 371.181 9.95146 407.337 11.2195 408.129C11.8375 408.515 11.7254 408.925 10.9314 409.19C10.0314 409.49 9.67118 411.592 9.75218 416.061C9.81618 419.602 10.1001 433.075 10.3821 446C10.6651 458.925 11.1545 481.65 11.4695 496.5C11.7855 511.35 12.3043 525.525 12.6233 528C13.0903 531.622 13.954 553.559 13.884 560C13.58 587.839 14.0281 672.237 14.4841 672.974C14.8331 673.538 14.7073 674 14.2043 674C13.1063 674 12.9394 703.844 14.0334 704.52C14.4504 704.778 14.3991 706.679 13.9201 708.745C12.6851 714.062 12.7472 729.274 14.0002 728.5C14.5502 728.16 15.0002 728.557 15.0002 729.382C15.0002 730.207 14.5284 731.174 13.9514 731.53C13.2254 731.979 13.2384 732.582 13.9934 733.492C14.7284 734.377 14.746 734.919 14.05 735.153C12.389 735.711 13.1341 828.75 14.8821 839.125C15.4961 842.769 16.0382 852.782 16.0862 861.375C16.1422 871.431 16.5422 877 17.2092 877C17.8452 877 17.7784 877.563 17.0364 878.456C16.3724 879.257 16.0913 880.338 16.4123 880.857C17.4753 882.578 18.1151 894.304 17.9201 908.5C17.6971 924.776 17.7551 933.511 18.2341 955.5C18.6121 972.864 19.8965 978.485 23.2405 977.424C24.5135 977.02 25.0002 977.41 25.0002 978.835C25.0002 982.815 43.8 984.612 57.114 981.905C64.718 980.358 73.8932 979.958 78.0002 980.994C79.9252 981.479 84.8752 982.132 89.0002 982.443C93.1252 982.755 99.8752 983.435 104 983.954C108.125 984.473 115.325 985.155 120 985.469C124.675 985.784 132.1 986.479 136.5 987.016C140.9 987.552 149 988.215 154.5 988.489C160 988.763 165.625 989.221 167 989.507C168.375 989.793 170.917 989.615 172.649 989.112C174.752 988.501 176.159 988.559 176.884 989.284C177.559 989.959 184.807 990.497 196.028 990.704C205.96 990.887 218.004 991.443 222.793 991.94C227.582 992.436 238.925 992.687 248 992.496C257.075 992.306 278.9 991.935 296.5 991.672C314.1 991.408 330.166 990.752 332.203 990.212C334.239 989.673 337.614 989.354 339.703 989.503C341.791 989.652 350.475 990.082 359 990.46C367.525 990.837 376.075 991.31 378 991.51C379.925 991.711 388.271 992.164 396.546 992.517C404.821 992.871 413.821 993.316 416.546 993.507C419.271 993.698 425.55 994.125 430.5 994.457C435.45 994.789 440.175 995.248 441 995.478C441.825 995.707 448.776 996.172 456.447 996.51C464.118 996.849 470.648 997.282 470.958 997.474C471.949 998.087 512.033 999.622 558 1000.81C587.69 1001.58 632.246 1001.49 654.5 1000.62C661.1 1000.37 674.825 999.871 685 999.524C695.175 999.176 707.1 998.717 711.5 998.502C715.9 998.288 728.275 997.859 739 997.55C749.725 997.241 767.725 996.554 779 996.024C790.275 995.494 806.475 994.806 815 994.495C823.525 994.184 834.325 993.734 839 993.495C863.351 992.249 870.841 991.914 885.5 991.417C894.3 991.118 908.475 990.523 917 990.093C925.525 989.664 941.05 989.048 951.5 988.725C1005.87 987.045 1006.62 986.299 1003.09 936.963C1002.72 931.758 1002.77 925.025 1003.19 922C1004.15 915.198 1005.42 898.546 1005.28 894.5C1005.23 892.85 1004.89 880.25 1004.54 866.5C1003.96 843.331 1002.66 827.088 999.875 807.754C998.867 800.771 999.225 782.445 1000.48 776.632C1002.03 769.496 1002.3 765.279 1002.57 744.5C1002.73 731.85 1003.19 714.569 1003.58 706.099C1004.15 693.896 1004.04 690.858 1003.05 691.469C1002.11 692.052 1002.04 691.783 1002.77 690.371C1004.24 687.543 1005.06 674.47 1004.99 655C1004.96 645.375 1004.97 635.138 1005.02 632.25C1005.08 628.569 1004.71 626.995 1003.8 626.985C1002.91 626.974 1002.85 626.736 1003.6 626.235C1005.06 625.26 1005.98 620.104 1004.82 619.387C1004.29 619.058 1004.27 618.336 1004.78 617.661C1005.27 617.022 1005.52 614.7 1005.35 612.5C1005.18 610.3 1005.09 607.6 1005.15 606.5C1005.76 595.2 1005.63 515.671 1004.98 506.5C1004.1 494.078 1003.4 477.739 1002.47 448.5C1002.17 439.15 1001.74 430.15 1001.52 428.5C1001.3 426.85 1000.82 415.15 1000.44 402.5C1000.07 389.85 999.387 379.358 998.93 379.183C998.474 379.009 998.528 377.742 999.05 376.368C1000.39 372.836 1000.23 366.646 998.75 365.053C997.739 363.964 997.767 363.859 998.896 364.502C1000.02 365.143 1000.14 364.732 999.505 362.399C998.725 359.522 998.225 322.626 997.945 247.25C997.865 225.662 997.507 208 997.149 208.001C996.792 208.001 996.644 196.639 996.821 182.751C996.998 168.863 996.619 150.3 995.981 141.5C995.342 132.7 994.701 113.35 994.556 98.5C994.411 83.65 993.949 70.375 993.529 69C993.109 67.625 992.61 55.475 992.419 42C992.228 28.525 992.055 17.197 992.036 16.827C991.625 9.07601 981.518 7.91704 928 9.48704C919.475 9.73704 896.525 10.247 877 10.62C857.475 10.993 839.25 11.44 836.5 11.614C833.75 11.788 817.55 11.869 800.5 11.795C765.335 11.643 760.306 11.642 757.5 11.791C755.037 11.921 746.566 11.4819 733.842 10.5649C728.53 10.1819 719.305 9.68502 713.342 9.46202C702.829 9.06702 676.766 7.57395 662.5 6.54795C658.65 6.27195 650.775 5.79404 645 5.48704C639.225 5.18004 627.3 4.51702 618.5 4.01402C609.7 3.51102 600.475 3.07903 598 3.05503C595.525 3.03003 588.325 2.79995 582 2.54295C575.675 2.28595 556.127 1.80798 538.56 1.47898C520.993 1.15098 506.318 0.695974 505.949 0.468974C505.581 0.240974 505.092 0.240974 504.865 0.468974ZM592 24.021C606.575 24.655 623 25.336 628.5 25.535C637.519 25.861 641.632 26.1309 658.5 27.5019C677.934 29.0819 743.294 32.232 752 32.008C755.575 31.916 758.95 31.861 759.5 31.886C776.598 32.64 831.676 32.034 843.545 30.961C847.969 30.561 858.544 29.953 867.045 29.61C881.95 29.008 897.711 28.1069 905 27.4389C963.442 22.0809 971.319 23.745 971.572 41.5C971.779 55.985 972.268 63.235 973.582 71.265C973.83 72.785 974.254 90.335 974.523 110.265C974.792 130.194 975.201 147.798 975.433 149.385C976.011 153.353 976.223 168.792 976.02 192.224C975.927 203.072 976.153 212.438 976.523 213.037C977.046 213.884 977.268 245.769 976.895 266.5C976.855 268.689 977.783 312.627 978.099 323.5C978.115 324.05 977.954 326.66 977.742 329.3C977.452 332.903 977.748 334.329 978.928 335.019C980.089 335.699 980.144 335.947 979.138 335.97C978.016 335.995 977.904 338.777 978.502 351.75C978.902 360.412 979.361 376.275 979.522 387C979.821 406.911 980.604 428.973 981.457 441.5C981.719 445.35 982.22 456.375 982.57 466C982.92 475.625 983.388 485.975 983.61 489C983.833 492.025 984.29 499.45 984.627 505.5C985.361 518.687 985.311 651.817 984.565 671C984.276 678.425 983.789 691.475 983.483 700C982.871 717.029 982.387 723.725 980.952 735C980.427 739.125 979.786 746.775 979.528 752C979.1 760.646 978.186 773.874 976.417 797C975.287 811.774 975.121 823.934 976.005 827.018C976.482 828.681 976.479 830 975.999 830C974.716 830 975.66 867.354 977.364 884C979.012 900.107 979.139 903.599 979.391 939.718C979.596 969.107 981.717 965.863 961.858 966.52C950.826 966.885 917.101 968.235 888 969.475C882.225 969.722 870.464 970.181 861.865 970.497C853.266 970.812 845.166 971.28 843.865 971.537C842.564 971.793 832.5 972.216 821.5 972.476C791.5 973.184 764.595 974.132 763.996 974.502C763.704 974.683 754.023 975.141 742.482 975.52C730.942 975.899 719.7 976.355 717.5 976.535C715.3 976.714 705.85 977.163 696.5 977.531C687.15 977.9 677.349 978.541 674.72 978.956C672.091 979.371 669.765 979.429 669.553 979.085C669.34 978.741 665.866 978.557 661.833 978.675C657.8 978.793 630.883 978.951 602.017 979.026C553.293 979.153 536.475 978.817 507.216 977.131C501.01 976.773 495.062 976.803 493.998 977.196C492.934 977.59 491.837 977.545 491.56 977.097C491.283 976.649 487.332 976.205 482.778 976.109C474.821 975.942 452.92 974.536 442.5 973.523C431.792 972.482 409.646 971.3 385 970.453C378.675 970.236 371.25 969.849 368.5 969.594C362.185 969.009 347.375 968.209 330 967.517C322.575 967.221 311.1 966.737 304.5 966.443C297.9 966.148 285.525 965.718 277 965.487C268.475 965.256 258.575 964.826 255 964.532C251.425 964.238 239.725 963.768 229 963.487C204.805 962.855 186.787 961.986 185.85 961.407C185.458 961.165 184.876 961.392 184.556 961.91C184.214 962.462 182.784 962.512 181.102 962.029C179.523 961.576 173.62 961.15 167.984 961.081C162.349 961.012 157.388 960.74 156.96 960.475C155.27 959.431 118.411 958.5 78.7502 958.5C42.3602 958.5 36.9842 958.307 36.8762 957C36.8082 956.175 36.5842 953.7 36.3782 951.5C36.1712 949.3 35.8783 939.538 35.7253 929.807C35.5723 920.076 35.1252 911.792 34.7322 911.399C34.3392 911.006 34.576 910.007 35.259 909.179C36.247 907.982 36.247 907.59 35.259 907.257C34.326 906.943 34.388 906.469 35.509 905.348C37.099 903.758 37.4882 902 36.2502 902C35.8372 902 35.4641 898.738 35.4211 894.75C35.3781 890.762 35.0292 885.025 34.6462 882C33.7672 875.056 33.5011 864.649 34.1711 863.429C34.4511 862.918 34.4042 859.451 34.0652 855.724C33.7272 851.996 33.7532 848.396 34.1242 847.724C34.4942 847.051 34.386 844.025 33.884 841C32.419 832.186 31.5972 751.052 32.5202 706.5C33.5442 657.122 32.8794 516.537 31.5324 497.5C31.3384 494.75 30.8832 477.65 30.5222 459.5C30.1612 441.35 29.6932 424.025 29.4822 421C29.2712 417.975 29.0243 399.75 28.9333 380.5C28.8353 359.845 28.3644 344.733 27.7844 343.629C27.2434 342.6 27.1831 341.995 27.6501 342.284C28.1181 342.573 28.3844 332.164 28.2414 319.154C27.8024 279.025 26.8284 165.533 26.5754 125C26.4424 103.825 25.9701 78.063 25.5251 67.75C24.7161 49 24.7161 49 27.1081 48.977C28.4241 48.965 46.1502 48.752 66.5002 48.503C99.8042 48.096 110.531 47.765 132 46.48C135.575 46.266 143.675 45.829 150 45.51C156.325 45.191 164.425 44.7019 168 44.4239C179.937 43.4949 192.306 43.017 216.5 42.548C278.188 41.352 293.25 40.963 293.919 40.55C294.83 39.987 304.974 39.211 320.91 38.485C327.736 38.175 333.652 37.715 334.059 37.464C334.465 37.213 336.756 36.7749 339.149 36.4909C341.542 36.2069 346.702 35.544 350.615 35.016C354.528 34.489 361.503 33.7919 366.115 33.4659C370.727 33.1409 375.954 32.4209 377.73 31.8659C379.507 31.3119 381.355 31.102 381.838 31.4C382.32 31.698 385.366 31.497 388.607 30.954C391.848 30.411 396.02 29.712 397.877 29.401C399.734 29.091 401.998 28.6929 402.909 28.5179C403.82 28.3419 409.5 27.893 415.532 27.519C421.565 27.146 429.425 26.416 433 25.899C444.755 24.196 448.323 23.89 465 23.15C487.849 22.137 560.067 22.632 592 24.021Z" fill="#025354"/>
</svg>
