<svg xmlns="http://www.w3.org/2000/svg" width="1412" height="868" fill="none"><path fill="#025354" fill-rule="evenodd" d="M537.369.49c-.49.49-34.894 1.365-56.939 1.447-3.143.012-5.987.46-6.319.999s-1.136.643-1.785.234c-1.985-1.25-13.591-1.367-25.181-.254-6.05.58-16.962 1.007-24.25.946-10.33-.086-13.253.18-13.265 1.204-.012 1.039-.199 1.026-.889-.064-.826-1.304-13.832-1.145-30.596.375-2.2.2-12.663.424-23.25.499s-19.249.444-19.248.82c.001.377-4.278.542-9.509.366-6.944-.233-10.315.083-12.493 1.169-1.64.818-3.22 1.102-3.511.63-.728-1.176-13.43-1.082-15.672.118-1.241.664-1.817.626-1.817-.122 0-.602-.342-.883-.761-.624-1.228.759-12.925 1.79-24.239 2.136-12.215.374-13.844.653-15.065 2.582-.497.787-.911.943-.92.347-.008-.596-.803-1.148-1.765-1.226-4.029-.33-16.574-.11-17.24.303-.397.245-3.261.529-6.366.63-5.343.175-6.904.979-4.628 2.386 1.495.924.169 2.498-1.548 1.839-.807-.31-1.468-1.325-1.468-2.256 0-2.1-40.27-1.731-51.221.468-1.254.252-9.704.725-18.779 1.052-15.022.542-22.474.907-25.677 1.258-.647.07-1.382.916-1.634 1.879-.394 1.508-.473 1.522-.573.103-.208-2.955-35.093-1.49-35.131 1.476-.011.84-.238.82-.801-.066-.578-.91-1.681-.981-4.157-.271-2.322.666-3.785.624-4.7-.135-.73-.606-1.327-.71-1.327-.23s-2.775.873-6.167.873-6.322.467-6.513 1.039c-.196.589-2.716.936-5.833.802-3.018-.13-5.487.078-5.487.46 0 .385-1.238.733-2.75.775-6.875.19-19.25 2.908-19.25 4.226 0 .399-1.76 1.814-3.911 3.143-2.644 1.634-4.1 3.358-4.492 5.32-.32 1.597-1.424 4.103-2.454 5.569-1.685 2.397-2.758 6.812-3.81 15.666-.56 4.722-.366 19.52.29 22.133.327 1.302.187 2.367-.31 2.367s-1.015 1.649-1.151 3.664-.47 4.026-.743 4.467c-1.09 1.762-1.486 21.71-.445 22.353.582.36.76 1.137.395 1.728s-.782 6.297-.927 12.681c-.284 12.54-1.093 24.044-1.986 28.23-.403 1.892-.088 2.804 1.129 3.271 1.5.576 1.524.838.204 2.377-1.544 1.799-2.258 11.821-.903 12.659.41.254.513 6.449.225 13.766-.662 16.865-.345 69.617.426 70.865.32.516-.008.953-.728.971-.87.021-.721.478.44 1.36 1.838 1.394 2.473 3.172.755 2.111-.547-.339-1.555.611-2.238 2.111-.987 2.167-.988 2.812-.004 3.14 1.387.462 1.716 3.246.382 3.246-.815 0-.656 9.331.323 19 .68 6.719.608 16.169-.146 19-.366 1.375-.728 13.3-.805 26.5-.076 13.2-.445 24.905-.82 26.012-1.285 3.802-1.74 9.023-2.221 25.488-.265 9.075-.88 19.875-1.365 24-.486 4.125-.91 8.175-.942 9s-.35 5.723-.705 10.884c-.504 7.31-.35 9.572.695 10.235.929.589.972.855.138.866-.878.011-1.186 3.463-1.138 12.765.037 7.013-.305 14.775-.76 17.25-.79 4.303-1.107 28.405-.624 47.5.125 4.95.093 10.8-.071 13s.049 5.013.474 6.25c.475 1.381.374 2.25-.261 2.25-.57 0-.732.488-.364 1.085.369.597.842 5.209 1.05 10.25.21 5.041.735 12.566 1.168 16.723.434 4.158.449 9.108.034 11-2.104 9.597-.31 44.052 2.482 47.692.619.807.584 1.701-.098 2.524-1.101 1.326-.983 7.63.177 9.508.367.594.21 1.362-.35 1.708-1.483.917-1.278 7.507.235 7.525.92.012.89.243-.107.875-.851.54-1.106 1.652-.683 2.985.416 1.308.242 2.125-.452 2.125-.62 0-.875.406-.57.901 1.258 2.034 2.66 20.756 2.868 38.279.122 10.274.537 18.996.922 19.382.386.385.252 1.542-.298 2.569-.55 1.028-.647 1.869-.215 1.87.432 0 .84 2.813.909 6.25.068 3.437.702 10.524 1.409 15.749s1.254 10.4 1.215 11.5c-.136 3.798.785 6.597 1.936 5.886q1.124-.693.28.671c-1.254 2.03-.541 38.917.966 49.943.413 3.025.793 6.713.843 8.197s.507 2.439 1.016 2.125c.535-.332.664.638.305 2.303-.72 3.328.789 9.359 2.638 10.555.984.636.997.996.057 1.605-1.48.959 1.354 5.548 3.71 6.007.826.161 2.246 1.171 3.156 2.244 1.265 1.491 2.397 1.804 4.793 1.324 2.384-.476 3.46-.184 4.486 1.219 1.145 1.566 1.593 1.643 2.958.511 1.096-.91 1.608-.971 1.608-.191 0 .776 2.494 1.087 7.75.965 4.263-.099 10 .101 12.75.445s8.6.888 13 1.211c4.4.322 9.463.714 11.25.872 1.788.157 3.252.021 3.255-.303.005-.614 12.097-1.098 24.995-1 4.125.031 9.3-.026 11.5-.127s4.45-.139 5-.085c6.665.661 19.154 1.179 33.249 1.379 9.487.134 17.249.506 17.25.827.001.503 2.746.859 7.251.939 12.157.217 20.251-.662 20.263-2.201.02-2.712 1.198-3.11 1.823-.618.563 2.244 20.201 3.34 25.235 1.408.75-.288 1.569-.193 1.819.21.249.404 6.901.848 14.782.988 15.552.274 24.78.819 31.819 1.879 5.556.837 6.044.835 19.009-.063 9.67-.671 15.009-.76 30-.503 8.887.152 10-.029 10-1.622 0-.825.45-1.5 1-1.5s1 .647 1 1.438.788 1.416 1.75 1.389 3.239.288 5.058.699c2.862.646 3.383.459 3.867-1.389.683-2.614 1.926-2.77 2.567-.321.377 1.442 1.223 1.728 4.116 1.39 2.003-.233 3.642-.001 3.642.518 0 1.647 98.455 2.7 100.628 1.076.627-.468 2.346-.38 3.868.199 3.198 1.215 14.883.727 16.734-.7 1.177-.906 91.321-.82 99.536.095 1.796.2 3.45.065 3.676-.3s3.587-.568 7.47-.451 7.322-.212 7.643-.731c.321-.52.905-.746 1.298-.503s7 .734 14.681 1.091 14.822.893 15.867 1.19c1.444.411 1.752.152 1.282-1.075-.341-.888-.184-1.615.348-1.615.533 0 .969.664.969 1.475 0 1.161.534 1.273 2.5.525 1.644-.625 2.5-.605 2.5.06 0 .677.617.68 1.869.01 1.027-.55 2.152-.715 2.5-.368s.631.051.631-.658c0-1.018.347-1.001 1.653.084 2.122 1.762 23.47 2.19 24.582.493.503-.768.739-.693.75.237.01.939.768 1.17 2.454.747 1.341-.337 2.648-.273 2.904.141.553.896 27.009.773 28.474-.133.557-.344 1.163-.197 1.348.327.415 1.18 18.325 3.079 34.335 3.641 6.6.232 18.3.697 26 1.033 7.7.337 19.85.774 27 .973 14.334.399 27.559 1.332 28.678 2.023 1.378.852 58.668 2.055 71.685 1.506 2.4-.102 9.375.154 15.5.568 6.126.413 14.85.713 19.387.667 4.537-.047 8.25.201 8.25.552s6.862.69 15.25.753c20.141.151 42.34.91 57.745 1.973 37.98 2.619 161.96-.026 163.99-3.499.62-1.061.96-1.177.98-.333.03 1.301.44 1.298 30.53-.237 3.3-.168 6-.392 6-.498s5.73-.353 12.73-.551c6.99-.197 13.22-.67 13.84-1.05.61-.38 3.66-.797 6.78-.926 11.08-.46 25.76-1.66 32.65-2.671 12.23-1.793 12.94-1.951 13.6-3.025.45-.724.87-.702 1.35.071.38.617 1.17.829 1.75.469 1.53-.946 11.38-1.326 36.3-1.398 12.1-.035 24.81-.576 28.23-1.201 5.41-.988 6.46-.922 8.04.504 1.91 1.729 6.71 1.292 5.6-.509-.34-.549-.08-1.331.57-1.737 1.03-.636 1.69-2.397 1.99-5.288.04-.412.94-.75 2-.75 2.33 0 3.2-3.906 4.63-21 .25-3.025.75-7.075 1.11-9s.74-11.15.85-20.5.68-23.075 1.27-30.5 1.13-17.325 1.2-22 .35-11.425.62-15c.26-3.575.65-8.975.86-12s.41-5.606.45-5.735c.05-.129.33-5.529.64-12 .3-6.471.8-13.79 1.1-16.265s.7-9.675.88-16c.19-6.325.64-15.437 1.01-20.25.53-6.861.39-8.75-.63-8.75-.76 0-.5-.583.64-1.419 1.57-1.141 1.92-2.557 1.84-7.25-.47-27.113-.35-63.547.24-71.331 1-13.128.73-23.159-.66-24.013-.81-.504-.74-.864.26-1.246.99-.383 1.45-2.623 1.57-7.815.09-4.003.62-9.786 1.17-12.852.56-3.066 1.07-14.799 1.14-26.074.19-28.08.07-31.439-1.16-31.847-.63-.21-.44-.823.46-1.504 1.29-.973 1.61-6.351 2.09-35.149.31-18.7.81-35.8 1.11-38s.46-5.35.37-7c-.1-1.65-.14-3.675-.09-4.5.04-.825.28-7.575.53-15 .24-7.425.55-13.725.67-14 .59-1.272.83-13.819.73-37-.02-5.775.04-12.075.15-14s-.1-6.65-.46-10.5-.61-7.45-.56-8c.83-8.962 1.61-30.894 1.31-36.575-.79-14.953-.14-37.493 1.2-40.966.66-1.716.25-5.579-.69-6.518-.34-.336-.16-1.898.38-3.471.55-1.573.82-4.797.6-7.165-.23-2.368 0-5.43.5-6.805 1.33-3.666 2.66-60.153 1.8-76.5-.2-3.85.21-9.7.92-13 1.28-6.016.71-33.59-.76-35.958-.99-1.608-.83-4.962.28-5.756 1.38-.982.86-10.653-.67-12.493-.68-.822-1.34-2.166-1.46-2.986-.64-4.35-9.81-3.421-10.66 1.08-.33 1.75-.53 1.579-1.15-.991-.69-2.861-.99-3.053-3.9-2.45-1.74.36-5.22.335-7.74-.058s-8.59-.768-13.5-.834c-4.9-.066-13.8-.391-19.77-.723-8.66-.481-11.04-.322-11.74.783-.52.819-.88.92-.89.245-.01-.741-2.64-1.18-7.52-1.253-6.05-.091-7.5.177-7.5 1.39 0 .828-.48 1.504-1.06 1.504-.62 0-.8-.853-.44-2 .66-2.072-.88-2.797-2.03-.951-.44.716-1.09.676-2.06-.127-.89-.735-2.91-.937-5.41-.537-2.29.367-4 .236-4-.307 0-.55-6.18-.963-14.75-.987-13.94-.04-22.93-.48-29.75-1.454-1.65-.236-3.45-.151-4 .189-1.64 1.017-3.45 1.055-4.05.085-.79-1.276-7.45-1.144-7.45.148 0 .582-.5.75-1.11.37-2.1-1.3-20.88-1.404-20.9-.115-.01.706-.41.578-.99-.314-.53-.825-.97-1.107-.98-.628-.01.48-.58.44-1.27-.09-.68-.527-3.79-.982-6.91-1.008-3.11-.026-6.26-.421-7-.877-.73-.456-6.74-.938-13.34-1.071s-13.02-.497-14.27-.808c-1.24-.312-3.19-.074-4.31.527-1.51.807-2.42.78-3.48-.098-1.12-.927-1.44-.916-1.44.053 0 .988-.3.99-1.48.01-.82-.678-2.2-.96-3.08-.625-.87.334-2.45.144-3.51-.424-1.33-.714-2.54-.702-3.93.039-1.1.589-2 .717-2 .285s-8.88-.785-19.75-.785c-10.86 0-19.98-.308-20.26-.684-1.17-1.545-63.84-.641-66.43.958-1.06.656-13.49 1.266-24.12 1.185-3.88-.03-8.27.406-9.75.969-1.82.693-2.69.694-2.69.004 0-.677-6.45-.813-19.245-.407-32.139 1.02-87.966 1.95-96.25 1.602-2.75-.116-9.247-.187-14.438-.16-5.19.03-11-.24-12.91-.598-2.712-.51-3.765-.251-4.812 1.18-1.203 1.646-1.34 1.66-1.34.142 0-1.976-7.957-2.418-12.492-.694-1.442.548-2.403.64-2.134.207.269-.435-7.468-.813-17.193-.841-9.724-.03-21.394-.234-25.932-.457-4.576-.225-8.388.007-8.559.52-.185.558-.884.568-1.749.026-2.249-1.407-5.941-1.643-5.941-.38 0 .689-.695.863-1.75.438-2.837-1.14-4.369-1.22-8.605-.445-2.204.403-6.945.317-10.534-.191-4.14-.587-7.548-.57-9.319.049-1.536.535-2.792.659-2.792.275-.001-.384-4.388-.74-9.75-.791-13.553-.13-32.916-1.088-33.917-1.678-1.982-1.17-16.522-.042-17.403 1.35-.631.997-.904 1.048-.915.17-.008-.686-.915-1.25-2.015-1.25s-2-.417-2-.928c0-.526-5.53-.9-12.773-.86-7.025.037-13.715-.231-14.868-.597-1.152-.366-3.263-.221-4.692.322-1.737.66-2.805.65-3.227-.033-.354-.573-1.921-.737-3.576-.373-1.765.387-3.531.16-4.405-.564-.842-.7-1.459-.786-1.459-.205 0 1.637-4.059 2.249-4.653.7-.388-1.01-2.322-1.335-7.191-1.21-3.663.096-7.176-.146-7.808-.536s-2.205-.714-3.498-.721C624.203.869 608.1.655 589.711.403c-20.33-.281-33.882-.09-34.577.487-.728.604-2.266.524-4.24-.221-2.352-.888-4.006-.891-6.864-.014-2.415.74-4.178.813-4.917.199-.634-.525-1.419-.69-1.744-.363m19.276 20.043c6.542.283 18.496.49 19.5.337 2.621-.4 9.174-.108 10.621.474.913.367 2.298-.025 3.17-.897.851-.851 1.697-1.132 1.879-.623s7.305 1.177 15.83 1.486 17.075.755 19 .992c3.625.446 26.98 1.783 37.5 2.147 3.3.114 6.225.27 6.5.347 2.498.697 22.14.668 22.573-.033a1.09 1.09 0 0 1 1.498-.338c.512.317 4.419.783 8.68 1.037 16.298.968 21.848 1.4 24.749 1.928 5.748 1.045 57.825 1.388 59.684.393 1.24-.664 1.816-.626 1.816.122 0 .602.513.777 1.14.39 1.28-.792 17.503-.753 18.793.045 1.701 1.05 13.409 1.502 14.545.56.714-.593 2.354-.641 4.167-.121 1.644.472 6.559.636 10.922.365s11.871-.527 16.683-.57c7.069-.061 8.75-.363 8.75-1.573 0-1.135.463-1 1.915.559 2.652 2.846 14.076 3.313 14.1.576.013-1.495.156-1.533.963-.255 1.44 2.28 30.881 2.978 63.022 1.492 17.81-.823 16.781-.815 26.5-.224 4.4.268 8.836.05 9.857-.483 1.245-.65 2.218-.61 2.95.122 1.902 1.902 5.827 1.295 6.425-.992.383-1.462.774-1.714 1.312-.843.933 1.508 14.461 1.354 20.451-.234 6.05-1.603 8.93-1.745 9.72-.481 1 1.599 13.38 1.424 64.28-.908 6.05-.277 11.45-.551 12-.61.55-.057 7.08.237 14.5.655 7.43.418 24.75.893 38.5 1.056s25 .388 25 .5c0 .258 4.85.598 20 1.405 16.12.857 19.82 1.193 22.51 2.047 1.25.398 14.03.895 28.39 1.105s28.58.566 31.6.79c10.98.814 34.02.327 35.78-.756.6-.37 1.37-.21 1.72.359.36.568 1.06.774 1.57.457.52-.316.93-.091.93.5 0 .59 1.24 1.069 2.75 1.062 2.7-.012 11.88.399 33.1 1.485 5.86.3 16.85.638 24.42.75 13.79.208 16.96 8.689 12.05 32.246-.35 1.65-.77 10.875-.95 20.5s-.55 26.05-.83 36.5c-.72 26.881-.74 27.886-.51 29 .12.55.1 1.225-.05 1.5-.14.275-.42 2.975-.62 6s-.63 8.65-.94 12.5c-.32 3.85-.65 10.938-.74 15.75-.1 4.813-.41 8.75-.71 8.75-.86 0-1.23 5.661-1.16 17.5.08 12.318-.01 26.126-.24 37.819-.08 4.3.1 7.976.41 8.169.32.193.41 7.249.21 15.681s-.23 19.831-.06 25.331c.31 10.345.27 13.445-.52 42-.56 20.545-1.28 32.162-2.06 33.424-.32.516-.11 1.225.45 1.576.57.351.7 1.17.3 1.819-1.91 3.053-3.02 40.085-2.17 72.027.21 7.615.12 14.003-.19 14.197-.54.328-1.32 9.13-1.12 12.457.59 9.501.24 23.895-.71 29.5-.65 3.85-.92 9.25-.6 12 1.03 8.8 1.17 13.5.38 13.5-.42 0-.76.787-.76 1.75.01.963-.24 3.1-.54 4.75-1.88 10.397-2.45 79.694-.7 86.032.58 2.133.74 4.124.34 4.424-.4.299-.84 1.444-.99 2.544-1.1 8.429-1.17 11.5-.26 11.5.56 0 1.02.675 1.02 1.5s-.67 1.5-1.5 1.5c-1.2 0-1.52 1.635-1.61 8.25-.2 13.832-.69 22.884-1.26 23.463-.31.302-.12 1.354.4 2.338.67 1.244.58 1.964-.28 2.368-.98.456-.97.71.05 1.178 1.05.488 1.05.882 0 2.154-1.32 1.591-2 17.249-.74 17.249.35 0 .57 2.025.49 4.5-.12 3.345.22 4.5 1.3 4.5.98 0 .69.671-.91 2.054-2.69 2.338-2.86 3.257-3.35 18.746-.19 6.215-.6 11.548-.9 11.853-.31.304-.15 1.631.35 2.95.5 1.318.54 2.397.09 2.397-1.3 0-2.45 14.882-2.64 34-.15 16.271-.52 23.269-2.11 40-.75 7.873-8.38 16.723-8.38 9.72 0-.514-.69-.668-1.53-.344-.88.336-1.79-.049-2.11-.893-.31-.816-1.39-1.483-2.4-1.483s-2.05-.342-2.31-.76c-1.17-1.902-30.67-2.298-32.9-.441-1.17.971-1.75 1.005-2.29.134-.48-.783-2.23-.939-5.34-.479-5.77.856-10.47 1.34-15.62 1.609-2.2.115-4.75.867-5.68 1.671s-2.17 1.166-2.75.805c-.59-.361-1.07-.068-1.08.652-.01 1.031-.18 1.043-.81.057-.99-1.556-22.09-.671-23.75.996-.34.34-1.25.376-2.02.08s-2.19-.196-3.16.222c-.96.418-5.95.9-11.1 1.07-5.14.17-9.91.772-10.59 1.338s-1.49.775-1.8.464c-.31-.31-2.19-.117-4.16.428-1.98.546-3.6.692-3.6.323s-2.03-.681-4.5-.695c-2.47-.015-4.5.21-4.5.5 0 .289-6.71.547-14.9.574-10.4.033-15.36.425-16.41 1.298-.83.688-1.74.877-2.02.42s-2.24-.742-4.34-.633c-2.1.11-9.23.494-15.83.853-6.6.36-20.4.737-30.67.839s-18.99.503-19.38.894-1.44.334-2.33-.126c-1.8-.932-31.84-.704-32.79.249-.33.332-1.02.346-1.53.032-2.23-1.378-26-1.03-27.43.401-1.15 1.156-1.71 1.185-2.95.159-1-.833-5.85-1.368-14.22-1.567-6.98-.166-13.82-.557-15.2-.87-2.35-.536-24.163-1.31-46.589-1.653-5.552-.085-10.583.148-11.181.517s-1.381.196-1.741-.386c-.797-1.29-15.46-1.059-17.19.27-.664.51-1.676.637-2.25.282s-1.044-.246-1.044.241-1.35.687-3 .445-3-1.036-3-1.764c0-.729-.787-1.352-1.75-1.386s-15.025-.281-31.25-.549c-36.974-.613-55.072-1.208-57-1.874-2.122-.733-24.987-1.845-41.248-2.005-7.562-.074-13.751-.36-13.754-.635s-3.789-.59-8.415-.701-10.701-.413-13.501-.674c-3.578-.332-5.512-.052-6.506.942-.779.778-1.564.986-1.746.462-.462-1.335-18.158-2.97-18.961-1.753-.393.597-2.028.496-4.335-.265-4.191-1.383-5.25-1.503-22.534-2.562-13.51-.828-14.691-.845-32.158-.469-6.412.139-12.143-.048-12.735-.414-1.472-.91-11.09-.402-11.721.618-.279.452-1.413.337-2.521-.256-1.693-.906-2.103-.734-2.578 1.082-.374 1.43-.812 1.758-1.299.971-.555-.898-1.252-.91-2.861-.049-1.656.886-2.13.854-2.142-.147-.012-1.009-.197-.998-.862.05-.652 1.028-.961.893-1.349-.593-.422-1.613-1.545-1.968-6.889-2.177-10.366-.407-35.193-.473-52.543-.142-8.887.17-16.542.071-17.012-.219-.702-.434-17.496-.682-47.33-.699-7.474-.005-9.018.072-22 1.094-9.779.77-42.003 1.81-64 2.067-1.375.016-4.494-.247-6.931-.584-3.058-.423-4.681-.22-5.235.653-.637 1.002-.807.989-.819-.063-.012-1.056-2.22-1.215-10.765-.775-16.194.835-37.243.567-37.248-.473-.001-.317-3.489-.643-7.752-.725-21.602-.414-39.535-1.151-40.03-1.645-1.017-1.018-3.061-.57-4.649 1.017-.965.966-1.571 1.122-1.571.406 0-.862-3.653-1.011-13.964-.57-8.587.366-16.769.158-21.25-.541-9.702-1.514-68.333-2.553-77.286-1.37-6.232.824-14.354.667-19.92-.385-6.523-1.232-4.146-1.111-33.08-1.678-13.75-.269-27.453-.589-30.452-.711-2.998-.122-6.526.335-7.839 1.015-1.725.894-2.935.945-4.357.184-1.105-.592-3.37-.744-5.161-.347-4.255.942-16.544 1.135-17.925.281-.605-.373-2.15-.28-3.433.208-1.566.596-2.333.527-2.333-.21q0-1.098-1.5.147c-1.171.972-1.818.981-2.95.042-.797-.662-2.941-1.075-4.764-.918s-3.928-.093-4.677-.556c-2.475-1.53-18.135-1.134-19.2.486-2.877 4.378-5.811-5.76-6.381-22.054-.348-9.942-.387-10.205-1.411-9.573-.992.614-.77-5.107.237-6.114 1.065-1.065.73-4.118-.497-4.527-.85-.283-.835-.959.055-2.622.668-1.248.884-3.218.488-4.452-.392-1.216-.673-4.237-.626-6.712s-.296-5.963-.763-7.75c-.468-1.787-.55-3.25-.18-3.25.368 0 .575-1.687.46-3.75-.56-10.092-1.411-20.555-2.296-28.25-.538-4.675-.911-9.175-.83-10 .554-5.56-.205-9.211-1.663-8.001-1.331 1.104-1.332.771-.01-2.978 1.128-3.196 1.374-7.173 1.013-16.371-.576-14.679-.69-15.65-1.826-15.65-.491 0-.56-.787-.151-1.75.98-2.312.716-6.251-.52-7.741-.545-.656-.767-1.417-.493-1.69.273-.274.484-4.057.469-8.408a1437 1437 0 0 1 .015-13.411c.056-7.137.05-7.358-.341-15-.183-3.575-.406-8.214-.495-10.309-.09-2.095-.527-3.584-.973-3.308-.445.275-.666-4.678-.49-11.007.21-7.571-.025-11.293-.69-10.882-.555.343-1.01.196-1.01-.328s.675-1.211 1.5-1.528c1.697-.651 2.029-4.193.484-5.148-.56-.346-.76-1.046-.443-1.556 1.016-1.645 1.746-13.934.828-13.934-.49 0-.928-3.713-.975-8.25-.163-15.614-.306-42.254-.241-44.75.144-5.515-1.181-28.237-1.695-29.069-.303-.489-.06-1.809.543-2.932 1.436-2.684 2.045-21.127.75-22.749q-.995-1.25.01-1.25c.553 0 1.24-.9 1.529-2 .287-1.1.192-2-.212-2-.403 0-.594-3.713-.422-8.25.17-4.537.36-8.25.422-8.25.06 0 .255-2.528.433-5.618.665-11.595 1.443-18.998 2.109-20.077.45-.727.229-.829-.635-.295-.968.598-1.15.359-.671-.885.359-.937.132-2.539-.506-3.56-.926-1.484-.823-2.193.516-3.532 1.918-1.918 2.118-3.142.66-4.043-.56-.346-.705-1.132-.325-1.747 1.079-1.747 1.292-13.743.29-16.377-.5-1.314-.513-2.366-.031-2.366 1.42 0 1.884-2.195 3.203-15.156 1.182-11.611 1.38-16.944.849-22.844-.124-1.375.068-10.722.426-20.771.435-12.172.299-18.931-.407-20.25-.85-1.587-.744-1.979.535-1.979.877 0 1.36-.378 1.075-.839-.285-.462-.6-4.062-.7-8-.1-3.939-.52-7.161-.932-7.161-.414 0-1.021-.698-1.35-1.552-.326-.854-.198-1.307.287-1.007.488.302.748-3.014.583-7.448-.163-4.396.11-8.244.608-8.552 1.298-.802 1.119-4.441-.217-4.441-.822 0-.817-.368.017-1.374 1.76-2.122 2.145-15.396.464-16.042-.747-.287-1.36-1.012-1.36-1.612 0-.599.403-.842.894-.538 1.27.785 1.983-3.237 1.408-7.934-.27-2.2-.558-5.166-.641-6.592-.12-2.052-.57-2.495-2.156-2.125-2.003.467-2.003.467-.004-1.126 1.1-.876 1.55-1.615 1-1.641-.55-.025-.325-.498.5-1.05 1.299-.868 1.249-1.15-.37-2.101-1.356-.797-1.535-1.306-.653-1.851 1.428-.882 2.298-17.014.918-17.014-.492 0-.895-.45-.895-1s.726-1 1.613-1c1.445 0 1.533-1.532.847-14.75-.42-8.112-.726-15.507-.68-16.433.047-.926-.547-2.209-1.321-2.851-1.19-.988-1.2-1.575-.057-3.817 2.672-5.248 3.523-21.348 2.255-42.649-.295-4.95-.6-9-.677-9s-.282-2.138-.454-4.75.116-4.75.64-4.75c.523 0 .692-.421.374-.936-.32-.515-.141-2.877.395-5.25.622-2.753.627-4.435.013-4.65-.528-.184-.662-.82-.296-1.41.365-.591.825-8.765 1.02-18.164.45-21.514.377-19.703.91-22.34.289-1.423 1.184-2.25 2.437-2.25 1.09 0 1.988-.562 1.996-1.25.01-.813.272-.886.75-.207.404.574 2.76.892 5.235.707s5.512-.365 6.75-.4c1.362-.037 2.28-.711 2.329-1.706.05-1.037.265-1.183.583-.394.557 1.38 4.929 1.72 5.718.444.538-.871 7.497-.944 9.125-.096 1.109.577 10.587.363 20.495-.462 7.589-.632 30.37-1.423 47.494-1.65 7.872-.104 12.249-.558 12.735-1.322.543-.854.744-.826.756.105.009.797.852 1.08 2.265.764 1.238-.278 7.2-.742 13.25-1.031 6.05-.29 12.419-.732 14.154-.984 4.233-.613 35.668-1.628 46.596-1.505 4.813.055 8.752-.264 8.754-.707.003-.443 5.515-.947 12.25-1.118 17.983-.46 29.65-1.094 47.246-2.571 7.948-.667 19.51-1.434 31-2.055 3.3-.178 6-.427 6-.553s6.975-.393 15.5-.592c8.525-.2 16.4-.39 17.5-.42 1.1-.031 4.687-.07 7.97-.087 3.284-.017 6.434-.4 7-.852.567-.451 2.24-.683 3.72-.514s3.226-.34 3.882-1.131c.905-1.09 1.524-1.163 2.561-.303 1.014.842 1.367.843 1.367.004 0-.8.595-.762 2.031.128 1.648 1.02 2.186 1.007 2.86-.076.681-1.094.93-1.075 1.382.103.532 1.386 3.432 1.583 30.227 2.055 7.428.13 31.801-1.394 32.843-2.055.636-.404 6.332-.835 12.657-.96 6.325-.123 12.625-.287 14-.362 2.391-.131 7.226-.074 11.5.137 18.408.909 53.699-1.255 54.408-3.336.279-.818.596-.73 1 .278.344.857 2.056 1.537 4.092 1.626" clip-rule="evenodd"/><path fill="#025354" d="M556.645 20.533c6.542.283 18.496.49 19.5.337 2.621-.4 9.174-.108 10.621.474.913.367 2.298-.025 3.17-.897.851-.851 1.697-1.132 1.879-.623s7.305 1.177 15.83 1.486 17.075.755 19 .992c3.625.446 26.98 1.783 37.5 2.147 3.3.114 6.225.27 6.5.347 2.498.697 22.14.668 22.573-.033a1.09 1.09 0 0 1 1.498-.338c.512.317 4.419.783 8.68 1.037 16.298.968 21.848 1.4 24.749 1.928 5.748 1.045 57.825 1.388 59.684.393 1.24-.664 1.816-.626 1.816.122 0 .602.513.777 1.14.39 1.28-.792 17.503-.753 18.793.045 1.701 1.05 13.409 1.502 14.545.56.714-.593 2.354-.641 4.167-.121 1.644.472 6.559.636 10.922.365s11.871-.527 16.683-.57c7.069-.061 8.75-.363 8.75-1.573 0-1.135.463-1 1.915.559 2.652 2.846 14.076 3.313 14.1.576.013-1.495.156-1.533.963-.255 1.44 2.28 30.881 2.978 63.022 1.492 17.81-.823 16.781-.815 26.5-.224 4.4.268 8.836.05 9.857-.483 1.245-.65 2.218-.61 2.95.122 1.902 1.902 5.827 1.295 6.425-.992.383-1.462.774-1.714 1.312-.843.933 1.508 14.461 1.354 20.451-.234 6.05-1.603 8.93-1.745 9.72-.481 1 1.599 13.38 1.424 64.28-.908 6.05-.277 11.45-.551 12-.61.55-.057 7.08.237 14.5.655 7.43.418 24.75.893 38.5 1.056s25 .388 25 .5c0 .258 4.85.598 20 1.405 16.12.857 19.82 1.193 22.51 2.047 1.25.398 14.03.895 28.39 1.105s28.58.566 31.6.79c10.98.814 34.02.327 35.78-.756.6-.37 1.37-.21 1.72.359.36.568 1.06.774 1.57.457.52-.316.93-.091.93.5 0 .59 1.24 1.069 2.75 1.062 2.7-.012 11.88.399 33.1 1.485 5.86.3 16.85.638 24.42.75 13.79.208 16.96 8.689 12.05 32.246-.35 1.65-.77 10.875-.95 20.5s-.55 26.05-.83 36.5c-.72 26.881-.74 27.886-.51 29 .12.55.1 1.225-.05 1.5-.14.275-.42 2.975-.62 6s-.63 8.65-.94 12.5c-.32 3.85-.65 10.938-.74 15.75-.1 4.813-.41 8.75-.71 8.75-.86 0-1.23 5.661-1.16 17.5.08 12.318-.01 26.126-.24 37.819-.08 4.3.1 7.976.41 8.169.32.193.41 7.249.21 15.681s-.23 19.831-.06 25.331c.31 10.345.27 13.445-.52 42-.56 20.545-1.28 32.162-2.06 33.424-.32.516-.11 1.225.45 1.576.57.351.7 1.17.3 1.819-1.91 3.053-3.02 40.085-2.17 72.027.21 7.615.12 14.003-.19 14.197-.54.328-1.32 9.13-1.12 12.457.59 9.501.24 23.895-.71 29.5-.65 3.85-.92 9.25-.6 12 1.03 8.8 1.17 13.5.38 13.5-.42 0-.76.787-.76 1.75.01.963-.24 3.1-.54 4.75-1.88 10.397-2.45 79.694-.7 86.032.58 2.133.74 4.124.34 4.424-.4.299-.84 1.444-.99 2.544-1.1 8.429-1.17 11.5-.26 11.5.56 0 1.02.675 1.02 1.5s-.67 1.5-1.5 1.5c-1.2 0-1.52 1.635-1.61 8.25-.2 13.832-.69 22.884-1.26 23.463-.31.302-.12 1.354.4 2.338.67 1.244.58 1.964-.28 2.368-.98.456-.97.71.05 1.178 1.05.488 1.05.882 0 2.154-1.32 1.591-2 17.249-.74 17.249.35 0 .57 2.025.49 4.5-.12 3.345.22 4.5 1.3 4.5.98 0 .69.671-.91 2.054-2.69 2.338-2.86 3.257-3.35 18.746-.19 6.215-.6 11.548-.9 11.853-.31.304-.15 1.631.35 2.95.5 1.318.54 2.397.09 2.397-1.3 0-2.45 14.882-2.64 34-.15 16.271-.52 23.269-2.11 40-.75 7.873-8.38 16.723-8.38 9.72 0-.514-.69-.668-1.53-.344-.88.336-1.79-.049-2.11-.893-.31-.816-1.39-1.483-2.4-1.483s-2.05-.342-2.31-.76c-1.17-1.902-30.67-2.298-32.9-.441-1.17.971-1.75 1.005-2.29.134-.48-.783-2.23-.939-5.34-.479-5.77.856-10.47 1.34-15.62 1.609-2.2.115-4.75.867-5.68 1.671s-2.17 1.166-2.75.805c-.59-.361-1.07-.068-1.08.652-.01 1.031-.18 1.043-.81.057-.99-1.556-22.09-.671-23.75.996-.34.34-1.25.376-2.02.08s-2.19-.196-3.16.222c-.96.418-5.95.9-11.1 1.07-5.14.17-9.91.772-10.59 1.338s-1.49.775-1.8.464c-.31-.31-2.19-.117-4.16.428-1.98.546-3.6.692-3.6.323s-2.03-.681-4.5-.695c-2.47-.015-4.5.21-4.5.5 0 .289-6.71.547-14.9.574-10.4.033-15.36.425-16.41 1.298-.83.688-1.74.877-2.02.42s-2.24-.742-4.34-.633c-2.1.11-9.23.494-15.83.853-6.6.36-20.4.737-30.67.839s-18.99.503-19.38.894-1.44.334-2.33-.126c-1.8-.932-31.84-.704-32.79.249-.33.332-1.02.346-1.53.032-2.23-1.378-26-1.03-27.43.401-1.15 1.156-1.71 1.185-2.95.159-1-.833-5.85-1.368-14.22-1.567-6.98-.166-13.82-.557-15.2-.87-2.35-.536-24.163-1.31-46.589-1.653-5.552-.085-10.583.148-11.181.517s-1.381.196-1.741-.386c-.797-1.29-15.46-1.059-17.19.27-.664.51-1.676.637-2.25.282s-1.044-.246-1.044.241-1.35.687-3 .445-3-1.036-3-1.764c0-.729-.787-1.352-1.75-1.386s-15.025-.281-31.25-.549c-36.974-.613-55.072-1.208-57-1.874-2.122-.733-24.987-1.845-41.248-2.005-7.562-.074-13.751-.36-13.754-.635s-3.789-.59-8.415-.701-10.701-.413-13.501-.674c-3.578-.332-5.512-.052-6.506.942-.779.778-1.564.986-1.746.462-.462-1.335-18.158-2.97-18.961-1.753-.393.597-2.028.496-4.335-.265-4.191-1.383-5.25-1.503-22.534-2.562-13.51-.828-14.691-.845-32.158-.469-6.412.139-12.143-.048-12.735-.414-1.472-.91-11.09-.402-11.721.618-.279.452-1.413.337-2.521-.256-1.693-.906-2.103-.734-2.578 1.082-.374 1.43-.812 1.758-1.299.971-.555-.898-1.252-.91-2.861-.049-1.656.886-2.13.854-2.142-.147-.012-1.009-.197-.998-.862.05-.652 1.028-.961.893-1.349-.593-.422-1.613-1.545-1.968-6.889-2.177-10.366-.407-35.193-.473-52.543-.142-8.887.17-16.542.071-17.012-.219-.702-.434-17.496-.682-47.33-.699-7.474-.005-9.018.072-22 1.094-9.779.77-42.003 1.81-64 2.067-1.375.016-4.494-.247-6.931-.584-3.058-.423-4.681-.22-5.235.653-.637 1.002-.807.989-.819-.063-.012-1.056-2.22-1.215-10.765-.775-16.194.835-37.243.567-37.248-.473-.001-.317-3.489-.643-7.752-.725-21.602-.414-39.535-1.151-40.03-1.645-1.017-1.018-3.061-.57-4.649 1.017-.965.966-1.571 1.122-1.571.406 0-.862-3.653-1.011-13.964-.57-8.587.366-16.769.158-21.25-.541-9.702-1.514-68.333-2.553-77.286-1.37-6.232.824-14.354.667-19.92-.385-6.523-1.232-4.146-1.111-33.08-1.678-13.75-.269-27.453-.589-30.452-.711-2.998-.122-6.526.335-7.839 1.015-1.725.894-2.935.945-4.357.184-1.105-.592-3.37-.744-5.161-.347-4.255.942-16.544 1.135-17.925.281-.605-.373-2.15-.28-3.433.208-1.566.596-2.333.527-2.333-.21q0-1.098-1.5.147c-1.171.972-1.818.981-2.95.042-.797-.662-2.941-1.075-4.764-.918s-3.928-.093-4.677-.556c-2.475-1.53-18.135-1.134-19.2.486-2.877 4.378-5.811-5.76-6.381-22.054-.348-9.942-.387-10.205-1.411-9.573-.992.614-.77-5.107.237-6.114 1.065-1.065.73-4.118-.497-4.527-.85-.283-.835-.959.055-2.622.668-1.248.884-3.218.488-4.452-.392-1.216-.673-4.237-.626-6.712s-.296-5.963-.763-7.75c-.468-1.787-.55-3.25-.18-3.25.368 0 .575-1.687.46-3.75-.56-10.092-1.411-20.555-2.296-28.25-.538-4.675-.911-9.175-.83-10 .554-5.56-.205-9.211-1.663-8.001-1.331 1.104-1.332.771-.01-2.978 1.128-3.196 1.374-7.173 1.013-16.371-.576-14.679-.69-15.65-1.826-15.65-.491 0-.56-.787-.151-1.75.98-2.312.716-6.251-.52-7.741-.545-.656-.767-1.417-.493-1.69.273-.274.484-4.057.469-8.408a1437 1437 0 0 1 .015-13.411c.056-7.137.05-7.358-.341-15-.183-3.575-.406-8.214-.495-10.309-.09-2.095-.527-3.584-.973-3.308-.445.275-.666-4.678-.49-11.007.21-7.571-.025-11.293-.69-10.882-.555.343-1.01.196-1.01-.328s.675-1.211 1.5-1.528c1.697-.651 2.029-4.193.484-5.148-.56-.346-.76-1.046-.443-1.556 1.016-1.645 1.746-13.934.828-13.934-.49 0-.928-3.713-.975-8.25-.163-15.614-.306-42.254-.241-44.75.144-5.515-1.181-28.237-1.695-29.069-.303-.489-.06-1.809.543-2.932 1.436-2.684 2.045-21.127.75-22.749q-.995-1.25.01-1.25c.553 0 1.24-.9 1.529-2 .287-1.1.192-2-.212-2-.403 0-.594-3.713-.422-8.25.17-4.537.36-8.25.422-8.25.06 0 .255-2.528.433-5.618.665-11.595 1.443-18.998 2.109-20.077.45-.727.229-.829-.635-.295-.968.598-1.15.359-.671-.885.359-.937.132-2.539-.506-3.56-.926-1.484-.823-2.193.516-3.532 1.918-1.918 2.118-3.142.66-4.043-.56-.346-.705-1.132-.325-1.747 1.079-1.747 1.292-13.743.29-16.377-.5-1.314-.513-2.366-.031-2.366 1.42 0 1.884-2.195 3.203-15.156 1.182-11.611 1.38-16.944.849-22.844-.124-1.375.068-10.722.426-20.771.435-12.172.299-18.931-.407-20.25-.85-1.587-.744-1.979.535-1.979.877 0 1.36-.378 1.075-.839-.285-.462-.6-4.062-.7-8-.1-3.939-.52-7.161-.932-7.161-.414 0-1.021-.698-1.35-1.552-.326-.854-.198-1.307.287-1.007.488.302.748-3.014.583-7.448-.163-4.396.11-8.244.608-8.552 1.298-.802 1.119-4.441-.217-4.441-.822 0-.817-.368.017-1.374 1.76-2.122 2.145-15.396.464-16.042-.747-.287-1.36-1.012-1.36-1.612 0-.599.403-.842.894-.538 1.27.785 1.983-3.237 1.408-7.934-.27-2.2-.558-5.166-.641-6.592-.12-2.052-.57-2.495-2.156-2.125-2.003.467-2.003.467-.004-1.126 1.1-.876 1.55-1.615 1-1.641-.55-.025-.325-.498.5-1.05 1.299-.868 1.249-1.15-.37-2.101-1.356-.797-1.535-1.306-.653-1.851 1.428-.882 2.298-17.014.918-17.014-.492 0-.895-.45-.895-1s.726-1 1.613-1c1.445 0 1.533-1.532.847-14.75-.42-8.112-.726-15.507-.68-16.433.047-.926-.547-2.209-1.321-2.851-1.19-.988-1.2-1.575-.057-3.817 2.672-5.248 3.523-21.348 2.255-42.649-.295-4.95-.6-9-.677-9s-.282-2.138-.454-4.75.116-4.75.64-4.75c.523 0 .692-.421.374-.936-.32-.515-.141-2.877.395-5.25.622-2.753.627-4.435.013-4.65-.528-.184-.662-.82-.296-1.41.365-.591.825-8.765 1.02-18.164.45-21.514.377-19.703.91-22.34.289-1.423 1.184-2.25 2.437-2.25 1.09 0 1.988-.562 1.996-1.25.01-.813.272-.886.75-.207.404.574 2.76.892 5.235.707s5.512-.365 6.75-.4c1.362-.037 2.28-.711 2.329-1.706.05-1.037.265-1.183.583-.394.557 1.38 4.929 1.72 5.718.444.538-.871 7.497-.944 9.125-.096 1.109.577 10.587.363 20.495-.462 7.589-.632 30.37-1.423 47.494-1.65 7.872-.104 12.249-.558 12.735-1.322.543-.854.744-.826.756.105.009.797.852 1.08 2.265.764 1.238-.278 7.2-.742 13.25-1.031 6.05-.29 12.419-.732 14.154-.984 4.233-.613 35.668-1.628 46.596-1.505 4.813.055 8.752-.264 8.754-.707.003-.443 5.515-.947 12.25-1.118 17.983-.46 29.65-1.094 47.246-2.571 7.948-.667 19.51-1.434 31-2.055 3.3-.178 6-.427 6-.553s6.975-.393 15.5-.592c8.525-.2 16.4-.39 17.5-.42 1.1-.031 4.687-.07 7.97-.087 3.284-.017 6.434-.4 7-.852.567-.451 2.24-.683 3.72-.514s3.226-.34 3.882-1.131c.905-1.09 1.524-1.163 2.561-.303 1.014.842 1.367.843 1.367.004 0-.8.595-.762 2.031.128 1.648 1.02 2.186 1.007 2.86-.076.681-1.094.93-1.075 1.382.103.532 1.386 3.432 1.583 30.227 2.055 7.428.13 31.801-1.394 32.843-2.055.636-.404 6.332-.835 12.657-.96 6.325-.123 12.625-.287 14-.362 2.391-.131 7.226-.074 11.5.137 18.408.909 53.699-1.255 54.408-3.336.279-.818.596-.73 1 .278.344.857 2.056 1.537 4.092 1.626"/></svg>