<svg width="807" height="750" viewBox="0 0 807 750" fill="none" xmlns="http://www.w3.org/2000/svg">
<path fill-rule="evenodd" clip-rule="evenodd" d="M772.906 2.15311C770.49 4.23211 769.643 4.3891 764.6 3.6931C761.512 3.2671 720.06 2.89611 672.485 2.86811C624.91 2.84011 581.71 2.56011 576.485 2.24511C560.871 1.30711 391.306 0.988108 344.985 1.81011C257.565 3.36111 229.841 3.94711 223.985 4.36711C210.669 5.32011 144.179 6.8701 99.2476 7.2751C72.9926 7.5111 51.0436 7.99311 50.4736 8.34611C49.9026 8.69911 42.3586 9.10611 33.7096 9.25111C16.8056 9.53511 12.8436 10.5251 10.2966 15.0991C9.3906 16.7271 9.0076 25.3971 8.8936 46.8391C8.8076 63.0641 8.2486 81.0641 7.6506 86.8391C6.3176 99.7171 6.2356 108.41 7.0566 149.839C7.6366 179.143 7.49059 184.151 5.57459 200.766C3.8916 215.353 3.4606 224.833 3.5036 246.266C3.5556 272.195 2.4726 294.925 0.522597 308.839C0.021597 312.414 -0.1494 329.964 0.1426 347.839C0.4346 365.714 0.820597 403.064 1.0016 430.839C1.1826 458.614 1.5566 483.364 1.8336 485.839C4.7276 511.669 4.9166 529.399 2.8616 582.339C2.3836 594.641 2.6416 601.459 3.9756 611.839C4.9306 619.264 6.0766 633.889 6.5236 644.339C7.6096 669.789 9.2216 692.737 10.5466 701.629C11.9656 711.149 11.0026 728.609 8.9326 730.897C8.0596 731.861 7.2156 735.202 6.9566 738.719C6.5816 743.812 6.8296 745.184 8.4126 746.767C11.2196 749.574 19.3516 750.228 39.9176 749.301C49.8546 748.854 63.6696 748.587 70.6176 748.709C78.3316 748.844 87.0176 748.324 92.9266 747.374C99.1286 746.376 108.594 745.847 119.294 745.901C128.474 745.948 142.735 745.46 150.985 744.817C159.235 744.174 175.21 743.49 186.485 743.297C197.76 743.103 219.585 742.47 234.985 741.89C250.385 741.309 287.214 740.612 316.826 740.339C346.439 740.067 376.814 739.396 384.326 738.847C401.882 737.567 463.694 737.116 486.985 738.099C496.885 738.516 512.635 739.075 521.985 739.339C611.263 741.866 632.723 742.755 652.985 744.761C689.417 748.369 757.234 745.69 788.072 739.425C804.098 736.169 807.211 733.575 802.413 727.474L800.341 724.84L802.519 719.09C805.234 711.921 806.21 698.82 805.332 681.339C804.973 674.189 804.363 660.464 803.977 650.839C803.591 641.214 803.151 631.089 802.999 628.339C802.847 625.589 802.394 606.014 801.991 584.839C801.404 553.948 801.59 540.706 802.933 517.839C803.981 499.999 804.748 469.141 804.983 435.339C805.189 405.639 805.724 360.189 806.172 334.339C807.896 234.679 806.744 145.392 803.424 121.339C802.529 114.854 800.963 97.6491 798.465 66.8391C797.059 49.5001 795.668 39.2861 793.836 32.8391C792.976 29.8141 792.074 26.2561 791.831 24.9321C790.719 18.8731 784.927 6.10411 781.923 3.08911C778.078 -0.769893 776.495 -0.93389 772.906 2.15311ZM770.904 25.0891C772.059 30.7721 773.148 49.9681 773.981 79.3391C774.438 95.4601 775.94 119.275 777.008 127.339C778.269 136.86 778.985 169.986 778.985 218.839C778.985 271.651 777.752 351.597 776.917 352.949C776.702 353.297 776.451 382.327 776.359 417.46C776.231 466.065 775.747 488.871 774.333 512.839C772.841 538.117 772.596 551.45 773.091 580.339C773.43 600.139 773.84 617.464 774.002 618.839C774.165 620.214 774.588 628.989 774.944 638.339C776.087 668.42 779.354 708.943 780.962 712.981C781.547 714.45 779.958 714.67 765.8 715.079C735.424 715.956 664.908 715.805 655.485 714.843C639.889 713.252 619.216 711.987 597.985 711.327C586.985 710.984 575.06 710.503 571.485 710.256C559.951 709.461 467.788 707.591 440.985 707.608C413.592 707.625 383.74 708.563 382.302 709.452C381.833 709.742 351.805 710.396 315.574 710.905C279.343 711.415 242.338 712.304 233.342 712.882C224.346 713.46 206.635 714.145 193.985 714.405C181.335 714.665 162.21 715.591 151.485 716.462C140.76 717.333 125.598 717.99 117.792 717.92C107.451 717.828 100.552 718.343 92.3666 719.816C86.1896 720.929 76.8796 721.839 71.6786 721.839C66.4786 721.839 57.8946 722.486 52.6036 723.277C47.3136 724.067 39.7226 724.907 35.7346 725.143L28.4846 725.572L28.4666 720.955C28.4566 718.416 27.7886 702.614 26.9826 685.839C26.1756 669.064 25.2636 649.489 24.9546 642.339C24.6466 635.189 23.6876 621.014 22.8236 610.839C21.3536 593.528 21.5106 567.875 23.1486 557.577C24.0846 551.692 23.6116 501.588 22.4896 487.839C21.8846 480.414 21.4586 467.139 21.5436 458.339C21.6286 449.539 21.8536 411.064 22.0436 372.839C22.2336 334.614 22.7486 296.206 23.1866 287.488C23.6256 278.77 23.5916 260.77 23.1116 247.488C22.5176 231.062 22.6046 217.582 23.3806 205.339C25.3146 174.869 25.4916 145.896 23.8406 130.339C22.6916 119.524 22.5356 111.562 23.1536 95.3391C23.5946 83.7891 23.8696 63.7161 23.7666 50.7321L23.5786 27.1251L31.2816 26.3881C42.1586 25.3471 54.4736 25.6401 81.4846 27.5801C100.267 28.9291 117.55 29.2361 167.574 29.1091C201.999 29.0221 233.827 28.7211 238.304 28.4411C242.781 28.1611 272.216 27.6781 303.715 27.3681C335.213 27.0581 367.221 26.5861 374.843 26.3191C391.053 25.7521 506.183 25.7431 514.985 26.3071C521.691 26.7381 564.179 27.5361 629.485 28.4581C678.622 29.1521 729.456 27.6851 752.985 24.8951C761.235 23.9161 768.539 23.0541 769.216 22.9771C769.893 22.9011 770.653 23.8521 770.904 25.0891Z" fill="#025354"/>
</svg>
