<svg width="807" height="750" viewBox="0 0 807 750" fill="none" xmlns="http://www.w3.org/2000/svg">
<path fill-rule="evenodd" clip-rule="evenodd" d="M772.906 2.15311C770.49 4.23211 769.643 4.3891 764.6 3.6931C761.512 3.2671 720.06 2.89611 672.485 2.86811C624.91 2.84011 581.71 2.56011 576.485 2.24511C560.871 1.30711 391.306 0.988108 344.985 1.81011C257.565 3.36111 229.841 3.94711 223.985 4.36711C210.669 5.32011 144.179 6.8701 99.2476 7.2751C72.9926 7.5111 51.0436 7.99311 50.4736 8.34611C49.9026 8.69911 42.3586 9.10611 33.7096 9.25111C16.8056 9.53511 12.8436 10.5251 10.2966 15.0991C9.3906 16.7271 9.0076 25.3971 8.8936 46.8391C8.8076 63.0641 8.2486 81.0641 7.6506 86.8391C6.3176 99.7171 6.2356 108.41 7.0566 149.839C7.6366 179.143 7.49059 184.151 5.57459 200.766C3.8916 215.353 3.4606 224.833 3.5036 246.266C3.5556 272.195 2.4726 294.925 0.522597 308.839C0.021597 312.414 -0.1494 329.964 0.1426 347.839C0.4346 365.714 0.820597 403.064 1.0016 430.839C1.1826 458.614 1.5566 483.364 1.8336 485.839C4.7276 511.669 4.9166 529.399 2.8616 582.339C2.3836 594.641 2.6416 601.459 3.9756 611.839C4.9306 619.264 6.0766 633.889 6.5236 644.339C7.6096 669.789 9.2216 692.737 10.5466 701.629C11.9656 711.149 11.0026 728.609 8.9326 730.897C8.0596 731.861 7.2156 735.202 6.9566 738.719C6.5816 743.812 6.8296 745.184 8.4126 746.767C11.2196 749.574 19.3516 750.228 39.9176 749.301C49.8546 748.854 63.6696 748.587 70.6176 748.709C78.3316 748.844 87.0176 748.324 92.9266 747.374C99.1286 746.376 108.594 745.847 119.294 745.901C128.474 745.948 142.735 745.46 150.985 744.817C159.235 744.174 175.21 743.49 186.485 743.297C197.76 743.103 219.585 742.47 234.985 741.89C250.385 741.309 287.214 740.612 316.826 740.339C346.439 740.067 376.814 739.396 384.326 738.847C401.882 737.567 463.694 737.116 486.985 738.099C496.885 738.516 512.635 739.075 521.985 739.339C611.263 741.866 632.723 742.755 652.985 744.761C689.417 748.369 757.234 745.69 788.072 739.425C804.098 736.169 807.211 733.575 802.413 727.474L800.341 724.84L802.519 719.09C805.234 711.921 806.21 698.82 805.332 681.339C804.973 674.189 804.363 660.464 803.977 650.839C803.591 641.214 803.151 631.089 802.999 628.339C802.847 625.589 802.394 606.014 801.991 584.839C801.404 553.948 801.59 540.706 802.933 517.839C803.981 499.999 804.748 469.141 804.983 435.339C805.189 405.639 805.724 360.189 806.172 334.339C807.896 234.679 806.744 145.392 803.424 121.339C802.529 114.854 800.963 97.6491 798.465 66.8391C797.059 49.5001 795.668 39.2861 793.836 32.8391C792.976 29.8141 792.074 26.2561 791.831 24.9321C790.719 18.8731 784.927 6.10411 781.923 3.08911C778.078 -0.769893 776.495 -0.93389 772.906 2.15311Z" fill="black"/>
</svg>
