<svg width="998" height="1025" viewBox="0 0 998 1025" fill="none" xmlns="http://www.w3.org/2000/svg" preserveAspectRatio="none" >
<path fill-rule="evenodd" clip-rule="evenodd" d="M367.703 0.564476C367.593 0.663476 357.829 1.02614 346.004 1.37014C334.179 1.71414 320.229 2.20115 315.004 2.45315C300.37 3.15615 280.561 3.84143 257.504 4.44143C245.954 4.74143 234.704 5.20614 232.504 5.47414C230.304 5.74214 216.129 6.40812 201.004 6.95412C185.879 7.50112 170.804 8.15618 167.504 8.41018C164.204 8.66518 154.529 9.12418 146.004 9.43118C130.026 10.0072 120.278 10.4283 97.0035 11.5493C89.5785 11.9073 80.8035 12.3303 77.5035 12.4883C70.7725 12.8123 40.5956 13.9802 37.5036 14.0362C36.4036 14.0562 30.3286 14.5821 24.0036 15.2051C17.6786 15.8271 11.8866 16.2173 11.1326 16.0713C4.30258 14.7493 2.97257 21.4902 2.57557 59.4492C2.40257 75.9492 2.00659 90.4504 1.69459 91.6724C-0.313409 99.5574 1.47952 156.629 4.62452 184.949C7.23352 208.441 7.22549 212.181 4.51649 233.449C3.64249 240.319 2.89851 259.611 2.53651 284.832C2.21751 307.043 1.74057 325.565 1.47657 325.993C1.21157 326.421 1.00358 338.174 1.01258 352.11C1.02158 366.046 0.970547 378.799 0.899547 380.449C0.827547 382.099 0.771547 386.374 0.774547 389.949C0.777547 393.524 0.76557 397.124 0.74757 397.949C0.18157 424.72 0.833543 499.958 1.79554 518.949C2.50654 532.974 3.25859 550.749 3.46559 558.449C3.67259 566.149 4.12557 579.649 4.47157 588.449C6.35357 636.354 6.9275 663.958 7.4745 732.949C7.7555 768.424 7.99257 809.824 8.00257 824.949C8.01157 840.074 8.50359 857.963 9.09559 864.702C9.68859 871.441 10.3026 889.891 10.4596 905.702C10.6176 921.513 11.2746 938.724 11.9196 943.949C12.5646 949.174 12.9705 961.108 12.8225 970.47C12.4065 996.6 12.2896 996.499 44.1996 997.497C76.4476 998.505 86.5416 998.715 138.504 999.448C165.454 999.829 195.604 1000.57 205.504 1001.1C215.404 1001.62 227.363 1002.25 232.08 1002.49C243.005 1003.03 252.521 1003.82 262.004 1004.96C266.129 1005.46 273.779 1006.15 279.004 1006.5C284.229 1006.84 289.629 1007.32 291.004 1007.55C292.379 1007.78 300.029 1008.64 308.004 1009.45C328.396 1011.54 330.4 1011.75 340.504 1012.86C345.454 1013.4 352.654 1014.07 356.504 1014.36C360.354 1014.64 365.754 1015.11 368.504 1015.4C378.86 1016.51 382.814 1016.89 394.004 1017.87C418.138 1019.99 432.802 1021.12 441.004 1021.49C463.933 1022.55 473.047 1023.01 479.004 1023.45C494.097 1024.55 542.502 1024.91 553.542 1024C560.121 1023.46 570.58 1022.78 576.784 1022.5C587.694 1022.01 598.919 1020.91 613.504 1018.93C617.354 1018.41 626.129 1017.73 633.004 1017.42C639.879 1017.12 648.204 1016.44 651.504 1015.92C662.982 1014.1 712.727 1012.91 740.004 1013.8C754.579 1014.28 787.204 1014.49 812.504 1014.28C879.701 1013.71 892.808 1013.74 910.004 1014.51C918.529 1014.9 934.279 1015.34 945.004 1015.49C955.729 1015.65 967.139 1016.01 970.36 1016.31C973.582 1016.6 979.207 1016.39 982.86 1015.84C986.514 1015.29 991.424 1014.59 993.771 1014.29C998.447 1013.69 998.64 1011.98 996 994.449C995.503 991.149 994.861 986.874 994.574 984.949C994.287 983.024 993.776 977.399 993.439 972.449C993.102 967.499 992.421 960.299 991.926 956.449C988.632 930.825 987.985 922.052 987.768 899.949C987.545 877.187 988.614 835.337 989.594 828.449C990.83 819.768 991.014 621.948 989.786 621.934C988.778 621.922 988.769 621.751 989.745 621.131C990.482 620.663 991.029 617.93 991.093 614.396C991.273 604.531 989.469 514.069 988.453 481.949C988.165 472.874 987.964 464.774 988.004 463.949C988.078 462.458 989.18 359.747 989.511 323.449C989.734 299.077 989.864 288.435 990.001 283.449C990.826 253.443 990.484 185.233 989.458 174.949C988.772 168.074 988.239 155.699 988.273 147.449C988.308 139.199 987.746 126.013 987.027 118.146C986.161 108.681 985.991 100.393 986.522 93.646C987.351 83.112 987.375 78.9032 986.784 48.4492C986.418 29.6002 985.149 24.1892 981.429 25.6162C980.549 25.9542 980.004 25.5294 980.004 24.5054C980.004 20.1014 959.335 18.2972 945.004 21.4492C937.54 23.0912 930.258 23.2903 924.504 22.0103C922.304 21.5213 917.129 20.8354 913.004 20.4854C908.879 20.1364 899.879 19.2473 893.004 18.5093C886.129 17.7713 879.604 17.1912 878.504 17.2202C877.404 17.2482 869.754 16.5481 861.504 15.6631C836.249 12.9551 825.898 12.508 824.9 14.083C824.328 14.986 824.028 15.0463 824.018 14.2603C823.991 12.1623 790.724 10.4061 753.504 10.5391C729.75 10.6241 720.847 10.6291 713.004 10.5611C695.681 10.4121 669.233 11.3422 667.004 12.1782C664.411 13.1512 649.861 13.3524 642.004 12.5244C639.529 12.2634 632.329 11.7693 626.004 11.4253C619.679 11.0823 612.254 10.6351 609.504 10.4331C606.754 10.2311 598.879 9.79726 592.004 9.46926C576.394 8.72326 569.409 8.24612 555.504 6.97512C540.982 5.64812 531.921 5.02634 518.004 4.40334C511.679 4.11934 502.454 3.6461 497.504 3.3511C492.554 3.0561 483.779 2.66303 478.004 2.47903C472.229 2.29503 459.854 1.84742 450.504 1.48342C435.013 0.882422 368.173 0.140476 367.703 0.564476Z" fill="#025354"/>
</svg>
