<svg width="1005" height="1000" viewBox="0 0 1005 1000" fill="none" xmlns="http://www.w3.org/2000/svg">
<path fill-rule="evenodd" clip-rule="evenodd" d="M358.542 0.174615C358.291 0.426615 352.255 0.696612 345.129 0.775612C335.708 0.879612 331.102 1.36161 328.25 2.54461C325.578 3.65161 324.209 3.81961 323.959 3.06861C323.51 1.72261 287.1 2.21761 283.412 3.61961C281.946 4.17761 280.453 4.17062 279.59 3.60362C278.81 3.09162 276.148 2.90561 273.673 3.19061C269.539 3.66561 259.69 4.49962 250.423 5.15962C248.361 5.30662 246.673 5.14461 246.673 4.79861C246.673 4.12861 235.147 4.32361 225.2 5.16361C221.885 5.44361 209.286 5.95461 197.203 6.29961C185.119 6.64561 174.319 7.27061 173.203 7.69061C172.086 8.10961 169.764 8.2426 168.041 7.9856C166.319 7.7286 164.616 7.99461 164.256 8.57661C163.85 9.23361 162.764 9.31661 161.388 8.79461C160.17 8.33361 157.373 8.11861 155.173 8.31761C152.973 8.51561 144.198 8.90561 135.673 9.18261C127.148 9.45961 117.923 9.85661 115.173 10.0656C112.423 10.2746 101.848 10.7816 91.6727 11.1916C81.4977 11.6026 72.4738 12.3056 71.6188 12.7546C70.7638 13.2036 69.4617 13.1976 68.7237 12.7416C67.2447 11.8286 45.4727 12.5956 44.6727 13.5896C43.8757 14.5786 35.6727 14.4786 35.6727 13.4796C35.6727 12.9826 34.8057 12.8506 33.7457 13.1876C31.7497 13.8206 21.6058 14.7706 13.5508 15.0766C2.68675 15.4906 2.41274 16.8566 2.77974 68.7106C2.81274 73.3856 2.51874 81.2606 2.12674 86.2106C0.863743 102.145 0.790745 110.063 1.88774 112.113C2.66774 113.571 2.64674 114.22 1.80974 114.499C1.17774 114.709 0.924745 115.309 1.24775 115.832C1.57075 116.355 1.96575 128.129 2.12575 141.997C2.37475 163.638 4.27876 188.978 6.16076 195.711C7.19676 199.412 6.73875 213.266 5.20275 224.711C4.14575 232.588 3.39475 246.456 3.17075 262.211C2.97475 275.961 2.55275 291.658 2.23175 297.094C1.85175 303.546 2.02476 307.43 2.72976 308.28C3.50876 309.219 3.48074 310.202 2.62674 311.797C1.92374 313.11 1.68175 315.762 2.03275 318.317C2.35875 320.702 2.19075 322.891 1.65575 323.221C0.41075 323.991 0.664756 371.769 1.92376 373.417C2.43076 374.081 2.49975 375.182 2.07775 375.864C1.65575 376.547 1.18475 379.571 1.03075 382.586C0.87675 385.6 0.527749 388.647 0.254749 389.357C-0.0172508 390.066 0.205751 390.923 0.750751 391.259C1.90975 391.975 1.55675 400.709 0.369755 400.71C-0.479245 400.711 0.284749 497.274 1.14475 498.665C1.42075 499.112 1.90475 507.742 2.22075 517.844C2.53675 527.946 2.97176 538.236 3.18676 540.711C3.40276 543.186 3.51974 546.786 3.44774 548.711C2.88074 563.873 4.46975 577.919 6.99375 580.054C8.64175 581.448 8.74874 581.761 7.43274 581.339C5.29274 580.653 4.10875 584.389 5.17675 588.461C5.57375 589.974 6.04674 598.186 6.22774 606.711C6.40874 615.236 6.61875 623.336 6.69475 624.711C6.77075 626.086 6.51975 628.223 6.13675 629.461C5.75275 630.698 5.82974 631.711 6.30574 631.71C6.78274 631.71 7.11375 635.535 7.04175 640.21C6.96275 645.317 7.31175 648.711 7.91475 648.711C8.57575 648.711 8.58175 649.136 7.93175 649.961C6.62775 651.614 7.05076 656.004 8.56176 656.507C9.30576 656.755 9.41775 657.34 8.85875 658.058C7.13275 660.275 6.90576 663.599 8.33976 665.646C9.25576 666.954 9.37975 667.711 8.67775 667.711C7.98875 667.711 7.59275 669.883 7.63175 673.461C7.66575 676.624 7.71475 681.652 7.74175 684.636C7.76775 687.62 7.81675 690.32 7.84975 690.636C7.88275 690.952 7.82674 691.436 7.72574 691.711C7.31574 692.826 8.18676 793.359 8.61776 794.711C8.70576 794.986 8.76675 807.586 8.75275 822.711C8.73875 837.836 9.15074 854.936 9.66774 860.711C10.1847 866.486 10.6907 874.495 10.7927 878.509C10.9367 884.165 11.2817 885.691 12.3257 885.291C13.0667 885.006 13.6727 885.162 13.6727 885.635C13.6727 886.109 13.0477 886.737 12.2837 887.03C10.8167 887.593 10.6998 909.069 12.1388 913.604C12.5338 914.848 12.3707 915.711 11.7397 915.711C10.3677 915.711 10.3968 923.841 11.7898 929.711C13.5568 937.149 14.6537 979.315 13.1447 981.757C7.86575 990.298 62.2117 999.915 75.5177 992.794C76.8337 992.09 77.7668 992.053 78.1608 992.691C78.6898 993.548 157.579 993.329 187.673 992.388C192.348 992.241 196.992 992.512 197.994 992.99C199.038 993.487 200.957 993.467 202.494 992.943C203.967 992.44 206.363 992.356 207.817 992.755C209.271 993.155 212.308 993.143 214.567 992.73C216.825 992.317 218.673 992.352 218.673 992.806C218.673 993.261 221.864 993.535 225.764 993.414C229.664 993.294 233.065 993.536 233.323 993.953C234.024 995.089 241.515 994.866 243.803 993.642C245.108 992.943 246.212 992.91 246.987 993.546C247.639 994.082 253.113 994.842 259.151 995.234C265.189 995.627 273.739 996.277 278.151 996.678C282.997 997.118 286.668 997.023 287.423 996.437C288.249 995.795 288.673 995.829 288.673 996.536C288.673 997.18 291.049 997.595 294.638 997.578C297.919 997.562 301.057 997.83 301.611 998.173C303.653 999.435 347.509 1000.51 362.173 999.656C380.306 998.602 553.212 998.118 613.173 998.954C637.892 999.299 658.511 999.162 661.673 998.632C664.698 998.126 670.998 997.462 675.673 997.157C680.348 996.852 684.848 996.414 685.673 996.185C689.166 995.212 722.481 994.432 752.724 994.616C772.783 994.737 786.296 994.424 787.938 993.8C789.736 993.117 790.806 993.117 791.228 993.8C791.629 994.449 796.585 994.606 805.013 994.238C812.251 993.922 824.023 993.479 831.173 993.253C848.211 992.716 847.716 992.758 849.772 991.658C850.887 991.061 851.77 991.058 852.136 991.65C852.466 992.185 855.856 992.363 859.946 992.059C863.921 991.764 868.79 991.453 870.767 991.367C872.743 991.281 875.14 990.565 876.093 989.775C877.545 988.572 877.961 988.56 878.667 989.701C879.29 990.71 882.829 991.134 892.341 991.338C919.228 991.915 943.614 991.961 955.173 991.458C961.773 991.17 969.807 991.251 973.026 991.637C977.504 992.174 979 992.024 979.394 990.996C979.798 989.942 980.172 990.011 981.126 991.316C982.21 992.798 983.096 992.849 989.258 991.782C993.061 991.124 998.139 990.339 1000.54 990.038C1005.56 989.409 1005.68 986.474 1001.53 964.211C1000.4 958.161 999.332 949.386 999.154 944.711C998.864 937.119 996.829 921.445 995.259 914.711C993.713 908.084 992.975 846.129 994.162 822.711C995.321 799.86 995.339 793.238 994.248 791.43C993.451 790.11 993.503 789.444 994.451 788.854C995.778 788.028 995.908 679.835 994.584 678.711C994.26 678.436 994.305 671.269 994.683 662.785C995.212 650.931 995.068 646.774 994.063 644.837C993.147 643.071 993.067 641.941 993.795 641.064C994.367 640.374 994.767 637.201 994.683 634.011C994.599 630.821 994.45 623.824 994.352 618.461C994.253 613.099 993.78 608.711 993.301 608.711C992.821 608.711 992.952 608.08 993.592 607.308C994.486 606.231 994.457 605.785 993.465 605.384C992.574 605.025 992.505 604.607 993.243 604.037C995.056 602.637 995.089 552.579 993.283 543.915C992.317 539.283 992.092 535.737 992.642 533.819C993.109 532.192 993.283 530.655 993.03 530.402C992.778 530.149 992.367 518.527 992.118 504.576C991.87 490.625 991.496 476.511 991.289 473.211C991.081 469.911 990.858 465.925 990.792 464.354C990.704 462.251 990.277 461.649 989.173 462.073C987.09 462.872 987.3 461.849 989.624 459.871C991.428 458.337 991.469 457.912 990.171 454.256C989.224 451.587 989.092 449.911 989.766 449.099C990.962 447.658 991.395 439.689 990.368 438.026C989.968 437.379 990.105 436.562 990.673 436.211C991.241 435.86 991.459 435.174 991.158 434.686C990.856 434.199 990.67 424.667 990.744 413.505C991.021 371.713 990.56 351.955 989.258 349.849C988.918 349.299 989.008 348.622 989.457 348.344C990.689 347.583 990.834 340.667 989.701 336.765C988.96 334.214 989.036 332.785 989.993 331.265C991.586 328.735 991.231 311.674 989.565 310.644C988.766 310.151 988.779 309.763 989.611 309.249C990.883 308.463 990.685 298.712 989.397 298.711C988.971 298.711 989.25 297.474 990.018 295.961C991.37 293.298 991.429 289.3 990.28 278.211C989.995 275.461 989.742 272.368 989.717 271.339C989.681 269.789 989.415 269.681 988.173 270.711C987.348 271.396 986.68 271.563 986.688 271.083C986.713 269.68 988.051 268.11 989.757 267.483C991.648 266.788 992.361 248.866 990.626 245.624C989.943 244.347 989.938 243.711 990.612 243.711C991.269 243.711 991.465 237.694 991.174 226.461C990.928 216.973 990.573 199.311 990.386 187.211C990.199 175.111 989.732 164.086 989.349 162.711C988.966 161.336 988.581 152.899 988.494 143.961C988.408 135.024 988.01 127.711 987.611 127.711C987.212 127.711 986.861 125.798 986.831 123.461C986.687 112.395 986.372 108.643 985.541 108.13C985.046 107.823 984.958 107.059 985.346 106.431C986.364 104.783 985.686 86.2736 984.592 85.8776C983.076 85.3276 983.556 82.7106 985.173 82.7106C985.998 82.7106 986.717 81.9226 986.771 80.9606C987.364 70.4216 987.173 64.6236 986.132 61.6386C985.372 59.4586 985.051 54.9796 985.307 50.1386C985.905 38.8436 985.712 34.2596 984.623 33.8776C984.1 33.6936 983.673 33.1046 983.673 32.5686C983.673 32.0316 984.081 31.8446 984.58 32.1526C985.079 32.4616 985.003 31.1376 984.412 29.2116C983.821 27.2866 982.883 25.7106 982.328 25.7106C981.773 25.7106 980.128 24.2846 978.674 22.5426C975.382 18.5996 959.605 17.4576 945.231 20.1226C933.385 22.3186 930.523 22.5366 927.185 21.4936C924.465 20.6446 908.866 18.7416 891.673 17.1616C888.098 16.8336 884.578 16.3736 883.851 16.1416C883.123 15.9086 881.632 16.1976 880.537 16.7836C879.097 17.5536 878.156 17.5266 877.143 16.6856C876.371 16.0456 875.163 15.7286 874.457 15.9806C873.751 16.2336 872.4 16.0426 871.454 15.5566C870.509 15.0716 864.659 14.4686 858.454 14.2176C852.25 13.9666 845.598 13.5206 843.673 13.2256C834.729 11.8596 831.972 11.7906 829.331 12.8696C827.097 13.7816 826.318 13.7536 825.691 12.7406C825.205 11.9526 823.684 11.6286 821.784 11.9076C820.073 12.1586 818.673 12.0636 818.673 11.6956C818.673 11.3286 816.423 10.9486 813.673 10.8506C810.491 10.7386 808.673 11.0886 808.673 11.8146C808.673 12.6676 808.325 12.6666 807.295 11.8116C806.33 11.0106 805.132 10.9656 803.304 11.6606C800.538 12.7126 792.893 12.0736 791.12 10.6426C790.518 10.1566 788.895 10.4016 787.325 11.2156C784.989 12.4286 784.504 12.4326 784.048 11.2466C783.478 9.75861 782.806 9.70861 759.673 9.39761C739.431 9.12461 733.126 9.84161 734.072 12.3076C734.354 13.0436 734.155 13.9126 733.629 14.2376C733.103 14.5626 732.673 14.3666 732.673 13.8006C732.673 13.2356 732.056 13.0106 731.302 13.2996C730.548 13.5886 729.643 13.0736 729.29 12.1556C728.77 10.7996 728.369 10.7176 727.161 11.7206C726.047 12.6456 725.673 12.6586 725.673 11.7736C725.673 11.1246 725.203 10.8826 724.629 11.2376C724.055 11.5926 722.93 11.3386 722.129 10.6746C720.96 9.70361 720.673 9.77361 720.673 11.0296C720.673 11.8886 720.193 12.8896 719.606 13.2516C718.976 13.6416 718.669 13.2086 718.856 12.1936C719.34 9.57361 704.069 8.95461 698.944 11.3866C696.907 12.3536 695.165 12.6876 694.985 12.1466C694.795 11.5766 690.048 11.3066 683.418 11.4866C663.587 12.0276 632.885 11.4976 631.125 10.5846C630.601 10.3136 623.986 10.1176 616.425 10.1506C608.863 10.1836 602.563 9.87661 602.425 9.46761C602.286 9.05961 595.757 8.5676 587.914 8.3756C580.072 8.1836 573.354 7.72561 572.986 7.35661C572.617 6.98861 570.816 6.96861 568.984 7.31261C567.12 7.66161 565.085 7.46761 564.366 6.87061C563.659 6.28461 557.477 5.54261 550.627 5.22161C543.777 4.90061 535.923 4.43061 533.173 4.17561C527.318 3.63361 500.346 2.43461 483.173 1.95361C476.573 1.76861 468.248 1.41061 464.673 1.15861C455.519 0.511608 359.099 -0.381385 358.542 0.174615ZM330.546 19.7786C332.059 18.9686 332.673 18.9556 332.673 19.7346C332.673 20.3366 333.092 20.5696 333.604 20.2536C334.116 19.9366 334.821 20.1406 335.171 20.7066C335.598 21.3976 345.383 21.5226 364.99 21.0876C381.041 20.7316 394.848 20.4686 395.673 20.5026C417.25 21.3996 453.673 21.5126 453.673 20.6826C453.673 20.0186 454.308 19.9626 455.423 20.5276C456.385 21.0156 458.971 21.3186 461.168 21.2026C463.366 21.0866 466.516 21.3796 468.168 21.8546C469.821 22.3296 479.948 22.9936 490.673 23.3306C501.398 23.6666 512.198 24.0826 514.673 24.2556C524.197 24.9186 537.647 25.0706 538.196 24.5206C538.513 24.2046 540.545 24.3436 542.713 24.8306C544.881 25.3176 546.997 25.6616 547.414 25.5956C547.831 25.5286 548.398 25.5846 548.673 25.7216C549.72 26.2396 554.531 26.6786 564.673 27.1806C570.448 27.4676 575.173 27.7576 575.173 27.8246C575.173 27.8926 578.371 28.0536 582.281 28.1826C586.19 28.3106 589.906 28.7366 590.539 29.1276C591.173 29.5196 592.474 29.6186 593.432 29.3476C594.39 29.0776 599.594 29.1676 604.997 29.5466C612.206 30.0536 615.089 29.9136 615.829 29.0226C617.04 27.5636 623.554 27.9006 624.526 29.4726C624.924 30.1176 629.829 30.8306 636.193 31.1686C642.232 31.4886 649.648 31.9626 652.673 32.2206C655.698 32.4776 667.173 32.9356 678.173 33.2376C689.173 33.5396 699.298 33.9916 700.673 34.2426C702.048 34.4936 712.848 34.9666 724.673 35.2926C736.498 35.6196 748.873 36.0716 752.173 36.2976C755.473 36.5236 767.623 36.9666 779.173 37.2826C820.121 38.4026 825.329 38.6546 850.173 40.7226C872.609 42.5896 941.267 43.6976 943.641 42.2306C944.133 41.9266 944.818 42.1366 945.165 42.6966C945.56 43.3366 946.427 43.3776 947.494 42.8066C948.429 42.3056 950.43 42.1326 951.939 42.4216C953.449 42.7096 955.259 42.4686 955.962 41.8856C956.689 41.2826 957.82 41.1836 958.584 41.6556C959.323 42.1126 961.663 42.2536 963.785 41.9686C968.154 41.3826 969.995 43.8816 968.744 48.7016C968.011 51.5266 968.458 55.7106 969.493 55.7096C969.867 55.7096 970.113 57.6216 970.04 59.9596C969.967 62.2976 970.279 64.6756 970.733 65.2446C971.188 65.8136 971.146 68.0636 970.64 70.2446C969.241 76.2806 969.425 88.4586 970.923 88.9706C971.901 89.3056 971.92 90.0846 971.01 92.5546C970.126 94.9536 970.126 95.7176 971.01 95.7406C971.65 95.7576 971.433 96.2036 970.529 96.7316C969.185 97.5156 968.934 99.1126 969.159 105.452C969.468 114.19 970.454 118.965 971.78 118.145C972.271 117.841 972.673 118.043 972.673 118.593C972.673 119.143 972.223 119.871 971.673 120.211C970.362 121.021 970.376 129.409 971.689 130.221C972.248 130.567 972.378 131.379 971.977 132.027C970.994 133.618 970.922 151.711 971.899 151.711C972.325 151.711 972.577 152.048 972.461 152.461C972.344 152.874 972.793 154.192 973.459 155.392C974.45 157.177 974.384 157.857 973.099 159.142C971.378 160.863 972.008 171.609 973.9 172.827C974.48 173.2 974.332 174.285 973.525 175.577C972.451 177.297 972.434 178.099 973.441 179.711C974.128 180.811 974.275 181.711 973.769 181.711C973.22 181.711 973.005 193.126 973.237 209.961C973.708 244.164 973.801 254.211 973.644 254.211C973.048 254.211 973.37 279.024 973.972 279.396C974.411 279.667 974.203 280.573 973.509 281.408C972.482 282.646 972.535 283.139 973.799 284.069C975.279 285.16 975.27 288.198 973.789 287.283C972.852 286.704 972.995 294.869 973.949 296.376C974.354 297.016 974.12 297.729 973.429 297.96C972.255 298.352 972.147 304.921 972.757 338.963C972.784 340.476 972.521 342.614 972.172 343.713C971.795 344.903 971.994 345.711 972.665 345.711C973.284 345.711 973.513 346.161 973.173 346.711C972.833 347.261 973.087 347.711 973.736 347.711C974.621 347.711 974.607 348.086 973.682 349.2C972.908 350.133 972.687 351.971 973.09 354.122C973.445 356.01 973.355 357.79 972.891 358.076C972.173 358.52 972.083 389.767 972.655 439.711C972.734 446.586 972.695 453.962 972.568 456.102C972.417 458.659 972.864 460.378 973.872 461.115C975.21 462.093 975.221 462.41 973.958 463.59C972.768 464.702 972.621 467.376 973.134 478.577C974.11 499.852 974.688 518.922 974.458 522.211C974.093 527.429 974.217 538.567 974.882 560.211C975.237 571.761 975.56 584.441 975.6 588.39C975.65 593.338 976.136 596.031 977.164 597.059C978.162 598.057 978.283 598.674 977.528 598.926C976.003 599.434 976.36 617.899 977.914 618.86C978.751 619.377 978.743 619.922 977.882 620.959C976.308 622.856 976.461 659.608 978.051 661.653C978.936 662.79 978.877 662.916 977.771 662.25C976.613 661.552 976.496 662.172 977.098 665.808C977.5 668.23 977.804 670.886 977.775 671.711C977.18 688.604 977.455 697.138 978.607 697.522C979.574 697.845 979.602 698.137 978.72 698.682C977.259 699.585 977.158 707.659 977.836 769.299C978.121 795.197 978.658 816.878 979.03 817.48C979.402 818.081 979.283 818.834 978.767 819.153C978.217 819.493 978.036 825.406 978.331 833.472C978.607 841.028 978.785 847.886 978.728 848.711C978.244 855.683 979.343 931.924 980.245 953.937C980.971 971.662 980.971 971.662 936.072 971.549C911.378 971.486 888.023 971.724 884.173 972.078C880.323 972.432 869.523 972.785 860.173 972.864C850.823 972.942 842.808 973.208 842.362 973.455C840.938 974.244 814.215 974.759 779.017 974.678C755.977 974.624 744.647 974.943 744.206 975.658C743.746 976.402 742.962 976.401 741.563 975.652C738.627 974.081 674.888 976.471 659.173 978.742C654.773 979.377 643.298 979.851 633.673 979.795C622.984 979.732 612.494 980.251 606.72 981.128C599.974 982.153 596.707 982.264 595.313 981.518C593.185 980.379 556.9 980.06 552.673 981.143C551.298 981.496 546.123 981.753 541.173 981.716C526.333 981.603 485.08 980.71 471.173 980.199C464.023 979.937 449.752 979.587 439.461 979.421C429.169 979.255 420.484 978.855 420.161 978.532C419.837 978.209 418.043 978.289 416.173 978.711C414.303 979.133 412.526 979.23 412.223 978.928C411.921 978.625 411.673 978.881 411.673 979.497C411.673 980.133 410.485 980.471 408.923 980.279C407.41 980.094 403.248 979.588 399.673 979.155C396.098 978.721 386.198 978.259 377.673 978.128C369.148 977.996 350.473 977.441 336.173 976.894C318.68 976.225 308.798 976.231 305.97 976.912C303.069 977.611 295.015 977.549 279.97 976.713C249.561 975.023 243.682 974.888 243.078 975.864C242.789 976.333 241.687 976.254 240.631 975.689C239.575 975.123 234.99 974.669 230.442 974.679C225.894 974.688 221.273 974.68 220.173 974.659C219.073 974.639 217.188 974.869 215.984 975.17C214.78 975.472 213.586 975.379 213.33 974.965C212.889 974.251 163.851 974.22 160.673 974.931C159.848 975.116 158.611 975.619 157.923 976.048C157.235 976.478 156.673 976.408 156.673 975.894C156.673 975.355 152.756 975.114 147.423 975.325C142.336 975.527 130.298 975.893 120.673 976.138C104.318 976.556 85.7507 977.439 77.6727 978.185C59.1247 979.897 34.3648 978.534 30.6108 975.594C29.2528 974.531 28.9217 973.949 29.8617 974.281C32.9637 975.377 33.8318 944.014 30.8008 940.364C29.9088 939.29 29.8208 938.711 30.5508 938.711C31.1678 938.711 31.6727 938.009 31.6727 937.152C31.6727 936.295 31.3187 935.812 30.8857 936.08C30.4527 936.347 30.1827 934.461 30.2867 931.889C30.3897 929.316 30.2028 926.767 29.8698 926.225C29.5358 925.683 29.3958 923.707 29.5568 921.834C29.7948 919.069 29.5518 918.544 28.2618 919.039C27.3878 919.374 26.6727 919.212 26.6727 918.68C26.6727 918.147 27.4597 917.704 28.4227 917.696C29.9187 917.683 29.9547 917.539 28.6727 916.711C27.8477 916.178 27.6628 915.735 28.2618 915.726C28.8608 915.718 29.3347 914.248 29.3147 912.461C29.2947 910.674 29.5947 908.286 29.9807 907.156C30.4657 905.739 30.0287 904.397 28.5777 902.839C26.5157 900.626 26.6787 899.234 29.0057 899.188C30.5297 899.158 30.0288 890.848 28.3828 888.852C27.4328 887.702 27.4417 887.295 28.4227 886.965C30.1337 886.389 29.9917 883.612 28.1157 880.934C26.6877 878.894 26.9097 878.268 28.9457 878.6C29.6367 878.713 29.4387 870.128 28.0837 841.211C27.8517 836.261 27.6937 831.761 27.7327 831.211C27.7717 830.661 28.0387 826.887 28.3257 822.824C28.7167 817.293 28.5118 815.224 27.5098 814.589C26.4088 813.891 26.4198 813.739 27.5678 813.726C28.7228 813.714 28.8307 811.781 28.1957 802.461C27.7737 796.274 27.2858 785.145 27.1108 777.731C26.9068 769.064 26.4007 764.12 25.6917 763.884C24.9127 763.624 24.9418 763.092 25.7918 762.068C27.2718 760.284 27.1358 753.974 25.5768 752.095C24.7078 751.048 24.7178 750.711 25.6178 750.711C26.3528 750.711 26.5647 749.946 26.1727 748.711C25.8237 747.611 25.9057 746.711 26.3557 746.711C27.8457 746.71 27.9827 729.525 26.4997 728.568C25.4037 727.86 25.4017 727.563 26.4887 726.861C27.5197 726.195 27.6538 723.542 27.1048 714.611C26.7208 708.341 26.3018 699.386 26.1758 694.711C26.0488 690.036 25.8028 684.305 25.6278 681.976C25.4528 679.647 25.6157 677.434 25.9907 677.059C27.1067 675.944 26.7667 667.711 25.6057 667.711C25.0167 667.711 24.8047 666.87 25.1337 665.835C25.5477 664.53 25.1577 663.809 23.8527 663.468C22.8197 663.198 21.7247 662.017 21.4177 660.843C21.0857 659.575 21.2587 658.955 21.8427 659.316C22.3837 659.65 23.6898 658.997 24.7448 657.864C26.5538 655.923 26.5637 655.746 24.9177 654.776C23.5267 653.956 23.4417 653.57 24.4977 652.874C25.5097 652.207 25.6568 650.256 25.1198 644.606C24.3398 636.399 23.2278 634.005 21.0398 635.821C20.0848 636.614 19.6727 636.628 19.6727 635.869C19.6727 634.521 23.1788 632.55 24.0418 633.413C24.3888 633.76 24.6727 633.519 24.6727 632.878C24.6727 632.236 24.0248 631.711 23.2318 631.711C22.4388 631.711 21.4658 631.185 21.0678 630.541C20.5908 629.77 20.8768 629.575 21.9058 629.97C24.2308 630.862 24.9737 623.867 24.5087 605.461C24.4707 603.948 24.0377 602.711 23.5477 602.711C23.0567 602.711 23.1767 601.877 23.8127 600.858C24.6687 599.488 24.6838 598.183 23.8738 595.858C23.1458 593.768 23.1197 592.711 23.7967 592.711C24.4567 592.711 24.5867 590.151 24.1637 585.461C23.3227 576.13 23.0157 568.642 22.7307 550.456C22.6027 542.34 22.1178 535.936 21.6518 536.224C21.1868 536.512 20.9967 532.464 21.2307 527.229C21.4647 521.994 21.3218 517.711 20.9128 517.711C20.5038 517.711 20.2227 515.124 20.2887 511.961C20.3547 508.798 19.9317 505.612 19.3507 504.88C18.6207 503.961 18.6127 503.031 19.3237 501.88C20.6487 499.733 19.8207 487.502 18.4087 488.374C17.7427 488.786 17.6228 487.992 18.0678 486.11C18.4448 484.515 18.7458 481.636 18.7358 479.711C18.6948 471.468 18.8197 447.845 18.9267 443.711C19.2027 433.007 18.6337 424.617 17.6727 425.211C17.1227 425.551 16.6727 425.352 16.6727 424.77C16.6727 424.188 17.1018 423.711 17.6258 423.711C18.1748 423.711 18.4717 420.082 18.3277 415.145C18.1897 410.434 18.3898 406.386 18.7728 406.149C19.7738 405.531 19.5207 370.735 18.5107 370.111C18.0467 369.824 18.0738 368.829 18.5698 367.9C19.0668 366.971 19.4787 358.111 19.4867 348.211C19.4937 338.311 19.6518 326.943 19.8368 322.949C20.1028 317.21 19.8927 315.795 18.8387 316.2C18.0617 316.499 17.6967 316.19 17.9637 315.462C18.2167 314.774 18.9048 314.315 19.4928 314.443C20.1618 314.588 20.5057 312.71 20.4097 309.443C20.2307 303.364 21.2258 286.928 22.7248 271.211C24.5228 252.358 26.3507 224.417 26.0947 219.711C25.9607 217.236 26.3108 214.654 26.8738 213.974C27.4358 213.293 27.5498 211.943 27.1258 210.974C26.7018 210.004 26.4907 208.761 26.6567 208.211C27.4987 205.411 27.4658 198.166 26.6048 197.129C25.9278 196.313 26.1168 195.755 27.2118 195.335C28.5738 194.812 28.7557 192.88 28.4867 181.815C28.3137 174.715 27.8698 169.092 27.5008 169.319C27.1308 169.547 27.2847 168.079 27.8427 166.058C28.4007 164.037 28.6057 161.125 28.2977 159.586C27.9897 158.047 28.1537 156.532 28.6617 156.218C29.1697 155.904 29.3797 155.099 29.1287 154.429C28.8777 153.759 28.4748 147.361 28.2338 140.211C27.9918 133.061 27.5547 124.961 27.2607 122.211C26.9677 119.461 26.4087 114.286 26.0187 110.711C25.6287 107.136 25.3867 102.66 25.4827 100.765C25.5777 98.8686 25.1678 97.0166 24.5718 96.6486C23.8088 96.1766 23.8587 95.3856 24.7387 93.9766C25.4747 92.7986 25.6697 91.2016 25.2137 90.0926C24.7867 89.0576 24.5517 82.5856 24.6897 75.7106C25.1477 52.8666 24.8808 45.8226 23.4878 44.0496C22.9318 43.3426 22.9567 42.6536 23.5497 42.2866C24.0857 41.9556 24.3518 40.3216 24.1408 38.6566C23.5038 33.6226 23.9507 33.5646 69.4227 32.8256C71.2107 32.7966 72.6727 32.2826 72.6727 31.6826C72.6727 31.0836 73.2128 30.9266 73.8728 31.3346C75.2248 32.1696 81.6657 32.1576 102.673 31.2796C110.648 30.9456 122.798 30.4566 129.673 30.1916C146.72 29.5366 165.409 28.3366 166.673 27.8176C166.948 27.7046 182.451 27.3746 201.123 27.0836C228.516 26.6566 235.632 26.2666 237.963 25.0606C239.553 24.2386 241.6 23.8646 242.513 24.2296C244.997 25.2236 264.919 24.7516 266.225 23.6676C266.847 23.1506 267.674 23.0456 268.063 23.4336C268.914 24.2846 292.303 23.9626 295.146 23.0606C296.251 22.7096 303.009 22.2696 310.164 22.0826C317.319 21.8946 323.961 21.7066 324.923 21.6636C325.885 21.6216 326.68 20.8266 326.688 19.8986C326.7 18.5736 326.888 18.5016 327.561 19.5636C328.23 20.6196 328.887 20.6666 330.546 19.7786Z" fill="currentColor"/>
<path d="M330.546 19.7786C332.059 18.9686 332.673 18.9556 332.673 19.7346C332.673 20.3366 333.092 20.5696 333.604 20.2536C334.116 19.9366 334.821 20.1406 335.171 20.7066C335.598 21.3976 345.383 21.5226 364.99 21.0876C381.041 20.7316 394.848 20.4686 395.673 20.5026C417.25 21.3996 453.673 21.5126 453.673 20.6826C453.673 20.0186 454.308 19.9626 455.423 20.5276C456.385 21.0156 458.971 21.3186 461.168 21.2026C463.366 21.0866 466.516 21.3796 468.168 21.8546C469.821 22.3296 479.948 22.9936 490.673 23.3306C501.398 23.6666 512.198 24.0826 514.673 24.2556C524.197 24.9186 537.647 25.0706 538.196 24.5206C538.513 24.2046 540.545 24.3436 542.713 24.8306C544.881 25.3176 546.997 25.6616 547.414 25.5956C547.831 25.5286 548.398 25.5846 548.673 25.7216C549.72 26.2396 554.531 26.6786 564.673 27.1806C570.448 27.4676 575.173 27.7576 575.173 27.8246C575.173 27.8926 578.371 28.0536 582.281 28.1826C586.19 28.3106 589.906 28.7366 590.539 29.1276C591.173 29.5196 592.474 29.6186 593.432 29.3476C594.39 29.0776 599.594 29.1676 604.997 29.5466C612.206 30.0536 615.089 29.9136 615.829 29.0226C617.04 27.5636 623.554 27.9006 624.526 29.4726C624.924 30.1176 629.829 30.8306 636.193 31.1686C642.232 31.4886 649.648 31.9626 652.673 32.2206C655.698 32.4776 667.173 32.9356 678.173 33.2376C689.173 33.5396 699.298 33.9916 700.673 34.2426C702.048 34.4936 712.848 34.9666 724.673 35.2926C736.498 35.6196 748.873 36.0716 752.173 36.2976C755.473 36.5236 767.623 36.9666 779.173 37.2826C820.121 38.4026 825.329 38.6546 850.173 40.7226C872.609 42.5896 941.267 43.6976 943.641 42.2306C944.133 41.9266 944.818 42.1366 945.165 42.6966C945.56 43.3366 946.427 43.3776 947.494 42.8066C948.429 42.3056 950.43 42.1326 951.939 42.4216C953.449 42.7096 955.259 42.4686 955.962 41.8856C956.689 41.2826 957.82 41.1836 958.584 41.6556C959.323 42.1126 961.663 42.2536 963.785 41.9686C968.154 41.3826 969.995 43.8816 968.744 48.7016C968.011 51.5266 968.458 55.7106 969.493 55.7096C969.867 55.7096 970.113 57.6216 970.04 59.9596C969.967 62.2976 970.279 64.6756 970.733 65.2446C971.188 65.8136 971.146 68.0636 970.64 70.2446C969.241 76.2806 969.425 88.4586 970.923 88.9706C971.901 89.3056 971.92 90.0846 971.01 92.5546C970.126 94.9536 970.126 95.7176 971.01 95.7406C971.65 95.7576 971.433 96.2036 970.529 96.7316C969.185 97.5156 968.934 99.1126 969.159 105.452C969.468 114.19 970.454 118.965 971.78 118.145C972.271 117.841 972.673 118.043 972.673 118.593C972.673 119.143 972.223 119.871 971.673 120.211C970.362 121.021 970.376 129.409 971.689 130.221C972.248 130.567 972.378 131.379 971.977 132.027C970.994 133.618 970.922 151.711 971.899 151.711C972.325 151.711 972.577 152.048 972.461 152.461C972.344 152.874 972.793 154.192 973.459 155.392C974.45 157.177 974.384 157.857 973.099 159.142C971.378 160.863 972.008 171.609 973.9 172.827C974.48 173.2 974.332 174.285 973.525 175.577C972.451 177.297 972.434 178.099 973.441 179.711C974.128 180.811 974.275 181.711 973.769 181.711C973.22 181.711 973.005 193.126 973.237 209.961C973.708 244.164 973.801 254.211 973.644 254.211C973.048 254.211 973.37 279.024 973.972 279.396C974.411 279.667 974.203 280.573 973.509 281.408C972.482 282.646 972.535 283.139 973.799 284.069C975.279 285.16 975.27 288.198 973.789 287.283C972.852 286.704 972.995 294.869 973.949 296.376C974.354 297.016 974.12 297.729 973.429 297.96C972.255 298.352 972.147 304.921 972.757 338.963C972.784 340.476 972.521 342.614 972.172 343.713C971.795 344.903 971.994 345.711 972.665 345.711C973.284 345.711 973.513 346.161 973.173 346.711C972.833 347.261 973.087 347.711 973.736 347.711C974.621 347.711 974.607 348.086 973.682 349.2C972.908 350.133 972.687 351.971 973.09 354.122C973.445 356.01 973.355 357.79 972.891 358.076C972.173 358.52 972.083 389.767 972.655 439.711C972.734 446.586 972.695 453.962 972.568 456.102C972.417 458.659 972.864 460.378 973.872 461.115C975.21 462.093 975.221 462.41 973.958 463.59C972.768 464.702 972.621 467.376 973.134 478.577C974.11 499.852 974.688 518.922 974.458 522.211C974.093 527.429 974.217 538.567 974.882 560.211C975.237 571.761 975.56 584.441 975.6 588.39C975.65 593.338 976.136 596.031 977.164 597.059C978.162 598.057 978.283 598.674 977.528 598.926C976.003 599.434 976.36 617.899 977.914 618.86C978.751 619.377 978.743 619.922 977.882 620.959C976.308 622.856 976.461 659.608 978.051 661.653C978.936 662.79 978.877 662.916 977.771 662.25C976.613 661.552 976.496 662.172 977.098 665.808C977.5 668.23 977.804 670.886 977.775 671.711C977.18 688.604 977.455 697.138 978.607 697.522C979.574 697.845 979.602 698.137 978.72 698.682C977.259 699.585 977.158 707.659 977.836 769.299C978.121 795.197 978.658 816.878 979.03 817.48C979.402 818.081 979.283 818.834 978.767 819.153C978.217 819.493 978.036 825.406 978.331 833.472C978.607 841.028 978.785 847.886 978.728 848.711C978.244 855.683 979.343 931.924 980.245 953.937C980.971 971.662 980.971 971.662 936.072 971.549C911.378 971.486 888.023 971.724 884.173 972.078C880.323 972.432 869.523 972.785 860.173 972.864C850.823 972.942 842.808 973.208 842.362 973.455C840.938 974.244 814.215 974.759 779.017 974.678C755.977 974.624 744.647 974.943 744.206 975.658C743.746 976.402 742.962 976.401 741.563 975.652C738.627 974.081 674.888 976.471 659.173 978.742C654.773 979.377 643.298 979.851 633.673 979.795C622.984 979.732 612.494 980.251 606.72 981.128C599.974 982.153 596.707 982.264 595.313 981.518C593.185 980.379 556.9 980.06 552.673 981.143C551.298 981.496 546.123 981.753 541.173 981.716C526.333 981.603 485.08 980.71 471.173 980.199C464.023 979.937 449.752 979.587 439.461 979.421C429.169 979.255 420.484 978.855 420.161 978.532C419.837 978.209 418.043 978.289 416.173 978.711C414.303 979.133 412.526 979.23 412.223 978.928C411.921 978.625 411.673 978.881 411.673 979.497C411.673 980.133 410.485 980.471 408.923 980.279C407.41 980.094 403.248 979.588 399.673 979.155C396.098 978.721 386.198 978.259 377.673 978.128C369.148 977.996 350.473 977.441 336.173 976.894C318.68 976.225 308.798 976.231 305.97 976.912C303.069 977.611 295.015 977.549 279.97 976.713C249.561 975.023 243.682 974.888 243.078 975.864C242.789 976.333 241.687 976.254 240.631 975.689C239.575 975.123 234.99 974.669 230.442 974.679C225.894 974.688 221.273 974.68 220.173 974.659C219.073 974.639 217.188 974.869 215.984 975.17C214.78 975.472 213.586 975.379 213.33 974.965C212.889 974.251 163.851 974.22 160.673 974.931C159.848 975.116 158.611 975.619 157.923 976.048C157.235 976.478 156.673 976.408 156.673 975.894C156.673 975.355 152.756 975.114 147.423 975.325C142.336 975.527 130.298 975.893 120.673 976.138C104.318 976.556 85.7507 977.439 77.6727 978.185C59.1247 979.897 34.3648 978.534 30.6108 975.594C29.2528 974.531 28.9217 973.949 29.8617 974.281C32.9637 975.377 33.8318 944.014 30.8008 940.364C29.9088 939.29 29.8208 938.711 30.5508 938.711C31.1678 938.711 31.6727 938.009 31.6727 937.152C31.6727 936.295 31.3187 935.812 30.8857 936.08C30.4527 936.347 30.1827 934.461 30.2867 931.889C30.3897 929.316 30.2028 926.767 29.8698 926.225C29.5358 925.683 29.3958 923.707 29.5568 921.834C29.7948 919.069 29.5518 918.544 28.2618 919.039C27.3878 919.374 26.6727 919.212 26.6727 918.68C26.6727 918.147 27.4597 917.704 28.4227 917.696C29.9187 917.683 29.9547 917.539 28.6727 916.711C27.8477 916.178 27.6628 915.735 28.2618 915.726C28.8608 915.718 29.3347 914.248 29.3147 912.461C29.2947 910.674 29.5947 908.286 29.9807 907.156C30.4657 905.739 30.0287 904.397 28.5777 902.839C26.5157 900.626 26.6787 899.234 29.0057 899.188C30.5297 899.158 30.0288 890.848 28.3828 888.852C27.4328 887.702 27.4417 887.295 28.4227 886.965C30.1337 886.389 29.9917 883.612 28.1157 880.934C26.6877 878.894 26.9097 878.268 28.9457 878.6C29.6367 878.713 29.4387 870.128 28.0837 841.211C27.8517 836.261 27.6937 831.761 27.7327 831.211C27.7717 830.661 28.0387 826.887 28.3257 822.824C28.7167 817.293 28.5118 815.224 27.5098 814.589C26.4088 813.891 26.4198 813.739 27.5678 813.726C28.7228 813.714 28.8307 811.781 28.1957 802.461C27.7737 796.274 27.2858 785.145 27.1108 777.731C26.9068 769.064 26.4007 764.12 25.6917 763.884C24.9127 763.624 24.9418 763.092 25.7918 762.068C27.2718 760.284 27.1358 753.974 25.5768 752.095C24.7078 751.048 24.7178 750.711 25.6178 750.711C26.3528 750.711 26.5647 749.946 26.1727 748.711C25.8237 747.611 25.9057 746.711 26.3557 746.711C27.8457 746.71 27.9827 729.525 26.4997 728.568C25.4037 727.86 25.4017 727.563 26.4887 726.861C27.5197 726.195 27.6538 723.542 27.1048 714.611C26.7208 708.341 26.3018 699.386 26.1758 694.711C26.0488 690.036 25.8028 684.305 25.6278 681.976C25.4528 679.647 25.6157 677.434 25.9907 677.059C27.1067 675.944 26.7667 667.711 25.6057 667.711C25.0167 667.711 24.8047 666.87 25.1337 665.835C25.5477 664.53 25.1577 663.809 23.8527 663.468C22.8197 663.198 21.7247 662.017 21.4177 660.843C21.0857 659.575 21.2587 658.955 21.8427 659.316C22.3837 659.65 23.6898 658.997 24.7448 657.864C26.5538 655.923 26.5637 655.746 24.9177 654.776C23.5267 653.956 23.4417 653.57 24.4977 652.874C25.5097 652.207 25.6568 650.256 25.1198 644.606C24.3398 636.399 23.2278 634.005 21.0398 635.821C20.0848 636.614 19.6727 636.628 19.6727 635.869C19.6727 634.521 23.1788 632.55 24.0418 633.413C24.3888 633.76 24.6727 633.519 24.6727 632.878C24.6727 632.236 24.0248 631.711 23.2318 631.711C22.4388 631.711 21.4658 631.185 21.0678 630.541C20.5908 629.77 20.8768 629.575 21.9058 629.97C24.2308 630.862 24.9737 623.867 24.5087 605.461C24.4707 603.948 24.0377 602.711 23.5477 602.711C23.0567 602.711 23.1767 601.877 23.8127 600.858C24.6687 599.488 24.6838 598.183 23.8738 595.858C23.1458 593.768 23.1197 592.711 23.7967 592.711C24.4567 592.711 24.5867 590.151 24.1637 585.461C23.3227 576.13 23.0157 568.642 22.7307 550.456C22.6027 542.34 22.1178 535.936 21.6518 536.224C21.1868 536.512 20.9967 532.464 21.2307 527.229C21.4647 521.994 21.3218 517.711 20.9128 517.711C20.5038 517.711 20.2227 515.124 20.2887 511.961C20.3547 508.798 19.9317 505.612 19.3507 504.88C18.6207 503.961 18.6127 503.031 19.3237 501.88C20.6487 499.733 19.8207 487.502 18.4087 488.374C17.7427 488.786 17.6228 487.992 18.0678 486.11C18.4448 484.515 18.7458 481.636 18.7358 479.711C18.6948 471.468 18.8197 447.845 18.9267 443.711C19.2027 433.007 18.6337 424.617 17.6727 425.211C17.1227 425.551 16.6727 425.352 16.6727 424.77C16.6727 424.188 17.1018 423.711 17.6258 423.711C18.1748 423.711 18.4717 420.082 18.3277 415.145C18.1897 410.434 18.3898 406.386 18.7728 406.149C19.7738 405.531 19.5207 370.735 18.5107 370.111C18.0467 369.824 18.0738 368.829 18.5698 367.9C19.0668 366.971 19.4787 358.111 19.4867 348.211C19.4937 338.311 19.6518 326.943 19.8368 322.949C20.1028 317.21 19.8927 315.795 18.8387 316.2C18.0617 316.499 17.6967 316.19 17.9637 315.462C18.2167 314.774 18.9048 314.315 19.4928 314.443C20.1618 314.588 20.5057 312.71 20.4097 309.443C20.2307 303.364 21.2258 286.928 22.7248 271.211C24.5228 252.358 26.3507 224.417 26.0947 219.711C25.9607 217.236 26.3108 214.654 26.8738 213.974C27.4358 213.293 27.5498 211.943 27.1258 210.974C26.7018 210.004 26.4907 208.761 26.6567 208.211C27.4987 205.411 27.4658 198.166 26.6048 197.129C25.9278 196.313 26.1168 195.755 27.2118 195.335C28.5738 194.812 28.7557 192.88 28.4867 181.815C28.3137 174.715 27.8698 169.092 27.5008 169.319C27.1308 169.547 27.2847 168.079 27.8427 166.058C28.4007 164.037 28.6057 161.125 28.2977 159.586C27.9897 158.047 28.1537 156.532 28.6617 156.218C29.1697 155.904 29.3797 155.099 29.1287 154.429C28.8777 153.759 28.4748 147.361 28.2338 140.211C27.9918 133.061 27.5547 124.961 27.2607 122.211C26.9677 119.461 26.4087 114.286 26.0187 110.711C25.6287 107.136 25.3867 102.66 25.4827 100.765C25.5777 98.8686 25.1678 97.0166 24.5718 96.6486C23.8088 96.1766 23.8587 95.3856 24.7387 93.9766C25.4747 92.7986 25.6697 91.2016 25.2137 90.0926C24.7867 89.0576 24.5517 82.5856 24.6897 75.7106C25.1477 52.8666 24.8808 45.8226 23.4878 44.0496C22.9318 43.3426 22.9567 42.6536 23.5497 42.2866C24.0857 41.9556 24.3518 40.3216 24.1408 38.6566C23.5038 33.6226 23.9507 33.5646 69.4227 32.8256C71.2107 32.7966 72.6727 32.2826 72.6727 31.6826C72.6727 31.0836 73.2128 30.9266 73.8728 31.3346C75.2248 32.1696 81.6657 32.1576 102.673 31.2796C110.648 30.9456 122.798 30.4566 129.673 30.1916C146.72 29.5366 165.409 28.3366 166.673 27.8176C166.948 27.7046 182.451 27.3746 201.123 27.0836C228.516 26.6566 235.632 26.2666 237.963 25.0606C239.553 24.2386 241.6 23.8646 242.513 24.2296C244.997 25.2236 264.919 24.7516 266.225 23.6676C266.847 23.1506 267.674 23.0456 268.063 23.4336C268.914 24.2846 292.303 23.9626 295.146 23.0606C296.251 22.7096 303.009 22.2696 310.164 22.0826C317.319 21.8946 323.961 21.7066 324.923 21.6636C325.885 21.6216 326.68 20.8266 326.688 19.8986C326.7 18.5736 326.888 18.5016 327.561 19.5636C328.23 20.6196 328.887 20.6666 330.546 19.7786Z" fill="currentColor"/>
</svg>
