<svg width="2117" height="1017" viewBox="0 0 2117 1017" fill="none" xmlns="http://www.w3.org/2000/svg">
<path fill-rule="evenodd" clip-rule="evenodd" d="M458.067 0.983807C431.489 2.40781 414.139 3.75193 403.567 5.20793C392.764 6.69493 378.402 8.14083 362.567 9.33683C358.167 9.66883 353.892 10.1288 353.067 10.3578C348.689 11.5778 302.6 14.256 287.567 14.164C230.51 13.814 190.818 13.9089 176.067 14.4299C146.031 15.4909 52.532 15.566 40.022 14.54C31.827 13.868 26.315 13.9319 21.022 14.7619C16.922 15.4049 11.6549 16.1748 9.31688 16.4738C4.13988 17.1348 4.07195 17.8679 6.95995 41.8149C7.98895 50.3399 8.9098 60.0149 9.0078 63.3149C9.1058 66.6149 9.89092 74.4899 10.7529 80.8149C12.9299 96.7959 13.68 120.081 12.927 148.315C12.292 172.09 11.8908 180.136 10.0798 205.315C9.56582 212.465 8.88182 237.215 8.55882 260.315C8.23682 283.415 7.79677 308.39 7.58177 315.815C6.19377 363.731 5.59178 413.088 5.75878 465.315C6.06578 560.932 6.06379 563.502 5.65379 580.315C5.43979 589.115 4.98293 609.59 4.63793 625.815C3.40693 683.795 2.21289 727.221 1.72289 731.815C1.51789 733.74 1.68496 735.765 2.09496 736.315C2.50396 736.865 2.39692 740.24 1.85692 743.815C0.56392 752.367 0.330963 839.343 1.50096 876.815C2.48896 908.457 2.58796 921.124 2.00096 940.815C1.79696 947.69 1.791 956.015 1.989 959.315C2.187 962.615 2.05694 969.303 1.69994 974.177C0.284937 993.484 0.80888 993.807 34.5669 994.437C48.3169 994.694 66.5419 995.321 75.0669 995.831C83.5919 996.342 96.1919 996.82 103.067 996.895C109.942 996.97 124.117 997.615 134.567 998.329C145.017 999.044 167.292 1000.14 184.067 1000.77C200.842 1001.41 221.992 1002.57 231.067 1003.37C246.779 1004.75 254.424 1004.73 276.12 1003.24C284.465 1002.67 286.236 1002.84 290.127 1004.61C294.943 1006.81 307.878 1006.95 318.567 1004.92C321.658 1004.33 329.485 1004.31 339.067 1004.87C347.592 1005.36 359.292 1006 365.067 1006.3C400.12 1008.1 404.303 1008.36 426.567 1010.16C436.467 1010.95 445.242 1011.62 446.067 1011.63C446.892 1011.64 451.392 1011.91 456.067 1012.24C507.148 1015.81 595.559 1017.33 646.067 1015.5C658.442 1015.05 673.067 1014.55 678.567 1014.37C684.067 1014.2 694.192 1013.78 701.067 1013.44C716.944 1012.66 730.946 1012.11 769.567 1010.78C786.617 1010.19 805.742 1009.34 812.067 1008.88C827.851 1007.74 845.412 1007.28 865.567 1007.49C919.606 1008.05 948.994 1008.02 960.067 1007.42C987.295 1005.94 1005.46 1004.64 1006.37 1004.1C1006.81 1003.84 1013.2 1003.49 1020.56 1003.32C1027.93 1003.14 1034.35 1002.76 1034.84 1002.45C1035.33 1002.15 1046.5 1001.65 1059.65 1001.34C1072.81 1001.03 1084.82 1000.52 1086.36 1000.21C1089.18 999.632 1110.03 999.042 1131.07 998.943C1173.18 998.745 1259.76 999.505 1260.69 1000.08C1262.4 1001.14 1306.1 1002.06 1349.07 1001.94C1393.64 1001.82 1443.6 1003.92 1455.35 1006.41C1456.57 1006.67 1475.12 1006.76 1496.57 1006.61C1570.42 1006.09 1712.65 1006.32 1755.07 1007.03C1779.56 1007.44 1801.38 1007.35 1806.57 1006.82C1811.52 1006.31 1820.52 1005.63 1826.57 1005.3C1832.62 1004.97 1841.16 1004.28 1845.54 1003.76C1849.93 1003.24 1856.99 1002.81 1861.23 1002.81C1865.48 1002.81 1869.22 1002.38 1869.54 1001.85C1869.92 1001.24 1871.13 1001.27 1872.85 1001.93C1874.52 1002.56 1878.26 1002.67 1882.57 1002.21C1886.42 1001.8 1890.92 1001.34 1892.57 1001.2C1894.22 1001.05 1919.87 1000.94 1949.57 1000.95C2124.74 1000.98 2102.86 1005.35 2103.13 970.28C2103.23 958.199 2103.7 945.615 2104.19 942.315C2104.67 939.015 2105.12 924.165 2105.2 909.315C2105.27 894.465 2105.72 878.94 2106.19 874.815C2107.08 867.19 2107.62 833.271 2108.53 729.315C2108.81 697.415 2109.33 661.64 2109.69 649.815C2110.05 637.99 2110.48 622.015 2110.65 614.315C2110.81 606.615 2111.22 595.59 2111.56 589.815C2111.9 584.04 2112.35 573.015 2112.57 565.315C2112.79 557.615 2113.21 545.915 2113.51 539.315C2114.83 510.378 2115.26 502.073 2115.6 498.376C2116.59 487.838 2116 384.418 2114.95 383.367C2114.61 383.028 2114.69 380.853 2115.12 378.533C2115.84 374.667 2115.45 334.99 2114.62 326.815C2114.42 324.89 2113.96 305.54 2113.59 283.815C2113.23 262.09 2112.47 241.39 2111.92 237.815C2108.65 216.862 2108.71 213.89 2113.06 178.315C2113.66 173.365 2114.39 159.865 2114.67 148.315C2114.96 136.765 2115.32 122.365 2115.47 116.315C2115.63 110.265 2115.21 100.815 2114.54 95.3149C2113.88 89.8149 2113.51 79.6899 2113.73 72.8149C2115.16 27.3529 2113.7 22.8668 2096.86 21.2008C2085.43 20.0708 2080.25 19.8008 2031.57 17.8068C2018.37 17.2658 2003.07 16.6098 1997.57 16.3478C1992.07 16.0858 1980.59 15.6119 1972.07 15.2939C1963.54 14.9749 1953.81 14.5339 1950.45 14.3129C1947.08 14.0919 1936.96 13.6469 1927.95 13.3249C1918.94 13.0019 1902.79 12.3119 1892.07 11.7909C1881.34 11.2699 1863.79 10.595 1853.07 10.29C1842.34 9.98496 1829.74 9.54779 1825.07 9.31779C1820.39 9.08879 1808.69 8.62479 1799.07 8.28679C1789.44 7.94879 1776.17 7.46178 1769.57 7.20378C1734.85 5.84678 1641.76 6.89798 1618.07 8.91398C1617.24 8.98398 1608.02 9.45085 1597.57 9.95085C1575.73 10.9968 1568.54 11.4419 1558.07 12.3979C1544.89 13.5999 1542.76 13.7578 1532.57 14.2878C1519.45 14.9698 1505.37 15.7759 1496.07 16.3759C1465.57 18.3449 1450.98 18.7429 1445.97 17.7419C1443 17.1489 1425.04 16.4658 1406.07 16.2258C1387.09 15.9848 1369.77 15.5889 1367.57 15.3459C1365.37 15.1029 1354.79 15.3848 1344.07 15.9718C1333.34 16.5588 1317.3 17.157 1308.43 17.3C1299.55 17.443 1291.84 17.8367 1291.3 18.1737C1290.75 18.5107 1283.61 19.0258 1275.44 19.3178C1267.26 19.6108 1257.42 20.2789 1253.57 20.8039C1249.72 21.3289 1240.27 22.2438 1232.57 22.8368C1224.87 23.4308 1217.89 24.0968 1217.07 24.3158C1216.24 24.5358 1211.29 25.007 1206.07 25.362C1200.84 25.718 1194.54 26.4599 1192.07 27.0119C1185.89 28.3899 1175.84 28.0458 1172.41 26.3388C1168.66 24.4728 1152.92 22.5659 1147.7 23.3449C1143.55 23.9649 1091.44 24.9 1070.17 24.737C1063.89 24.689 1057.59 24.1868 1056.17 23.6208C1051.13 21.6288 1022.62 20.1859 995.567 20.5539C959.948 21.0389 817.733 20.8679 803.067 20.3219C792.189 19.9169 784.162 19.5118 762.067 18.2548C756.842 17.9568 748.517 17.2959 743.567 16.7839C738.617 16.2729 727.817 15.3969 719.567 14.8359C711.317 14.2759 703.442 13.632 702.067 13.404C700.692 13.177 695.292 12.6959 690.067 12.3359C684.842 11.9759 677.642 11.2878 674.067 10.8068C670.492 10.3258 662.842 9.66175 657.067 9.32975C651.292 8.99775 643.417 8.32182 639.567 7.82682C635.717 7.33182 624.917 6.44395 615.567 5.85295C606.217 5.26195 592.267 4.34083 584.567 3.80583C576.867 3.27083 565.392 2.61291 559.067 2.34391C552.742 2.07491 541.942 1.58884 535.067 1.26384C516.428 0.381836 472.306 0.221807 458.067 0.983807Z" fill="#025354"/>
</svg>
