<svg width="642" height="831" viewBox="0 0 642 831" fill="none" xmlns="http://www.w3.org/2000/svg">
<path fill-rule="evenodd" clip-rule="evenodd" d="M229.108 1.23194C189.094 4.74294 175.975 5.05501 133.608 3.50001C115.458 2.83401 97.2328 2.43385 93.1078 2.61085C79.6748 3.18885 60.8538 2.97179 48.9718 2.10279C29.2698 0.661791 27.7748 2.59501 29.2798 27.552C30.0378 40.118 29.9968 45.7858 29.1198 49.7378C28.0618 54.5028 27.0358 75.5499 25.5468 123.046C25.2708 131.846 24.6088 142.341 24.0758 146.368C23.5438 150.396 23.0839 158.496 23.0539 164.368C23.0239 170.241 22.6018 178.646 22.1148 183.046C21.6288 187.446 20.7448 196.896 20.1508 204.046C19.5558 211.196 18.5438 221.996 17.9018 228.046C16.5328 240.929 16.2648 250.762 15.5318 315.046C14.9338 367.405 14.4049 401.634 13.5119 445.546C13.1929 461.221 12.9788 479.08 13.0358 485.233C13.0938 491.385 12.2328 504.621 11.1238 514.645C10.0148 524.67 9.10781 536.437 9.10781 540.795C9.10781 545.154 8.46784 554.193 7.68484 560.883C6.90184 567.573 5.96576 582.946 5.60476 595.046C4.53576 630.847 3.01083 654.879 0.924827 668.788C0.0388272 674.697 0.0518291 684.408 0.976829 709.788C1.67983 729.074 1.87081 748.927 1.43081 757.046C1.01381 764.746 0.729827 772.621 0.799827 774.546C0.869827 776.471 1.08881 787.345 1.28481 798.71C1.76081 826.249 2.39178 826.977 22.9268 823.679C29.1528 822.679 36.1278 821.996 38.4268 822.161C46.7758 822.761 68.8418 824.62 78.6078 825.545C101.426 827.707 182.454 831.221 196.608 830.662C197.708 830.619 232.133 830.668 273.108 830.772C472.131 831.278 496.742 831.038 517.608 828.395C522.008 827.837 532.643 827.202 541.242 826.983C549.841 826.764 558.07 826.131 559.528 825.576C560.987 825.022 567.901 824.52 574.894 824.461C581.887 824.403 589.858 823.936 592.608 823.425C595.358 822.913 602.331 822.234 608.104 821.915C629.492 820.734 635.171 814.984 635.628 794.046C635.82 785.246 636.443 772.871 637.014 766.546C637.584 760.221 638.063 744.316 638.079 731.201C638.102 712.013 638.431 706.251 639.763 701.701C642.064 693.845 642.238 619.239 640.001 599.884C638.72 588.796 638.079 550.54 637.574 455.046C637.166 377.942 636.92 363.222 635.656 340.546C635.395 335.871 634.934 299.421 634.631 259.546C633.853 157.082 633.238 103.392 632.56 78.5459C632.237 66.7209 631.841 49.1678 631.68 39.5398C631.237 12.9448 629.38 10.2638 610.608 9.12281C580.816 7.31281 560.831 6.96692 520.108 7.55592C506.633 7.75092 488.183 7.56199 479.108 7.13599C470.033 6.70899 457.658 6.22485 451.608 6.05885C445.558 5.89385 437.908 5.46091 434.608 5.09791C426.021 4.15191 418.585 3.70783 392.608 2.59083C379.958 2.04683 368.176 1.35 366.427 1.042C362.222 0.301 294.377 0.262007 293.183 1.00001C292.122 1.65501 274.358 1.65987 269.108 1.00587C260.678 -0.0451332 242.488 0.057941 229.108 1.23194Z" fill="black"/>
</svg>
