<svg width="2117" height="1017" viewBox="0 0 2117 1017" fill="none" xmlns="http://www.w3.org/2000/svg">
<path fill-rule="evenodd" clip-rule="evenodd" d="M458 1.16887C431.422 2.59287 414.072 3.93699 403.5 5.39299C392.697 6.87999 378.335 8.32589 362.5 9.52189C358.1 9.85389 353.825 10.3139 353 10.5429C348.622 11.7629 302.533 14.441 287.5 14.349C230.443 13.999 190.751 14.0939 176 14.6149C145.964 15.6759 52.4656 15.751 39.9556 14.725C31.7606 14.053 26.2486 14.1169 20.9556 14.9469C16.8556 15.5899 11.5885 16.3599 9.25047 16.6589C4.07347 17.3199 4.00554 18.0529 6.89354 41.9999C7.92254 50.5249 8.84339 60.1999 8.94139 63.4999C9.03939 66.7999 9.82451 74.6749 10.6865 80.9999C12.8635 96.9809 13.6136 120.266 12.8606 148.5C12.2256 172.275 11.8244 180.321 10.0134 205.5C9.49941 212.65 8.81542 237.4 8.49242 260.5C8.17042 283.6 7.73037 308.575 7.51537 316C6.12737 363.916 5.52537 413.273 5.69237 465.5C5.99937 561.117 5.99739 563.687 5.58739 580.5C5.37339 589.3 4.91652 609.775 4.57152 626C3.34052 683.98 2.14648 727.406 1.65648 732C1.45148 733.925 1.61855 735.95 2.02855 736.5C2.43755 737.05 2.33051 740.425 1.79051 744C0.497514 752.552 0.264557 839.528 1.43456 877C2.42256 908.642 2.52156 921.309 1.93456 941C1.73056 947.875 1.72459 956.2 1.92259 959.5C2.12059 962.8 1.99053 969.488 1.63353 974.362C0.218531 993.669 0.742474 993.992 34.5005 994.622C48.2505 994.879 66.4755 995.506 75.0005 996.016C83.5255 996.527 96.1255 997.005 103 997.08C109.875 997.155 124.05 997.8 134.5 998.514C144.95 999.229 167.225 1000.33 184 1000.96C200.775 1001.59 221.925 1002.76 231 1003.56C246.712 1004.94 254.357 1004.91 276.053 1003.42C284.398 1002.85 286.17 1003.03 290.061 1004.8C294.877 1006.99 307.811 1007.13 318.5 1005.11C321.591 1004.52 329.418 1004.5 339 1005.05C347.525 1005.54 359.225 1006.19 365 1006.48C400.053 1008.28 404.236 1008.54 426.5 1010.34C436.4 1011.14 445.175 1011.8 446 1011.81C446.825 1011.82 451.325 1012.1 456 1012.43C507.081 1016 595.493 1017.51 646.001 1015.68C658.376 1015.24 673.001 1014.73 678.501 1014.56C684.001 1014.39 694.126 1013.97 701.001 1013.63C716.878 1012.84 730.88 1012.3 769.501 1010.97C786.551 1010.38 805.676 1009.52 812.001 1009.07C827.785 1007.92 845.346 1007.47 865.501 1007.67C919.54 1008.23 948.928 1008.21 960.001 1007.61C987.229 1006.13 1005.39 1004.83 1006.3 1004.29C1006.74 1004.03 1013.13 1003.68 1020.5 1003.5C1027.86 1003.33 1034.29 1002.94 1034.78 1002.64C1035.27 1002.34 1046.43 1001.83 1059.58 1001.53C1072.74 1001.22 1084.76 1000.71 1086.29 1000.39C1089.11 999.817 1109.96 999.227 1131 999.128C1173.12 998.93 1259.69 999.69 1260.62 1000.27C1262.33 1001.33 1306.03 1002.25 1349 1002.13C1393.57 1002.01 1443.53 1004.11 1455.28 1006.6C1456.5 1006.86 1475.05 1006.94 1496.5 1006.79C1570.36 1006.27 1712.59 1006.5 1755 1007.21C1779.49 1007.62 1801.31 1007.53 1806.5 1007C1811.45 1006.5 1820.45 1005.81 1826.5 1005.48C1832.55 1005.16 1841.09 1004.46 1845.47 1003.94C1849.86 1003.42 1856.92 1003 1861.17 1003C1865.41 1003 1869.15 1002.57 1869.48 1002.04C1869.85 1001.43 1871.06 1001.45 1872.79 1002.11C1874.46 1002.75 1878.2 1002.86 1882.5 1002.4C1886.35 1001.99 1890.85 1001.53 1892.5 1001.38C1894.15 1001.24 1919.8 1001.13 1949.5 1001.13C2124.68 1001.16 2102.8 1005.53 2103.07 970.465C2103.16 958.384 2103.64 945.8 2104.12 942.5C2104.6 939.2 2105.06 924.35 2105.13 909.5C2105.2 894.65 2105.65 879.125 2106.13 875C2107.01 867.375 2107.56 833.456 2108.46 729.5C2108.74 697.6 2109.26 661.825 2109.62 650C2109.98 638.175 2110.41 622.2 2110.58 614.5C2110.75 606.8 2111.16 595.775 2111.49 590C2111.83 584.225 2112.28 573.2 2112.5 565.5C2112.72 557.8 2113.15 546.1 2113.45 539.5C2114.76 510.563 2115.19 502.258 2115.53 498.561C2116.52 488.023 2115.94 384.603 2114.89 383.552C2114.55 383.213 2114.62 381.038 2115.05 378.718C2115.77 374.852 2115.39 335.175 2114.55 327C2114.36 325.075 2113.89 305.725 2113.53 284C2113.16 262.275 2112.41 241.575 2111.85 238C2108.58 217.047 2108.64 214.075 2112.99 178.5C2113.6 173.55 2114.32 160.05 2114.61 148.5C2114.89 136.95 2115.25 122.55 2115.4 116.5C2115.56 110.45 2115.14 101 2114.48 95.4999C2113.81 89.9999 2113.44 79.8749 2113.66 72.9999C2115.1 27.5379 2113.63 23.0519 2096.79 21.3859C2085.37 20.2559 2080.18 19.9859 2031.5 17.9919C2018.3 17.4509 2003 16.7949 1997.5 16.5329C1992 16.2709 1980.53 15.7969 1972 15.4789C1963.48 15.1599 1953.75 14.719 1950.38 14.498C1947.02 14.277 1936.89 13.8319 1927.88 13.5099C1918.87 13.1869 1902.73 12.497 1892 11.976C1881.28 11.455 1863.73 10.78 1853 10.475C1842.28 10.17 1829.68 9.73285 1825 9.50285C1820.33 9.27385 1808.63 8.80984 1799 8.47184C1789.38 8.13384 1776.1 7.64684 1769.5 7.38884C1734.79 6.03184 1641.69 7.08304 1618 9.09904C1617.18 9.16904 1607.95 9.63591 1597.5 10.1359C1575.67 11.1819 1568.47 11.6269 1558 12.5829C1544.82 13.7849 1542.69 13.9428 1532.5 14.4728C1519.38 15.1548 1505.3 15.961 1496 16.561C1465.5 18.53 1450.91 18.9279 1445.9 17.9269C1442.93 17.3339 1424.98 16.6508 1406 16.4108C1387.03 16.1698 1369.7 15.7739 1367.5 15.5309C1365.3 15.2879 1354.73 15.5699 1344 16.1569C1333.28 16.7439 1317.24 17.342 1308.36 17.485C1299.48 17.628 1291.77 18.0218 1291.23 18.3588C1290.68 18.6958 1283.55 19.2108 1275.37 19.5028C1267.19 19.7958 1257.35 20.4639 1253.5 20.9889C1249.65 21.5139 1240.2 22.4289 1232.5 23.0219C1224.8 23.6159 1217.83 24.2819 1217 24.5009C1216.18 24.7209 1211.23 25.192 1206 25.547C1200.78 25.903 1194.48 26.6449 1192 27.1969C1185.82 28.5749 1175.77 28.2308 1172.34 26.5238C1168.59 24.6578 1152.85 22.7509 1147.63 23.5299C1143.48 24.1499 1091.38 25.085 1070.1 24.922C1063.83 24.874 1057.53 24.3718 1056.1 23.8058C1051.07 21.8138 1022.55 20.3709 995.501 20.7389C959.882 21.2239 817.667 21.053 803.001 20.507C792.123 20.102 784.096 19.6969 762.001 18.4399C756.776 18.1419 748.451 17.4809 743.501 16.9689C738.551 16.4579 727.751 15.5819 719.501 15.0209C711.251 14.4609 703.376 13.817 702.001 13.589C700.626 13.362 695.226 12.8809 690.001 12.5209C684.776 12.1609 677.576 11.4729 674.001 10.9919C670.426 10.5109 662.776 9.84681 657.001 9.51481C651.226 9.18281 643.351 8.50688 639.501 8.01188C635.651 7.51688 624.85 6.62901 615.5 6.03801C606.15 5.44701 592.2 4.52589 584.5 3.99089C576.8 3.45589 565.325 2.79797 559 2.52897C552.675 2.25997 541.875 1.7739 535 1.4489C516.361 0.566895 472.239 0.406866 458 1.16887ZM571.5 24.559C582.5 25.368 599.299 26.4538 608.831 26.9728C618.362 27.4908 626.912 28.1238 627.831 28.3788C628.749 28.6338 635.275 29.136 642.333 29.495C649.39 29.853 656.14 30.3448 657.333 30.5878C658.525 30.8308 667.376 31.705 677.001 32.529C686.626 33.353 698.326 34.4478 703.001 34.9618C707.676 35.4758 716.226 36.1639 722.001 36.4909C727.776 36.8179 735.876 37.495 740.001 37.995C759.368 40.345 826.26 41.0889 883.001 39.5859C901.976 39.0829 919.076 38.683 921.001 38.696C922.926 38.709 932.826 38.8559 943.001 39.0219C953.176 39.1869 964.201 39.2109 967.501 39.0739C970.801 38.9359 981.601 39.0819 991.501 39.3959C1001.4 39.7109 1020.3 40.211 1033.5 40.508C1046.7 40.805 1059.98 41.255 1063 41.507C1066.03 41.76 1076.48 42.2109 1086.24 42.5099C1095.99 42.8089 1104.54 43.2369 1105.24 43.4609C1105.93 43.6849 1108.98 44.165 1112 44.527C1118.77 45.337 1119.62 45.462 1124 46.277C1125.93 46.635 1129.98 47.1779 1133 47.4819C1136.03 47.7859 1140.98 48.4549 1144 48.9689C1156.36 51.0659 1168.18 52.1259 1173.19 51.5859C1176.11 51.2709 1193.58 50.7508 1212 50.4308C1230.43 50.1098 1247.98 49.7028 1251 49.5258C1254.03 49.3488 1264.83 48.6809 1275 48.0409C1285.18 47.3999 1299.13 46.7038 1306 46.4938C1312.88 46.2828 1325.03 45.8468 1333 45.5258C1340.98 45.2038 1352.9 44.7239 1359.5 44.4599C1366.1 44.1949 1376 43.772 1381.5 43.519C1396.34 42.837 1415.49 42.0868 1433.5 41.4838C1457.46 40.6808 1487.1 39.024 1490.5 38.299C1492.15 37.946 1496.58 37.7519 1500.34 37.8669C1504.1 37.9819 1514.68 37.558 1523.84 36.924C1533 36.291 1541.18 35.7679 1542 35.7609C1543.96 35.7459 1565.66 34.1728 1572.88 33.5238C1575.97 33.2448 1584.8 32.7678 1592.5 32.4618C1619.74 31.3808 1626.62 31.039 1653 29.455C1678.16 27.945 1804.67 29.3828 1828.5 31.4508C1831.8 31.7368 1843.49 32.2389 1854.47 32.5649C1865.46 32.8919 1874.69 33.301 1874.97 33.475C1875.78 33.958 1903.75 34.991 1930.87 35.538C1944.27 35.809 1955.55 36.222 1955.93 36.457C1956.31 36.692 1963.79 37.1469 1972.56 37.4679C1981.33 37.7889 1998.4 38.4779 2010.5 38.9999C2052.22 40.7979 2062.54 41.211 2073.8 41.537C2092.51 42.078 2090.61 39.1249 2090.37 67.2829C2090.05 105.347 2089.97 107.594 2088.34 124C2086.64 140.977 2086.02 193.501 2087.31 210.5C2087.73 216 2088.56 226.8 2089.17 234.5C2089.78 242.2 2090.2 249.827 2090.11 251.449C2090.01 253.071 2090.63 260.73 2091.48 268.468C2093.89 290.484 2095 314.182 2095.65 358C2096.53 416.873 2096.11 512.5 2094.97 512.5C2094.74 512.5 2094.37 519.242 2093.56 538.5C2093.18 547.3 2092.7 558.601 2092.48 563.614C2092.26 568.627 2091.79 579.427 2091.43 587.614C2091.07 595.801 2090.64 611.95 2090.47 623.5C2090.29 635.05 2089.89 649.45 2089.57 655.5C2089.26 661.55 2089 670.325 2089 675C2089 679.675 2088.98 684.4 2088.96 685.5C2088.36 713.636 2088.04 753.014 2088.34 763.5C2088.43 766.8 2088.17 776.925 2087.76 786C2087.35 795.075 2087.06 810.15 2087.1 819.5C2087.21 839.571 2086.94 855.132 2086.39 860C2086.18 861.925 2085.79 879.925 2085.54 900C2085.29 920.075 2084.85 937.85 2084.57 939.5C2083.21 947.54 2082.83 953.223 2082.63 968.223C2082.4 985.32 2074.19 987.247 2016.5 983.742C2010.45 983.375 1994.03 982.779 1980 982.418C1965.98 982.057 1954.21 981.592 1953.85 981.384C1953.18 980.995 1896.41 981.01 1883 981.402C1878.88 981.523 1866.95 982.023 1856.5 982.513C1846.05 983.003 1821.53 983.308 1802 983.191C1782.33 983.072 1763.38 983.424 1759.5 983.978C1755.65 984.529 1729.78 985.205 1702 985.48C1674.23 985.755 1649.25 986.322 1646.5 986.74C1643.75 987.158 1638.8 987.275 1635.5 987C1632.2 986.725 1624.78 986.844 1619 987.265C1605.78 988.228 1574.25 988.279 1544.83 987.384C1528.09 986.875 1521.39 987.009 1519.25 987.895C1517.05 988.809 1514.7 988.829 1509.43 987.979C1505.62 987.365 1495.21 986.892 1486.31 986.929C1476.61 986.968 1463.57 986.251 1453.81 985.14C1444.84 984.119 1432.13 983.196 1425.57 983.087C1419 982.978 1413.18 982.613 1412.64 982.274C1412.09 981.936 1385.23 981.558 1352.95 981.435C1320.67 981.311 1289.59 980.926 1283.88 980.579C1259.92 979.121 1212.45 977.948 1182.07 978.062C1164.16 978.13 1139.83 978.069 1128 977.928C1089.96 977.474 1056.95 977.677 1039 978.476C1029.38 978.904 1018.35 979.356 1014.5 979.481C1007.66 979.702 992.133 980.443 969.001 981.654C962.676 981.985 953.001 982.375 947.501 982.52C942.001 982.665 929.495 983.294 919.71 983.918C909.925 984.542 887.2 985.266 869.21 985.528C851.22 985.79 832.226 986.398 827.001 986.879C821.776 987.36 803.326 988.064 786.001 988.443C768.676 988.822 752.026 989.489 749.001 989.924C745.976 990.36 738.776 990.803 733.001 990.909C727.226 991.014 707.876 991.795 690.001 992.643C651.325 994.478 540.942 994.772 510.5 993.12C499.5 992.523 484.65 991.801 477.5 991.516C459.389 990.792 447.246 990.071 435 988.99C429.225 988.48 420.225 987.813 415 987.507C409.775 987.201 401.225 986.686 396 986.361C390.775 986.037 381.325 985.672 375 985.551C368.675 985.43 361.925 985.039 360 984.683C355.674 983.884 335.034 982.86 285.5 980.988C270.65 980.427 249.05 979.539 237.5 979.015C216.556 978.065 199.908 977.424 171.5 976.474C163.25 976.198 155.15 975.777 153.5 975.538C151.85 975.298 143.975 974.815 136 974.463C128.025 974.111 119.25 973.638 116.5 973.412C103.884 972.372 34.9635 971.979 28.5095 972.91C19.8555 974.157 20.3404 974.8 19.5244 961C18.7174 947.365 18.7036 950.707 19.6426 933C20.0656 925.025 20.3515 914.225 20.2795 909C19.3225 840.196 20.1466 742.911 21.8816 720C22.3186 714.225 22.8025 700.725 22.9565 690C23.1105 679.275 23.3405 667.125 23.4685 663C24.7425 621.815 25.4285 556.665 25.6055 460C25.7225 396.475 26.1314 333.475 26.5144 320C26.8984 306.525 27.2174 294.6 27.2234 293.5C27.2294 292.4 27.2365 282.275 27.2385 271C27.2455 235.844 27.6674 207.129 28.4214 190.5C28.8214 181.7 29.2766 143.45 29.4336 105.5C29.7476 29.7119 24.5405 34.9879 97.0005 37.0339C109.858 37.3969 169.617 36.2449 177 35.4909C178.925 35.2949 201.875 35.158 228 35.186C254.125 35.215 279.775 35.2299 285 35.2189C303.808 35.1819 333.772 33.818 347.5 32.373C355.2 31.563 367.125 30.46 374 29.922C380.875 29.385 390.1 28.565 394.5 28.101C398.9 27.638 409.7 26.71 418.5 26.04C427.3 25.37 440.35 24.202 447.5 23.444C464.014 21.695 542.101 22.397 571.5 24.559Z" fill="#025354"/>
</svg>
