<svg width="642" height="832" viewBox="0 0 642 832" fill="none" xmlns="http://www.w3.org/2000/svg">
<path fill-rule="evenodd" clip-rule="evenodd" d="M229 1.68604C188.986 5.19704 175.867 5.50911 133.5 3.95411C115.35 3.28811 97.1254 2.88795 93.0004 3.06495C79.5674 3.64295 60.7464 3.42589 48.8644 2.55689C29.1624 1.11589 27.6674 3.04911 29.1724 28.0061C29.9304 40.5721 29.8894 46.2399 29.0124 50.1919C27.9544 54.9569 26.9284 76.004 25.4394 123.5C25.1634 132.3 24.5014 142.795 23.9684 146.822C23.4364 150.85 22.9764 158.95 22.9464 164.822C22.9164 170.695 22.4943 179.1 22.0073 183.5C21.5213 187.9 20.6374 197.35 20.0434 204.5C19.4484 211.65 18.4363 222.45 17.7943 228.5C16.4253 241.383 16.1573 251.216 15.4243 315.5C14.8263 367.859 14.2974 402.088 13.4044 446C13.0854 461.675 12.8714 479.534 12.9284 485.687C12.9864 491.839 12.1254 505.075 11.0164 515.099C9.90738 525.124 9.00039 536.891 9.00039 541.249C9.00039 545.608 8.36041 554.647 7.57741 561.337C6.79441 568.027 5.85834 583.4 5.49734 595.5C4.42834 631.301 2.90341 655.333 0.817405 669.242C-0.0685947 675.151 -0.0555928 684.862 0.869407 710.242C1.57241 729.528 1.76339 749.381 1.32339 757.5C0.906387 765.2 0.622405 773.075 0.692405 775C0.762405 776.925 0.981391 787.799 1.17739 799.164C1.65339 826.703 2.28436 827.431 22.8194 824.133C29.0454 823.133 36.0204 822.45 38.3194 822.615C46.6684 823.215 68.7344 825.074 78.5004 825.999C101.318 828.161 182.346 831.675 196.5 831.116C197.6 831.073 232.025 831.122 273 831.226C472.023 831.732 496.634 831.492 517.5 828.849C521.9 828.291 532.535 827.656 541.134 827.437C549.733 827.218 557.962 826.585 559.42 826.03C560.879 825.476 567.793 824.974 574.786 824.915C581.779 824.857 589.75 824.39 592.5 823.879C595.25 823.367 602.223 822.688 607.996 822.369C629.384 821.188 635.063 815.438 635.52 794.5C635.712 785.7 636.335 773.325 636.906 767C637.476 760.675 637.955 744.77 637.971 731.655C637.994 712.467 638.323 706.705 639.655 702.155C641.956 694.299 642.13 619.693 639.893 600.338C638.612 589.25 637.971 550.994 637.466 455.5C637.058 378.396 636.812 363.676 635.548 341C635.287 336.325 634.826 299.875 634.523 260C633.745 157.536 633.13 103.846 632.452 79C632.129 67.175 631.733 49.6219 631.572 39.9939C631.129 13.3989 629.272 10.7179 610.5 9.57691C580.708 7.76691 560.723 7.42102 520 8.01002C506.525 8.20502 488.075 8.0161 479 7.5901C469.925 7.1631 457.55 6.67895 451.5 6.51295C445.45 6.34795 437.8 5.91501 434.5 5.55201C425.913 4.60601 418.477 4.16193 392.5 3.04493C379.85 2.50093 368.068 1.8041 366.319 1.4961C362.114 0.755101 294.269 0.716109 293.075 1.45411C292.014 2.10911 274.25 2.11397 269 1.45997C260.57 0.408968 242.38 0.512043 229 1.68604ZM392.5 22.9519C407.9 23.4649 425.675 24.3661 432 24.9541C488.924 30.2491 520.063 31.523 555.5 30.01C621.946 27.172 614.291 25.58 611.83 41.717C609.844 54.736 608.881 90.029 608.657 158C608.588 178.731 608.6 199.442 608.695 222.5C608.742 234.05 608.761 249.575 608.737 257C608.611 296.248 609.125 337.149 609.805 342C610.23 345.025 610.173 356.628 609.68 367.783C608.921 384.929 609.05 390.112 610.51 401.283C611.46 408.553 612.614 420.125 613.074 427C614.097 442.278 614.034 440.716 614.048 451C614.054 455.675 614.496 461.979 615.03 465.01C616.144 471.333 616.529 488.505 615.915 504.5C615.682 510.55 616.034 522.7 616.696 531.5C617.358 540.3 617.93 556.05 617.966 566.5C618.002 576.95 618.455 590.675 618.973 597C620.499 615.652 619.811 688.754 617.908 710.061C617.292 716.97 617.002 728.524 617.266 735.737C619.002 783.241 615.972 791.457 596 793.398C586.925 794.279 574.325 795.464 568 796.031C561.675 796.597 552 797.501 546.5 798.039C541 798.577 527.05 799.69 515.5 800.514C503.95 801.337 491.8 802.464 488.5 803.019C485.2 803.575 475.975 804.473 468 805.016C460.025 805.559 448.775 806.522 443 807.155C422.262 809.432 295.353 808.79 230 806.078C215.975 805.496 191.9 804.776 176.5 804.479C147.449 803.918 135.608 803.599 96.0004 802.314C83.0754 801.894 61.7004 801.539 48.5004 801.525C20.0184 801.495 21.6143 805.277 23.1583 741.5C23.4373 729.95 23.3244 712.175 22.9054 702C22.1504 683.633 22.3143 681.055 25.9403 654.5C26.4663 650.65 27.1194 640.975 27.3924 633C29.3514 575.722 30.0774 559.953 30.9354 556C31.4734 553.525 31.9413 546.55 31.9763 540.5C32.0113 534.45 32.7154 523.875 33.5404 517C34.3664 510.125 35.0554 497.975 35.0714 490C35.0874 482.025 35.5804 469.65 36.1674 462.5C36.9174 453.359 36.9224 446.087 36.1834 438C35.3424 428.801 35.4183 424.854 36.5653 418.272C37.5593 412.564 37.7924 407.051 37.3244 400.272C36.9534 394.897 36.6563 385.1 36.6643 378.5C36.6933 353.302 36.7323 340.394 36.7893 337.5C38.3143 259.079 38.8444 241.87 39.9474 235.011C40.5234 231.43 41.4544 220.006 42.0164 209.624C42.5784 199.242 43.2164 190.46 43.4334 190.109C44.0334 189.138 44.9533 175.606 45.1063 165.5C45.1813 160.55 45.6274 152.9 46.0984 148.5C46.5684 144.1 47.1974 133.975 47.4944 126C47.7924 118.025 48.4214 106.211 48.8924 99.7471C49.3634 93.2831 49.5213 83.9971 49.2423 79.1121C48.9643 74.2271 49.3144 65.116 50.0214 58.865C50.7284 52.614 51.5753 43.45 51.9033 38.5C52.5003 29.5 52.5004 29.4999 81.5004 29.4109C97.4504 29.3619 114.775 28.962 120 28.523C125.225 28.084 147.275 27.619 169 27.489C213.425 27.223 229.761 26.5531 245 24.3721C250.775 23.5451 264.725 22.6351 276 22.3501C287.275 22.0651 296.611 21.7209 296.746 21.5859C297.253 21.0809 365.547 22.0549 392.5 22.9519Z" fill="black"/>
</svg>
