<svg width="998" height="1025" viewBox="0 0 998 1025" preserveAspectRatio="none" fill="none" xmlns="http://www.w3.org/2000/svg">
<path fill-rule="evenodd" clip-rule="evenodd" d="M367.699 0.615258C367.589 0.714258 357.825 1.07692 346 1.42092C334.175 1.76492 320.225 2.25193 315 2.50393C300.366 3.20693 280.557 3.89221 257.5 4.49221C245.95 4.79221 234.7 5.25693 232.5 5.52493C230.3 5.79293 216.125 6.45891 201 7.00491C185.875 7.55191 170.8 8.20696 167.5 8.46096C164.2 8.71596 154.525 9.17496 146 9.48196C130.022 10.058 120.274 10.4791 96.9996 11.6001C89.5746 11.9581 80.7996 12.3811 77.4996 12.5391C70.7686 12.8631 40.5916 14.0309 37.4996 14.0869C36.3996 14.1069 30.3246 14.6329 23.9996 15.2559C17.6746 15.8779 11.8827 16.2681 11.1287 16.1221C4.29867 14.8001 2.96867 21.541 2.57167 59.5C2.39867 76 2.00268 90.5012 1.69068 91.7232C-0.317315 99.6082 1.47562 156.68 4.62062 185C7.22962 208.492 7.22158 212.232 4.51258 233.5C3.63858 240.37 2.8946 259.662 2.5326 284.883C2.2136 307.094 1.73667 325.616 1.47267 326.044C1.20767 326.472 0.999678 338.225 1.00868 352.161C1.01768 366.097 0.966641 378.85 0.895641 380.5C0.823641 382.15 0.767641 386.425 0.770641 390C0.773641 393.575 0.761663 397.175 0.743663 398C0.177663 424.771 0.829637 500.009 1.79164 519C2.50264 533.025 3.25468 550.8 3.46168 558.5C3.66868 566.2 4.12166 579.7 4.46766 588.5C6.34966 636.405 6.92359 664.009 7.47059 733C7.75159 768.475 7.98867 809.875 7.99867 825C8.00767 840.125 8.49969 858.014 9.09169 864.753C9.68469 871.492 10.2987 889.942 10.4557 905.753C10.6137 921.564 11.2707 938.775 11.9157 944C12.5607 949.225 12.9666 961.159 12.8186 970.521C12.4026 996.651 12.2857 996.55 44.1957 997.548C76.4437 998.556 86.5376 998.765 138.5 999.498C165.45 999.879 195.6 1000.62 205.5 1001.15C215.4 1001.67 227.359 1002.3 232.076 1002.54C243.001 1003.09 252.517 1003.87 262 1005.02C266.125 1005.51 273.775 1006.2 279 1006.55C284.225 1006.89 289.625 1007.37 291 1007.6C292.375 1007.83 300.025 1008.69 308 1009.51C328.392 1011.59 330.396 1011.8 340.5 1012.91C345.45 1013.45 352.65 1014.12 356.5 1014.41C360.35 1014.69 365.75 1015.16 368.5 1015.46C378.856 1016.56 382.81 1016.94 394 1017.92C418.134 1020.04 432.798 1021.17 441 1021.55C463.929 1022.6 473.043 1023.07 479 1023.5C494.093 1024.61 542.499 1024.96 553.539 1024.05C560.118 1023.51 570.576 1022.83 576.78 1022.55C587.69 1022.06 598.915 1020.96 613.5 1018.98C617.35 1018.46 626.125 1017.78 633 1017.47C639.875 1017.17 648.2 1016.49 651.5 1015.97C662.978 1014.15 712.723 1012.96 740 1013.85C754.575 1014.33 787.2 1014.55 812.5 1014.33C879.697 1013.76 892.804 1013.79 910 1014.57C918.525 1014.95 934.275 1015.39 945 1015.54C955.725 1015.7 967.136 1016.06 970.357 1016.36C973.579 1016.66 979.204 1016.44 982.857 1015.89C986.511 1015.34 991.42 1014.64 993.767 1014.34C998.443 1013.74 998.636 1012.03 995.996 994.5C995.499 991.2 994.857 986.925 994.57 985C994.283 983.075 993.772 977.45 993.435 972.5C993.098 967.55 992.417 960.35 991.922 956.5C988.628 930.876 987.982 922.103 987.765 900C987.542 877.238 988.61 835.388 989.59 828.5C990.826 819.819 991.01 621.999 989.782 621.985C988.774 621.973 988.765 621.801 989.741 621.181C990.478 620.713 991.025 617.981 991.089 614.447C991.269 604.582 989.465 514.12 988.449 482C988.161 472.925 987.96 464.825 988 464C988.074 462.509 989.176 359.798 989.507 323.5C989.73 299.128 989.86 288.486 989.997 283.5C990.822 253.494 990.48 185.284 989.454 175C988.768 168.125 988.235 155.75 988.269 147.5C988.304 139.25 987.743 126.064 987.024 118.197C986.158 108.732 985.987 100.444 986.518 93.6968C987.347 83.1628 987.371 78.954 986.78 48.5C986.414 29.651 985.145 24.24 981.425 25.667C980.545 26.005 980 25.5802 980 24.5562C980 20.1522 959.331 18.348 945 21.5C937.536 23.142 930.254 23.3411 924.5 22.0611C922.3 21.5721 917.125 20.8862 913 20.5362C908.875 20.1872 899.875 19.2981 893 18.5601C886.125 17.8221 879.6 17.242 878.5 17.271C877.4 17.299 869.75 16.5989 861.5 15.7139C836.245 13.0059 825.894 12.5588 824.896 14.1338C824.324 15.0368 824.025 15.0971 824.015 14.3111C823.988 12.2131 790.72 10.4569 753.5 10.5899C729.746 10.6749 720.843 10.6798 713 10.6118C695.677 10.4628 669.229 11.393 667 12.229C664.407 13.202 649.857 13.4032 642 12.5752C639.525 12.3142 632.325 11.8201 626 11.4761C619.675 11.1331 612.25 10.6859 609.5 10.4839C606.75 10.2819 598.875 9.84804 592 9.52004C576.39 8.77404 569.405 8.2969 555.5 7.0259C540.978 5.6989 531.917 5.07712 518 4.45412C511.675 4.17012 502.45 3.69688 497.5 3.40188C492.55 3.10688 483.775 2.71381 478 2.52981C472.225 2.34581 459.85 1.8982 450.5 1.5342C435.009 0.933203 368.169 0.191258 367.699 0.615258ZM474 24.9419C483.075 25.5619 493.65 26.0651 497.5 26.0591C505.42 26.0461 528.381 27.372 547 28.917C569.824 30.811 589.68 32.0121 606.5 32.5171C613.1 32.7151 623.457 33.3222 629.516 33.8662C635.574 34.4112 641.199 34.7909 642.016 34.7119C642.832 34.6329 649.125 34.885 656 35.272C662.875 35.66 675.7 36.2182 684.5 36.5122C693.3 36.8062 704.325 37.2609 709 37.5239C713.675 37.7859 722.9 38.2222 729.5 38.4912C736.1 38.7612 746.675 39.2051 753 39.4781C770.645 40.2411 814.313 41.8691 816 41.8281C816.825 41.8071 821.1 42.0478 825.5 42.3628C829.9 42.6768 837.775 43.1928 843 43.5078C848.225 43.8238 854.75 44.2852 857.5 44.5342C869.271 45.5982 935 46.3151 961 45.6631C967.5 45.5001 967.5 45.5 967.63 50.5C967.702 53.25 968.11 58.65 968.537 62.5C969.423 70.49 969.418 69.971 968.756 88C968.484 95.425 967.929 102.288 967.523 103.25C967.084 104.293 967.223 105 967.868 105C968.598 105 968.653 105.783 968.037 107.402C967.468 108.899 967.526 112.195 968.191 116.152C968.778 119.643 969.435 132.85 969.651 145.5C969.985 165.072 971.175 274.543 971.085 277.5C971.069 278.05 970.856 281.65 970.612 285.5C968.838 313.514 968.009 467.812 969.287 532C969.709 553.175 970.291 583.325 970.58 599C970.869 614.675 971.339 705.35 971.622 800.5C971.906 895.65 972.22 978.225 972.319 984C972.5 994.5 972.5 994.5 967.5 994.399C964.75 994.344 949 993.906 932.5 993.427C902.234 992.548 877.202 992.566 822.757 993.508C806.398 993.792 774.448 993.566 751.757 993.006C706.322 991.886 654.639 993.087 644.284 995.504C643.065 995.788 634.515 996.476 625.284 997.033C602.306 998.418 594.715 999.003 593.264 999.502C592.584 999.735 586.059 1000.2 578.764 1000.53C571.469 1000.86 562.125 1001.53 558 1002.01C547.584 1003.22 499.868 1003.26 479.985 1002.07C470.918 1001.53 456.975 1000.84 449 1000.55C441.025 1000.25 429.775 999.546 424 998.987C418.225 998.429 407.2 997.507 399.5 996.939C391.8 996.371 383.7 995.732 381.5 995.52C374.658 994.861 365.828 994.122 357.5 993.512C353.1 993.189 344.55 992.291 338.5 991.516C332.45 990.741 324.125 989.833 320 989.498C315.875 989.164 310.25 988.496 307.5 988.014C304.75 987.532 297.775 986.869 292 986.541C286.225 986.213 280.15 985.751 278.5 985.515C276.85 985.279 272.381 984.829 268.569 984.516C264.758 984.203 260.708 983.745 259.569 983.498C258.431 983.252 250.975 982.808 243 982.514C235.025 982.219 222.875 981.654 216 981.257C202.329 980.469 153.955 980.493 85.4996 981.322C26.3096 982.039 32.4527 983.678 32.4317 967.167C32.4147 954.464 31.6136 940.903 30.5316 935C30.2796 933.625 29.8616 915.069 29.6036 893.764C29.3466 872.46 28.8706 854.601 28.5476 854.078C27.8706 852.982 27.8187 825.705 28.4817 819C28.7257 816.525 28.5006 808.189 27.9806 800.475C27.4606 792.761 27.1136 777.686 27.2096 766.975C27.4106 744.445 27.3877 737.38 26.9877 700C26.8257 684.875 26.5527 672.232 26.3827 671.904C26.0317 671.231 25.4296 649.528 24.6376 609C24.3426 593.875 23.8667 576.55 23.5817 570.5C23.2957 564.45 22.8166 552.525 22.5166 544C22.2166 535.475 21.7637 525.575 21.5097 522C19.9837 500.507 19.6667 481.198 19.7947 417.5C19.8737 378.45 20.1597 340.875 20.4317 334C20.7037 327.125 21.1977 313.4 21.5307 303.5C21.8627 293.6 22.5677 281.9 23.0977 277.5C23.6267 273.1 24.4886 262.3 25.0116 253.5C25.5346 244.7 26.2157 235.025 26.5247 232C28.6697 211.015 30.1967 131.746 28.5087 129.015C27.1717 126.851 25.8626 100.885 25.5736 70.793C25.1986 31.841 21.9826 36.4848 49.9996 35.5288C67.8286 34.9198 82.5886 34.2949 98.7516 33.4639C104.39 33.1739 117.215 32.6869 127.252 32.3819C137.288 32.0779 150 31.4688 155.5 31.0298C161 30.5908 179.225 29.9329 196 29.5659C212.775 29.1999 229.875 28.495 234 28.001C238.125 27.507 252.75 26.803 266.5 26.437C280.25 26.072 291.752 25.6248 292.059 25.4448C292.367 25.2648 297.317 25.0309 303.059 24.9239C308.802 24.8179 315.525 24.4362 318 24.0772C325.429 22.9992 456.183 23.7229 474 24.9419Z" fill="#025354"/>
</svg>
