<svg width="1412" height="868" viewBox="0 0 1412 868" fill="none" xmlns="http://www.w3.org/2000/svg">
<path fill-rule="evenodd" clip-rule="evenodd" d="M537.369 0.49087C536.879 0.98087 502.475 1.85491 480.43 1.93691C477.287 1.94891 474.443 2.39794 474.111 2.93594C473.779 3.47394 472.975 3.57882 472.326 3.16982C470.341 1.91982 458.735 1.80292 447.145 2.91592C441.095 3.49692 430.183 3.92284 422.895 3.86184C412.565 3.77584 409.642 4.04194 409.63 5.06594C409.618 6.10494 409.431 6.09186 408.741 5.00186C407.915 3.69786 394.909 3.85686 378.145 5.37686C375.945 5.57686 365.482 5.80088 354.895 5.87588C344.308 5.95088 335.646 6.31983 335.647 6.69583C335.648 7.07283 331.369 7.23791 326.138 7.06191C319.194 6.82891 315.823 7.14486 313.645 8.23086C312.005 9.04886 310.425 9.33284 310.134 8.86184C309.406 7.68484 296.704 7.77891 294.462 8.97891C293.221 9.64291 292.645 9.60484 292.645 8.85684C292.645 8.25484 292.303 7.97393 291.884 8.23293C290.656 8.99193 278.959 10.0229 267.645 10.3689C255.43 10.7429 253.801 11.0218 252.58 12.9508C252.083 13.7378 251.669 13.8939 251.66 13.2979C251.652 12.7019 250.857 12.1499 249.895 12.0719C245.866 11.7429 233.321 11.9629 232.655 12.3749C232.258 12.6199 229.394 12.9039 226.289 13.0049C220.946 13.1799 219.385 13.9839 221.661 15.3909C223.156 16.3149 221.83 17.8889 220.113 17.2299C219.306 16.9209 218.645 15.9049 218.645 14.9739C218.645 12.8749 178.375 13.2429 167.424 15.4419C166.17 15.6939 157.72 16.1669 148.645 16.4939C133.623 17.0359 126.171 17.4009 122.968 17.7519C122.321 17.8229 121.586 18.6679 121.334 19.6309C120.94 21.1389 120.861 21.1529 120.761 19.7339C120.553 16.7789 85.6678 18.2449 85.6298 21.2099C85.6188 22.0499 85.3918 22.0308 84.8288 21.1438C84.2508 20.2348 83.1478 20.1628 80.6718 20.8728C78.3498 21.5388 76.8868 21.4969 75.9728 20.7379C75.2428 20.1319 74.6448 20.0289 74.6448 20.5089C74.6448 20.9879 71.8698 21.3809 68.4778 21.3809C65.0868 21.3809 62.1558 21.8478 61.9648 22.4198C61.7688 23.0088 59.2488 23.3558 56.1318 23.2218C53.1138 23.0918 50.6448 23.2999 50.6448 23.6829C50.6448 24.0669 49.4068 24.4149 47.8948 24.4569C41.0198 24.6479 28.6448 27.3649 28.6448 28.6829C28.6448 29.0819 26.8848 30.4968 24.7338 31.8258C22.0898 33.4598 20.6338 35.1839 20.2418 37.1459C19.9228 38.7429 18.8178 41.2489 17.7878 42.7149C16.1028 45.1119 15.0298 49.5269 13.9788 58.3809C13.4188 63.1029 13.6118 77.9019 14.2678 80.5139C14.5948 81.8159 14.4548 82.8809 13.9578 82.8809C13.4608 82.8809 12.9428 84.5298 12.8068 86.5448C12.6708 88.5598 12.3368 90.5709 12.0638 91.0119C10.9748 92.7739 10.5778 112.722 11.6188 113.365C12.2008 113.725 12.3788 114.502 12.0138 115.093C11.6488 115.684 11.2318 121.39 11.0868 127.774C10.8028 140.314 9.99382 151.818 9.10082 156.004C8.69782 157.896 9.01283 158.808 10.2298 159.275C11.7308 159.851 11.7538 160.113 10.4338 161.652C8.88982 163.451 8.17582 173.473 9.53082 174.311C9.94182 174.565 10.0438 180.76 9.75582 188.077C9.09382 204.942 9.41083 257.694 10.1818 258.942C10.5018 259.458 10.1738 259.895 9.45383 259.913C8.58483 259.934 8.73282 260.391 9.89482 261.273C11.7318 262.667 12.3668 264.445 10.6488 263.384C10.1018 263.045 9.09383 263.995 8.41083 265.495C7.42383 267.662 7.42282 268.307 8.40682 268.635C9.79382 269.097 10.1228 271.881 8.78882 271.881C7.97382 271.881 8.13282 281.212 9.11182 290.881C9.79182 297.6 9.71982 307.05 8.96582 309.881C8.59982 311.256 8.23783 323.181 8.16083 336.381C8.08483 349.581 7.71583 361.286 7.34183 362.393C6.05583 366.195 5.60083 371.416 5.11983 387.881C4.85483 396.956 4.23982 407.756 3.75482 411.881C3.26882 416.006 2.84582 420.056 2.81282 420.881C2.78082 421.706 2.46382 426.604 2.10782 431.765C1.60382 439.075 1.75783 441.337 2.80283 442C3.73183 442.589 3.77483 442.855 2.94083 442.866C2.06283 442.877 1.75483 446.329 1.80283 455.631C1.83983 462.644 1.49782 470.406 1.04282 472.881C0.252818 477.184 -0.0641748 501.286 0.418825 520.381C0.543825 525.331 0.511826 531.181 0.347826 533.381C0.183826 535.581 0.396825 538.394 0.821825 539.631C1.29683 541.012 1.19582 541.881 0.560824 541.881C-0.00817645 541.881 -0.171175 542.369 0.196825 542.966C0.565825 543.563 1.03882 548.175 1.24782 553.216C1.45682 558.257 1.98183 565.782 2.41483 569.939C2.84883 574.097 2.86382 579.047 2.44882 580.939C0.344824 590.536 2.13882 624.991 4.93082 628.631C5.54982 629.438 5.51483 630.332 4.83283 631.155C3.73183 632.481 3.84983 638.785 5.00983 640.663C5.37683 641.257 5.21983 642.025 4.66083 642.371C3.17683 643.288 3.38182 649.878 4.89482 649.896C5.81482 649.908 5.78583 650.139 4.78783 650.771C3.93683 651.311 3.68183 652.423 4.10483 653.756C4.52083 655.064 4.34682 655.881 3.65282 655.881C3.03382 655.881 2.77782 656.287 3.08382 656.782C4.34082 658.816 5.74282 677.538 5.95082 695.061C6.07282 705.335 6.48782 714.057 6.87282 714.443C7.25882 714.828 7.12482 715.985 6.57482 717.012C6.02482 718.04 5.92782 718.881 6.35982 718.882C6.79182 718.882 7.20082 721.695 7.26882 725.132C7.33682 728.569 7.97083 735.656 8.67783 740.881C9.38583 746.106 9.93182 751.281 9.89282 752.381C9.75682 756.179 10.6778 758.978 11.8288 758.267C12.5778 757.805 12.6718 758.029 12.1098 758.938C10.8548 760.968 11.5678 797.855 13.0748 808.881C13.4878 811.906 13.8678 815.594 13.9178 817.078C13.9678 818.561 14.4248 819.517 14.9338 819.203C15.4688 818.871 15.5978 819.841 15.2388 821.506C14.5198 824.834 16.0278 830.865 17.8768 832.061C18.8608 832.697 18.8738 833.057 17.9338 833.666C16.4538 834.625 19.2878 839.214 21.6448 839.673C22.4698 839.834 23.8898 840.844 24.7998 841.917C26.0648 843.408 27.1968 843.721 29.5928 843.241C31.9768 842.765 33.0528 843.057 34.0788 844.46C35.2238 846.026 35.6718 846.103 37.0368 844.971C38.1328 844.061 38.6448 844 38.6448 844.78C38.6448 845.556 41.1388 845.867 46.3948 845.745C50.6578 845.646 56.3948 845.846 59.1448 846.19C61.8948 846.534 67.7448 847.078 72.1448 847.401C76.5448 847.723 81.6078 848.115 83.3948 848.273C85.1828 848.43 86.6468 848.294 86.6498 847.97C86.6548 847.356 98.7468 846.872 111.645 846.97C115.77 847.001 120.945 846.944 123.145 846.843C125.345 846.742 127.595 846.704 128.145 846.758C134.81 847.419 147.299 847.937 161.394 848.137C170.881 848.271 178.643 848.643 178.644 848.964C178.645 849.467 181.39 849.823 185.895 849.903C198.052 850.12 206.146 849.241 206.158 847.702C206.178 844.99 207.356 844.592 207.981 847.084C208.544 849.328 228.182 850.424 233.216 848.492C233.966 848.204 234.785 848.299 235.035 848.702C235.284 849.106 241.936 849.55 249.817 849.69C265.369 849.964 274.597 850.509 281.636 851.569C287.192 852.406 287.68 852.404 300.645 851.506C310.315 850.835 315.654 850.746 330.645 851.003C339.532 851.155 340.645 850.974 340.645 849.381C340.645 848.556 341.095 847.881 341.645 847.881C342.195 847.881 342.645 848.528 342.645 849.319C342.645 850.11 343.433 850.735 344.395 850.708C345.357 850.681 347.634 850.996 349.453 851.407C352.315 852.053 352.836 851.866 353.32 850.018C354.003 847.404 355.246 847.248 355.887 849.697C356.264 851.139 357.11 851.425 360.003 851.087C362.006 850.854 363.645 851.086 363.645 851.605C363.645 853.252 462.1 854.305 464.273 852.681C464.9 852.213 466.619 852.301 468.141 852.88C471.339 854.095 483.024 853.607 484.875 852.18C486.052 851.274 576.196 851.36 584.411 852.275C586.207 852.475 587.861 852.34 588.087 851.975C588.313 851.61 591.674 851.407 595.557 851.524C599.439 851.641 602.879 851.312 603.2 850.793C603.521 850.273 604.105 850.047 604.498 850.29C604.891 850.533 611.498 851.024 619.179 851.381C626.86 851.738 634.001 852.274 635.046 852.571C636.49 852.982 636.798 852.723 636.328 851.496C635.987 850.608 636.144 849.881 636.676 849.881C637.209 849.881 637.645 850.545 637.645 851.356C637.645 852.517 638.179 852.629 640.145 851.881C641.789 851.256 642.645 851.276 642.645 851.941C642.645 852.618 643.262 852.621 644.514 851.951C645.541 851.401 646.666 851.236 647.014 851.583C647.361 851.93 647.645 851.634 647.645 850.925C647.645 849.907 647.992 849.924 649.298 851.009C651.42 852.771 672.768 853.199 673.88 851.502C674.383 850.734 674.619 850.809 674.63 851.739C674.64 852.678 675.398 852.909 677.084 852.486C678.425 852.149 679.732 852.213 679.988 852.627C680.541 853.523 706.997 853.4 708.462 852.494C709.019 852.15 709.625 852.297 709.81 852.821C710.225 854.001 728.135 855.9 744.145 856.462C750.745 856.694 762.445 857.159 770.145 857.495C777.845 857.832 789.995 858.269 797.145 858.468C811.479 858.867 824.704 859.8 825.823 860.491C827.201 861.343 884.491 862.546 897.508 861.997C899.908 861.895 906.883 862.151 913.008 862.565C919.134 862.978 927.858 863.278 932.395 863.232C936.932 863.185 940.645 863.433 940.645 863.784C940.645 864.135 947.507 864.474 955.895 864.537C976.036 864.688 998.235 865.447 1013.64 866.51C1051.62 869.129 1175.6 866.484 1177.63 863.011C1178.25 861.95 1178.59 861.834 1178.61 862.678C1178.64 863.979 1179.05 863.976 1209.14 862.441C1212.44 862.273 1215.14 862.049 1215.14 861.943C1215.14 861.838 1220.87 861.59 1227.87 861.392C1234.86 861.195 1241.09 860.722 1241.71 860.342C1242.32 859.962 1245.37 859.545 1248.49 859.416C1259.57 858.956 1274.25 857.756 1281.14 856.745C1293.37 854.952 1294.08 854.794 1294.74 853.72C1295.19 852.996 1295.61 853.018 1296.09 853.791C1296.47 854.408 1297.26 854.62 1297.84 854.26C1299.37 853.314 1309.22 852.934 1334.14 852.862C1346.24 852.827 1358.95 852.286 1362.37 851.661C1367.78 850.673 1368.83 850.739 1370.41 852.165C1372.32 853.894 1377.12 853.457 1376.01 851.656C1375.67 851.107 1375.93 850.325 1376.58 849.919C1377.61 849.283 1378.27 847.522 1378.57 844.631C1378.61 844.219 1379.51 843.881 1380.57 843.881C1382.9 843.881 1383.77 839.975 1385.2 822.881C1385.45 819.856 1385.95 815.806 1386.31 813.881C1386.67 811.956 1387.05 802.731 1387.16 793.381C1387.27 784.031 1387.84 770.306 1388.43 762.881C1389.02 755.456 1389.56 745.556 1389.63 740.881C1389.7 736.206 1389.98 729.456 1390.25 725.881C1390.51 722.306 1390.9 716.906 1391.11 713.881C1391.32 710.856 1391.52 708.275 1391.56 708.146C1391.61 708.017 1391.89 702.617 1392.2 696.146C1392.5 689.675 1393 682.356 1393.3 679.881C1393.6 677.406 1394 670.206 1394.18 663.881C1394.37 657.556 1394.82 648.444 1395.19 643.631C1395.72 636.77 1395.58 634.881 1394.56 634.881C1393.8 634.881 1394.06 634.298 1395.2 633.462C1396.77 632.321 1397.12 630.905 1397.04 626.212C1396.57 599.099 1396.69 562.665 1397.28 554.881C1398.28 541.753 1398.01 531.722 1396.62 530.868C1395.81 530.364 1395.88 530.004 1396.88 529.622C1397.87 529.239 1398.33 526.999 1398.45 521.807C1398.54 517.804 1399.07 512.021 1399.62 508.955C1400.18 505.889 1400.69 494.156 1400.76 482.881C1400.95 454.801 1400.83 451.442 1399.6 451.034C1398.97 450.824 1399.16 450.211 1400.06 449.53C1401.35 448.557 1401.67 443.179 1402.15 414.381C1402.46 395.681 1402.96 378.581 1403.26 376.381C1403.56 374.181 1403.72 371.031 1403.63 369.381C1403.53 367.731 1403.49 365.706 1403.54 364.881C1403.58 364.056 1403.82 357.306 1404.07 349.881C1404.31 342.456 1404.62 336.156 1404.74 335.881C1405.33 334.609 1405.57 322.062 1405.47 298.881C1405.45 293.106 1405.51 286.806 1405.62 284.881C1405.73 282.956 1405.52 278.231 1405.16 274.381C1404.8 270.531 1404.55 266.931 1404.6 266.381C1405.43 257.419 1406.21 235.487 1405.91 229.806C1405.12 214.853 1405.77 192.313 1407.11 188.84C1407.77 187.124 1407.36 183.261 1406.42 182.322C1406.08 181.986 1406.26 180.424 1406.8 178.851C1407.35 177.278 1407.62 174.054 1407.4 171.686C1407.17 169.318 1407.4 166.256 1407.9 164.881C1409.23 161.215 1410.56 104.728 1409.7 88.3809C1409.5 84.5309 1409.91 78.6809 1410.62 75.3809C1411.9 69.3649 1411.33 41.7909 1409.86 39.4229C1408.87 37.8149 1409.03 34.4609 1410.14 33.6669C1411.52 32.6849 1411 23.0139 1409.47 21.1739C1408.79 20.3519 1408.13 19.0079 1408.01 18.1879C1407.37 13.8389 1398.2 14.7668 1397.35 19.2678C1397.02 21.0178 1396.82 20.8469 1396.2 18.2769C1395.51 15.4159 1395.21 15.2239 1392.3 15.8279C1390.56 16.1879 1387.08 16.1618 1384.56 15.7688C1382.04 15.3758 1375.97 15.0008 1371.06 14.9348C1366.16 14.8688 1357.26 14.5439 1351.29 14.2119C1342.63 13.7309 1340.25 13.8899 1339.55 14.9949C1339.03 15.8139 1338.67 15.9149 1338.66 15.2399C1338.65 14.4989 1336.02 14.0598 1331.14 13.9868C1325.09 13.8958 1323.64 14.1638 1323.64 15.3778C1323.64 16.2048 1323.16 16.8809 1322.58 16.8809C1321.96 16.8809 1321.78 16.0279 1322.14 14.8809C1322.8 12.8089 1321.26 12.0838 1320.11 13.9298C1319.67 14.6458 1319.02 14.6059 1318.05 13.8029C1317.16 13.0679 1315.14 12.8659 1312.64 13.2659C1310.35 13.6329 1308.64 13.5019 1308.64 12.9589C1308.64 12.4099 1302.46 11.9958 1293.89 11.9718C1279.95 11.9328 1270.96 11.4928 1264.14 10.5178C1262.49 10.2818 1260.69 10.3669 1260.14 10.7069C1258.5 11.7239 1256.69 11.7619 1256.09 10.7919C1255.3 9.51589 1248.64 9.64784 1248.64 10.9398C1248.64 11.5218 1248.14 11.6899 1247.53 11.3109C1245.43 10.0099 1226.65 9.90585 1226.63 11.1948C1226.62 11.9008 1226.22 11.7729 1225.64 10.8809C1225.11 10.0559 1224.67 9.77383 1224.66 10.2528C1224.65 10.7328 1224.08 10.6928 1223.39 10.1638C1222.71 9.63584 1219.6 9.18093 1216.48 9.15493C1213.37 9.12893 1210.22 8.73386 1209.48 8.27786C1208.75 7.82186 1202.74 7.33993 1196.14 7.20693C1189.54 7.07393 1183.12 6.70983 1181.87 6.39883C1180.63 6.08683 1178.68 6.32493 1177.56 6.92593C1176.05 7.73293 1175.14 7.70691 1174.08 6.82791C1172.96 5.90091 1172.64 5.91188 1172.64 6.88088C1172.64 7.86888 1172.34 7.87187 1171.16 6.89187C1170.34 6.21287 1168.96 5.93089 1168.08 6.26589C1167.21 6.59989 1165.63 6.40994 1164.57 5.84194C1163.24 5.12794 1162.03 5.13988 1160.64 5.88088C1159.54 6.46988 1158.64 6.59792 1158.64 6.16592C1158.64 5.73392 1149.76 5.38088 1138.89 5.38088C1128.03 5.38088 1118.91 5.07292 1118.63 4.69692C1117.46 3.15192 1054.79 4.05593 1052.2 5.65493C1051.14 6.31093 1038.71 6.92087 1028.08 6.83987C1024.2 6.80987 1019.81 7.24586 1018.33 7.80886C1016.51 8.50186 1015.64 8.50289 1015.64 7.81289C1015.64 7.13589 1009.19 6.99991 996.395 7.40591C964.256 8.42691 908.429 9.35584 900.145 9.00784C897.395 8.89184 890.898 8.8209 885.707 8.8489C880.517 8.8779 874.707 8.6079 872.797 8.2499C870.085 7.7409 869.032 7.99893 867.985 9.43093C866.782 11.0759 866.645 11.0899 866.645 9.57192C866.645 7.59592 858.688 7.15383 854.153 8.87783C852.711 9.42583 851.75 9.51886 852.019 9.08486C852.288 8.64986 844.551 8.27192 834.826 8.24392C825.102 8.21492 813.432 8.00989 808.894 7.78689C804.318 7.56189 800.506 7.79389 800.335 8.30789C800.15 8.86489 799.451 8.87491 798.586 8.33291C796.337 6.92591 792.645 6.68988 792.645 7.95388C792.645 8.64188 791.95 8.81589 790.895 8.39089C788.058 7.25089 786.526 7.17083 782.29 7.94583C780.086 8.34883 775.345 8.26291 771.756 7.75491C767.616 7.16791 764.208 7.18586 762.437 7.80386C760.901 8.33886 759.645 8.46288 759.645 8.07888C759.644 7.69488 755.257 7.33887 749.895 7.28787C736.342 7.15787 716.979 6.19989 715.978 5.60989C713.996 4.44089 699.456 5.56786 698.575 6.95986C697.944 7.95686 697.671 8.00788 697.66 7.13088C697.652 6.44388 696.745 5.88088 695.645 5.88088C694.545 5.88088 693.645 5.46293 693.645 4.95193C693.645 4.42593 688.115 4.05294 680.872 4.09194C673.847 4.12894 667.157 3.8609 666.004 3.4949C664.852 3.1289 662.741 3.27392 661.312 3.81692C659.575 4.47792 658.507 4.46684 658.085 3.78384C657.731 3.21084 656.164 3.04691 654.509 3.41091C652.744 3.79791 650.978 3.57183 650.104 2.84683C649.262 2.14783 648.645 2.06087 648.645 2.64187C648.645 4.27887 644.586 4.89092 643.992 3.34292C643.604 2.33292 641.67 2.00684 636.801 2.13284C633.138 2.22784 629.625 1.98585 628.993 1.59585C628.362 1.20585 626.788 0.881903 625.495 0.874903C624.203 0.868903 608.1 0.655857 589.711 0.402857C569.381 0.121857 555.829 0.312917 555.134 0.889917C554.406 1.49392 552.868 1.41385 550.894 0.668848C548.542 -0.219152 546.888 -0.222068 544.03 0.654932C541.615 1.39593 539.852 1.46791 539.113 0.853907C538.479 0.328907 537.694 0.16487 537.369 0.49087ZM556.645 20.5329C563.187 20.8159 575.141 21.0229 576.145 20.8699C578.766 20.4699 585.319 20.7619 586.766 21.3439C587.679 21.7109 589.064 21.3189 589.936 20.4469C590.787 19.5959 591.633 19.3149 591.815 19.8239C591.996 20.3319 599.12 21.0008 607.645 21.3098C616.17 21.6188 624.72 22.0649 626.645 22.3019C630.27 22.7479 653.625 24.0849 664.145 24.4489C667.445 24.5629 670.37 24.7199 670.645 24.7959C673.143 25.4929 692.785 25.4638 693.218 24.7628C693.529 24.2598 694.203 24.1078 694.716 24.4248C695.228 24.7418 699.135 25.2079 703.396 25.4619C719.694 26.4299 725.244 26.8629 728.145 27.3899C733.893 28.4349 785.97 28.7779 787.829 27.7829C789.069 27.1189 789.645 27.1569 789.645 27.9049C789.645 28.5069 790.158 28.6818 790.785 28.2948C792.065 27.5028 808.288 27.5419 809.578 28.3399C811.279 29.3909 822.987 29.8419 824.123 28.8999C824.837 28.3069 826.477 28.2588 828.29 28.7788C829.934 29.2508 834.849 29.4148 839.212 29.1438C843.575 28.8728 851.083 28.6169 855.895 28.5749C862.964 28.5129 864.645 28.2109 864.645 27.0009C864.645 25.8659 865.108 26.0008 866.56 27.5598C869.212 30.4058 880.636 30.8729 880.66 28.1359C880.673 26.6409 880.816 26.6029 881.623 27.8809C883.063 30.1619 912.504 30.8588 944.645 29.3728C962.455 28.5498 961.426 28.5578 971.145 29.1488C975.545 29.4168 979.981 29.1989 981.002 28.6659C982.247 28.0159 983.22 28.0559 983.952 28.7879C985.854 30.6899 989.779 30.0829 990.377 27.7959C990.76 26.3339 991.151 26.0819 991.689 26.9529C992.622 28.4609 1006.15 28.3069 1012.14 26.7189C1018.19 25.1159 1021.07 24.9739 1021.86 26.2379C1022.86 27.8369 1035.24 27.6619 1086.14 25.3299C1092.19 25.0529 1097.59 24.7788 1098.14 24.7208C1098.69 24.6628 1105.22 24.9569 1112.64 25.3749C1120.07 25.7929 1137.39 26.2679 1151.14 26.4309C1164.89 26.5939 1176.14 26.8189 1176.14 26.9309C1176.14 27.1889 1180.99 27.5288 1196.14 28.3358C1212.26 29.1928 1215.96 29.5288 1218.65 30.3828C1219.9 30.7808 1232.68 31.2779 1247.04 31.4879C1261.4 31.6989 1275.62 32.0539 1278.64 32.2779C1289.62 33.0919 1312.66 32.6049 1314.42 31.5219C1315.02 31.1519 1315.79 31.3129 1316.14 31.8809C1316.5 32.4489 1317.2 32.6549 1317.71 32.3379C1318.23 32.0219 1318.64 32.2469 1318.64 32.8379C1318.64 33.4289 1319.88 33.9069 1321.39 33.8999C1324.09 33.8879 1333.27 34.2989 1354.49 35.3849C1360.35 35.6849 1371.34 36.0229 1378.91 36.1359C1392.7 36.3429 1395.87 44.8239 1390.96 68.3809C1390.61 70.0309 1390.19 79.2559 1390.01 88.8809C1389.83 98.5059 1389.46 114.931 1389.18 125.381C1388.46 152.262 1388.44 153.267 1388.67 154.381C1388.79 154.931 1388.77 155.606 1388.62 155.881C1388.48 156.156 1388.2 158.856 1388 161.881C1387.8 164.906 1387.37 170.531 1387.06 174.381C1386.74 178.231 1386.41 185.319 1386.32 190.131C1386.22 194.944 1385.91 198.881 1385.61 198.881C1384.75 198.881 1384.38 204.542 1384.45 216.381C1384.53 228.699 1384.44 242.507 1384.21 254.2C1384.13 258.5 1384.31 262.176 1384.62 262.369C1384.94 262.562 1385.03 269.618 1384.83 278.05C1384.63 286.482 1384.6 297.881 1384.77 303.381C1385.08 313.726 1385.04 316.826 1384.25 345.381C1383.69 365.926 1382.97 377.543 1382.19 378.805C1381.87 379.321 1382.08 380.03 1382.64 380.381C1383.21 380.732 1383.34 381.551 1382.94 382.2C1381.03 385.253 1379.92 422.285 1380.77 454.227C1380.98 461.842 1380.89 468.23 1380.58 468.424C1380.04 468.752 1379.26 477.554 1379.46 480.881C1380.05 490.382 1379.7 504.776 1378.75 510.381C1378.1 514.231 1377.83 519.631 1378.15 522.381C1379.18 531.181 1379.32 535.881 1378.53 535.881C1378.11 535.881 1377.77 536.668 1377.77 537.631C1377.78 538.594 1377.53 540.731 1377.23 542.381C1375.35 552.778 1374.78 622.075 1376.53 628.413C1377.11 630.546 1377.27 632.537 1376.87 632.837C1376.47 633.136 1376.03 634.281 1375.88 635.381C1374.78 643.81 1374.71 646.881 1375.62 646.881C1376.18 646.881 1376.64 647.556 1376.64 648.381C1376.64 649.206 1375.97 649.881 1375.14 649.881C1373.94 649.881 1373.62 651.516 1373.53 658.131C1373.33 671.963 1372.84 681.015 1372.27 681.594C1371.96 681.896 1372.15 682.948 1372.67 683.932C1373.34 685.176 1373.25 685.896 1372.39 686.3C1371.41 686.756 1371.42 687.01 1372.44 687.478C1373.49 687.966 1373.49 688.36 1372.44 689.632C1371.12 691.223 1370.44 706.881 1371.7 706.881C1372.05 706.881 1372.27 708.906 1372.19 711.381C1372.07 714.726 1372.41 715.881 1373.49 715.881C1374.47 715.881 1374.18 716.552 1372.58 717.935C1369.89 720.273 1369.72 721.192 1369.23 736.681C1369.04 742.896 1368.63 748.229 1368.33 748.534C1368.02 748.838 1368.18 750.165 1368.68 751.484C1369.18 752.802 1369.22 753.881 1368.77 753.881C1367.47 753.881 1366.32 768.763 1366.13 787.881C1365.98 804.152 1365.61 811.15 1364.02 827.881C1363.27 835.754 1355.64 844.604 1355.64 837.601C1355.64 837.087 1354.95 836.933 1354.11 837.257C1353.23 837.593 1352.32 837.208 1352 836.364C1351.69 835.548 1350.61 834.881 1349.6 834.881C1348.59 834.881 1347.55 834.539 1347.29 834.121C1346.12 832.219 1316.62 831.823 1314.39 833.68C1313.22 834.651 1312.64 834.685 1312.1 833.814C1311.62 833.031 1309.87 832.875 1306.76 833.335C1300.99 834.191 1296.29 834.675 1291.14 834.944C1288.94 835.059 1286.39 835.811 1285.46 836.615C1284.53 837.419 1283.29 837.781 1282.71 837.42C1282.12 837.059 1281.64 837.352 1281.63 838.072C1281.62 839.103 1281.45 839.115 1280.82 838.129C1279.83 836.573 1258.73 837.458 1257.07 839.125C1256.73 839.465 1255.82 839.501 1255.05 839.205C1254.28 838.909 1252.86 839.009 1251.89 839.427C1250.93 839.845 1245.94 840.327 1240.79 840.497C1235.65 840.667 1230.88 841.269 1230.2 841.835C1229.52 842.401 1228.71 842.61 1228.4 842.299C1228.09 841.989 1226.21 842.182 1224.24 842.727C1222.26 843.273 1220.64 843.419 1220.64 843.05C1220.64 842.682 1218.61 842.369 1216.14 842.355C1213.67 842.34 1211.64 842.565 1211.64 842.855C1211.64 843.144 1204.93 843.402 1196.74 843.429C1186.34 843.462 1181.38 843.854 1180.33 844.727C1179.5 845.415 1178.59 845.604 1178.31 845.147C1178.03 844.69 1176.07 844.405 1173.97 844.514C1171.87 844.624 1164.74 845.008 1158.14 845.367C1151.54 845.727 1137.74 846.104 1127.47 846.206C1117.2 846.307 1108.48 846.709 1108.09 847.1C1107.7 847.491 1106.65 847.434 1105.76 846.974C1103.96 846.042 1073.92 846.27 1072.97 847.223C1072.64 847.555 1071.95 847.569 1071.44 847.255C1069.21 845.877 1045.44 846.225 1044.01 847.656C1042.86 848.812 1042.3 848.841 1041.06 847.815C1040.06 846.982 1035.21 846.447 1026.84 846.248C1019.86 846.082 1013.02 845.691 1011.64 845.378C1009.29 844.842 987.477 844.068 965.051 843.725C959.499 843.64 954.468 843.873 953.87 844.242C953.272 844.611 952.489 844.438 952.129 843.856C951.332 842.566 936.669 842.797 934.939 844.126C934.275 844.636 933.263 844.763 932.689 844.408C932.115 844.053 931.645 844.162 931.645 844.649C931.645 845.136 930.295 845.336 928.645 845.094C926.995 844.852 925.645 844.058 925.645 843.33C925.645 842.601 924.858 841.978 923.895 841.944C922.932 841.911 908.87 841.663 892.645 841.395C855.671 840.782 837.573 840.187 835.645 839.521C833.523 838.788 810.658 837.676 794.397 837.516C786.835 837.442 780.646 837.156 780.643 836.881C780.64 836.606 776.854 836.291 772.228 836.18C767.603 836.07 761.527 835.767 758.727 835.506C755.149 835.174 753.215 835.454 752.221 836.448C751.442 837.226 750.657 837.434 750.475 836.91C750.013 835.575 732.317 833.94 731.514 835.157C731.121 835.754 729.486 835.653 727.179 834.892C722.988 833.509 721.929 833.389 704.645 832.33C691.135 831.502 689.954 831.485 672.487 831.861C666.075 832 660.344 831.813 659.752 831.447C658.28 830.537 648.662 831.045 648.031 832.065C647.752 832.517 646.618 832.402 645.51 831.809C643.817 830.903 643.407 831.075 642.932 832.891C642.558 834.321 642.12 834.649 641.633 833.862C641.078 832.964 640.381 832.952 638.772 833.813C637.116 834.699 636.642 834.667 636.63 833.666C636.618 832.657 636.433 832.668 635.768 833.716C635.116 834.744 634.807 834.609 634.419 833.123C633.997 831.51 632.874 831.155 627.53 830.946C617.164 830.539 592.337 830.473 574.987 830.804C566.1 830.974 558.445 830.875 557.975 830.585C557.273 830.151 540.479 829.903 510.645 829.886C503.171 829.881 501.627 829.958 488.645 830.98C478.866 831.75 446.642 832.79 424.645 833.047C423.27 833.063 420.151 832.8 417.714 832.463C414.656 832.04 413.033 832.243 412.479 833.116C411.842 834.118 411.672 834.105 411.66 833.053C411.648 831.997 409.44 831.838 400.895 832.278C384.701 833.113 363.652 832.845 363.647 831.805C363.646 831.488 360.158 831.162 355.895 831.08C334.293 830.666 316.36 829.929 315.865 829.435C314.848 828.417 312.804 828.865 311.216 830.452C310.251 831.418 309.645 831.574 309.645 830.858C309.645 829.996 305.992 829.847 295.681 830.288C287.094 830.654 278.912 830.446 274.431 829.747C264.729 828.233 206.098 827.194 197.145 828.377C190.913 829.201 182.791 829.044 177.225 827.992C170.702 826.76 173.079 826.881 144.145 826.314C130.395 826.045 116.692 825.725 113.693 825.603C110.695 825.481 107.167 825.938 105.854 826.618C104.129 827.512 102.919 827.563 101.497 826.802C100.392 826.21 98.1268 826.058 96.3358 826.455C92.0808 827.397 79.7918 827.59 78.4108 826.736C77.8058 826.363 76.2618 826.456 74.9778 826.944C73.4118 827.54 72.6448 827.471 72.6448 826.734C72.6448 826.002 72.1448 826.051 71.1448 826.881C69.9738 827.853 69.3268 827.862 68.1948 826.923C67.3978 826.261 65.2538 825.848 63.4308 826.005C61.6078 826.162 59.5028 825.912 58.7538 825.449C56.2788 823.919 40.6188 824.315 39.5548 825.935C36.6768 830.313 33.7428 820.175 33.1728 803.881C32.8248 793.939 32.7858 793.676 31.7618 794.308C30.7698 794.922 30.9918 789.201 31.9988 788.194C33.0638 787.129 32.7288 784.076 31.5018 783.667C30.6528 783.384 30.6668 782.708 31.5568 781.045C32.2248 779.797 32.4408 777.827 32.0448 776.593C31.6528 775.377 31.3718 772.356 31.4188 769.881C31.4658 767.406 31.1228 763.918 30.6558 762.131C30.1878 760.344 30.1068 758.881 30.4758 758.881C30.8438 758.881 31.0508 757.194 30.9368 755.131C30.3758 745.039 29.5248 734.576 28.6398 726.881C28.1018 722.206 27.7288 717.706 27.8108 716.881C28.3638 711.321 27.6048 707.67 26.1468 708.88C24.8158 709.984 24.8148 709.651 26.1378 705.902C27.2648 702.706 27.5108 698.729 27.1498 689.531C26.5738 674.852 26.4598 673.881 25.3238 673.881C24.8328 673.881 24.7648 673.094 25.1728 672.131C26.1538 669.819 25.8888 665.88 24.6528 664.39C24.1078 663.734 23.8858 662.973 24.1598 662.7C24.4328 662.426 24.6438 658.643 24.6288 654.292C24.6128 649.941 24.6198 643.906 24.6438 640.881C24.6998 633.744 24.6948 633.523 24.3028 625.881C24.1198 622.306 23.8968 617.667 23.8078 615.572C23.7178 613.477 23.2808 611.988 22.8348 612.264C22.3898 612.539 22.1688 607.586 22.3448 601.257C22.5558 593.686 22.3198 589.964 21.6548 590.375C21.0998 590.718 20.6448 590.571 20.6448 590.047C20.6448 589.523 21.3198 588.836 22.1448 588.519C23.8418 587.868 24.1738 584.326 22.6288 583.371C22.0698 583.025 21.8698 582.325 22.1858 581.815C23.2018 580.17 23.9318 567.881 23.0138 567.881C22.5248 567.881 22.0858 564.168 22.0388 559.631C21.8758 544.017 21.7328 517.377 21.7978 514.881C21.9418 509.366 20.6168 486.644 20.1028 485.812C19.7998 485.323 20.0438 484.003 20.6458 482.88C22.0818 480.196 22.6908 461.753 21.3968 460.131C20.7328 459.298 20.7358 458.881 21.4058 458.881C21.9588 458.881 22.6468 457.981 22.9348 456.881C23.2218 455.781 23.1268 454.881 22.7228 454.881C22.3198 454.881 22.1288 451.168 22.3008 446.631C22.4718 442.094 22.6618 438.381 22.7228 438.381C22.7838 438.381 22.9778 435.853 23.1558 432.763C23.8208 421.168 24.5988 413.765 25.2648 412.686C25.7148 411.959 25.4938 411.857 24.6298 412.391C23.6618 412.989 23.4808 412.75 23.9588 411.506C24.3178 410.569 24.0908 408.967 23.4528 407.946C22.5268 406.462 22.6298 405.753 23.9688 404.414C25.8868 402.496 26.0868 401.272 24.6288 400.371C24.0698 400.025 23.9238 399.239 24.3038 398.624C25.3828 396.877 25.5958 384.881 24.5938 382.247C24.0938 380.933 24.0808 379.881 24.5628 379.881C25.9828 379.881 26.4468 377.686 27.7658 364.725C28.9478 353.114 29.1458 347.781 28.6148 341.881C28.4908 340.506 28.6828 331.159 29.0408 321.11C29.4758 308.938 29.3398 302.179 28.6338 300.86C27.7838 299.273 27.8898 298.881 29.1688 298.881C30.0458 298.881 30.5298 298.503 30.2438 298.042C29.9588 297.58 29.6438 293.98 29.5448 290.042C29.4448 286.103 29.0248 282.881 28.6118 282.881C28.1978 282.881 27.5908 282.183 27.2628 281.329C26.9358 280.475 27.0638 280.022 27.5488 280.322C28.0368 280.624 28.2968 277.308 28.1318 272.874C27.9688 268.478 28.2418 264.63 28.7398 264.322C30.0378 263.52 29.8588 259.881 28.5228 259.881C27.7008 259.881 27.7058 259.513 28.5398 258.507C30.3008 256.385 30.6848 243.111 29.0038 242.465C28.2568 242.178 27.6448 241.453 27.6448 240.853C27.6448 240.254 28.0468 240.011 28.5378 240.315C29.8078 241.1 30.5208 237.078 29.9458 232.381C29.6758 230.181 29.3878 227.215 29.3048 225.789C29.1848 223.737 28.7358 223.294 27.1488 223.664C25.1458 224.131 25.1458 224.131 27.1448 222.538C28.2448 221.662 28.6948 220.923 28.1448 220.897C27.5948 220.872 27.8198 220.399 28.6448 219.847C29.9438 218.979 29.8938 218.697 28.2748 217.746C26.9188 216.949 26.7398 216.44 27.6218 215.895C29.0498 215.013 29.9198 198.881 28.5398 198.881C28.0478 198.881 27.6448 198.431 27.6448 197.881C27.6448 197.331 28.3708 196.881 29.2578 196.881C30.7028 196.881 30.7908 195.349 30.1048 182.131C29.6848 174.019 29.3788 166.624 29.4258 165.698C29.4718 164.772 28.8778 163.489 28.1038 162.847C26.9138 161.859 26.9048 161.272 28.0468 159.03C30.7188 153.782 31.5698 137.682 30.3018 116.381C30.0068 111.431 29.7018 107.381 29.6248 107.381C29.5468 107.381 29.3428 105.243 29.1708 102.631C28.9988 100.019 29.2868 97.8809 29.8108 97.8809C30.3338 97.8809 30.5028 97.4598 30.1848 96.9448C29.8658 96.4298 30.0438 94.0678 30.5798 91.6948C31.2018 88.9418 31.2068 87.2599 30.5928 87.0459C30.0648 86.8609 29.9308 86.2259 30.2968 85.6349C30.6618 85.0439 31.1218 76.8698 31.3178 67.4708C31.7678 45.9568 31.6938 47.7679 32.2278 45.1309C32.5158 43.7079 33.4108 42.8809 34.6638 42.8809C35.7538 42.8809 36.6518 42.3189 36.6598 41.6309C36.6698 40.8179 36.9318 40.7449 37.4098 41.4239C37.8138 41.9979 40.1698 42.3159 42.6448 42.1309C45.1198 41.9449 48.1568 41.7658 49.3948 41.7318C50.7568 41.6938 51.6758 41.0199 51.7238 40.0249C51.7738 38.9879 51.9888 38.8419 52.3068 39.6309C52.8638 41.0109 57.2358 41.3509 58.0248 40.0749C58.5628 39.2039 65.5218 39.1309 67.1498 39.9789C68.2588 40.5559 77.7368 40.3419 87.6448 39.5169C95.2338 38.8849 118.015 38.0938 135.139 37.8668C143.011 37.7628 147.388 37.3088 147.874 36.5448C148.417 35.6908 148.618 35.7189 148.63 36.6499C148.639 37.4469 149.482 37.7308 150.895 37.4138C152.133 37.1358 158.095 36.6718 164.145 36.3828C170.195 36.0928 176.564 35.6508 178.299 35.3988C182.532 34.7858 213.967 33.7708 224.895 33.8938C229.708 33.9488 233.647 33.6299 233.649 33.1869C233.652 32.7439 239.164 32.2399 245.899 32.0689C263.882 31.6099 275.549 30.9748 293.145 29.4978C301.093 28.8308 312.655 28.0639 324.145 27.4429C327.445 27.2649 330.145 27.0159 330.145 26.8899C330.145 26.7639 337.12 26.4969 345.645 26.2979C354.17 26.0979 362.045 25.9088 363.145 25.8778C364.245 25.8468 367.832 25.8079 371.115 25.7909C374.399 25.7739 377.549 25.3909 378.115 24.9389C378.682 24.4879 380.355 24.2558 381.835 24.4248C383.314 24.5938 385.061 24.0848 385.717 23.2938C386.622 22.2038 387.241 22.1309 388.278 22.9909C389.292 23.8329 389.645 23.8339 389.645 22.9949C389.645 22.1959 390.24 22.2328 391.676 23.1228C393.324 24.1438 393.862 24.1299 394.536 23.0469C395.217 21.9529 395.466 21.9719 395.918 23.1499C396.45 24.5359 399.35 24.7329 426.145 25.2049C433.573 25.3359 457.946 23.8109 458.988 23.1499C459.624 22.7459 465.32 22.3149 471.645 22.1909C477.97 22.0669 484.27 21.9029 485.645 21.8279C488.036 21.6969 492.871 21.7539 497.145 21.9649C515.553 22.8739 550.844 20.7099 551.553 18.6289C551.832 17.8109 552.149 17.8989 552.553 18.9069C552.897 19.7639 554.609 20.4439 556.645 20.5329Z" fill="#025354"/>
<path d="M556.645 20.5329C563.187 20.8159 575.141 21.0229 576.145 20.8699C578.766 20.4699 585.319 20.7619 586.766 21.3439C587.679 21.7109 589.064 21.3189 589.936 20.4469C590.787 19.5959 591.633 19.3149 591.815 19.8239C591.996 20.3319 599.12 21.0008 607.645 21.3098C616.17 21.6188 624.72 22.0649 626.645 22.3019C630.27 22.7479 653.625 24.0849 664.145 24.4489C667.445 24.5629 670.37 24.7199 670.645 24.7959C673.143 25.4929 692.785 25.4638 693.218 24.7628C693.529 24.2598 694.203 24.1078 694.716 24.4248C695.228 24.7418 699.135 25.2079 703.396 25.4619C719.694 26.4299 725.244 26.8629 728.145 27.3899C733.893 28.4349 785.97 28.7779 787.829 27.7829C789.069 27.1189 789.645 27.1569 789.645 27.9049C789.645 28.5069 790.158 28.6818 790.785 28.2948C792.065 27.5028 808.288 27.5419 809.578 28.3399C811.279 29.3909 822.987 29.8419 824.123 28.8999C824.837 28.3069 826.477 28.2588 828.29 28.7788C829.934 29.2508 834.849 29.4148 839.212 29.1438C843.575 28.8728 851.083 28.6169 855.895 28.5749C862.964 28.5129 864.645 28.2109 864.645 27.0009C864.645 25.8659 865.108 26.0008 866.56 27.5598C869.212 30.4058 880.636 30.8729 880.66 28.1359C880.673 26.6409 880.816 26.6029 881.623 27.8809C883.063 30.1619 912.504 30.8588 944.645 29.3728C962.455 28.5498 961.426 28.5578 971.145 29.1488C975.545 29.4168 979.981 29.1989 981.002 28.6659C982.247 28.0159 983.22 28.0559 983.952 28.7879C985.854 30.6899 989.779 30.0829 990.377 27.7959C990.76 26.3339 991.151 26.0819 991.689 26.9529C992.622 28.4609 1006.15 28.3069 1012.14 26.7189C1018.19 25.1159 1021.07 24.9739 1021.86 26.2379C1022.86 27.8369 1035.24 27.6619 1086.14 25.3299C1092.19 25.0529 1097.59 24.7788 1098.14 24.7208C1098.69 24.6628 1105.22 24.9569 1112.64 25.3749C1120.07 25.7929 1137.39 26.2679 1151.14 26.4309C1164.89 26.5939 1176.14 26.8189 1176.14 26.9309C1176.14 27.1889 1180.99 27.5288 1196.14 28.3358C1212.26 29.1928 1215.96 29.5288 1218.65 30.3828C1219.9 30.7808 1232.68 31.2779 1247.04 31.4879C1261.4 31.6989 1275.62 32.0539 1278.64 32.2779C1289.62 33.0919 1312.66 32.6049 1314.42 31.5219C1315.02 31.1519 1315.79 31.3129 1316.14 31.8809C1316.5 32.4489 1317.2 32.6549 1317.71 32.3379C1318.23 32.0219 1318.64 32.2469 1318.64 32.8379C1318.64 33.4289 1319.88 33.9069 1321.39 33.8999C1324.09 33.8879 1333.27 34.2989 1354.49 35.3849C1360.35 35.6849 1371.34 36.0229 1378.91 36.1359C1392.7 36.3429 1395.87 44.8239 1390.96 68.3809C1390.61 70.0309 1390.19 79.2559 1390.01 88.8809C1389.83 98.5059 1389.46 114.931 1389.18 125.381C1388.46 152.262 1388.44 153.267 1388.67 154.381C1388.79 154.931 1388.77 155.606 1388.62 155.881C1388.48 156.156 1388.2 158.856 1388 161.881C1387.8 164.906 1387.37 170.531 1387.06 174.381C1386.74 178.231 1386.41 185.319 1386.32 190.131C1386.22 194.944 1385.91 198.881 1385.61 198.881C1384.75 198.881 1384.38 204.542 1384.45 216.381C1384.53 228.699 1384.44 242.507 1384.21 254.2C1384.13 258.5 1384.31 262.176 1384.62 262.369C1384.94 262.562 1385.03 269.618 1384.83 278.05C1384.63 286.482 1384.6 297.881 1384.77 303.381C1385.08 313.726 1385.04 316.826 1384.25 345.381C1383.69 365.926 1382.97 377.543 1382.19 378.805C1381.87 379.321 1382.08 380.03 1382.64 380.381C1383.21 380.732 1383.34 381.551 1382.94 382.2C1381.03 385.253 1379.92 422.285 1380.77 454.227C1380.98 461.842 1380.89 468.23 1380.58 468.424C1380.04 468.752 1379.26 477.554 1379.46 480.881C1380.05 490.382 1379.7 504.776 1378.75 510.381C1378.1 514.231 1377.83 519.631 1378.15 522.381C1379.18 531.181 1379.32 535.881 1378.53 535.881C1378.11 535.881 1377.77 536.668 1377.77 537.631C1377.78 538.594 1377.53 540.731 1377.23 542.381C1375.35 552.778 1374.78 622.075 1376.53 628.413C1377.11 630.546 1377.27 632.537 1376.87 632.837C1376.47 633.136 1376.03 634.281 1375.88 635.381C1374.78 643.81 1374.71 646.881 1375.62 646.881C1376.18 646.881 1376.64 647.556 1376.64 648.381C1376.64 649.206 1375.97 649.881 1375.14 649.881C1373.94 649.881 1373.62 651.516 1373.53 658.131C1373.33 671.963 1372.84 681.015 1372.27 681.594C1371.96 681.896 1372.15 682.948 1372.67 683.932C1373.34 685.176 1373.25 685.896 1372.39 686.3C1371.41 686.756 1371.42 687.01 1372.44 687.478C1373.49 687.966 1373.49 688.36 1372.44 689.632C1371.12 691.223 1370.44 706.881 1371.7 706.881C1372.05 706.881 1372.27 708.906 1372.19 711.381C1372.07 714.726 1372.41 715.881 1373.49 715.881C1374.47 715.881 1374.18 716.552 1372.58 717.935C1369.89 720.273 1369.72 721.192 1369.23 736.681C1369.04 742.896 1368.63 748.229 1368.33 748.534C1368.02 748.838 1368.18 750.165 1368.68 751.484C1369.18 752.802 1369.22 753.881 1368.77 753.881C1367.47 753.881 1366.32 768.763 1366.13 787.881C1365.98 804.152 1365.61 811.15 1364.02 827.881C1363.27 835.754 1355.64 844.604 1355.64 837.601C1355.64 837.087 1354.95 836.933 1354.11 837.257C1353.23 837.593 1352.32 837.208 1352 836.364C1351.69 835.548 1350.61 834.881 1349.6 834.881C1348.59 834.881 1347.55 834.539 1347.29 834.121C1346.12 832.219 1316.62 831.823 1314.39 833.68C1313.22 834.651 1312.64 834.685 1312.1 833.814C1311.62 833.031 1309.87 832.875 1306.76 833.335C1300.99 834.191 1296.29 834.675 1291.14 834.944C1288.94 835.059 1286.39 835.811 1285.46 836.615C1284.53 837.419 1283.29 837.781 1282.71 837.42C1282.12 837.059 1281.64 837.352 1281.63 838.072C1281.62 839.103 1281.45 839.115 1280.82 838.129C1279.83 836.573 1258.73 837.458 1257.07 839.125C1256.73 839.465 1255.82 839.501 1255.05 839.205C1254.28 838.909 1252.86 839.009 1251.89 839.427C1250.93 839.845 1245.94 840.327 1240.79 840.497C1235.65 840.667 1230.88 841.269 1230.2 841.835C1229.52 842.401 1228.71 842.61 1228.4 842.299C1228.09 841.989 1226.21 842.182 1224.24 842.727C1222.26 843.273 1220.64 843.419 1220.64 843.05C1220.64 842.682 1218.61 842.369 1216.14 842.355C1213.67 842.34 1211.64 842.565 1211.64 842.855C1211.64 843.144 1204.93 843.402 1196.74 843.429C1186.34 843.462 1181.38 843.854 1180.33 844.727C1179.5 845.415 1178.59 845.604 1178.31 845.147C1178.03 844.69 1176.07 844.405 1173.97 844.514C1171.87 844.624 1164.74 845.008 1158.14 845.367C1151.54 845.727 1137.74 846.104 1127.47 846.206C1117.2 846.307 1108.48 846.709 1108.09 847.1C1107.7 847.491 1106.65 847.434 1105.76 846.974C1103.96 846.042 1073.92 846.27 1072.97 847.223C1072.64 847.555 1071.95 847.569 1071.44 847.255C1069.21 845.877 1045.44 846.225 1044.01 847.656C1042.86 848.812 1042.3 848.841 1041.06 847.815C1040.06 846.982 1035.21 846.447 1026.84 846.248C1019.86 846.082 1013.02 845.691 1011.64 845.378C1009.29 844.842 987.477 844.068 965.051 843.725C959.499 843.64 954.468 843.873 953.87 844.242C953.272 844.611 952.489 844.438 952.129 843.856C951.332 842.566 936.669 842.797 934.939 844.126C934.275 844.636 933.263 844.763 932.689 844.408C932.115 844.053 931.645 844.162 931.645 844.649C931.645 845.136 930.295 845.336 928.645 845.094C926.995 844.852 925.645 844.058 925.645 843.33C925.645 842.601 924.858 841.978 923.895 841.944C922.932 841.911 908.87 841.663 892.645 841.395C855.671 840.782 837.573 840.187 835.645 839.521C833.523 838.788 810.658 837.676 794.397 837.516C786.835 837.442 780.646 837.156 780.643 836.881C780.64 836.606 776.854 836.291 772.228 836.18C767.603 836.07 761.527 835.767 758.727 835.506C755.149 835.174 753.215 835.454 752.221 836.448C751.442 837.226 750.657 837.434 750.475 836.91C750.013 835.575 732.317 833.94 731.514 835.157C731.121 835.754 729.486 835.653 727.179 834.892C722.988 833.509 721.929 833.389 704.645 832.33C691.135 831.502 689.954 831.485 672.487 831.861C666.075 832 660.344 831.813 659.752 831.447C658.28 830.537 648.662 831.045 648.031 832.065C647.752 832.517 646.618 832.402 645.51 831.809C643.817 830.903 643.407 831.075 642.932 832.891C642.558 834.321 642.12 834.649 641.633 833.862C641.078 832.964 640.381 832.952 638.772 833.813C637.116 834.699 636.642 834.667 636.63 833.666C636.618 832.657 636.433 832.668 635.768 833.716C635.116 834.744 634.807 834.609 634.419 833.123C633.997 831.51 632.874 831.155 627.53 830.946C617.164 830.539 592.337 830.473 574.987 830.804C566.1 830.974 558.445 830.875 557.975 830.585C557.273 830.151 540.479 829.903 510.645 829.886C503.171 829.881 501.627 829.958 488.645 830.98C478.866 831.75 446.642 832.79 424.645 833.047C423.27 833.063 420.151 832.8 417.714 832.463C414.656 832.04 413.033 832.243 412.479 833.116C411.842 834.118 411.672 834.105 411.66 833.053C411.648 831.997 409.44 831.838 400.895 832.278C384.701 833.113 363.652 832.845 363.647 831.805C363.646 831.488 360.158 831.162 355.895 831.08C334.293 830.666 316.36 829.929 315.865 829.435C314.848 828.417 312.804 828.865 311.216 830.452C310.251 831.418 309.645 831.574 309.645 830.858C309.645 829.996 305.992 829.847 295.681 830.288C287.094 830.654 278.912 830.446 274.431 829.747C264.729 828.233 206.098 827.194 197.145 828.377C190.913 829.201 182.791 829.044 177.225 827.992C170.702 826.76 173.079 826.881 144.145 826.314C130.395 826.045 116.692 825.725 113.693 825.603C110.695 825.481 107.167 825.938 105.854 826.618C104.129 827.512 102.919 827.563 101.497 826.802C100.392 826.21 98.1268 826.058 96.3358 826.455C92.0808 827.397 79.7918 827.59 78.4108 826.736C77.8058 826.363 76.2618 826.456 74.9778 826.944C73.4118 827.54 72.6448 827.471 72.6448 826.734C72.6448 826.002 72.1448 826.051 71.1448 826.881C69.9738 827.853 69.3268 827.862 68.1948 826.923C67.3978 826.261 65.2538 825.848 63.4308 826.005C61.6078 826.162 59.5028 825.912 58.7538 825.449C56.2788 823.919 40.6188 824.315 39.5548 825.935C36.6768 830.313 33.7428 820.175 33.1728 803.881C32.8248 793.939 32.7858 793.676 31.7618 794.308C30.7698 794.922 30.9918 789.201 31.9988 788.194C33.0638 787.129 32.7288 784.076 31.5018 783.667C30.6528 783.384 30.6668 782.708 31.5568 781.045C32.2248 779.797 32.4408 777.827 32.0448 776.593C31.6528 775.377 31.3718 772.356 31.4188 769.881C31.4658 767.406 31.1228 763.918 30.6558 762.131C30.1878 760.344 30.1068 758.881 30.4758 758.881C30.8438 758.881 31.0508 757.194 30.9368 755.131C30.3758 745.039 29.5248 734.576 28.6398 726.881C28.1018 722.206 27.7288 717.706 27.8108 716.881C28.3638 711.321 27.6048 707.67 26.1468 708.88C24.8158 709.984 24.8148 709.651 26.1378 705.902C27.2648 702.706 27.5108 698.729 27.1498 689.531C26.5738 674.852 26.4598 673.881 25.3238 673.881C24.8328 673.881 24.7648 673.094 25.1728 672.131C26.1538 669.819 25.8888 665.88 24.6528 664.39C24.1078 663.734 23.8858 662.973 24.1598 662.7C24.4328 662.426 24.6438 658.643 24.6288 654.292C24.6128 649.941 24.6198 643.906 24.6438 640.881C24.6998 633.744 24.6948 633.523 24.3028 625.881C24.1198 622.306 23.8968 617.667 23.8078 615.572C23.7178 613.477 23.2808 611.988 22.8348 612.264C22.3898 612.539 22.1688 607.586 22.3448 601.257C22.5558 593.686 22.3198 589.964 21.6548 590.375C21.0998 590.718 20.6448 590.571 20.6448 590.047C20.6448 589.523 21.3198 588.836 22.1448 588.519C23.8418 587.868 24.1738 584.326 22.6288 583.371C22.0698 583.025 21.8698 582.325 22.1858 581.815C23.2018 580.17 23.9318 567.881 23.0138 567.881C22.5248 567.881 22.0858 564.168 22.0388 559.631C21.8758 544.017 21.7328 517.377 21.7978 514.881C21.9418 509.366 20.6168 486.644 20.1028 485.812C19.7998 485.323 20.0438 484.003 20.6458 482.88C22.0818 480.196 22.6908 461.753 21.3968 460.131C20.7328 459.298 20.7358 458.881 21.4058 458.881C21.9588 458.881 22.6468 457.981 22.9348 456.881C23.2218 455.781 23.1268 454.881 22.7228 454.881C22.3198 454.881 22.1288 451.168 22.3008 446.631C22.4718 442.094 22.6618 438.381 22.7228 438.381C22.7838 438.381 22.9778 435.853 23.1558 432.763C23.8208 421.168 24.5988 413.765 25.2648 412.686C25.7148 411.959 25.4938 411.857 24.6298 412.391C23.6618 412.989 23.4808 412.75 23.9588 411.506C24.3178 410.569 24.0908 408.967 23.4528 407.946C22.5268 406.462 22.6298 405.753 23.9688 404.414C25.8868 402.496 26.0868 401.272 24.6288 400.371C24.0698 400.025 23.9238 399.239 24.3038 398.624C25.3828 396.877 25.5958 384.881 24.5938 382.247C24.0938 380.933 24.0808 379.881 24.5628 379.881C25.9828 379.881 26.4468 377.686 27.7658 364.725C28.9478 353.114 29.1458 347.781 28.6148 341.881C28.4908 340.506 28.6828 331.159 29.0408 321.11C29.4758 308.938 29.3398 302.179 28.6338 300.86C27.7838 299.273 27.8898 298.881 29.1688 298.881C30.0458 298.881 30.5298 298.503 30.2438 298.042C29.9588 297.58 29.6438 293.98 29.5448 290.042C29.4448 286.103 29.0248 282.881 28.6118 282.881C28.1978 282.881 27.5908 282.183 27.2628 281.329C26.9358 280.475 27.0638 280.022 27.5488 280.322C28.0368 280.624 28.2968 277.308 28.1318 272.874C27.9688 268.478 28.2418 264.63 28.7398 264.322C30.0378 263.52 29.8588 259.881 28.5228 259.881C27.7008 259.881 27.7058 259.513 28.5398 258.507C30.3008 256.385 30.6848 243.111 29.0038 242.465C28.2568 242.178 27.6448 241.453 27.6448 240.853C27.6448 240.254 28.0468 240.011 28.5378 240.315C29.8078 241.1 30.5208 237.078 29.9458 232.381C29.6758 230.181 29.3878 227.215 29.3048 225.789C29.1848 223.737 28.7358 223.294 27.1488 223.664C25.1458 224.131 25.1458 224.131 27.1448 222.538C28.2448 221.662 28.6948 220.923 28.1448 220.897C27.5948 220.872 27.8198 220.399 28.6448 219.847C29.9438 218.979 29.8938 218.697 28.2748 217.746C26.9188 216.949 26.7398 216.44 27.6218 215.895C29.0498 215.013 29.9198 198.881 28.5398 198.881C28.0478 198.881 27.6448 198.431 27.6448 197.881C27.6448 197.331 28.3708 196.881 29.2578 196.881C30.7028 196.881 30.7908 195.349 30.1048 182.131C29.6848 174.019 29.3788 166.624 29.4258 165.698C29.4718 164.772 28.8778 163.489 28.1038 162.847C26.9138 161.859 26.9048 161.272 28.0468 159.03C30.7188 153.782 31.5698 137.682 30.3018 116.381C30.0068 111.431 29.7018 107.381 29.6248 107.381C29.5468 107.381 29.3428 105.243 29.1708 102.631C28.9988 100.019 29.2868 97.8809 29.8108 97.8809C30.3338 97.8809 30.5028 97.4598 30.1848 96.9448C29.8658 96.4298 30.0438 94.0678 30.5798 91.6948C31.2018 88.9418 31.2068 87.2599 30.5928 87.0459C30.0648 86.8609 29.9308 86.2259 30.2968 85.6349C30.6618 85.0439 31.1218 76.8698 31.3178 67.4708C31.7678 45.9568 31.6938 47.7679 32.2278 45.1309C32.5158 43.7079 33.4108 42.8809 34.6638 42.8809C35.7538 42.8809 36.6518 42.3189 36.6598 41.6309C36.6698 40.8179 36.9318 40.7449 37.4098 41.4239C37.8138 41.9979 40.1698 42.3159 42.6448 42.1309C45.1198 41.9449 48.1568 41.7658 49.3948 41.7318C50.7568 41.6938 51.6758 41.0199 51.7238 40.0249C51.7738 38.9879 51.9888 38.8419 52.3068 39.6309C52.8638 41.0109 57.2358 41.3509 58.0248 40.0749C58.5628 39.2039 65.5218 39.1309 67.1498 39.9789C68.2588 40.5559 77.7368 40.3419 87.6448 39.5169C95.2338 38.8849 118.015 38.0938 135.139 37.8668C143.011 37.7628 147.388 37.3088 147.874 36.5448C148.417 35.6908 148.618 35.7189 148.63 36.6499C148.639 37.4469 149.482 37.7308 150.895 37.4138C152.133 37.1358 158.095 36.6718 164.145 36.3828C170.195 36.0928 176.564 35.6508 178.299 35.3988C182.532 34.7858 213.967 33.7708 224.895 33.8938C229.708 33.9488 233.647 33.6299 233.649 33.1869C233.652 32.7439 239.164 32.2399 245.899 32.0689C263.882 31.6099 275.549 30.9748 293.145 29.4978C301.093 28.8308 312.655 28.0639 324.145 27.4429C327.445 27.2649 330.145 27.0159 330.145 26.8899C330.145 26.7639 337.12 26.4969 345.645 26.2979C354.17 26.0979 362.045 25.9088 363.145 25.8778C364.245 25.8468 367.832 25.8079 371.115 25.7909C374.399 25.7739 377.549 25.3909 378.115 24.9389C378.682 24.4879 380.355 24.2558 381.835 24.4248C383.314 24.5938 385.061 24.0848 385.717 23.2938C386.622 22.2038 387.241 22.1309 388.278 22.9909C389.292 23.8329 389.645 23.8339 389.645 22.9949C389.645 22.1959 390.24 22.2328 391.676 23.1228C393.324 24.1438 393.862 24.1299 394.536 23.0469C395.217 21.9529 395.466 21.9719 395.918 23.1499C396.45 24.5359 399.35 24.7329 426.145 25.2049C433.573 25.3359 457.946 23.8109 458.988 23.1499C459.624 22.7459 465.32 22.3149 471.645 22.1909C477.97 22.0669 484.27 21.9029 485.645 21.8279C488.036 21.6969 492.871 21.7539 497.145 21.9649C515.553 22.8739 550.844 20.7099 551.553 18.6289C551.832 17.8109 552.149 17.8989 552.553 18.9069C552.897 19.7639 554.609 20.4439 556.645 20.5329Z" fill="#025354"/>
</svg>
