<svg width="1006" height="1002" viewBox="0 0 1006 1002" preserveAspectRatio="none"  fill="none" xmlns="http://www.w3.org/2000/svg">
<path fill-rule="evenodd" clip-rule="evenodd" d="M505.014 0.999979C504.786 1.22798 495.16 1.67194 483.624 1.98594C454.154 2.78994 443.314 3.42001 430.348 5.08201C424.132 5.87901 417.157 6.53194 414.848 6.53294C412.538 6.53394 402.998 7.67793 393.648 9.07493C377.957 11.4199 368.38 12.6429 354.148 14.1219C351.123 14.4359 345.723 15.114 342.148 15.629C328.261 17.626 319.225 18.568 308.648 19.119C302.598 19.434 294.273 20.052 290.148 20.492C286.023 20.932 273.423 21.346 262.148 21.412C235.347 21.569 200.59 22.437 191.148 23.186C187.023 23.513 179.149 23.8899 173.649 24.0229C161.882 24.3099 144.693 25.355 134.149 26.425C130.024 26.844 111.81 27.2999 93.6736 27.4389C75.5376 27.5779 60.3838 27.886 59.9978 28.124C59.6128 28.363 53.0759 28.514 45.4729 28.462C23.3499 28.309 15.9127 28.579 11.6487 29.691C9.44866 30.265 5.93455 30.963 3.84055 31.243C0.0325553 31.752 0.0325431 31.7519 0.653543 37.3919C1.51054 45.1849 2.03264 48.991 3.27464 56.531C3.86364 60.106 4.49782 65.731 4.68382 69.031C5.19582 78.136 6.07159 85.618 8.25559 99.531C10.8766 116.231 11.9456 159.267 10.4426 187.531C9.55861 204.133 9.44856 366.958 10.3196 368.72C10.7796 369.653 10.7577 370.654 10.2707 370.956C9.04773 371.712 10.0999 407.868 11.3679 408.66C11.9859 409.046 11.8738 409.456 11.0798 409.721C10.1798 410.021 9.81961 412.123 9.90061 416.592C9.96461 420.133 10.2485 433.606 10.5305 446.531C10.8135 459.456 11.3029 482.181 11.6179 497.031C11.9339 511.881 12.4527 526.056 12.7717 528.531C13.2387 532.153 14.1024 554.09 14.0324 560.531C13.7284 588.37 14.1765 672.768 14.6325 673.505C14.9815 674.069 14.8558 674.531 14.3528 674.531C13.2548 674.531 13.0879 704.375 14.1819 705.051C14.5989 705.309 14.5476 707.21 14.0686 709.276C12.8336 714.593 12.8957 729.805 14.1487 729.031C14.6987 728.691 15.1487 729.088 15.1487 729.913C15.1487 730.738 14.6768 731.705 14.0998 732.061C13.3738 732.51 13.3868 733.113 14.1418 734.023C14.8768 734.908 14.8945 735.45 14.1985 735.684C12.5375 736.242 13.2825 829.281 15.0305 839.656C15.6445 843.3 16.1866 853.313 16.2346 861.906C16.2906 871.962 16.6906 877.531 17.3576 877.531C17.9936 877.531 17.9268 878.094 17.1848 878.987C16.5208 879.788 16.2398 880.869 16.5608 881.388C17.6238 883.109 18.2636 894.835 18.0686 909.031C17.8456 925.307 17.9035 934.042 18.3825 956.031C18.7605 973.395 20.0449 979.016 23.3889 977.955C24.6619 977.551 25.1487 977.941 25.1487 979.366C25.1487 983.346 43.9484 985.143 57.2624 982.436C64.8664 980.889 74.0417 980.489 78.1487 981.525C80.0737 982.01 85.0237 982.663 89.1487 982.974C93.2737 983.286 100.024 983.966 104.149 984.485C108.274 985.004 115.474 985.686 120.149 986C124.824 986.315 132.249 987.01 136.649 987.547C141.049 988.083 149.149 988.746 154.649 989.02C160.149 989.294 165.774 989.752 167.149 990.038C168.524 990.324 171.066 990.146 172.798 989.643C174.901 989.032 176.307 989.09 177.032 989.815C177.707 990.49 184.955 991.028 196.176 991.235C206.108 991.418 218.152 991.974 222.941 992.471C227.73 992.967 239.073 993.218 248.148 993.027C257.223 992.837 279.048 992.466 296.648 992.203C314.248 991.939 330.315 991.283 332.352 990.743C334.388 990.204 337.763 989.885 339.852 990.034C341.94 990.183 350.623 990.613 359.148 990.991C367.673 991.368 376.223 991.841 378.148 992.041C380.073 992.242 388.419 992.695 396.694 993.048C404.969 993.402 413.969 993.847 416.694 994.038C419.419 994.229 425.698 994.656 430.648 994.988C435.598 995.32 440.323 995.779 441.148 996.009C441.973 996.238 448.924 996.703 456.595 997.041C464.266 997.38 470.796 997.813 471.106 998.005C472.097 998.618 512.181 1000.15 558.148 1001.34C587.838 1002.11 632.394 1002.02 654.648 1001.15C661.248 1000.9 674.973 1000.4 685.148 1000.05C695.323 999.707 707.248 999.248 711.648 999.033C716.048 998.819 728.423 998.39 739.148 998.081C749.873 997.772 767.873 997.085 779.148 996.555C790.423 996.025 806.623 995.337 815.148 995.026C823.673 994.715 834.473 994.265 839.148 994.026C863.499 992.78 870.989 992.445 885.648 991.948C894.448 991.649 908.623 991.054 917.148 990.624C925.673 990.195 941.198 989.579 951.648 989.256C1006.02 987.576 1006.77 986.83 1003.24 937.494C1002.87 932.289 1002.91 925.556 1003.34 922.531C1004.3 915.729 1005.57 899.077 1005.43 895.031C1005.38 893.381 1005.04 880.781 1004.69 867.031C1004.1 843.862 1002.81 827.619 1000.02 808.285C999.015 801.302 999.373 782.976 1000.63 777.163C1002.17 770.027 1002.45 765.81 1002.72 745.031C1002.88 732.381 1003.34 715.1 1003.73 706.63C1004.3 694.427 1004.19 691.389 1003.2 692C1002.25 692.583 1002.19 692.314 1002.92 690.902C1004.39 688.074 1005.21 675.001 1005.14 655.531C1005.11 645.906 1005.12 635.669 1005.17 632.781C1005.23 629.1 1004.86 627.526 1003.95 627.516C1003.06 627.505 1003 627.267 1003.75 626.766C1005.21 625.791 1006.13 620.635 1004.97 619.918C1004.43 619.589 1004.42 618.867 1004.93 618.192C1005.42 617.553 1005.67 615.231 1005.5 613.031C1005.33 610.831 1005.23 608.131 1005.29 607.031C1005.91 595.731 1005.78 516.202 1005.13 507.031C1004.25 494.609 1003.54 478.27 1002.61 449.031C1002.32 439.681 1001.89 430.681 1001.67 429.031C1001.45 427.381 1000.97 415.681 1000.59 403.031C1000.22 390.381 999.536 379.889 999.079 379.714C998.623 379.54 998.676 378.273 999.198 376.899C1000.54 373.367 1000.38 367.177 998.898 365.584C997.887 364.495 997.915 364.39 999.044 365.033C1000.17 365.674 1000.29 365.263 999.653 362.93C998.873 360.053 998.373 323.157 998.093 247.781C998.013 226.193 997.655 208.531 997.297 208.532C996.94 208.532 996.792 197.17 996.969 183.282C997.146 169.394 996.767 150.831 996.129 142.031C995.49 133.231 994.85 113.881 994.705 99.031C994.56 84.181 994.097 70.906 993.677 69.531C993.257 68.156 992.758 56.006 992.567 42.531C992.376 29.056 992.204 17.728 992.185 17.358C991.774 9.60701 981.666 8.44805 928.148 10.018C919.623 10.268 896.673 10.778 877.148 11.151C857.623 11.524 839.398 11.971 836.648 12.145C833.898 12.319 817.698 12.4 800.648 12.326C765.483 12.174 760.454 12.173 757.648 12.322C755.185 12.452 746.714 12.0129 733.99 11.0959C728.678 10.7129 719.453 10.216 713.49 9.99302C702.977 9.59802 676.914 8.10496 662.648 7.07896C658.798 6.80296 650.923 6.32505 645.148 6.01805C639.373 5.71105 627.448 5.04802 618.648 4.54502C609.848 4.04202 600.623 3.61004 598.148 3.58604C595.673 3.56104 588.473 3.33095 582.148 3.07395C575.823 2.81695 556.275 2.33899 538.708 2.00999C521.142 1.68199 506.467 1.22698 506.098 0.999979C505.73 0.771979 505.241 0.771979 505.014 0.999979Z" fill="#025354"/>
</svg>
