<svg width="997" height="1023" viewBox="0 0 997 1023" fill="none" xmlns="http://www.w3.org/2000/svg" preserveAspectRatio="none" >
<path fill-rule="evenodd" clip-rule="evenodd" d="M355.372 0.212738C355.105 0.480738 348.169 0.846924 339.959 1.02792C329.521 1.25692 324.381 1.7679 322.864 2.7269C321.351 3.6839 320.293 3.78973 319.364 3.07773C318.142 2.14173 303.7 2.13889 285.533 3.07089C262.579 4.24889 248.129 4.83684 234.533 5.14584C204.367 5.83084 163.26 7.83395 161.533 8.70395C161.258 8.84295 160.583 8.85979 160.033 8.74179C158.37 8.38679 140.379 8.78089 135.033 9.28989C132.283 9.55189 125.308 9.95491 119.533 10.1849C93.6399 11.2149 78.7329 11.9068 75.0329 12.2498C72.8329 12.4528 65.2259 12.6589 58.1279 12.7059C51.0309 12.7529 44.7419 13.0899 44.1529 13.4539C42.6279 14.3969 35.5329 14.5279 34.9739 13.6239C34.7169 13.2069 33.1829 13.2458 31.5669 13.7088C29.9499 14.1728 26.5989 14.5518 24.1199 14.5518C21.6399 14.5518 19.0309 14.916 18.3219 15.36C17.6129 15.804 14.9809 16.0648 12.4729 15.9408C3.83488 15.5118 0.01087 40.0888 3.48287 73.7188C3.66687 75.5068 2.67087 85.2758 1.97587 88.4898C1.70587 89.7378 1.96087 91.6508 2.54387 92.7398C3.24587 94.0518 3.26087 94.7188 2.58687 94.7188C0.874874 94.7188 0.0878785 99.8229 1.64788 100.811C2.55488 101.386 2.62187 101.694 1.84087 101.704C0.646872 101.719 0.816869 109.888 2.09487 113.914C2.40987 114.907 2.21287 115.719 1.65787 115.719C1.10187 115.719 0.868876 116.731 1.13888 117.969C1.40888 119.207 1.79087 130.569 1.98887 143.219C2.30287 163.29 3.41587 177.562 6.31887 198.719C6.73487 201.744 6.97088 206.244 6.84388 208.719C6.56288 214.214 5.63087 226.219 5.48487 226.219C4.39187 226.219 3.44687 244.191 3.16887 270.258C3.02687 283.479 2.62587 294.759 2.27587 295.325C1.29687 296.91 1.65887 309.069 2.72487 310.405C3.32787 311.161 3.27188 312.338 2.56988 313.649C1.96488 314.781 1.49388 317.847 1.52488 320.463C1.55588 323.079 1.38588 334.219 1.14788 345.219C0.868878 358.119 1.08188 365.663 1.74688 366.469C2.46388 367.338 2.43788 367.719 1.66088 367.719C0.598879 367.719 1.02587 374.07 2.21787 376.013C2.48587 376.449 2.19487 377.422 1.57087 378.174C0.751867 379.16 0.740873 379.73 1.53287 380.219C2.24587 380.66 2.29387 381.303 1.66787 382.058C0.852867 383.04 0.81588 386.124 1.47788 397.719C1.59288 399.735 1.12088 401.989 0.313879 403.279C-0.427121 404.461 0.278871 499.498 1.03687 500.725C1.52587 501.516 2.48887 523.695 2.66587 538.219C2.71887 542.619 3.12187 546.669 3.56087 547.219C3.99987 547.769 3.97587 550.244 3.50887 552.719C3.04187 555.194 3.03488 560.144 3.49288 563.719C3.95088 567.294 4.37888 572.694 4.44488 575.719C4.52188 579.303 5.08087 581.606 6.04787 582.329C7.67787 583.548 8.12288 585.202 6.56188 584.237C5.17988 583.383 4.17787 588.206 5.05887 591.469C5.46787 592.981 5.76087 600.215 5.71187 607.545C5.66187 614.874 5.98888 622.834 6.43688 625.235C6.93888 627.922 6.87088 629.981 6.25988 630.592C5.71388 631.138 5.60487 632.402 6.01787 633.402C6.43087 634.401 6.75887 638.594 6.74587 642.719C6.73387 646.844 7.15187 650.741 7.67687 651.38C8.28787 652.125 8.25387 652.773 7.58187 653.189C6.02887 654.149 6.30987 657.353 8.10387 659.148C8.96887 660.012 9.24487 660.719 8.71787 660.719C7.14987 660.719 6.76688 666.608 8.20188 668.657C9.04188 669.857 9.15087 670.68 8.49787 670.897C7.83187 671.119 7.43487 679.395 7.37787 694.23C7.24587 728.882 7.75487 796.133 8.15587 796.853C8.34887 797.202 8.70587 813.627 8.94887 833.353C9.19187 853.079 9.60987 870.344 9.87787 871.719C10.1469 873.094 10.4109 877.594 10.4649 881.719C10.5309 886.764 10.8679 888.738 11.4939 887.748C12.0059 886.939 12.7859 886.638 13.2269 887.08C13.6689 887.521 13.2999 888.416 12.4089 889.068C10.7299 890.296 9.72887 933.719 11.3799 933.719C11.7549 933.719 12.1849 939.006 12.3359 945.469C12.4869 951.932 13.0459 957.37 13.5779 957.554C14.1099 957.739 14.2089 958.414 13.7979 959.054C9.78587 965.305 13.5149 991.034 18.8459 993.887C21.8399 995.489 69.9919 997.286 73.0159 995.909C74.4209 995.269 75.6429 995.229 76.2199 995.806C76.7409 996.327 93.0149 996.98 113.093 997.286C168.035 998.122 174.855 998.127 177.283 997.326C178.621 996.885 179.533 996.994 179.533 997.594C179.533 998.15 180.545 998.35 181.783 998.039C183.021 997.728 184.933 997.491 186.033 997.513C190.697 997.606 203.134 998.775 204.683 999.267C205.608 999.56 206.668 999.31 207.038 998.711C207.523 997.926 208.081 997.929 209.033 998.719C209.992 999.515 210.541 999.515 211.033 998.719C211.495 997.971 212.1 997.945 212.934 998.637C213.606 999.195 217.054 999.742 220.595 999.853C224.136 999.964 227.445 1000.28 227.947 1000.55C229.673 1001.48 234.933 1001.52 237.298 1000.62C238.683 1000.09 240.362 1000.09 241.348 1000.61C242.275 1001.1 246.858 1001.8 251.533 1002.16C256.208 1002.52 261.383 1003.03 263.033 1003.28C264.683 1003.53 270.083 1003.99 275.033 1004.29C288.016 1005.1 290.601 1005.34 305.033 1007.16C312.183 1008.06 320.958 1009 324.533 1009.25C328.108 1009.5 333.733 1010.15 337.033 1010.71C340.333 1011.26 345.733 1011.73 349.033 1011.77C352.333 1011.8 358.183 1012.38 362.033 1013.06C365.883 1013.74 370.704 1014.01 372.746 1013.67C374.789 1013.33 376.842 1013.43 377.309 1013.89C378.447 1015.03 400.076 1017.02 404.691 1016.42C406.702 1016.15 408.727 1016.29 409.191 1016.71C409.956 1017.42 421.63 1018.38 441.533 1019.37C445.658 1019.57 451.283 1019.92 454.033 1020.15C460.563 1020.69 477.186 1021.71 486.031 1022.11C489.88 1022.29 494.261 1022.08 495.767 1021.65C497.274 1021.22 498.744 1021.25 499.035 1021.72C500.017 1023.31 564.308 1022.13 586.533 1020.12C597.432 1019.13 598.852 1018.96 607.081 1017.69C611.455 1017.01 617.547 1016.36 620.619 1016.25C623.692 1016.13 626.617 1015.82 627.119 1015.55C627.622 1015.28 631.633 1015.14 636.033 1015.23C640.433 1015.32 645.608 1015.02 647.533 1014.57C649.458 1014.11 655.758 1013.49 661.533 1013.19C680.209 1012.21 684.5 1011.86 685.526 1011.22C686.08 1010.88 686.533 1011.13 686.533 1011.77C686.533 1012.51 687.436 1012.71 689.034 1012.31C690.409 1011.96 695.809 1011.66 701.034 1011.63C706.979 1011.6 710.533 1011.18 710.533 1010.53C710.533 1009.85 711.047 1009.9 711.961 1010.66C712.888 1011.43 717.895 1011.87 726.211 1011.92C733.263 1011.95 748.708 1012.15 760.533 1012.36C772.358 1012.56 786.533 1012.72 792.033 1012.71C825.837 1012.67 838.242 1012.36 839.847 1011.52C840.846 1011 842.194 1010.96 842.847 1011.42C843.991 1012.23 850.129 1012.19 861.424 1011.3C864.389 1011.07 867.201 1010.28 867.674 1009.55C868.378 1008.46 868.703 1008.48 869.475 1009.68C870.145 1010.73 872.813 1011.25 878.725 1011.49C883.294 1011.67 888.608 1012.04 890.533 1012.31C892.458 1012.57 909.333 1012.98 928.033 1013.21C946.733 1013.43 964.195 1013.87 966.837 1014.16C969.892 1014.51 971.418 1014.34 971.028 1013.71C970.691 1013.17 970.892 1012.72 971.474 1012.72C972.056 1012.72 972.533 1013.17 972.533 1013.72C972.533 1015.14 980.187 1014.95 986.264 1013.38C989.106 1012.64 992.641 1012.17 994.121 1012.32C997.013 1012.63 997.143 1000.7 994.378 988.719C993.807 986.244 993.115 982.082 992.84 979.469C992.565 976.856 991.878 974.719 991.314 974.719C990.697 974.719 990.771 974.137 991.499 973.26C992.169 972.453 992.461 970.553 992.154 969.01C991.848 967.475 991.512 963.744 991.407 960.719C991.302 957.694 990.998 954.821 990.733 954.335C990.467 953.85 990.134 952.05 989.993 950.335C989.53 944.723 988.423 937.35 987.92 936.536C986.712 934.582 985.891 867.919 987.012 862.816C987.372 861.177 987.19 858.946 986.608 857.858C985.975 856.676 985.926 855.747 986.486 855.55C987.001 855.368 987.447 852.969 987.478 850.219C987.542 844.448 987.551 844.205 988 836.219C988.185 832.919 988.372 826.169 988.414 821.219C988.457 816.269 988.53 811.319 988.577 810.219C988.624 809.119 988.839 788.194 989.056 763.719C989.273 739.244 989.553 714.165 989.678 707.989C989.803 701.812 989.647 696.5 989.331 696.183C988.795 695.647 988.944 689.992 989.97 671.939C990.252 666.973 989.943 663.811 988.999 661.992C988.003 660.071 987.915 658.963 988.687 658.034C989.276 657.324 989.695 653.7 989.619 649.981C989.229 631.044 989.272 627.951 989.938 626.873C990.346 626.212 989.97 625.44 989.071 625.095C987.903 624.647 987.765 624.145 988.549 623.199C989.314 622.277 989.281 621.802 988.431 621.518C987.543 621.222 987.583 620.51 988.593 618.671C990.846 614.568 990.536 559.356 988.234 554.787C987.279 552.892 986.913 551.1 987.416 550.787C988.212 550.291 989.028 546.119 988.603 544.719C988.519 544.444 988.287 532.519 988.086 518.219C987.571 481.496 987.42 478.309 986.157 477.484C985.36 476.963 985.396 476.745 986.283 476.734C986.971 476.726 987.533 476.221 987.533 475.612C987.533 475.003 986.858 474.764 986.033 475.081C985.208 475.397 984.533 475.413 984.533 475.116C984.533 474.819 985.208 473.901 986.033 473.076C987.797 471.312 988.042 466.055 986.385 465.503C985.532 465.219 985.516 463.849 986.321 460.17C986.918 457.447 987.478 443.744 987.567 429.719C987.882 379.739 987.833 377.524 986.384 376.606C985.353 375.953 985.335 375.746 986.306 375.734C987.886 375.715 987.624 359.728 986.043 359.704C985.487 359.695 985.62 359.316 986.337 358.861C988.092 357.748 988.29 345.805 986.571 344.742C985.596 344.14 985.662 343.45 986.872 341.595C987.724 340.288 988.284 337.981 988.115 336.469C987.946 334.957 988.144 333.719 988.555 333.719C989.717 333.719 988.385 320.314 987.139 319.469C986.341 318.927 986.36 318.507 987.21 317.955C987.947 317.477 988.42 314.021 988.477 308.705C988.526 304.038 988.607 297.575 988.655 294.343C988.707 290.94 988.266 288.172 987.607 287.765C986.862 287.304 986.767 286.26 987.333 284.732C988.749 280.902 987.692 277.563 985.444 278.767C983.951 279.566 983.695 279.461 984.162 278.242C984.484 277.404 985.486 276.712 986.39 276.704C987.672 276.692 987.74 276.503 986.698 275.842C985.663 275.186 985.78 274.888 987.223 274.51C989.426 273.934 990.485 256.367 988.536 252.725C987.946 251.622 987.853 250.719 988.331 250.719C989.389 250.719 989.38 250.831 989.38 237.219C989.381 208.781 988.711 170.92 988.16 168.219C987.824 166.569 987.48 157.794 987.397 148.719C987.314 139.644 986.995 131.779 986.689 131.241C986.383 130.702 986.032 127.865 985.909 124.935C985.787 122.006 985.206 119.03 984.618 118.322C984.031 117.614 983.884 116.701 984.292 116.294C985.794 114.792 985.447 87.7188 983.925 87.7188C981.915 87.7188 982.214 85.9597 984.426 84.7757C986.894 83.4547 987.331 69.0638 985.099 62.5848C984.297 60.2578 983.845 58.0237 984.094 57.6197C985.565 55.2407 985.562 36.8908 984.09 35.4188C982.187 33.5158 982.069 32.3268 983.852 33.0108C984.91 33.4168 984.96 32.8418 984.108 30.1178C983.522 28.2488 982.469 26.7188 981.767 26.7188C981.065 26.7188 980 25.6428 979.4 24.3268C978.124 21.5248 971.073 18.4007 968.658 19.5667C966.715 20.5047 965.462 20.4609 963.783 19.3949C963.096 18.9579 962.182 18.8179 961.753 19.0829C961.324 19.3479 957.836 19.6759 954.003 19.8109C950.169 19.9459 945.458 20.4339 943.533 20.8949C934.113 23.1519 926.889 23.322 923.747 21.36C923.04 20.918 919.665 20.3858 916.247 20.1788C912.829 19.9708 908.458 19.6008 906.533 19.3558C896.118 18.0318 881.534 16.7578 878.033 16.8668C874.01 16.9928 870.02 16.516 859.136 14.61C854.463 13.792 853.065 13.8518 852.401 14.8978C851.94 15.6248 851.557 15.7308 851.548 15.1358C851.54 14.5398 850.296 14.0469 848.783 14.0399C847.27 14.0319 842.433 13.6558 838.033 13.2018C829.13 12.2848 826.332 12.4458 825.409 13.9278C825.024 14.5458 823.742 14.2469 822.061 13.1449C819.859 11.7029 818.972 11.5879 817.435 12.5479C816.389 13.2009 815.533 13.3407 815.533 12.8587C815.533 11.0467 807.113 10.6938 805.783 12.4508C805.073 13.3878 804.533 13.5868 804.533 12.9098C804.533 11.4468 799.326 11.326 797.896 12.756C797.18 13.472 796.009 13.4699 794.112 12.7489C792.601 12.1749 790.984 11.9399 790.518 12.2279C790.052 12.5159 789.372 12.2679 789.007 11.6759C788.091 10.1949 783.301 10.8898 781.815 12.7188C780.749 14.0308 780.593 13.9988 780.565 12.4688C780.547 11.5058 779.745 10.6799 778.783 10.6329C777.821 10.5859 775.458 10.3868 773.533 10.1908C755.636 8.36877 730.533 9.90993 730.533 12.8299C730.533 13.8689 730.083 14.7188 729.533 14.7188C728.983 14.7188 728.533 14.2828 728.533 13.7498C728.533 13.2178 727.858 13.0408 727.033 13.3568C726.203 13.6758 725.533 13.3858 725.533 12.7088C725.533 11.9778 724.728 11.6959 723.533 12.0089C722.433 12.2959 721.533 12.0688 721.533 11.5028C721.533 10.8938 720.921 10.9818 720.033 11.7188C718.997 12.5788 718.533 12.6169 718.533 11.8409C718.533 11.2239 718.083 10.7188 717.533 10.7188C716.983 10.7188 716.533 11.3938 716.533 12.2188C716.533 13.0438 716.056 13.7188 715.474 13.7188C714.892 13.7188 714.693 13.2688 715.033 12.7188C716.174 10.8718 714.561 9.75796 712.1 10.693C710.801 11.187 709.456 11.309 709.112 10.964C707.683 9.53596 698.189 9.78789 694.915 11.3419C692.639 12.4219 691.11 12.6318 690.276 11.9798C689.593 11.4448 687.008 11.2049 684.533 11.4469C680.775 11.8149 673.058 11.8969 669.033 11.6129C668.483 11.5739 665.558 11.8528 662.533 12.2328C659.508 12.6128 656.583 12.8558 656.033 12.7718C655.483 12.6878 651.883 12.4429 648.033 12.2289C644.183 12.0149 635.183 11.4908 628.033 11.0648C620.883 10.6388 611.208 10.2858 606.533 10.2818C601.858 10.2778 597.791 9.93988 597.495 9.52988C597.198 9.12088 590.448 8.68674 582.495 8.56674C574.541 8.44674 567.785 7.98772 567.482 7.54672C567.179 7.10472 565.497 7.15581 563.745 7.65781C561.992 8.16081 560.322 8.18694 560.031 7.71494C559.406 6.70494 552.652 5.87578 539.533 5.20078C534.308 4.93078 528.233 4.50575 526.033 4.25375C520.679 3.64175 493.693 2.5278 474.533 2.1268C466.008 1.9488 457.458 1.5548 455.533 1.2518C451.065 0.547801 356.023 -0.438262 355.372 0.212738ZM326.102 20.0819C327.725 19.0179 328.533 18.8789 328.533 19.6629C328.533 20.3089 328.945 20.5828 329.448 20.2718C329.951 19.9608 330.541 20.2437 330.76 20.8997C331.043 21.7497 334.02 21.9939 341.095 21.7479C357.326 21.1829 453.439 21.5427 454.457 22.1717C454.973 22.4907 455.682 22.2868 456.033 21.7188C456.384 21.1508 457.134 20.9719 457.7 21.3219C458.663 21.9169 468.459 22.7928 490.238 24.2298C495.769 24.5948 500.198 24.4328 501.335 23.8248C502.632 23.1308 503.563 23.1489 504.299 23.8849C504.949 24.5349 511.927 25.0768 522.043 25.2618C531.212 25.4298 538.958 25.8108 539.255 26.1078C539.553 26.4048 540.609 26.2128 541.604 25.6808C542.614 25.1398 543.65 25.0988 543.952 25.5868C544.793 26.9478 550.184 27.8308 560.533 28.3018C565.758 28.5398 573.633 28.9839 578.033 29.2889C582.433 29.5939 586.933 29.7769 588.033 29.6959C589.133 29.6139 590.708 29.6049 591.533 29.6759C600.858 30.4749 610.533 30.5599 610.533 29.8429C610.533 28.0119 616.64 28.0148 618.968 29.8468C621.381 31.7438 638.671 33.0808 675.533 34.2198C684.058 34.4828 693.958 34.9309 697.533 35.2149C701.108 35.4999 713.033 36.0237 724.033 36.3797C735.033 36.7367 746.058 37.1689 748.533 37.3419C751.008 37.5139 762.933 37.9368 775.033 38.2818C805.798 39.1568 816.043 39.5598 823.533 40.1878C827.108 40.4868 833.408 40.9449 837.533 41.2049C841.658 41.4659 848.408 41.9389 852.533 42.2579C873.008 43.8389 946.594 44.503 960.783 43.235C967.31 42.652 967.536 42.7079 967.633 44.9259C967.868 50.3289 968.36 56.5888 968.953 61.7188C969.809 69.1348 969.81 69.7148 968.973 81.4688C968.449 88.8148 968.56 91.7188 969.365 91.7188C970.859 91.7188 970.402 99.5418 968.872 100.136C968.073 100.447 967.826 103.334 968.08 109.403C968.57 121.13 968.855 122.289 971.147 121.891C972.907 121.586 972.918 121.652 971.311 122.891C969.074 124.616 969.506 162.472 971.747 161.087C972.179 160.819 972.533 161.528 972.533 162.66C972.533 163.865 971.881 164.719 970.961 164.719C968.884 164.719 970.003 175.344 972.363 178.03C973.391 179.201 973.588 180.085 972.92 180.53C971.401 181.543 970.483 184.57 971.503 185.2C971.989 185.501 972.022 187.013 971.577 188.567C971.125 190.14 971.177 192.118 971.693 193.04C972.269 194.07 972.243 195.393 971.621 196.554C971.006 197.704 970.783 207.358 971.039 221.817C971.267 234.688 971.468 246.344 971.487 247.719C971.506 249.094 971.365 259.669 971.174 271.219C970.933 285.765 971.165 292.455 971.93 292.987C972.673 293.505 972.444 294.102 971.228 294.818C969.862 295.622 969.691 296.205 970.526 297.211C971.133 297.942 971.232 298.787 970.746 299.088C969.687 299.742 969.802 302.727 970.958 304.598C971.442 305.381 971.338 306.221 970.71 306.61C969.81 307.166 969.295 325.413 969.353 354.719C969.354 355.544 969.562 358.807 969.814 361.969C970.066 365.131 969.947 367.719 969.549 367.719C969.152 367.719 968.777 383.694 968.715 403.219C968.63 430.456 968.886 438.723 969.818 438.734C970.612 438.744 970.673 439.004 969.994 439.484C969.349 439.941 968.904 447.223 968.82 458.719C968.744 468.894 968.652 480.144 968.615 483.719C968.454 499.102 969.583 508.435 971.775 509.844C972.381 510.234 972.33 510.726 971.64 511.153C971.031 511.529 970.533 511.334 970.533 510.719C970.533 510.104 970.172 509.824 969.73 510.097C969.289 510.37 969.06 512.984 969.222 515.906C969.384 518.828 969.779 539.193 970.1 561.161C970.852 612.727 970.8 611.644 972.562 612.758C973.559 613.388 973.63 613.693 972.783 613.704C971.864 613.715 971.533 616.477 971.533 624.136C971.533 631.578 971.89 634.672 972.783 634.973C973.752 635.299 973.719 635.775 972.633 637.09C971.459 638.511 970.716 657.179 971.625 662.391C971.705 662.846 971.684 663.669 971.58 664.219C971.475 664.769 971.451 669.719 971.526 675.219C971.601 680.719 971.584 695.344 971.489 707.719C971.394 720.094 971.334 732.694 971.356 735.719C971.5 755.736 971.646 862.599 971.537 868.219C971.451 872.633 971.459 881.305 971.57 904.219C971.634 917.419 971.416 929.466 971.086 930.991C970.756 932.515 970.993 934.71 971.613 935.868C972.487 937.501 972.436 938.169 971.386 938.846C970.526 939.401 970.398 939.992 971.033 940.469C983.956 950.161 970.123 993.888 954.303 993.353C908.634 991.808 878.788 991.498 878.13 992.562C877.719 993.227 876.611 993.332 875.248 992.836C874.03 992.393 864.033 992.205 853.033 992.419C826.979 992.926 779.225 992.928 754.248 992.423C743.366 992.203 734.226 992.406 733.937 992.874C733.648 993.342 732.616 993.298 731.643 992.778C727.218 990.41 643.524 992.925 636.166 995.646C634.993 996.081 631.558 996.293 628.533 996.118C625.508 995.943 619.433 996.217 615.033 996.725C599.69 998.499 583.945 999.771 571.533 1000.24C564.658 1000.5 557.683 1000.99 556.033 1001.33C552.362 1002.08 484.704 1002.17 478.789 1001.43C476.38 1001.12 474.271 1001.33 473.914 1001.91C473.494 1002.59 473.057 1002.57 472.606 1001.84C472.184 1001.15 466.115 1000.57 456.481 1000.28C447.985 1000.02 438.783 999.559 436.033 999.247C433.283 998.935 427.658 998.47 423.533 998.214C419.408 997.958 414.458 997.566 412.533 997.342C410.608 997.118 404.083 996.639 398.033 996.278C382.733 995.364 377.392 994.869 374.783 994.126C373.315 993.709 372.533 993.917 372.533 994.725C372.533 995.652 372.193 995.682 371.182 994.843C370.439 994.226 367.402 993.706 364.432 993.688C357.27 993.642 347.499 992.526 344.533 991.414C343.708 991.104 339.658 990.584 335.533 990.258C321.673 989.16 317.07 988.708 309.533 987.702C305.408 987.152 296.408 986.265 289.533 985.731C282.658 985.196 272.083 984.251 266.033 983.631C259.983 983.01 250.308 982.313 244.533 982.082C238.758 981.851 230.658 981.454 226.533 981.199C218.617 980.711 211.348 980.536 209.9 980.799C209.423 980.885 208.808 980.835 208.533 980.688C207.416 980.089 159.269 979.429 156.533 979.976C155.708 980.14 154.471 980.627 153.783 981.056C153.096 981.486 152.533 981.42 152.533 980.911C152.533 980.356 141.033 980.146 123.783 980.386C33.7489 981.641 34.4479 981.658 30.0509 978.152C27.6639 976.248 27.4999 975.897 29.2049 976.343C31.1559 976.854 31.3269 976.482 31.4109 971.558C31.7489 951.797 31.1369 943.211 29.3109 942.082C28.7079 941.709 28.8509 941.097 29.6759 940.518C30.6059 939.866 30.6799 939.421 29.9099 939.102C29.2059 938.81 28.9749 936.979 29.2899 934.186C29.5659 931.738 29.3389 929.169 28.7859 928.477C28.2329 927.785 28.1119 926.319 28.5179 925.219C29.5289 922.481 28.7069 920.74 26.6999 921.364C25.3889 921.772 25.4469 921.545 26.9739 920.301C28.4129 919.128 28.5419 918.699 27.4739 918.64C26.4449 918.584 26.3919 918.416 27.2889 918.055C27.9799 917.776 28.2949 917.143 27.9889 916.647C27.6819 916.151 27.9019 914.052 28.4769 911.982C29.3769 908.739 29.2349 907.829 27.4439 905.397C25.3669 902.575 25.3669 902.575 27.5029 902.017C29.9429 901.379 30.1359 894.385 27.7829 891.898C26.2929 890.323 26.1079 888.338 27.5329 889.219C29.1219 890.201 28.6959 885.397 26.9759 882.942C25.5559 880.913 25.5639 880.719 27.0719 880.719C28.5589 880.719 28.6599 879.347 28.0809 866.969C27.7269 859.407 27.3469 839.365 27.2349 822.432C27.0729 797.756 26.7639 791.479 25.6759 790.807C24.7679 790.246 24.6729 789.751 25.3899 789.308C26.0929 788.873 26.2909 784.977 25.9669 777.933C25.6959 772.04 25.5339 766.319 25.6069 765.219C25.6809 764.119 25.7169 761.644 25.6889 759.719C25.6609 757.794 25.6969 754.869 25.7679 753.219C26.5039 736.293 25.3839 670.745 24.3489 670.105C23.8189 669.778 23.8849 669 24.5059 668.252C25.3049 667.289 25.1029 666.84 23.7059 666.474C22.6769 666.205 21.5739 664.984 21.2539 663.76C20.6939 661.617 20.7439 661.6 22.6089 663.287C25.3119 665.734 25.9649 664.56 23.4209 661.829C21.6039 659.879 21.5589 659.626 23.0779 659.902C24.0389 660.076 25.0219 659.657 25.2629 658.969C25.5029 658.282 24.9869 657.719 24.1159 657.719C22.0939 657.719 22.0969 656.758 24.1239 655.276C25.4759 654.288 25.5439 653.475 24.5799 649.892C23.9549 647.572 23.6829 645.285 23.9759 644.811C25.2859 642.691 22.4009 637.719 20.4629 638.757C18.9929 639.543 18.6959 639.458 19.1139 638.369C19.4089 637.601 20.6359 636.496 21.8409 635.913C23.6189 635.055 23.7019 634.842 22.2829 634.787C21.3199 634.749 20.5329 634.283 20.5329 633.75C20.5329 633.218 21.2079 633.041 22.0329 633.357C23.0929 633.764 23.5599 633.241 23.6269 631.576C23.8659 625.558 23.7019 608.855 23.2699 595.219C23.0089 586.969 22.5469 571.231 22.2449 560.246C21.9419 549.261 21.3129 540.146 20.8459 539.99C19.8779 539.667 20.0759 525.073 21.0839 522.447C21.5609 521.203 21.2269 520.697 19.8899 520.64C18.8689 520.597 18.5279 520.357 19.1329 520.107C19.8299 519.819 20.0649 517.561 19.7739 513.936C19.1829 506.572 19.1249 504.447 19.4799 503.219C20.4849 499.75 19.4299 490.821 18.0769 491.341C16.8839 491.798 16.7839 491.332 17.5209 488.76C18.0159 487.033 18.4329 479.455 18.4459 471.92C18.4809 452.674 18.3079 425.594 18.0949 416.719C17.9959 412.594 18.1159 408.824 18.3619 408.342C19.3449 406.41 19.1719 395.127 18.1379 393.777C17.3629 392.765 17.3579 392.529 18.1219 392.987C18.8789 393.439 19.2229 390.463 19.2479 383.238C19.2779 374.61 19.0119 372.733 17.6869 372.225C16.3229 371.701 16.2999 371.481 17.5309 370.72C18.7149 369.989 19.0029 365.482 19.1429 345.524C19.2369 332.156 19.4749 320.544 19.6729 319.719C19.8709 318.894 19.4709 318.331 18.7829 318.469C18.0959 318.606 17.5329 318.269 17.5329 317.719C17.5329 317.169 18.1339 316.719 18.8679 316.719C19.8639 316.719 20.2309 314.626 20.3139 308.469C20.4209 300.527 22.1089 273.946 22.9649 266.719C23.1929 264.794 23.6549 257.369 23.9909 250.219C24.3259 243.069 24.8399 236.436 25.1309 235.48C25.4229 234.523 25.8719 227.998 26.1299 220.98C26.3879 213.961 26.7129 206.419 26.8519 204.219C26.9909 202.019 26.6679 199.622 26.1329 198.893C25.4699 197.988 25.5889 197.302 26.5079 196.734C28.0149 195.803 28.8789 178.969 27.5089 177.219C26.3239 175.703 26.1249 171.465 27.1339 169.219C28.7499 165.622 27.9699 129.401 25.9489 114.219C25.6559 112.019 25.2749 107.682 25.1019 104.58C24.9299 101.479 24.4849 98.4509 24.1149 97.8509C23.7439 97.2509 23.9319 95.8418 24.5329 94.7188C25.1339 93.5958 25.2919 92.1388 24.8849 91.4798C24.4779 90.8208 24.2769 84.1928 24.4389 76.7498C24.9409 53.6528 24.6899 47.3997 23.1579 44.9217C22.7959 44.3357 22.8969 43.6118 23.3819 43.3128C23.8659 43.0128 24.0929 41.2318 23.8869 39.3548C23.6049 36.7958 23.9509 35.7688 25.2719 35.2508C27.1179 34.5268 33.9639 33.5278 36.5329 33.6078C43.5199 33.8248 56.4619 33.5948 63.0379 33.1378C67.4349 32.8318 75.7579 32.4388 81.5329 32.2638C129.81 30.8008 164.533 28.8088 164.533 27.5018C164.533 26.9968 165.321 26.8278 166.283 27.1258C167.792 27.5928 170.447 27.6889 182.033 27.6949C204.272 27.7069 232.64 26.7719 233.89 25.9859C234.519 25.5919 241.088 25.1338 248.489 24.9698C256.749 24.7858 262.203 24.2527 262.614 23.5877C263.089 22.8197 263.486 22.8338 263.982 23.6358C264.707 24.8098 281.417 24.4979 292.533 23.1029C295.558 22.7229 302.308 22.3398 307.533 22.2528C321.964 22.0098 322.519 21.9258 322.649 19.9688C322.758 18.3298 322.794 18.3289 323.218 19.9469C323.637 21.5439 323.855 21.5539 326.102 20.0819Z" fill="#025354"/>
<path d="M326.102 20.0819C327.725 19.0179 328.533 18.8789 328.533 19.6629C328.533 20.3089 328.945 20.5828 329.448 20.2718C329.951 19.9608 330.541 20.2437 330.76 20.8997C331.043 21.7497 334.02 21.9939 341.095 21.7479C357.326 21.1829 453.439 21.5427 454.457 22.1717C454.973 22.4907 455.682 22.2868 456.033 21.7188C456.384 21.1508 457.134 20.9719 457.7 21.3219C458.663 21.9169 468.459 22.7928 490.238 24.2298C495.769 24.5948 500.198 24.4328 501.335 23.8248C502.632 23.1308 503.563 23.1489 504.299 23.8849C504.949 24.5349 511.927 25.0768 522.043 25.2618C531.212 25.4298 538.958 25.8108 539.255 26.1078C539.553 26.4048 540.609 26.2128 541.604 25.6808C542.614 25.1398 543.65 25.0988 543.952 25.5868C544.793 26.9478 550.184 27.8308 560.533 28.3018C565.758 28.5398 573.633 28.9839 578.033 29.2889C582.433 29.5939 586.933 29.7769 588.033 29.6959C589.133 29.6139 590.708 29.6049 591.533 29.6759C600.858 30.4749 610.533 30.5599 610.533 29.8429C610.533 28.0119 616.64 28.0148 618.968 29.8468C621.381 31.7438 638.671 33.0808 675.533 34.2198C684.058 34.4828 693.958 34.9309 697.533 35.2149C701.108 35.4999 713.033 36.0237 724.033 36.3797C735.033 36.7367 746.058 37.1689 748.533 37.3419C751.008 37.5139 762.933 37.9368 775.033 38.2818C805.798 39.1568 816.043 39.5598 823.533 40.1878C827.108 40.4868 833.408 40.9449 837.533 41.2049C841.658 41.4659 848.408 41.9389 852.533 42.2579C873.008 43.8389 946.594 44.503 960.783 43.235C967.31 42.652 967.536 42.7079 967.633 44.9259C967.868 50.3289 968.36 56.5888 968.953 61.7188C969.809 69.1348 969.81 69.7148 968.973 81.4688C968.449 88.8148 968.56 91.7188 969.365 91.7188C970.859 91.7188 970.402 99.5418 968.872 100.136C968.073 100.447 967.826 103.334 968.08 109.403C968.57 121.13 968.855 122.289 971.147 121.891C972.907 121.586 972.918 121.652 971.311 122.891C969.074 124.616 969.506 162.472 971.747 161.087C972.179 160.819 972.533 161.528 972.533 162.66C972.533 163.865 971.881 164.719 970.961 164.719C968.884 164.719 970.003 175.344 972.363 178.03C973.391 179.201 973.588 180.085 972.92 180.53C971.401 181.543 970.483 184.57 971.503 185.2C971.989 185.501 972.022 187.013 971.577 188.567C971.125 190.14 971.177 192.118 971.693 193.04C972.269 194.07 972.243 195.393 971.621 196.554C971.006 197.704 970.783 207.358 971.039 221.817C971.267 234.688 971.468 246.344 971.487 247.719C971.506 249.094 971.365 259.669 971.174 271.219C970.933 285.765 971.165 292.455 971.93 292.987C972.673 293.505 972.444 294.102 971.228 294.818C969.862 295.622 969.691 296.205 970.526 297.211C971.133 297.942 971.232 298.787 970.746 299.088C969.687 299.742 969.802 302.727 970.958 304.598C971.442 305.381 971.338 306.221 970.71 306.61C969.81 307.166 969.295 325.413 969.353 354.719C969.354 355.544 969.562 358.807 969.814 361.969C970.066 365.131 969.947 367.719 969.549 367.719C969.152 367.719 968.777 383.694 968.715 403.219C968.63 430.456 968.886 438.723 969.818 438.734C970.612 438.744 970.673 439.004 969.994 439.484C969.349 439.941 968.904 447.223 968.82 458.719C968.744 468.894 968.652 480.144 968.615 483.719C968.454 499.102 969.583 508.435 971.775 509.844C972.381 510.234 972.33 510.726 971.64 511.153C971.031 511.529 970.533 511.334 970.533 510.719C970.533 510.104 970.172 509.824 969.73 510.097C969.289 510.37 969.06 512.984 969.222 515.906C969.384 518.828 969.779 539.193 970.1 561.161C970.852 612.727 970.8 611.644 972.562 612.758C973.559 613.388 973.63 613.693 972.783 613.704C971.864 613.715 971.533 616.477 971.533 624.136C971.533 631.578 971.89 634.672 972.783 634.973C973.752 635.299 973.719 635.775 972.633 637.09C971.459 638.511 970.716 657.179 971.625 662.391C971.705 662.846 971.684 663.669 971.58 664.219C971.475 664.769 971.451 669.719 971.526 675.219C971.601 680.719 971.584 695.344 971.489 707.719C971.394 720.094 971.334 732.694 971.356 735.719C971.5 755.736 971.646 862.599 971.537 868.219C971.451 872.633 971.459 881.305 971.57 904.219C971.634 917.419 971.416 929.466 971.086 930.991C970.756 932.515 970.993 934.71 971.613 935.868C972.487 937.501 972.436 938.169 971.386 938.846C970.526 939.401 970.398 939.992 971.033 940.469C983.956 950.161 970.123 993.888 954.303 993.353C908.634 991.808 878.788 991.498 878.13 992.562C877.719 993.227 876.611 993.332 875.248 992.836C874.03 992.393 864.033 992.205 853.033 992.419C826.979 992.926 779.225 992.928 754.248 992.423C743.366 992.203 734.226 992.406 733.937 992.874C733.648 993.342 732.616 993.298 731.643 992.778C727.218 990.41 643.524 992.925 636.166 995.646C634.993 996.081 631.558 996.293 628.533 996.118C625.508 995.943 619.433 996.217 615.033 996.725C599.69 998.499 583.945 999.771 571.533 1000.24C564.658 1000.5 557.683 1000.99 556.033 1001.33C552.362 1002.08 484.704 1002.17 478.789 1001.43C476.38 1001.12 474.271 1001.33 473.914 1001.91C473.494 1002.59 473.057 1002.57 472.606 1001.84C472.184 1001.15 466.115 1000.57 456.481 1000.28C447.985 1000.02 438.783 999.559 436.033 999.247C433.283 998.935 427.658 998.47 423.533 998.214C419.408 997.958 414.458 997.566 412.533 997.342C410.608 997.118 404.083 996.639 398.033 996.278C382.733 995.364 377.392 994.869 374.783 994.126C373.315 993.709 372.533 993.917 372.533 994.725C372.533 995.652 372.193 995.682 371.182 994.843C370.439 994.226 367.402 993.706 364.432 993.688C357.27 993.642 347.499 992.526 344.533 991.414C343.708 991.104 339.658 990.584 335.533 990.258C321.673 989.16 317.07 988.708 309.533 987.702C305.408 987.152 296.408 986.265 289.533 985.731C282.658 985.196 272.083 984.251 266.033 983.631C259.983 983.01 250.308 982.313 244.533 982.082C238.758 981.851 230.658 981.454 226.533 981.199C218.617 980.711 211.348 980.536 209.9 980.799C209.423 980.885 208.808 980.835 208.533 980.688C207.416 980.089 159.269 979.429 156.533 979.976C155.708 980.14 154.471 980.627 153.783 981.056C153.096 981.486 152.533 981.42 152.533 980.911C152.533 980.356 141.033 980.146 123.783 980.386C33.7489 981.641 34.4479 981.658 30.0509 978.152C27.6639 976.248 27.4999 975.897 29.2049 976.343C31.1559 976.854 31.3269 976.482 31.4109 971.558C31.7489 951.797 31.1369 943.211 29.3109 942.082C28.7079 941.709 28.8509 941.097 29.6759 940.518C30.6059 939.866 30.6799 939.421 29.9099 939.102C29.2059 938.81 28.9749 936.979 29.2899 934.186C29.5659 931.738 29.3389 929.169 28.7859 928.477C28.2329 927.785 28.1119 926.319 28.5179 925.219C29.5289 922.481 28.7069 920.74 26.6999 921.364C25.3889 921.772 25.4469 921.545 26.9739 920.301C28.4129 919.128 28.5419 918.699 27.4739 918.64C26.4449 918.584 26.3919 918.416 27.2889 918.055C27.9799 917.776 28.2949 917.143 27.9889 916.647C27.6819 916.151 27.9019 914.052 28.4769 911.982C29.3769 908.739 29.2349 907.829 27.4439 905.397C25.3669 902.575 25.3669 902.575 27.5029 902.017C29.9429 901.379 30.1359 894.385 27.7829 891.898C26.2929 890.323 26.1079 888.338 27.5329 889.219C29.1219 890.201 28.6959 885.397 26.9759 882.942C25.5559 880.913 25.5639 880.719 27.0719 880.719C28.5589 880.719 28.6599 879.347 28.0809 866.969C27.7269 859.407 27.3469 839.365 27.2349 822.432C27.0729 797.756 26.7639 791.479 25.6759 790.807C24.7679 790.246 24.6729 789.751 25.3899 789.308C26.0929 788.873 26.2909 784.977 25.9669 777.933C25.6959 772.04 25.5339 766.319 25.6069 765.219C25.6809 764.119 25.7169 761.644 25.6889 759.719C25.6609 757.794 25.6969 754.869 25.7679 753.219C26.5039 736.293 25.3839 670.745 24.3489 670.105C23.8189 669.778 23.8849 669 24.5059 668.252C25.3049 667.289 25.1029 666.84 23.7059 666.474C22.6769 666.205 21.5739 664.984 21.2539 663.76C20.6939 661.617 20.7439 661.6 22.6089 663.287C25.3119 665.734 25.9649 664.56 23.4209 661.829C21.6039 659.879 21.5589 659.626 23.0779 659.902C24.0389 660.076 25.0219 659.657 25.2629 658.969C25.5029 658.282 24.9869 657.719 24.1159 657.719C22.0939 657.719 22.0969 656.758 24.1239 655.276C25.4759 654.288 25.5439 653.475 24.5799 649.892C23.9549 647.572 23.6829 645.285 23.9759 644.811C25.2859 642.691 22.4009 637.719 20.4629 638.757C18.9929 639.543 18.6959 639.458 19.1139 638.369C19.4089 637.601 20.6359 636.496 21.8409 635.913C23.6189 635.055 23.7019 634.842 22.2829 634.787C21.3199 634.749 20.5329 634.283 20.5329 633.75C20.5329 633.218 21.2079 633.041 22.0329 633.357C23.0929 633.764 23.5599 633.241 23.6269 631.576C23.8659 625.558 23.7019 608.855 23.2699 595.219C23.0089 586.969 22.5469 571.231 22.2449 560.246C21.9419 549.261 21.3129 540.146 20.8459 539.99C19.8779 539.667 20.0759 525.073 21.0839 522.447C21.5609 521.203 21.2269 520.697 19.8899 520.64C18.8689 520.597 18.5279 520.357 19.1329 520.107C19.8299 519.819 20.0649 517.561 19.7739 513.936C19.1829 506.572 19.1249 504.447 19.4799 503.219C20.4849 499.75 19.4299 490.821 18.0769 491.341C16.8839 491.798 16.7839 491.332 17.5209 488.76C18.0159 487.033 18.4329 479.455 18.4459 471.92C18.4809 452.674 18.3079 425.594 18.0949 416.719C17.9959 412.594 18.1159 408.824 18.3619 408.342C19.3449 406.41 19.1719 395.127 18.1379 393.777C17.3629 392.765 17.3579 392.529 18.1219 392.987C18.8789 393.439 19.2229 390.463 19.2479 383.238C19.2779 374.61 19.0119 372.733 17.6869 372.225C16.3229 371.701 16.2999 371.481 17.5309 370.72C18.7149 369.989 19.0029 365.482 19.1429 345.524C19.2369 332.156 19.4749 320.544 19.6729 319.719C19.8709 318.894 19.4709 318.331 18.7829 318.469C18.0959 318.606 17.5329 318.269 17.5329 317.719C17.5329 317.169 18.1339 316.719 18.8679 316.719C19.8639 316.719 20.2309 314.626 20.3139 308.469C20.4209 300.527 22.1089 273.946 22.9649 266.719C23.1929 264.794 23.6549 257.369 23.9909 250.219C24.3259 243.069 24.8399 236.436 25.1309 235.48C25.4229 234.523 25.8719 227.998 26.1299 220.98C26.3879 213.961 26.7129 206.419 26.8519 204.219C26.9909 202.019 26.6679 199.622 26.1329 198.893C25.4699 197.988 25.5889 197.302 26.5079 196.734C28.0149 195.803 28.8789 178.969 27.5089 177.219C26.3239 175.703 26.1249 171.465 27.1339 169.219C28.7499 165.622 27.9699 129.401 25.9489 114.219C25.6559 112.019 25.2749 107.682 25.1019 104.58C24.9299 101.479 24.4849 98.4509 24.1149 97.8509C23.7439 97.2509 23.9319 95.8418 24.5329 94.7188C25.1339 93.5958 25.2919 92.1388 24.8849 91.4798C24.4779 90.8208 24.2769 84.1928 24.4389 76.7498C24.9409 53.6528 24.6899 47.3997 23.1579 44.9217C22.7959 44.3357 22.8969 43.6118 23.3819 43.3128C23.8659 43.0128 24.0929 41.2318 23.8869 39.3548C23.6049 36.7958 23.9509 35.7688 25.2719 35.2508C27.1179 34.5268 33.9639 33.5278 36.5329 33.6078C43.5199 33.8248 56.4619 33.5948 63.0379 33.1378C67.4349 32.8318 75.7579 32.4388 81.5329 32.2638C129.81 30.8008 164.533 28.8088 164.533 27.5018C164.533 26.9968 165.321 26.8278 166.283 27.1258C167.792 27.5928 170.447 27.6889 182.033 27.6949C204.272 27.7069 232.64 26.7719 233.89 25.9859C234.519 25.5919 241.088 25.1338 248.489 24.9698C256.749 24.7858 262.203 24.2527 262.614 23.5877C263.089 22.8197 263.486 22.8338 263.982 23.6358C264.707 24.8098 281.417 24.4979 292.533 23.1029C295.558 22.7229 302.308 22.3398 307.533 22.2528C321.964 22.0098 322.519 21.9258 322.649 19.9688C322.758 18.3298 322.794 18.3289 323.218 19.9469C323.637 21.5439 323.855 21.5539 326.102 20.0819Z" fill="#025354"/>
</svg>
