<svg xmlns="http://www.w3.org/2000/svg" width="1406" height="866" fill="none" preserveAspectRatio="none" viewBox="0 0 1406 866"><path fill="#025354" fill-rule="evenodd" d="M254.951.376c-.644.637-19.026 1.525-35.452 1.713-7.7.09-16.925.571-20.5 1.073-3.575.501-20.675 1.09-38 1.31-17.325.22-43.2.653-57.5.963-21.655.47-90.798 1.593-96.737 1.571C.844 6.986-1.369 94.095 2.621 170c.729 13.874.67 57.899-.139 101.5-.805 43.512-.806 43.843-.146 70.5.32 12.925.8 50.95 1.064 84.5.265 33.55.737 67.3 1.05 75 1.71 42.227 2.17 95.979.904 105.766-.339 2.621-.116 14.096.495 25.5 1.764 32.918 2.43 47.866 2.706 60.734.142 6.6.525 17.175.849 23.5 1.659 32.361 2.073 45.869 1.84 60-.14 8.525.223 20.9.806 27.5.582 6.6 1.273 14.475 1.535 17.5.86 9.908 2.352 16.233 4.155 17.601.968.735 1.343 1.35.835 1.367-.509.018.133 1.157 1.425 2.532 2.508 2.67 8.493 3.517 9.23 1.307.307-.921 1.995-.908 7.397.057 3.85.688 10.572 1.04 14.936.781 7.09-.419 17.03.01 42.936 1.853 4.4.313 9.35.968 11 1.455 3.831 1.131 23.599 3.767 34 4.534 4.4.324 10.475.997 13.5 1.495 3.025.499 9.1 1.192 13.5 1.54 4.4.348 10.025.831 12.5 1.073 2.475.241 9.225.668 15 .947 5.775.279 17.7 1.144 26.5 1.922 53.357 4.716 114.316 5.918 213 4.2 26.4-.459 68.926-.992 94.501-1.183 25.575-.191 49.875-.765 54-1.275 4.125-.51 18.915-.997 32.868-1.081 13.953-.085 25.691-.353 26.084-.596.392-.242 6.977-.505 14.631-.583 7.654-.079 17.564-.511 22.021-.962 17.357-1.754 224.277-.531 227.176 1.343.704.456 13.079 1.263 27.5 1.795 22.969.847 38.338 1.187 83.85 1.854 5.84.086 13.27-.3 16.5-.857 3.65-.63 17.61-.788 36.87-.417 17.05.328 36.62.557 43.5.51 22.07-.153 81.07-.136 95 .027 7.42.087 31.72.087 54 0 22.27-.087 46.8-.092 54.5-.011 7.7.081 20.5-.114 28.44-.432 10.01-.402 15-.23 16.29.562 1.54.947 2.17.737 3.66-1.225 1.26-1.668 2.38-2.181 3.79-1.735 9.77 3.102 15.19-8.311 17.76-37.398.32-3.575.79-8.525 1.05-11 .26-2.475.72-10.723 1.02-18.33.62-15.538 1.6-25.801 4.39-46.153 1.06-7.69 2.04-21.19 2.19-30 .33-20.454.41-22.195 1.25-27.017 1.58-9.074 1.92-14.801 1.83-30.5-.07-11.752.37-18.658 1.52-24 1.23-5.701 1.59-12.536 1.5-28.5-.07-11.644.45-25.972 1.17-32.161.71-6.138 1.39-18.738 1.5-28 .12-9.261.57-22.689 1.01-29.839.45-7.478.39-17.036-.16-22.5-1.11-11.045-1.11-11.064-.86-34 .11-9.625-.26-21.325-.82-26-.56-4.675-1.02-16.15-1.03-25.5-.01-9.35-.69-22.384-1.51-28.964-.86-6.904-1.28-15.786-1-21 .27-4.97.42-13.536.32-19.036-.31-17.332-.21-32.535.32-47 .28-7.7.25-18.5-.06-24-.32-5.5-.23-13.6.19-18 .42-4.4.68-13.625.59-20.5-.09-6.875-.03-18.575.14-26 .85-36.869-1.04-122.303-3.02-136.083-2.04-14.283-8.04-23.036-17.97-26.218-4.9-1.57-35.65-6.646-44-7.264-4.68-.345-8.74-.778-9.04-.96-.68-.42-12.33-1.307-25.96-1.977-28.46-1.397-47.65-2.693-59-3.983-6.88-.782-20.15-1.679-29.5-1.994-9.35-.314-18.8-.77-21-1.013-2.2-.242-8.5-.693-14-1.003-5.5-.31-13.6-.985-18-1.502s-12.28-1.147-17.5-1.399c-8.89-.429-19.71-1.274-46.63-3.641-6.13-.538-18.05-1.218-26.5-1.509-8.46-.292-22.12-.997-30.37-1.566-8.25-.57-27.15-1.405-42-1.857-14.85-.452-27.675-1.084-28.5-1.405-1.438-.56-6.166-.773-46.5-2.101-9.9-.326-22.725-.844-28.5-1.15-19.84-1.053-35.517-1.725-46-1.972-17.129-.402-55.302-.41-58-.012-4.64.685-38.331 1.829-64 2.174-14.025.188-27.975.583-31 .877-10.974 1.067-217.324.094-219.149-1.034-.888-.549-41.816-2.24-70.852-2.926-15.032-.355-27.778-1.036-46.5-2.483C329.18.81 318.135.366 301.999.769c-24.009.597-40.406.52-43.705-.204-1.59-.35-3.095-.434-3.343-.189Zm86.548 23.586c4.95.47 12.348.922 16.44 1.005 4.092.082 7.809.378 8.261.657.452.279 10.604.694 22.56.92 22.291.424 31.649.974 33.233 1.952.495.306 8.912.553 18.704.548 9.792-.004 23.877.44 31.302.988 12.256.904 53.948 1.535 76.501 1.158 4.95-.083 26.1.042 47 .277 45.863.515 89.355.473 95.5-.094 2.475-.228 15.075-.603 28-.833 26.522-.473 60.244-1.516 67-2.074 10.123-.835 79.456-.393 92 .587 7.425.58 21.825 1.235 32 1.455 16.833.365 47.061 2.085 54.5 3.1 1.65.227 17.85.754 36 1.174 18.15.42 33.45 1.048 34 1.396.55.348 10.45.925 22 1.281 11.55.357 25.39 1.098 30.76 1.646 5.36.549 15.49 1.41 22.5 1.913 7.01.504 17.01 1.352 22.24 1.886 5.22.533 15.68 1.224 23.24 1.535 7.56.312 16.87 1.009 20.69 1.551 3.81.541 12.03 1.207 18.25 1.479 26.63 1.164 38.48 1.786 40.82 2.141 7.37 1.117 22.22 2.314 35.5 2.86 8.25.34 21.07.998 28.5 1.46 7.42.464 13.78.675 14.13.47.35-.205 4.18.056 8.5.582 4.33.525 13.6 1.164 20.61 1.42 7 .256 13.17.734 13.7 1.063.54.33 4.93.828 9.77 1.109 11.43.664 13.04 1.052 13.76 3.324.51 1.602.63 32.118.37 92.602-.03 7.15.38 14.82.9 17.045.66 2.777.52 8.107-.43 17-1.24 11.581-1.21 39.157.05 41.242.23.392-.13 6.113-.8 12.713-1.22 12.005-1.27 34.028-.09 42.5.34 2.475.13 8.325-.47 13-1.19 9.249-1.48 21.013-1.12 45 .13 8.525.2 20.018.15 25.539-.04 5.522.43 13.397 1.05 17.5.63 4.104 1.28 16.236 1.44 26.961.16 10.725.58 25.125.92 32 1.19 23.815 1.72 62.968 1.03 76-.16 3.025-.38 12.925-.48 22-.1 9.075-.8 23.025-1.55 31-.74 7.975-1.26 22.6-1.14 32.5.13 11.048-.25 20.315-1 23.993-.67 3.297-1.47 14.547-1.78 25-.47 15.876-1.5 34.526-2.01 36.507-.83 3.209-1.57 14.045-2.07 30.479-.33 10.988-.76 20.224-.94 20.525-.19.3-.82 4.81-1.41 10.021-.59 5.211-1.28 10.514-1.54 11.785-.41 2.062-1.14 15.305-2.05 37.19-.51 12.329-1.65 25.116-3.02 34.088-.8 5.214 3.31 4.804-47.48 4.728-12.93-.02-37.9-.031-55.5-.026-50.51.014-64.98.001-97-.092-16.5-.048-36.98.053-45.5.224-8.53.172-31.7.244-51.5.161-19.8-.083-38.03.236-40.5.708-2.48.472-6.08.735-8 .585-1.93-.15-14.08-.515-27-.811-59.571-1.365-77.296-2.091-87-3.562-3.575-.543-29-1.225-56.5-1.517-27.5-.291-54.05-.588-59-.659-4.95-.072-15.525.005-23.5.17s-29.125.24-47 .168c-17.875-.073-34.075.049-36 .271-8.864 1.022-21.87 1.538-51.5 2.043-36.478.623-55.225 1.297-61 2.194-2.2.341-23.35.737-47 .879-52.642.315-120.295 1.365-146.501 2.273-10.725.371-28.95.387-40.5.035s-30.675-.726-42.5-.83c-20.228-.178-64.853-2.734-86-4.927-5.225-.542-13.775-1.009-19-1.038-5.225-.029-12.875-.505-17-1.057a5498.625 5498.625 0 0 0-15-1.986c-4.125-.54-9.3-1.228-11.5-1.53-2.2-.302-8.5-.987-14-1.522-16.543-1.61-17.94-1.782-19.5-2.389-8.661-3.375-51.3-4.499-62-1.636-10.556 2.826-12.709 2.714-13.393-.695-1.19-5.943-2.092-27.567-1.8-43.25.167-9.075-.184-21.675-.78-28-1.037-10.973-1.543-22.001-2.548-55.5-.248-8.25-.7-20.175-1.006-26.5-.306-6.325-.74-16-.963-21.5-.224-5.5-.684-12.475-1.023-15.5-.338-3.025-.505-9.775-.37-15 .46-17.839.226-79.459-.384-101.5-.567-20.489-1.07-66.877-1.052-97 .015-23.663-1.26-84.103-2.152-102-.301-6.05-.174-15.725.284-21.5.456-5.775.573-13.425.26-17-.316-3.575-.229-10.55.191-15.5 1.563-18.401 1.139-86.161-.714-114-.366-5.5-.797-28.722-.958-51.604-.161-22.882-.553-42.026-.873-42.541-11.376-18.407.483-29.377 32.38-29.955 18.372-.333 33.82-.861 34.33-1.173.511-.312 23.686-.692 51.5-.846 27.814-.153 55.296-.761 61.071-1.351 5.775-.59 30.975-1.33 56-1.647 25.025-.316 45.711-.779 45.968-1.029.608-.592 26.952.507 38.532 1.608Z" clip-rule="evenodd"/></svg>