<svg xmlns="http://www.w3.org/2000/svg" width="1405" height="866" fill="none" preserveAspectRatio="none" viewBox="0 0 1405 866"><path fill="#025354" fill-rule="evenodd" d="M254.584.712c-.644.637-19.026 1.525-35.452 1.713-7.7.09-16.925.571-20.5 1.073-3.575.501-20.675 1.09-38 1.31-17.325.22-43.2.653-57.5.963-21.656.47-90.798 1.593-96.737 1.571-5.918-.02-8.132 87.089-4.142 162.994.73 13.874.67 57.899-.138 101.5-.805 43.512-.806 43.843-.146 70.5.32 12.925.8 50.95 1.064 84.5.265 33.55.737 67.3 1.05 75 1.71 42.227 2.17 95.979.904 105.766-.339 2.621-.117 14.096.494 25.5 1.764 32.918 2.431 47.866 2.707 60.734.142 6.6.524 17.175.848 23.5 1.66 32.361 2.073 45.869 1.841 60-.14 8.525.222 20.9.805 27.5.582 6.6 1.274 14.475 1.536 17.5.86 9.908 2.352 16.233 4.155 17.601.967.735 1.343 1.35.835 1.367-.509.018.132 1.157 1.424 2.532 2.508 2.67 8.494 3.517 9.231 1.307.307-.921 1.995-.908 7.397.057 3.85.688 10.571 1.04 14.936.781 7.09-.419 17.03.01 42.936 1.853 4.4.313 9.35.968 11 1.455 3.831 1.131 23.599 3.767 34 4.534 4.4.324 10.475.997 13.5 1.495 3.025.499 9.1 1.192 13.5 1.54 4.4.348 10.025.831 12.5 1.073 2.475.241 9.225.668 15 .947 5.775.279 17.7 1.144 26.5 1.922 53.357 4.716 114.316 5.918 213 4.2 26.4-.459 68.925-.992 94.5-1.183 25.575-.191 49.875-.765 54-1.275 4.125-.51 18.916-.997 32.869-1.081 13.953-.085 25.691-.353 26.084-.596.392-.242 6.976-.505 14.63-.583 7.654-.079 17.564-.511 22.021-.962 17.357-1.754 224.277-.531 227.176 1.343.704.456 13.079 1.263 27.5 1.795 22.969.847 38.338 1.187 83.848 1.854 5.85.086 13.27-.3 16.5-.857 3.65-.63 17.61-.788 36.87-.417 17.05.328 36.63.557 43.5.51 22.07-.153 81.07-.136 95 .027 7.43.087 31.73.087 54 0 22.28-.087 46.8-.092 54.5-.011 7.7.081 20.5-.114 28.44-.432 10.01-.402 15.01-.23 16.29.562 1.54.947 2.17.737 3.66-1.225 1.27-1.668 2.39-2.181 3.79-1.735 9.77 3.102 15.2-8.311 17.77-37.398.31-3.575.78-8.525 1.04-11 .26-2.475.72-10.723 1.03-18.33.62-15.538 1.59-25.801 4.39-46.153 1.05-7.69 2.03-21.19 2.18-30 .33-20.454.42-22.195 1.25-27.017 1.58-9.074 1.92-14.801 1.83-30.5-.06-11.752.38-18.658 1.53-24 1.23-5.701 1.58-12.536 1.49-28.5-.07-11.644.45-25.972 1.17-32.161.71-6.138 1.39-18.738 1.51-28 .11-9.261.56-22.689 1-29.839.46-7.478.39-17.036-.16-22.5-1.11-11.045-1.11-11.064-.86-34 .11-9.625-.26-21.325-.82-26-.56-4.675-1.02-16.15-1.03-25.5-.01-9.35-.68-22.384-1.51-28.964-.86-6.904-1.28-15.786-.99-21 .27-4.97.41-13.536.31-19.036-.31-17.332-.21-32.535.32-47 .28-7.7.25-18.5-.06-24s-.23-13.6.19-18c.42-4.4.69-13.625.59-20.5-.09-6.875-.02-18.575.15-26 .84-36.869-1.05-122.303-3.02-136.083-2.05-14.283-8.05-23.036-17.98-26.218-4.9-1.57-35.64-6.646-44-7.264-4.67-.345-8.74-.778-9.04-.96-.68-.42-12.32-1.307-25.96-1.977-28.46-1.397-47.65-2.693-59-3.983-6.87-.782-20.15-1.679-29.5-1.994-9.35-.314-18.8-.77-21-1.013-2.2-.242-8.5-.693-14-1.003-5.5-.31-13.6-.985-18-1.502s-12.27-1.147-17.5-1.399c-8.89-.429-19.7-1.274-46.63-3.641-6.13-.538-18.05-1.218-26.5-1.509-8.45-.292-22.12-.997-30.37-1.566-8.25-.57-27.15-1.405-41.998-1.857-14.85-.452-27.675-1.084-28.5-1.405-1.438-.56-6.166-.773-46.5-2.101-9.9-.326-22.725-.844-28.5-1.15-19.84-1.053-35.517-1.725-46-1.972-17.129-.402-55.302-.41-58-.012-4.64.685-38.331 1.829-64 2.174-14.025.188-27.975.583-31 .877-10.974 1.067-217.324.094-219.149-1.034-.888-.55-41.815-2.24-70.851-2.926-15.032-.355-27.778-1.036-46.5-2.483-28.319-2.189-39.364-2.633-55.5-2.231-24.009.598-40.406.52-43.705-.203-1.59-.35-3.095-.434-3.343-.19Z" clip-rule="evenodd"/></svg>