<svg width="997" height="1015" viewBox="0 0 997 1015" fill="none" xmlns="http://www.w3.org/2000/svg" preserveAspectRatio="none" >
<path fill-rule="evenodd" clip-rule="evenodd" d="M449.5 0.993C447.3 1.434 439.425 2.10101 432 2.47501C424.575 2.85001 415.8 3.554 412.5 4.039C409.2 4.525 404.025 5.171 401 5.474C397.975 5.777 392.575 6.482 389 7.041C381.409 8.228 376.029 8.729 363 9.463C357.775 9.758 352.15 10.233 350.5 10.52C333.979 13.387 287.233 14.74 247.5 13.5C238.7 13.226 229.124 13.386 226.22 13.856C223.316 14.326 220.724 14.363 220.462 13.938C220.007 13.203 213.617 13.269 178 14.377C169.475 14.642 156.84 15.013 149.922 15.202C140.421 15.461 136.735 15.943 134.856 17.175C132.723 18.573 132.234 18.602 131.434 17.378C130.099 15.337 89.6729 14.05 55.9999 14.976C50.2249 15.135 40.3249 14.968 33.9999 14.606C26.7549 14.191 20.6499 14.358 17.4999 15.058C14.7499 15.669 10.922 16.393 8.99396 16.666C5.34296 17.184 4.70199 34.85 8.01899 43.539C8.64099 45.167 9.33994 51.225 9.57294 57C10.0969 70.032 11.933 88.666 13.02 92C14.534 96.641 14.1029 170.407 12.5469 172.924C12.2809 173.354 12.178 176.505 12.317 179.927C12.457 183.348 12.2529 186.343 11.8659 186.583C11.4779 186.823 11.0749 190.952 10.9699 195.759C10.6709 209.398 10.3789 218.987 9.63691 239.5C9.25891 249.95 8.7619 273.168 8.5329 291.096C8.3029 309.024 7.81399 324.892 7.44599 326.359C7.05199 327.93 7.26689 329.617 7.97089 330.465C8.62789 331.256 8.92292 332.713 8.62592 333.702C8.17592 335.206 7.62797 359.935 7.89997 366.5C8.06397 370.465 7.06794 393.596 6.55194 397.802C6.21894 400.514 6.38996 401.877 7.01496 401.491C7.64296 401.103 7.79289 402.456 7.42389 405.189C5.95289 416.093 5.55294 466.336 6.90094 470.818C7.44994 472.642 7.53894 475.117 7.09894 476.318C6.65794 477.518 6.39395 493.35 6.50995 511.5C6.77595 552.711 6.65194 550.347 8.49994 549.638C9.32494 549.322 9.99994 549.451 9.99994 549.924C9.99994 550.398 9.307 551.052 8.461 551.377C7.301 551.822 6.94995 553.39 7.03595 557.734C7.09895 560.905 6.93389 568.225 6.66889 574C5.15789 606.972 4.79389 646 5.99689 646C6.93489 646 6.96498 646.337 6.11798 647.358C5.48098 648.126 4.96199 652.581 4.92499 657.608C4.88899 662.499 4.81896 668.075 4.76996 670C4.72096 671.925 4.78598 675.075 4.91498 677C5.04398 678.925 4.68193 682.933 4.10993 685.907C3.46593 689.258 3.39389 693.632 3.91889 697.407C4.38589 700.758 4.48298 703.95 4.13398 704.5C3.54698 705.426 3.074 713.375 2.883 725.5C2.84 728.25 3.05397 732.75 3.35797 735.5C3.66197 738.25 3.931 741.048 3.956 741.719C3.98 742.389 4.67993 742.676 5.51093 742.357C6.58193 741.946 6.84689 742.236 6.41889 743.351C6.08689 744.216 5.014 745.178 4.034 745.489C1.704 746.229 1.12695 754.555 0.879947 791C0.579947 835.337 0.625909 839.578 1.61591 859C2.13491 869.175 2.23794 879.046 1.84394 880.935C1.42194 882.959 1.58097 885.218 2.23297 886.435C2.93497 887.746 3.34089 895.891 3.34589 908.75C3.35289 924.873 3.62394 929 4.67694 929C6.62894 929 6.28498 930.562 3.98798 932.128C1.42998 933.872 0.44995 947.373 2.45795 953.202C3.41095 955.968 3.50691 959.361 2.83991 966.618C1.50791 981.107 2.54298 987.321 6.81598 990.492C9.73598 992.66 35.713 994.136 50.982 993.001C54.826 992.716 59.199 992.811 60.701 993.212C62.202 993.614 75.8209 994.417 90.9649 994.998C106.109 995.579 125.475 996.5 134 997.045C142.525 997.589 165.451 998.707 184.947 999.529C204.442 1000.35 224.242 1001.46 228.947 1002C239.804 1003.25 253 1003.28 253 1002.07C253 1001.07 256.906 1001.21 258.613 1002.26C259.178 1002.61 261.859 1002.67 264.57 1002.39C274.636 1001.35 290.677 1001.49 292.093 1002.63C293.067 1003.41 298.272 1003.6 309 1003.25C317.525 1002.97 325.4 1002.77 326.5 1002.81C334.304 1003.05 353.087 1004 361 1004.55C375.614 1005.56 380.309 1005.62 382.683 1004.83C383.884 1004.43 385.01 1004.53 385.186 1005.06C385.361 1005.58 391.804 1006.29 399.503 1006.62C418.352 1007.43 421.247 1007.63 423 1008.3C423.825 1008.62 429.45 1009.17 435.5 1009.53C441.55 1009.89 448.975 1010.36 452 1010.56C457.822 1010.94 471.706 1011.62 491.5 1012.5C498.1 1012.79 508.45 1013.28 514.5 1013.58C553.352 1015.53 650.425 1015.35 656 1013.32C656.825 1013.02 666.275 1012.62 677 1012.42C687.725 1012.22 703.25 1011.81 711.5 1011.5C719.75 1011.19 733.014 1010.76 740.977 1010.55C748.939 1010.33 759.739 1009.89 764.977 1009.57C770.214 1009.25 782.336 1008.75 791.914 1008.45C801.492 1008.16 809.679 1007.7 810.107 1007.43C810.536 1007.17 819.349 1006.75 829.693 1006.51C849.288 1006.05 868.885 1005.25 880 1004.46C891.375 1003.65 910.059 1002.91 924.42 1002.69C933.296 1002.56 938.47 1002.09 938.699 1001.4C938.934 1000.7 940.688 1000.57 943.779 1001.05C949.044 1001.85 961.683 1001.19 964 999.989C964.825 999.563 967.629 999.395 970.231 999.615C980.109 1000.45 981.794 991.258 980.789 942C980.772 941.175 981.077 938.7 981.466 936.5C981.855 934.3 982.292 931.825 982.437 931C983.053 927.506 984.368 910.416 984.092 909.5C983.927 908.95 983.939 900.4 984.12 890.5C984.644 861.889 984.464 853.529 982.959 836.5C980.829 812.398 981.079 803.34 984.444 782.577C985.239 777.669 985.942 767.769 986.005 760.577C986.121 747.3 986.42 741.062 987.539 728.5C988.746 714.949 988.824 708.493 987.795 707.253C987.066 706.374 987.129 705.55 988.007 704.492C988.788 703.55 989.071 701.324 988.76 698.561C988.486 696.129 988.683 693.717 989.198 693.202C990.473 691.927 991.78 659.02 991.072 646C990.729 639.683 991.6 628.456 992.553 626.914C992.813 626.494 992.536 625.075 991.937 623.761C991.111 621.948 991.232 619.892 992.44 615.231C993.329 611.8 993.995 605.427 993.948 600.794C993.901 596.232 994.128 574.375 994.452 552.222C994.856 524.536 994.707 511.32 993.974 509.951C993.387 508.855 993.229 507.438 993.623 506.801C994.315 505.681 994.256 489.819 993.428 454.5C993.209 445.15 993.066 436.15 993.112 434.5C993.157 432.85 993.151 430.6 993.098 429.5C992.809 423.502 993.031 407.759 993.413 407.141C993.658 406.745 993.491 403.456 993.041 399.832C992.592 396.208 992.561 391.401 992.973 389.149C993.385 386.897 993.473 384.806 993.168 384.502C992.864 384.198 992.661 378.531 992.718 371.908C992.801 362.085 992.545 359.763 991.326 359.295C990.18 358.855 990.123 358.542 991.083 357.949C991.773 357.522 992.444 354.782 992.58 351.838C992.715 348.902 993.088 340.65 993.41 333.5C993.731 326.35 994.211 302.05 994.475 279.5C994.739 256.95 995.248 235.016 995.606 230.757C996.025 225.773 995.875 222.554 995.185 221.723C994.511 220.911 994.41 219.115 994.913 216.886C995.353 214.936 995.853 203.251 996.025 190.92C996.444 160.903 996.456 162.353 995.682 146.882C995.307 139.393 995 132.503 995 131.573C995 130.643 994.55 130.16 994 130.5C992.575 131.381 992.76 129.64 994.25 128.15C995.12 127.28 995.538 122.579 995.626 112.7C995.696 104.89 996.051 96.971 996.417 95.102C996.782 93.234 996.604 89.409 996.022 86.602C994.875 81.077 994.518 55.333 995.375 39.938C996.4 21.515 996.983 21.762 950.5 20.993C935.306 20.742 865.285 20.781 823.5 21.065C820.2 21.087 811.425 20.854 804 20.546C796.575 20.238 787.72 19.872 784.323 19.733C780.926 19.594 777.813 19.147 777.406 18.74C776.328 17.662 770.177 17.835 767.991 19.005C766.819 19.632 765.249 19.668 763.807 19.099C761.664 18.254 744.008 16.638 724 15.455C719.325 15.179 712.35 14.519 708.5 13.99C701.451 13.02 695.572 12.497 680.069 11.459C675.432 11.148 671.298 10.684 670.883 10.428C670.468 10.171 665.487 9.72701 659.814 9.44201C654.141 9.15601 647.7 8.715 645.5 8.461C643.3 8.208 638.125 7.78401 634 7.52001C629.875 7.25601 625.15 6.81201 623.5 6.53501C619.421 5.84801 608.547 5.031 596.5 4.506C591 4.266 583.575 3.802 580 3.474C576.425 3.147 566.75 2.679 558.5 2.435C550.25 2.191 542.15 1.77301 540.5 1.50701C535.077 0.633007 453.593 0.172 449.5 0.993ZM540 21.4C558.686 22.111 594.206 24.1 614.5 25.573C631.992 26.842 634.827 27.033 643.5 27.525C648.45 27.805 653.85 28.262 655.5 28.54C661.888 29.617 673.889 30.878 682.5 31.379C687.45 31.667 693.975 32.344 697 32.884C700.025 33.423 708.125 34.107 715 34.403C721.875 34.7 732.225 35.397 738 35.952C743.775 36.508 756.375 37.2 766 37.49C775.625 37.78 784.708 38.268 786.185 38.574C787.661 38.88 790.47 38.688 792.427 38.148C794.383 37.608 796.22 37.547 796.508 38.014C796.797 38.48 806.088 38.905 817.155 38.958C828.223 39.01 837.553 39.208 837.889 39.398C838.225 39.587 841.425 39.33 845 38.826C848.575 38.323 852.175 37.921 853 37.934C862.092 38.07 874.514 37.885 895 37.309C950.236 35.756 975.241 36.212 978.024 38.824C979.391 40.106 979.849 41.002 979.045 40.824C978.245 40.646 977.564 40.95 977.53 41.5C977.497 42.05 977.207 42.95 976.886 43.5C976.423 44.295 976.455 60.019 976.955 76.75C976.992 77.988 977.522 79 978.134 79C978.904 79 978.874 79.447 978.036 80.456C977.372 81.257 977.115 82.377 977.466 82.945C977.817 83.513 978.117 86.683 978.133 89.989C978.157 94.912 978.464 96.006 979.831 96.032C981.272 96.059 981.234 96.265 979.559 97.532C978.167 98.585 978.026 99.004 979.059 99.015C979.915 99.024 980.094 99.329 979.5 99.765C978.95 100.169 978.396 101.625 978.268 103C977.529 110.975 977.665 112.282 979.368 113.527C981.031 114.743 981.007 114.863 978.975 115.508C976.75 116.214 976.482 122.521 978.476 127.25C978.922 128.307 978.776 129 978.107 129C976.501 129 976.75 132.198 978.557 134.777C979.963 136.785 979.963 137 978.561 137C977.195 137 977.023 139.988 977.133 161.75C977.201 175.363 977.031 195.275 976.754 206C976.477 216.725 976.463 225.866 976.723 226.313C977.288 227.284 977.153 253.264 976.562 257.379C976.334 258.963 976.536 261.279 977.01 262.526C977.484 263.774 977.592 265.075 977.249 265.418C976.06 266.607 975.874 270.679 975.448 305C975.212 323.975 974.837 341.3 974.615 343.5C974.393 345.7 974.678 348.073 975.248 348.774C975.819 349.475 976.033 350.3 975.726 350.607C975.418 350.915 976.067 352.067 977.167 353.167C978.267 354.267 978.88 355.454 978.529 355.804C978.178 356.155 977.49 355.793 977 355C976.51 354.207 975.787 353.88 975.394 354.273C975.001 354.666 975.496 355.89 976.494 356.994C978.125 358.796 978.142 359 976.655 359C974.716 359 974.438 360.605 976.25 361.341C977.21 361.73 977.175 362.075 976.095 362.829C975.322 363.368 974.772 365.09 974.873 366.655C974.974 368.22 975.179 371.536 975.33 374.025C975.663 379.516 976.518 381.087 978.782 380.363C979.903 380.005 979.667 380.494 978.101 381.774C976.25 383.285 976.022 383.879 977.101 384.367C978.174 384.852 978.209 385.136 977.25 385.583C976.563 385.904 976 386.767 976 387.5C976 388.233 976.563 389.06 977.25 389.338C977.997 389.639 977.795 389.874 976.75 389.921C974.976 390.001 974.924 390.345 974.544 404.5C974.5 406.15 974.739 408.86 975.075 410.522C975.411 412.184 975.372 414.434 974.988 415.522C974.605 416.61 974.642 418.731 975.072 420.237C975.521 421.811 975.446 423.224 974.895 423.565C974.349 423.903 974.171 427.022 974.48 430.828C974.779 434.498 975.006 447.028 974.984 458.674C974.958 472.872 975.303 480.069 976.031 480.519C976.628 480.888 976.859 482.385 976.544 483.845C975.649 487.993 975.87 503.58 977.197 530C977.267 531.375 976.954 541.725 976.504 553C976.053 564.275 975.73 576.2 975.786 579.5C975.985 591.322 975.861 598.587 975.37 604C974.044 618.601 973.357 644.589 974.266 645.75C974.915 646.579 974.861 647.463 974.106 648.372C973.371 649.257 972.98 654.666 973.001 663.622C973.02 671.255 972.771 679.075 972.449 681C971.485 686.756 971.431 700 972.371 700C972.852 700 972.703 700.652 972.042 701.45C971.38 702.247 970.951 704.385 971.089 706.2C971.226 708.015 971.036 710.85 970.665 712.5C970.295 714.15 969.551 721.35 969.013 728.5C968.474 735.65 967.835 742.85 967.592 744.5C967.348 746.15 966.637 752.675 966.01 759C965.383 765.325 964.256 775.45 963.506 781.5C962.755 787.55 962.275 794.422 962.439 796.772C962.603 799.122 962.411 801.246 962.011 801.493C961.611 801.74 961.245 804.672 961.198 808.007C961.151 811.343 960.844 814.918 960.515 815.952C960.187 816.986 960.435 818.151 961.066 818.541C961.899 819.056 961.846 819.477 960.872 820.079C959.264 821.073 958.625 835.671 959.892 842.454C960.424 845.298 960.346 847.254 959.674 847.926C957.269 850.331 958.783 919 961.241 919C961.697 919 961.685 919.787 961.214 920.75C960.041 923.148 959.335 950.58 959.905 971.611C960.018 975.797 959.902 979.431 959.647 979.686C958.545 980.788 947.181 982.52 944.471 981.998C942.837 981.684 934.975 981.79 927 982.234C919.025 982.677 907.55 983.202 901.5 983.399C890.699 983.751 869.253 984.607 847.5 985.554C826.791 986.455 818.532 987.144 817.424 988.063C816.815 988.569 816.038 988.704 815.697 988.364C815.357 988.023 812.023 987.819 808.289 987.909C804.555 988 800.938 988.046 800.25 988.013C790.085 987.52 761.235 988.177 754 989.065C745.815 990.071 726.473 990.959 712.894 990.952C708.161 990.95 700.061 991.439 694.894 992.039C689.727 992.639 681.45 993.094 676.5 993.051C664.344 992.944 659.031 993.792 658.884 995.864C658.789 997.205 658.684 997.175 658.3 995.697C657.917 994.218 657.564 994.117 656.335 995.137C655.138 996.13 654.411 996.113 652.712 995.052C651.059 994.02 645.238 993.796 626.543 994.044C607.311 994.3 579.648 994.182 553 993.73C551.625 993.707 545.775 993.777 540 993.885C534.225 993.994 526.125 993.819 522 993.495C507.059 992.324 501.29 991.979 489.5 991.551C447.413 990.022 437.003 989.475 432.178 988.538C429.818 988.08 417.579 987.269 399.5 986.373C394 986.1 385.974 985.629 381.664 985.325C376.534 984.963 373.443 985.157 372.714 985.886C371.127 987.473 364.929 987.266 363.61 985.583C362.428 984.073 337.011 982.285 304.5 981.424C295.7 981.191 284.225 980.776 279 980.502C273.775 980.227 262.975 979.778 255 979.504C247.025 979.229 237.125 978.789 233 978.525C228.875 978.261 216.725 977.78 206 977.456C174.224 976.496 162.206 975.96 149 974.914C142.125 974.37 128.982 973.71 119.793 973.448C110.605 973.185 102.505 972.764 101.793 972.511C100.751 972.141 35.4269 972.478 29.9999 972.882C19.7109 973.647 18.9689 973.113 19.0429 965C19.1189 956.581 18.8409 952.711 17.9999 950.5C17.4709 949.109 17.4679 946.855 17.9919 945.027C19.1199 941.095 19.661 926.328 18.713 925.379C18.321 924.987 17.9999 923.879 17.9999 922.917C17.9999 921.954 17.4379 920.94 16.7499 920.662C16.0029 920.361 16.2049 920.126 17.2499 920.079C18.2129 920.036 18.9289 919.662 18.8409 919.25C18.7539 918.838 19.0349 917.693 19.4649 916.707C19.8949 915.721 19.995 914.662 19.687 914.354C19.38 914.046 19.5489 912.685 20.0649 911.33C21.2489 908.215 20.1309 898.274 18.4009 896.544C17.6829 895.826 17.389 894.944 17.749 894.584C19.03 893.303 19.209 884 17.952 884C17.04 884 17.031 883.667 17.916 882.602C18.554 881.832 19.0559 879.695 19.0309 877.852C19.0059 876.008 18.964 871.575 18.936 868C18.908 864.364 18.2329 860.185 17.4029 858.516C16.0709 855.836 16.0849 855.411 17.5419 854.346C19.6469 852.806 18.5579 842.155 16.1039 840.285C14.6419 839.172 14.65 839.061 16.191 839.032C17.625 839.005 17.8929 837.819 17.9549 831.25C17.9959 826.987 18.2409 820.125 18.5009 816C18.7599 811.875 18.9129 801.075 18.8399 792C18.7659 782.925 18.742 774.375 18.786 773C18.83 771.625 19.0839 762.979 19.3509 753.788C19.6169 744.596 20.1049 736.639 20.4339 736.107C20.7629 735.574 20.574 734.855 20.014 734.508C19.324 734.082 19.333 733.247 20.04 731.924C20.844 730.424 20.7429 729.839 19.6059 729.402C18.7919 729.09 18.3699 728.199 18.6679 727.423C18.9659 726.647 19.563 726.23 19.994 726.496C20.426 726.763 20.844 724.173 20.925 720.741C21.005 717.308 21.413 703.925 21.832 691C22.25 678.075 22.25 666.772 21.831 665.881C21.413 664.991 21.381 663.953 21.76 663.573C22.14 663.194 22.5379 659.197 22.6469 654.692C22.7549 650.186 23.1089 643.575 23.4329 640C24.4219 629.09 24.6849 585.923 23.7659 585.355C23.2859 585.059 23.283 584.306 23.759 583.661C24.23 583.022 24.5129 581.6 24.3869 580.5C23.7969 575.34 23.8059 572.745 24.4489 562.352C24.9139 554.828 24.7919 550.99 24.0729 550.545C23.3429 550.094 23.4479 549.034 24.4079 547.178C25.9409 544.213 25.568 520.989 23.937 517.903C23.447 516.976 23.5119 515.888 24.0899 515.31C24.6379 514.762 25.019 510.53 24.936 505.907C24.853 501.283 24.8969 493.225 25.0319 488C25.3199 476.949 25.3139 479.481 25.1299 443.315C25.0079 419.205 24.7609 414.904 23.4219 413.565C22.0019 412.145 22.006 412 23.458 412C25.319 412 25.465 393.627 23.624 391.174C22.95 390.276 22.9929 389.623 23.7549 389.151C24.8429 388.479 25.0849 382.155 25.1579 352.5C25.1729 346.45 25.1229 340.375 25.0479 339C24.9729 337.625 25.248 327.95 25.66 317.5C26.352 299.907 26.586 276.586 26.14 269.5C25.895 265.592 26.849 217.504 27.529 199.5C27.82 191.8 28.2579 166.375 28.5019 143C28.7449 119.625 29.178 99 29.463 97.166C29.748 95.332 29.5189 92.97 28.9549 91.916C28.2329 90.566 28.2559 90 29.0319 90C29.6979 90 29.87 89.166 29.467 87.897C29.1 86.741 28.8599 84.153 28.9339 82.147C29.0079 80.141 29.165 68.6 29.284 56.5C29.5 34.5 29.4999 34.5 39.4999 34.696C76.8629 35.428 121.487 35.817 122.136 35.416C122.561 35.153 132.942 34.731 145.205 34.479C176.686 33.83 198.331 33.232 199.5 32.979C200.05 32.861 200.725 32.845 201 32.944C202.864 33.618 265.724 33.53 266.602 32.852C267.22 32.375 269.039 32.466 270.744 33.061C275.718 34.794 356.577 31.522 362 29.368C363.291 28.855 369.422 28.313 394 26.539C396.475 26.361 401.875 25.737 406 25.152C410.125 24.568 418.675 23.858 425 23.574C438.796 22.955 448.924 21.931 449.436 21.104C449.922 20.319 517.348 20.539 540 21.4Z" fill="#025354"/>
</svg>
